<?xml version="1.0" encoding="UTF-8"?>
<svg width="560" height="560" viewBox="0 0 560 560" fill="none" xmlns="http://www.w3.org/2000/svg">
<path fill-rule="evenodd" clip-rule="evenodd" d="M162.054 291.615L264.455 330.065C272.43 333.059 281.223 333.042 289.186 330.017L389.209 292.024L389.208 365.084C389.209 365.153 389.209 365.222 389.209 365.291C389.209 387.799 338.359 406.046 275.631 406.046C212.904 406.046 162.054 387.799 162.054 365.291C162.054 365.268 162.054 365.245 162.054 365.222C162.053 365.176 162.053 365.13 162.054 365.084V291.615Z" fill="#F0EFED" fill-opacity="0.1"/>
<path d="M481.533 346.523C484.95 340.25 488.816 332.1 492.086 324.855C494.632 319.214 501.881 317.971 505 323.317C510.461 332.679 514.061 343.848 515.853 351.291C516.422 353.655 515.921 356.219 514.104 357.835C506.396 364.687 494.499 362.851 485.258 359.347C480.301 357.468 478.998 351.179 481.533 346.523Z" fill="#F0EFED" fill-opacity="0.1"/>
<path fill-rule="evenodd" clip-rule="evenodd" d="M498.926 324.3C497.951 324.434 496.751 325.155 496.074 326.655C492.789 333.933 488.87 342.198 485.375 348.616C484.636 349.973 484.475 351.564 484.817 352.863C485.143 354.103 485.851 354.893 486.809 355.256C491.134 356.896 495.886 358.065 500.291 358.1C504.667 358.134 508.391 357.06 511.197 354.565C511.51 354.286 511.894 353.537 511.6 352.315C509.865 345.108 506.391 334.384 501.221 325.522C500.594 324.448 499.771 324.183 498.926 324.3ZM497.731 315.632C501.927 315.053 506.286 316.84 508.779 321.112L505 323.317M497.731 315.632C493.665 316.192 489.968 318.914 488.099 323.055ZM508.779 321.112C514.531 330.973 518.258 342.589 520.107 350.267C520.951 353.773 520.332 358.151 517.011 361.104C512.11 365.462 506.031 366.895 500.221 366.849C494.441 366.803 488.623 365.302 483.707 363.438C475.496 360.324 474.318 350.624 477.691 344.431C481.029 338.3 484.843 330.267 488.099 323.055" fill="#F0EFED" fill-opacity="0.1"/>
<path fill-rule="evenodd" clip-rule="evenodd" d="M491.102 313.29C492.972 311.76 495.728 312.035 497.258 313.905C498.759 315.739 499.53 318.434 500.013 320.677C500.546 323.15 500.912 326.042 501.165 328.95C501.673 334.779 501.76 341.088 501.687 345.137C501.643 347.553 499.649 349.476 497.233 349.432C494.817 349.388 492.894 347.394 492.938 344.978C493.008 341.143 492.923 335.153 492.448 329.709C492.211 326.979 491.884 324.491 491.459 322.52C491.247 321.535 491.026 320.756 490.812 320.179C490.61 319.634 490.475 319.437 490.477 319.435C490.477 319.435 490.48 319.439 490.486 319.446C488.956 317.576 489.232 314.82 491.102 313.29Z" fill="#F0EFED" fill-opacity="0.1"/>
<path fill-rule="evenodd" clip-rule="evenodd" d="M496.452 228.838C500.077 228.838 503.015 231.776 503.015 235.4V308.075C503.015 311.699 500.077 314.637 496.452 314.637C492.828 314.637 489.89 311.699 489.89 308.075V235.4C489.89 231.776 492.828 228.838 496.452 228.838Z" fill="#F0EFED" fill-opacity="0.1"/>
<path d="M514.513 310.655C514.513 320.63 506.427 328.716 496.452 328.716C486.477 328.716 478.391 320.63 478.391 310.655C478.391 300.68 486.477 292.594 496.452 292.594C506.427 292.594 514.513 300.68 514.513 310.655Z" fill="#F0EFED" fill-opacity="0.1"/>
<path d="M263.177 144.811L51.1216 229.308C47.2024 230.87 47.2581 236.437 51.2077 237.92L263.87 317.77C272.286 320.93 281.565 320.912 289.969 317.72L500.071 237.914C503.999 236.422 504.054 230.886 500.158 229.315L290.659 144.866C281.846 141.314 272.004 141.294 263.177 144.811Z" fill="#F0EFED" fill-opacity="0.1"/>
<path fill-rule="evenodd" clip-rule="evenodd" d="M437.569 242.931C438.397 245.201 437.229 247.712 434.959 248.541L285.309 303.154C283.04 303.983 280.528 302.814 279.7 300.544C278.871 298.274 280.04 295.763 282.31 294.935L431.959 240.321C434.229 239.493 436.741 240.661 437.569 242.931Z" fill="#F0EFED" fill-opacity="0.1"/>
<path fill-rule="evenodd" clip-rule="evenodd" d="M85.6053 232.803C86.4374 230.535 88.9509 229.37 91.2194 230.202L141.233 248.549C143.502 249.381 144.666 251.894 143.834 254.163C143.002 256.431 140.488 257.596 138.22 256.763L88.206 238.417C85.9375 237.585 84.7732 235.071 85.6053 232.803Z" fill="#F0EFED" fill-opacity="0.1"/>
</svg>
