<svg width="210" height="261" viewBox="0 0 210 261" fill="none" xmlns="http://www.w3.org/2000/svg">
<path d="M102.308 233.176C102.76 233.425 103.416 233.56 103.958 233.628C105.947 233.831 107.936 233.967 109.948 234.103C114.039 234.351 118.153 234.509 122.267 234.6C130.494 234.781 138.745 234.758 146.972 235.052C148.329 235.097 149.662 235.255 150.996 235.233C168.219 234.736 178.187 234.736 191.139 234.329C207.549 233.809 224.954 230.667 188.427 228.384C180.629 227.887 172.378 227.864 164.558 227.435C157.641 227.05 150.702 226.892 143.763 226.892C137.728 226.892 131.692 226.983 125.657 227.05C119.351 227.141 112.05 225.898 106.241 229.152C105.721 229.446 105.224 229.763 104.704 230.011C103.981 230.35 103.212 230.554 102.579 231.096C101.336 232.114 101.607 232.792 102.308 233.176Z" fill="url(#paint0_linear)"/>
<path opacity="0.56" d="M102.308 233.176C102.76 233.425 103.416 233.56 103.958 233.628C105.947 233.831 107.936 233.967 109.948 234.103C114.039 234.351 118.153 234.509 122.267 234.6C130.494 234.781 138.745 234.758 146.972 235.052C148.329 235.097 149.662 235.255 150.996 235.233C168.219 234.736 178.187 234.736 191.139 234.329C207.549 233.809 224.954 230.667 188.427 228.384C180.629 227.887 172.378 227.864 164.558 227.435C157.641 227.05 150.702 226.892 143.763 226.892C137.728 226.892 131.692 226.983 125.657 227.05C119.351 227.141 112.05 225.898 106.241 229.152C105.721 229.446 105.224 229.763 104.704 230.011C103.981 230.35 103.212 230.554 102.579 231.096C101.336 232.114 101.607 232.792 102.308 233.176Z" fill="url(#paint1_linear)"/>
<path d="M121.905 171.446C122.719 155.33 121.001 138.898 121.159 122.668C120.617 117.04 121.498 111.322 123.714 106.032C123.849 105.693 124.007 105.377 124.279 105.128C125.138 104.337 126.584 104.767 127.714 105.173C138.587 109.152 151.403 108.202 161.303 102.597C163.269 105.241 163.812 108.474 164.309 111.615C165.1 116.679 165.937 121.742 166.163 126.827V126.85C166.208 127.935 166.23 129.043 166.208 130.127C166.072 136.479 164.693 142.718 163.608 148.979C162.908 153.047 162.297 157.161 162.23 161.297C162.184 164.688 162.727 167.762 161.868 171.085C159.766 179.244 159.766 188.128 158.884 196.446C157.935 205.374 156.986 214.28 156.217 223.23C156.195 223.592 156.149 223.931 156.127 224.293C155.629 224.406 147.876 225.988 147.876 224.225C147.266 206.888 146.633 189.552 146.023 172.192C145.752 164.891 146.362 140.231 144.283 133.292C143.424 133.36 142.565 133.45 141.706 133.518C136.982 156.46 131.399 196.672 126.675 219.614C126.268 221.626 125.748 223.818 124.256 225.107C122.764 226.418 119.961 226.033 119.509 224.022C120.843 206.527 121.001 189.009 121.905 171.446Z" fill="#516277"/>
<path d="M132.167 12.0023C132.167 5.37958 137.954 0 145.074 0C152.194 0 157.98 5.37958 157.98 12.0023C157.98 13.1099 157.799 14.1722 157.505 15.1894C157.505 15.4606 157.483 15.7093 157.483 16.0031C157.528 18.3991 157.415 20.795 156.94 23.1684C156.036 27.7569 153.663 32.0288 149.165 34.6508C147.673 35.5098 145.955 36.1879 144.147 36.1653C141.728 36.1427 139.536 34.8995 137.863 33.385C132.348 28.2993 131.851 20.682 132.258 13.4941C132.212 12.9743 132.167 12.4996 132.167 12.0023Z" fill="#D1AC9D"/>
<path d="M150.928 34.4472C150.318 35.261 149.707 36.0747 148.803 36.6172C147.741 37.2727 146.385 37.4535 145.074 37.4761C143.491 37.4987 141.841 37.2953 140.553 36.4816C139.649 35.8939 137.411 34.0856 136.846 33.2267C134.925 30.3108 133.704 28.2992 132.687 25.0669C132.371 24.0723 132.099 23.0552 132.145 22.038C132.529 21.8798 132.981 22.1284 133.162 22.4675C133.343 22.8065 133.32 23.1908 133.343 23.5751C133.41 25.5641 134.428 27.4402 135.445 29.2033C136.349 30.7629 138.654 32.1417 140.056 33.3623C141.457 34.6055 143.401 35.4644 145.367 35.3514C145.616 35.3288 145.887 35.3062 146.113 35.1932C146.588 34.9445 146.791 34.4246 146.927 33.95C147.063 33.4753 147.244 32.9554 147.696 32.6842C148.148 32.4129 148.984 32.6616 148.916 33.1589C148.871 33.4753 148.509 33.7013 148.509 34.0178C148.509 34.3794 149.029 34.6055 149.413 34.4925C149.798 34.402 150.092 34.0856 150.34 33.8143C150.951 33.1363 151.583 32.4355 152.194 31.7574C152.465 31.4636 152.759 31.2376 153.12 31.3958C152.668 32.4356 151.674 33.4753 150.928 34.4472Z" fill="#333"/>
<path d="M147.628 224.473C150.951 224.224 154.318 224.36 157.596 224.857C160.127 226.53 162.908 227.931 165.846 228.971C166.705 229.288 167.587 229.581 168.219 230.169C168.852 230.757 169.101 231.774 168.513 232.384C167.993 232.927 167.089 232.994 166.298 232.994C160.15 233.062 154.002 232.588 147.944 231.616C147.583 231.548 147.198 231.48 146.927 231.254C146.724 231.073 146.611 230.802 146.543 230.553C145.933 228.496 146.339 226.236 147.628 224.473Z" fill="#3D322B"/>
<path d="M119.216 222.62C122.199 222.937 125.138 223.547 127.94 224.496C129.839 226.372 132.032 228.022 134.405 229.401C135.106 229.808 135.829 230.192 136.258 230.825C136.688 231.458 136.733 232.362 136.078 232.837C135.512 233.244 134.699 233.153 133.998 233.04C128.551 232.136 123.216 230.78 118.085 228.972C117.769 228.859 117.452 228.746 117.272 228.497C117.113 228.293 117.091 228.067 117.068 227.819C116.933 225.92 117.724 223.976 119.216 222.62Z" fill="#3D322B"/>
<path d="M156.579 124.182C156.963 123.323 157.483 122.532 158.071 121.763C158.884 120.678 159.811 119.684 160.512 118.554C160.986 117.785 161.371 116.949 162.139 116.384C162.456 116.135 162.885 115.954 163.314 116.022C163.699 116.09 163.993 116.361 164.173 116.678C164.332 116.994 164.4 117.333 164.422 117.672L164.445 118.554C163.744 121.424 163.066 124.295 162.365 127.143C162.23 127.708 162.049 128.341 161.484 128.657C160.986 128.929 160.353 128.861 159.788 128.77C158.613 128.59 157.347 128.364 156.624 127.505C155.833 126.578 156.081 125.267 156.579 124.182Z" fill="#D1AC9D"/>
<path d="M162.365 114.599C162.049 116.204 161.936 118.329 163.179 118.849C164.467 119.369 165.778 117.628 166.569 116.136C168.31 112.859 170.05 109.581 171.813 106.326C175.204 99.9523 178.662 93.4199 180.222 86.2999C180.855 83.4067 181.058 80.0388 179.431 78.0949C178.414 76.8743 176.876 76.4675 175.385 76.1962C167.993 74.8626 168.445 83.2937 167.18 89.8486C165.575 98.0988 163.97 106.349 162.365 114.599Z" fill="#97A8B2"/>
<path d="M152.194 116.181C152.894 118.418 153.776 120.611 154.861 122.623C156.873 126.284 161.484 127.708 165.824 127.121C165.869 127.437 165.756 127.957 165.756 128.16C165.665 129.245 165.462 130.33 165.145 131.393C164.919 132.116 164.626 132.862 163.947 133.291C163.179 133.789 162.139 133.766 161.19 133.676C159.54 133.54 157.867 133.291 156.33 132.771C154.228 132.048 152.375 130.828 150.724 129.471C149.481 128.454 148.329 127.324 147.537 125.99C146.769 124.679 146.407 123.21 146.159 121.741C145.842 119.91 145.729 118.034 146.023 116.203C147.944 116.226 150.069 116.226 152.194 116.181Z" fill="#516277"/>
<path d="M164.603 127.008C163.744 127.144 162.862 127.144 162.004 127.031C160.308 126.827 158.658 126.172 157.392 125.132C156.308 124.25 155.516 123.12 154.816 121.945C153.731 120.114 152.917 118.17 152.352 116.158C152.533 116.158 152.736 116.158 152.917 116.136C153.211 117.13 153.527 118.102 153.866 119.074C154.725 121.425 156.285 124.25 158.771 125.652C160.851 126.85 163.382 126.624 165.824 126.533C166.163 126.511 166.276 127.031 165.914 127.076C165.891 127.076 165.869 127.076 165.846 127.076C165.823 126.985 165.801 126.895 165.756 126.85C165.507 126.714 164.874 126.963 164.603 127.008Z" fill="#4B5B6B"/>
<path d="M154.861 122.623C153.753 120.611 152.872 118.441 152.194 116.181C152.239 116.181 152.284 116.181 152.352 116.181C152.917 118.192 153.731 120.136 154.816 121.967C155.494 123.12 156.307 124.25 157.392 125.154C158.658 126.194 160.308 126.849 162.004 127.053C162.862 127.166 163.744 127.143 164.603 127.03C164.874 126.985 165.507 126.736 165.733 126.917C165.778 126.962 165.824 127.053 165.824 127.143C161.506 127.686 156.873 126.284 154.861 122.623Z" fill="#516277"/>
<path d="M118.583 105.513C118.628 95.8837 118.65 86.2773 118.696 76.6483C118.718 68.5337 120.775 59.9444 122.086 51.9429C122.809 47.5352 123.668 45.9982 125.883 42.0878C126.2 41.5227 126.245 41.1611 129.184 40.3021C129.816 40.1213 131.331 39.3302 132.099 39.4658C135.919 40.0535 139.807 38.7425 143.627 39.3302C147.673 39.9405 154.454 38.087 157.596 40.596C161.845 43.9639 162.139 52.0106 162.817 57.2546C163.721 64.3294 165.891 71.5173 166.276 78.6599C166.615 84.9211 166.795 91.1822 166.931 97.4433C166.999 100.698 168.31 112.068 165.078 114.238C163.179 115.503 158.116 116.046 152.894 116.181C152.714 116.181 152.51 116.204 152.329 116.204C152.284 116.204 152.239 116.204 152.171 116.204C150.046 116.249 147.922 116.249 146 116.204C143.152 116.159 140.756 116.023 139.445 115.91C133.365 115.413 127.353 114.283 121.385 113.04C120.323 112.814 119.148 112.52 118.583 111.638C118.176 111.005 118.583 106.259 118.583 105.513Z" fill="#97A8B2"/>
<path d="M162.207 44.4158C160.647 42.6527 158.884 40.9575 156.827 40.3698C154.77 39.7821 152.397 40.6184 151.583 42.8336C150.86 44.8679 151.606 47.309 152.442 49.4111C154.59 54.7907 157.302 59.8538 160.014 64.8944C162.885 70.2061 165.733 75.5179 168.604 80.8297C169.463 82.4345 170.412 84.1298 171.813 85.0113C174.277 86.571 179.928 84.6044 180.357 81.214C180.742 78.1625 176.673 70.6582 175.52 67.7424C172.152 59.2661 168.016 50.9933 162.207 44.4158Z" fill="#97A8B2"/>
<path d="M145.187 40.8669C144.983 40.6183 144.78 40.3018 144.893 40.008C144.983 39.782 145.255 39.6689 145.481 39.5785C146.566 39.1265 147.673 38.7196 148.803 38.3579C149.165 38.2449 149.594 38.1319 149.933 38.3128C150.114 38.4032 150.227 38.5614 150.34 38.697C151.041 39.6237 151.742 40.5279 152.442 41.4546C152.555 41.5902 152.668 41.7484 152.668 41.9293C152.668 42.1327 152.488 42.3135 152.329 42.4492C151.583 43.1725 150.86 43.941 150.205 44.7321C149.73 45.2972 149.165 46.6534 148.238 46.0657C147.515 45.6136 147.266 44.2348 146.905 43.5341C146.43 42.63 145.842 41.7258 145.187 40.8669Z" fill="#ABBCC4"/>
<path d="M141.389 44.3703C141.254 44.9579 141.186 45.5456 140.96 46.1107C140.937 46.1785 140.892 46.2689 140.824 46.3141C140.598 46.4724 140.304 46.2238 140.169 46.0203C138.903 44.2573 137.411 42.6072 135.716 41.138C135.377 40.8442 135.038 40.5503 134.834 40.1887C134.631 39.8044 134.631 39.3297 134.947 39.0133C135.151 38.8099 135.467 38.7194 135.761 38.629C136.394 38.4482 137.05 38.2674 137.682 38.0865C138.067 37.9735 138.474 37.8605 138.88 37.9057C139.242 37.9509 139.581 38.1318 139.898 38.3126C140.666 38.7647 142.836 39.6914 142.904 40.5955C142.949 41.1154 142.271 41.8839 142.067 42.3812C141.751 43.0141 141.548 43.6922 141.389 44.3703Z" fill="#ABBCC4"/>
<path d="M146.656 44.0086C146.678 43.9181 146.701 43.8504 146.656 43.76C146.633 43.6921 146.565 43.6469 146.475 43.6017C145.548 43.014 144.35 42.7654 143.243 42.9236C143.107 42.9462 142.972 42.9688 142.859 43.0366C142.723 43.127 142.655 43.2401 142.61 43.3757C142.361 43.9408 142.406 44.5963 142.61 45.1839C142.813 45.7716 143.175 46.2915 143.537 46.8114C143.582 46.8792 143.627 46.947 143.717 46.9922C143.785 47.0374 143.876 47.0374 143.966 47.0374C145.503 46.947 146.339 45.1161 146.656 44.0086Z" fill="#333"/>
<path d="M147.357 63.1083C148.871 71.6749 150.385 80.2868 150.996 88.9438C151.041 89.5315 151.064 90.1192 150.86 90.6617C150.679 91.1364 150.34 91.5206 150.001 91.9049C148.713 93.3741 147.424 94.8433 146.136 96.3125C145.91 93.2837 141.683 91.6788 140.666 88.763C140.327 87.7685 140.372 86.7061 140.44 85.6664C140.892 77.9812 141.344 70.2961 141.796 62.611C142.045 58.4294 141.344 51.1963 143.898 47.625C145.639 48.0997 145.616 53.1176 145.887 54.6094C146.362 57.4574 146.859 60.2829 147.357 63.1083Z" fill="#333"/>
<path d="M109.27 79.0887C106.422 87.7232 104.275 96.5385 102.851 105.444C102.715 106.281 102.602 107.207 103.054 107.953C103.642 108.88 104.908 109.242 106.06 109.535C112.909 111.231 119.758 112.926 126.629 114.621C129.093 115.231 131.602 115.842 134.156 115.955C134.608 115.977 135.106 115.977 135.512 115.751C135.965 115.503 136.191 115.051 136.371 114.621C138.564 109.852 140.508 104.992 142.158 100.065C143.085 97.307 143.921 94.5268 144.712 91.724C145.594 88.5369 144.87 86.9547 141.435 86.2992C137.863 85.5985 134.36 84.4231 130.834 83.5416C129.025 83.0895 109.473 78.4785 109.27 79.0887Z" fill="#E2E2E2"/>
<path d="M121.114 94.6855C121.069 94.6402 121.024 94.595 120.979 94.5498C121.069 94.5724 121.114 94.6176 121.114 94.6855Z" fill="white"/>
<path d="M113.61 111.118C113.723 110.169 114.13 109.287 114.424 108.383C114.537 108.022 114.65 107.637 114.921 107.321C115.305 106.891 115.983 106.665 116.594 106.801C117.204 106.937 117.701 107.389 117.814 107.931L117.95 108.835C117.678 109.536 117.791 110.304 118.131 110.983C118.47 111.661 119.035 112.226 119.668 112.678C120.029 112.949 120.459 113.288 120.323 113.672C120.233 113.966 119.871 114.124 119.555 114.215C118.831 114.418 118.085 114.554 117.339 114.554C116.3 114.576 115.169 114.373 114.446 113.718C113.7 113.085 113.497 112.068 113.61 111.118Z" fill="#D1AC9D"/>
<path d="M155.177 14.9634C153.098 13.5846 149.798 13.5394 147.944 15.325C147.899 15.3476 147.876 15.3928 147.876 15.438C146.724 15.4154 145.526 15.438 144.373 15.3024C143.627 13.4715 141.57 12.2284 139.649 12.59C136.914 12.4544 134.111 13.7202 132.913 16.3874C131.444 19.6649 135.987 22.0156 138.7 22.1286C141.841 22.2642 145.119 19.5744 144.622 16.2065C144.622 16.1613 144.599 16.1387 144.599 16.0935C145.752 16.0483 146.927 16.1387 148.08 16.1839C148.035 19.8683 154.07 23.6882 156.533 20.2073C157.822 18.4216 156.85 16.0709 155.177 14.9634ZM137.908 21.1341C135.151 20.6142 132.19 18.2182 134.563 15.4832C135.512 14.3983 136.823 13.6976 138.225 13.4489C138.247 13.7202 138.496 13.9688 138.835 13.8106C141.276 12.7256 144.305 14.8277 143.695 17.6079C143.107 20.2299 140.395 21.6087 137.908 21.1341ZM155.878 19.5292C154.07 22.5129 147.492 18.6477 148.984 15.6866V15.6641C150.34 15.0538 151.674 14.6921 153.211 15.0764C155.087 15.5737 157.099 17.4949 155.878 19.5292Z" fill="#414141"/>
<path d="M121.815 90.9556C125.273 77.1224 129.093 63.357 133.207 49.682C133.682 48.0771 134.179 46.4497 134.021 44.7997C133.862 43.1496 132.936 41.477 131.24 40.7537C129.251 39.9174 126.765 40.7085 125.251 42.1325C123.736 43.5565 122.968 45.4551 122.29 47.3312C116.051 64.3515 113.519 82.4342 114.876 100.291C115.011 102.122 115.192 104.02 114.582 105.783C114.265 106.71 113.768 107.84 114.537 108.541C115.441 109.377 117.543 109.332 118.244 108.496C119.148 107.388 118.922 103.953 119.193 102.551C119.916 98.6859 120.866 94.8208 121.815 90.9556Z" fill="#97A8B2"/>
<path d="M63.8375 260.867C58.6839 261.048 53.5302 261.003 48.3766 260.935C34.0009 260.777 19.6253 260.619 5.27224 260.461C3.03451 260.438 0.141387 260.008 0.00576684 258.494C-0.129853 257.138 2.15291 256.256 4.0742 255.827C10.9682 254.335 18.2013 254.019 25.344 253.725C35.8545 253.318 46.3876 252.956 56.8981 252.662C63.4757 252.482 70.2117 252.346 76.3372 253.815C79.6598 254.629 84.5872 258.087 79.2528 259.828C77.7836 260.302 74.8001 260.099 73.2179 260.234C70.0986 260.528 66.9793 260.754 63.8375 260.867Z" fill="url(#paint2_linear)"/>
<path opacity="0.22" d="M63.8375 260.867C58.6839 261.048 53.5302 261.003 48.3766 260.935C34.0009 260.777 19.6253 260.619 5.27224 260.461C3.03451 260.438 0.141387 260.008 0.00576684 258.494C-0.129853 257.138 2.15291 256.256 4.0742 255.827C10.9682 254.335 18.2013 254.019 25.344 253.725C35.8545 253.318 46.3876 252.956 56.8981 252.662C63.4757 252.482 70.2117 252.346 76.3372 253.815C79.6598 254.629 84.5872 258.087 79.2528 259.828C77.7836 260.302 74.8001 260.099 73.2179 260.234C70.0986 260.528 66.9793 260.754 63.8375 260.867Z" fill="url(#paint3_linear)"/>
<path d="M60.4016 17.2265C61.1701 29.5679 63.9957 41.7962 68.6971 53.2335C59.475 54.9288 49.9136 56.624 40.8271 54.3637C40.0134 54.1602 39.1545 53.9116 38.5668 53.3013C37.8435 52.578 37.6627 51.4931 37.5271 50.4759C36.3969 42.3387 36.1708 34.0885 36.8263 25.8835C36.9845 23.9396 37.1879 21.9505 37.9791 20.1649C38.6798 18.5374 39.8325 17.1134 41.0757 15.8703C46.93 9.92559 59.6331 4.86246 60.4016 17.2265Z" fill="#EDDDB2"/>
<path d="M51.1571 39.7618C49.5975 40.6207 48.0605 41.231 46.9077 41.3893C45.5515 41.5701 44.2179 41.0276 42.9748 40.5077C40.3754 39.4454 37.6403 38.2474 36.1033 35.8967C35.2217 34.5179 34.8376 32.8904 34.5211 31.2856C33.7074 27.2396 33.0744 23.171 32.6449 19.0572C32.4189 16.9551 32.2833 14.7174 33.2552 12.8187C34.8827 9.63162 38.8835 8.68231 42.387 8.07202C45.868 7.46173 49.5523 6.87405 52.8071 8.18504C56.2428 9.54124 55.7681 12.1858 56.3784 15.3277C57.1469 19.2606 57.7799 23.2162 58.2546 27.1944C58.5259 29.4547 58.7291 31.8507 57.7798 33.9076C56.8756 35.8289 53.9826 38.2022 51.1571 39.7618Z" fill="#F2E7D6"/>
<path d="M25.7057 191.226C26.4969 173.483 24.8241 155.378 24.9823 137.521C24.4624 131.328 25.2987 125.021 27.4686 119.212C27.6042 118.851 27.7401 118.489 28.0113 118.195C28.8476 117.336 30.2716 117.788 31.3792 118.24C41.9575 122.625 54.4571 121.586 64.1087 115.415C66.0074 118.331 66.5497 121.902 67.0244 125.361C67.7929 130.944 68.6067 136.504 68.8101 142.11V142.132C68.8553 143.33 68.878 144.551 68.8554 145.749C68.7197 152.733 67.3862 159.605 66.3238 166.499C65.6457 170.997 65.0355 175.517 64.9903 180.06C64.9451 183.79 65.4649 187.181 64.6286 190.842C62.5943 199.816 62.5716 209.603 61.7126 218.78C60.7859 228.612 60.6278 228.296 59.8819 238.128C59.8593 238.513 59.814 238.92 59.7914 239.304C59.2941 239.439 51.7448 241.18 51.7448 239.213C51.1345 220.114 49.7783 211.163 49.168 192.063C48.9193 184.039 49.4844 156.892 47.4727 149.23C46.6364 149.32 45.8001 149.388 44.9638 149.478C40.3753 174.749 35.6738 208.857 31.0853 234.128C30.6785 236.343 30.1811 238.761 28.7345 240.185C27.2653 241.609 24.5528 241.225 24.1007 239.01C25.4343 219.707 24.8468 210.552 25.7057 191.226Z" fill="#272826"/>
<path d="M46.2973 60.0605C46.3199 60.0605 46.3652 60.0831 46.3878 60.0831C46.3652 60.0831 46.3199 60.0832 46.2973 60.0605Z" fill="white"/>
<path d="M46.094 59.9922C46.1166 59.9922 46.1163 60.0148 46.1389 60.0148C46.1389 60.0148 46.1166 60.0148 46.094 59.9922Z" fill="white"/>
<path d="M46.1842 60.0372C46.1616 60.0372 46.1615 60.0146 46.1389 60.0146C46.1841 60.0373 46.2295 60.0373 46.2747 60.0599C46.2521 60.0599 46.2294 60.0598 46.1842 60.0372Z" fill="#1D4360"/>
<path d="M5.74682 123.574C6.33451 122.218 7.35174 121.156 8.09765 119.89C10.3806 107.074 12.6636 94.258 15.2856 81.5097C16.5514 75.339 17.8849 69.1683 20.5295 63.4271C23.0384 57.9571 26.3836 52.9617 29.7289 47.989C29.7289 47.763 31.1529 47.5596 31.4241 47.537C35.8318 47.0397 36.7813 51.4021 36.1258 55.2899C34.973 62.1161 29.2994 68.0382 26.0672 73.9376C22.202 80.9899 20.1452 89.1722 17.7267 96.8122C15.2403 104.633 12.8895 112.544 11.1717 120.568C11.6011 121.721 11.7819 123.145 11.9627 123.755C12.1888 124.524 12.3246 125.451 11.5787 126.016C11.1944 126.309 10.878 126.151 10.4937 126.287C9.68002 126.536 8.52712 127.214 8.09765 127.96C7.96203 128.186 7.96202 128.502 7.8038 128.751C6.85446 130.22 5.20444 129.248 5.00101 127.801C4.79758 126.4 5.22695 124.795 5.74682 123.574Z" fill="#F2E7D6"/>
<path d="M57.6668 47.9219C55.723 47.9219 54.4118 48.9842 54.3439 50.4308C54.5248 51.1315 54.7962 51.7644 54.8641 51.9453C57.9381 60.4215 60.5373 67.4964 64.5381 75.7466C65.3066 77.3062 66.4141 80.8549 69.3073 80.6063C72.2684 80.3576 72.3364 77.2384 72.0878 75.4301C71.5227 71.2033 70.0081 66.9991 68.5615 62.9079C67.2731 59.2687 66.1882 55.381 63.7923 52.0583C62.5265 50.3178 60.4244 47.9445 57.6668 47.9219Z" fill="#F2E7D6"/>
<path d="M23.3323 117.201C27.4461 109.855 29.5482 101.288 28.4632 92.9477C27.6495 86.664 25.0954 80.2673 26.7906 74.1644C27.6722 70.9999 29.6387 68.2423 31.3565 65.4395C35.2669 58.9976 37.9567 51.8549 39.2903 44.4636C39.3581 44.0794 39.4258 43.6725 39.697 43.4013C40.2621 42.8362 41.2114 43.1527 41.9347 43.4239C44.5341 44.4185 47.45 44.5541 50.1624 43.8534C51.6768 43.4465 52.0611 42.8588 53.0104 44.1698C53.8015 45.2548 54.1858 47.1082 54.683 48.374C56.8755 54.0701 58.7742 59.9469 59.2263 66.0724C59.4523 69.1464 59.3395 72.2657 60.221 75.2041C60.9669 77.6001 62.3456 79.7474 63.4757 82.0077C67.5669 90.2127 68.0416 99.7513 71.093 108.408C71.5903 109.81 72.1555 111.234 72.3137 112.703C72.4719 114.172 72.1328 115.8 71.0704 116.862C70.3019 117.608 69.2848 117.97 68.2676 118.331C66.7984 118.851 65.3293 119.371 63.8601 119.891C61.8258 120.614 59.7689 121.337 57.6442 121.744C55.0448 122.242 52.4002 122.287 49.7557 122.309C44.8959 122.355 40.0361 122.422 35.1537 122.468C32.3735 122.49 29.6161 122.535 26.8585 122.309C25.005 122.151 22.6768 121.428 22.5412 119.574C22.496 118.693 22.9254 117.924 23.3323 117.201Z" fill="#EDEDED"/>
<path d="M53.8241 238.558C53.259 238.513 52.6714 238.468 52.1967 238.739C51.6542 239.055 51.4055 239.688 51.2472 240.299C50.2753 244.073 51.7446 247.984 52.1741 251.849C52.4227 254.154 52.287 256.482 52.6486 258.788C53.4398 258.72 54.2084 258.63 54.9995 258.562C54.8186 257.206 54.8186 255.827 54.9768 254.448C55.0221 254.019 55.0899 253.567 55.3386 253.205C55.5872 252.843 56.0619 252.617 56.4687 252.776C56.8304 252.911 57.0111 253.318 57.1467 253.68C57.4631 254.516 57.7346 255.397 57.9154 256.279C58.0284 256.776 58.1188 257.296 58.4352 257.658C58.9551 258.246 59.8592 258.291 60.6503 258.268C63.5435 258.223 66.4367 258.178 69.3299 258.132C70.5731 258.11 71.9745 258.02 72.743 257.048C73.6924 255.872 73.1274 254.041 72.0425 252.979C70.9575 251.939 69.4881 251.397 68.1997 250.583C66.7983 249.701 65.6229 248.481 64.8092 247.057C63.3852 244.616 63.3627 240.931 61.4866 238.807C60.7181 237.925 59.8367 238.083 58.7517 238.242C57.1243 238.535 55.4967 238.648 53.8241 238.558Z" fill="#3D322B"/>
<path d="M23.626 235.529C23.3548 235.507 23.0837 235.507 22.8802 235.665C22.7446 235.778 22.6542 235.936 22.5638 236.094C21.5014 238.242 21.5466 240.728 21.1171 243.079C20.5068 246.379 18.9698 249.43 17.704 252.55C17.3423 253.454 16.9808 254.403 17.0034 255.375C17.0486 257.274 18.563 258.924 20.3487 259.602C22.1343 260.28 24.1234 260.167 25.9995 259.828C26.3838 259.76 26.7906 259.67 27.1297 259.511C27.4913 259.331 27.785 259.059 28.0788 258.765C30.3618 256.279 30.4974 252.572 30.6104 249.204C30.6782 247.26 30.7913 245.339 30.9495 243.395C31.0851 241.768 31.6956 239.711 31.4017 238.083C31.1531 236.727 30.1357 236.637 28.9378 236.456C27.1747 236.185 25.4343 235.62 23.626 235.529Z" fill="#3D322B"/>
<path d="M69.9403 104.95C65.397 104.294 60.8313 103.887 56.2428 103.707C55.2709 103.661 54.2536 103.639 53.3269 103.345C51.8125 102.87 50.6146 101.785 49.4618 100.7C46.433 97.8298 43.5622 94.8235 40.8046 91.6816C53.8015 91.9755 66.7984 92.4276 79.7727 93.0153C80.1343 93.0379 80.4962 93.0604 80.8352 93.1961C81.2873 93.3995 81.6263 93.8064 81.9201 94.2132C83.5024 96.2475 85.1297 98.2366 86.8701 100.135C88.6106 102.011 90.9614 103.503 92.5888 105.424C94.8492 108.114 89.899 107.549 88.2941 107.459C85.4009 107.323 82.5078 106.939 79.6372 106.509C76.4275 106.012 73.1952 105.402 69.9403 104.95Z" fill="#E2E2E2"/>
<path d="M76.1562 103.842C76.9926 103.368 77.9194 103.119 78.8009 102.735C79.9085 102.215 80.9031 101.424 81.649 100.429C81.9654 99.9999 82.2592 99.5252 82.7113 99.2088C83.638 98.5533 85.062 98.8471 85.8079 99.706C86.5764 100.565 86.7798 101.808 86.599 102.938C86.4181 104.068 85.9208 105.131 85.4009 106.148C85.1523 106.645 84.9039 107.143 84.5196 107.527C82.6888 109.403 78.0776 108.34 75.9303 107.617C75.5008 107.482 75.0713 107.301 74.8001 106.916C74.6193 106.668 74.5515 106.374 74.5741 106.058C74.5967 105.131 75.3425 104.317 76.1562 103.842Z" fill="#F2E7D6"/>
<path d="M54.5476 63.9249C52.6263 75.2492 51.6089 86.6864 51.5185 98.0785C51.5185 99.1634 51.5413 100.339 52.2646 101.175C53.1687 102.238 54.8186 102.441 56.3104 102.577C65.1935 103.39 74.0767 104.227 82.9824 105.04C86.1921 105.334 89.4244 105.628 92.6341 105.266C93.2218 105.199 93.832 105.108 94.2841 104.769C94.804 104.385 94.9848 103.775 95.1656 103.187C97.0191 96.8127 98.5109 90.3708 99.6411 83.8836C100.274 80.2671 100.794 76.628 101.246 72.9888C101.743 68.8298 100.545 66.9989 96.1151 66.8181C91.5266 66.6373 86.9153 65.8236 82.3495 65.3941C79.9761 65.1681 54.6832 63.1338 54.5476 63.9249Z" fill="#E2E2E2"/>
<path d="M17.0036 180.648C16.9809 182.366 17.026 184.197 17.998 185.643C18.5404 186.434 19.3315 187.067 20.1452 187.587C24.9145 190.684 30.9271 191.317 36.6909 191.588C45.6418 192.017 54.6153 191.814 63.521 190.978C65.7814 190.774 68.0642 190.503 70.1437 189.622C72.3136 188.717 74.1446 187.18 75.6364 185.417C79.9762 180.332 81.5584 173.528 81.4679 166.973C81.3775 160.418 79.7503 153.976 78.2584 147.579C75.7947 136.843 73.7376 126.038 72.1101 115.144C71.9519 114.059 71.7033 112.861 70.754 112.25C70.0985 111.844 69.2848 111.821 68.5163 111.798C54.9091 111.663 40.6917 111.55 27.8756 116.545C24.5755 117.833 23.1968 118.195 22.6318 121.54C21.9989 125.315 21.3206 129.067 20.7555 132.865C19.6705 140.256 18.8116 147.67 18.1787 155.129C17.478 163.65 17.094 172.149 17.0036 180.648Z" fill="#EDEDED"/>
<path d="M56.7852 7.12267C53.2365 2.73763 46.8171 1.29099 41.4149 2.89583C36.0127 4.47806 31.6276 8.70488 28.9378 13.6776C26.248 18.6277 25.0953 24.2786 24.5303 29.8842C23.4679 40.7112 24.5302 51.6286 25.6152 62.4555C32.0571 63.1562 38.6122 62.7946 44.9637 61.4158C41.302 49.7977 37.6175 37.9761 37.2107 25.8156C37.1203 23.284 37.301 20.4586 39.0867 18.673C40.7141 17.0455 43.1778 16.7517 45.2799 15.8475C46.4101 15.3503 47.4951 14.4687 48.128 13.4064L47.9473 15.192C50.524 13.2481 54.8413 15.9153 57.2824 13.7906C59.1585 12.1632 58.3449 9.04395 56.7852 7.12267Z" fill="#EDDDB2"/>
<path fill-rule="evenodd" clip-rule="evenodd" d="M68.2231 70.1078C68.3025 71.0487 68.5874 73.7513 68.829 74.7405C68.9988 74.6262 69.1295 74.4693 69.2602 74.3125C68.9335 72.5043 68.8529 70.7077 68.9384 68.878C66.3045 69.8144 67.871 74.1253 68.4925 75.7843C68.6251 75.5867 68.6345 75.3834 68.603 75.1782C68.3671 74.067 67.7206 71.1845 68.1821 70.1059" fill="#3B5089"/>
<path fill-rule="evenodd" clip-rule="evenodd" d="M66.4435 77.4003C66.1104 76.6105 65.0749 75.0137 64.6578 74.2608C65.3267 74.9033 66.3527 76.7033 67.1315 77.6361C67.2086 76.8655 66.8211 76.3585 66.4002 75.6869C65.9125 74.6861 65.212 73.8385 64.3379 73.1864L64.2559 73.1826C63.7305 74.7472 64.7869 75.8967 65.6496 76.7927C65.8825 77.0888 66.0686 77.505 66.4435 77.4003Z" fill="#3B5089"/>
<path fill-rule="evenodd" clip-rule="evenodd" d="M69.7202 75.0264C68.4534 75.7415 69.0558 77.807 69.4653 78.7226C69.8277 78.006 69.3867 76.8852 69.3779 76.1921C69.5717 76.4457 69.6511 77.3866 69.9268 77.6439C69.9325 77.522 70.0184 77.4445 70.1042 77.367C69.8102 76.6198 69.6822 75.8396 69.7202 75.0264Z" fill="#3B5089"/>
<path fill-rule="evenodd" clip-rule="evenodd" d="M63.6363 75.8837C64.268 76.443 65.3282 77.5112 65.917 78.1091C66.042 78.0742 65.9713 77.8264 66.061 77.6676C64.8663 76.8376 64.6046 75.3993 62.9826 74.916C62.9306 76.9102 64.6585 77.7651 65.7541 78.9572C65.9201 78.9242 66.0842 78.9319 66.2464 78.9802C65.5907 78.0531 64.333 76.8127 63.6363 75.8837Z" fill="#3B5089"/>
<path fill-rule="evenodd" clip-rule="evenodd" d="M62.0709 76.8291C62.0637 78.7439 64.012 79.2831 65.492 80.1672C65.1216 79.2942 63.3955 78.3986 62.7714 77.6768C63.3716 78.0308 64.5625 78.9421 65.1216 79.2942C65.2447 79.2999 65.2523 79.1373 65.4221 79.023C64.3448 78.3207 63.7473 77.0296 62.0709 76.8291Z" fill="#3B5089"/>
<path fill-rule="evenodd" clip-rule="evenodd" d="M65.7943 79.855C65.7488 80.8308 66.8899 81.0471 67.6895 81.5326C67.8 80.9266 66.4986 80.6213 66.3125 80.2052C66.8401 80.352 67.7886 81.1705 68.3314 80.9922C67.6511 80.5937 66.8428 79.415 65.7943 79.855Z" fill="#3B5089"/>
<path fill-rule="evenodd" clip-rule="evenodd" d="M61.3082 79.0749C61.486 80.5502 63.5725 80.7699 64.896 81.4836C65.1011 81.4932 64.7843 81.2339 64.8329 81.0732C64.1898 80.7579 63.1049 80.2183 62.5048 79.8643C63.3158 80.1059 64.123 80.4288 64.9283 80.7924C65.016 80.6743 65.2211 80.6839 65.2717 80.4825C64.0618 79.9778 62.8823 78.8225 61.3082 79.0749Z" fill="#3B5089"/>
<path fill-rule="evenodd" clip-rule="evenodd" d="M66.2669 81.1813C65.9463 81.0033 65.5304 81.1061 65.3511 81.4237C65.4362 82.2426 67.0399 82.2361 67.6401 82.5901C67.642 82.5494 67.6868 82.47 67.7689 82.4738C67.1668 82.1605 66.5647 81.8471 65.9178 81.6132C66.5294 81.7232 67.0981 81.872 67.702 82.1447C67.8289 82.0692 67.7153 81.8601 67.6781 81.7769C67.1934 81.5913 66.7497 81.4076 66.2669 81.1813Z" fill="#3B5089"/>
<path fill-rule="evenodd" clip-rule="evenodd" d="M61.1331 81.0642C61.2068 82.127 62.5997 82.2328 63.9479 82.4181C64.2761 82.4334 64.757 82.7003 64.7779 82.2531C64.1271 82.1004 62.9097 81.7583 62.3019 81.567C62.9621 81.5163 64.5374 82.1196 65.1193 81.9838C64.0641 81.69 61.9935 80.2486 61.1331 81.0642Z" fill="#3B5089"/>
<path fill-rule="evenodd" clip-rule="evenodd" d="M65.3294 82.7676C65.4966 83.5904 66.6156 83.3982 67.3187 83.3088C67.209 83.0184 66.0192 82.9629 65.7397 82.7868C65.9953 82.595 67.2853 83.1442 67.4274 82.7434C66.6965 82.5463 65.6527 82.0085 65.3294 82.7676Z" fill="#3B5089"/>
<path fill-rule="evenodd" clip-rule="evenodd" d="M61.105 83.4253C62.294 84.3773 63.8985 83.4743 65.1741 83.4524C65.027 83.0788 64.4451 83.2146 64.033 83.2361C63.6208 83.2576 62.7145 83.2968 62.3042 83.2776C63.1323 83.1533 63.9585 83.0696 64.7828 83.0266C64.7866 82.9453 64.7475 82.9027 64.6673 82.8582C63.3602 82.675 61.5703 82.2654 61.105 83.4253Z" fill="#3B5089"/>
<path fill-rule="evenodd" clip-rule="evenodd" d="M65.7009 84.4965C66.3364 84.9744 66.7208 84.6664 67.2694 84.3661C67.5641 84.2168 67.9391 84.1121 67.9896 83.9107C67.5755 83.9729 66.5795 84.1709 66.1655 84.233C66.2141 84.0723 67.2959 83.7968 67.5049 83.7251C67.5087 83.6438 67.4676 83.6419 67.5106 83.6031C66.8169 83.4892 65.7913 83.4413 65.7009 84.4965Z" fill="#3B5089"/>
<path fill-rule="evenodd" clip-rule="evenodd" d="M63.4259 86.5495C63.9877 85.9645 65.1182 85.5284 65.7583 85.0285C65.2344 84.8003 64.5142 85.2557 63.9247 85.5541C63.3351 85.8526 62.4193 86.095 62.5397 87.0378C63.2068 87.7209 63.8153 87.0159 64.4497 86.6381C64.9572 86.3358 65.7089 86.0857 65.6515 85.5533C64.9875 85.6853 64.0546 86.2936 63.4259 86.5495Z" fill="#3B5089"/>
<path fill-rule="evenodd" clip-rule="evenodd" d="M71.1538 86.5842C71.0308 86.5785 70.9487 86.5747 70.8237 86.6096C70.6053 86.8846 70.3527 87.8915 70.1753 88.1684C70.0674 87.8374 70.6558 86.6832 70.4192 86.4684C70.0234 87.0204 69.2747 88.0856 70.0333 88.5693C70.8165 88.5244 70.9852 87.5543 71.1538 86.5842Z" fill="#3B5089"/>
<path fill-rule="evenodd" clip-rule="evenodd" d="M72.2558 86.758C72.1327 86.7522 72.0488 86.789 71.9238 86.8239C71.7874 87.1028 71.6989 88.1174 71.5607 88.4369C71.4099 88.1446 71.7969 86.8995 71.5174 86.7235C71.2427 87.3218 70.6934 88.5186 71.5007 88.8415C72.2896 88.6747 72.2942 87.6969 72.2558 86.758Z" fill="#3B5089"/>
<path fill-rule="evenodd" clip-rule="evenodd" d="M64.6799 87.8715C64.9097 87.3525 65.8855 86.7054 66.2384 86.1921C66.1583 86.1477 66.0762 86.1438 66.039 86.0606C65.5201 86.6068 63.5635 87.1266 63.9988 88.3694C64.12 88.4158 64.2822 88.4641 64.4444 88.5124C64.8079 88.6517 65.0673 88.3786 65.3249 88.1461C65.5824 87.9136 65.8438 87.5999 66.1032 87.3268C66.2339 87.1699 66.4056 87.0149 66.5754 86.9006C66.499 86.7748 66.5982 86.4127 66.4303 86.4863C65.8723 86.99 65.2751 87.4511 64.6799 87.8715Z" fill="#3B5089"/>
<path fill-rule="evenodd" clip-rule="evenodd" d="M67.266 86.1993C67.0962 86.3136 67.2059 86.604 67.2002 86.7259C67.37 86.6116 67.2584 86.3619 67.266 86.1993Z" fill="#3B5089"/>
<path fill-rule="evenodd" clip-rule="evenodd" d="M67.5 87.351C67.231 87.8274 66.88 88.3 66.4527 88.6467C66.6005 88.1239 67.0316 87.6958 67.1794 87.173L66.6909 87.0687C66.3733 87.7058 65.3955 88.3936 66.0197 89.1155C66.096 89.2413 66.3441 89.2121 66.4671 89.2179C66.6312 89.2255 66.801 89.1112 66.8907 88.9524C67.1558 88.5573 67.3818 88.1197 67.6489 87.6839C67.6154 87.5194 67.582 87.3548 67.4627 87.2678" fill="#3B5089"/>
<path fill-rule="evenodd" clip-rule="evenodd" d="M66.4116 71.0419C64.5324 72.5433 66.6224 75.3303 67.4308 76.509C67.5766 76.0268 67.109 75.4752 66.9639 75.061C66.8188 74.6467 66.3892 73.282 66.246 72.8271C66.8234 73.669 67.4536 76.0211 68.4507 76.6788C68.1567 75.9317 67.8646 75.1438 67.5333 74.3134C67.3863 73.9398 66.5806 71.824 66.4116 71.0419Z" fill="#3B5089"/>
<path fill-rule="evenodd" clip-rule="evenodd" d="M66.9924 78.8519C67.5087 79.2427 68.0249 79.6336 68.4963 80.1038C68.4857 79.4514 67.7366 78.7644 67.4589 78.5477C67.4589 78.5477 66.8234 78.0698 66.5658 78.3023C66.2923 79.7564 67.7168 80.0674 68.4211 80.8338C68.4925 80.1851 67.2139 79.392 66.9924 78.8519Z" fill="#3B5089"/>
<path fill-rule="evenodd" clip-rule="evenodd" d="M66.6791 85.5605C67.3928 86.1235 67.9231 85.3334 68.3505 84.9866C67.9535 84.6828 67.3936 85.2271 67.0597 85.3338C67.0768 84.9679 68.1081 84.8938 68.0097 84.3595C67.5471 84.5824 66.5081 84.8191 66.6791 85.5605Z" fill="#3B5089"/>
<path fill-rule="evenodd" clip-rule="evenodd" d="M69.8297 86.7675C69.9288 86.4054 70.2217 86.2968 70.0298 86.0026C69.6139 86.1054 69.2344 87.1879 68.8147 87.372C69.0407 86.9344 69.2686 86.456 69.5337 86.0609C69.3677 86.0939 69.2838 86.1308 69.1664 86.003C68.9738 86.6053 68.0447 87.1323 68.5495 87.7671C68.6821 87.5696 69.3586 88.0494 69.8297 86.7675Z" fill="#3B5089"/>
<path fill-rule="evenodd" clip-rule="evenodd" d="M61.4708 85.2767C61.9179 83.627 64.0208 84.3772 65.28 83.8248C65.0559 84.2218 64.4797 84.2356 64.0189 84.4178C63.5581 84.6 62.6032 84.7999 62.2655 84.9879C63.0115 84.8597 64.3452 84.4738 65.0893 84.3863C65.0818 84.549 64.9587 84.5432 64.9921 84.7078C64.0037 84.7431 62.8391 85.9111 61.9088 85.5824L61.8678 85.5805C61.6645 85.5303 61.6311 85.3657 61.4689 85.3174" fill="#3B5089"/>
<path fill-rule="evenodd" clip-rule="evenodd" d="M68.072 85.6665L68.3277 85.4747C68.5404 85.3216 68.7178 85.0447 68.9134 85.2576C68.654 85.5307 67.8384 86.2668 67.5771 86.5806C67.9129 86.4333 68.6893 85.6546 69.0661 85.5092C69.0414 86.0378 68.0857 87.134 67.4798 86.902L67.3195 86.813L67.2823 86.7298C67.2489 86.5652 67.2546 86.4433 67.2622 86.2806C67.2679 86.1586 68.072 85.6665 68.072 85.6665Z" fill="#3B5089"/>
<path fill-rule="evenodd" clip-rule="evenodd" d="M67.7791 76.9733C67.781 76.9326 67.865 76.8958 67.865 76.8958C68.6923 77.6679 69.2621 78.6725 69.457 79.7817L69.1717 79.7277C68.8348 79.0192 68.4549 78.3495 68.034 77.6779C68.2908 78.3419 68.5886 79.0077 68.9274 79.6755L68.6403 79.6621C68.268 78.8298 67.2671 78.2533 67.7791 76.9733Z" fill="#3B5089"/>
<path fill-rule="evenodd" clip-rule="evenodd" d="M68.4568 82.7103C68.7869 82.6849 69.1409 83.0274 69.2754 82.7892C68.7964 82.4816 68.1047 82.3271 68.3478 81.5235C69.0194 81.2289 69.4346 82.0225 69.8429 82.0823C69.5823 81.4997 68.736 81.1341 69.0668 80.2124C70.2155 80.2661 70.1662 81.3232 70.4887 81.4605C70.4066 81.4567 70.3922 80.8855 70.355 80.8023C70.249 80.4306 69.9341 80.1307 69.9101 79.7628C69.9234 79.4782 69.9777 79.1955 70.0712 78.9554C70.1274 78.632 70.3477 78.3164 70.6444 78.1265C70.7143 79.2707 71.5713 80.2886 71.4714 81.5471C71.3772 82.6837 70.0108 82.0086 69.8346 83.1413C69.8452 83.7938 70.2289 84.3822 70.8328 84.6549C71.4425 84.8056 72.0131 84.9137 72.6265 84.9831C72.6524 85.3103 72.6611 86.0034 72.2395 86.2282C72.0697 86.3425 71.8664 86.2923 71.7099 86.122C71.5945 85.9536 71.561 85.7891 71.6116 85.5877C71.6154 85.5064 71.6192 85.4251 71.623 85.3437C71.5857 85.2605 71.5466 85.2179 71.5094 85.1347C71.3282 85.493 71.3893 85.944 71.0106 86.1301C70.9248 86.2076 70.8017 86.2018 70.6786 86.1961C70.524 85.9851 70.3599 85.9774 70.3322 85.6909C70.3436 85.447 70.7728 85.0595 70.497 84.8022C70.0822 85.7607 69.6424 85.4957 69.5117 85.6526C69.0403 85.1824 69.7195 84.7251 69.8167 84.4037C69.3559 84.5859 69.0365 85.2637 68.4887 84.6676C68.4982 84.4643 68.5058 84.3017 68.5563 84.1003C68.7337 83.8234 69.1793 83.9664 69.3176 83.6469C69.0399 83.4302 68.6479 83.9009 68.3235 83.8042C68.0401 83.7095 67.8502 83.3746 67.9865 83.0958C68.1172 82.9389 68.2889 82.7839 68.4568 82.7103Z" fill="#3B5089"/>
<path fill-rule="evenodd" clip-rule="evenodd" d="M83.8537 70.8374C83.6869 71.7668 83.1513 74.4312 82.8186 75.3935C82.6602 75.2639 82.5447 75.0955 82.4292 74.9271C82.923 73.1573 83.1707 71.376 83.2561 69.5464C85.7913 70.7242 83.8298 74.8703 83.0564 76.4641C82.9838 76.257 82.9523 76.0518 83.0028 75.8504C83.3413 74.766 84.2537 71.9563 83.8947 70.8394" fill="#3B5089"/>
<path fill-rule="evenodd" clip-rule="evenodd" d="M84.9048 78.2623C85.3101 77.507 86.531 76.0156 86.9754 75.3029C86.2495 75.8802 85.0601 77.5768 84.1979 78.433C84.1929 77.6586 84.626 77.1898 85.1076 76.5604C85.6865 75.6095 86.463 74.8308 87.394 74.2631L87.476 74.2669C87.8532 75.8737 86.6943 76.9197 85.7519 77.7314C85.5353 77.9658 85.3093 78.4034 84.9048 78.2623Z" fill="#3B5089"/>
<path fill-rule="evenodd" clip-rule="evenodd" d="M81.9456 75.5982C83.1403 76.4282 82.3069 78.4266 81.8138 79.3001C81.5198 78.5529 82.0634 77.4781 82.1367 76.7888C81.9202 77.0232 81.7534 77.9526 81.4959 78.185C81.5016 78.063 81.4233 77.9779 81.3451 77.8927C81.6254 77.1724 81.8666 76.4094 81.9456 75.5982Z" fill="#3B5089"/>
<path fill-rule="evenodd" clip-rule="evenodd" d="M87.8411 77.0147C87.16 77.5126 86.0048 78.4773 85.3629 79.0178C85.2417 78.9714 85.3351 78.7313 85.2607 78.5648C86.5275 77.8498 86.9222 76.4421 88.5822 76.1121C88.4481 78.1025 86.6479 78.7926 85.4461 79.8774C85.2839 79.8291 85.1198 79.8214 84.9538 79.8544C85.734 78.9944 87.1019 77.8766 87.8411 77.0147Z" fill="#3B5089"/>
<path fill-rule="evenodd" clip-rule="evenodd" d="M89.3526 78.1032C89.1812 80.0104 87.1912 80.3656 85.6352 81.1079C86.0854 80.2732 87.8874 79.5425 88.5351 78.88C87.9045 79.1765 86.6339 79.9729 86.0052 80.2287C85.9232 80.2249 85.8897 80.0604 85.7724 79.9326C86.9496 79.3764 87.6238 78.1447 89.3526 78.1032Z" fill="#3B5089"/>
<path fill-rule="evenodd" clip-rule="evenodd" d="M85.3633 80.7696C85.3177 81.7454 84.1614 81.8544 83.32 82.2633C83.2664 81.6496 84.6317 81.4689 84.8148 81.07C84.2757 81.1671 83.2551 81.8936 82.7312 81.6654C83.4457 81.332 84.3604 80.2338 85.3633 80.7696Z" fill="#3B5089"/>
<path fill-rule="evenodd" clip-rule="evenodd" d="M89.9436 80.4131C89.6291 81.8653 87.5311 81.8896 86.1469 82.4769C85.9418 82.4673 86.2814 82.2387 86.248 82.0741C86.9177 81.8202 88.0481 81.384 88.6787 81.0875C87.8487 81.2525 87.0149 81.4988 86.1792 81.7857C86.1029 81.6599 85.8977 81.6503 85.8662 81.4451C87.1179 81.0553 88.3999 80.015 89.9436 80.4131Z" fill="#3B5089"/>
<path fill-rule="evenodd" clip-rule="evenodd" d="M72.6513 93.2554C72.3029 92.7909 72.8237 92.204 73.0144 91.6424C73.0573 91.6037 73.0498 91.7663 73.1318 91.7701C72.9954 92.049 72.8944 92.4518 72.799 92.7325C72.9354 92.4537 73.0737 92.1342 73.2101 91.8553C73.2921 91.8591 73.335 91.8204 73.3742 91.863C73.1892 92.3025 73.1607 92.9124 72.6513 93.2554Z" fill="#3B5089"/>
<path fill-rule="evenodd" clip-rule="evenodd" d="M73.0707 95.7202C73.9026 95.5145 73.9079 93.6404 74.2129 92.3915C74.2205 92.2289 74.0841 92.5077 74.004 92.4632C73.8524 93.0674 73.6017 94.0336 73.452 94.5971C73.4767 94.0685 73.735 92.9396 73.8418 92.4149C73.7635 92.3298 73.7711 92.1671 73.6499 92.1207C73.3935 93.2089 72.807 94.3225 73.0707 95.7202Z" fill="#3B5089"/>
<path fill-rule="evenodd" clip-rule="evenodd" d="M77.2871 93.4721C77.6772 93.0421 77.2134 92.4093 77.0759 91.8324C77.0368 91.7898 77.0292 91.9524 76.9471 91.9486C77.0178 92.1964 77.12 92.6494 77.1906 92.8972C77.0808 92.6068 76.973 92.2758 76.8632 91.9854C76.7811 91.9816 76.742 91.939 76.6991 91.9778C76.8404 92.4733 76.8119 93.0832 77.2871 93.4721Z" fill="#3B5089"/>
<path fill-rule="evenodd" clip-rule="evenodd" d="M76.6809 95.8883C75.8718 95.606 76.0412 93.7395 75.8539 92.4676C75.8615 92.3049 75.9713 92.5953 76.0552 92.5585C76.1498 93.1741 76.3093 94.1595 76.4058 94.7345C76.4305 94.2059 76.2786 93.0579 76.2212 92.5255C76.3071 92.448 76.3147 92.2854 76.4396 92.2505C76.5525 93.3559 77.0326 94.5193 76.6809 95.8883Z" fill="#3B5089"/>
<path fill-rule="evenodd" clip-rule="evenodd" d="M84.7282 82.044C85.064 81.8966 85.4685 82.0378 85.6174 82.3707C85.4564 83.1781 83.8602 83.0221 83.2296 83.3186C83.2315 83.278 83.1943 83.1947 83.1122 83.1909C83.7409 82.935 84.3696 82.6792 85.0355 82.5065C84.4163 82.5591 83.7952 82.6523 83.2095 82.8695C83.0902 82.7824 83.2228 82.5849 83.2676 82.5054C83.7675 82.3658 84.2674 82.2262 84.7282 82.044Z" fill="#3B5089"/>
<path fill-rule="evenodd" clip-rule="evenodd" d="M89.8506 82.4053C89.6781 83.4566 88.2814 83.4321 86.9219 83.4909C86.5937 83.4756 86.09 83.6965 86.1108 83.2493C86.7729 83.158 88.017 82.9308 88.64 82.7969C87.9874 82.685 86.3627 83.1388 85.7959 82.9493C86.915 82.7571 89.111 81.515 89.8506 82.4053Z" fill="#3B5089"/>
<path fill-rule="evenodd" clip-rule="evenodd" d="M85.5547 83.7121C85.3116 84.5157 84.2153 84.22 83.5236 84.0654C83.66 83.7866 84.8497 83.8421 85.1445 83.6929C84.9078 83.4781 83.5722 83.9047 83.5092 83.4943C84.2142 83.3642 85.3036 82.9262 85.5547 83.7121Z" fill="#3B5089"/>
<path fill-rule="evenodd" clip-rule="evenodd" d="M89.6994 84.7615C88.4269 85.5985 86.9135 84.5499 85.6866 84.4111C85.8677 84.0529 86.4345 84.2423 86.8429 84.3021C87.2512 84.362 88.15 84.4854 88.5602 84.5046C87.7473 84.3036 86.9325 84.1433 86.1158 84.0237C86.1196 83.9424 86.1625 83.9036 86.2465 83.8668C87.5239 83.8042 89.3442 83.5633 89.6994 84.7615Z" fill="#3B5089"/>
<path fill-rule="evenodd" clip-rule="evenodd" d="M85.0237 85.3988C84.3464 85.8154 83.9924 85.4729 83.4742 85.1227C83.1947 84.9467 82.8311 84.8074 82.7996 84.6022C83.2061 84.7027 84.1793 84.9926 84.5857 85.0931C84.5523 84.9286 83.5008 84.5535 83.2995 84.4626C83.3033 84.3813 83.3443 84.3832 83.3052 84.3406C84.0064 84.2919 85.032 84.3398 85.0237 85.3988Z" fill="#3B5089"/>
<path fill-rule="evenodd" clip-rule="evenodd" d="M87.0563 87.6538C86.5515 87.019 85.4666 86.4793 84.8759 85.922C85.4187 85.7437 86.0934 86.2641 86.6525 86.6162C87.2117 86.9683 88.101 87.2951 87.8951 88.1819C87.1673 88.7999 86.6271 88.0412 86.0307 87.6059C85.5536 87.2576 84.8284 86.9385 84.9352 86.4138C85.625 86.609 86.4972 87.3017 87.0563 87.6538Z" fill="#3B5089"/>
<path fill-rule="evenodd" clip-rule="evenodd" d="M79.3999 86.97C79.5229 86.9757 79.605 86.9796 79.7262 87.026C79.877 87.3183 80.0756 88.3462 80.2265 88.6385C80.3647 88.319 79.8865 87.115 80.1421 86.9232C80.4847 87.5096 81.1309 88.64 80.3305 89.0508C79.5549 88.9331 79.4774 87.9515 79.3999 86.97Z" fill="#3B5089"/>
<path fill-rule="evenodd" clip-rule="evenodd" d="M78.2455 87.038C78.3685 87.0437 78.4487 87.0882 78.5699 87.1346C78.6796 87.425 78.6732 88.4434 78.7811 88.7744C78.9585 88.4975 78.6891 87.2217 78.9839 87.0725C79.2016 87.6939 79.6369 88.9366 78.8031 89.1829C78.0742 88.9451 78.1608 87.9712 78.2455 87.038Z" fill="#3B5089"/>
<path fill-rule="evenodd" clip-rule="evenodd" d="M85.7667 88.8559C85.5863 88.3178 84.675 87.5825 84.3715 87.0386C84.4554 87.0018 84.5375 87.0056 84.5823 86.9262C85.048 87.5185 86.9477 88.2184 86.3984 89.4152C86.2735 89.4501 86.1075 89.4831 85.9415 89.5161C85.5665 89.6208 85.3337 89.3247 85.0989 89.0692C84.8642 88.8138 84.6332 88.477 84.4004 88.1809C84.2849 88.0125 84.1284 87.8422 83.97 87.7126C84.0577 87.5944 83.9928 87.2247 84.1531 87.3137C84.6207 87.8652 85.1722 88.38 85.7667 88.8559Z" fill="#3B5089"/>
<path fill-rule="evenodd" clip-rule="evenodd" d="M83.2657 86.9469C83.4241 87.0765 83.2877 87.3554 83.282 87.4774C83.1236 87.3477 83.2991 87.1114 83.2657 86.9469Z" fill="#3B5089"/>
<path fill-rule="evenodd" clip-rule="evenodd" d="M82.9254 88.071C83.1487 88.5704 83.4541 89.0736 83.8473 89.4587C83.7489 88.9244 83.3595 88.458 83.2612 87.9236L83.7573 87.8653C84.0141 88.5293 84.9234 89.3052 84.2348 89.9657C84.147 90.0839 83.9028 90.0317 83.7797 90.026C83.6156 90.0183 83.4572 89.8887 83.3827 89.7222C83.1556 89.3041 82.9713 88.8473 82.7461 88.3886C82.7947 88.2278 82.8433 88.0671 82.9702 87.9916" fill="#3B5089"/>
<path fill-rule="evenodd" clip-rule="evenodd" d="M85.5703 71.9364C87.3013 73.6064 84.9606 76.1864 84.0459 77.2846C83.9456 76.791 84.4626 76.2854 84.6457 75.8865C84.8288 75.4876 85.3838 74.1688 85.5687 73.7292C84.9154 74.5137 84.0687 76.7967 83.0146 77.3587C83.377 76.6422 83.7412 75.885 84.1485 75.089C84.3296 74.7308 85.329 72.6993 85.5703 71.9364Z" fill="#3B5089"/>
<path fill-rule="evenodd" clip-rule="evenodd" d="M84.2639 79.6586C83.7135 79.9996 83.1631 80.3406 82.6499 80.7649C82.7213 80.1162 83.5312 79.5021 83.8279 79.3122C83.8279 79.3122 84.5052 78.8956 84.7809 79.153C84.9177 80.6263 83.4704 80.8032 82.6568 81.4986C82.5641 80.8423 83.9521 80.1737 84.2639 79.6586Z" fill="#3B5089"/>
<path fill-rule="evenodd" clip-rule="evenodd" d="M83.9506 86.3673C83.1875 86.8614 82.7332 86.0252 82.34 85.6402C82.7635 85.3747 83.2703 85.9688 83.5928 86.1061C83.6099 85.7402 82.5899 85.5703 82.7377 85.0475C83.1776 85.3125 84.1489 85.6431 83.9506 86.3673Z" fill="#3B5089"/>
<path fill-rule="evenodd" clip-rule="evenodd" d="M80.7013 87.2748C80.6363 86.905 80.3548 86.7696 80.5733 86.4946C80.9778 86.6357 81.2547 87.7488 81.6555 87.9713C81.4713 87.5145 81.287 87.0576 81.0618 86.5989C81.224 86.6472 81.3041 86.6917 81.4329 86.5755C81.5685 87.193 82.4445 87.8044 81.8827 88.3894C81.7691 88.1803 81.0097 88.5931 80.7013 87.2748Z" fill="#3B5089"/>
<path fill-rule="evenodd" clip-rule="evenodd" d="M89.1627 86.5703C88.8713 84.886 86.7076 85.4369 85.5464 84.7715C85.7325 85.1877 86.305 85.2551 86.7057 85.4776C87.1065 85.7 88.0797 85.99 88.3984 86.2086C87.6675 86.0115 86.3346 85.501 85.6038 85.3039C85.5962 85.4665 85.7192 85.4723 85.6706 85.633C86.6514 85.7603 87.7021 87.0318 88.659 86.7913L88.7 86.7932C88.866 86.7602 88.9556 86.6014 89.1216 86.5684" fill="#3B5089"/>
<path fill-rule="evenodd" clip-rule="evenodd" d="M82.5949 86.345C82.5166 86.2599 82.4365 86.2154 82.3582 86.1302C82.1607 85.958 82.0099 85.6657 81.7953 85.8594C82.0281 86.1556 82.7715 86.9645 83.0025 87.3012C82.6819 87.1233 81.9814 86.2756 81.6198 86.0957C81.5951 86.6243 82.4445 87.8049 83.0693 87.6303L83.2372 87.5567L83.2821 87.4773C83.3307 87.3166 83.3364 87.1946 83.344 87.032C83.3497 86.91 82.5949 86.345 82.5949 86.345Z" fill="#3B5089"/>
<path fill-rule="evenodd" clip-rule="evenodd" d="M83.6148 77.7125C83.6167 77.6718 83.5775 77.6293 83.5365 77.6274C82.6408 78.319 81.9798 79.266 81.6824 80.3523L81.9715 80.3251C82.373 79.6511 82.8136 79.0198 83.2953 78.3903C82.9758 79.0681 82.6173 79.7033 82.2195 80.2959L82.5067 80.3093C82.9941 79.5579 84.0053 79.0347 83.6148 77.7125Z" fill="#3B5089"/>
<path fill-rule="evenodd" clip-rule="evenodd" d="M82.4873 83.3654C82.161 83.3094 81.7766 83.6174 81.6649 83.3677C82.1705 83.1061 82.8737 83.0167 82.6655 82.192C82.0243 81.8361 81.578 82.5895 81.1248 82.609C81.4385 82.0532 82.3153 81.7682 82.0307 80.8177C80.882 80.7641 80.8737 81.8231 80.4988 81.9278C80.5808 81.9317 80.6484 81.3644 80.6933 81.285C80.8334 80.9248 81.1749 80.6555 81.233 80.2915C81.2463 80.0069 81.2186 79.7203 81.1479 79.4726C81.1221 79.1454 80.9322 78.8105 80.6545 78.5938C80.4782 79.7265 79.5301 80.6602 79.5123 81.9225C79.5001 83.0629 80.9235 82.5181 80.9934 83.6623C80.9219 84.3109 80.4851 84.861 79.8583 85.0762C79.2373 85.1694 78.6591 85.2239 78.0418 85.2359C77.9856 85.5592 77.9123 86.2485 78.3112 86.5116C78.4696 86.6412 78.6766 86.6102 78.8483 86.4552C78.979 86.2983 79.0276 86.1376 78.9961 85.9324C78.9999 85.8511 79.0037 85.7698 79.0075 85.6884C79.0523 85.609 79.0952 85.5703 79.14 85.4909C79.287 85.8645 79.1841 86.3079 79.5438 86.5284C79.6221 86.6136 79.7451 86.6193 79.8682 86.6251C80.0418 86.4295 80.2059 86.4371 80.2602 86.1544C80.3127 85.9124 79.8804 85.4847 80.1789 85.2542C80.5026 86.2472 80.9653 86.0244 81.0807 86.1927C81.5939 85.7685 80.9603 85.2499 80.8935 84.9208C81.3352 85.1452 81.5901 85.8498 82.2321 85.3093C82.2416 85.106 82.2492 84.9434 82.2177 84.7382C82.0668 84.4459 81.6099 84.5468 81.502 84.2158C81.7987 84.0259 82.1451 84.5311 82.4771 84.4651C82.7681 84.3972 82.9884 84.0815 82.8786 83.7911C82.7631 83.6227 82.6477 83.4544 82.4873 83.3654Z" fill="#3B5089"/>
<path fill-rule="evenodd" clip-rule="evenodd" d="M75.5553 92.6982C75.3912 92.6905 75.2997 92.89 75.1747 92.9249C75.0995 93.6548 75.0273 95.1999 74.872 95.8853C74.7831 95.1477 74.8533 93.6433 74.8465 92.9096C74.6843 92.8612 74.6547 92.6154 74.4887 92.6484C74.5005 94.1566 73.8874 95.8393 74.671 97.5466L74.8218 97.8388L74.9992 97.5619C75.8566 95.9313 75.4459 94.16 75.5553 92.6982Z" fill="#3B5089"/>
<path fill-rule="evenodd" clip-rule="evenodd" d="M77.4983 81.9097C77.8265 81.9251 78.0764 81.8553 78.149 82.0624C77.5803 81.9136 76.9421 82.3727 76.8772 82.003C76.862 82.3283 76.4909 82.3517 76.3955 82.6324C76.2086 83.1127 76.4282 83.6934 76.9129 83.879C76.9129 83.879 76.9129 83.879 76.9539 83.8809C77.0751 83.9274 77.1982 83.9331 77.3212 83.9389C77.2278 84.179 76.9665 84.4927 76.6478 84.2741C76.7651 84.4018 76.9235 84.5315 77.039 84.6999L75.3733 85.1518L73.6769 84.5021C73.7236 84.382 73.7312 84.2194 73.7369 84.0974C73.7578 83.6502 73.9428 83.2106 74.2079 82.8155C73.999 82.8872 73.4657 82.8623 73.4341 82.6571C74.2736 82.2888 74.3363 80.9471 75.1758 80.5788C74.8476 80.5635 74.7397 80.2325 74.6671 80.0254C75.3456 80.4645 77.847 79.7257 77.9693 80.6278C77.997 80.9144 77.706 80.9823 77.7395 81.1468C77.9093 81.0325 78.0791 80.9182 78.2097 80.7613C78.6572 80.8637 78.9235 81.3244 78.8205 81.7678C78.7738 81.8878 78.7271 82.0079 78.6413 82.0854C78.4122 81.708 77.8808 81.6424 77.4983 81.9097ZM76.5687 80.6847C76.2405 80.6693 76.6709 81.1377 76.8779 81.1066C77.085 81.0755 77.2643 80.7579 77.5438 80.9339C77.5552 80.69 77.0219 80.6651 76.5687 80.6847Z" fill="#3B5089"/>
<path fill-rule="evenodd" clip-rule="evenodd" d="M77.8261 88.9746C77.6122 88.2719 77.5644 87.5363 77.7197 86.8508C77.5393 86.3127 77.4838 85.7396 77.5515 85.1723C76.8388 85.465 76.0909 85.6338 75.3448 85.7619C74.614 85.5648 73.8869 85.2864 73.2028 84.9692C73.2172 85.5403 73.1086 86.1057 72.8788 86.6247C72.9677 87.3623 72.8515 88.0903 72.5749 88.7294C72.5749 88.7294 72.0621 90.9058 73.8779 91.6425C75.6936 92.3793 74.3808 92.318 76.2573 91.7537C78.1338 91.1894 77.7851 88.9727 77.8261 88.9746ZM76.6911 85.9878C76.7617 86.2356 76.821 86.7273 76.9346 86.9364C76.9068 86.6498 76.8438 86.2394 76.816 85.9529C76.8981 85.9567 76.9057 85.7941 76.9448 85.8367C77.0003 86.4097 77.4212 87.0813 76.9919 87.4688C76.5596 87.0411 76.6721 86.3944 76.5699 85.9414C76.5699 85.9414 76.609 85.984 76.6911 85.9878ZM73.6628 85.6834C73.7076 85.604 73.7 85.7666 73.7802 85.8111C73.7259 86.0938 73.6248 86.4966 73.5705 86.7792C73.7088 86.4597 73.8041 86.1789 73.9014 85.8575C73.9834 85.8613 74.0263 85.8226 74.0674 85.8245C73.9215 86.3067 73.9751 86.9204 73.5048 87.3059C73.1135 86.8801 73.5542 86.2488 73.6628 85.6834ZM73.0551 89.8927C72.6638 89.467 73.1044 88.8356 73.2541 88.2721C73.297 88.2334 73.2913 88.3554 73.3715 88.3998C73.3172 88.6825 73.2142 89.126 73.1618 89.368C73.3001 89.0485 73.3954 88.7677 73.4516 88.4443C73.5337 88.4482 73.5356 88.4075 73.6176 88.4113C73.4718 88.8935 73.5253 89.5072 73.0551 89.8927ZM73.7365 91.147C73.3453 90.7212 73.7859 90.0898 73.9356 89.5264C73.9785 89.4876 73.9728 89.6096 74.053 89.6541C73.9986 89.9368 73.8957 90.3802 73.8433 90.6222C73.9815 90.3027 74.0769 90.0219 74.1741 89.7005C74.2562 89.7043 74.26 89.623 74.3401 89.6675C74.1551 90.1071 74.2068 90.7615 73.7365 91.147ZM74.1358 88.7615C73.7445 88.3358 74.1851 87.7044 74.3348 87.1409C74.3796 87.0615 74.372 87.2242 74.4522 87.2686C74.3979 87.5513 74.2949 87.9948 74.2425 88.2368C74.3808 87.9173 74.4761 87.6365 74.5323 87.3131C74.6144 87.317 74.6573 87.2782 74.6964 87.3208C74.5525 87.7623 74.6041 88.4167 74.1358 88.7615ZM75.1162 91.5374L75.0695 91.6575L74.9931 91.5316C74.8127 90.9935 74.7982 90.4224 74.905 89.8976C74.987 89.9015 74.9832 89.9828 75.0243 89.9847C75.0091 90.31 74.9939 90.6352 75.0607 90.9643C75.117 90.641 75.1321 90.3157 75.1884 89.9924C75.2294 89.9943 75.2742 89.9149 75.3563 89.9187C75.4136 90.4511 75.305 91.0165 75.1162 91.5374ZM75.1872 89.1366L75.1424 89.216L75.0641 89.1309C74.7568 88.6683 74.9829 88.2306 74.9589 87.8628C75.041 87.8666 75.0391 87.9073 75.0782 87.9498C75.0668 88.1938 75.0945 88.4803 75.0831 88.7243C75.1356 88.4822 75.1489 88.1976 75.2013 87.9556C75.2423 87.9575 75.2871 87.8781 75.3692 87.8819C75.3912 88.2904 75.5363 88.7047 75.1872 89.1366ZM75.2898 86.941L75.2058 86.9779L75.1667 86.9353C74.8518 86.6354 75.0702 86.3603 75.0406 86.1145C75.1226 86.1183 75.1207 86.1589 75.2028 86.1628C75.1952 86.3254 75.2267 86.5306 75.2601 86.6952C75.3088 86.5345 75.3164 86.3718 75.365 86.2111C75.406 86.213 75.4489 86.1743 75.49 86.1762C75.4786 86.4201 75.6294 86.7124 75.2898 86.941ZM75.8843 87.417C75.9511 87.7461 76.0199 88.0346 76.1278 88.3656C76.0981 88.1197 76.037 87.6686 76.0092 87.3821C76.0913 87.386 76.0989 87.2233 76.138 87.2659C76.1935 87.839 76.6144 88.5106 76.1851 88.898C75.7528 88.4703 75.8653 87.8236 75.7631 87.3706L75.9272 87.3783L75.8843 87.417ZM76.3211 91.2677C75.8888 90.84 76.0013 90.1933 75.8991 89.7403C75.9811 89.7442 76.0203 89.7867 76.0613 89.7887C76.1281 90.1178 76.1969 90.4062 76.2638 90.7353C76.2341 90.4894 76.173 90.0384 76.1452 89.7518C76.2273 89.7557 76.1939 89.5911 76.274 89.6356C76.3295 90.2087 76.7504 90.8803 76.3211 91.2677ZM77.0755 90.0805C76.6432 89.6528 76.7557 89.0061 76.6535 88.5531C76.7355 88.557 76.7747 88.5995 76.8157 88.6015C76.8825 88.9306 76.9494 89.2597 77.0592 89.55C77.0295 89.3042 76.9684 88.8531 76.9407 88.5666C77.0227 88.5704 77.0303 88.4078 77.0694 88.4503C77.1249 89.0234 77.5458 89.695 77.0755 90.0805Z" fill="#3B5089"/>
<path fill-rule="evenodd" clip-rule="evenodd" d="M80.5854 94.1554C80.9326 93.7641 80.4536 93.4565 80.0415 93.478C80.133 93.2786 80.383 93.2087 80.5843 93.2996C80.5843 93.2996 80.5843 93.2996 80.6253 93.3016C80.6664 93.3035 80.7055 93.346 80.7036 93.3867C80.7454 92.4922 79.8295 92.7347 79.5101 93.4125C79.0405 92.9016 78.655 92.3538 78.1426 91.8817C78.2751 91.6841 78.4449 91.5698 78.5365 91.3704C78.1376 91.1072 77.8284 90.6853 77.6852 90.2304L77.5469 90.5499L76.6596 90.1825L76.5308 90.2987C77.0805 90.8541 76.9566 91.7448 77.3832 92.2944C77.5883 92.304 77.6427 92.0213 77.8478 92.0309C78.239 92.4566 78.6732 92.8437 79.0645 93.2694C79.0569 93.432 78.9281 93.5483 78.764 93.5406C78.682 93.5368 78.6428 93.4942 78.5627 93.4497C78.3108 93.5602 77.7585 93.9419 78.2805 94.2107C78.2432 94.1275 78.288 94.0481 78.331 94.0093C78.8681 93.9529 79.6293 93.4995 79.7965 94.3223C79.7517 94.4017 79.7068 94.4811 79.5819 94.516C79.9845 94.6978 80.179 94.0549 79.9853 93.8014C80.2705 93.8554 80.4289 93.9851 80.5854 94.1554Z" fill="#3B5089"/>
<path fill-rule="evenodd" clip-rule="evenodd" d="M72.7003 90.4467L72.5609 89.9105C72.374 90.3908 72.0249 90.8227 71.5603 91.0862C71.6739 91.2952 71.7913 91.423 71.9048 91.632C71.3525 92.0137 70.9176 92.5231 70.3615 92.9861C70.1066 92.2815 69.2603 91.916 69.1775 92.8085C69.3491 92.6536 69.5953 92.6651 69.7518 92.8354C69.7909 92.8779 69.7909 92.8779 69.8301 92.9205C69.3807 92.8588 68.9161 93.1223 69.1843 93.5423C69.3112 93.4667 69.5258 93.273 69.729 93.3233C69.5106 93.5983 69.6443 94.2565 70.0641 94.0724C69.982 94.0685 69.9448 93.9853 69.8684 93.8595C70.1115 93.0559 70.8272 93.5783 71.3567 93.6845C71.4369 93.729 71.4331 93.8103 71.3882 93.8897C71.9311 93.7114 71.4597 93.2411 71.2192 93.1076C71.0475 93.2626 70.7679 93.0866 70.7383 92.8407C71.1675 92.4533 71.6359 92.1084 72.0633 91.7617C72.2684 91.7712 72.298 92.0171 72.5012 92.0673C73.0201 91.5211 72.9818 90.5821 73.618 90.1636L73.5789 90.1211L72.7003 90.4467Z" fill="#3B5089"/>
<path fill-rule="evenodd" clip-rule="evenodd" d="M130.895 88.5952C130.646 89.2002 129.891 90.9259 129.524 91.5288C129.436 91.4177 129.383 91.2867 129.329 91.1557C129.924 90.0296 130.354 88.8595 130.68 87.6329C132.224 88.8034 130.286 91.3231 129.528 92.2889C129.509 92.1379 129.518 91.9943 129.582 91.8653C129.971 91.1806 131.002 89.4118 130.923 88.6025" fill="#3B5089"/>
<path fill-rule="evenodd" clip-rule="evenodd" d="M130.516 93.7777C130.901 93.3257 131.947 92.4951 132.353 92.0778C131.777 92.362 130.722 93.3362 130.012 93.7893C130.122 93.2641 130.484 93.0103 130.903 92.6548C131.435 92.0959 132.075 91.6826 132.79 91.435L132.845 91.4497C132.864 92.5934 131.925 93.1315 131.167 93.5426C130.986 93.6695 130.769 93.9327 130.516 93.7777Z" fill="#3B5089"/>
<path fill-rule="evenodd" clip-rule="evenodd" d="M128.903 91.5382C129.59 92.276 128.732 93.507 128.27 94.026C128.18 93.4767 128.707 92.8287 128.858 92.3726C128.676 92.4995 128.427 93.1045 128.218 93.2241C128.24 93.1423 128.199 93.0731 128.159 93.0039C128.455 92.5573 128.73 92.076 128.903 91.5382Z" fill="#3B5089"/>
<path fill-rule="evenodd" clip-rule="evenodd" d="M132.688 93.3642C132.153 93.6012 131.229 94.0848 130.715 94.3565C130.64 94.3072 130.738 94.1583 130.712 94.0346C131.675 93.7366 132.15 92.8412 133.322 92.8618C132.939 94.1902 131.618 94.3929 130.645 94.9509C130.542 94.8943 130.432 94.865 130.315 94.8629C130.97 94.3952 132.06 93.8392 132.688 93.3642Z" fill="#3B5089"/>
<path fill-rule="evenodd" clip-rule="evenodd" d="M133.551 94.3242C133.155 95.5907 131.755 95.5387 130.592 95.8127C131.019 95.3136 132.347 95.0836 132.883 94.7301C132.413 94.8383 131.435 95.1908 130.972 95.2716C130.917 95.257 130.918 95.1406 130.858 95.0369C131.737 94.8332 132.374 94.0982 133.551 94.3242Z" fill="#3B5089"/>
<path fill-rule="evenodd" clip-rule="evenodd" d="M130.457 95.543C130.283 96.1972 129.484 96.101 128.854 96.2542C128.908 95.8307 129.859 95.909 130.042 95.6658C129.662 95.6522 128.864 95.9942 128.543 95.7626C129.076 95.6419 129.857 95.0326 130.457 95.543Z" fill="#3B5089"/>
<path fill-rule="evenodd" clip-rule="evenodd" d="M133.612 95.9749C133.186 96.9123 131.761 96.6202 130.737 96.8144C130.6 96.7778 130.863 96.6729 130.865 96.5565C131.356 96.483 132.186 96.3538 132.656 96.2457C132.07 96.2354 131.469 96.2796 130.861 96.351C130.827 96.2546 130.69 96.218 130.699 96.0743C131.604 95.9944 132.625 95.4783 133.612 95.9749Z" fill="#3B5089"/>
<path fill-rule="evenodd" clip-rule="evenodd" d="M120.012 102.13C119.844 101.765 120.283 101.444 120.495 101.091C120.53 101.071 120.501 101.18 120.556 101.195C120.422 101.364 120.295 101.622 120.189 101.798C120.322 101.629 120.463 101.433 120.596 101.264C120.651 101.279 120.686 101.259 120.706 101.294C120.516 101.564 120.407 101.973 120.012 102.13Z" fill="#3B5089"/>
<path fill-rule="evenodd" clip-rule="evenodd" d="M119.933 103.862C120.527 103.845 120.806 102.576 121.196 101.775C121.226 101.666 121.092 101.835 121.044 101.793C120.853 102.18 120.541 102.797 120.357 103.157C120.451 102.803 120.792 102.076 120.942 101.736C120.901 101.667 120.93 101.558 120.855 101.509C120.521 102.208 119.96 102.876 119.933 103.862Z" fill="#3B5089"/>
<path fill-rule="evenodd" clip-rule="evenodd" d="M123.12 102.959C123.447 102.725 123.226 102.228 123.218 101.817C123.198 101.783 123.168 101.892 123.113 101.877C123.125 102.055 123.127 102.377 123.139 102.555C123.107 102.343 123.083 102.103 123.051 101.89C122.996 101.875 122.976 101.841 122.941 101.86C122.964 102.217 122.855 102.626 123.12 102.959Z" fill="#3B5089"/>
<path fill-rule="evenodd" clip-rule="evenodd" d="M122.354 104.507C121.847 104.197 122.236 102.958 122.297 102.069C122.326 101.96 122.357 102.173 122.42 102.16C122.393 102.591 122.356 103.282 122.337 103.685C122.432 103.331 122.497 102.531 122.537 102.162C122.606 102.122 122.635 102.013 122.725 102.008C122.639 102.773 122.793 103.632 122.354 104.507Z" fill="#3B5089"/>
<path fill-rule="evenodd" clip-rule="evenodd" d="M129.84 96.313C130.089 96.2626 130.342 96.4176 130.394 96.665C130.166 97.1882 129.108 96.8478 128.638 96.9559C128.645 96.9287 128.632 96.8668 128.577 96.8522C129.04 96.7713 129.504 96.6905 129.98 96.6714C129.553 96.616 129.119 96.5878 128.69 96.6488C128.622 96.5723 128.741 96.458 128.783 96.4108C129.142 96.3897 129.501 96.3686 129.84 96.313Z" fill="#3B5089"/>
<path fill-rule="evenodd" clip-rule="evenodd" d="M133.256 97.311C132.985 97.9977 132.042 97.7758 131.113 97.6157C130.893 97.557 130.519 97.6326 130.599 97.3328C131.061 97.3683 131.937 97.3974 132.379 97.3983C131.953 97.2265 130.786 97.295 130.43 97.0833C131.216 97.1177 132.886 96.5993 133.256 97.311Z" fill="#3B5089"/>
<path fill-rule="evenodd" clip-rule="evenodd" d="M130.154 97.5648C129.872 98.0733 129.173 97.7118 128.727 97.5054C128.86 97.3366 129.658 97.5492 129.879 97.4915C129.751 97.3112 128.783 97.4037 128.801 97.1165C129.298 97.1321 130.1 96.9955 130.154 97.5648Z" fill="#3B5089"/>
<path fill-rule="evenodd" clip-rule="evenodd" d="M132.807 98.8844C131.822 99.2642 130.952 98.3314 130.141 98.057C130.316 97.841 130.672 98.0526 130.94 98.1532C131.208 98.2538 131.798 98.4695 132.074 98.5428C131.553 98.2872 131.024 98.0588 130.489 97.8577C130.503 97.8032 130.538 97.7833 130.6 97.7707C131.475 97.9161 132.743 98.0206 132.807 98.8844Z" fill="#3B5089"/>
<path fill-rule="evenodd" clip-rule="evenodd" d="M129.547 98.6292C129.027 98.8118 128.837 98.5278 128.538 98.2144C128.374 98.0541 128.149 97.9063 128.157 97.7627C128.418 97.8905 129.035 98.23 129.295 98.3578C129.297 98.2414 128.64 97.8328 128.517 97.7416C128.531 97.6871 128.559 97.6944 128.538 97.6598C129.02 97.7299 129.708 97.9132 129.547 98.6292Z" fill="#3B5089"/>
<path fill-rule="evenodd" clip-rule="evenodd" d="M130.592 100.454C130.343 99.9502 129.688 99.4252 129.37 98.9609C129.764 98.9199 130.144 99.3716 130.471 99.6923C130.798 100.013 131.352 100.365 131.082 100.935C130.499 101.247 130.244 100.654 129.904 100.271C129.632 99.9651 129.188 99.6424 129.338 99.3027C129.776 99.5363 130.265 100.134 130.592 100.454Z" fill="#3B5089"/>
<path fill-rule="evenodd" clip-rule="evenodd" d="M125.507 98.8651C125.589 98.8871 125.644 98.9017 125.72 98.951C125.779 99.1711 125.762 99.8965 125.821 100.117C125.962 99.9206 125.815 99.0348 126.016 98.9425C126.162 99.3901 126.434 100.251 125.831 100.411C125.323 100.217 125.415 99.5413 125.507 98.8651Z" fill="#3B5089"/>
<path fill-rule="evenodd" clip-rule="evenodd" d="M124.715 98.7426C124.797 98.7646 124.845 98.8065 124.92 98.8558C124.952 99.0686 124.798 99.7574 124.822 99.9974C124.983 99.8359 124.988 98.9323 125.21 98.8746C125.266 99.3274 125.378 100.233 124.777 100.277C124.318 100.009 124.52 99.3622 124.715 98.7426Z" fill="#3B5089"/>
<path fill-rule="evenodd" clip-rule="evenodd" d="M129.542 101.08C129.499 100.689 128.989 100.057 128.864 99.6438C128.926 99.6312 128.981 99.6459 129.023 99.5987C129.251 100.068 130.435 100.822 129.887 101.551C129.797 101.557 129.68 101.555 129.563 101.553C129.294 101.568 129.179 101.334 129.058 101.126C128.936 100.919 128.83 100.657 128.715 100.422C128.662 100.291 128.581 100.152 128.493 100.041C128.57 99.9742 128.58 99.7142 128.675 99.798C128.911 100.24 129.209 100.67 129.542 101.08Z" fill="#3B5089"/>
<path fill-rule="evenodd" clip-rule="evenodd" d="M128.128 99.4181C128.217 99.529 128.083 99.6976 128.062 99.7792C127.974 99.6683 128.127 99.5343 128.128 99.4181Z" fill="#3B5089"/>
<path fill-rule="evenodd" clip-rule="evenodd" d="M127.733 100.13C127.81 100.501 127.943 100.887 128.153 101.206C128.165 100.829 127.97 100.456 127.982 100.08L128.326 100.113C128.403 100.601 128.904 101.26 128.341 101.606C128.264 101.673 128.106 101.602 128.024 101.58C127.914 101.551 127.825 101.44 127.8 101.316C127.707 100.999 127.65 100.663 127.564 100.319C127.621 100.217 127.678 100.116 127.775 100.083" fill="#3B5089"/>
<path fill-rule="evenodd" clip-rule="evenodd" d="M131.896 89.5912C132.823 90.9768 130.859 92.38 130.078 92.9893C130.082 92.6402 130.507 92.3738 130.689 92.1306C130.872 91.8873 131.442 91.0757 131.632 90.8052C131.074 91.2404 130.165 92.6622 129.368 92.8878C129.719 92.4558 130.077 91.9966 130.47 91.5174C130.645 91.3013 131.621 90.0724 131.896 89.5912Z" fill="#3B5089"/>
<path fill-rule="evenodd" clip-rule="evenodd" d="M129.876 94.629C129.453 94.779 129.03 94.9291 128.62 95.1409C128.764 94.7121 129.403 94.4153 129.632 94.3303C129.632 94.3303 130.152 94.1477 130.301 94.3626C130.177 95.3806 129.17 95.2875 128.517 95.6389C128.551 95.1808 129.589 94.932 129.876 94.629Z" fill="#3B5089"/>
<path fill-rule="evenodd" clip-rule="evenodd" d="M128.678 99.1265C128.088 99.3489 127.903 98.7158 127.694 98.3972C128.02 98.2797 128.275 98.7566 128.474 98.897C128.539 98.6517 127.873 98.3866 128.05 98.0543C128.309 98.2984 128.918 98.6652 128.678 99.1265Z" fill="#3B5089"/>
<path fill-rule="evenodd" clip-rule="evenodd" d="M126.343 99.2633C126.354 99.0033 126.183 98.8702 126.371 98.7161C126.625 98.8711 126.648 99.6658 126.887 99.8754C126.83 99.5389 126.772 99.2024 126.687 98.8585C126.79 98.9151 126.837 98.957 126.942 98.8973C126.943 99.3355 127.446 99.8783 126.98 100.192C126.933 100.034 126.358 100.202 126.343 99.2633Z" fill="#3B5089"/>
<path fill-rule="evenodd" clip-rule="evenodd" d="M132.178 100.03C132.228 98.8468 130.682 98.9017 129.993 98.2803C130.058 98.5895 130.436 98.7194 130.674 98.929C130.913 99.1386 131.53 99.4781 131.713 99.673C131.247 99.432 130.42 98.8903 129.954 98.6493C129.925 98.7583 130.007 98.7803 129.951 98.882C130.596 99.1125 131.121 100.128 131.804 100.106L131.832 100.113C131.949 100.115 132.033 100.021 132.15 100.023" fill="#3B5089"/>
<path fill-rule="evenodd" clip-rule="evenodd" d="M127.763 98.9117C127.722 98.8425 127.674 98.8006 127.634 98.7315C127.526 98.5858 127.466 98.3656 127.293 98.4653C127.407 98.7001 127.791 99.3573 127.898 99.6193C127.707 99.4516 127.357 98.7745 127.139 98.5995C127.044 98.9539 127.446 99.8784 127.895 99.852L128.02 99.8268L128.062 99.7797C128.118 99.6779 128.14 99.5962 128.169 99.4871C128.191 99.4054 127.763 98.9117 127.763 98.9117Z" fill="#3B5089"/>
<path fill-rule="evenodd" clip-rule="evenodd" d="M129.723 93.2159C129.73 93.1887 129.71 93.1541 129.682 93.1467C128.974 93.4835 128.387 94.0277 128.026 94.7197L128.225 94.7438C128.596 94.3463 128.988 93.9835 129.407 93.628C129.091 94.0401 128.754 94.4176 128.398 94.7605L128.59 94.8118C129.031 94.3745 129.793 94.1688 129.723 93.2159Z" fill="#3B5089"/>
<path fill-rule="evenodd" clip-rule="evenodd" d="M128.128 96.8781C127.915 96.7922 127.609 96.9443 127.571 96.7587C127.951 96.6559 128.441 96.6987 128.421 96.1096C128.039 95.7742 127.626 96.2188 127.316 96.1655C127.61 95.8351 128.246 95.771 128.193 95.0854C127.423 94.8802 127.262 95.5962 126.992 95.612C127.047 95.6267 127.177 95.2524 127.219 95.2052C127.367 94.9819 127.637 94.8497 127.73 94.6117C127.781 94.4209 127.805 94.2228 127.793 94.0445C127.824 93.8191 127.744 93.5644 127.588 93.3768C127.302 94.1181 126.523 94.611 126.325 95.4634C126.149 96.2339 127.193 96.0743 127.072 96.8595C126.929 97.2883 126.552 97.5966 126.096 97.6502C125.661 97.6221 125.262 97.574 124.842 97.4913C124.756 97.702 124.605 98.1581 124.837 98.3949C124.925 98.506 125.07 98.5154 125.209 98.4357C125.32 98.3487 125.377 98.247 125.386 98.1033C125.4 98.0488 125.415 97.9943 125.429 97.9398C125.471 97.8926 125.506 97.8727 125.548 97.8255C125.593 98.1001 125.458 98.3853 125.669 98.5876C125.71 98.6568 125.792 98.6787 125.875 98.7007C126.021 98.5938 126.131 98.6231 126.209 98.4396C126.28 98.2834 126.051 97.9302 126.287 97.8179C126.36 98.5381 126.706 98.4552 126.759 98.5862C127.169 98.3743 126.817 97.9299 126.82 97.6972C127.086 97.9141 127.155 98.4288 127.669 98.1572C127.706 98.0209 127.735 97.9118 127.743 97.7682C127.684 97.5481 127.36 97.5492 127.335 97.3092C127.564 97.2242 127.725 97.6173 127.959 97.6214C128.166 97.6182 128.362 97.4368 128.33 97.224C128.277 97.0929 128.223 96.9619 128.128 96.8781Z" fill="#3B5089"/>
<path fill-rule="evenodd" clip-rule="evenodd" d="M122.061 102.18C121.951 102.151 121.859 102.273 121.769 102.278C121.611 102.761 121.335 103.797 121.129 104.238C121.177 103.726 121.446 102.717 121.549 102.219C121.447 102.163 121.463 101.992 121.345 101.99C121.132 103.013 120.469 104.062 120.749 105.334L120.808 105.554L120.969 105.393C121.789 104.414 121.772 103.154 122.061 102.18Z" fill="#3B5089"/>
<path fill-rule="evenodd" clip-rule="evenodd" d="M124.963 95.159C125.183 95.2177 125.362 95.2071 125.381 95.3581C125.018 95.1737 124.518 95.3908 124.528 95.1309C124.47 95.3489 124.216 95.3102 124.11 95.4864C123.912 95.7841 123.976 96.2097 124.277 96.4067C124.277 96.4067 124.277 96.4067 124.304 96.4141C124.38 96.4633 124.462 96.4853 124.545 96.5073C124.446 96.6562 124.223 96.8303 124.039 96.6353C124.1 96.7391 124.188 96.8502 124.242 96.9812L123.047 97.0424L121.993 96.3529C122.043 96.2785 122.072 96.1694 122.094 96.0876C122.174 95.7878 122.363 95.5173 122.601 95.2887C122.449 95.3065 122.091 95.2112 122.1 95.0676C122.723 94.9416 122.963 94.0421 123.586 93.9161C123.365 93.8575 123.341 93.6174 123.322 93.4665C123.717 93.8637 125.52 93.731 125.47 94.3601C125.447 94.5582 125.24 94.5614 125.238 94.6778C125.37 94.6253 125.502 94.5729 125.614 94.4858C125.902 94.621 126.014 94.9721 125.879 95.2573C125.83 95.3317 125.781 95.4062 125.711 95.446C125.611 95.1567 125.261 95.0342 124.963 95.159ZM124.513 94.1926C124.293 94.134 124.516 94.5144 124.661 94.5238C124.806 94.5332 124.974 94.3445 125.137 94.5048C125.181 94.3413 124.823 94.246 124.513 94.1926Z" fill="#3B5089"/>
<path fill-rule="evenodd" clip-rule="evenodd" d="M124.146 99.992C124.105 99.4846 124.18 98.9793 124.386 98.5379C124.343 98.1469 124.39 97.7506 124.519 97.3763C123.994 97.4697 123.462 97.4741 122.938 97.4512C122.472 97.2102 122.021 96.9147 121.604 96.5993C121.53 96.9882 121.373 97.3552 121.141 97.6729C121.093 98.1856 120.907 98.6616 120.626 99.0537C120.626 99.0537 119.958 100.452 121.08 101.218C122.201 101.984 121.321 101.75 122.675 101.644C124.029 101.537 124.119 99.9846 124.146 99.992ZM123.817 97.8021C123.828 97.9803 123.796 98.3221 123.842 98.4804C123.865 98.2822 123.883 97.995 123.906 97.7968C123.961 97.8115 123.99 97.7025 124.011 97.7371C123.964 98.1333 124.15 98.6501 123.803 98.8494C123.573 98.4962 123.744 98.0747 123.741 97.7529C123.741 97.7529 123.762 97.7875 123.817 97.8021ZM121.81 97.1506C121.852 97.1035 121.823 97.2125 121.871 97.2544C121.793 97.4379 121.665 97.6958 121.587 97.8793C121.727 97.6832 121.833 97.5071 121.946 97.3037C122.001 97.3183 122.036 97.2984 122.064 97.3057C121.894 97.6108 121.84 98.0344 121.465 98.2263C121.262 97.8804 121.654 97.5176 121.81 97.1506ZM120.78 99.9122C120.577 99.5664 120.969 99.2035 121.153 98.8439C121.188 98.824 121.166 98.9057 121.214 98.9477C121.135 99.1311 121 99.4163 120.929 99.5725C121.07 99.3765 121.176 99.2003 121.261 98.9896C121.316 99.0042 121.324 98.977 121.379 98.9916C121.209 99.2968 121.155 99.7203 120.78 99.9122ZM121.057 100.862C120.855 100.516 121.246 100.153 121.43 99.7936C121.465 99.7737 121.443 99.8554 121.491 99.8974C121.412 100.081 121.277 100.366 121.206 100.522C121.347 100.326 121.453 100.15 121.566 99.9466C121.621 99.9613 121.636 99.9068 121.683 99.9487C121.493 100.219 121.432 100.67 121.057 100.862ZM121.678 99.305C121.476 98.9591 121.867 98.5963 122.051 98.2366C122.093 98.1895 122.064 98.2985 122.112 98.3404C122.034 98.5239 121.899 98.8091 121.828 98.9653C121.968 98.7692 122.074 98.5931 122.16 98.3823C122.215 98.397 122.249 98.3771 122.27 98.4116C122.107 98.6895 122.046 99.1403 121.678 99.305ZM121.934 101.329L121.885 101.404L121.851 101.307C121.808 100.916 121.883 100.527 122.032 100.188C122.087 100.202 122.072 100.257 122.1 100.264C122.042 100.482 121.984 100.7 121.981 100.933C122.066 100.722 122.124 100.504 122.21 100.293C122.238 100.301 122.28 100.254 122.335 100.268C122.295 100.637 122.138 101.004 121.934 101.329ZM122.335 99.7137L122.293 99.7608L122.253 99.6917C122.112 99.3332 122.33 99.07 122.368 98.8173C122.423 98.832 122.415 98.8592 122.436 98.8938C122.392 99.0574 122.369 99.2555 122.325 99.4191C122.396 99.2629 122.447 99.072 122.518 98.9158C122.546 98.9232 122.588 98.876 122.643 98.8906C122.598 99.1705 122.635 99.4724 122.335 99.7137ZM122.727 98.2417L122.665 98.2543L122.645 98.2197C122.476 97.9702 122.664 97.8161 122.68 97.6452C122.735 97.6599 122.728 97.6871 122.783 97.7018C122.754 97.8108 122.745 97.9544 122.743 98.0708C122.8 97.9691 122.829 97.8601 122.886 97.7584C122.913 97.7657 122.948 97.7458 122.975 97.7531C122.932 97.9166 122.991 98.1368 122.727 98.2417ZM123.06 98.6515C123.057 98.8842 123.061 99.0897 123.085 99.3297C123.102 99.1589 123.126 98.8444 123.15 98.6462C123.205 98.6609 123.234 98.5518 123.254 98.5864C123.207 98.9827 123.394 99.4995 123.046 99.6988C122.816 99.3455 122.987 98.9241 122.985 98.6022L123.095 98.6316L123.06 98.6515ZM122.79 101.324C122.56 100.971 122.731 100.549 122.728 100.227C122.783 100.242 122.804 100.276 122.831 100.284C122.828 100.517 122.832 100.722 122.829 100.955C122.845 100.784 122.87 100.469 122.893 100.271C122.948 100.286 122.95 100.169 122.998 100.211C122.951 100.608 123.137 101.124 122.79 101.324ZM123.475 100.631C123.245 100.277 123.417 99.8559 123.414 99.5341C123.469 99.5487 123.489 99.5833 123.517 99.5906C123.514 99.8234 123.51 100.056 123.542 100.269C123.558 100.098 123.583 99.7835 123.606 99.5854C123.661 99.6 123.691 99.491 123.711 99.5256C123.664 99.9219 123.85 100.439 123.475 100.631Z" fill="#3B5089"/>
<path fill-rule="evenodd" clip-rule="evenodd" d="M125.253 103.907C125.546 103.693 125.267 103.415 124.984 103.368C125.076 103.247 125.255 103.236 125.378 103.327C125.378 103.327 125.378 103.327 125.406 103.335C125.433 103.342 125.453 103.377 125.446 103.404C125.606 102.804 124.95 102.834 124.634 103.246C124.391 102.831 124.211 102.403 123.933 102.008C124.052 101.894 124.184 101.841 124.275 101.72C124.043 101.483 123.896 101.152 123.866 100.822L123.725 101.019L123.178 100.639L123.074 100.699C123.365 101.156 123.15 101.741 123.358 102.176C123.495 102.213 123.574 102.029 123.711 102.066C123.914 102.412 124.151 102.738 124.353 103.084C124.324 103.193 124.22 103.252 124.11 103.223C124.055 103.208 124.035 103.174 123.987 103.132C123.8 103.17 123.37 103.347 123.684 103.606C123.671 103.544 123.713 103.497 123.748 103.477C124.12 103.518 124.702 103.322 124.694 103.904C124.652 103.951 124.61 103.999 124.52 104.004C124.766 104.186 124.993 103.779 124.899 103.579C125.084 103.658 125.172 103.769 125.253 103.907Z" fill="#3B5089"/>
<defs>
<linearGradient id="paint0_linear" x1="102.184" y1="227.025" x2="209.55" y2="236.564" gradientUnits="userSpaceOnUse">
<stop stop-color="#4D4D4D"/>
<stop offset="1"/>
</linearGradient>
<linearGradient id="paint1_linear" x1="102.184" y1="227.025" x2="209.55" y2="236.564" gradientUnits="userSpaceOnUse">
<stop/>
<stop offset="1"/>
</linearGradient>
<linearGradient id="paint2_linear" x1="81.5087" y1="255.471" x2="0.052045" y2="259.482" gradientUnits="userSpaceOnUse">
<stop stop-color="white"/>
<stop offset="1"/>
</linearGradient>
<linearGradient id="paint3_linear" x1="81.5087" y1="255.471" x2="0.052045" y2="259.482" gradientUnits="userSpaceOnUse">
<stop/>
<stop offset="1"/>
</linearGradient>
</defs>
</svg>
