<svg width="270" height="195" viewBox="0 0 270 195" fill="none" xmlns="http://www.w3.org/2000/svg">
<path d="M147.541 38.1354C145.721 38.1354 143.401 39.1254 141.091 39.6254C138.781 40.1254 133.491 39.1254 132.991 37.6454C132.491 36.1554 129.371 23.8754 128.861 24.4554C128.361 25.0354 127.371 26.0654 127.371 26.0654C127.371 26.0654 127.201 41.0254 127.531 42.6354C127.871 44.2554 133.981 52.3554 143.071 51.5254C152.161 50.6954 153.491 39.9554 153.491 39.9554C153.491 39.9554 149.351 38.1354 147.541 38.1354ZM149.041 42.5754C148.373 42.9866 147.593 43.1757 146.811 43.1154C146.051 43.0574 145.316 42.8247 144.661 42.4354C144.024 42.0665 143.48 41.5569 143.071 40.9454C144.258 41.5601 145.544 41.9596 146.871 42.1254C147.492 42.172 148.115 42.0868 148.701 41.8754C149.335 41.6294 149.942 41.3177 150.511 40.9454C150.193 41.622 149.681 42.1891 149.041 42.5754Z" fill="#273664"/>
<path d="M127.37 26.0698C127.37 26.0698 135.635 18.3006 134.974 8.7131C134.974 8.7131 137.123 6.72947 140.594 10.0355C140.594 10.0355 143.57 10.862 147.041 7.22538C150.513 3.58873 152.331 8.87838 152.331 8.87838C152.331 8.87838 154.149 14.4987 154.645 13.0109C155.141 11.5232 155.968 4.41522 148.529 2.10099C142.745 0.377881 136.698 -0.293959 130.676 0.117369C128.693 0.447969 124.56 3.75401 124.56 8.38247C124.56 13.0109 122.577 18.7965 122.742 20.6148C122.907 22.4332 127.37 26.0698 127.37 26.0698Z" fill="#273664"/>
<path d="M134.809 24.0858C136.412 23.4732 138.133 23.232 139.843 23.3804C140.703 23.4543 141.55 23.639 142.363 23.93C143.171 24.2272 143.917 24.6725 144.562 25.2429C143.799 24.9129 143.011 24.6457 142.205 24.4438C141.408 24.261 140.599 24.1349 139.785 24.0663C138.128 23.9531 136.465 23.9596 134.809 24.0858Z" fill="#273664"/>
<path d="M148.859 24.4564C149.522 23.7301 150.339 23.1605 151.249 22.7891C152.152 22.3618 153.169 22.237 154.149 22.4333C153.255 22.7183 152.376 23.0489 151.516 23.4238C150.654 23.7778 149.805 24.163 148.859 24.4564Z" fill="#273664"/>
<path d="M141.09 27.5985C141.358 27.5893 141.612 27.4764 141.798 27.2836C141.984 27.0909 142.088 26.8334 142.088 26.5654C142.088 26.2974 141.984 26.0398 141.798 25.8471C141.612 25.6544 141.358 25.5415 141.09 25.5322C140.823 25.5415 140.569 25.6544 140.383 25.8471C140.196 26.0398 140.092 26.2974 140.092 26.5654C140.092 26.8334 140.196 27.0909 140.383 27.2836C140.569 27.4764 140.823 27.5893 141.09 27.5985V27.5985Z" fill="#273664"/>
<path d="M151.67 26.9374C151.938 26.9281 152.191 26.8152 152.378 26.6225C152.564 26.4297 152.668 26.1722 152.668 25.9042C152.668 25.6362 152.564 25.3787 152.378 25.186C152.191 24.9932 151.938 24.8803 151.67 24.8711C151.402 24.8803 151.148 24.9932 150.962 25.186C150.776 25.3787 150.672 25.6362 150.672 25.9042C150.672 26.1722 150.776 26.4297 150.962 26.6225C151.148 26.8152 151.402 26.9281 151.67 26.9374V26.9374Z" fill="#273664"/>
<path d="M122.742 20.6143C122.38 20.7644 122.057 20.9938 121.797 21.2856C121.536 21.5774 121.344 21.9241 121.235 22.3C121.027 23.0428 121.028 23.8288 121.239 24.5708C121.72 26.0887 122.288 27.5779 122.938 29.0312C123.52 30.5507 123.978 32.1144 124.31 33.7071C124.444 34.4548 124.814 35.14 125.365 35.6623C125.66 35.9187 126.006 36.1097 126.38 36.2227C126.754 36.3357 127.148 36.3682 127.536 36.3179C127.134 36.4351 126.712 36.4606 126.299 36.3926C125.887 36.3246 125.495 36.1647 125.153 35.9249C124.478 35.3866 123.999 34.6418 123.789 33.8048C123.385 32.2648 122.886 30.7514 122.294 29.2734C122.019 28.5222 121.738 27.7724 121.438 27.0291C121.108 26.2733 120.867 25.4814 120.721 24.6696C120.554 23.8383 120.623 22.9769 120.921 22.1829C121.079 21.7963 121.326 21.4526 121.643 21.18C121.96 20.9074 122.336 20.7135 122.742 20.6143V20.6143Z" fill="#273664"/>
<path d="M149.686 31.8555C150.081 32.9013 150.069 34.0571 149.652 35.0944C149.423 35.6496 148.996 36.1004 148.455 36.3601C147.922 36.573 147.329 36.5781 146.793 36.3744C147.29 36.3108 147.769 36.145 148.199 35.8874C148.566 35.6125 148.851 35.242 149.022 34.8163C149.367 33.8611 149.59 32.8664 149.686 31.8555V31.8555Z" fill="#273664"/>
<path d="M154.645 13.0107C154.505 15.2806 154.5 17.5568 154.632 19.8271C154.7 20.953 154.83 22.0743 155.02 23.1861C155.221 24.2769 155.539 25.3943 155.73 26.5338C156.119 28.8222 156.094 31.1617 155.656 33.4413C155.181 35.6872 154.454 37.8723 153.488 39.955C154.199 37.7977 154.75 35.5904 155.134 33.3516C155.481 31.1277 155.453 28.8616 155.051 26.647C154.886 25.5333 154.596 24.4468 154.403 23.2917C154.215 22.1538 154.116 21.003 154.105 19.8497C154.061 17.5578 154.242 15.2673 154.645 13.0107V13.0107Z" fill="#273664"/>
<path d="M127.536 42.6367C127.399 43.9593 126.906 45.22 126.109 46.2847C125.703 46.8256 125.206 47.2912 124.639 47.6601C124.066 48.0151 123.407 48.2086 122.732 48.2203C123.305 47.961 123.84 47.6263 124.324 47.2252C124.779 46.8153 125.193 46.3616 125.559 45.8706C125.933 45.3716 126.277 44.8511 126.589 44.3119C126.903 43.766 127.227 43.2148 127.536 42.6367Z" fill="#273664"/>
<path d="M126.887 44.4034C121.864 45.4237 116.948 46.9164 112.205 48.8617C109.746 49.7543 107.176 50.3007 104.567 50.4853C102.031 50.6333 99.5061 50.9234 97.0033 51.3544C96.4387 51.4775 95.8969 51.6884 95.3976 51.9793C94.8239 52.3348 94.219 52.6374 93.5905 52.8833C92.4471 53.3079 91.3938 53.9437 90.4855 54.7576C88.7516 56.5615 87.3263 58.6383 86.2667 60.9049C85.6659 62.0229 85.1864 63.2078 84.6585 64.3685C84.1812 65.5525 83.7016 66.7383 83.2538 67.9369C82.8314 69.1453 82.3834 70.346 81.9811 71.5629L80.8336 75.2345L80.8309 75.2434L80.826 75.2574C78.4352 81.2392 76.2626 87.3041 74.3082 93.452C73.3402 96.523 72.4257 99.6119 71.6446 102.725C71.2594 104.282 70.8961 105.844 70.6241 107.408C70.4858 108.18 70.3908 108.959 70.3395 109.742C70.3171 110.112 70.323 110.484 70.357 110.854C70.3651 111.113 70.4429 111.365 70.5824 111.583L70.2982 111.438C75.9781 112.554 81.6622 113.668 87.3539 114.719L95.8846 116.31L100.154 117.031C101.539 117.271 102.936 117.442 104.339 117.543L104.754 117.548C104.755 117.525 104.744 117.55 104.769 117.534C104.797 117.506 104.829 117.481 104.863 117.46C105.053 117.24 105.211 116.995 105.333 116.731C105.624 116.111 105.864 115.468 106.052 114.81C106.436 113.439 106.743 112.047 106.972 110.642C107.454 107.815 107.71 104.942 107.909 102.068C108.09 99.1906 108.149 96.3067 108.086 93.4158C108.044 90.5278 107.872 87.6389 107.548 84.7619C107.547 84.7442 107.552 84.7266 107.563 84.7127C107.574 84.6987 107.59 84.6895 107.607 84.687C107.625 84.6845 107.643 84.6889 107.657 84.6992C107.672 84.7095 107.682 84.725 107.685 84.7424C108.169 87.6019 108.503 90.4899 108.708 93.3894C108.886 96.2903 108.938 99.1972 108.866 102.11C108.794 105.027 108.555 107.937 108.149 110.827C107.946 112.286 107.662 113.733 107.297 115.16C107.105 115.9 106.852 116.622 106.542 117.32C106.367 117.717 106.133 118.086 105.847 118.414C105.745 118.508 105.635 118.6 105.523 118.686C105.374 118.776 105.213 118.847 105.046 118.895C104.811 118.918 104.601 118.917 104.376 118.924C102.889 118.837 101.408 118.668 99.9396 118.418L95.6378 117.714C92.7804 117.208 89.9249 116.702 87.0809 116.141C81.3951 115.006 75.7192 113.831 70.0533 112.616L70.0059 112.606C69.9148 112.586 69.832 112.539 69.7689 112.47C69.4041 112.055 69.198 111.524 69.1871 110.971C69.156 110.537 69.1583 110.102 69.1939 109.668C69.2666 108.843 69.3854 108.023 69.5499 107.212C69.8644 105.605 70.2714 104.033 70.7223 102.477C71.6215 99.3648 72.6481 96.3019 73.706 93.252C74.7819 90.2084 75.8646 87.1697 76.979 84.1426L80.3535 75.072L80.3459 75.0946C81.6337 70.0941 83.3069 65.2009 85.3503 60.4588C86.3764 58.0196 87.8444 55.7911 89.6804 53.8855C90.6803 52.9682 91.8418 52.2445 93.1059 51.7511C93.6717 51.5232 94.2199 51.2538 94.746 50.9452C95.3599 50.5914 96.0262 50.3378 96.7199 50.1939C99.2844 49.7823 101.87 49.5193 104.465 49.4061C105.735 49.2946 106.998 49.1592 108.24 48.9317C109.484 48.7402 110.708 48.4368 111.897 48.0253C116.725 46.2009 121.748 44.9399 126.865 44.2673C126.884 44.2647 126.902 44.2694 126.916 44.2804C126.931 44.2914 126.941 44.3077 126.943 44.3258C126.945 44.3434 126.94 44.361 126.93 44.3753C126.92 44.3897 126.904 44.3997 126.887 44.4034V44.4034Z" fill="#273664"/>
<path d="M143.104 58.7334C142.991 59.3349 142.963 59.9493 143.019 60.5587C143.056 61.1755 143.096 61.7914 143.154 62.407L143.532 66.097C143.803 68.5557 144.126 71.009 144.427 73.4648L144.905 77.1451C145.207 78.4395 145.009 79.7999 144.351 80.9547C144.134 81.2292 143.866 81.4582 143.561 81.6287C143.256 81.7992 142.92 81.9078 142.573 81.9483C142.225 81.9887 141.874 81.9603 141.538 81.8646C141.201 81.7689 140.887 81.6077 140.614 81.3904C140.339 81.1758 140.112 80.9072 139.945 80.6012C139.779 80.2953 139.677 79.9584 139.646 79.6115L139.446 77.767C139.169 75.309 138.875 72.852 138.5 70.4086C138.321 69.1883 138.078 67.9783 137.771 66.7838C137.696 66.4928 137.592 66.2099 137.462 65.9391C137.436 65.8789 137.396 65.8256 137.346 65.7832C137.296 65.7409 137.237 65.7107 137.174 65.6951L136.749 65.5112C136.181 65.2664 135.607 65.0364 135.03 64.8132C132.725 63.9151 130.404 63.0563 128.061 62.2692C126.899 61.9015 125.692 61.3762 124.576 61.7441C124.057 61.9934 123.626 62.3945 123.34 62.8941C123.054 63.3938 122.927 63.9685 122.975 64.5422C122.974 64.6071 122.948 64.669 122.901 64.7142C122.854 64.7594 122.792 64.7842 122.727 64.7832C122.684 64.7822 122.643 64.7702 122.606 64.7486C122.569 64.7269 122.539 64.6962 122.518 64.6594C121.868 63.5306 121.138 62.4504 120.333 61.4272C119.554 60.4008 118.642 59.4821 117.622 58.695C117.123 58.3197 116.566 58.0292 115.973 57.8353C115.321 57.6295 114.695 57.3516 114.105 57.007C112.902 56.3193 111.885 55.3481 111.143 54.1779C111.133 54.1617 111.125 54.1443 111.12 54.1261L111.113 54.1047C110.928 53.4165 111.018 52.683 111.364 52.0599C111.683 51.4847 112.101 50.9703 112.599 50.5405C113.556 49.7226 114.61 49.0263 115.737 48.4673C117.947 47.3465 120.261 46.4435 122.646 45.771C122.706 45.7535 122.771 45.7548 122.83 45.7747C122.89 45.7946 122.943 45.8321 122.981 45.8824C123.019 45.9326 123.041 45.9933 123.044 46.0562C123.047 46.1192 123.031 46.1816 122.997 46.2352L122.988 46.2499C122.606 46.8941 122.359 47.609 122.261 48.3515C122.205 48.7294 122.174 49.1107 122.169 49.4928C122.203 49.8743 122.2 50.2612 122.267 50.6405C122.525 52.1802 123.101 53.6492 123.96 54.953C124.379 55.6168 124.834 56.2581 125.32 56.8742C125.853 57.4542 126.352 58.0666 126.907 58.6275C127.481 59.1695 128.026 59.7461 128.626 60.2625L130.449 61.7887C130.453 61.7914 130.456 61.7948 130.458 61.7986C130.46 61.8025 130.462 61.8068 130.463 61.8113C130.463 61.8158 130.463 61.8203 130.462 61.8247C130.461 61.8291 130.459 61.8332 130.456 61.8369C130.451 61.8439 130.442 61.8486 130.433 61.8499C130.425 61.8512 130.415 61.849 130.408 61.8439L128.514 60.3941C127.89 59.9016 127.317 59.3462 126.713 58.8239C126.124 58.2872 125.608 57.6729 125.054 57.0971C124.542 56.4802 124.063 55.8366 123.619 55.169C122.696 53.8323 122.063 52.3174 121.76 50.7215C121.679 50.3219 121.671 49.909 121.628 49.5022C121.623 49.0907 121.646 48.6794 121.698 48.2712C121.788 47.4328 122.053 46.6226 122.476 45.8928L122.818 46.3716C120.495 47.0897 118.236 48.0003 116.065 49.0938C114.993 49.6293 113.992 50.2947 113.084 51.0751C112.632 51.385 112.274 51.8129 112.049 52.3122C111.824 52.8115 111.74 53.363 111.807 53.9067L111.777 53.8339C112.448 54.8977 113.365 55.7849 114.451 56.4212C114.994 56.7465 115.573 57.0101 116.175 57.2072C116.833 57.4292 117.449 57.7575 118.001 58.1791C119.063 59.007 120.002 59.9825 120.788 61.0758C121.588 62.1394 122.309 63.2597 122.946 64.428L122.489 64.5453C122.506 63.8867 122.669 63.24 122.967 62.6524C123.114 62.3481 123.321 62.0767 123.576 61.8546C123.831 61.6325 124.128 61.4642 124.45 61.36C125.787 60.9737 127.027 61.5797 128.171 61.9495C130.509 62.7759 132.819 63.6718 135.113 64.6072L136.833 65.3111L137.262 65.4911C137.348 65.5175 137.427 65.5608 137.495 65.6185C137.564 65.6762 137.62 65.747 137.66 65.8268C137.803 66.1116 137.917 66.41 138 66.7175C138.344 67.9192 138.559 69.1409 138.789 70.3595C139.237 72.7987 139.605 75.2499 139.951 77.7036L140.203 79.5449C140.23 79.8161 140.311 80.0791 140.443 80.3175C140.576 80.556 140.755 80.7648 140.971 80.9312C141.399 81.267 141.943 81.4196 142.483 81.3557C143.024 81.2918 143.517 81.0166 143.855 80.5902C144.154 80.1077 144.337 79.5619 144.389 78.9963C144.45 78.4039 144.429 77.8059 144.326 77.2194L143.888 73.5296C143.597 71.0696 143.364 68.6026 143.155 66.1334C143.049 64.899 142.962 63.6622 142.914 62.4227C142.884 61.8035 142.872 61.1827 142.864 60.5625C142.834 59.9364 142.895 59.3092 143.044 58.7005C143.047 58.6921 143.052 58.6851 143.06 58.6811C143.068 58.677 143.077 58.6762 143.086 58.6788C143.094 58.6814 143.101 58.6873 143.105 58.6951C143.11 58.7029 143.111 58.712 143.108 58.7205L143.104 58.7334Z" fill="#273664"/>
<path d="M146.203 50.7548C146.687 51.4403 147.115 52.1645 147.481 52.92C147.664 53.2998 147.797 53.7045 147.957 54.0985C148.089 54.507 148.186 54.9258 148.247 55.3505C148.4 56.2211 148.328 57.1163 148.038 57.9513C147.713 58.8067 147.095 59.5187 146.293 59.9605C146.262 59.9773 146.228 59.9877 146.193 59.9913C146.157 59.9948 146.122 59.9914 146.088 59.9812C146.054 59.971 146.022 59.9542 145.995 59.9318C145.967 59.9094 145.945 59.8818 145.928 59.8505C145.912 59.8203 145.901 59.7873 145.897 59.7531L145.896 59.7437C145.785 58.5437 145.53 57.3615 145.135 56.2226C144.938 55.6603 144.627 55.1448 144.221 54.7083C144.023 54.5106 143.768 54.3799 143.492 54.3346C143.357 54.3515 143.226 54.3953 143.108 54.4634C142.99 54.5314 142.887 54.6225 142.805 54.731C142.12 55.7186 141.625 56.8248 141.344 57.9934C140.995 59.1509 140.703 60.3347 140.448 61.5116L140.453 61.3991L140.765 63.5462C140.778 63.6385 140.755 63.7324 140.701 63.8081C140.646 63.8837 140.564 63.9352 140.473 63.9517C140.381 63.9681 140.286 63.9483 140.209 63.8963C140.131 63.8443 140.077 63.7642 140.058 63.673L140.056 63.665C139.866 62.6546 139.756 61.6307 139.727 60.6029C139.672 59.5838 139.698 58.5669 139.745 57.5535C139.831 55.529 140.041 53.5116 140.374 51.5128C140.376 51.5037 140.381 51.4957 140.388 51.4903C140.396 51.485 140.405 51.4828 140.414 51.4843C140.422 51.4858 140.43 51.4903 140.435 51.4968C140.44 51.5034 140.443 51.5116 140.443 51.52C140.377 53.5398 140.344 55.5547 140.344 57.5648C140.317 59.5582 140.457 61.5504 140.761 63.5206L140.052 63.6394L139.802 61.4841L139.801 61.473C139.797 61.439 139.799 61.4046 139.807 61.3713C140.093 60.1726 140.451 58.992 140.877 57.8356C141.268 56.6525 141.858 55.545 142.623 54.5611C142.73 54.4299 142.863 54.3221 143.013 54.2442C143.163 54.1662 143.328 54.1199 143.496 54.1079C143.826 54.1612 144.129 54.3177 144.364 54.5548C144.808 54.9999 145.156 55.5323 145.384 56.1185C145.878 57.2572 146.236 58.4502 146.45 59.6727L146.054 59.456C146.699 59.0488 147.195 58.4439 147.469 57.7316C147.748 56.9938 147.834 56.197 147.719 55.4166C147.699 55.0177 147.574 54.6272 147.514 54.2271C147.389 53.8407 147.292 53.4422 147.143 53.0604C146.978 52.6851 146.851 52.2912 146.676 51.9164L146.144 50.7906C146.142 50.7866 146.14 50.7822 146.14 50.7777C146.14 50.7732 146.14 50.7686 146.141 50.7643C146.143 50.7599 146.145 50.7559 146.148 50.7524C146.151 50.7489 146.154 50.746 146.158 50.7438C146.166 50.7402 146.174 50.7393 146.182 50.7413C146.191 50.7433 146.198 50.7481 146.203 50.7548V50.7548Z" fill="#273664"/>
<path d="M141.214 67.1884C141.482 67.1791 141.736 67.0662 141.922 66.8734C142.108 66.6807 142.212 66.4232 142.212 66.1552C142.212 65.8872 142.108 65.6297 141.922 65.437C141.736 65.2443 141.482 65.1313 141.214 65.1221C140.947 65.1313 140.693 65.2443 140.507 65.437C140.32 65.6297 140.216 65.8872 140.216 66.1552C140.216 66.4232 140.32 66.6807 140.507 66.8734C140.693 67.0662 140.947 67.1791 141.214 67.1884V67.1884Z" fill="#273664"/>
<path d="M141.958 72.8915C142.226 72.8822 142.48 72.7693 142.666 72.5765C142.852 72.3838 142.956 72.1263 142.956 71.8583C142.956 71.5904 142.852 71.3329 142.666 71.1401C142.48 70.9474 142.226 70.8345 141.958 70.8252C141.69 70.8345 141.437 70.9474 141.25 71.1401C141.064 71.3329 140.96 71.5904 140.96 71.8583C140.96 72.1263 141.064 72.3838 141.25 72.5765C141.437 72.7693 141.69 72.8822 141.958 72.8915Z" fill="#273664"/>
<path d="M142.578 78.3465C142.846 78.3373 143.1 78.2244 143.286 78.0317C143.472 77.8389 143.576 77.5814 143.576 77.3134C143.576 77.0454 143.472 76.7879 143.286 76.5952C143.1 76.4024 142.846 76.2895 142.578 76.2803C142.31 76.2895 142.057 76.4024 141.87 76.5952C141.684 76.7879 141.58 77.0454 141.58 77.3134C141.58 77.5814 141.684 77.8389 141.87 78.0317C142.057 78.2244 142.31 78.3373 142.578 78.3465V78.3465Z" fill="#273664"/>
<path d="M149.166 48.8164C153.297 48.9192 157.421 49.1932 161.535 49.6162C163.594 49.8156 165.644 50.1041 167.688 50.452C169.768 50.7419 171.802 51.2956 173.742 52.0999C173.996 52.226 174.235 52.3818 174.452 52.5641C174.652 52.7453 174.842 52.9381 175.02 53.1415C175.361 53.5109 175.733 53.8642 176.102 54.2283C176.866 54.9527 177.556 55.7519 178.16 56.6138C179.317 58.3674 180.175 60.2999 180.702 62.3333C181.74 66.345 182.383 70.4485 182.622 74.5853C182.122 70.4961 181.31 66.451 180.194 62.4853C179.63 60.529 178.771 58.6701 177.646 56.9729C177.056 56.1499 176.385 55.3882 175.643 54.6995C175.274 54.3428 174.893 53.9885 174.53 53.6042C174.229 53.2302 173.852 52.925 173.423 52.7092C171.551 51.9201 169.587 51.3687 167.577 51.0677C165.557 50.6928 163.515 50.4206 161.474 50.14C157.386 49.6091 153.278 49.2026 149.166 48.8164Z" fill="#273664"/>
<path d="M92.4916 57.5551C94.3952 57.1522 96.3782 57.3814 98.1396 58.2079C99.9057 59.0557 101.414 60.3586 102.51 61.9825C103.057 62.7812 103.534 63.6259 103.935 64.5072C104.315 65.3904 104.647 66.2932 104.93 67.2118C105.138 68.1485 105.394 69.0719 105.557 70.0111C105.665 70.9615 105.796 71.9049 105.881 72.8503C105.641 71.9262 105.445 71.0002 105.227 70.0811C104.999 69.1655 104.689 68.2726 104.426 67.3718C104.073 66.5031 103.762 65.6168 103.367 64.7725C102.963 63.9354 102.488 63.1344 101.947 62.3783C100.933 60.8264 99.5437 59.5551 97.9082 58.6817C96.2435 57.8073 94.367 57.417 92.4916 57.5551V57.5551Z" fill="#273664"/>
<path d="M116.956 101.117C117.431 102.381 117.931 103.632 118.513 104.846C119.063 106.074 119.667 107.275 120.308 108.455C121.574 110.818 123.022 113.08 124.638 115.219C126.231 117.372 128.042 119.353 130.044 121.132L131.572 122.436C132.096 122.853 132.661 123.215 133.203 123.61L134.019 124.204C134.301 124.385 134.597 124.545 134.885 124.717L136.627 125.747C134.128 124.682 131.795 123.263 129.7 121.534C127.611 119.787 125.729 117.808 124.089 115.634C122.472 113.451 121.05 111.129 119.839 108.697C118.626 106.274 117.66 103.734 116.956 101.117V101.117Z" fill="#273664"/>
<path d="M73.9223 112.795C73.8923 116.914 73.8014 121.031 73.7342 125.149C73.6786 129.268 73.5392 133.383 73.4452 137.5L73.4425 137.535L73.4366 137.573C73.1851 139.218 73.3951 140.901 74.0433 142.434C74.7313 143.915 75.9661 145.073 77.4887 145.664C77.88 145.791 78.2631 145.938 78.6586 146.053L79.8856 146.29C80.735 146.415 81.6117 146.507 82.4782 146.602C84.2167 146.787 85.9587 146.952 87.7042 147.096C94.683 147.682 101.684 147.983 108.682 148.14C115.676 148.301 122.674 148.07 129.643 147.447C136.568 146.778 143.601 145.717 149.892 142.704C149.954 142.675 150.024 142.67 150.089 142.689C150.154 142.708 150.211 142.75 150.247 142.807C150.742 143.58 151.429 144.211 152.241 144.64C153.069 145.077 153.983 145.325 154.918 145.367C155.866 145.403 156.815 145.303 157.735 145.07C158.191 144.936 158.649 144.796 159.103 144.646L160.431 144.095L159.132 144.72C158.685 144.896 158.232 145.062 157.777 145.224C156.849 145.514 155.881 145.661 154.908 145.659C153.909 145.672 152.921 145.444 152.029 144.993C151.137 144.541 150.368 143.881 149.787 143.068L150.141 143.171C146.997 144.81 143.651 146.026 140.19 146.789C136.75 147.579 133.267 148.171 129.759 148.562C122.751 149.278 115.707 149.579 108.663 149.464C101.625 149.419 94.5997 148.972 87.5943 148.347C85.8426 148.189 84.0924 148.009 82.3436 147.807C81.4669 147.704 80.5982 147.606 79.7135 147.469L78.3587 147.194C77.9141 147.062 77.4761 146.893 77.0362 146.742C75.2611 146.013 73.8416 144.619 73.0811 142.858C72.389 141.124 72.1997 139.23 72.535 137.393L72.5264 137.465C72.7444 133.353 72.9173 129.239 73.1739 125.128C73.4186 121.017 73.64 116.905 73.9223 112.795Z" fill="#273664"/>
<path d="M99.4367 117.632C99.5512 119.896 99.6159 122.16 99.6945 124.425L99.5392 124.188C107.505 127.044 115.868 128.64 124.327 128.917C128.531 129.045 132.737 128.716 136.871 127.935L139.949 127.269C140.965 127.011 141.951 126.646 142.955 126.34L144.46 125.869C144.95 125.683 145.426 125.461 145.911 125.259L148.811 124.016L148.565 124.388C148.679 123.7 148.949 123.048 149.354 122.481C149.731 121.931 150.2 121.451 150.741 121.063C151.798 120.314 153.012 119.817 154.291 119.612C154.913 119.504 155.54 119.428 156.169 119.384C156.797 119.385 157.423 119.33 158.046 119.376C158.669 119.428 159.294 119.427 159.91 119.522L161.753 119.796L159.897 119.692C159.279 119.661 158.661 119.69 158.046 119.685C157.429 119.681 156.819 119.777 156.209 119.818C155.605 119.901 155.007 120.016 154.415 120.161C153.254 120.437 152.162 120.951 151.209 121.67C150.303 122.35 149.687 123.346 149.484 124.461L149.48 124.492C149.47 124.564 149.443 124.633 149.401 124.692C149.359 124.751 149.303 124.8 149.238 124.833C145.428 126.857 141.351 128.335 137.128 129.221C132.904 130.076 128.594 130.427 124.287 130.265C119.996 130.108 115.728 129.553 111.539 128.607C109.453 128.118 107.384 127.567 105.346 126.913C103.297 126.288 101.29 125.536 99.3344 124.661L99.3224 124.656C99.2783 124.636 99.2411 124.603 99.2155 124.562C99.19 124.521 99.1772 124.473 99.1788 124.424C99.2577 122.16 99.3222 119.896 99.4367 117.632Z" fill="#273664"/>
<path d="M79.4328 129.641C80.5123 128.154 81.889 126.907 83.4758 125.98C85.0638 125.039 86.7829 124.34 88.5766 123.906C89.4789 123.723 90.3915 123.596 91.3093 123.525C92.2232 123.435 93.1428 123.42 94.0591 123.48C94.9753 123.501 95.8781 123.685 96.7829 123.783C97.6755 123.975 98.5615 124.192 99.4367 124.425C98.5278 124.344 97.6369 124.195 96.739 124.118C95.8374 124.09 94.9431 123.965 94.0456 124.01C92.2582 124.002 90.4754 124.192 88.7299 124.577C86.9907 124.973 85.3119 125.598 83.7378 126.437C82.1412 127.269 80.6878 128.35 79.4328 129.641Z" fill="#273664"/>
<path d="M149.025 124.425C149.299 125.024 149.625 125.6 149.997 126.144C150.348 126.677 150.8 127.136 151.327 127.496C151.457 127.574 151.594 127.64 151.735 127.695C151.927 127.767 152.101 127.881 152.244 128.029C152.371 128.194 152.455 128.389 152.488 128.595C152.522 128.801 152.503 129.012 152.435 129.209C152.209 129.882 151.843 130.5 151.361 131.021L151.357 131.025L151.337 131.044C150.823 131.529 150.435 132.133 150.209 132.802C150.104 133.118 150.071 133.453 150.113 133.783C150.155 134.113 150.27 134.43 150.449 134.71C150.783 135.253 151.517 135.782 151.798 136.616C151.884 136.832 151.923 137.063 151.912 137.295C151.9 137.527 151.837 137.753 151.729 137.959C151.493 138.338 151.137 138.629 150.719 138.786L150.811 138.723C150.269 139.295 149.854 139.977 149.595 140.721C149.468 141.093 149.43 141.489 149.482 141.878C149.568 142.271 149.752 142.635 150.017 142.939C149.693 142.67 149.452 142.315 149.32 141.916C149.216 141.499 149.209 141.065 149.3 140.645C149.388 140.229 149.539 139.828 149.747 139.456C149.946 139.08 150.181 138.724 150.449 138.394C150.465 138.374 150.486 138.358 150.509 138.347L150.542 138.33C150.833 138.195 151.074 137.97 151.229 137.689C151.291 137.553 151.323 137.406 151.323 137.256C151.323 137.107 151.292 136.959 151.231 136.823C151.007 136.179 150.402 135.78 149.898 135.064C149.655 134.706 149.497 134.298 149.434 133.87C149.385 133.442 149.431 133.008 149.569 132.6C149.846 131.824 150.313 131.129 150.928 130.58L150.905 130.602C151.331 130.153 151.667 129.627 151.898 129.053C151.952 128.941 151.977 128.817 151.971 128.694C151.966 128.57 151.93 128.449 151.866 128.342C151.782 128.248 151.678 128.171 151.563 128.118C151.4 128.043 151.244 127.953 151.096 127.851C150.544 127.434 150.095 126.895 149.784 126.276C149.463 125.689 149.208 125.068 149.025 124.425V124.425Z" fill="#273664"/>
<path d="M161.34 125.12C161.319 125.54 161.299 125.953 161.278 126.367C160.445 126.36 159.604 126.325 158.771 126.236C157.79 126.156 156.817 125.993 155.864 125.747C156.817 125.501 157.79 125.337 158.771 125.258C159.625 125.168 160.486 125.134 161.34 125.12Z" fill="#273664"/>
<path d="M161.12 129.755C161.092 130.175 161.078 130.588 161.057 130.995C160.293 130.981 159.535 130.946 158.771 130.864C157.79 130.784 156.817 130.621 155.864 130.375C156.817 130.129 157.79 129.965 158.771 129.886C159.556 129.803 160.334 129.769 161.12 129.755Z" fill="#273664"/>
<path d="M160.913 134.219C160.899 134.639 160.878 135.052 160.865 135.459C160.169 135.438 159.467 135.403 158.771 135.328C157.79 135.248 156.817 135.084 155.864 134.839C156.817 134.593 157.79 134.429 158.771 134.35C159.487 134.274 160.203 134.239 160.913 134.219Z" fill="#273664"/>
<path d="M158.771 139.681C159.418 139.612 160.066 139.577 160.706 139.557C160.686 139.977 160.672 140.383 160.658 140.776C160.031 140.762 159.398 140.728 158.771 140.659C157.79 140.579 156.817 140.416 155.864 140.17C156.817 139.924 157.79 139.76 158.771 139.681V139.681Z" fill="#273664"/>
<path d="M133.308 146.428C135.977 146.554 138.638 146.733 141.299 146.907L149.28 147.448C151.937 147.659 154.597 147.813 157.256 147.954C158.586 148.037 159.916 148.085 161.246 148.107C161.909 148.106 162.579 148.154 163.24 148.105L164.236 148.058L165.222 147.903C162.597 148.436 159.914 148.631 157.239 148.484C154.565 148.452 151.898 148.292 149.233 148.135C146.57 147.926 143.909 147.717 141.254 147.432C138.6 147.149 135.948 146.836 133.308 146.428Z" fill="#273664"/>
<path d="M167.869 74.5858C162.828 80.2887 160.431 147.904 160.431 147.904H165.224C165.224 147.904 163.22 141.967 166.12 139.873C171.389 134.446 233.577 130.375 233.577 130.375C233.715 129.184 234.645 124.445 235.912 118.253C239.121 102.487 244.487 77.3134 244.487 77.3134C239.032 73.0981 167.869 74.5858 167.869 74.5858Z" fill="#273664"/>
<path d="M75.0809 144.815C75.0306 144.805 74.9808 144.805 74.931 144.795L74.871 144.735C74.9426 144.758 75.0127 144.784 75.0809 144.815V144.815Z" fill="white"/>
<path d="M96.8607 168.425V168.485C96.891 168.305 96.9208 168.135 96.951 167.955C96.9208 168.115 96.891 168.265 96.8607 168.425Z" fill="white"/>
<path d="M234.391 194.665V194.685C234.351 194.695 234.321 194.705 234.281 194.715C234.321 194.695 234.351 194.685 234.391 194.665Z" fill="white"/>
<path fill-rule="evenodd" clip-rule="evenodd" d="M194.722 95.748C194.837 96.6204 195.219 99.1236 195.486 100.034C195.639 99.9201 195.754 99.7684 195.868 99.6167C195.486 97.9478 195.333 96.279 195.333 94.5723C192.926 95.5584 194.569 99.5029 195.219 101.02C195.333 100.83 195.333 100.641 195.295 100.451C195.028 99.427 194.302 96.7721 194.684 95.748" fill="white"/>
<path fill-rule="evenodd" clip-rule="evenodd" d="M193.385 102.612C193.041 101.891 192.01 100.45 191.589 99.7674C192.239 100.336 193.27 101.967 194.034 102.802C194.073 102.081 193.691 101.626 193.27 101.019C192.774 100.109 192.086 99.3502 191.245 98.7812H191.169C190.749 100.26 191.78 101.284 192.621 102.081C192.85 102.346 193.041 102.726 193.385 102.612Z" fill="white"/>
<path fill-rule="evenodd" clip-rule="evenodd" d="M196.327 100.261C195.181 100.981 195.83 102.878 196.25 103.712C196.556 103.029 196.097 102.005 196.059 101.361C196.25 101.588 196.365 102.461 196.632 102.688C196.632 102.574 196.709 102.498 196.785 102.423C196.479 101.74 196.327 101.019 196.327 100.261Z" fill="white"/>
<path fill-rule="evenodd" clip-rule="evenodd" d="M190.711 101.324C191.322 101.817 192.353 102.765 192.926 103.296C193.041 103.258 192.965 103.03 193.041 102.879C191.895 102.158 191.589 100.83 190.061 100.451C190.099 102.31 191.742 103.03 192.812 104.092C192.965 104.054 193.117 104.054 193.27 104.092C192.621 103.258 191.398 102.158 190.711 101.324Z" fill="white"/>
<path fill-rule="evenodd" clip-rule="evenodd" d="M189.297 102.271C189.373 104.053 191.207 104.47 192.621 105.229C192.239 104.432 190.596 103.674 189.985 103.029C190.558 103.332 191.704 104.129 192.239 104.432C192.353 104.432 192.353 104.281 192.506 104.167C191.475 103.56 190.863 102.384 189.297 102.271Z" fill="white"/>
<path fill-rule="evenodd" clip-rule="evenodd" d="M192.888 104.926C192.888 105.836 193.958 105.988 194.722 106.405C194.798 105.836 193.576 105.609 193.385 105.229C193.882 105.343 194.798 106.064 195.295 105.874C194.646 105.533 193.843 104.471 192.888 104.926Z" fill="white"/>
<path fill-rule="evenodd" clip-rule="evenodd" d="M188.686 104.395C188.915 105.761 190.863 105.874 192.124 106.481C192.315 106.481 192.01 106.254 192.048 106.102C191.436 105.836 190.405 105.381 189.832 105.078C190.596 105.268 191.36 105.533 192.124 105.836C192.201 105.723 192.392 105.723 192.43 105.533C191.284 105.116 190.138 104.092 188.686 104.395Z" fill="white"/>
<path fill-rule="evenodd" clip-rule="evenodd" d="M193.385 106.139C193.079 105.987 192.697 106.101 192.544 106.405C192.659 107.163 194.149 107.087 194.722 107.391C194.722 107.353 194.76 107.277 194.837 107.277C194.264 107.012 193.691 106.746 193.079 106.556C193.652 106.632 194.187 106.746 194.76 106.974C194.875 106.898 194.76 106.708 194.722 106.632C194.264 106.481 193.843 106.329 193.385 106.139Z" fill="white"/>
<path fill-rule="evenodd" clip-rule="evenodd" d="M188.609 106.253C188.724 107.239 190.023 107.277 191.284 107.391C191.589 107.391 192.048 107.619 192.048 107.201C191.436 107.088 190.29 106.822 189.717 106.67C190.329 106.595 191.819 107.088 192.353 106.936C191.36 106.708 189.373 105.457 188.609 106.253Z" fill="white"/>
<path fill-rule="evenodd" clip-rule="evenodd" d="M192.583 107.657C192.774 108.416 193.805 108.188 194.455 108.074C194.34 107.809 193.232 107.809 192.965 107.657C193.194 107.467 194.416 107.923 194.531 107.543C193.843 107.392 192.85 106.937 192.583 107.657Z" fill="white"/>
<path fill-rule="evenodd" clip-rule="evenodd" d="M188.686 108.453C189.832 109.287 191.284 108.377 192.468 108.301C192.315 107.96 191.78 108.112 191.398 108.15C191.016 108.188 190.176 108.263 189.794 108.263C190.558 108.112 191.322 107.998 192.086 107.922C192.086 107.846 192.048 107.808 191.971 107.77C190.749 107.657 189.068 107.353 188.686 108.453Z" fill="white"/>
<path fill-rule="evenodd" clip-rule="evenodd" d="M193.003 109.25C193.614 109.667 193.958 109.364 194.455 109.061C194.722 108.909 195.066 108.795 195.104 108.605C194.722 108.681 193.805 108.909 193.423 108.985C193.461 108.833 194.455 108.53 194.646 108.454C194.646 108.378 194.607 108.378 194.646 108.34C193.996 108.264 193.041 108.264 193.003 109.25Z" fill="white"/>
<path fill-rule="evenodd" clip-rule="evenodd" d="M190.978 111.26C191.475 110.691 192.506 110.236 193.079 109.743C192.583 109.553 191.933 110.009 191.398 110.312C190.863 110.615 190.023 110.881 190.176 111.753C190.825 112.36 191.36 111.677 191.933 111.298C192.392 110.995 193.079 110.729 193.003 110.236C192.392 110.388 191.551 110.995 190.978 111.26Z" fill="white"/>
<path fill-rule="evenodd" clip-rule="evenodd" d="M198.16 110.957C198.046 110.957 197.969 110.957 197.855 110.995C197.664 111.26 197.473 112.208 197.32 112.474C197.205 112.17 197.702 111.07 197.473 110.881C197.129 111.412 196.479 112.436 197.205 112.853C197.931 112.777 198.046 111.867 198.16 110.957Z" fill="white"/>
<path fill-rule="evenodd" clip-rule="evenodd" d="M199.192 111.07C199.077 111.07 199.001 111.108 198.886 111.146C198.772 111.412 198.734 112.36 198.619 112.663C198.466 112.398 198.772 111.222 198.504 111.07C198.275 111.639 197.817 112.777 198.581 113.043C199.307 112.853 199.268 111.943 199.192 111.07Z" fill="white"/>
<path fill-rule="evenodd" clip-rule="evenodd" d="M192.201 112.436C192.392 111.943 193.27 111.298 193.576 110.805C193.5 110.767 193.423 110.767 193.385 110.691C192.926 111.222 191.131 111.791 191.589 112.929C191.704 112.967 191.857 113.005 192.01 113.043C192.353 113.157 192.583 112.891 192.812 112.664C193.041 112.436 193.27 112.133 193.5 111.867C193.614 111.715 193.767 111.564 193.92 111.45C193.843 111.336 193.92 110.995 193.767 111.071C193.27 111.564 192.735 112.019 192.201 112.436Z" fill="white"/>
<path fill-rule="evenodd" clip-rule="evenodd" d="M194.531 110.767C194.378 110.88 194.493 111.146 194.493 111.26C194.646 111.146 194.531 110.918 194.531 110.767Z" fill="white"/>
<path fill-rule="evenodd" clip-rule="evenodd" d="M194.798 111.829C194.569 112.284 194.264 112.739 193.882 113.081C193.996 112.588 194.378 112.17 194.493 111.677L194.034 111.602C193.767 112.208 192.888 112.891 193.5 113.536C193.576 113.65 193.805 113.612 193.92 113.612C194.073 113.612 194.225 113.498 194.302 113.346C194.531 112.967 194.722 112.55 194.951 112.133C194.913 111.981 194.875 111.829 194.76 111.753" fill="white"/>
<path fill-rule="evenodd" clip-rule="evenodd" d="M193.079 96.6953C191.398 98.1745 193.461 100.678 194.264 101.74C194.378 101.285 193.92 100.792 193.767 100.412C193.614 100.033 193.156 98.7813 193.003 98.3641C193.576 99.1227 194.264 101.285 195.219 101.853C194.913 101.171 194.607 100.45 194.264 99.6916C194.111 99.3503 193.27 97.4159 193.079 96.6953Z" fill="white"/>
<path fill-rule="evenodd" clip-rule="evenodd" d="M193.958 103.94C194.455 104.281 194.951 104.623 195.41 105.04C195.372 104.433 194.646 103.826 194.378 103.636C194.378 103.636 193.767 103.219 193.538 103.447C193.347 104.812 194.684 105.04 195.372 105.722C195.41 105.116 194.187 104.433 193.958 103.94Z" fill="white"/>
<path fill-rule="evenodd" clip-rule="evenodd" d="M193.958 110.198C194.646 110.691 195.104 109.933 195.486 109.591C195.104 109.326 194.607 109.857 194.302 109.971C194.302 109.629 195.257 109.516 195.142 109.022C194.722 109.25 193.767 109.516 193.958 110.198Z" fill="white"/>
<path fill-rule="evenodd" clip-rule="evenodd" d="M196.938 111.184C197.014 110.843 197.282 110.729 197.091 110.464C196.709 110.578 196.403 111.602 196.021 111.791C196.212 111.374 196.403 110.919 196.632 110.54C196.479 110.578 196.403 110.616 196.288 110.502C196.136 111.071 195.295 111.602 195.792 112.171C195.906 111.981 196.556 112.398 196.938 111.184Z" fill="white"/>
<path fill-rule="evenodd" clip-rule="evenodd" d="M189.106 110.16C189.45 108.605 191.436 109.211 192.583 108.643C192.392 109.022 191.857 109.06 191.436 109.249C191.016 109.439 190.138 109.667 189.832 109.856C190.52 109.705 191.742 109.287 192.43 109.174C192.43 109.325 192.315 109.325 192.353 109.477C191.436 109.553 190.405 110.691 189.526 110.425H189.488C189.297 110.387 189.259 110.236 189.106 110.198" fill="white"/>
<path fill-rule="evenodd" clip-rule="evenodd" d="M195.257 110.236L195.486 110.046C195.677 109.895 195.83 109.629 196.021 109.819C195.792 110.084 195.066 110.805 194.837 111.108C195.142 110.957 195.83 110.198 196.174 110.046C196.174 110.539 195.333 111.601 194.76 111.412L194.607 111.336L194.569 111.26C194.531 111.108 194.531 110.994 194.531 110.843C194.531 110.729 195.257 110.236 195.257 110.236Z" fill="white"/>
<path fill-rule="evenodd" clip-rule="evenodd" d="M194.607 102.157C194.607 102.119 194.684 102.081 194.684 102.081C195.486 102.764 196.059 103.674 196.288 104.698L196.021 104.66C195.677 104.015 195.295 103.409 194.875 102.802C195.142 103.409 195.448 104.015 195.792 104.622H195.524C195.142 103.864 194.187 103.371 194.607 102.157Z" fill="white"/>
<path fill-rule="evenodd" clip-rule="evenodd" d="M195.486 107.467C195.792 107.429 196.136 107.733 196.25 107.505C195.792 107.24 195.142 107.126 195.333 106.367C195.945 106.064 196.365 106.784 196.747 106.822C196.479 106.291 195.677 105.988 195.945 105.116C197.014 105.116 197.014 106.102 197.32 106.216C197.244 106.216 197.205 105.685 197.167 105.609C197.053 105.267 196.747 105.002 196.709 104.661C196.709 104.395 196.747 104.13 196.823 103.902C196.862 103.599 197.053 103.295 197.32 103.105C197.435 104.167 198.275 105.078 198.237 106.253C198.199 107.315 196.9 106.747 196.785 107.809C196.823 108.415 197.205 108.946 197.778 109.174C198.351 109.288 198.886 109.364 199.459 109.401C199.498 109.705 199.536 110.35 199.154 110.577C199.001 110.691 198.81 110.653 198.657 110.501C198.543 110.35 198.504 110.198 198.543 110.008C198.543 109.932 198.543 109.857 198.543 109.781C198.504 109.705 198.466 109.667 198.428 109.591C198.275 109.932 198.351 110.35 198.008 110.539C197.931 110.615 197.817 110.615 197.702 110.615C197.549 110.426 197.396 110.426 197.358 110.16C197.358 109.932 197.74 109.553 197.473 109.326C197.129 110.236 196.709 110.008 196.594 110.16C196.136 109.743 196.747 109.288 196.823 108.984C196.403 109.174 196.136 109.819 195.601 109.288C195.601 109.098 195.601 108.946 195.639 108.757C195.792 108.491 196.212 108.605 196.327 108.302C196.059 108.112 195.715 108.567 195.41 108.491C195.142 108.415 194.951 108.112 195.066 107.846C195.181 107.695 195.333 107.543 195.486 107.467Z" fill="white"/>
<path fill-rule="evenodd" clip-rule="evenodd" d="M209.278 95.748C209.163 96.6204 208.781 99.1236 208.514 100.034C208.361 99.9201 208.246 99.7684 208.132 99.6167C208.514 97.9478 208.667 96.279 208.667 94.5723C211.074 95.5584 209.431 99.5029 208.781 101.02C208.705 100.83 208.667 100.641 208.705 100.451C208.972 99.427 209.698 96.7721 209.316 95.748" fill="white"/>
<path fill-rule="evenodd" clip-rule="evenodd" d="M210.577 102.612C210.921 101.891 211.99 100.45 212.372 99.7674C211.723 100.336 210.692 101.967 209.927 102.802C209.889 102.081 210.271 101.626 210.692 101.019C211.188 100.109 211.876 99.3502 212.716 98.7812H212.793C213.213 100.26 212.181 101.284 211.341 102.081C211.15 102.309 210.959 102.726 210.577 102.612Z" fill="white"/>
<path fill-rule="evenodd" clip-rule="evenodd" d="M207.712 100.261C208.858 100.981 208.17 102.878 207.75 103.712C207.444 103.029 207.903 102.005 207.941 101.361C207.75 101.588 207.635 102.461 207.406 102.688C207.406 102.574 207.33 102.498 207.253 102.423C207.482 101.74 207.673 101.019 207.712 100.261Z" fill="white"/>
<path fill-rule="evenodd" clip-rule="evenodd" d="M213.251 101.324C212.64 101.817 211.608 102.765 211.035 103.296C210.921 103.258 210.997 103.03 210.921 102.879C212.067 102.158 212.372 100.83 213.901 100.451C213.862 102.31 212.22 103.03 211.15 104.092C210.997 104.054 210.844 104.054 210.691 104.092C211.379 103.258 212.602 102.158 213.251 101.324Z" fill="white"/>
<path fill-rule="evenodd" clip-rule="evenodd" d="M214.703 102.271C214.627 104.053 212.793 104.47 211.379 105.229C211.761 104.432 213.404 103.674 213.977 103.029C213.404 103.332 212.258 104.129 211.685 104.394C211.608 104.394 211.57 104.243 211.456 104.129C212.525 103.56 213.098 102.384 214.703 102.271Z" fill="white"/>
<path fill-rule="evenodd" clip-rule="evenodd" d="M211.112 104.926C211.112 105.836 210.042 105.988 209.278 106.405C209.202 105.836 210.462 105.609 210.615 105.229C210.118 105.343 209.202 106.064 208.705 105.874C209.354 105.533 210.157 104.471 211.112 104.926Z" fill="white"/>
<path fill-rule="evenodd" clip-rule="evenodd" d="M215.352 104.395C215.123 105.761 213.175 105.874 211.914 106.481C211.723 106.481 212.029 106.254 211.99 106.102C212.602 105.836 213.633 105.381 214.206 105.078C213.442 105.268 212.678 105.533 211.914 105.836C211.838 105.723 211.647 105.723 211.608 105.533C212.755 105.116 213.901 104.092 215.352 104.395Z" fill="white"/>
<path fill-rule="evenodd" clip-rule="evenodd" d="M199.841 117.1C199.498 116.683 199.956 116.114 200.109 115.583C200.147 115.545 200.147 115.697 200.224 115.697C200.109 115.963 200.032 116.342 199.956 116.607C200.071 116.342 200.185 116.038 200.3 115.773C200.376 115.773 200.415 115.735 200.453 115.773C200.3 116.19 200.3 116.759 199.841 117.1Z" fill="white"/>
<path fill-rule="evenodd" clip-rule="evenodd" d="M200.338 119.377C201.102 119.149 201.026 117.404 201.255 116.229C201.255 116.077 201.14 116.342 201.064 116.304C200.949 116.873 200.758 117.784 200.644 118.315C200.644 117.822 200.835 116.76 200.911 116.266C200.835 116.191 200.835 116.039 200.72 116.001C200.529 117.025 200.032 118.087 200.338 119.377Z" fill="white"/>
<path fill-rule="evenodd" clip-rule="evenodd" d="M204.159 117.1C204.502 116.683 204.044 116.114 203.891 115.583C203.853 115.545 203.853 115.697 203.777 115.697C203.853 115.925 203.968 116.342 204.044 116.569C203.929 116.304 203.815 116 203.7 115.735C203.624 115.735 203.585 115.697 203.547 115.735C203.7 116.19 203.7 116.759 204.159 117.1Z" fill="white"/>
<path fill-rule="evenodd" clip-rule="evenodd" d="M203.7 119.377C202.936 119.149 203.012 117.404 202.783 116.229C202.783 116.077 202.898 116.342 202.974 116.304C203.089 116.873 203.28 117.784 203.394 118.315C203.394 117.822 203.203 116.76 203.127 116.266C203.203 116.191 203.203 116.039 203.318 116.001C203.471 117.025 203.968 118.087 203.7 119.377Z" fill="white"/>
<path fill-rule="evenodd" clip-rule="evenodd" d="M210.577 106.139C210.883 105.987 211.265 106.101 211.417 106.405C211.303 107.163 209.813 107.087 209.24 107.391C209.24 107.353 209.202 107.277 209.125 107.277C209.698 107.012 210.271 106.746 210.883 106.556C210.309 106.632 209.736 106.746 209.202 106.974C209.087 106.898 209.202 106.708 209.24 106.632C209.698 106.481 210.157 106.329 210.577 106.139Z" fill="white"/>
<path fill-rule="evenodd" clip-rule="evenodd" d="M215.352 106.253C215.238 107.239 213.939 107.277 212.678 107.391C212.372 107.391 211.914 107.619 211.914 107.201C212.525 107.088 213.671 106.822 214.245 106.67C213.633 106.595 212.143 107.088 211.608 106.936C212.64 106.708 214.627 105.457 215.352 106.253Z" fill="white"/>
<path fill-rule="evenodd" clip-rule="evenodd" d="M211.417 107.657C211.226 108.416 210.195 108.188 209.545 108.074C209.66 107.809 210.768 107.809 211.035 107.657C210.806 107.467 209.584 107.923 209.507 107.543C210.157 107.392 211.15 106.937 211.417 107.657Z" fill="white"/>
<path fill-rule="evenodd" clip-rule="evenodd" d="M215.314 108.453C214.168 109.287 212.716 108.377 211.57 108.301C211.723 107.96 212.258 108.112 212.64 108.15C213.022 108.188 213.862 108.263 214.245 108.263C213.48 108.112 212.716 107.998 211.952 107.922C211.952 107.846 211.99 107.808 212.067 107.77C213.251 107.657 214.932 107.353 215.314 108.453Z" fill="white"/>
<path fill-rule="evenodd" clip-rule="evenodd" d="M210.997 109.25C210.386 109.667 210.042 109.364 209.545 109.061C209.278 108.909 208.934 108.795 208.896 108.605C209.278 108.681 210.195 108.909 210.577 108.985C210.539 108.833 209.545 108.53 209.354 108.454C209.354 108.378 209.393 108.378 209.354 108.34C210.004 108.264 210.959 108.264 210.997 109.25Z" fill="white"/>
<path fill-rule="evenodd" clip-rule="evenodd" d="M212.984 111.26C212.487 110.691 211.456 110.236 210.883 109.743C211.379 109.553 212.029 110.009 212.564 110.312C213.098 110.615 213.939 110.881 213.786 111.715C213.137 112.322 212.602 111.639 212.029 111.26C211.57 110.957 210.883 110.691 210.959 110.198C211.608 110.35 212.449 110.957 212.984 111.26Z" fill="white"/>
<path fill-rule="evenodd" clip-rule="evenodd" d="M205.84 110.957C205.954 110.957 206.031 110.957 206.145 110.995C206.298 111.26 206.527 112.208 206.68 112.474C206.795 112.17 206.298 111.07 206.527 110.881C206.871 111.412 207.521 112.436 206.795 112.853C206.069 112.777 205.954 111.867 205.84 110.957Z" fill="white"/>
<path fill-rule="evenodd" clip-rule="evenodd" d="M204.77 111.07C204.884 111.07 204.961 111.108 205.075 111.146C205.19 111.412 205.228 112.36 205.343 112.663C205.496 112.398 205.19 111.222 205.457 111.07C205.687 111.639 206.145 112.777 205.381 113.043C204.693 112.853 204.732 111.943 204.77 111.07Z" fill="white"/>
<path fill-rule="evenodd" clip-rule="evenodd" d="M211.838 112.436C211.647 111.943 210.768 111.298 210.462 110.805C210.539 110.767 210.615 110.767 210.653 110.691C211.112 111.222 212.907 111.791 212.449 112.929C212.334 112.967 212.181 113.005 212.029 113.043C211.685 113.157 211.456 112.891 211.226 112.664C210.997 112.436 210.768 112.133 210.539 111.867C210.424 111.715 210.271 111.564 210.118 111.45C210.195 111.336 210.118 110.995 210.271 111.071C210.73 111.564 211.265 112.019 211.838 112.436Z" fill="white"/>
<path fill-rule="evenodd" clip-rule="evenodd" d="M209.431 110.767C209.584 110.88 209.469 111.146 209.469 111.26C209.316 111.146 209.469 110.918 209.431 110.767Z" fill="white"/>
<path fill-rule="evenodd" clip-rule="evenodd" d="M209.163 111.829C209.393 112.284 209.698 112.739 210.08 113.081C209.966 112.588 209.584 112.17 209.469 111.677L209.927 111.602C210.195 112.208 211.074 112.891 210.462 113.536C210.386 113.65 210.157 113.612 210.042 113.612C209.889 113.612 209.736 113.498 209.66 113.346C209.431 112.967 209.24 112.55 209.01 112.133C209.049 111.981 209.087 111.829 209.202 111.753" fill="white"/>
<path fill-rule="evenodd" clip-rule="evenodd" d="M210.921 96.6953C212.602 98.1745 210.539 100.678 209.736 101.74C209.622 101.285 210.08 100.792 210.233 100.412C210.386 100.033 210.844 98.7813 210.997 98.3641C210.424 99.1227 209.736 101.285 208.781 101.853C209.087 101.171 209.393 100.45 209.736 99.6916C209.889 99.3503 210.73 97.4159 210.921 96.6953Z" fill="white"/>
<path fill-rule="evenodd" clip-rule="evenodd" d="M210.042 103.94C209.545 104.281 209.049 104.623 208.59 105.04C208.628 104.433 209.354 103.826 209.622 103.636C209.622 103.636 210.233 103.219 210.5 103.447C210.691 104.812 209.354 105.04 208.628 105.722C208.514 105.116 209.775 104.433 210.042 103.94Z" fill="white"/>
<path fill-rule="evenodd" clip-rule="evenodd" d="M210.042 110.198C209.354 110.691 208.896 109.933 208.514 109.591C208.896 109.326 209.393 109.857 209.698 109.971C209.698 109.629 208.743 109.516 208.858 109.022C209.278 109.25 210.195 109.516 210.042 110.198Z" fill="white"/>
<path fill-rule="evenodd" clip-rule="evenodd" d="M207.062 111.184C206.986 110.843 206.718 110.729 206.909 110.464C207.291 110.578 207.597 111.602 207.979 111.791C207.788 111.374 207.597 110.957 207.368 110.54C207.521 110.578 207.597 110.616 207.712 110.502C207.864 111.071 208.705 111.602 208.208 112.171C208.094 111.981 207.406 112.398 207.062 111.184Z" fill="white"/>
<path fill-rule="evenodd" clip-rule="evenodd" d="M214.894 110.16C214.55 108.605 212.564 109.211 211.456 108.643C211.647 109.022 212.181 109.06 212.564 109.249C212.946 109.439 213.862 109.667 214.168 109.856C213.48 109.705 212.22 109.287 211.532 109.136C211.532 109.287 211.647 109.287 211.608 109.439C212.525 109.515 213.557 110.653 214.436 110.387H214.474C214.627 110.349 214.703 110.198 214.856 110.16" fill="white"/>
<path fill-rule="evenodd" clip-rule="evenodd" d="M208.781 110.236C208.705 110.16 208.628 110.122 208.552 110.046C208.361 109.895 208.208 109.629 208.017 109.819C208.246 110.084 208.972 110.805 209.202 111.108C208.896 110.957 208.208 110.198 207.864 110.046C207.864 110.539 208.705 111.601 209.278 111.412L209.431 111.336L209.469 111.26C209.507 111.108 209.507 110.994 209.507 110.843C209.507 110.729 208.781 110.236 208.781 110.236Z" fill="white"/>
<path fill-rule="evenodd" clip-rule="evenodd" d="M209.354 102.157C209.354 102.119 209.316 102.081 209.278 102.081C208.476 102.764 207.903 103.674 207.673 104.698L207.941 104.66C208.285 104.015 208.667 103.409 209.087 102.802C208.819 103.446 208.514 104.053 208.17 104.622H208.437C208.858 103.902 209.775 103.371 209.354 102.157Z" fill="white"/>
<path fill-rule="evenodd" clip-rule="evenodd" d="M208.552 107.467C208.246 107.429 207.903 107.733 207.788 107.505C208.246 107.24 208.896 107.126 208.667 106.367C208.055 106.064 207.673 106.784 207.253 106.822C207.521 106.291 208.323 105.988 208.017 105.116C206.947 105.116 206.986 106.102 206.642 106.216C206.718 106.216 206.756 105.685 206.795 105.609C206.909 105.267 207.215 105.002 207.253 104.661C207.253 104.395 207.215 104.13 207.138 103.902C207.1 103.599 206.909 103.295 206.642 103.105C206.527 104.167 205.687 105.078 205.725 106.253C205.763 107.315 207.062 106.747 207.177 107.809C207.138 108.415 206.756 108.946 206.183 109.174C205.61 109.288 205.075 109.364 204.502 109.401C204.464 109.705 204.426 110.35 204.808 110.577C204.961 110.691 205.152 110.653 205.305 110.501C205.419 110.35 205.458 110.198 205.419 110.008C205.419 109.932 205.419 109.857 205.419 109.781C205.458 109.705 205.496 109.667 205.534 109.591C205.687 109.932 205.61 110.35 205.954 110.539C206.031 110.615 206.145 110.615 206.26 110.615C206.413 110.426 206.565 110.426 206.604 110.16C206.642 109.932 206.222 109.553 206.489 109.326C206.833 110.236 207.253 110.008 207.368 110.16C207.826 109.743 207.215 109.288 207.138 108.984C207.559 109.174 207.826 109.819 208.399 109.288C208.399 109.098 208.399 108.946 208.361 108.757C208.208 108.491 207.788 108.605 207.673 108.302C207.941 108.112 208.285 108.567 208.59 108.491C208.858 108.415 209.049 108.112 208.934 107.846C208.819 107.695 208.705 107.543 208.552 107.467Z" fill="white"/>
<path fill-rule="evenodd" clip-rule="evenodd" d="M202.516 116.455C202.363 116.455 202.287 116.645 202.172 116.683C202.134 117.366 202.134 118.807 202.019 119.452C201.904 118.769 201.904 117.366 201.866 116.683C201.713 116.645 201.675 116.417 201.522 116.455C201.599 117.859 201.102 119.452 201.904 121.007L202.057 121.272L202.21 121.007C202.936 119.452 202.478 117.821 202.516 116.455Z" fill="white"/>
<path fill-rule="evenodd" clip-rule="evenodd" d="M203.853 106.329C204.159 106.329 204.388 106.253 204.464 106.443C203.929 106.329 203.356 106.784 203.28 106.443C203.28 106.746 202.936 106.784 202.86 107.05C202.707 107.505 202.936 108.036 203.394 108.188C203.394 108.188 203.394 108.188 203.433 108.188C203.547 108.226 203.662 108.226 203.777 108.226C203.7 108.453 203.471 108.757 203.165 108.567C203.28 108.681 203.433 108.794 203.547 108.946L202.019 109.439L200.415 108.908C200.453 108.794 200.453 108.643 200.453 108.529C200.453 108.112 200.606 107.695 200.835 107.315C200.644 107.391 200.147 107.391 200.109 107.201C200.873 106.822 200.873 105.571 201.637 105.191C201.331 105.191 201.217 104.888 201.14 104.698C201.79 105.078 204.082 104.281 204.235 105.115C204.273 105.381 204.006 105.457 204.044 105.609C204.197 105.495 204.35 105.381 204.464 105.229C204.884 105.305 205.152 105.722 205.075 106.14C205.037 106.253 204.999 106.367 204.923 106.443C204.693 106.102 204.197 106.064 203.853 106.329ZM202.936 105.229C202.63 105.229 203.051 105.646 203.242 105.609C203.433 105.571 203.585 105.267 203.853 105.419C203.853 105.191 203.356 105.191 202.936 105.229Z" fill="white"/>
<path fill-rule="evenodd" clip-rule="evenodd" d="M204.464 112.892C204.235 112.247 204.159 111.564 204.273 110.919C204.082 110.426 204.006 109.895 204.044 109.364C203.394 109.668 202.707 109.857 202.019 110.009C201.331 109.857 200.644 109.63 199.994 109.364C200.032 109.895 199.956 110.426 199.765 110.919C199.88 111.602 199.803 112.285 199.574 112.892C199.574 112.892 199.192 114.94 200.911 115.547C202.63 116.153 201.408 116.153 203.127 115.547C204.846 114.94 204.426 112.892 204.464 112.892ZM203.28 110.161C203.356 110.388 203.433 110.843 203.547 111.033C203.509 110.768 203.433 110.388 203.394 110.123C203.471 110.123 203.471 109.971 203.509 110.009C203.585 110.54 204.006 111.147 203.624 111.526C203.203 111.147 203.28 110.54 203.165 110.123C203.165 110.123 203.203 110.161 203.28 110.161ZM200.453 110.009C200.491 109.933 200.491 110.085 200.567 110.123C200.529 110.388 200.453 110.768 200.415 111.033C200.529 110.73 200.606 110.464 200.682 110.161C200.758 110.161 200.797 110.123 200.835 110.123C200.72 110.578 200.797 111.147 200.376 111.526C199.994 111.147 200.376 110.54 200.453 110.009ZM200.071 113.954C199.689 113.574 200.071 112.967 200.185 112.436C200.223 112.398 200.223 112.512 200.3 112.55C200.262 112.816 200.185 113.233 200.147 113.46C200.262 113.157 200.338 112.892 200.376 112.588C200.453 112.588 200.453 112.55 200.529 112.55C200.415 113.005 200.491 113.574 200.071 113.954ZM200.758 115.091C200.376 114.712 200.758 114.105 200.873 113.574C200.911 113.536 200.911 113.65 200.988 113.688C200.949 113.954 200.873 114.371 200.835 114.598C200.949 114.295 201.026 114.029 201.102 113.726C201.179 113.726 201.179 113.65 201.255 113.688C201.102 114.105 201.179 114.712 200.758 115.091ZM201.026 112.854C200.644 112.474 201.026 111.867 201.14 111.337C201.179 111.261 201.179 111.412 201.255 111.45C201.217 111.716 201.14 112.133 201.102 112.361C201.217 112.057 201.293 111.792 201.331 111.488C201.408 111.488 201.446 111.45 201.484 111.488C201.37 111.905 201.446 112.512 201.026 112.854ZM202.057 115.395L202.019 115.509L201.943 115.395C201.752 114.902 201.713 114.371 201.79 113.878C201.866 113.878 201.866 113.954 201.904 113.954C201.904 114.257 201.904 114.56 201.981 114.864C202.019 114.56 202.019 114.257 202.057 113.954C202.096 113.954 202.134 113.878 202.21 113.878C202.287 114.371 202.21 114.902 202.057 115.395ZM202.019 113.157L201.981 113.233L201.904 113.157C201.599 112.74 201.79 112.323 201.752 111.981C201.828 111.981 201.828 112.019 201.866 112.057C201.866 112.285 201.904 112.55 201.904 112.778C201.943 112.55 201.943 112.285 201.981 112.057C202.019 112.057 202.057 111.981 202.134 111.981C202.172 112.361 202.325 112.74 202.019 113.157ZM202.019 111.109L201.943 111.147L201.904 111.109C201.599 110.843 201.79 110.578 201.752 110.35C201.828 110.35 201.828 110.388 201.904 110.388C201.904 110.54 201.943 110.73 201.981 110.881C202.019 110.73 202.019 110.578 202.057 110.426C202.096 110.426 202.134 110.388 202.172 110.388C202.172 110.616 202.325 110.881 202.019 111.109ZM202.592 111.526C202.669 111.83 202.745 112.095 202.86 112.398C202.821 112.171 202.745 111.754 202.707 111.488C202.783 111.488 202.783 111.337 202.821 111.374C202.898 111.905 203.318 112.512 202.936 112.892C202.516 112.512 202.592 111.905 202.478 111.488H202.63L202.592 111.526ZM203.165 115.091C202.745 114.712 202.821 114.105 202.707 113.688C202.783 113.688 202.821 113.726 202.86 113.726C202.936 114.029 203.012 114.295 203.089 114.598C203.051 114.371 202.974 113.954 202.936 113.688C203.012 113.688 202.974 113.536 203.051 113.574C203.127 114.105 203.547 114.712 203.165 115.091ZM203.815 113.954C203.394 113.574 203.471 112.967 203.356 112.55C203.433 112.55 203.471 112.588 203.509 112.588C203.585 112.892 203.662 113.195 203.776 113.46C203.738 113.233 203.662 112.816 203.624 112.55C203.7 112.55 203.7 112.398 203.738 112.436C203.815 112.967 204.235 113.574 203.815 113.954Z" fill="white"/>
<path fill-rule="evenodd" clip-rule="evenodd" d="M207.253 117.594C207.559 117.214 207.1 116.949 206.718 116.987C206.795 116.797 207.024 116.721 207.215 116.797C207.215 116.797 207.215 116.797 207.253 116.797C207.291 116.797 207.33 116.835 207.33 116.873C207.33 116.039 206.489 116.304 206.222 116.949C205.763 116.494 205.381 116.001 204.884 115.584C204.999 115.394 205.152 115.28 205.228 115.09C204.846 114.863 204.541 114.484 204.388 114.066L204.273 114.37L203.433 114.066L203.318 114.18C203.853 114.673 203.777 115.508 204.197 116.001C204.388 116.001 204.426 115.735 204.617 115.735C204.999 116.115 205.419 116.456 205.801 116.835C205.801 116.987 205.687 117.101 205.534 117.101C205.457 117.101 205.419 117.063 205.343 117.025C205.114 117.139 204.617 117.518 205.114 117.745C205.075 117.67 205.114 117.594 205.152 117.556C205.649 117.48 206.336 117.025 206.527 117.783C206.489 117.859 206.451 117.935 206.336 117.973C206.718 118.125 206.871 117.518 206.68 117.29C206.947 117.328 207.1 117.442 207.253 117.594Z" fill="white"/>
<path fill-rule="evenodd" clip-rule="evenodd" d="M199.765 114.484L199.612 113.991C199.459 114.446 199.154 114.864 198.734 115.129C198.848 115.319 198.963 115.432 199.077 115.622C198.581 116.001 198.199 116.494 197.702 116.95C197.435 116.305 196.632 116.001 196.594 116.836C196.747 116.684 196.976 116.684 197.129 116.836C197.167 116.874 197.167 116.874 197.205 116.912C196.785 116.874 196.365 117.139 196.632 117.519C196.747 117.443 196.938 117.253 197.129 117.291C196.938 117.556 197.091 118.163 197.473 117.974C197.396 117.974 197.358 117.898 197.282 117.784C197.473 117.025 198.16 117.481 198.657 117.556C198.734 117.594 198.734 117.67 198.695 117.746C199.192 117.556 198.734 117.139 198.504 117.025C198.351 117.177 198.084 117.025 198.046 116.798C198.428 116.419 198.848 116.077 199.23 115.736C199.421 115.736 199.459 115.963 199.65 116.001C200.109 115.47 200.032 114.598 200.606 114.181L200.567 114.143L199.765 114.484Z" fill="white"/>
<path d="M62 129.01L72.5 129L72.5 140.956C72.5 142.846 73.5055 144.595 75.14 145.545V145.545C77.3543 146.834 79.8189 147.632 82.3678 147.887L93.5 149L109.5 149.51L131.124 148.286C134.364 148.102 137.571 147.544 140.682 146.622L147.733 144.533C148.873 144.195 150.097 144.275 151.184 144.758L152.587 145.382C153.508 145.791 154.53 145.912 155.521 145.731L159.5 145L159.5 149L166 149L165.454 147.847C163.469 143.656 166.034 138.728 170.606 137.95L185 135.5L208 133L266.5 129.011L206 177.007L3.49999 177.008L62 129.01Z" fill="#283766"/>
</svg>
