<svg width="304" height="341" viewBox="0 0 304 341" fill="none" xmlns="http://www.w3.org/2000/svg">
<path d="M95.9709 334.243H297.666V336.982C297.666 339.192 295.875 340.982 293.666 340.982H99.971C97.7618 340.982 95.9709 339.192 95.9709 336.982V334.243Z" fill="#2B3B6C"/>
<rect x="91" y="325.301" width="211.306" height="8.73924" rx="4.36962" fill="white" stroke="#2B3B6C" stroke-width="2"/>
<rect x="98.05" y="188.738" width="39.1275" height="132.382" rx="5" fill="white" stroke="#2B3B6C" stroke-width="2" stroke-linecap="round" stroke-linejoin="round"/>
<rect x="139.746" y="188.738" width="39.1275" height="132.382" rx="5" fill="white" stroke="#2B3B6C" stroke-width="2" stroke-linecap="round" stroke-linejoin="round"/>
<ellipse cx="117.481" cy="266.181" rx="7.77659" ry="11.2512" stroke="#2B3B6C" stroke-width="2"/>
<ellipse cx="159.31" cy="266.181" rx="7.77659" ry="11.2512" stroke="#2B3B6C" stroke-width="2"/>
<path d="M97.9565 213.399H136.674" stroke="#2B3B6C" stroke-width="2" stroke-linecap="round" stroke-linejoin="round"/>
<path d="M97.9563 222.003H136.674" stroke="#2B3B6C" stroke-width="2" stroke-linecap="round" stroke-linejoin="round"/>
<path d="M139.951 213.399H178.668" stroke="#2B3B6C" stroke-width="2" stroke-linecap="round" stroke-linejoin="round"/>
<path d="M139.951 222.003H178.669" stroke="#2B3B6C" stroke-width="2" stroke-linecap="round" stroke-linejoin="round"/>
<rect x="181.441" y="188.738" width="39.1275" height="132.382" rx="5" fill="white" stroke="#2B3B6C" stroke-width="2" stroke-linecap="round" stroke-linejoin="round"/>
<ellipse cx="201.005" cy="266.181" rx="7.77659" ry="11.2512" stroke="#2B3B6C" stroke-width="2"/>
<path d="M180.852 213.399H219.57" stroke="#2B3B6C" stroke-width="2" stroke-linecap="round" stroke-linejoin="round"/>
<path d="M180.851 222.003H219.568" stroke="#2B3B6C" stroke-width="2" stroke-linecap="round" stroke-linejoin="round"/>
<rect x="218.709" y="194.963" width="42.3576" height="135.594" rx="5" transform="rotate(-15 218.709 194.963)" fill="#2B3B6C"/>
<ellipse cx="259.632" cy="265.795" rx="7.77659" ry="11.2512" transform="rotate(-15 259.632 265.795)" fill="#2B3B6C" stroke="white" stroke-width="2"/>
<path d="M229.012 219.355L262.624 210.349" stroke="white" stroke-width="2" stroke-linecap="round" stroke-linejoin="round"/>
<path d="M231.24 227.666L264.851 218.66" stroke="white" stroke-width="2" stroke-linecap="round" stroke-linejoin="round"/>
<path fill-rule="evenodd" clip-rule="evenodd" d="M191.867 153.099L142.495 173.285C138.65 174.857 134.411 174.848 130.571 173.26L82.3458 153.313L82.3463 191.67C82.3458 191.706 82.3456 191.742 82.3456 191.778C82.3456 203.595 106.863 213.175 137.106 213.175C167.35 213.175 191.867 203.595 191.867 191.778C191.867 191.766 191.867 191.754 191.867 191.742C191.867 191.718 191.867 191.694 191.867 191.67V153.099Z" fill="#2B3B6C"/>
<path d="M37.8323 181.925C36.185 178.632 34.321 174.353 32.7442 170.549C31.5165 167.588 28.0217 166.935 26.518 169.742C23.8849 174.657 22.1491 180.521 21.2851 184.428C21.0107 185.67 21.2523 187.015 22.1285 187.864C25.8446 191.461 31.5807 190.497 36.0365 188.658C38.4262 187.671 39.0546 184.369 37.8323 181.925Z" fill="white"/>
<path fill-rule="evenodd" clip-rule="evenodd" d="M29.4464 170.258C29.9166 170.328 30.4951 170.707 30.8216 171.494C32.4055 175.315 34.2949 179.655 35.9799 183.024C36.3364 183.736 36.4137 184.571 36.2489 185.253C36.0916 185.905 35.7506 186.319 35.2886 186.51C33.2032 187.371 30.9122 187.984 28.7883 188.003C26.6784 188.021 24.883 187.457 23.53 186.147C23.3789 186.001 23.194 185.608 23.3359 184.966C24.1725 181.182 25.8473 175.552 28.34 170.899C28.6421 170.335 29.0392 170.197 29.4464 170.258ZM30.0228 165.707C27.9998 165.403 25.8977 166.341 24.696 168.584L26.518 169.742M30.0228 165.707C31.9829 166.001 33.7656 167.43 34.6668 169.604ZM24.696 168.584C21.9225 173.761 20.1256 179.859 19.2343 183.891C18.8273 185.731 19.1257 188.03 20.7269 189.58C23.09 191.868 26.0207 192.62 28.8218 192.596C31.6091 192.572 34.414 191.784 36.7843 190.805C40.743 189.171 41.3109 184.078 39.6848 180.827C38.0752 177.608 36.2364 173.391 34.6668 169.604" fill="#2B3B6C"/>
<path fill-rule="evenodd" clip-rule="evenodd" d="M33.2189 164.477C32.3172 163.674 30.9883 163.819 30.2506 164.8C29.5271 165.763 29.1554 167.178 28.9224 168.355C28.6654 169.654 28.4888 171.172 28.3667 172.699C28.1219 175.759 28.0799 179.071 28.1154 181.197C28.1366 182.465 29.098 183.475 30.2628 183.452C31.4276 183.429 32.3546 182.382 32.3335 181.114C32.2999 179.101 32.3409 175.956 32.5695 173.097C32.6841 171.664 32.8417 170.358 33.0465 169.323C33.1488 168.806 33.2551 168.397 33.3583 168.094C33.4557 167.808 33.5209 167.704 33.52 167.704C33.5199 167.704 33.5185 167.706 33.5157 167.709C34.2534 166.728 34.1205 165.281 33.2189 164.477Z" fill="#2B3B6C"/>
<path fill-rule="evenodd" clip-rule="evenodd" d="M30.639 120.14C28.8916 120.14 27.475 121.682 27.475 123.585V161.739C27.475 163.642 28.8916 165.184 30.639 165.184C32.3865 165.184 33.8031 163.642 33.8031 161.739V123.585C33.8031 121.682 32.3865 120.14 30.639 120.14Z" fill="#2B3B6C"/>
<path d="M21.931 163.094C21.931 168.331 25.8298 172.577 30.6391 172.577C35.4484 172.577 39.3472 168.331 39.3472 163.094C39.3472 157.858 35.4484 153.612 30.6391 153.612C25.8298 153.612 21.931 157.858 21.931 163.094Z" fill="#2B3B6C"/>
<path d="M143.111 76.0259L245.352 120.387C247.242 121.207 247.215 124.129 245.311 124.908L142.777 166.829C138.719 168.488 134.245 168.479 130.194 166.803L28.8942 124.905C27.0007 124.122 26.9738 121.215 28.8524 120.391L129.861 76.0547C134.11 74.1897 138.855 74.1794 143.111 76.0259Z" fill="#2B3B6C"/>
<path fill-rule="evenodd" clip-rule="evenodd" d="M59.0292 127.539C58.6298 128.731 59.1932 130.05 60.2876 130.484L132.44 159.157C133.534 159.591 134.745 158.978 135.145 157.786C135.544 156.595 134.981 155.276 133.886 154.841L61.7339 126.169C60.6395 125.734 59.4286 126.348 59.0292 127.539Z" fill="white"/>
<path fill-rule="evenodd" clip-rule="evenodd" d="M228.726 122.222C228.325 121.031 227.113 120.42 226.019 120.857L201.905 130.489C200.812 130.926 200.25 132.245 200.651 133.436C201.053 134.627 202.265 135.238 203.358 134.802L227.472 125.17C228.566 124.733 229.127 123.413 228.726 122.222Z" fill="white"/>
</svg>
