<svg width="441" height="288" viewBox="0 0 441 288" fill="none" xmlns="http://www.w3.org/2000/svg">
<path fill-rule="evenodd" clip-rule="evenodd" d="M118.775 94.7754L88.2112 107.271C85.831 108.245 83.2065 108.239 80.8297 107.256L50.976 94.9083L50.9763 118.653C50.976 118.675 50.9758 118.697 50.9758 118.72C50.9758 126.035 66.1531 131.965 84.8753 131.965C103.597 131.965 118.775 126.035 118.775 118.72C118.775 118.712 118.775 118.705 118.775 118.697C118.775 118.683 118.775 118.668 118.775 118.653V94.7754Z" fill="#2B3B6C"/>
<path d="M23.4201 112.62C22.4003 110.581 21.2463 107.933 20.2703 105.578C19.5102 103.745 17.3468 103.341 16.4159 105.078C14.7859 108.121 13.7114 111.751 13.1765 114.17C13.0066 114.938 13.1562 115.771 13.6986 116.296C15.9991 118.523 19.55 117.927 22.3083 116.788C23.7877 116.177 24.1767 114.133 23.4201 112.62Z" fill="white"/>
<path fill-rule="evenodd" clip-rule="evenodd" d="M18.2287 105.397C18.5198 105.441 18.8779 105.675 19.08 106.163C20.0605 108.528 21.2301 111.215 22.2732 113.3C22.4939 113.741 22.5418 114.258 22.4398 114.68C22.3424 115.084 22.1313 115.34 21.8453 115.458C20.5543 115.991 19.1361 116.371 17.8213 116.382C16.5152 116.394 15.4038 116.044 14.5662 115.234C14.4726 115.143 14.3582 114.9 14.446 114.502C14.9639 112.16 16.0007 108.675 17.5438 105.795C17.7308 105.446 17.9766 105.36 18.2287 105.397ZM18.5855 102.58C17.3332 102.392 16.0319 102.973 15.288 104.362L16.4159 105.078M18.5855 102.58C19.7989 102.763 20.9025 103.647 21.4604 104.993ZM15.288 104.362C13.571 107.566 12.4587 111.341 11.9069 113.837C11.655 114.976 11.8397 116.399 12.8309 117.359C14.2938 118.775 16.1081 119.241 17.8421 119.226C19.5675 119.211 21.3038 118.723 22.7712 118.117C25.2218 117.105 25.5734 113.953 24.5668 111.94C23.5703 109.948 22.432 107.337 21.4604 104.993" fill="#2B3B6C"/>
<path fill-rule="evenodd" clip-rule="evenodd" d="M20.564 101.819C20.0059 101.321 19.1832 101.411 18.7265 102.019C18.2786 102.615 18.0485 103.49 17.9043 104.219C17.7452 105.023 17.6358 105.963 17.5603 106.908C17.4087 108.803 17.3828 110.853 17.4047 112.169C17.4179 112.954 18.013 113.579 18.7341 113.565C19.4551 113.55 20.029 112.902 20.0159 112.117C19.9951 110.871 20.0205 108.924 20.162 107.155C20.233 106.268 20.3306 105.459 20.4573 104.818C20.5207 104.498 20.5865 104.245 20.6503 104.058C20.7106 103.88 20.751 103.816 20.7505 103.816C20.7504 103.816 20.7495 103.817 20.7478 103.819C21.2044 103.212 21.1222 102.316 20.564 101.819Z" fill="#2B3B6C"/>
<path fill-rule="evenodd" clip-rule="evenodd" d="M18.9671 74.3721C17.8853 74.3721 17.0084 75.327 17.0084 76.5049V100.124C17.0084 101.302 17.8853 102.257 18.9671 102.257C20.0488 102.257 20.9258 101.302 20.9258 100.124V76.5049C20.9258 75.327 20.0488 74.3721 18.9671 74.3721Z" fill="#2B3B6C"/>
<path d="M13.5762 100.963C13.5762 104.205 15.9898 106.833 18.967 106.833C21.9442 106.833 24.3577 104.205 24.3577 100.963C24.3577 97.7208 21.9442 95.0928 18.967 95.0928C15.9898 95.0928 13.5762 97.7208 13.5762 100.963Z" fill="#2B3B6C"/>
<path d="M88.5926 47.0636L151.885 74.5252C153.054 75.0327 153.038 76.842 151.859 77.3239L88.3858 103.275C85.8739 104.302 83.1043 104.296 80.596 103.259L17.8869 77.322C16.7147 76.8371 16.698 75.038 17.861 74.5275L80.3902 47.0815C83.0204 45.927 85.9581 45.9206 88.5926 47.0636Z" fill="#2B3B6C"/>
<path fill-rule="evenodd" clip-rule="evenodd" d="M36.542 78.9534C36.2947 79.6911 36.6435 80.5073 37.321 80.7765L81.9868 98.5259C82.6642 98.7951 83.4139 98.4154 83.6611 97.6777C83.9083 96.94 83.5596 96.1237 82.8821 95.8545L38.2163 78.1051C37.5388 77.8359 36.7892 78.2157 36.542 78.9534Z" fill="white"/>
<path fill-rule="evenodd" clip-rule="evenodd" d="M141.592 75.6611C141.344 74.9239 140.594 74.5454 139.917 74.8159L124.989 80.7785C124.312 81.0489 123.964 81.8658 124.213 82.6031C124.461 83.3403 125.211 83.7187 125.888 83.4483L140.816 77.4857C141.493 77.2152 141.841 76.3983 141.592 75.6611Z" fill="white"/>
<path d="M38.0991 212.42H144.717V212.42C144.717 214.387 143.122 215.982 141.154 215.982H41.6615C39.6941 215.982 38.0991 214.387 38.0991 212.42V212.42Z" fill="#2B3B6C"/>
<rect x="35" y="207.222" width="112.641" height="5.56242" rx="2.78121" fill="white" stroke="#2B3B6C" stroke-width="2"/>
<rect x="38.7267" y="135.033" width="21.6259" height="70.921" rx="5" fill="white" stroke="#2B3B6C" stroke-width="2" stroke-linecap="round" stroke-linejoin="round"/>
<rect x="60.7675" y="135.033" width="21.6259" height="70.921" rx="5" fill="white" stroke="#2B3B6C" stroke-width="2" stroke-linecap="round" stroke-linejoin="round"/>
<ellipse cx="49.4693" cy="176.442" rx="4.11077" ry="5.9475" stroke="#2B3B6C" stroke-width="2"/>
<ellipse cx="71.5805" cy="176.442" rx="4.11077" ry="5.9475" stroke="#2B3B6C" stroke-width="2"/>
<path d="M39.1488 148.541H59.6152" stroke="#2B3B6C" stroke-width="2" stroke-linecap="round" stroke-linejoin="round"/>
<path d="M39.1486 153.089H59.6149" stroke="#2B3B6C" stroke-width="2" stroke-linecap="round" stroke-linejoin="round"/>
<path d="M61.3473 148.541H81.8137" stroke="#2B3B6C" stroke-width="2" stroke-linecap="round" stroke-linejoin="round"/>
<path d="M61.3474 153.089H81.8138" stroke="#2B3B6C" stroke-width="2" stroke-linecap="round" stroke-linejoin="round"/>
<rect x="82.8081" y="135.033" width="21.6259" height="70.921" rx="5" fill="white" stroke="#2B3B6C" stroke-width="2" stroke-linecap="round" stroke-linejoin="round"/>
<ellipse cx="93.621" cy="176.442" rx="4.11077" ry="5.9475" stroke="#2B3B6C" stroke-width="2"/>
<path d="M82.9686 148.541H103.435" stroke="#2B3B6C" stroke-width="2" stroke-linecap="round" stroke-linejoin="round"/>
<path d="M82.9673 153.089H103.434" stroke="#2B3B6C" stroke-width="2" stroke-linecap="round" stroke-linejoin="round"/>
<rect x="102.979" y="138.795" width="22.3906" height="71.6761" rx="5" transform="rotate(-15 102.979 138.795)" fill="#2B3B6C"/>
<ellipse cx="124.612" cy="176.238" rx="4.11077" ry="5.9475" transform="rotate(-15 124.612 176.238)" fill="#2B3B6C" stroke="white" stroke-width="2"/>
<path d="M108.426 151.689L126.193 146.929" stroke="white" stroke-width="2" stroke-linecap="round" stroke-linejoin="round"/>
<path d="M109.603 156.082L127.37 151.321" stroke="white" stroke-width="2" stroke-linecap="round" stroke-linejoin="round"/>
<path d="M291.459 35.1466C291.459 32.0685 293.954 29.5732 297.032 29.5732H301.68C304.758 29.5732 307.253 32.0685 307.253 35.1466V81.6264C307.253 84.7045 304.758 87.1997 301.68 87.1997H297.032C293.954 87.1997 291.459 84.7045 291.459 81.6264V35.1466Z" fill="white"/>
<path fill-rule="evenodd" clip-rule="evenodd" d="M297.032 24H301.68C307.836 24 312.826 28.9905 312.826 35.1466V81.6265C312.826 87.7826 307.836 92.7731 301.68 92.7731H297.032C290.876 92.7731 285.886 87.7826 285.886 81.6265V35.1466C285.886 28.9905 290.876 24 297.032 24ZM297.032 29.5733C293.954 29.5733 291.459 32.0686 291.459 35.1466V81.6265C291.459 84.7045 293.954 87.1998 297.032 87.1998H301.68C304.758 87.1998 307.253 84.7045 307.253 81.6265V35.1466C307.253 32.0686 304.758 29.5733 301.68 29.5733H297.032Z" fill="#2B3B6C"/>
<path d="M336.002 164.818L362.782 276.374C364.058 281.866 359.888 287.116 354.249 287.116H353.048C349.327 287.116 346.012 284.765 344.781 281.252L305.543 169.697C303.547 164.001 307.775 158.04 313.81 158.04H327.469C331.543 158.04 335.08 160.849 336.002 164.818Z" fill="#2B3B6C"/>
<path d="M256.018 164.818L229.237 276.374C227.962 281.866 232.132 287.116 237.77 287.116H238.971C242.693 287.116 246.008 284.765 247.239 281.252L286.477 169.697C288.472 164.001 284.245 158.04 278.209 158.04H264.551C260.476 158.04 256.94 160.849 256.018 164.818Z" fill="#2B3B6C"/>
<path d="M284.535 161.727L288.256 271.939C288.46 276.466 292.189 280.031 296.72 280.031C301.179 280.031 304.874 276.576 305.174 272.128L312.019 161.974C312.449 155.591 307.388 150.178 300.991 150.178H295.577C289.278 150.178 284.253 155.434 284.535 161.727Z" fill="#2B3B6C"/>
<path d="M172.684 58.9932C172.684 55.9152 175.179 53.4199 178.258 53.4199H414.905C417.983 53.4199 420.478 55.9152 420.478 58.9932V201.517C420.478 204.595 417.983 207.091 414.905 207.091H178.258C175.179 207.091 172.684 204.595 172.684 201.517V58.9932Z" fill="white"/>
<path fill-rule="evenodd" clip-rule="evenodd" d="M178.258 47.8467H414.905C421.061 47.8467 426.051 52.8372 426.051 58.9933V201.517C426.051 207.673 421.061 212.664 414.905 212.664H178.258C172.101 212.664 167.111 207.673 167.111 201.517V58.9933C167.111 52.8372 172.101 47.8467 178.258 47.8467ZM178.258 53.42C175.18 53.42 172.684 55.9153 172.684 58.9933V201.517C172.684 204.595 175.18 207.091 178.258 207.091H414.905C417.983 207.091 420.478 204.595 420.478 201.517V58.9933C420.478 55.9153 417.983 53.42 414.905 53.42H178.258Z" fill="#2B3B6C"/>
<path d="M201.817 199.004C201.817 195.926 204.312 193.431 207.39 193.431H230.82C233.898 193.431 236.393 195.926 236.393 199.004V201.517C236.393 204.595 233.898 207.09 230.82 207.09H207.39C204.312 207.09 201.817 204.595 201.817 201.517V199.004Z" fill="#2B3B6C"/>
<path d="M164.573 48.0858C164.573 45.1389 166.962 42.75 169.909 42.75H429.122C432.068 42.75 434.457 45.1389 434.457 48.0858V48.0858C434.457 51.0327 432.068 53.4216 429.122 53.4216H169.909C166.962 53.4216 164.573 51.0327 164.573 48.0858V48.0858Z" fill="white"/>
<path fill-rule="evenodd" clip-rule="evenodd" d="M169.909 37.1768H429.122C435.146 37.1768 440.031 42.0609 440.031 48.0859C440.031 54.1108 435.146 58.995 429.122 58.995H169.909C163.884 58.995 159 54.1108 159 48.0859C159 42.0609 163.884 37.1768 169.909 37.1768ZM169.909 42.7501C166.962 42.7501 164.573 45.139 164.573 48.0859C164.573 51.0327 166.962 53.4216 169.909 53.4216H429.122C432.068 53.4216 434.457 51.0327 434.457 48.0859C434.457 45.139 432.068 42.7501 429.122 42.7501H169.909Z" fill="#2B3B6C"/>
<path d="M164.573 212.429C164.573 209.482 166.962 207.093 169.909 207.093H429.122C432.068 207.093 434.457 209.482 434.457 212.429V212.429C434.457 215.375 432.068 217.764 429.122 217.764H169.909C166.962 217.764 164.573 215.375 164.573 212.429V212.429Z" fill="white"/>
<path fill-rule="evenodd" clip-rule="evenodd" d="M169.909 201.52H429.122C435.146 201.52 440.031 206.404 440.031 212.429C440.031 218.454 435.146 223.338 429.122 223.338H169.909C163.884 223.338 159 218.454 159 212.429C159 206.404 163.884 201.52 169.909 201.52ZM169.909 207.093C166.962 207.093 164.573 209.482 164.573 212.429C164.573 215.376 166.962 217.764 169.909 217.764H429.122C432.068 217.764 434.457 215.376 434.457 212.429C434.457 209.482 432.068 207.093 429.122 207.093H169.909Z" fill="#2B3B6C"/>
<g clip-path="url(#clip0)">
<path fill-rule="evenodd" clip-rule="evenodd" d="M264.117 86.4252C264.533 89.5955 265.918 98.6926 266.887 102.001C267.441 101.587 267.857 101.036 268.272 100.484C266.887 94.4197 266.333 88.3549 266.333 82.1523C257.608 85.7361 263.563 100.071 265.918 105.584C266.333 104.895 266.333 104.206 266.195 103.517C265.225 99.7953 262.594 90.1468 263.979 86.4252" fill="#283766"/>
<path fill-rule="evenodd" clip-rule="evenodd" d="M259.27 111.371C258.024 108.752 254.285 103.514 252.761 101.033C255.116 103.1 258.855 109.027 261.625 112.06C261.763 109.441 260.378 107.787 258.855 105.581C257.054 102.273 254.562 99.5167 251.515 97.4492H251.238C249.714 102.825 253.454 106.546 256.5 109.441C257.331 110.406 258.024 111.784 259.27 111.371Z" fill="#283766"/>
<path fill-rule="evenodd" clip-rule="evenodd" d="M269.934 102.827C265.779 105.446 268.134 112.338 269.657 115.37C270.765 112.889 269.103 109.168 268.965 106.824C269.657 107.651 270.073 110.822 271.042 111.649C271.042 111.235 271.319 110.959 271.596 110.684C270.488 108.203 269.934 105.584 269.934 102.827Z" fill="#283766"/>
<path fill-rule="evenodd" clip-rule="evenodd" d="M249.576 106.687C251.792 108.479 255.531 111.925 257.608 113.854C258.024 113.716 257.747 112.889 258.024 112.338C253.869 109.719 252.761 104.895 247.222 103.517C247.36 110.271 253.315 112.889 257.193 116.749C257.747 116.611 258.301 116.611 258.855 116.749C256.5 113.716 252.069 109.719 249.576 106.687Z" fill="#283766"/>
<path fill-rule="evenodd" clip-rule="evenodd" d="M244.452 110.131C244.729 116.609 251.376 118.125 256.5 120.882C255.116 117.987 249.16 115.231 246.945 112.888C249.022 113.99 253.177 116.885 255.116 117.987C255.531 117.987 255.531 117.436 256.085 117.023C252.346 114.817 250.13 110.544 244.452 110.131Z" fill="#283766"/>
<path fill-rule="evenodd" clip-rule="evenodd" d="M257.47 119.781C257.47 123.089 261.348 123.64 264.118 125.156C264.395 123.089 259.963 122.262 259.27 120.883C261.071 121.297 264.395 123.916 266.195 123.226C263.841 121.986 260.932 118.127 257.47 119.781Z" fill="#283766"/>
<path fill-rule="evenodd" clip-rule="evenodd" d="M242.236 117.85C243.067 122.812 250.13 123.225 254.7 125.43C255.393 125.43 254.285 124.603 254.423 124.052C252.207 123.087 248.468 121.433 246.391 120.331C249.161 121.02 251.93 121.985 254.7 123.087C254.977 122.674 255.67 122.674 255.808 121.985C251.653 120.468 247.499 116.747 242.236 117.85Z" fill="#283766"/>
<path fill-rule="evenodd" clip-rule="evenodd" d="M259.27 124.189C258.162 123.638 256.777 124.052 256.224 125.154C256.639 127.911 262.04 127.635 264.118 128.738C264.118 128.6 264.256 128.324 264.533 128.324C262.456 127.36 260.378 126.395 258.162 125.706C260.24 125.981 262.179 126.395 264.256 127.222C264.671 126.946 264.256 126.257 264.118 125.981C262.456 125.43 260.932 124.879 259.27 124.189Z" fill="#283766"/>
<path fill-rule="evenodd" clip-rule="evenodd" d="M241.959 124.604C242.374 128.188 247.083 128.325 251.653 128.739C252.761 128.739 254.423 129.566 254.423 128.05C252.207 127.636 248.053 126.671 245.975 126.12C248.191 125.844 253.592 127.636 255.531 127.085C251.93 126.258 244.729 121.709 241.959 124.604Z" fill="#283766"/>
<path fill-rule="evenodd" clip-rule="evenodd" d="M256.362 129.704C257.055 132.46 260.794 131.633 263.148 131.22C262.733 130.255 258.716 130.255 257.747 129.704C258.578 129.014 263.01 130.668 263.425 129.29C260.932 128.739 257.331 127.085 256.362 129.704Z" fill="#283766"/>
<path fill-rule="evenodd" clip-rule="evenodd" d="M242.236 132.597C246.391 135.63 251.653 132.322 255.947 132.046C255.393 130.806 253.454 131.357 252.069 131.495C250.684 131.633 247.637 131.908 246.252 131.908C249.022 131.357 251.792 130.943 254.562 130.668C254.562 130.392 254.423 130.254 254.146 130.116C249.714 129.703 243.621 128.6 242.236 132.597Z" fill="#283766"/>
<path fill-rule="evenodd" clip-rule="evenodd" d="M257.885 135.495C260.101 137.011 261.348 135.908 263.148 134.806C264.117 134.254 265.364 133.841 265.502 133.152C264.117 133.427 260.794 134.254 259.409 134.53C259.547 133.979 263.148 132.876 263.84 132.6C263.84 132.325 263.702 132.325 263.84 132.187C261.486 131.911 258.024 131.911 257.885 135.495Z" fill="#283766"/>
<path fill-rule="evenodd" clip-rule="evenodd" d="M250.545 142.799C252.346 140.732 256.085 139.078 258.162 137.286C256.362 136.597 254.008 138.251 252.069 139.353C250.13 140.456 247.083 141.421 247.637 144.591C249.991 146.796 251.93 144.315 254.008 142.937C255.67 141.834 258.162 140.87 257.885 139.078C255.67 139.629 252.623 141.834 250.545 142.799Z" fill="#283766"/>
<path fill-rule="evenodd" clip-rule="evenodd" d="M276.582 141.697C276.166 141.697 275.889 141.697 275.474 141.834C274.781 142.799 274.089 146.245 273.535 147.21C273.119 146.107 274.92 142.11 274.089 141.421C272.842 143.351 270.488 147.072 273.119 148.588C275.751 148.313 276.166 145.005 276.582 141.697Z" fill="#283766"/>
<path fill-rule="evenodd" clip-rule="evenodd" d="M280.321 142.11C279.906 142.11 279.629 142.248 279.213 142.386C278.798 143.351 278.659 146.797 278.244 147.899C277.69 146.935 278.798 142.662 277.828 142.11C276.997 144.178 275.335 148.313 278.105 149.278C280.736 148.589 280.598 145.281 280.321 142.11Z" fill="#283766"/>
<path fill-rule="evenodd" clip-rule="evenodd" d="M254.977 147.072C255.67 145.28 258.855 142.937 259.963 141.145C259.686 141.007 259.409 141.007 259.27 140.731C257.608 142.661 251.099 144.729 252.761 148.864C253.177 149.002 253.731 149.139 254.285 149.277C255.531 149.691 256.362 148.726 257.193 147.899C258.024 147.072 258.855 145.969 259.686 145.004C260.101 144.453 260.655 143.902 261.209 143.488C260.932 143.075 261.209 141.834 260.655 142.11C258.855 143.902 256.916 145.556 254.977 147.072Z" fill="#283766"/>
<path fill-rule="evenodd" clip-rule="evenodd" d="M263.425 141.007C262.871 141.42 263.287 142.385 263.287 142.799C263.84 142.385 263.425 141.558 263.425 141.007Z" fill="#283766"/>
<path fill-rule="evenodd" clip-rule="evenodd" d="M264.395 144.866C263.564 146.52 262.456 148.174 261.071 149.415C261.486 147.623 262.871 146.107 263.287 144.315L261.625 144.039C260.655 146.244 257.47 148.725 259.686 151.069C259.963 151.482 260.794 151.344 261.209 151.344C261.763 151.344 262.317 150.931 262.594 150.379C263.425 149.001 264.118 147.485 264.948 145.969C264.81 145.417 264.671 144.866 264.256 144.59" fill="#283766"/>
<path fill-rule="evenodd" clip-rule="evenodd" d="M258.162 89.8691C252.069 95.2447 259.547 104.342 262.456 108.201C262.871 106.547 261.209 104.755 260.655 103.377C260.101 101.999 258.439 97.4501 257.885 95.9339C259.963 98.6906 262.456 106.547 265.918 108.615C264.81 106.134 263.702 103.515 262.456 100.758C261.902 99.5176 258.855 92.488 258.162 89.8691Z" fill="#283766"/>
<path fill-rule="evenodd" clip-rule="evenodd" d="M261.348 116.195C263.148 117.435 264.948 118.676 266.61 120.192C266.472 117.987 263.84 115.781 262.871 115.092C262.871 115.092 260.655 113.576 259.824 114.403C259.132 119.365 263.979 120.192 266.472 122.673C266.61 120.468 262.179 117.987 261.348 116.195Z" fill="#283766"/>
<path fill-rule="evenodd" clip-rule="evenodd" d="M261.348 138.94C263.84 140.732 265.502 137.975 266.887 136.735C265.502 135.77 263.702 137.699 262.594 138.113C262.594 136.872 266.056 136.459 265.641 134.667C264.117 135.494 260.655 136.459 261.348 138.94Z" fill="#283766"/>
<path fill-rule="evenodd" clip-rule="evenodd" d="M272.15 142.524C272.427 141.284 273.396 140.87 272.704 139.905C271.319 140.319 270.211 144.04 268.826 144.73C269.519 143.213 270.211 141.559 271.042 140.181C270.488 140.319 270.211 140.457 269.796 140.043C269.242 142.111 266.195 144.04 267.995 146.108C268.411 145.419 270.765 146.935 272.15 142.524Z" fill="#283766"/>
<path fill-rule="evenodd" clip-rule="evenodd" d="M243.759 138.801C245.006 133.149 252.207 135.355 256.362 133.287C255.669 134.665 253.731 134.803 252.207 135.492C250.684 136.182 247.499 137.009 246.391 137.698C248.883 137.147 253.315 135.63 255.808 135.217C255.808 135.768 255.393 135.768 255.531 136.319C252.207 136.595 248.468 140.73 245.283 139.765H245.144C244.452 139.628 244.313 139.076 243.759 138.938" fill="#283766"/>
<path fill-rule="evenodd" clip-rule="evenodd" d="M266.056 139.076L266.887 138.386C267.58 137.835 268.134 136.87 268.826 137.559C267.995 138.524 265.364 141.143 264.533 142.246C265.641 141.694 268.134 138.938 269.38 138.386C269.38 140.178 266.333 144.038 264.256 143.349L263.702 143.073L263.564 142.797C263.425 142.246 263.425 141.832 263.425 141.281C263.425 140.867 266.056 139.076 266.056 139.076Z" fill="#283766"/>
<path fill-rule="evenodd" clip-rule="evenodd" d="M263.702 109.717C263.702 109.579 263.979 109.441 263.979 109.441C266.887 111.922 268.965 115.23 269.796 118.952L268.826 118.814C267.58 116.471 266.195 114.266 264.671 112.06C265.641 114.266 266.749 116.471 267.995 118.676H267.026C265.641 115.92 262.179 114.128 263.702 109.717Z" fill="#283766"/>
<path fill-rule="evenodd" clip-rule="evenodd" d="M266.887 129.015C267.995 128.877 269.242 129.98 269.657 129.153C267.995 128.188 265.641 127.775 266.333 125.018C268.549 123.915 270.073 126.534 271.458 126.672C270.488 124.742 267.58 123.64 268.549 120.469C272.427 120.469 272.427 124.053 273.535 124.467C273.258 124.467 273.119 122.537 272.981 122.261C272.565 121.021 271.458 120.056 271.319 118.815C271.319 117.85 271.458 116.886 271.735 116.059C271.873 114.956 272.565 113.853 273.535 113.164C273.95 117.023 276.997 120.332 276.859 124.604C276.72 128.464 272.012 126.396 271.596 130.256C271.735 132.461 273.119 134.391 275.197 135.218C277.274 135.631 279.213 135.907 281.29 136.045C281.429 137.147 281.567 139.491 280.183 140.318C279.629 140.731 278.936 140.593 278.382 140.042C277.967 139.491 277.828 138.939 277.967 138.25C277.967 137.974 277.967 137.699 277.967 137.423C277.828 137.147 277.69 137.01 277.551 136.734C276.997 137.974 277.274 139.491 276.028 140.18C275.751 140.455 275.335 140.455 274.92 140.455C274.366 139.766 273.812 139.766 273.673 138.801C273.673 137.974 275.058 136.596 274.089 135.769C272.842 139.077 271.319 138.25 270.904 138.801C269.242 137.285 271.458 135.631 271.735 134.529C270.211 135.218 269.242 137.561 267.303 135.631C267.303 134.942 267.303 134.391 267.441 133.702C267.995 132.737 269.519 133.15 269.934 132.048C268.965 131.358 267.718 133.012 266.61 132.737C265.641 132.461 264.948 131.358 265.364 130.393C265.779 129.842 266.333 129.291 266.887 129.015Z" fill="#283766"/>
<path fill-rule="evenodd" clip-rule="evenodd" d="M316.883 86.4252C316.467 89.5955 315.082 98.6926 314.113 102.001C313.559 101.587 313.143 101.036 312.728 100.484C314.113 94.4197 314.667 88.3549 314.667 82.1523C323.392 85.7361 317.437 100.071 315.082 105.584C314.805 104.895 314.667 104.206 314.805 103.517C315.775 99.7953 318.406 90.1468 317.021 86.4252" fill="#283766"/>
<path fill-rule="evenodd" clip-rule="evenodd" d="M321.591 111.371C322.838 108.752 326.716 103.514 328.1 101.033C325.746 103.1 322.007 109.027 319.237 112.06C319.099 109.441 320.483 107.787 322.007 105.581C323.807 102.273 326.3 99.5167 329.347 97.4492H329.624C331.147 102.825 327.408 106.546 324.361 109.441C323.669 110.268 322.976 111.784 321.591 111.371Z" fill="#283766"/>
<path fill-rule="evenodd" clip-rule="evenodd" d="M311.204 102.827C315.359 105.446 312.866 112.338 311.343 115.37C310.235 112.889 311.897 109.168 312.035 106.824C311.343 107.651 310.927 110.822 310.096 111.649C310.096 111.235 309.819 110.959 309.542 110.684C310.373 108.203 311.066 105.584 311.204 102.827Z" fill="#283766"/>
<path fill-rule="evenodd" clip-rule="evenodd" d="M331.285 106.687C329.07 108.479 325.33 111.925 323.253 113.854C322.838 113.716 323.115 112.889 322.838 112.338C326.992 109.719 328.1 104.895 333.64 103.517C333.501 110.271 327.546 112.889 323.668 116.749C323.115 116.611 322.561 116.611 322.007 116.749C324.499 113.716 328.931 109.719 331.285 106.687Z" fill="#283766"/>
<path fill-rule="evenodd" clip-rule="evenodd" d="M336.548 110.131C336.271 116.609 329.624 118.125 324.5 120.882C325.884 117.987 331.84 115.231 333.917 112.888C331.84 113.99 327.685 116.885 325.607 117.85C325.33 117.85 325.192 117.298 324.776 116.885C328.654 114.817 330.732 110.544 336.548 110.131Z" fill="#283766"/>
<path fill-rule="evenodd" clip-rule="evenodd" d="M323.53 119.781C323.53 123.089 319.652 123.64 316.883 125.156C316.606 123.089 321.176 122.262 321.73 120.883C319.929 121.297 316.606 123.916 314.805 123.226C317.16 121.986 320.068 118.127 323.53 119.781Z" fill="#283766"/>
<path fill-rule="evenodd" clip-rule="evenodd" d="M338.903 117.85C338.072 122.812 331.009 123.225 326.438 125.43C325.746 125.43 326.854 124.603 326.715 124.052C328.931 123.087 332.67 121.433 334.748 120.331C331.978 121.02 329.208 121.985 326.438 123.087C326.161 122.674 325.469 122.674 325.33 121.985C329.485 120.468 333.64 116.747 338.903 117.85Z" fill="#283766"/>
<path fill-rule="evenodd" clip-rule="evenodd" d="M282.675 164.024C281.429 162.508 283.091 160.44 283.645 158.51C283.783 158.373 283.783 158.924 284.06 158.924C283.645 159.889 283.368 161.267 283.091 162.232C283.506 161.267 283.922 160.164 284.337 159.2C284.614 159.2 284.753 159.062 284.891 159.2C284.337 160.716 284.337 162.783 282.675 164.024Z" fill="#283766"/>
<path fill-rule="evenodd" clip-rule="evenodd" d="M284.476 172.296C287.245 171.469 286.968 165.128 287.799 160.855C287.799 160.304 287.384 161.269 287.107 161.131C286.691 163.199 285.999 166.507 285.583 168.436C285.583 166.644 286.276 162.785 286.553 160.993C286.276 160.718 286.276 160.166 285.86 160.028C285.168 163.75 283.368 167.609 284.476 172.296Z" fill="#283766"/>
<path fill-rule="evenodd" clip-rule="evenodd" d="M298.325 164.024C299.571 162.508 297.909 160.44 297.355 158.51C297.217 158.373 297.217 158.924 296.94 158.924C297.217 159.751 297.632 161.267 297.909 162.094C297.494 161.129 297.078 160.027 296.663 159.062C296.386 159.062 296.247 158.924 296.109 159.062C296.663 160.716 296.663 162.783 298.325 164.024Z" fill="#283766"/>
<path fill-rule="evenodd" clip-rule="evenodd" d="M296.663 172.296C293.893 171.469 294.17 165.128 293.339 160.855C293.339 160.304 293.755 161.269 294.032 161.131C294.447 163.199 295.139 166.507 295.555 168.436C295.555 166.644 294.863 162.785 294.586 160.993C294.863 160.718 294.863 160.166 295.278 160.028C295.832 163.75 297.632 167.609 296.663 172.296Z" fill="#283766"/>
<path fill-rule="evenodd" clip-rule="evenodd" d="M321.591 124.189C322.699 123.638 324.084 124.052 324.638 125.154C324.223 127.911 318.821 127.635 316.744 128.738C316.744 128.6 316.606 128.324 316.329 128.324C318.406 127.36 320.483 126.395 322.699 125.706C320.622 125.981 318.544 126.395 316.606 127.222C316.19 126.946 316.606 126.257 316.744 125.981C318.406 125.43 320.068 124.879 321.591 124.189Z" fill="#283766"/>
<path fill-rule="evenodd" clip-rule="evenodd" d="M338.903 124.604C338.487 128.188 333.778 128.325 329.208 128.739C328.1 128.739 326.438 129.566 326.438 128.05C328.654 127.636 332.809 126.671 334.886 126.12C332.67 125.844 327.269 127.636 325.33 127.085C329.07 126.258 336.271 121.709 338.903 124.604Z" fill="#283766"/>
<path fill-rule="evenodd" clip-rule="evenodd" d="M324.638 129.704C323.946 132.46 320.206 131.633 317.852 131.22C318.267 130.255 322.284 130.255 323.253 129.704C322.422 129.014 317.99 130.668 317.714 129.29C320.068 128.739 323.669 127.085 324.638 129.704Z" fill="#283766"/>
<path fill-rule="evenodd" clip-rule="evenodd" d="M338.764 132.597C334.609 135.63 329.347 132.322 325.192 132.046C325.746 130.806 327.685 131.357 329.07 131.495C330.455 131.633 333.501 131.908 334.886 131.908C332.116 131.357 329.347 130.943 326.577 130.668C326.577 130.392 326.715 130.254 326.992 130.116C331.285 129.703 337.379 128.6 338.764 132.597Z" fill="#283766"/>
<path fill-rule="evenodd" clip-rule="evenodd" d="M323.115 135.495C320.899 137.011 319.652 135.908 317.852 134.806C316.882 134.254 315.636 133.841 315.498 133.152C316.882 133.427 320.206 134.254 321.591 134.53C321.453 133.979 317.852 132.876 317.159 132.6C317.159 132.325 317.298 132.325 317.159 132.187C319.514 131.911 322.976 131.911 323.115 135.495Z" fill="#283766"/>
<path fill-rule="evenodd" clip-rule="evenodd" d="M330.316 142.799C328.516 140.732 324.776 139.078 322.699 137.286C324.499 136.597 326.854 138.251 328.793 139.353C330.732 140.456 333.778 141.421 333.224 144.453C330.87 146.659 328.931 144.178 326.854 142.799C325.192 141.697 322.699 140.732 322.976 138.94C325.33 139.491 328.377 141.697 330.316 142.799Z" fill="#283766"/>
<path fill-rule="evenodd" clip-rule="evenodd" d="M304.418 141.697C304.834 141.697 305.111 141.697 305.526 141.834C306.08 142.799 306.911 146.245 307.465 147.21C307.881 146.107 306.08 142.11 306.911 141.421C308.158 143.351 310.512 147.072 307.881 148.588C305.249 148.313 304.834 145.005 304.418 141.697Z" fill="#283766"/>
<path fill-rule="evenodd" clip-rule="evenodd" d="M300.541 142.11C300.956 142.11 301.233 142.248 301.649 142.386C302.064 143.351 302.202 146.797 302.618 147.899C303.172 146.935 302.064 142.662 303.033 142.11C303.864 144.178 305.526 148.313 302.756 149.278C300.264 148.589 300.402 145.281 300.541 142.11Z" fill="#283766"/>
<path fill-rule="evenodd" clip-rule="evenodd" d="M326.161 147.072C325.469 145.28 322.284 142.937 321.176 141.145C321.453 141.007 321.73 141.007 321.868 140.731C323.53 142.661 330.039 144.729 328.377 148.864C327.962 149.002 327.408 149.139 326.854 149.277C325.607 149.691 324.777 148.726 323.946 147.899C323.115 147.072 322.284 145.969 321.453 145.004C321.037 144.453 320.483 143.902 319.929 143.488C320.206 143.075 319.929 141.834 320.483 142.11C322.145 143.902 324.084 145.556 326.161 147.072Z" fill="#283766"/>
<path fill-rule="evenodd" clip-rule="evenodd" d="M317.437 141.007C317.991 141.42 317.575 142.385 317.575 142.799C317.021 142.385 317.575 141.558 317.437 141.007Z" fill="#283766"/>
<path fill-rule="evenodd" clip-rule="evenodd" d="M316.467 144.866C317.298 146.52 318.406 148.174 319.791 149.415C319.375 147.623 317.99 146.107 317.575 144.315L319.237 144.039C320.206 146.244 323.392 148.725 321.176 151.069C320.899 151.482 320.068 151.344 319.652 151.344C319.098 151.344 318.544 150.931 318.267 150.379C317.436 149.001 316.744 147.485 315.913 145.969C316.052 145.417 316.19 144.866 316.606 144.59" fill="#283766"/>
<path fill-rule="evenodd" clip-rule="evenodd" d="M322.838 89.8691C328.931 95.2447 321.453 104.342 318.544 108.201C318.129 106.547 319.791 104.755 320.345 103.377C320.899 101.999 322.561 97.4501 323.115 95.9339C321.037 98.6906 318.544 106.547 315.082 108.615C316.19 106.134 317.298 103.515 318.544 100.758C319.098 99.5176 322.145 92.488 322.838 89.8691Z" fill="#283766"/>
<path fill-rule="evenodd" clip-rule="evenodd" d="M319.652 116.195C317.852 117.435 316.052 118.676 314.39 120.192C314.528 117.987 317.159 115.781 318.129 115.092C318.129 115.092 320.345 113.576 321.314 114.403C322.007 119.365 317.159 120.192 314.528 122.673C314.113 120.468 318.683 117.987 319.652 116.195Z" fill="#283766"/>
<path fill-rule="evenodd" clip-rule="evenodd" d="M319.652 138.94C317.16 140.732 315.498 137.975 314.113 136.735C315.498 135.77 317.298 137.699 318.406 138.113C318.406 136.872 314.944 136.459 315.359 134.667C316.883 135.494 320.206 136.459 319.652 138.94Z" fill="#283766"/>
<path fill-rule="evenodd" clip-rule="evenodd" d="M308.85 142.524C308.573 141.284 307.604 140.87 308.296 139.905C309.681 140.319 310.789 144.04 312.174 144.73C311.481 143.213 310.789 141.697 309.958 140.181C310.512 140.319 310.789 140.457 311.204 140.043C311.758 142.111 314.805 144.04 313.005 146.108C312.589 145.419 310.096 146.935 308.85 142.524Z" fill="#283766"/>
<path fill-rule="evenodd" clip-rule="evenodd" d="M337.241 138.801C335.994 133.149 328.793 135.355 324.776 133.287C325.469 134.665 327.408 134.803 328.793 135.492C330.178 136.182 333.501 137.009 334.609 137.698C332.117 137.146 327.546 135.63 325.053 135.079C325.053 135.63 325.469 135.63 325.33 136.182C328.654 136.457 332.393 140.592 335.579 139.628H335.717C336.271 139.49 336.548 138.938 337.102 138.801" fill="#283766"/>
<path fill-rule="evenodd" clip-rule="evenodd" d="M315.082 139.076C314.805 138.8 314.528 138.662 314.251 138.386C313.559 137.835 313.005 136.87 312.312 137.559C313.143 138.524 315.775 141.143 316.606 142.246C315.498 141.694 313.005 138.938 311.758 138.386C311.758 140.178 314.805 144.038 316.883 143.349L317.437 143.073L317.575 142.797C317.714 142.246 317.714 141.832 317.714 141.281C317.714 140.867 315.082 139.076 315.082 139.076Z" fill="#283766"/>
<path fill-rule="evenodd" clip-rule="evenodd" d="M317.16 109.717C317.16 109.579 317.021 109.441 316.883 109.441C313.974 111.922 311.897 115.23 311.066 118.952L312.035 118.814C313.282 116.471 314.667 114.266 316.19 112.06C315.221 114.403 314.113 116.609 312.866 118.676H313.836C315.359 116.057 318.683 114.128 317.16 109.717Z" fill="#283766"/>
<path fill-rule="evenodd" clip-rule="evenodd" d="M314.251 129.015C313.143 128.877 311.897 129.98 311.481 129.153C313.143 128.188 315.498 127.775 314.667 125.018C312.451 123.915 311.066 126.534 309.543 126.672C310.512 124.742 313.42 123.64 312.312 120.469C308.435 120.469 308.573 124.053 307.327 124.467C307.604 124.467 307.742 122.537 307.881 122.261C308.296 121.021 309.404 120.056 309.543 118.815C309.543 117.85 309.404 116.886 309.127 116.059C308.989 114.956 308.296 113.853 307.327 113.164C306.911 117.023 303.864 120.332 304.003 124.604C304.141 128.464 308.85 126.396 309.266 130.256C309.127 132.461 307.742 134.391 305.665 135.218C303.587 135.631 301.649 135.907 299.571 136.045C299.433 137.147 299.294 139.491 300.679 140.318C301.233 140.731 301.926 140.593 302.479 140.042C302.895 139.491 303.033 138.939 302.895 138.25C302.895 137.974 302.895 137.699 302.895 137.423C303.033 137.147 303.172 137.01 303.31 136.734C303.864 137.974 303.587 139.491 304.834 140.18C305.111 140.455 305.526 140.455 305.942 140.455C306.496 139.766 307.05 139.766 307.188 138.801C307.327 137.974 305.803 136.596 306.773 135.769C308.019 139.077 309.543 138.25 309.958 138.801C311.62 137.285 309.404 135.631 309.127 134.529C310.65 135.218 311.62 137.561 313.697 135.631C313.697 134.942 313.697 134.391 313.559 133.702C313.005 132.737 311.481 133.15 311.066 132.048C312.035 131.358 313.282 133.012 314.39 132.737C315.359 132.461 316.052 131.358 315.636 130.393C315.221 129.842 314.805 129.291 314.251 129.015Z" fill="#283766"/>
<path fill-rule="evenodd" clip-rule="evenodd" d="M292.37 161.68C291.816 161.68 291.539 162.37 291.123 162.507C290.985 164.989 290.985 170.226 290.569 172.569C290.154 170.088 290.154 164.989 290.015 162.507C289.461 162.37 289.323 161.543 288.769 161.68C289.046 166.78 287.245 172.569 290.154 178.221L290.708 179.186L291.262 178.221C293.893 172.569 292.231 166.643 292.37 161.68Z" fill="#283766"/>
<path fill-rule="evenodd" clip-rule="evenodd" d="M297.217 124.879C298.325 124.879 299.156 124.603 299.433 125.293C297.494 124.879 295.417 126.533 295.14 125.293C295.14 126.395 293.893 126.533 293.616 127.498C293.062 129.152 293.893 131.082 295.555 131.633C295.555 131.633 295.555 131.633 295.693 131.633C296.109 131.771 296.524 131.771 296.94 131.771C296.663 132.598 295.832 133.701 294.724 133.011C295.14 133.425 295.693 133.838 296.109 134.39L290.569 136.182L284.753 134.252C284.891 133.838 284.891 133.287 284.891 132.874C284.891 131.357 285.445 129.841 286.276 128.463C285.584 128.738 283.783 128.738 283.645 128.049C286.415 126.671 286.415 122.122 289.184 120.744C288.076 120.744 287.661 119.641 287.384 118.952C289.738 120.331 298.048 117.436 298.602 120.468C298.74 121.433 297.771 121.709 297.909 122.26C298.463 121.847 299.017 121.433 299.433 120.882C300.956 121.158 301.926 122.674 301.649 124.19C301.51 124.603 301.372 125.017 301.095 125.293C300.264 124.052 298.463 123.914 297.217 124.879ZM293.893 120.882C292.785 120.882 294.309 122.398 295.001 122.26C295.693 122.122 296.247 121.02 297.217 121.571C297.217 120.744 295.417 120.744 293.893 120.882Z" fill="#283766"/>
<path fill-rule="evenodd" clip-rule="evenodd" d="M299.433 148.727C298.602 146.384 298.325 143.903 298.74 141.559C298.048 139.768 297.771 137.838 297.909 135.908C295.555 137.011 293.062 137.7 290.569 138.251C288.076 137.7 285.584 136.873 283.229 135.908C283.368 137.838 283.091 139.768 282.398 141.559C282.814 144.04 282.537 146.522 281.706 148.727C281.706 148.727 280.321 156.17 286.553 158.375C292.785 160.581 288.353 160.581 294.585 158.375C300.818 156.17 299.294 148.727 299.433 148.727ZM295.139 138.803C295.416 139.63 295.693 141.284 296.109 141.973C295.97 141.008 295.693 139.63 295.555 138.665C295.832 138.665 295.832 138.114 295.97 138.251C296.247 140.181 297.771 142.386 296.386 143.765C294.862 142.386 295.139 140.181 294.724 138.665C294.724 138.665 294.862 138.803 295.139 138.803ZM284.891 138.251C285.03 137.976 285.03 138.527 285.307 138.665C285.168 139.63 284.891 141.008 284.753 141.973C285.168 140.87 285.445 139.905 285.722 138.803C285.999 138.803 286.138 138.665 286.276 138.665C285.861 140.319 286.138 142.386 284.614 143.765C283.229 142.386 284.614 140.181 284.891 138.251ZM283.506 152.586C282.121 151.208 283.506 149.003 283.922 147.073C284.06 146.935 284.06 147.349 284.337 147.486C284.199 148.451 283.922 149.967 283.783 150.794C284.199 149.692 284.476 148.727 284.614 147.624C284.891 147.624 284.891 147.486 285.168 147.486C284.753 149.14 285.03 151.208 283.506 152.586ZM285.999 156.721C284.614 155.343 285.999 153.138 286.415 151.208C286.553 151.07 286.553 151.484 286.83 151.621C286.691 152.586 286.415 154.102 286.276 154.929C286.691 153.827 286.968 152.862 287.245 151.759C287.522 151.759 287.522 151.484 287.799 151.621C287.245 153.138 287.522 155.343 285.999 156.721ZM286.968 148.589C285.584 147.211 286.968 145.005 287.384 143.076C287.522 142.8 287.522 143.351 287.799 143.489C287.661 144.454 287.384 145.97 287.245 146.797C287.661 145.695 287.938 144.73 288.076 143.627C288.353 143.627 288.492 143.489 288.63 143.627C288.215 145.143 288.492 147.349 286.968 148.589ZM290.708 157.824L290.569 158.238L290.292 157.824C289.6 156.032 289.461 154.102 289.738 152.311C290.015 152.311 290.015 152.586 290.154 152.586C290.154 153.689 290.154 154.792 290.431 155.894C290.569 154.792 290.569 153.689 290.708 152.586C290.846 152.586 290.985 152.311 291.262 152.311C291.539 154.102 291.262 156.032 290.708 157.824ZM290.569 149.692L290.431 149.967L290.154 149.692C289.046 148.176 289.738 146.659 289.6 145.419C289.877 145.419 289.877 145.557 290.015 145.695C290.015 146.522 290.154 147.486 290.154 148.313C290.292 147.486 290.292 146.522 290.431 145.695C290.569 145.695 290.708 145.419 290.985 145.419C291.123 146.797 291.677 148.176 290.569 149.692ZM290.569 142.249L290.292 142.386L290.154 142.249C289.046 141.284 289.738 140.319 289.6 139.492C289.877 139.492 289.877 139.63 290.154 139.63C290.154 140.181 290.292 140.87 290.431 141.422C290.569 140.87 290.569 140.319 290.708 139.768C290.846 139.768 290.985 139.63 291.123 139.63C291.123 140.457 291.677 141.422 290.569 142.249ZM292.647 143.765C292.924 144.868 293.201 145.832 293.616 146.935C293.478 146.108 293.201 144.592 293.062 143.627C293.339 143.627 293.339 143.076 293.478 143.213C293.755 145.143 295.278 147.349 293.893 148.727C292.37 147.349 292.647 145.143 292.231 143.627H292.785L292.647 143.765ZM294.724 156.721C293.201 155.343 293.478 153.138 293.062 151.621C293.339 151.621 293.478 151.759 293.616 151.759C293.893 152.862 294.17 153.827 294.447 154.929C294.308 154.102 294.032 152.586 293.893 151.621C294.17 151.621 294.032 151.07 294.308 151.208C294.585 153.138 296.109 155.343 294.724 156.721ZM297.078 152.586C295.555 151.208 295.832 149.003 295.416 147.486C295.693 147.486 295.832 147.624 295.97 147.624C296.247 148.727 296.524 149.83 296.94 150.794C296.801 149.967 296.524 148.451 296.386 147.486C296.663 147.486 296.663 146.935 296.801 147.073C297.078 149.003 298.602 151.208 297.078 152.586Z" fill="#283766"/>
<path fill-rule="evenodd" clip-rule="evenodd" d="M309.543 165.817C310.65 164.438 308.989 163.474 307.604 163.611C307.881 162.922 308.712 162.647 309.404 162.922C309.404 162.922 309.404 162.922 309.543 162.922C309.681 162.922 309.82 163.06 309.82 163.198C309.82 160.165 306.773 161.13 305.803 163.474C304.141 161.82 302.756 160.028 300.956 158.511C301.372 157.822 301.926 157.409 302.202 156.72C300.818 155.893 299.71 154.514 299.156 152.998L298.74 154.101L295.693 152.998L295.278 153.412C297.217 155.203 296.94 158.236 298.463 160.028C299.156 160.028 299.294 159.063 299.987 159.063C301.372 160.441 302.895 161.682 304.28 163.06C304.28 163.611 303.864 164.025 303.31 164.025C303.033 164.025 302.895 163.887 302.618 163.749C301.787 164.163 299.987 165.541 301.787 166.368C301.649 166.092 301.787 165.817 301.926 165.679C303.726 165.403 306.219 163.749 306.911 166.506C306.773 166.782 306.634 167.057 306.219 167.195C307.604 167.746 308.158 165.541 307.465 164.714C308.435 164.852 308.989 165.265 309.543 165.817Z" fill="#283766"/>
<path fill-rule="evenodd" clip-rule="evenodd" d="M282.398 154.515L281.844 152.724C281.29 154.378 280.183 155.894 278.659 156.859C279.075 157.548 279.49 157.961 279.906 158.651C278.105 160.029 276.72 161.821 274.92 163.475C273.95 161.132 271.042 160.029 270.904 163.061C271.458 162.51 272.289 162.51 272.842 163.061C272.981 163.199 272.981 163.199 273.119 163.337C271.596 163.199 270.073 164.164 271.042 165.542C271.458 165.267 272.15 164.577 272.842 164.715C272.15 165.68 272.704 167.886 274.089 167.196C273.812 167.196 273.673 166.921 273.396 166.507C274.089 163.75 276.582 165.404 278.382 165.68C278.659 165.818 278.659 166.094 278.521 166.369C280.321 165.68 278.659 164.164 277.828 163.75C277.274 164.302 276.305 163.75 276.166 162.923C277.551 161.545 279.075 160.305 280.459 159.064C281.152 159.064 281.29 159.891 281.983 160.029C283.645 158.099 283.368 154.929 285.445 153.413L285.307 153.275L282.398 154.515Z" fill="#283766"/>
</g>
<defs>
<clipPath id="clip0">
<rect width="145" height="149" fill="white" transform="translate(218 51)"/>
</clipPath>
</defs>
</svg>
