<svg width="214" height="335" viewBox="0 0 214 335" fill="none" xmlns="http://www.w3.org/2000/svg">
<path d="M197.93 218.196H130.214V325.643H197.93V218.196Z" fill="#B2B2B2"/>
<path d="M130.478 218.196H62.7619V325.643H130.478V218.196Z" fill="#D1D1D1"/>
<path d="M95.0002 87.8984L92.1135 145.654L78.5394 188.007H102.977L115.67 151.516L119.636 110.045L95.0002 87.8984Z" fill="#F7EBE7"/>
<path d="M94.3171 289.77L99.2311 312.665L82.7262 314.626L78.0326 292.083L94.3171 289.77Z" fill="#FCC9A7"/>
<path d="M100.223 310.592C99.8044 309.358 98.4822 308.917 97.5788 309.71C95.8159 311.275 92.6427 313.192 87.9491 312.729C83.0792 312.244 81.2502 309.38 80.5451 307.308C80.1705 306.228 79.1348 305.678 78.2093 306.14L48.6592 320.992C46.8743 321.896 45.4639 323.571 44.7588 325.664C44.0977 327.625 45.4199 329.741 47.2709 329.697L98.3281 328.286C100.333 328.242 101.876 326.259 101.699 323.967L100.862 312.729C100.84 312.553 100.818 312.354 100.752 312.178L100.223 310.592Z" fill="#1F252A"/>
<path d="M94.0307 179.061H55.7103C55.7103 179.061 32.3743 177.761 30.9861 196.91C29.5978 216.059 65.2078 270.84 70.7829 300.104L102.823 297.46L79.7515 217.888L137.133 218.219C141.386 218.241 145.617 217.624 149.627 216.235C160.799 212.357 177.855 206.804 168.556 176.042L94.0307 179.061Z" fill="#092330"/>
<path d="M123.603 289.855L131.404 317.224L114.899 319.185L107.318 292.169L123.603 289.855Z" fill="#FCC9A7"/>
<path d="M132.395 315.154C131.976 313.92 130.654 313.479 129.751 314.273C127.988 315.837 124.815 317.754 120.121 317.292C115.251 316.807 113.422 313.942 112.717 311.871C112.342 310.791 111.307 310.24 110.381 310.703L80.8312 325.555C79.0463 326.458 77.636 328.133 76.9308 330.227C76.2697 332.188 77.5919 334.303 79.4429 334.259L131.382 332.849C133.387 332.805 134.929 330.822 134.753 328.53L133.012 317.292C132.99 317.115 132.968 316.917 132.902 316.741L132.395 315.154Z" fill="#1F252A"/>
<path d="M139.821 65.1992C140.681 66.0366 179.133 75.8425 179.133 75.8425L170.914 97.6801L128.87 94.5069L139.821 65.1992Z" fill="#F7EBE7"/>
<path d="M123.955 70.4678C123.955 70.4678 98.9005 79.6127 95.0001 87.8981C96.3443 99.5992 100.465 110.86 107.252 120.489C115.582 132.3 125.872 152.595 123.977 179.061H196.409C196.409 179.061 192.509 104.601 171.068 76.0208L123.955 70.4678Z" fill="#F7EBE7"/>
<path d="M132.175 82.2786C139.293 80.8242 143.876 73.8829 142.422 66.7653L138.169 45.9414L112.409 51.208L116.662 72.0319C118.116 79.1495 125.057 83.733 132.175 82.2786Z" fill="#FCC9A7"/>
<path d="M139.932 53.2129C139.932 53.2129 137.221 70.0924 124.088 71.106C112.585 71.9875 113.687 55.3504 113.687 55.3504L139.932 53.2129Z" fill="#F4BE9A"/>
<path d="M125.124 61.8515L127.393 61.3227C138.786 58.6784 145.882 47.3079 143.237 35.9373L140.24 22.9582C137.596 11.5657 126.226 4.47011 114.855 7.11441L112.585 7.64328C101.193 10.2876 94.0971 21.6581 96.7414 33.0286L99.7384 46.0078C102.383 57.4003 113.753 64.4958 125.124 61.8515Z" fill="#FCC9A7"/>
<path d="M136.098 41.3355C135.569 42.239 135.062 43.6052 134.886 45.6766C134.687 48.2988 133.365 50.7889 131.162 52.2433C124.837 56.4301 120.011 45.8308 110.668 47.7039C110.668 47.7039 107.01 48.2548 106.283 52.3314C105.556 56.386 100.466 49.2904 99.3418 44.4425C98.218 39.5947 97.6451 68.4396 120.651 65.9937C120.651 65.9937 132.264 65.619 140.086 53.7858C140.946 52.4857 141.452 50.9652 141.496 49.4006C141.563 47.0869 141.232 43.5832 139.028 41.0711C138.257 40.1456 136.715 40.2778 136.098 41.3355Z" fill="#1C2226"/>
<path d="M136.119 34.7907C136.119 34.7907 126.181 31.5073 127.856 16.9857C127.856 16.9857 103.176 40.3437 84.886 23.1998C84.886 23.1998 93.0614 21.0183 96.4329 15.4212C102.581 5.21854 120.254 -8.84034 134.401 7.42214C134.401 7.42214 151.611 4.75579 146.675 31.265L136.119 34.7907Z" fill="#1C2226"/>
<path d="M136.119 34.7913C137.067 38.8459 141.122 41.38 145.176 40.4545C149.253 39.507 151.765 35.4524 150.839 31.3978C149.892 27.3432 145.837 24.8091 141.783 25.7346C137.706 26.6821 135.172 30.7367 136.119 34.7913Z" fill="#FCC9A7"/>
<path d="M123.559 81.4619L134.202 81.6602L126.754 97.0853L118.711 82.2993L123.559 81.4619Z" fill="#0C2C40"/>
<path d="M143.325 65.8832L129.619 81.8812L138.543 92.1279L154.96 69.5632C154.96 69.5632 150.751 62.7982 143.325 65.8832Z" fill="#FFF7F3"/>
<path d="M123.559 81.4624L115.67 90.3649L110.117 76.4823C110.117 76.4823 111.571 70.2462 116.111 71.4361L123.559 81.4624Z" fill="#FFF7F3"/>
<path d="M126.467 92.1051C126.467 92.1051 116.177 118.945 118.733 157.023L128.869 166.278L140.703 154.885L127.944 90.3643L126.467 92.1051Z" fill="#0C2C40"/>
<path d="M145.705 155.833L123.669 163.083L122.215 176.018L151.434 167.292L145.705 155.833Z" fill="#FCC9A7"/>
<path d="M126.952 171.633C126.952 179.191 120.826 185.339 113.246 185.339C105.688 185.339 99.5398 179.213 99.5398 171.633C99.5398 164.075 105.666 157.927 113.246 157.927C120.804 157.927 126.952 164.053 126.952 171.633Z" fill="#FCC9A7"/>
<path d="M123.956 179.059H85.6573C85.6573 179.059 62.3213 177.758 60.9331 196.908C59.5448 216.057 97.777 274.364 103.352 303.605L135.392 300.961L109.698 217.864L167.08 218.194C171.333 218.216 175.564 217.599 179.574 216.211C190.746 212.333 207.802 206.78 198.503 176.018L123.956 179.059Z" fill="#0C2C40"/>
<path d="M8.42126 111.344H74.6391C76.8207 111.344 78.6937 112.864 79.1565 115.002L91.6287 173.485C92.2457 176.35 90.0421 179.06 87.1114 179.06H19.7918C17.5882 179.06 15.6931 177.495 15.2745 175.336L3.90393 116.853C3.331 113.988 5.51253 111.344 8.42126 111.344Z" fill="#B2B2B2"/>
<path d="M4.60913 111.344H70.8049C72.9865 111.344 74.8596 112.864 75.3223 115.002L87.7946 173.485C88.4116 176.35 86.2301 179.06 83.2772 179.06H15.9797C13.7761 179.06 11.881 177.495 11.4623 175.336L0.0918008 116.853C-0.481132 113.988 1.70039 111.344 4.60913 111.344Z" fill="#D1D1D1"/>
<path d="M89.8218 174.058H135.061C136.45 174.058 137.551 175.181 137.551 176.548C137.551 177.936 136.428 179.038 135.061 179.038H88.9403L89.8218 174.058Z" fill="#B2B2B2"/>
<path d="M163.334 96.6455L187.529 135.715L129.619 156.385L137.552 173.529C137.552 173.529 187.066 167.976 210.997 149.532C213.201 147.835 214.303 145.08 213.928 142.326C212.804 133.512 208.001 112.115 187.529 81.7052C183.364 75.5131 175.079 73.64 168.622 77.3861C161.901 81.2645 159.544 89.8584 163.334 96.6455Z" fill="#F7EBE7"/>
<path d="M145.022 150.875L187.529 135.714L166.265 101.36" stroke="#EADDD8" stroke-width="0.7599" stroke-miterlimit="10" stroke-linecap="round" stroke-linejoin="round"/>
<path d="M116.243 137.942L105.776 110.309" stroke="#EADDD8" stroke-width="0.7599" stroke-miterlimit="10" stroke-linecap="round" stroke-linejoin="round"/>
<path d="M145.705 172.361C145.705 172.361 178.23 168.285 194.624 158.897" stroke="#EADDD8" stroke-width="0.7599" stroke-miterlimit="10" stroke-linecap="round" stroke-linejoin="round"/>
</svg>
