<svg width="314" height="172" viewBox="0 0 314 172" fill="none" xmlns="http://www.w3.org/2000/svg">
<g clip-path="url(#clip0)">
<path fill-rule="evenodd" clip-rule="evenodd" d="M68.8539 52.3068C69.0688 53.9451 69.7851 58.6463 70.2865 60.3558C70.5731 60.1421 70.788 59.8572 71.0029 59.5723C70.2865 56.4381 70 53.304 70 50.0986C65.4871 51.9506 68.5673 59.3586 69.7851 62.2078C70 61.8516 70 61.4955 69.9284 61.1393C69.4269 59.2161 68.0659 54.23 68.7822 52.3068" fill="#283766"/>
<path fill-rule="evenodd" clip-rule="evenodd" d="M66.3467 65.1982C65.702 63.8448 63.7679 61.138 62.98 59.8559C64.1977 60.9243 66.1318 63.9873 67.5645 65.5543C67.6361 64.2009 66.9198 63.3462 66.1318 62.2065C65.2006 60.497 63.9112 59.0724 62.3353 58.0039H62.192C61.404 60.7819 63.3381 62.7051 64.914 64.2009C65.3438 64.6996 65.702 65.4119 66.3467 65.1982Z" fill="#283766"/>
<path fill-rule="evenodd" clip-rule="evenodd" d="M71.8625 60.7832C69.7135 62.1366 70.9313 65.6981 71.7192 67.2652C72.2923 65.983 71.4327 64.0598 71.3611 62.8489C71.7192 63.2763 71.9341 64.9146 72.4356 65.3419C72.4356 65.1283 72.5788 64.9858 72.7221 64.8433C72.149 63.5612 71.8625 62.2078 71.8625 60.7832Z" fill="#283766"/>
<path fill-rule="evenodd" clip-rule="evenodd" d="M61.3323 62.7779C62.4785 63.7039 64.4126 65.4847 65.4871 66.4819C65.702 66.4107 65.5587 65.9833 65.702 65.6984C63.553 64.345 62.9799 61.852 60.1146 61.1396C60.1862 64.6299 63.2664 65.9833 65.2722 67.9778C65.5587 67.9065 65.8452 67.9065 66.1318 67.9778C64.914 66.4107 62.6217 64.345 61.3323 62.7779Z" fill="#283766"/>
<path fill-rule="evenodd" clip-rule="evenodd" d="M58.6819 64.5576C58.8252 67.9054 62.2636 68.689 64.914 70.1136C64.1977 68.6177 61.1175 67.1931 59.9713 65.9822C61.0458 66.5521 63.1948 68.0479 64.1977 68.6177C64.4126 68.6177 64.4126 68.3328 64.6991 68.1191C62.765 66.9794 61.6189 64.7713 58.6819 64.5576Z" fill="#283766"/>
<path fill-rule="evenodd" clip-rule="evenodd" d="M65.4155 69.5445C65.4155 71.2541 67.4212 71.539 68.8539 72.3225C68.9971 71.2541 66.7049 70.8267 66.3467 70.1144C67.2779 70.3281 68.9971 71.6814 69.9284 71.3253C68.7106 70.6842 67.2063 68.6898 65.4155 69.5445Z" fill="#283766"/>
<path fill-rule="evenodd" clip-rule="evenodd" d="M57.5358 68.5463C57.9656 71.1106 61.6189 71.3243 63.9828 72.464C64.341 72.464 63.7679 72.0366 63.8396 71.7517C62.6934 71.2531 60.7593 70.3983 59.6848 69.8285C61.1175 70.1846 62.5502 70.6832 63.9828 71.2531C64.1261 71.0394 64.4843 71.0394 64.5559 70.6832C62.4069 69.8997 60.2579 67.9765 57.5358 68.5463Z" fill="#283766"/>
<path fill-rule="evenodd" clip-rule="evenodd" d="M66.3467 71.8229C65.7737 71.538 65.0573 71.7517 64.7708 72.3215C64.9857 73.7461 67.7794 73.6037 68.8539 74.1735C68.8539 74.1023 68.9255 73.9598 69.0688 73.9598C67.9943 73.4612 66.9198 72.9626 65.7737 72.6065C66.8482 72.7489 67.851 72.9626 68.9255 73.39C69.1404 73.2475 68.9255 72.8914 68.8539 72.7489C67.9943 72.464 67.2063 72.1791 66.3467 71.8229Z" fill="#283766"/>
<path fill-rule="evenodd" clip-rule="evenodd" d="M57.3926 72.0371C57.6075 73.8891 60.043 73.9603 62.4069 74.174C62.98 74.174 63.8396 74.6014 63.8396 73.8179C62.6934 73.6042 60.5444 73.1056 59.4699 72.8207C60.6161 72.6782 63.4098 73.6042 64.4126 73.3193C62.5502 72.8919 58.8252 70.5413 57.3926 72.0371Z" fill="#283766"/>
<path fill-rule="evenodd" clip-rule="evenodd" d="M64.8424 74.6723C65.2006 76.0969 67.1347 75.6695 68.3524 75.4558C68.1375 74.9572 66.0602 74.9572 65.5587 74.6723C65.9885 74.3162 68.2808 75.1709 68.4957 74.4586C67.2063 74.1737 65.3438 73.3189 64.8424 74.6723Z" fill="#283766"/>
<path fill-rule="evenodd" clip-rule="evenodd" d="M57.5358 76.1678C59.6848 77.7349 62.4069 76.0254 64.6275 75.8829C64.341 75.2418 63.3381 75.5268 62.6218 75.598C61.9055 75.6692 60.3295 75.8117 59.6132 75.8117C61.0459 75.5268 62.4785 75.3131 63.9112 75.1706C63.9112 75.0281 63.8396 74.9569 63.6963 74.8857C61.404 74.672 58.2522 74.1021 57.5358 76.1678Z" fill="#283766"/>
<path fill-rule="evenodd" clip-rule="evenodd" d="M65.6304 77.6651C66.7765 78.4486 67.4212 77.8787 68.3524 77.3089C68.8539 77.024 69.4986 76.8103 69.5702 76.4541C68.8539 76.5966 67.1347 77.024 66.4183 77.1664C66.49 76.8815 68.3524 76.3117 68.7106 76.1692C68.7106 76.0268 68.639 76.0268 68.7106 75.9555C67.4928 75.8131 65.702 75.8131 65.6304 77.6651Z" fill="#283766"/>
<path fill-rule="evenodd" clip-rule="evenodd" d="M61.8338 81.4402C62.7651 80.3717 64.6992 79.5169 65.7737 78.591C64.8424 78.2348 63.6247 79.0896 62.6218 79.6594C61.6189 80.2292 60.043 80.7279 60.3296 82.3662C61.5473 83.5058 62.5502 82.2237 63.6247 81.5114C64.4843 80.9416 65.7737 80.4429 65.6304 79.5169C64.4843 79.8019 62.9083 80.9416 61.8338 81.4402Z" fill="#283766"/>
<path fill-rule="evenodd" clip-rule="evenodd" d="M75.3009 80.87C75.086 80.87 74.9427 80.87 74.7278 80.9412C74.3696 81.4398 74.0115 83.2206 73.7249 83.7192C73.51 83.1494 74.4413 81.0837 74.0115 80.7275C73.3668 81.7248 72.149 83.648 73.51 84.4315C74.8711 84.2891 75.086 82.5795 75.3009 80.87Z" fill="#283766"/>
<path fill-rule="evenodd" clip-rule="evenodd" d="M77.235 81.084C77.0201 81.084 76.8768 81.1552 76.6619 81.2264C76.447 81.7251 76.3754 83.5058 76.1605 84.0757C75.8739 83.5771 76.447 81.3689 75.9456 81.084C75.5158 82.1524 74.6562 84.2894 76.0889 84.788C77.4499 84.4318 77.3782 82.7223 77.235 81.084Z" fill="#283766"/>
<path fill-rule="evenodd" clip-rule="evenodd" d="M64.1261 83.6477C64.4843 82.7217 66.1319 81.5108 66.7049 80.5848C66.5617 80.5136 66.4184 80.5136 66.3468 80.3711C65.4872 81.3683 62.1204 82.4368 62.98 84.5737C63.1949 84.6449 63.4814 84.7161 63.768 84.7874C64.4127 85.0011 64.8425 84.5025 65.2723 84.0751C65.7021 83.6477 66.1319 83.0778 66.5617 82.5792C66.7766 82.2943 67.0631 82.0094 67.3496 81.7957C67.2064 81.582 67.3496 80.9409 67.0631 81.0834C66.1319 82.0094 65.129 82.8642 64.1261 83.6477Z" fill="#283766"/>
<path fill-rule="evenodd" clip-rule="evenodd" d="M68.4957 80.5137C68.2091 80.7274 68.424 81.226 68.424 81.4397C68.7106 81.226 68.4957 80.7986 68.4957 80.5137Z" fill="#283766"/>
<path fill-rule="evenodd" clip-rule="evenodd" d="M68.9971 82.5084C68.5673 83.3632 67.9943 84.218 67.2779 84.859C67.4928 83.933 68.2092 83.1495 68.4241 82.2235L67.5645 82.0811C67.063 83.2207 65.4155 84.5029 66.5616 85.7138C66.7049 85.9275 67.1347 85.8563 67.3496 85.8563C67.6361 85.8563 67.9226 85.6426 68.0659 85.3577C68.4957 84.6453 68.8539 83.8618 69.2837 83.0783C69.212 82.7934 69.1404 82.5084 68.9255 82.366" fill="#283766"/>
<path fill-rule="evenodd" clip-rule="evenodd" d="M65.7736 54.0869C62.6218 56.8649 66.49 61.5661 67.9943 63.5606C68.2092 62.7058 67.3496 61.7798 67.063 61.0675C66.7765 60.3552 65.9169 58.0046 65.6304 57.221C66.7049 58.6457 67.9943 62.7058 69.7851 63.7742C69.212 62.4921 68.639 61.1387 67.9943 59.7141C67.7077 59.073 66.1318 55.4403 65.7736 54.0869Z" fill="#283766"/>
<path fill-rule="evenodd" clip-rule="evenodd" d="M67.4212 67.6913C68.3524 68.3323 69.2836 68.9734 70.1432 69.7569C70.0716 68.6172 68.7106 67.4776 68.2092 67.1214C68.2092 67.1214 67.063 66.3379 66.6332 66.7653C66.2751 69.3295 68.7822 69.7569 70.0716 71.0391C70.1432 69.8994 67.851 68.6172 67.4212 67.6913Z" fill="#283766"/>
<path fill-rule="evenodd" clip-rule="evenodd" d="M67.4212 79.4454C68.7106 80.3714 69.5702 78.9468 70.2866 78.3058C69.5702 77.8071 68.639 78.8044 68.0659 79.0181C68.0659 78.377 69.8568 78.1633 69.6419 77.2373C68.8539 77.6647 67.0631 78.1633 67.4212 79.4454Z" fill="#283766"/>
<path fill-rule="evenodd" clip-rule="evenodd" d="M73.0086 81.2977C73.1519 80.6566 73.6533 80.4429 73.2951 79.9443C72.5788 80.158 72.0057 82.0812 71.2894 82.4374C71.6476 81.6539 72.0057 80.7991 72.4355 80.0868C72.149 80.158 72.0057 80.2293 71.7908 80.0156C71.5043 81.084 69.9284 82.0812 70.8596 83.1497C71.0745 82.7935 72.2923 83.5771 73.0086 81.2977Z" fill="#283766"/>
<path fill-rule="evenodd" clip-rule="evenodd" d="M58.3238 79.3736C58.9685 76.4532 62.6934 77.5929 64.8424 76.5244C64.4842 77.2367 63.4814 77.3079 62.6934 77.6641C61.9055 78.0203 60.2579 78.4476 59.6848 78.8038C60.9742 78.5189 63.2665 77.7353 64.5559 77.5216C64.5559 77.8066 64.341 77.8066 64.4126 78.0915C62.6934 78.2339 60.7593 80.3709 59.1118 79.8722H59.0401C58.682 79.801 58.6103 79.5161 58.3238 79.4449" fill="#283766"/>
<path fill-rule="evenodd" clip-rule="evenodd" d="M69.8568 79.5155L70.2866 79.1593C70.6447 78.8744 70.9313 78.3758 71.2894 78.732C70.8596 79.2306 69.4986 80.584 69.0688 81.1538C69.6419 80.8689 70.9313 79.4443 71.576 79.1593C71.576 80.0853 70 82.0798 68.9255 81.7236L68.639 81.5812L68.5674 81.4387C68.4957 81.1538 68.4957 80.9401 68.4957 80.6552C68.4957 80.4415 69.8568 79.5155 69.8568 79.5155Z" fill="#283766"/>
<path fill-rule="evenodd" clip-rule="evenodd" d="M68.639 64.3436C68.639 64.2724 68.7822 64.2012 68.7822 64.2012C70.2865 65.4833 71.361 67.1928 71.7908 69.1161L71.2894 69.0448C70.6447 67.8339 69.9284 66.6942 69.1404 65.5545C69.6418 66.6942 70.2149 67.8339 70.8596 68.9736H70.3582C69.6418 67.549 67.851 66.623 68.639 64.3436Z" fill="#283766"/>
<path fill-rule="evenodd" clip-rule="evenodd" d="M70.2865 74.3165C70.8596 74.2453 71.5043 74.8151 71.7192 74.3877C70.8596 73.8891 69.6418 73.6754 70 72.2508C71.1461 71.681 71.9341 73.0343 72.6504 73.1056C72.149 72.1084 70.6447 71.5385 71.1461 69.9002C73.1519 69.9002 73.1519 71.7522 73.7249 71.9659C73.5817 71.9659 73.51 70.9687 73.4384 70.8262C73.2235 70.1851 72.6504 69.6865 72.5788 69.0454C72.5788 68.5468 72.6504 68.0482 72.7937 67.6208C72.8653 67.051 73.2235 66.4812 73.7249 66.125C73.9398 68.1194 75.5158 69.829 75.4441 72.0371C75.3725 74.0316 72.937 72.9631 72.7221 74.9576C72.7937 76.0972 73.51 77.0945 74.5845 77.5219C75.659 77.7355 76.6619 77.878 77.7364 77.9492C77.808 78.5191 77.8796 79.73 77.1633 80.1574C76.8768 80.3711 76.5186 80.2998 76.2321 80.0149C76.0172 79.73 75.9456 79.4451 76.0172 79.0889C76.0172 78.9465 76.0172 78.804 76.0172 78.6615C75.9456 78.5191 75.8739 78.4479 75.8023 78.3054C75.5158 78.9465 75.659 79.73 75.0143 80.0861C74.8711 80.2286 74.6562 80.2286 74.4413 80.2286C74.1547 79.8725 73.8682 79.8725 73.7966 79.3738C73.7966 78.9465 74.5129 78.2342 74.0115 77.8068C73.3668 79.5163 72.5788 79.0889 72.3639 79.3738C71.5043 78.5903 72.6504 77.7355 72.7937 77.1657C72.0057 77.5219 71.5043 78.7328 70.5014 77.7355C70.5014 77.3794 70.5014 77.0945 70.5731 76.7383C70.8596 76.2397 71.6476 76.4534 71.8625 75.8836C71.361 75.5274 70.7163 76.3822 70.1433 76.2397C69.6418 76.0972 69.2837 75.5274 69.4986 75.0288C69.7135 74.7439 70 74.4589 70.2865 74.3165Z" fill="#283766"/>
<path fill-rule="evenodd" clip-rule="evenodd" d="M96.1462 52.3068C95.9313 53.9451 95.215 58.6463 94.7135 60.3558C94.427 60.1421 94.2121 59.8572 93.9972 59.5723C94.7135 56.4381 95.0001 53.304 95.0001 50.0986C99.5129 51.9506 96.4327 59.3586 95.215 62.2078C95.0717 61.8516 95.0001 61.4955 95.0717 61.1393C95.5731 59.2161 96.9342 54.23 96.2178 52.3068" fill="#283766"/>
<path fill-rule="evenodd" clip-rule="evenodd" d="M98.5817 65.1982C99.2264 63.8448 101.232 61.138 101.948 59.8559C100.731 60.9243 98.7966 63.9873 97.364 65.5543C97.2923 64.2009 98.0087 63.3462 98.7966 62.2065C99.7279 60.497 101.017 59.0724 102.593 58.0039H102.736C103.524 60.7819 101.59 62.7051 100.014 64.2009C99.6562 64.6283 99.2981 65.4119 98.5817 65.1982Z" fill="#283766"/>
<path fill-rule="evenodd" clip-rule="evenodd" d="M93.2091 60.7832C95.3581 62.1366 94.0687 65.6981 93.2808 67.2652C92.7077 65.983 93.5673 64.0598 93.6389 62.8489C93.2808 63.2763 93.0659 64.9146 92.6361 65.3419C92.6361 65.1283 92.4928 64.9858 92.3495 64.8433C92.7793 63.5612 93.1375 62.2078 93.2091 60.7832Z" fill="#283766"/>
<path fill-rule="evenodd" clip-rule="evenodd" d="M103.596 62.7779C102.45 63.7039 100.516 65.4847 99.4412 66.4819C99.2263 66.4107 99.3696 65.9833 99.2263 65.6984C101.375 64.345 101.948 61.852 104.814 61.1396C104.742 64.6299 101.662 65.9833 99.6561 67.9778C99.3696 67.9065 99.083 67.9065 98.7965 67.9778C100.086 66.4107 102.378 64.345 103.596 62.7779Z" fill="#283766"/>
<path fill-rule="evenodd" clip-rule="evenodd" d="M106.318 64.5576C106.175 67.9054 102.736 68.689 100.086 70.1136C100.802 68.6177 103.883 67.1931 104.957 65.9822C103.883 66.5521 101.734 68.0479 100.659 68.5465C100.516 68.5465 100.444 68.2616 100.229 68.0479C102.235 66.9794 103.309 64.7713 106.318 64.5576Z" fill="#283766"/>
<path fill-rule="evenodd" clip-rule="evenodd" d="M99.5846 69.5445C99.5846 71.2541 97.5788 71.539 96.1462 72.3225C96.0029 71.2541 98.3668 70.8267 98.6533 70.1144C97.7221 70.3281 96.0029 71.6814 95.0717 71.3253C96.2894 70.6842 97.7937 68.6898 99.5846 69.5445Z" fill="#283766"/>
<path fill-rule="evenodd" clip-rule="evenodd" d="M107.536 68.5463C107.106 71.1106 103.453 71.3243 101.089 72.464C100.731 72.464 101.304 72.0366 101.232 71.7517C102.378 71.2531 104.312 70.3983 105.387 69.8285C103.954 70.1846 102.521 70.6832 101.089 71.2531C100.946 71.0394 100.587 71.0394 100.516 70.6832C102.665 69.8997 104.814 67.9765 107.536 68.5463Z" fill="#283766"/>
<path fill-rule="evenodd" clip-rule="evenodd" d="M78.4528 92.4085C77.8081 91.625 78.6677 90.5565 78.9542 89.5593C79.0258 89.4881 79.0258 89.773 79.1691 89.773C78.9542 90.2716 78.8109 90.9839 78.6677 91.4825C78.8826 90.9839 79.0975 90.414 79.3124 89.9154C79.4556 89.9154 79.5273 89.8442 79.5989 89.9154C79.3124 90.699 79.3124 91.7674 78.4528 92.4085Z" fill="#283766"/>
<path fill-rule="evenodd" clip-rule="evenodd" d="M79.3839 96.6833C80.8166 96.2559 80.6733 92.9793 81.1031 90.7711C81.1031 90.4862 80.8882 90.9848 80.745 90.9136C80.5301 91.9821 80.1719 93.6916 79.957 94.6888C79.957 93.7628 80.3152 91.7684 80.4584 90.8424C80.3152 90.6999 80.3152 90.415 80.1003 90.3438C79.7421 92.267 78.8109 94.2614 79.3839 96.6833Z" fill="#283766"/>
<path fill-rule="evenodd" clip-rule="evenodd" d="M86.5473 92.4085C87.192 91.625 86.3324 90.5565 86.0459 89.5593C85.9743 89.4881 85.9743 89.773 85.831 89.773C85.9743 90.2004 86.1892 90.9839 86.3324 91.4113C86.1175 90.9127 85.9026 90.3428 85.6877 89.8442C85.5445 89.8442 85.4728 89.773 85.4012 89.8442C85.6877 90.699 85.6877 91.7674 86.5473 92.4085Z" fill="#283766"/>
<path fill-rule="evenodd" clip-rule="evenodd" d="M85.6877 96.6833C84.255 96.2559 84.3983 92.9793 83.9685 90.7711C83.9685 90.4862 84.1834 90.9848 84.3267 90.9136C84.5416 91.9821 84.8997 93.6916 85.1146 94.6888C85.1146 93.7628 84.7565 91.7684 84.6132 90.8424C84.7565 90.6999 84.7565 90.415 84.9714 90.3438C85.2579 92.267 86.1891 94.2614 85.6877 96.6833Z" fill="#283766"/>
<path fill-rule="evenodd" clip-rule="evenodd" d="M98.5817 71.8229C99.1548 71.538 99.8711 71.7517 100.158 72.3215C99.9427 73.7461 97.149 73.6037 96.0745 74.1735C96.0745 74.1023 96.0029 73.9598 95.8596 73.9598C96.9341 73.4612 98.0086 72.9626 99.1548 72.6065C98.0803 72.7489 97.0058 72.9626 96.0029 73.39C95.788 73.2475 96.0029 72.8914 96.0745 72.7489C96.9341 72.464 97.7937 72.1791 98.5817 71.8229Z" fill="#283766"/>
<path fill-rule="evenodd" clip-rule="evenodd" d="M107.536 72.0371C107.321 73.8891 104.885 73.9603 102.521 74.174C101.948 74.174 101.089 74.6014 101.089 73.8179C102.235 73.6042 104.384 73.1056 105.458 72.8207C104.312 72.6782 101.519 73.6042 100.516 73.3193C102.45 72.8919 106.175 70.5413 107.536 72.0371Z" fill="#283766"/>
<path fill-rule="evenodd" clip-rule="evenodd" d="M100.158 74.6723C99.7994 76.0969 97.8653 75.6695 96.6476 75.4558C96.8625 74.9572 98.9398 74.9572 99.4413 74.6723C99.0115 74.3162 96.7192 75.1709 96.5759 74.4586C97.7937 74.1737 99.6562 73.3189 100.158 74.6723Z" fill="#283766"/>
<path fill-rule="evenodd" clip-rule="evenodd" d="M107.464 76.1678C105.315 77.7349 102.593 76.0254 100.444 75.8829C100.731 75.2418 101.733 75.5268 102.45 75.598C103.166 75.6692 104.742 75.8117 105.458 75.8117C104.026 75.5268 102.593 75.3131 101.16 75.1706C101.16 75.0281 101.232 74.9569 101.375 74.8857C103.596 74.672 106.748 74.1021 107.464 76.1678Z" fill="#283766"/>
<path fill-rule="evenodd" clip-rule="evenodd" d="M99.3696 77.6651C98.2235 78.4486 97.5788 77.8787 96.6476 77.3089C96.1461 77.024 95.5014 76.8103 95.4298 76.4541C96.1461 76.5966 97.8653 77.024 98.5817 77.1664C98.51 76.8815 96.6476 76.3117 96.2894 76.1692C96.2894 76.0268 96.361 76.0268 96.2894 75.9555C97.5072 75.8131 99.298 75.8131 99.3696 77.6651Z" fill="#283766"/>
<path fill-rule="evenodd" clip-rule="evenodd" d="M103.095 81.4402C102.163 80.3717 100.229 79.5169 99.1547 78.591C100.086 78.2348 101.304 79.0896 102.307 79.6594C103.309 80.2293 104.885 80.7279 104.599 82.2949C103.381 83.4346 102.378 82.1525 101.304 81.4402C100.444 80.8703 99.1547 80.3717 99.298 79.4457C100.516 79.7306 102.092 80.8703 103.095 81.4402Z" fill="#283766"/>
<path fill-rule="evenodd" clip-rule="evenodd" d="M89.6992 80.87C89.9141 80.87 90.0573 80.87 90.2722 80.9412C90.5588 81.4398 90.9886 83.2206 91.2751 83.7192C91.49 83.1494 90.5588 81.0837 90.9886 80.7275C91.6332 81.7248 92.851 83.648 91.49 84.4315C90.129 84.2891 89.9141 82.5795 89.6992 80.87Z" fill="#283766"/>
<path fill-rule="evenodd" clip-rule="evenodd" d="M87.6935 81.084C87.9084 81.084 88.0516 81.1552 88.2665 81.2264C88.4814 81.7251 88.553 83.5058 88.7679 84.0757C89.0545 83.5771 88.4814 81.3689 88.9828 81.084C89.4126 82.1524 90.2722 84.2894 88.8396 84.788C87.5502 84.4318 87.6218 82.7223 87.6935 81.084Z" fill="#283766"/>
<path fill-rule="evenodd" clip-rule="evenodd" d="M100.946 83.6477C100.587 82.7217 98.9398 81.5108 98.3667 80.5848C98.51 80.5136 98.6533 80.5136 98.7249 80.3711C99.5845 81.3683 102.951 82.4368 102.092 84.5737C101.877 84.6449 101.59 84.7161 101.304 84.7874C100.659 85.0011 100.229 84.5025 99.7994 84.0751C99.3696 83.6477 98.9398 83.0778 98.51 82.5792C98.2951 82.2943 98.0086 82.0094 97.722 81.7957C97.8653 81.582 97.722 80.9409 98.0086 81.0834C98.8682 82.0094 99.871 82.8642 100.946 83.6477Z" fill="#283766"/>
<path fill-rule="evenodd" clip-rule="evenodd" d="M96.4327 80.5137C96.7192 80.7274 96.5043 81.226 96.5043 81.4397C96.2178 81.226 96.5043 80.7986 96.4327 80.5137Z" fill="#283766"/>
<path fill-rule="evenodd" clip-rule="evenodd" d="M95.9312 82.5084C96.361 83.3632 96.934 84.218 97.6504 84.859C97.4355 83.933 96.7192 83.1495 96.5043 82.2235L97.3638 82.0811C97.8653 83.2207 99.5128 84.5029 98.3667 85.7138C98.2234 85.9275 97.7936 85.8563 97.5787 85.8563C97.2922 85.8563 97.0057 85.6426 96.8624 85.3577C96.4326 84.6453 96.0745 83.8618 95.6447 83.0783C95.7163 82.7934 95.7879 82.5084 96.0028 82.366" fill="#283766"/>
<path fill-rule="evenodd" clip-rule="evenodd" d="M99.2264 54.0869C102.378 56.8649 98.51 61.5661 97.0057 63.5606C96.7908 62.7058 97.6504 61.7798 97.937 61.0675C98.2235 60.3552 99.0831 58.0046 99.3696 57.221C98.2951 58.6457 97.0057 62.7058 95.2149 63.7742C95.788 62.4921 96.361 61.1387 97.0057 59.7141C97.2923 59.073 98.8682 55.4403 99.2264 54.0869Z" fill="#283766"/>
<path fill-rule="evenodd" clip-rule="evenodd" d="M97.5788 67.6913C96.6476 68.3323 95.7163 68.9734 94.8568 69.7569C94.9284 68.6172 96.2894 67.4776 96.7908 67.1214C96.7908 67.1214 97.937 66.3379 98.4384 66.7653C98.7966 69.3295 96.2894 69.7569 94.9284 71.0391C94.7135 69.8994 97.0774 68.6172 97.5788 67.6913Z" fill="#283766"/>
<path fill-rule="evenodd" clip-rule="evenodd" d="M97.5788 79.4454C96.2894 80.3714 95.4298 78.9468 94.7135 78.3058C95.4298 77.8071 96.3611 78.8044 96.9341 79.0181C96.9341 78.377 95.1433 78.1633 95.3582 77.2373C96.1462 77.6647 97.8654 78.1633 97.5788 79.4454Z" fill="#283766"/>
<path fill-rule="evenodd" clip-rule="evenodd" d="M91.9914 81.2977C91.8481 80.6566 91.3467 80.4429 91.7049 79.9443C92.4212 80.158 92.9943 82.0812 93.7106 82.4374C93.3524 81.6539 92.9943 80.8703 92.5645 80.0868C92.851 80.158 92.9943 80.2293 93.2092 80.0156C93.4957 81.084 95.0716 82.0812 94.1404 83.1497C93.9255 82.7935 92.6361 83.5771 91.9914 81.2977Z" fill="#283766"/>
<path fill-rule="evenodd" clip-rule="evenodd" d="M106.676 79.3736C106.031 76.4532 102.307 77.5929 100.229 76.5244C100.587 77.2367 101.59 77.3079 102.307 77.6641C103.023 78.0202 104.742 78.4476 105.315 78.8038C104.026 78.5189 101.662 77.7353 100.372 77.4504C100.372 77.7353 100.587 77.7353 100.516 78.0202C102.235 78.1627 104.169 80.2996 105.817 79.801H105.888C106.175 79.7298 106.318 79.4448 106.605 79.3736" fill="#283766"/>
<path fill-rule="evenodd" clip-rule="evenodd" d="M95.2149 79.5155C95.0717 79.373 94.9284 79.3018 94.7851 79.1593C94.427 78.8744 94.1404 78.3758 93.7823 78.732C94.2121 79.2306 95.5731 80.584 96.0029 81.1538C95.4298 80.8689 94.1404 79.4443 93.4957 79.1593C93.4957 80.0853 95.0717 82.0798 96.1462 81.7236L96.4327 81.5812L96.5043 81.4387C96.576 81.1538 96.576 80.9401 96.576 80.6552C96.576 80.4415 95.2149 79.5155 95.2149 79.5155Z" fill="#283766"/>
<path fill-rule="evenodd" clip-rule="evenodd" d="M96.2894 64.3436C96.2894 64.2724 96.2177 64.2012 96.1461 64.2012C94.6418 65.4833 93.5673 67.1928 93.1375 69.1161L93.6389 69.0448C94.2836 67.8339 95 66.6942 95.7879 65.5545C95.2865 66.7655 94.7134 67.9051 94.0687 68.9736H94.5702C95.3581 67.6202 97.0773 66.623 96.2894 64.3436Z" fill="#283766"/>
<path fill-rule="evenodd" clip-rule="evenodd" d="M94.7851 74.3165C94.2121 74.2453 93.5674 74.8151 93.3525 74.3877C94.2121 73.8891 95.4298 73.6754 95 72.2508C93.8539 71.681 93.1376 73.0343 92.3496 73.1056C92.851 72.1084 94.3553 71.5385 93.7823 69.9002C91.7765 69.9002 91.8482 71.7522 91.2035 71.9659C91.3467 71.9659 91.4184 70.9687 91.49 70.8262C91.7049 70.1851 92.278 69.6865 92.3496 69.0454C92.3496 68.5468 92.278 68.0482 92.1347 67.6208C92.0631 67.051 91.7049 66.4812 91.2035 66.125C90.9886 68.1194 89.4126 69.829 89.4843 72.0371C89.5559 74.0316 91.9914 72.9631 92.2063 74.9576C92.1347 76.0972 91.4184 77.0945 90.3439 77.5219C89.2694 77.7355 88.2665 77.878 87.192 77.9492C87.1204 78.5191 87.0487 79.73 87.7651 80.1574C88.0516 80.3711 88.4098 80.2998 88.6963 80.0149C88.9112 79.73 88.9828 79.4451 88.9112 79.0889C88.9112 78.9465 88.9112 78.804 88.9112 78.6615C88.9828 78.5191 89.0545 78.4479 89.1261 78.3054C89.4126 78.9465 89.2694 79.73 89.9141 80.0861C90.0573 80.2286 90.2722 80.2286 90.4871 80.2286C90.7737 79.8725 91.0602 79.8725 91.1318 79.3738C91.2035 78.9465 90.4155 78.2342 90.9169 77.8068C91.5616 79.5163 92.3496 79.0889 92.5645 79.3738C93.4241 78.5903 92.278 77.7355 92.1347 77.1657C92.9227 77.5219 93.4241 78.7328 94.4986 77.7355C94.4986 77.3794 94.4986 77.0945 94.427 76.7383C94.1404 76.2397 93.3525 76.4534 93.1376 75.8836C93.639 75.5274 94.2837 76.3822 94.8568 76.2397C95.3582 76.0972 95.7164 75.5274 95.5015 75.0288C95.2866 74.7439 95.0717 74.4589 94.7851 74.3165Z" fill="#283766"/>
<path fill-rule="evenodd" clip-rule="evenodd" d="M83.467 91.1974C83.1805 91.1974 83.0372 91.5536 82.8223 91.6248C82.7507 92.907 82.7507 95.6137 82.5358 96.8246C82.3209 95.5425 82.3209 92.907 82.2493 91.6248C81.9627 91.5536 81.8911 91.1262 81.6046 91.1974C81.7478 93.833 80.8166 96.8246 82.3209 99.7451L82.6074 100.244L82.894 99.7451C84.255 96.8246 83.3954 93.7617 83.467 91.1974Z" fill="#283766"/>
<path fill-rule="evenodd" clip-rule="evenodd" d="M85.9742 72.1791C86.5473 72.1791 86.9771 72.0367 87.1204 72.3928C86.1175 72.1791 85.043 73.0339 84.8997 72.3928C84.8997 72.9627 84.255 73.0339 84.1118 73.5325C83.8252 74.3873 84.255 75.3845 85.1146 75.6694C85.1146 75.6694 85.1146 75.6694 85.1863 75.6694C85.4012 75.7406 85.6161 75.7406 85.831 75.7406C85.6877 76.168 85.2579 76.7379 84.6848 76.3817C84.8997 76.5954 85.1863 76.8091 85.4012 77.094L82.5358 78.02L79.5272 77.0228C79.5989 76.8091 79.5989 76.5242 79.5989 76.3105C79.5989 75.5269 79.8854 74.7434 80.3152 74.0311C79.957 74.1736 79.0258 74.1736 78.9542 73.8174C80.3868 73.1051 80.3868 70.7545 81.8195 70.0422C81.2464 70.0422 81.0315 69.4724 80.8883 69.1162C82.106 69.8285 86.404 68.3327 86.6906 69.8997C86.7622 70.3984 86.2608 70.5408 86.3324 70.8257C86.6189 70.612 86.9055 70.3984 87.1204 70.1134C87.9083 70.2559 88.4098 71.0394 88.2665 71.823C88.1949 72.0367 88.1232 72.2503 87.98 72.3928C87.5502 71.7517 86.6189 71.6805 85.9742 72.1791ZM84.255 70.1134C83.682 70.1134 84.4699 70.897 84.8281 70.8257C85.1863 70.7545 85.4728 70.1847 85.9742 70.4696C85.9742 70.0422 85.043 70.0422 84.255 70.1134Z" fill="#283766"/>
<path fill-rule="evenodd" clip-rule="evenodd" d="M87.1204 84.5033C86.6906 83.2924 86.5473 82.0103 86.7622 80.7994C86.404 79.8734 86.2608 78.8761 86.3324 77.8789C85.1146 78.4487 83.8252 78.8049 82.5358 79.0898C81.2464 78.8049 79.957 78.3775 78.7393 77.8789C78.8109 78.8761 78.6676 79.8734 78.3095 80.7994C78.5244 82.0815 78.3811 83.3636 77.9513 84.5033C77.9513 84.5033 77.235 88.3498 80.4585 89.4895C83.682 90.6291 81.3897 90.6291 84.6132 89.4895C87.8367 88.3498 87.0487 84.5033 87.1204 84.5033ZM84.8997 79.3747C85.043 79.8021 85.1863 80.6569 85.4012 81.013C85.3295 80.5144 85.1863 79.8021 85.1146 79.3035C85.2579 79.3035 85.2579 79.0186 85.3295 79.0898C85.4728 80.087 86.2608 81.2267 85.5444 81.939C84.7565 81.2267 84.8997 80.087 84.6848 79.3035C84.6848 79.3035 84.7565 79.3747 84.8997 79.3747ZM79.5989 79.0898C79.6705 78.9474 79.6705 79.2323 79.8138 79.3035C79.7421 79.8021 79.5989 80.5144 79.5272 81.013C79.7421 80.4432 79.8854 79.9446 80.0287 79.3747C80.1719 79.3747 80.2436 79.3035 80.3152 79.3035C80.1003 80.1583 80.2436 81.2267 79.4556 81.939C78.7393 81.2267 79.4556 80.087 79.5989 79.0898ZM78.8825 86.4978C78.1662 85.7855 78.8825 84.6458 79.0974 83.6486C79.1691 83.5773 79.1691 83.791 79.3123 83.8623C79.2407 84.3609 79.0974 85.1444 79.0258 85.5718C79.2407 85.0019 79.384 84.5033 79.4556 83.9335C79.5989 83.9335 79.5989 83.8623 79.7421 83.8623C79.5272 84.717 79.6705 85.7855 78.8825 86.4978ZM80.1719 88.6347C79.4556 87.9224 80.1719 86.7827 80.3868 85.7855C80.4585 85.7142 80.4585 85.9279 80.6017 85.9992C80.5301 86.4978 80.3868 87.2813 80.3152 87.7087C80.5301 87.1389 80.6734 86.6402 80.8166 86.0704C80.9599 86.0704 80.9599 85.9279 81.1032 85.9992C80.8166 86.7827 80.9599 87.9224 80.1719 88.6347ZM80.6734 84.4321C79.957 83.7198 80.6734 82.5801 80.8883 81.5829C80.9599 81.4404 80.9599 81.7253 81.1032 81.7966C81.0315 82.2952 80.8883 83.0787 80.8166 83.5061C81.0315 82.9363 81.1748 82.4376 81.2464 81.8678C81.3897 81.8678 81.4613 81.7966 81.533 81.8678C81.3181 82.6513 81.4613 83.791 80.6734 84.4321ZM82.6075 89.2045L82.5358 89.4182L82.3926 89.2045C82.0344 88.2785 81.9628 87.2813 82.106 86.3553C82.2493 86.3553 82.2493 86.4978 82.3209 86.4978C82.3209 87.0676 82.3209 87.6375 82.4642 88.2073C82.5358 87.6375 82.5358 87.0676 82.6075 86.4978C82.6791 86.4978 82.7507 86.3553 82.894 86.3553C83.0373 87.2813 82.894 88.2785 82.6075 89.2045ZM82.5358 85.0019L82.4642 85.1444L82.3209 85.0019C81.7479 84.2184 82.106 83.4349 82.0344 82.7938C82.1777 82.7938 82.1777 82.865 82.2493 82.9363C82.2493 83.3636 82.3209 83.8623 82.3209 84.2896C82.3926 83.8623 82.3926 83.3636 82.4642 82.9363C82.5358 82.9363 82.6075 82.7938 82.7507 82.7938C82.8224 83.5061 83.1089 84.2184 82.5358 85.0019ZM82.5358 81.1555L82.3926 81.2267L82.3209 81.1555C81.7479 80.6569 82.106 80.1583 82.0344 79.7309C82.1777 79.7309 82.1777 79.8021 82.3209 79.8021C82.3209 80.0871 82.3926 80.4432 82.4642 80.7281C82.5358 80.4432 82.5358 80.1583 82.6075 79.8734C82.6791 79.8734 82.7507 79.8021 82.8224 79.8021C82.8224 80.2295 83.1089 80.7281 82.5358 81.1555ZM83.6103 81.939C83.7536 82.5089 83.8969 83.0075 84.1118 83.5773C84.0401 83.15 83.8969 82.3664 83.8252 81.8678C83.9685 81.8678 83.9685 81.5829 84.0401 81.6541C84.1834 82.6513 84.9714 83.791 84.255 84.5033C83.4671 83.791 83.6103 82.6513 83.3954 81.8678H83.682L83.6103 81.939ZM84.6848 88.6347C83.8969 87.9224 84.0401 86.7827 83.8252 85.9992C83.9685 85.9992 84.0401 86.0704 84.1118 86.0704C84.255 86.6402 84.3983 87.1389 84.5416 87.7087C84.4699 87.2813 84.3267 86.4978 84.255 85.9992C84.3983 85.9992 84.3267 85.7142 84.4699 85.7855C84.6132 86.7827 85.4012 87.9224 84.6848 88.6347ZM85.9026 86.4978C85.1146 85.7855 85.2579 84.6458 85.043 83.8623C85.1863 83.8623 85.2579 83.9335 85.3295 83.9335C85.4728 84.5033 85.6161 85.0732 85.831 85.5718C85.7593 85.1444 85.6161 84.3609 85.5444 83.8623C85.6877 83.8623 85.6877 83.5773 85.7593 83.6486C85.9026 84.6458 86.6906 85.7855 85.9026 86.4978Z" fill="#283766"/>
<path fill-rule="evenodd" clip-rule="evenodd" d="M92.3496 93.3344C92.9227 92.6221 92.0631 92.1235 91.3467 92.1947C91.49 91.8385 91.9198 91.6961 92.278 91.8385C92.278 91.8385 92.278 91.8385 92.3496 91.8385C92.4212 91.8385 92.4929 91.9098 92.4929 91.981C92.4929 90.4139 90.9169 90.9125 90.4155 92.1235C89.5559 91.2687 88.8396 90.3427 87.9083 89.5592C88.1232 89.203 88.4098 88.9893 88.553 88.6332C87.8367 88.2058 87.2636 87.4935 86.9771 86.71L86.7622 87.2798L85.1863 86.71L84.9714 86.9237C85.9742 87.8496 85.831 89.4167 86.6189 90.3427C86.9771 90.3427 87.0487 89.8441 87.4069 89.8441C88.1232 90.5564 88.9112 91.1975 89.6275 91.9098C89.6275 92.1947 89.4126 92.4084 89.1261 92.4084C88.9828 92.4084 88.9112 92.3372 88.7679 92.2659C88.3381 92.4796 87.4069 93.1919 88.3381 93.6193C88.2665 93.4768 88.3381 93.3344 88.4098 93.2631C89.341 93.1207 90.6304 92.2659 90.9886 93.6905C90.9169 93.833 90.8453 93.9755 90.6304 94.0467C91.3467 94.3316 91.6333 93.1919 91.2751 92.7645C91.7765 92.8358 92.0631 93.0495 92.3496 93.3344Z" fill="#283766"/>
<path fill-rule="evenodd" clip-rule="evenodd" d="M78.3095 87.4944L78.0229 86.5684C77.7364 87.4231 77.1633 88.2067 76.3754 88.7053C76.5903 89.0614 76.8052 89.2751 77.0201 89.6313C76.0888 90.3436 75.3725 91.2696 74.4413 92.1243C73.9398 90.9134 72.4355 90.3436 72.3639 91.9106C72.6504 91.6257 73.0802 91.6257 73.3668 91.9106C73.4384 91.9819 73.4384 91.9819 73.51 92.0531C72.7221 91.9819 71.9341 92.4805 72.4355 93.1928C72.6504 93.0503 73.0086 92.6942 73.3668 92.7654C73.0086 93.264 73.2951 94.4037 74.0115 94.0476C73.8682 94.0476 73.7966 93.9051 73.6533 93.6914C74.0115 92.2668 75.3009 93.1216 76.2321 93.264C76.3754 93.3352 76.3754 93.4777 76.3037 93.6202C77.235 93.264 76.3754 92.4805 75.9456 92.2668C75.659 92.5517 75.1576 92.2668 75.086 91.8394C75.8023 91.1271 76.5903 90.486 77.3066 89.845C77.6648 89.845 77.7364 90.2723 78.0946 90.3436C78.9542 89.3463 78.8109 87.708 79.8854 86.9245L79.8138 86.8533L78.3095 87.4944Z" fill="#283766"/>
</g>
<path d="M184.646 85.6774C184.491 85.9581 184.337 86.2484 184.162 86.5291C184.085 86.6742 183.988 86.8194 183.92 86.9549C183.872 87.0806 183.824 87.2258 183.785 87.3613C183.611 87.9323 183.456 88.5517 183.311 89.1517L182.42 92.8002C182.14 94.0196 181.869 95.239 181.617 96.4584C181.462 97.2714 181.308 98.0746 181.211 98.9262L211.134 69.8156C208.458 64.0767 206.698 57.9538 205.918 51.6699C201.273 53.8764 195.331 56.6152 187.308 59.9444C173.981 65.4704 170.401 94.0777 170.401 94.0777C170.401 94.0777 176.546 95.4325 180.011 94.4261C180.067 93.7237 180.167 93.0256 180.311 92.3357C180.573 91.023 180.982 89.744 181.53 88.5227C181.807 87.897 182.141 87.2977 182.527 86.7323C182.624 86.5872 182.74 86.442 182.866 86.2872L183.127 85.8903C183.311 85.629 183.475 85.3581 183.64 85.0871C184.995 82.9096 186.282 80.6547 187.55 78.4095L191.372 71.6448C190.327 74.0158 189.253 76.3739 188.15 78.7192C187.027 81.0515 185.904 83.3838 184.646 85.6774ZM172.327 93.8067C171.951 93.7933 171.594 93.6345 171.333 93.3637C171.072 93.0929 170.926 92.7313 170.926 92.355C170.926 91.9787 171.072 91.6171 171.333 91.3463C171.594 91.0756 171.951 90.9167 172.327 90.9034C172.703 90.9167 173.059 91.0756 173.32 91.3463C173.581 91.6171 173.727 91.9787 173.727 92.355C173.727 92.7313 173.581 93.0929 173.32 93.3637C173.059 93.6345 172.703 93.7933 172.327 93.8067V93.8067ZM177.088 93.8067C176.712 93.7933 176.356 93.6345 176.094 93.3637C175.833 93.0929 175.687 92.7313 175.687 92.355C175.687 91.9787 175.833 91.6171 176.094 91.3463C176.356 91.0756 176.712 90.9167 177.088 90.9034C177.464 90.9167 177.82 91.0756 178.082 91.3463C178.343 91.6171 178.489 91.9787 178.489 92.355C178.489 92.7313 178.343 93.0929 178.082 93.3637C177.82 93.6345 177.464 93.7933 177.088 93.8067V93.8067Z" fill="#283766"/>
<path d="M181.13 100.25C182.742 100.954 184.454 101.402 186.204 101.578C187.043 101.65 187.887 101.618 188.718 101.484C189.579 101.379 190.417 101.111 191.369 100.9C190.739 101.646 189.932 102.222 189.022 102.575C188.096 102.958 187.091 103.112 186.092 103.025C185.101 102.95 184.137 102.661 183.267 102.179C182.405 101.724 181.671 101.061 181.13 100.25V100.25Z" fill="#283766"/>
<path d="M95.5822 146.521C95.4279 145.195 95.3503 143.86 95.35 142.524L95.5822 146.521Z" fill="#283766"/>
<path d="M95.65 147.702L95.5823 146.521C95.8264 149.168 96.6173 151.735 97.9049 154.06C95.4565 150.47 95.65 147.702 95.65 147.702Z" fill="#283766"/>
<path d="M97.992 154.196C98.3017 154.651 98.6598 155.116 99.0565 155.59C98.6564 155.162 98.2998 154.695 97.992 154.196Z" fill="#283766"/>
<path d="M256.016 170.465L1.00803 169.189L0.984314 163.535C22.2062 163.904 43.4276 164.161 64.6485 164.305C85.8698 164.534 107.09 164.548 128.311 164.627C149.532 164.744 170.759 164.664 191.979 164.631L223.812 164.544L255.397 164.318L256.016 170.465Z" fill="#283766"/>
<path d="M313.147 129V135.01L256.106 170.44L256 163.947L270.265 155.275L284.568 146.536L313.147 129Z" fill="#283766"/>
<path d="M167.915 146.702L169.85 146.737" stroke="#273665" stroke-width="1.93554" stroke-miterlimit="10"/>
<path d="M173.831 146.809L219.616 147.634" stroke="#273665" stroke-width="1.93554" stroke-miterlimit="10" stroke-dasharray="3.98 3.98"/>
<path d="M221.607 147.67L223.542 147.705" stroke="#273665" stroke-width="1.93554" stroke-miterlimit="10"/>
<path d="M170.032 143.239L171.967 143.274" stroke="#273665" stroke-width="1.93554" stroke-miterlimit="10"/>
<path d="M175.949 143.346L221.734 144.171" stroke="#273665" stroke-width="1.93554" stroke-miterlimit="10" stroke-dasharray="3.98 3.98"/>
<path d="M223.724 144.207L225.66 144.242" stroke="#273665" stroke-width="1.93554" stroke-miterlimit="10"/>
<path d="M172.587 139.819L174.522 139.854" stroke="#273665" stroke-width="1.93554" stroke-miterlimit="10"/>
<path d="M178.504 139.926L224.289 140.751" stroke="#273665" stroke-width="1.93554" stroke-miterlimit="10" stroke-dasharray="3.98 3.98"/>
<path d="M226.279 140.787L228.215 140.822" stroke="#273665" stroke-width="1.93554" stroke-miterlimit="10"/>
<path d="M217.853 44.1289C216.221 44.0764 214.663 43.4324 213.47 42.3167C212.257 41.2738 211.186 40.0762 210.284 38.7544C209.375 37.4605 208.558 36.104 207.84 34.6953C207.108 33.292 206.459 31.8477 205.894 30.3694L207.439 30.7796C207.174 31.0059 206.865 31.1745 206.531 31.2748C206.198 31.3751 205.847 31.4047 205.501 31.3619C204.922 31.2726 204.374 31.0409 203.907 30.6876C203.094 30.0855 202.453 29.2821 202.045 28.3565C201.62 27.4602 201.425 26.4715 201.48 25.4807C201.537 24.4801 201.883 23.5175 202.477 22.71C203.052 21.9534 203.79 21.3351 204.635 20.9004C205.074 20.6649 205.553 20.5141 206.048 20.4558C206.587 20.3942 207.132 20.5256 207.584 20.8268C208.31 21.4445 208.811 22.2849 209.009 23.2172C209.236 24.0625 209.374 24.929 209.422 25.8027L209.157 25.4863C210.258 25.714 211.404 25.5552 212.403 25.0369C213.422 24.5105 214.342 23.8097 215.12 22.9661C216.678 21.2318 218.005 19.3029 219.067 17.2276C220.169 15.1648 221.165 13.0415 222.091 10.8861C223.017 8.73809 223.871 6.52451 224.595 4.33057C224.668 4.10713 224.81 3.91253 225.001 3.77433C225.191 3.63613 225.42 3.56134 225.656 3.56055C225.891 3.55976 226.12 3.63301 226.312 3.76993C226.503 3.90684 226.646 4.10049 226.722 4.32343L226.737 4.36969C227.753 7.44177 228.875 10.5269 230.106 13.5183C230.748 15.0023 231.42 16.4677 232.175 17.8656C232.841 19.208 233.771 20.4022 234.91 21.3767L235.014 21.4517C235.103 21.5163 235.177 21.5991 235.231 21.6946C235.286 21.7902 235.319 21.8962 235.329 22.0056C235.517 24.0959 235.567 26.1675 235.552 28.2544C235.541 29.2999 235.473 30.344 235.348 31.3821C235.262 32.4367 235.002 33.4697 234.577 34.4389C234.565 34.4634 234.544 34.4826 234.519 34.4926C234.494 34.5027 234.465 34.5029 234.44 34.4933C234.414 34.4837 234.393 34.4649 234.381 34.4407C234.369 34.4164 234.366 34.3884 234.373 34.362L234.375 34.3533C234.605 33.3681 234.695 32.3556 234.644 31.3453C234.618 30.328 234.531 29.3122 234.447 28.2961C234.263 26.2671 233.955 24.2311 233.623 22.2351L234.042 22.8637C232.543 21.8444 231.301 20.4924 230.411 18.9134C229.524 17.4705 228.73 15.9722 228.034 14.4278C226.653 11.3784 225.499 8.23099 224.582 5.01126L226.724 5.05037C225.877 7.33997 224.937 9.52988 223.905 11.7096C222.88 13.8925 221.698 15.9984 220.369 18.0106C219.054 20.0531 217.499 21.9307 215.737 23.6034C214.834 24.4428 213.809 25.1399 212.696 25.6707C211.55 26.221 210.258 26.3886 209.009 26.1488C208.939 26.1343 208.875 26.0973 208.828 26.0435C208.78 25.9896 208.751 25.9218 208.745 25.8502L208.744 25.8322C208.692 25.0188 208.537 24.2154 208.282 23.441C208.098 22.7151 207.671 22.0739 207.073 21.6235C205.989 21.0711 204.393 22.3845 203.692 23.5236C203.357 24.14 203.186 24.8323 203.196 25.534C203.205 26.2356 203.396 26.923 203.748 27.5298C204.057 28.1413 204.501 28.6751 205.045 29.0914C205.254 29.2504 205.496 29.3581 205.754 29.4057C205.827 29.4203 205.903 29.4189 205.976 29.4018C206.049 29.3847 206.117 29.3522 206.176 29.3064L206.261 29.247C206.471 29.1008 206.73 29.0439 206.982 29.0888C207.233 29.1336 207.457 29.2766 207.603 29.4862C207.652 29.5576 207.692 29.6351 207.721 29.7167C208.215 31.1166 208.827 32.5329 209.441 33.9151C210.073 35.2955 210.76 36.65 211.518 37.9558C212.262 39.2609 213.14 40.4845 214.138 41.6066C215.086 42.7712 216.399 43.5825 217.864 43.9098C217.879 43.9121 217.892 43.9171 217.905 43.9247C217.917 43.9323 217.928 43.9422 217.936 43.9539C217.945 43.9656 217.951 43.9789 217.955 43.993C217.958 44.0071 217.959 44.0217 217.956 44.036C217.952 44.0609 217.94 44.0836 217.921 44.1005C217.902 44.1173 217.878 44.1273 217.853 44.1289V44.1289Z" fill="#283766"/>
<path d="M212.443 40.3519C212.537 41.123 212.617 41.8942 212.688 42.6653C212.784 43.4672 212.778 44.2779 212.67 45.0783C212.422 46.7365 211.713 48.2914 210.623 49.5654C210.071 50.2092 209.431 50.7724 208.723 51.2386C208.373 51.4697 208.01 51.6803 207.636 51.8697L206.598 52.3871C205.21 53.0659 203.826 53.7561 202.413 54.3809C199.596 55.6559 196.672 56.6902 193.774 57.7705C192.319 58.2956 190.874 58.8438 189.445 59.4273C188.006 59.9275 186.631 60.5944 185.347 61.4144C182.935 63.2345 180.97 65.5798 179.599 68.2726C178.143 70.9217 176.906 73.686 175.902 76.5375C173.957 82.3069 172.408 88.2021 171.264 94.1821L170.591 93.2284C172.274 93.6616 173.983 93.9871 175.708 94.2028C176.569 94.313 177.437 94.3679 178.306 94.3671C179.173 94.3798 180.036 94.2481 180.859 93.9772C180.873 93.9719 180.887 93.9692 180.901 93.9694C180.916 93.9696 180.93 93.9727 180.943 93.9784C180.957 93.9841 180.969 93.9924 180.979 94.0028C180.989 94.0132 180.997 94.0254 181.002 94.0389C181.011 94.0626 181.012 94.0887 181.004 94.1128C180.996 94.137 180.981 94.1579 180.96 94.1721C180.166 94.6387 179.288 94.9452 178.376 95.0743C177.478 95.2374 176.567 95.3222 175.654 95.3279C174.746 95.347 173.838 95.3185 172.933 95.2426C172.025 95.1698 171.137 95.0794 170.217 94.921C170.014 94.886 169.831 94.7759 169.705 94.6125C169.579 94.4491 169.519 94.2443 169.537 94.0388L169.544 93.967C169.838 90.854 170.344 87.7647 171.06 84.7208C171.758 81.6679 172.697 78.6753 173.869 75.7711C174.998 72.8269 176.454 70.019 178.211 67.4005C179.988 64.7677 182.277 62.52 184.942 60.7915C186.301 60.0184 187.716 59.3483 189.174 58.7867C190.588 58.1741 191.976 57.5008 193.349 56.7948C196.105 55.4082 198.809 53.9157 201.595 52.6069C202.982 51.9401 204.393 51.3254 205.793 50.6854L206.846 50.2112C207.17 50.0734 207.486 49.9167 207.792 49.742C208.395 49.3925 208.951 48.968 209.447 48.4785C210.466 47.4741 211.212 46.2261 211.613 44.8527C211.818 44.1398 211.94 43.406 211.978 42.6653C212.049 41.8942 212.129 41.1231 212.224 40.352C212.227 40.3252 212.24 40.3005 212.26 40.2826C212.28 40.2648 212.306 40.2549 212.333 40.2549C212.36 40.2549 212.386 40.2648 212.406 40.2826C212.427 40.3005 212.439 40.3252 212.443 40.352L212.443 40.3519Z" fill="#283766"/>
<path d="M181.13 100.25C181.748 102.408 182.078 104.638 182.11 106.882C182.228 109.12 182.245 111.36 182.162 113.602C182.095 115.843 181.949 118.083 181.688 120.32C181.47 122.595 181.05 124.846 180.432 127.046L179.464 125.765L193.177 125L206.895 124.351L220.616 123.761C225.189 123.543 229.763 123.417 234.333 123.015C232.095 123.523 229.821 123.888 227.549 124.21C225.277 124.555 222.998 124.833 220.717 125.084C216.155 125.588 211.586 125.992 207.013 126.329C202.442 126.69 197.864 126.928 193.288 127.186C188.708 127.393 184.132 127.607 179.546 127.716L179.531 127.716C179.403 127.719 179.275 127.697 179.155 127.651C179.035 127.604 178.926 127.535 178.833 127.446C178.74 127.357 178.665 127.251 178.613 127.134C178.561 127.016 178.533 126.89 178.53 126.761C178.527 126.65 178.544 126.54 178.578 126.434C179.209 124.356 179.69 122.236 180.018 120.09C180.375 117.916 180.634 115.717 180.87 113.516C181.081 111.312 181.276 109.101 181.381 106.885C181.538 104.671 181.454 102.446 181.13 100.25V100.25Z" fill="#283766"/>
<path d="M236.694 127.188C232.785 127.852 215.442 127.495 206.471 127.26C206.471 127.26 225.66 111.194 225.72 105.167C225.72 105.167 232.408 122.38 234.333 123.015L236.694 127.188Z" fill="#283766"/>
<path d="M171.402 94.2676C171.202 95.9839 170.902 97.6713 170.569 99.349C170.243 101.029 169.862 102.692 169.461 104.35C169.057 106.008 168.622 107.656 168.156 109.294C167.72 110.942 167.184 112.561 166.699 114.195L166.69 114.227C166.667 114.303 166.634 114.375 166.591 114.442C165.435 116.241 164.256 118.027 163.021 119.778C161.772 121.521 160.497 123.25 159.092 124.9C159.886 122.883 160.812 120.946 161.762 119.023C162.726 117.108 163.747 115.228 164.79 113.361L164.683 113.608C165.15 111.969 165.566 110.316 166.082 108.691C166.564 107.057 167.081 105.433 167.633 103.818C168.183 102.204 168.754 100.596 169.38 99.003C169.998 97.4084 170.65 95.8235 171.402 94.2676Z" fill="#283766"/>
<path d="M180.325 121.798C180.625 122.402 180.792 123.063 180.816 123.737C180.84 124.411 180.72 125.082 180.465 125.706C180.386 125.936 180.26 126.147 180.095 126.326C179.93 126.504 179.729 126.645 179.505 126.74C179.596 126.335 179.639 125.921 179.633 125.505C179.638 125.102 179.669 124.7 179.702 124.293C179.765 123.432 179.976 122.588 180.325 121.798V121.798Z" fill="#283766"/>
<path d="M202.264 127.188C204.764 126.194 207.142 124.918 209.353 123.386C211.531 121.882 213.579 120.2 215.478 118.356C216.416 117.423 217.364 116.497 218.217 115.476C219.154 114.527 219.929 113.441 220.803 112.424C221.253 111.924 221.617 111.361 222.027 110.827L223.254 109.214C224.045 108.116 224.793 106.983 225.66 105.895C225.229 107.199 224.727 108.487 224.183 109.759C223.541 110.976 222.966 112.248 222.204 113.407C220.737 115.782 218.991 117.972 217.003 119.931C214.984 121.879 212.702 123.535 210.225 124.851C207.775 126.205 205.057 127.003 202.264 127.188V127.188Z" fill="#283766"/>
<path d="M191.262 57.6838C192.313 51.531 193.599 45.4454 194.908 39.3749L196.879 30.2892C197.215 28.7805 197.56 27.2761 197.807 25.7756C197.921 25.0353 197.97 24.3376 198.062 23.477C198.169 22.6842 198.32 21.898 198.514 21.122C199.284 18.0716 200.33 15.0977 201.639 12.2369C202.295 10.8049 203.051 9.42045 203.9 8.09361C204.74 6.73866 205.724 5.47806 206.834 4.33361C209.094 1.88789 212.175 0.360874 215.49 0.0445394C216.322 -0.0187268 217.158 -0.0145851 217.989 0.0569143C218.811 0.151035 219.625 0.303551 220.425 0.513305C222.005 0.93199 223.537 1.51734 224.994 2.25951L224.239 2.15951C225.957 1.80899 227.726 1.78136 229.454 2.07803C231.218 2.36884 232.883 3.0891 234.302 4.1753C235.008 4.72676 235.648 5.3575 236.211 6.05513C236.464 6.41737 236.69 6.79724 236.928 7.16887C237.18 7.52736 237.388 7.91434 237.549 8.32176C237.922 9.0982 238.21 9.91234 238.409 10.7502C238.636 11.5631 238.794 12.3939 238.88 13.2335C238.942 14.0642 239.08 14.8939 239.071 15.7203L239.002 18.1918C238.922 19.8101 238.749 21.3476 238.714 22.9387C238.658 24.5137 238.684 26.0906 238.792 27.6628C238.784 29.2206 239.214 30.7493 240.034 32.0738L240.044 32.0876C240.061 32.1089 240.069 32.1355 240.067 32.1622C240.065 32.189 240.053 32.2141 240.033 32.2327C240.014 32.2513 239.989 32.2621 239.962 32.263C239.935 32.264 239.909 32.255 239.888 32.2378C239.284 31.66 238.831 30.9423 238.57 30.1481C238.306 29.3748 238.093 28.5847 237.934 27.7831C237.637 26.189 237.449 24.5763 237.373 22.9565C237.266 21.3543 237.268 19.7002 237.259 18.1285L237.171 15.8107C237.123 15.0427 236.967 14.2935 236.874 13.5368C236.764 12.7922 236.588 12.0588 236.349 11.3449C236.145 10.6384 235.876 9.95226 235.545 9.29528C235.408 8.96163 235.228 8.64757 235.009 8.36128C234.808 8.0672 234.62 7.76169 234.413 7.47437C233.956 6.94378 233.442 6.46492 232.88 6.04637C231.757 5.177 230.434 4.60133 229.032 4.37138C227.612 4.09516 226.153 4.06971 224.724 4.29616L224.656 4.30772C224.421 4.34804 224.179 4.30876 223.969 4.19612C221.431 2.7046 218.543 1.91363 215.599 1.90405C212.64 2.02025 209.818 3.18143 207.633 5.18141C205.36 7.23963 203.529 9.73871 202.252 12.5267C200.914 15.3068 199.997 18.2707 199.533 21.3209C199.415 22.0692 199.34 22.8235 199.307 23.5803C199.294 24.2703 199.309 25.1308 199.254 25.9363C199.122 27.5237 198.942 29.0878 198.684 30.6325C198.196 33.729 197.483 36.7687 196.746 39.7977C195.254 45.8518 193.544 51.8455 191.475 57.7392C191.466 57.7652 191.447 57.7869 191.422 57.7999C191.398 57.8128 191.37 57.8162 191.343 57.8092C191.316 57.8022 191.293 57.7854 191.278 57.7622C191.263 57.7389 191.258 57.711 191.262 57.6837L191.262 57.6838Z" fill="#283766"/>
<path d="M152.284 128.753C152.6 128.036 153.031 127.374 153.56 126.796C154.099 126.197 154.724 125.682 155.414 125.266C156.825 124.444 158.411 123.969 160.041 123.881L159.961 123.887C161.076 123.766 162.202 123.782 163.313 123.935C164.412 124.084 165.488 124.37 166.517 124.785C167.546 125.204 168.502 125.785 169.349 126.505C170.183 127.208 170.864 128.075 171.349 129.053C170.511 128.462 169.623 127.945 168.695 127.507C167.808 127.098 166.881 126.78 165.928 126.559C164.056 126.112 162.131 125.928 160.208 126.013L160.127 126.019C158.751 126.019 157.384 126.234 156.074 126.657C155.405 126.881 154.759 127.168 154.143 127.513C153.496 127.885 152.875 128.299 152.284 128.753Z" fill="#283766"/>
<path d="M171.402 136.485C164.843 152.242 154.681 146.026 154.681 146.026C154.681 146.026 159.243 143.277 160.027 130.092C160.027 130.092 162.008 127.193 164.565 130.092C166.701 132.371 168.985 134.506 171.402 136.485V136.485Z" fill="#283766"/>
<path d="M171.496 136.461C171.27 137.271 170.989 138.208 170.649 139.171C170.271 140.072 169.84 140.879 169.405 141.732C169.161 142.138 168.879 142.525 168.605 142.917C168.346 143.322 168.054 143.705 167.733 144.063L166.726 145.115C166.364 145.446 165.982 145.755 165.583 146.041C163.972 147.218 162.015 147.825 160.02 147.767C158.098 147.703 156.218 147.194 154.527 146.279C154.485 146.256 154.449 146.224 154.422 146.184C154.396 146.144 154.38 146.098 154.377 146.051C154.373 146.003 154.381 145.956 154.401 145.912C154.42 145.869 154.451 145.831 154.489 145.802L154.528 145.773C155.572 144.869 156.36 143.708 156.813 142.404C157.324 141.102 157.711 139.755 157.97 138.381C158.135 137.704 158.226 137.004 158.369 136.322C158.468 135.627 158.578 134.935 158.661 134.239C158.723 133.538 158.803 132.841 158.851 132.139C158.879 131.434 158.943 130.733 158.995 130.031L159 129.971C159.012 129.804 159.072 129.643 159.174 129.51C159.646 128.828 160.313 128.306 161.088 128.013C161.503 127.858 161.946 127.791 162.388 127.817C162.83 127.842 163.262 127.959 163.657 128.16C164.31 128.519 164.88 129.01 165.332 129.602C165.712 130.06 166.099 130.52 166.497 130.977C167.298 131.885 168.125 132.786 168.958 133.686L170.208 135.045C170.64 135.522 171.018 135.895 171.496 136.461ZM171.308 136.509C170.777 136.221 170.265 135.9 169.777 135.545C169.26 135.199 168.752 134.841 168.258 134.466C167.261 133.723 166.291 132.943 165.36 132.104C164.889 131.69 164.433 131.255 163.991 130.797C163.663 130.434 163.268 130.137 162.828 129.923C162.671 129.847 162.499 129.806 162.325 129.805C162.15 129.803 161.978 129.84 161.82 129.913C161.452 130.092 161.131 130.353 160.88 130.676L161.058 130.154C160.995 130.882 160.945 131.612 160.857 132.337C160.764 133.063 160.639 133.787 160.531 134.51C160.402 135.233 160.245 135.952 160.099 136.67C159.904 137.382 159.747 138.099 159.499 138.797C159.038 140.204 158.428 141.558 157.681 142.837C156.967 144.16 155.999 145.329 154.834 146.28L154.835 145.774C155.613 146.198 156.456 146.491 157.33 146.641C157.766 146.712 158.208 146.743 158.65 146.734C159.087 146.743 159.523 146.709 159.953 146.632C161.627 146.323 163.208 145.637 164.577 144.624C165.979 143.591 167.224 142.361 168.276 140.973C168.764 140.24 169.335 139.503 169.816 138.785L171.308 136.509Z" fill="#283766"/>
<path d="M165.691 113.902C166.234 113.573 166.831 113.344 167.454 113.224C168.064 113.094 168.685 113.029 169.309 113.03C170.567 113.013 171.81 113.313 172.923 113.902C172.315 114.01 171.7 114.074 171.083 114.092C170.484 114.12 169.894 114.124 169.303 114.126C168.096 114.131 166.889 114.056 165.691 113.902Z" fill="#283766"/>
<path d="M270.899 63.1958C272.508 62.659 274.195 62.3948 275.891 62.4141C277.624 62.4072 279.343 62.7291 280.956 63.3626C282.59 64.0534 284.046 65.1059 285.215 66.4409C286.365 67.7841 287.266 69.3212 287.877 70.9804C289.027 74.2507 289.576 77.7016 289.499 81.167C289.43 84.5558 289.152 87.9371 288.665 91.2914C287.792 97.9458 286.738 104.583 285.317 111.15C283.99 117.74 282.108 124.205 279.69 130.478C280.538 127.234 281.264 123.97 281.866 120.686C282.511 117.409 283.08 114.12 283.635 110.83C284.705 104.242 285.657 97.6366 286.491 91.0131C286.992 87.7457 287.305 84.4523 287.429 81.149C287.582 77.9091 287.191 74.6664 286.272 71.5556C285.84 70.029 285.107 68.6039 284.118 67.3638C283.128 66.1236 281.901 65.0934 280.508 64.3333C277.513 62.9228 274.141 62.5235 270.899 63.1958V63.1958Z" fill="#283766"/>
<path d="M169.307 127.189C174.965 126.735 180.624 126.498 186.282 126.336C191.94 126.161 197.599 126.115 203.257 126.093C208.915 126.112 214.574 126.159 220.232 126.333C225.89 126.494 231.549 126.732 237.207 127.189C231.549 127.645 225.89 127.884 220.232 128.045C214.574 128.219 208.915 128.266 203.257 128.285C197.599 128.263 191.94 128.216 186.282 128.041C180.624 127.88 174.965 127.643 169.307 127.189Z" fill="#283766"/>
<path d="M261.023 130.476L258.178 130.427C255.949 132.354 253.189 133.559 250.261 133.882C248.343 134.047 246.413 133.798 244.599 133.151C242.786 132.505 241.133 131.477 239.751 130.137L171.349 129.053C172.925 131.032 173.869 133.44 174.059 135.963C174.059 135.963 172.926 140.395 164.149 129.585C164.149 129.585 160.655 128.202 159.92 130.311C159.194 132.431 159.842 149.163 149.11 146.976C149.11 146.976 147.31 135.053 152.284 128.753L143.426 128.612V129.941C143.426 130.741 143.269 131.534 142.962 132.273C142.656 133.013 142.207 133.684 141.641 134.25C141.075 134.816 140.403 135.265 139.664 135.571C138.925 135.878 138.132 136.035 137.332 136.035H94.9781L95.35 142.525C95.35 142.099 95.3693 141.857 95.3693 141.857H112.712L99.0566 155.589H77.8044C75.9333 155.588 74.138 154.85 72.8069 153.535C71.4757 152.22 70.7157 150.434 70.6911 148.563L70.5361 136.035H28.6084C27.8081 136.035 27.0156 135.878 26.2762 135.572C25.5368 135.265 24.865 134.816 24.299 134.25C23.7331 133.685 23.2842 133.013 22.9779 132.273C22.6717 131.534 22.514 130.741 22.514 129.941V126.74L24.299 134.25L14.5001 150.789L2.00012 163.206C31.7979 162.945 3.59567 163.228 33.3932 163.206C63.2006 163.099 92.9983 163.206 122.796 163.245C152.594 163.254 182.392 163.457 212.199 163.612L255 163.245L282 146.976L296 139L312.5 129.053L261.023 130.476ZM227.935 151.283L158.971 150.789L163.046 146.512L171.117 137.144H238.822L227.935 151.283Z" fill="#283766"/>
<path d="M94.9823 135.886C99.2541 135.738 103.526 135.637 107.798 135.538C112.07 135.437 116.342 135.32 120.614 135.27L133.43 135.073L136.634 135.024C136.893 135.017 137.185 135.02 137.418 135.006C137.64 134.999 137.862 134.975 138.081 134.937C138.518 134.866 138.943 134.737 139.346 134.555C140.146 134.187 140.836 133.618 141.35 132.904C141.863 132.189 142.181 131.353 142.274 130.478L142.143 104.967C142.103 96.423 142.128 87.8791 142.221 79.3352L142.621 53.7036L142.832 40.8878C142.885 40.1547 142.792 39.4185 142.558 38.7217C142.325 38.0249 141.955 37.3815 141.471 36.8286C140.986 36.2757 140.397 35.8244 139.737 35.5009C139.078 35.1773 138.36 34.988 137.626 34.9437C136.611 34.9013 135.505 34.9129 134.448 34.9051C117.361 34.82 100.273 34.98 83.1852 35.2292C66.0973 35.5081 49.0095 35.6983 31.9218 35.7998L28.7179 35.8183C27.8819 35.812 27.0587 36.0232 26.329 36.4311C25.6139 36.8383 25.0184 37.4264 24.6022 38.1363C24.186 38.8462 23.9637 39.6531 23.9576 40.476L24.0284 53.2777L24.0638 78.9094L23.9144 104.541L23.6613 130.13C23.686 131.009 23.941 131.866 24.4008 132.616C24.8605 133.365 25.5089 133.981 26.2811 134.402C27.0802 134.832 27.9774 135.048 28.8849 135.028L32.0887 135.082L44.9047 135.297C53.4486 135.449 61.9925 135.645 70.5363 135.886C70.5741 135.887 70.61 135.903 70.6364 135.93C70.6627 135.957 70.6775 135.993 70.6775 136.031C70.6775 136.069 70.6627 136.105 70.6364 136.132C70.61 136.159 70.5741 136.175 70.5363 136.176C61.9923 136.417 53.4485 136.614 44.9047 136.765L32.0887 136.981L28.8849 137.034C27.6463 137.088 26.4144 136.827 25.3038 136.276C24.1725 135.704 23.214 134.841 22.5267 133.776C21.8393 132.71 21.4479 131.481 21.3927 130.214L21.1166 104.541L20.9672 78.9093L21.0026 53.2777L21.0795 40.4479C21.1024 39.1242 21.4733 37.8298 22.1549 36.6947C22.8365 35.5597 23.8048 34.6241 24.9625 33.9818C26.1137 33.3543 27.4069 33.0335 28.7179 33.0504L31.9218 33.0689C49.0094 33.1536 66.0972 33.3439 83.1852 33.6396C100.273 33.8887 117.361 34.0487 134.448 33.9636C135.528 33.9702 136.559 33.9352 137.678 33.9573C138.841 34.0036 139.97 34.359 140.95 34.9871C141.934 35.618 142.735 36.4971 143.271 37.5357C143.539 38.0554 143.739 38.6074 143.867 39.178C143.974 39.7416 144.027 40.314 144.026 40.8877L144.237 53.7035L144.637 79.3352C144.724 87.879 144.75 96.4229 144.714 104.967L144.662 117.783L144.61 124.191L144.582 127.395L144.568 128.997L144.561 129.798C144.559 130.06 144.536 130.414 144.512 130.717C144.365 131.975 143.888 133.173 143.129 134.187C142.37 135.202 141.356 135.997 140.19 136.492C139.611 136.734 139.004 136.897 138.382 136.979C138.074 137.022 137.763 137.045 137.452 137.046C137.151 137.052 136.908 137.04 136.634 137.039L133.43 136.989L120.614 136.793C116.342 136.743 112.07 136.626 107.798 136.525C103.526 136.425 99.2541 136.324 94.9823 136.176C94.9447 136.175 94.909 136.159 94.8828 136.132C94.8567 136.105 94.842 136.069 94.842 136.031C94.842 135.994 94.8567 135.957 94.8828 135.93C94.909 135.903 94.9447 135.887 94.9823 135.886V135.886Z" fill="#283766"/>
<path d="M134.651 127.185C131.3 127.571 127.95 127.766 124.6 127.894C121.25 128.034 117.901 128.06 114.551 128.065C111.202 128.034 107.853 127.978 104.504 127.81C101.156 127.653 97.8073 127.428 94.4596 127.011C97.8107 126.623 101.161 126.427 104.511 126.299C107.861 126.16 111.21 126.133 114.56 126.131C117.909 126.165 121.258 126.22 124.607 126.389C127.955 126.546 131.304 126.77 134.651 127.185Z" fill="#283766"/>
<path d="M70.42 126.905C67.1578 127.292 63.8964 127.487 60.6351 127.616C57.3739 127.757 54.1131 127.784 50.8527 127.79C47.5922 127.759 44.3317 127.704 41.0717 127.537C37.8117 127.381 34.5521 127.157 31.2931 126.74C34.5555 126.351 37.817 126.154 41.078 126.026C44.3392 125.886 47.6 125.859 50.8607 125.855C54.1212 125.888 57.3817 125.943 60.6415 126.111C63.9015 126.268 67.1613 126.491 70.42 126.905Z" fill="#283766"/>
<path d="M221.119 26.959C221.546 26.9444 221.95 26.7648 222.247 26.4578C222.543 26.1509 222.709 25.7408 222.709 25.314C222.709 24.8872 222.543 24.477 222.247 24.1701C221.95 23.8632 221.546 23.6835 221.119 23.6689C220.693 23.6835 220.288 23.8632 219.992 24.1701C219.695 24.477 219.529 24.8872 219.529 25.314C219.529 25.7408 219.695 26.1509 219.992 26.4578C220.288 26.7648 220.693 26.9444 221.119 26.959V26.959Z" fill="#283766"/>
<path d="M230.891 26.959C231.317 26.9444 231.722 26.7648 232.018 26.4578C232.315 26.1509 232.481 25.7408 232.481 25.314C232.481 24.8872 232.315 24.477 232.018 24.1701C231.722 23.8632 231.317 23.6835 230.891 23.6689C230.464 23.6835 230.06 23.8632 229.763 24.1701C229.467 24.477 229.301 24.8872 229.301 25.314C229.301 25.7408 229.467 26.1509 229.763 26.4578C230.06 26.7648 230.464 26.9444 230.891 26.959V26.959Z" fill="#283766"/>
<path d="M233.753 21.563C233.247 21.6442 232.738 21.6985 232.226 21.7255C231.763 21.7641 231.33 21.7648 230.896 21.7744C230.462 21.7803 230.029 21.7654 229.566 21.7408C229.049 21.7237 228.535 21.6643 228.029 21.563C228.335 21.0869 228.776 20.7122 229.295 20.486C229.795 20.2535 230.339 20.132 230.89 20.1299C231.441 20.1278 231.987 20.2451 232.488 20.4738C233.016 20.6922 233.459 21.074 233.753 21.563Z" fill="#283766"/>
<path d="M222.402 21.5639C221.975 21.6917 221.537 21.7815 221.094 21.8324C220.725 21.8818 220.353 21.9067 219.981 21.9067C219.612 21.9061 219.243 21.8816 218.876 21.8333C218.432 21.7859 217.993 21.6957 217.566 21.5639C217.803 21.128 218.175 20.7807 218.626 20.5743C219.048 20.3611 219.515 20.2539 219.987 20.2622C220.456 20.2587 220.92 20.3668 221.34 20.5774C221.793 20.7805 222.166 21.1272 222.402 21.5639V21.5639Z" fill="#283766"/>
<path d="M229.311 28.8672C229.312 29.1291 229.258 29.3882 229.153 29.6282C229.048 29.8682 228.895 30.084 228.703 30.2621C228.321 30.6347 227.842 30.8924 227.321 31.0058C226.821 31.1117 226.304 31.1079 225.805 30.9948C225.318 30.8837 224.863 30.6623 224.475 30.3478C224.932 30.2488 225.394 30.1796 225.86 30.1408C226.287 30.0639 226.7 30.0442 227.081 29.9365C227.903 29.7754 228.671 29.4074 229.311 28.8672V28.8672Z" fill="#283766"/>
<path d="M223.048 35.5326C223.15 35.2916 223.301 35.0743 223.491 34.8944C223.682 34.7144 223.907 34.5757 224.154 34.4869C224.651 34.2933 225.192 34.2434 225.716 34.3428C226.218 34.4411 226.692 34.6468 227.107 34.9459C227.512 35.2386 227.844 35.6203 228.078 36.0615C227.619 35.9741 227.166 35.8568 226.723 35.7104C226.299 35.6141 225.912 35.4706 225.52 35.4211C224.699 35.2477 223.849 35.2861 223.048 35.5326V35.5326Z" fill="#283766"/>
<path d="M225.563 20.8301C225.99 20.8155 226.394 20.6358 226.69 20.3289C226.987 20.022 227.153 19.6119 227.153 19.1851C227.153 18.7583 226.987 18.3482 226.69 18.0413C226.394 17.7344 225.99 17.5547 225.563 17.54C225.136 17.5547 224.732 17.7344 224.436 18.0413C224.139 18.3482 223.973 18.7583 223.973 19.1851C223.973 19.6119 224.139 20.022 224.436 20.3289C224.732 20.6358 225.136 20.8155 225.563 20.8301V20.8301Z" fill="#B21919"/>
<path d="M260.442 50.5189L247.155 47.7607V53.848C247.157 61.7044 245.846 69.5059 243.274 76.9293L240.199 85.7972L250.497 104.614C250.497 104.614 271.978 106.262 273.923 106.098C273.923 106.098 277.823 52.9577 260.442 50.5189ZM248.209 92.9556C248.074 91.4266 247.968 89.8975 247.958 88.3587C247.914 86.8197 248.021 85.2801 248.277 83.7618C248.374 85.2909 248.568 86.8006 248.713 88.32L249.177 92.8589C249.448 95.8977 249.719 98.9365 249.758 102.014C249.002 99.0405 248.484 96.0114 248.209 92.9556V92.9556ZM253 101.869C252.623 101.856 252.266 101.698 252.004 101.427C251.742 101.156 251.596 100.794 251.596 100.417C251.596 100.04 251.742 99.6781 252.004 99.4073C252.266 99.1364 252.623 98.978 253 98.9655C253.377 98.9778 253.734 99.1362 253.996 99.4071C254.258 99.678 254.405 100.04 254.405 100.417C254.405 100.794 254.258 101.156 253.996 101.427C253.734 101.698 253.377 101.857 253 101.869V101.869ZM259.029 102.672C258.653 102.659 258.297 102.5 258.036 102.229C257.774 101.958 257.628 101.597 257.628 101.22C257.628 100.844 257.774 100.482 258.036 100.212C258.297 99.9409 258.653 99.7821 259.029 99.7688C259.405 99.7821 259.762 99.9409 260.023 100.212C260.284 100.482 260.43 100.844 260.43 101.22C260.43 101.597 260.284 101.958 260.023 102.229C259.762 102.5 259.405 102.659 259.029 102.672V102.672ZM264.681 102.982C264.304 102.969 263.947 102.811 263.685 102.54C263.423 102.269 263.277 101.907 263.277 101.53C263.277 101.153 263.423 100.791 263.685 100.52C263.947 100.249 264.304 100.091 264.681 100.078C265.058 100.091 265.415 100.249 265.677 100.52C265.939 100.791 266.086 101.153 266.086 101.53C266.086 101.907 265.939 102.269 265.677 102.54C265.415 102.811 265.058 102.969 264.681 102.982V102.982ZM270.352 103.466C269.975 103.453 269.618 103.295 269.356 103.024C269.094 102.753 268.948 102.391 268.948 102.014C268.948 101.637 269.094 101.275 269.356 101.004C269.618 100.733 269.975 100.575 270.352 100.562C270.729 100.575 271.086 100.733 271.348 101.004C271.61 101.275 271.757 101.637 271.757 102.014C271.757 102.391 271.61 102.753 271.348 103.024C271.086 103.295 270.729 103.453 270.352 103.466V103.466Z" fill="#283766"/>
<path d="M238.467 44.416C239.979 44.7965 241.46 45.2893 242.898 45.8902C244.33 46.4733 245.725 47.0606 247.158 47.7643C245.569 47.7496 243.998 47.4177 242.539 46.788C241.065 46.2165 239.691 45.4159 238.467 44.416V44.416Z" fill="#283766"/>
<path d="M211.135 69.8121C212.245 67.83 213.513 65.9403 214.925 64.1611C216.303 62.3551 217.826 60.664 219.477 59.1045C218.37 61.0878 217.102 62.9776 215.688 64.7555C214.308 66.5603 212.786 68.2513 211.135 69.8121Z" fill="#283766"/>
<path d="M270.788 105.921C270.226 108.602 269.531 111.253 268.703 113.864C267.893 116.497 266.877 119.063 265.666 121.537C264.461 124.052 262.952 126.409 261.172 128.556C259.361 130.777 257.055 132.545 254.439 133.717C251.739 134.892 248.734 135.171 245.865 134.512C243.01 133.833 240.42 132.321 238.423 130.17L237.674 129.374L237.033 128.55C236.609 127.998 236.164 127.46 235.777 126.885L234.583 125.18L233.468 123.43C232.021 121.079 230.707 118.649 229.533 116.151C227.18 111.183 225.222 106.038 223.676 100.763C222.116 95.5095 220.893 90.1623 220.013 84.7536C219.149 79.3432 218.645 73.8813 218.505 68.404C218.418 65.6537 218.501 62.9006 218.752 60.1605C218.908 58.788 219.069 57.4123 219.36 56.0471C219.615 54.6313 220.041 53.2517 220.628 51.9386L220.569 52.0693C220.903 51.1304 221.317 50.2217 221.805 49.3527C222.286 48.484 222.843 47.6591 223.468 46.8875C224.102 46.1024 224.819 45.3882 225.606 44.7576C226.413 44.1191 227.298 43.5868 228.24 43.1736L228.006 43.3127C228.797 42.6142 229.529 41.8517 230.195 41.0332C230.849 40.2426 231.399 39.3713 231.831 38.4407C232.025 38.0121 232.163 37.56 232.241 37.0958C232.285 36.5108 232.359 35.9285 232.463 35.3513L232.636 34.8161C232.723 34.6177 232.827 34.4273 232.947 34.247C233.104 34.0169 233.307 33.8217 233.544 33.6735C233.78 33.5252 234.044 33.4272 234.319 33.3853C234.84 33.3229 235.366 33.4468 235.805 33.735C236.012 33.8656 236.198 34.0272 236.356 34.2142C236.611 34.4994 236.759 34.8646 236.774 35.2469L234.698 35.1889C234.727 34.7753 234.807 34.3671 234.939 33.974C235.081 33.5226 235.32 33.1076 235.639 32.758C236.045 32.3335 236.596 32.079 237.182 32.046C237.667 32.0272 238.15 32.1184 238.595 32.3128L237.126 33.0973C237.184 32.7932 237.269 32.4948 237.38 32.2053C237.506 31.8549 237.694 31.5297 237.935 31.2452C238.125 31.0237 238.366 30.852 238.638 30.7451C238.968 30.6159 239.331 30.5997 239.671 30.6989C240.101 30.8366 240.485 31.0927 240.777 31.438L239.358 31.2574C239.717 31.0187 240.116 30.8463 240.536 30.7483C240.815 30.686 241.103 30.6778 241.385 30.724C241.748 30.7839 242.085 30.9535 242.349 31.21C242.724 31.6099 242.951 32.1271 242.99 32.6744C243.008 32.8708 243.017 33.0681 243.015 33.2653L242.996 33.7242C242.935 34.9283 242.809 36.1282 242.62 37.3188C242.331 39.8296 241.451 42.2361 240.052 44.3411C239.606 44.9283 239.257 45.2731 238.862 45.7342L237.707 47.0406L235.396 49.6533L230.747 54.8536L231.014 53.8995C232.57 63.2342 235.214 72.3546 238.892 81.0742C240.737 85.4273 242.858 89.691 245.049 93.9152L248.363 100.244L251.774 106.591C251.785 106.612 251.788 106.636 251.782 106.659C251.776 106.681 251.761 106.701 251.741 106.713C251.721 106.725 251.697 106.729 251.674 106.724C251.651 106.719 251.631 106.705 251.618 106.686L251.555 106.591C250.29 104.7 249.009 102.592 247.777 100.578C246.541 98.5376 245.301 96.4974 244.118 94.4234C241.747 90.2795 239.429 86.0964 237.38 81.7467C235.371 77.3789 233.647 72.8859 232.217 68.2959C231.501 66.0014 230.851 63.6872 230.266 61.3534C229.705 59.0153 229.205 56.6641 228.765 54.2996C228.734 54.1337 228.741 53.9628 228.785 53.7998C228.829 53.6368 228.91 53.4859 229.021 53.3585L229.032 53.3452L233.643 48.0922L235.962 45.4783L237.122 44.1713C237.486 43.7505 237.953 43.2625 238.202 42.9142C239.356 41.1072 240.098 39.0686 240.376 36.9428C240.569 35.837 240.702 34.7218 240.775 33.6018L240.798 33.1889C240.806 33.0756 240.788 33.0035 240.791 32.9082C240.781 32.7549 240.709 32.6503 240.809 32.7803C240.864 32.8318 240.932 32.8675 241.006 32.884C241.058 32.884 241.028 32.8844 240.989 32.8877C240.842 32.9257 240.701 32.9846 240.57 33.0625L240.537 33.0838C240.32 33.2209 240.061 33.2759 239.807 33.2388C239.553 33.2018 239.32 33.0752 239.151 32.8819C239.074 32.7933 238.943 32.7131 239.09 32.7832C239.198 32.8038 239.31 32.7956 239.414 32.7594C239.459 32.742 239.501 32.7165 239.537 32.6841C239.469 32.7753 239.415 32.8759 239.377 32.9827C239.312 33.1466 239.261 33.3153 239.222 33.4872C239.189 33.6388 239.123 33.7816 239.03 33.9061C238.937 34.0306 238.819 34.1339 238.683 34.2092C238.548 34.2845 238.397 34.3301 238.242 34.343C238.088 34.3558 237.932 34.3356 237.785 34.2837L237.753 34.2718C237.613 34.207 237.462 34.1693 237.309 34.1608C237.226 34.1681 237.23 34.1563 237.156 34.2178C237.047 34.3446 236.966 34.4924 236.917 34.6519C236.844 34.8635 236.796 35.0828 236.772 35.3054L234.697 35.2474C234.707 35.5513 234.793 35.544 234.764 35.5384C234.742 35.5128 234.717 35.4905 234.688 35.4725C234.614 35.4201 234.552 35.4218 234.592 35.4203C234.635 35.4225 234.668 35.3601 234.606 35.4353C234.581 35.4696 234.551 35.5396 234.516 35.5961L234.429 35.8538C234.322 36.2751 234.329 36.6717 234.22 37.4183C234.107 38.0517 233.912 38.6677 233.639 39.2506C233.115 40.3337 232.449 41.3421 231.658 42.2489C230.896 43.1403 230.06 43.9662 229.16 44.7176C229.099 44.7687 229.031 44.8109 228.959 44.8431L228.926 44.857C228.125 45.187 227.369 45.6173 226.677 46.1376C225.972 46.6741 225.327 47.2853 224.754 47.9606C224.173 48.6487 223.646 49.3801 223.176 50.1486C222.707 50.914 222.302 51.7168 221.965 52.5486C221.948 52.5923 221.927 52.6389 221.906 52.6796C221.349 53.847 220.927 55.0738 220.648 56.3363C220.335 57.6424 220.09 58.9638 219.913 60.2951C219.576 62.9826 219.406 65.6883 219.402 68.3968C219.414 73.8382 219.838 79.2709 220.669 84.6485C221.554 90.0177 222.889 95.3027 224.662 100.447C226.403 105.587 228.54 110.583 231.054 115.392C232.301 117.793 233.649 120.13 235.097 122.404L236.2 124.093L237.362 125.736C237.74 126.292 238.168 126.804 238.577 127.333L239.196 128.122L239.852 128.813C241.571 130.712 243.816 132.057 246.301 132.677C248.79 133.273 251.403 133.075 253.774 132.11C256.174 131.073 258.317 129.52 260.05 127.562C261.834 125.566 263.367 123.36 264.614 120.992C265.884 118.602 267.006 116.136 267.975 113.608C268.949 111.073 269.784 108.479 270.575 105.868C270.579 105.854 270.586 105.841 270.595 105.83C270.604 105.819 270.615 105.809 270.628 105.802C270.64 105.795 270.654 105.791 270.669 105.79C270.683 105.788 270.697 105.789 270.711 105.794C270.738 105.802 270.76 105.819 270.774 105.843C270.788 105.866 270.793 105.894 270.788 105.921V105.921Z" fill="#283766"/>
<path d="M98.0067 154.02C98.0326 154.048 98.0563 154.079 98.0775 154.111L98.0831 154.118L98.0919 154.128L99.2423 155.434C99.2719 155.468 99.2914 155.509 99.2987 155.553C99.306 155.597 99.3007 155.643 99.2835 155.684C99.2663 155.725 99.2378 155.761 99.2013 155.787C99.1648 155.813 99.1217 155.828 99.077 155.831L99.0565 155.832C93.5985 156.155 88.1405 156.352 82.6827 156.456L78.5892 156.526C77.8514 156.559 77.112 156.521 76.3815 156.413C75.2302 156.218 74.136 155.772 73.1765 155.106C72.217 154.441 71.4158 153.572 70.8297 152.562C70.0622 151.227 69.6937 149.7 69.7679 148.162C69.848 142.702 70.0526 137.241 70.1041 131.782C70.1286 126.324 70.0127 120.867 69.7567 115.412C69.7 114.698 69.7129 113.981 69.795 113.27C69.8892 112.533 70.0912 111.814 70.3947 111.136C71.0012 109.752 71.9949 108.571 73.2562 107.738C74.5353 106.892 76.0299 106.431 77.5631 106.408L81.6566 106.332L85.7501 106.279C88.1055 106.251 90.3796 107.139 92.0934 108.755C93.8072 110.371 94.827 112.589 94.9379 114.942C95.577 125.839 95.9742 136.75 96.1293 147.675L96.1298 147.711L96.1288 147.736C96.097 148.265 96.1262 148.796 96.2159 149.319C96.305 149.865 96.4337 150.404 96.6009 150.932C96.9557 152.001 97.4231 153.029 97.9955 153.999C98.003 154.011 98.008 154.025 98.0103 154.039C98.0125 154.053 98.012 154.068 98.0086 154.082C98.0052 154.096 97.9991 154.109 97.9906 154.121C97.9821 154.133 97.9714 154.142 97.9591 154.15C97.9357 154.164 97.9081 154.169 97.8815 154.164C97.8549 154.158 97.831 154.144 97.8143 154.123C97.4619 153.665 97.1334 153.189 96.8302 152.698C96.5303 152.198 96.2625 151.681 96.0284 151.147C95.7945 150.607 95.6002 150.05 95.4471 149.481C95.2822 148.89 95.1895 148.282 95.171 147.669L95.1708 147.73C94.0677 136.86 93.2122 125.975 92.6041 115.076C92.5504 113.898 92.2117 112.751 91.617 111.734C91.0133 110.719 90.1589 109.877 89.136 109.287C88.1051 108.693 86.9396 108.373 85.75 108.356L81.6565 108.303L77.563 108.226C76.3392 108.183 75.128 108.487 74.0691 109.102C73.0101 109.717 72.1463 110.618 71.5772 111.703C71.282 112.253 71.0725 112.845 70.9558 113.459C70.8448 114.099 70.7967 114.749 70.8123 115.399C70.6846 120.859 70.7014 126.317 70.8626 131.773C71.0491 137.229 71.389 142.683 71.604 148.139C71.5892 149.345 71.9037 150.532 72.5137 151.573C73.1232 152.588 74.0025 153.414 75.0537 153.958C75.5768 154.231 76.1375 154.424 76.7175 154.532C77.336 154.633 77.9628 154.674 78.5891 154.653L82.6826 154.724C88.1404 154.828 93.5984 155.025 99.0564 155.348L98.8706 155.745L97.8918 154.264L97.9062 154.282C97.8686 154.223 97.8337 154.161 97.803 154.101C97.7913 154.079 97.7883 154.053 97.7945 154.028C97.8007 154.003 97.8157 153.982 97.8366 153.967C97.8576 153.953 97.883 153.947 97.9083 153.95C97.9336 153.953 97.9569 153.965 97.9739 153.984L98.0067 154.02Z" fill="#283766"/>
<defs>
<clipPath id="clip0">
<rect width="75" height="77" fill="white" transform="translate(45 34)"/>
</clipPath>
</defs>
</svg>
