<svg width="105" height="109" viewBox="0 0 105 109" fill="none" xmlns="http://www.w3.org/2000/svg">
<g clip-path="url(#clip0)">
<path d="M-34.4 12.4001L92.7 -33.3999L139.1 95.7001L12 141.4L-34.4 12.4001Z" fill="url(#paint0_linear)"/>
<path d="M92.4 35.2001C90.5 30.3001 88.9 25.3001 87.8 20.2001L87.4 18.1001L85.4 17.5001C79.9 16.0001 74.6 14.2001 69.3 12.1001C64 9.8001 59 7.1001 54.1 4.2001L52.3 3.1001L50.5 4.2001C45.4 7.2001 40.2 10.0001 34.8 12.3001C29.8 14.4001 24.7 16.1001 19.4 17.5001L17.4 18.0001L16.9 20.0001C15.5 25.4001 13.8 30.8001 11.8 36.0001C9.5 41.6001 6.9 47.0001 3.9 52.3001L3 53.9001L3.8 55.6001C3.8 55.6001 7.3 62.6001 10.4 70.5001C13.5 78.4001 16.8 88.2001 16.8 88.3001L17.4 90.1001L19.3 90.5001C24.4 91.7001 29.4 93.4001 34.2 95.3001C39.7 97.7001 45.1 100.5 50.3 103.7L52.1 104.9L53.9 103.7C58.6 100.8 63.6 98.2001 68.7 95.9001C74 93.7001 79.5 91.9001 85.1 90.5001L87.1 90.0001L87.6 88.0001C89.1 82.4001 90.8 76.9001 92.9 71.5001C95.6 64.9001 100.5 55.8001 100.6 55.7001L101.5 54.0001L100.5 52.3001C97.6 46.7001 94.8 41.0001 92.4 35.2001Z" fill="white"/>
<path d="M-21.8 18.3999L86.8 -20.6001L126.5 89.5999L17.9 128.7L-21.8 18.3999Z" fill="url(#paint1_linear)"/>
<path fill-rule="evenodd" clip-rule="evenodd" d="M33.3 25.7001C33.6 28.0001 34.6 34.6001 35.3 37.0001C35.7 36.7001 36 36.3001 36.3 35.9001C35.3 31.5001 34.9 27.1001 34.9 22.6001C28.6 25.2001 32.9 35.6001 34.6 39.6001C34.9 39.1001 34.9 38.6001 34.8 38.1001C34.1 35.4001 32.2 28.4001 33.2 25.7001" fill="white"/>
<path fill-rule="evenodd" clip-rule="evenodd" d="M29.8 43.8002C28.9 41.9002 26.2 38.1002 25.1 36.3002C26.8 37.8002 29.5 42.1002 31.5 44.3002C31.6 42.4002 30.6 41.2002 29.5 39.6002C28.2 37.2002 26.4 35.2002 24.2 33.7002H24C22.9 37.6002 25.6 40.3002 27.8 42.4002C28.4 43.1002 28.9 44.1002 29.8 43.8002Z" fill="white"/>
<path fill-rule="evenodd" clip-rule="evenodd" d="M37.5 37.6001C34.5 39.5001 36.2 44.5001 37.3 46.7001C38.1 44.9001 36.9 42.2001 36.8 40.5001C37.3 41.1001 37.6 43.4001 38.3 44.0001C38.3 43.7001 38.5 43.5001 38.7 43.3001C37.9 41.5001 37.5 39.6001 37.5 37.6001Z" fill="white"/>
<path fill-rule="evenodd" clip-rule="evenodd" d="M22.8 40.4001C24.4 41.7001 27.1 44.2001 28.6 45.6001C28.9 45.5001 28.7 44.9001 28.9 44.5001C25.9 42.6001 25.1 39.1001 21.1 38.1001C21.2 43.0001 25.5 44.9001 28.3 47.7001C28.7 47.6001 29.1 47.6001 29.5 47.7001C27.8 45.5001 24.6 42.6001 22.8 40.4001Z" fill="white"/>
<path fill-rule="evenodd" clip-rule="evenodd" d="M19.1 42.8999C19.3 47.5999 24.1 48.6999 27.8 50.6999C26.8 48.5999 22.5 46.5999 20.9 44.8999C22.4 45.6999 25.4 47.7999 26.8 48.5999C27.1 48.5999 27.1 48.1999 27.5 47.8999C24.8 46.2999 23.2 43.1999 19.1 42.8999Z" fill="white"/>
<path fill-rule="evenodd" clip-rule="evenodd" d="M28.5 49.9002C28.5 52.3002 31.3 52.7002 33.3 53.8002C33.5 52.3002 30.3 51.7002 29.8 50.7002C31.1 51.0002 33.5 52.9002 34.8 52.4002C33.1 51.5002 31 48.7002 28.5 49.9002Z" fill="white"/>
<path fill-rule="evenodd" clip-rule="evenodd" d="M17.5 48.4999C18.1 52.0999 23.2 52.3999 26.5 53.9999C27 53.9999 26.2 53.3999 26.3 52.9999C24.7 52.2999 22 51.0999 20.5 50.2999C22.5 50.7999 24.5 51.4999 26.5 52.2999C26.7 51.9999 27.2 51.9999 27.3 51.4999C24.3 50.3999 21.3 47.6999 17.5 48.4999Z" fill="white"/>
<path fill-rule="evenodd" clip-rule="evenodd" d="M29.8 53.1002C29 52.7002 28 53.0002 27.6 53.8002C27.9 55.8002 31.8 55.6002 33.3 56.4002C33.3 56.3002 33.4 56.1002 33.6 56.1002C32.1 55.4002 30.6 54.7002 29 54.2002C30.5 54.4002 31.9 54.7002 33.4 55.3002C33.7 55.1002 33.4 54.6002 33.3 54.4002C32.1 54.0002 31 53.6002 29.8 53.1002Z" fill="white"/>
<path fill-rule="evenodd" clip-rule="evenodd" d="M17.3 53.4C17.6 56 21 56.1 24.3 56.4C25.1 56.4 26.3 57 26.3 55.9C24.7 55.6 21.7 54.9 20.2 54.5C21.8 54.3 25.7 55.6 27.1 55.2C24.5 54.6 19.3 51.3 17.3 53.4Z" fill="white"/>
<path fill-rule="evenodd" clip-rule="evenodd" d="M27.7 57.1002C28.2 59.1002 30.9 58.5002 32.6 58.2002C32.3 57.5002 29.4 57.5002 28.7 57.1002C29.3 56.6002 32.5 57.8002 32.8 56.8002C31 56.4002 28.4 55.2002 27.7 57.1002Z" fill="white"/>
<path fill-rule="evenodd" clip-rule="evenodd" d="M17.5 59.2001C20.5 61.4001 24.3 59 27.4 58.8C27 57.9 25.6 58.3001 24.6 58.4001C23.6 58.5001 21.4 58.7001 20.4 58.7001C22.4 58.3001 24.4 58 26.4 57.8C26.4 57.6 26.3 57.5001 26.1 57.4001C22.9 57.1001 18.5 56.3001 17.5 59.2001Z" fill="white"/>
<path fill-rule="evenodd" clip-rule="evenodd" d="M28.8 61.3002C30.4 62.4002 31.3 61.6002 32.6 60.8002C33.3 60.4002 34.2 60.1002 34.3 59.6002C33.3 59.8002 30.9 60.4002 29.9 60.6002C30 60.2002 32.6 59.4002 33.1 59.2002C33.1 59.0002 33 59.0002 33.1 58.9002C31.4 58.7002 28.9 58.7002 28.8 61.3002Z" fill="white"/>
<path fill-rule="evenodd" clip-rule="evenodd" d="M23.5 66.6C24.8 65.1 27.5 63.9 29 62.6C27.7 62.1 26 63.3 24.6 64.1C23.2 64.9 21 65.6 21.4 67.9C23.1 69.5 24.5 67.7 26 66.7C27.2 65.9 29 65.2 28.8 63.9C27.2 64.3 25 65.9 23.5 66.6Z" fill="white"/>
<path fill-rule="evenodd" clip-rule="evenodd" d="M42.3 65.8001C42 65.8001 41.8 65.8001 41.5 65.9001C41 66.6001 40.5 69.1001 40.1 69.8001C39.8 69.0001 41.1 66.1001 40.5 65.6001C39.6 67.0001 37.9 69.7001 39.8 70.8001C41.7 70.6001 42 68.2001 42.3 65.8001Z" fill="white"/>
<path fill-rule="evenodd" clip-rule="evenodd" d="M45 66.1001C44.7 66.1001 44.5 66.2001 44.2 66.3001C43.9 67.0001 43.8 69.5001 43.5 70.3001C43.1 69.6001 43.9 66.5001 43.2 66.1001C42.6 67.6001 41.4 70.6001 43.4 71.3001C45.3 70.8001 45.2 68.4001 45 66.1001Z" fill="white"/>
<path fill-rule="evenodd" clip-rule="evenodd" d="M26.7 69.7001C27.2 68.4001 29.5 66.7001 30.3 65.4001C30.1 65.3001 29.9 65.3001 29.8 65.1001C28.6 66.5001 23.9 68.0001 25.1 71.0001C25.4 71.1001 25.8 71.2001 26.2 71.3001C27.1 71.6001 27.7 70.9001 28.3 70.3001C28.9 69.7001 29.5 68.9001 30.1 68.2001C30.4 67.8001 30.8 67.4001 31.2 67.1001C31 66.8001 31.2 65.9001 30.8 66.1001C29.5 67.4001 28.1 68.6001 26.7 69.7001Z" fill="white"/>
<path fill-rule="evenodd" clip-rule="evenodd" d="M32.8 65.2998C32.4 65.5998 32.7 66.2998 32.7 66.5998C33.1 66.2998 32.8 65.6998 32.8 65.2998Z" fill="white"/>
<path fill-rule="evenodd" clip-rule="evenodd" d="M33.5 68.1C32.9 69.3 32.1 70.5 31.1 71.4C31.4 70.1 32.4 69 32.7 67.7L31.5 67.5C30.8 69.1 28.5 70.9 30.1 72.6C30.3 72.9 30.9 72.8 31.2 72.8C31.6 72.8 32 72.5 32.2 72.1C32.8 71.1 33.3 70 33.9 68.9C33.8 68.5 33.7 68.1 33.4 67.9" fill="white"/>
<path fill-rule="evenodd" clip-rule="evenodd" d="M29 28.2002C24.6 32.1002 30 38.7002 32.1 41.5002C32.4 40.3002 31.2 39.0002 30.8 38.0002C30.4 37.0002 29.2 33.7002 28.8 32.6002C30.3 34.6002 32.1 40.3002 34.6 41.8002C33.8 40.0002 33 38.1002 32.1 36.1002C31.7 35.2002 29.5 30.1002 29 28.2002Z" fill="white"/>
<path fill-rule="evenodd" clip-rule="evenodd" d="M31.3 47.2999C32.6 48.1999 33.9 49.0999 35.1 50.1999C35 48.5999 33.1 46.9999 32.4 46.4999C32.4 46.4999 30.8 45.3999 30.2 45.9999C29.7 49.5999 33.2 50.1999 35 51.9999C35.1 50.3999 31.9 48.5999 31.3 47.2999Z" fill="white"/>
<path fill-rule="evenodd" clip-rule="evenodd" d="M31.3 63.8002C33.1 65.1002 34.3 63.1002 35.3 62.2002C34.3 61.5002 33 62.9002 32.2 63.2002C32.2 62.3002 34.7 62.0002 34.4 60.7002C33.3 61.3002 30.8 62.0002 31.3 63.8002Z" fill="white"/>
<path fill-rule="evenodd" clip-rule="evenodd" d="M39.1 66.4C39.3 65.5 40 65.2 39.5 64.5C38.5 64.8 37.7 67.5 36.7 68C37.2 66.9 37.7 65.7 38.3 64.7C37.9 64.8 37.7 64.9 37.4 64.6C37 66.1 34.8 67.5 36.1 69C36.4 68.5 38.1 69.6 39.1 66.4Z" fill="white"/>
<path fill-rule="evenodd" clip-rule="evenodd" d="M18.6 63.7002C19.5 59.6002 24.7 61.2002 27.7 59.7002C27.2 60.7002 25.8 60.8002 24.7 61.3002C23.6 61.8002 21.3 62.4002 20.5 62.9002C22.3 62.5002 25.5 61.4002 27.3 61.1002C27.3 61.5002 27 61.5002 27.1 61.9002C24.7 62.1002 22 65.1002 19.7 64.4002H19.6C19.1 64.3002 19 63.9002 18.6 63.8002" fill="white"/>
<path fill-rule="evenodd" clip-rule="evenodd" d="M34.7 63.8999L35.3 63.3999C35.8 62.9999 36.2 62.2999 36.7 62.7999C36.1 63.4999 34.2 65.3999 33.6 66.1999C34.4 65.7999 36.2 63.7999 37.1 63.3999C37.1 64.6999 34.9 67.4999 33.4 66.9999L33 66.7999L32.9 66.5999C32.8 66.1999 32.8 65.8999 32.8 65.4999C32.8 65.1999 34.7 63.8999 34.7 63.8999Z" fill="white"/>
<path fill-rule="evenodd" clip-rule="evenodd" d="M33 42.5999C33 42.4999 33.2 42.3999 33.2 42.3999C35.3 44.1999 36.8 46.5999 37.4 49.2999L36.7 49.1999C35.8 47.4999 34.8 45.8999 33.7 44.2999C34.4 45.8999 35.2 47.4999 36.1 49.0999H35.4C34.4 47.0999 31.9 45.7999 33 42.5999Z" fill="white"/>
<path fill-rule="evenodd" clip-rule="evenodd" d="M35.3 56.6001C36.1 56.5001 37 57.3001 37.3 56.7001C36.1 56.0001 34.4 55.7001 34.9 53.7001C36.5 52.9001 37.6 54.8001 38.6 54.9001C37.9 53.5001 35.8 52.7001 36.5 50.4001C39.3 50.4001 39.3 53.0001 40.1 53.3001C39.9 53.3001 39.8 51.9001 39.7 51.7001C39.4 50.8001 38.6 50.1001 38.5 49.2001C38.5 48.5001 38.6 47.8001 38.8 47.2001C38.9 46.4001 39.4 45.6001 40.1 45.1001C40.4 47.9001 42.6 50.3001 42.5 53.4001C42.4 56.2001 39 54.7001 38.7 57.5001C38.8 59.1001 39.8 60.5001 41.3 61.1001C42.8 61.4001 44.2 61.6001 45.7 61.7001C45.8 62.5001 45.9 64.2001 44.9 64.8001C44.5 65.1001 44 65.0001 43.6 64.6001C43.3 64.2001 43.2 63.8001 43.3 63.3001C43.3 63.1001 43.3 62.9001 43.3 62.7001C43.2 62.5001 43.1 62.4001 43 62.2001C42.6 63.1001 42.8 64.2001 41.9 64.7001C41.7 64.9001 41.4 64.9001 41.1 64.9001C40.7 64.4001 40.3 64.4001 40.2 63.7001C40.2 63.1001 41.2 62.1001 40.5 61.5001C39.6 63.9001 38.5 63.3001 38.2 63.7001C37 62.6001 38.6 61.4001 38.8 60.6001C37.7 61.1001 37 62.8001 35.6 61.4001C35.6 60.9001 35.6 60.5001 35.7 60.0001C36.1 59.3001 37.2 59.6001 37.5 58.8001C36.8 58.3001 35.9 59.5001 35.1 59.3001C34.4 59.1001 33.9 58.3001 34.2 57.6001C34.5 57.2001 34.9 56.8001 35.3 56.6001Z" fill="white"/>
<path fill-rule="evenodd" clip-rule="evenodd" d="M71.4 25.7001C71.1 28.0001 70.1 34.6001 69.4 37.0001C69 36.7001 68.7 36.3001 68.4 35.9001C69.4 31.5001 69.8 27.1001 69.8 22.6001C76.1 25.2001 71.8 35.6001 70.1 39.6001C69.9 39.1001 69.8 38.6001 69.9 38.1001C70.6 35.4001 72.5 28.4001 71.5 25.7001" fill="white"/>
<path fill-rule="evenodd" clip-rule="evenodd" d="M74.8 43.8002C75.7 41.9002 78.5 38.1002 79.5 36.3002C77.8 37.8002 75.1 42.1002 73.1 44.3002C73 42.4002 74 41.2002 75.1 39.6002C76.4 37.2002 78.2 35.2002 80.4 33.7002H80.6C81.7 37.6002 79 40.3002 76.8 42.4002C76.3 43.0002 75.8 44.1002 74.8 43.8002Z" fill="white"/>
<path fill-rule="evenodd" clip-rule="evenodd" d="M67.3 37.6001C70.3 39.5001 68.5 44.5001 67.4 46.7001C66.6 44.9001 67.8 42.2001 67.9 40.5001C67.4 41.1001 67.1 43.4001 66.5 44.0001C66.5 43.7001 66.3 43.5001 66.1 43.3001C66.7 41.5001 67.2 39.6001 67.3 37.6001Z" fill="white"/>
<path fill-rule="evenodd" clip-rule="evenodd" d="M81.8 40.4001C80.2 41.7001 77.5 44.2001 76 45.6001C75.7 45.5001 75.9 44.9001 75.7 44.5001C78.7 42.6001 79.5 39.1001 83.5 38.1001C83.4 43.0001 79.1 44.9001 76.3 47.7001C75.9 47.6001 75.5 47.6001 75.1 47.7001C76.9 45.5001 80.1 42.6001 81.8 40.4001Z" fill="white"/>
<path fill-rule="evenodd" clip-rule="evenodd" d="M85.6 42.8999C85.4 47.5999 80.6 48.6999 76.9 50.6999C77.9 48.5999 82.2 46.5999 83.7 44.8999C82.2 45.6999 79.2 47.7999 77.7 48.4999C77.5 48.4999 77.4 48.0999 77.1 47.7999C79.9 46.2999 81.4 43.1999 85.6 42.8999Z" fill="white"/>
<path fill-rule="evenodd" clip-rule="evenodd" d="M76.2 49.9002C76.2 52.3002 73.4 52.7002 71.4 53.8002C71.2 52.3002 74.5 51.7002 74.9 50.7002C73.6 51.0002 71.2 52.9002 69.9 52.4002C71.6 51.5002 73.7 48.7002 76.2 49.9002Z" fill="white"/>
<path fill-rule="evenodd" clip-rule="evenodd" d="M87.3 48.4999C86.7 52.0999 81.6 52.3999 78.3 53.9999C77.8 53.9999 78.6 53.3999 78.5 52.9999C80.1 52.2999 82.8 51.0999 84.3 50.2999C82.3 50.7999 80.3 51.4999 78.3 52.2999C78.1 51.9999 77.6 51.9999 77.5 51.4999C80.5 50.3999 83.5 47.6999 87.3 48.4999Z" fill="white"/>
<path fill-rule="evenodd" clip-rule="evenodd" d="M46.7 81.9999C45.8 80.8999 47 79.3999 47.4 77.9999C47.5 77.8999 47.5 78.2999 47.7 78.2999C47.4 78.9999 47.2 79.9999 47 80.6999C47.3 79.9999 47.6 79.1999 47.9 78.4999C48.1 78.4999 48.2 78.3999 48.3 78.4999C47.9 79.5999 47.9 81.0999 46.7 81.9999Z" fill="white"/>
<path fill-rule="evenodd" clip-rule="evenodd" d="M48 88.0001C50 87.4001 49.8 82.8001 50.4 79.7001C50.4 79.3001 50.1 80.0001 49.9 79.9001C49.6 81.4001 49.1 83.8001 48.8 85.2001C48.8 83.9001 49.3 81.1001 49.5 79.8001C49.3 79.6001 49.3 79.2001 49 79.1001C48.5 81.8001 47.2 84.6001 48 88.0001Z" fill="white"/>
<path fill-rule="evenodd" clip-rule="evenodd" d="M58 81.9999C58.9 80.8999 57.7 79.3999 57.3 77.9999C57.2 77.8999 57.2 78.2999 57 78.2999C57.2 78.8999 57.5 79.9999 57.7 80.5999C57.4 79.8999 57.1 79.0999 56.8 78.3999C56.6 78.3999 56.5 78.2999 56.4 78.3999C56.8 79.5999 56.8 81.0999 58 81.9999Z" fill="white"/>
<path fill-rule="evenodd" clip-rule="evenodd" d="M56.8 88.0001C54.8 87.4001 55 82.8001 54.4 79.7001C54.4 79.3001 54.7 80.0001 54.9 79.9001C55.2 81.4001 55.7 83.8001 56 85.2001C56 83.9001 55.5 81.1001 55.3 79.8001C55.5 79.6001 55.5 79.2001 55.8 79.1001C56.2 81.8001 57.5 84.6001 56.8 88.0001Z" fill="white"/>
<path fill-rule="evenodd" clip-rule="evenodd" d="M74.8 53.1002C75.6 52.7002 76.6 53.0002 77 53.8002C76.7 55.8002 72.8 55.6002 71.3 56.4002C71.3 56.3002 71.2 56.1002 71 56.1002C72.5 55.4002 74 54.7002 75.6 54.2002C74.1 54.4002 72.6 54.7002 71.2 55.3002C70.9 55.1002 71.2 54.6002 71.3 54.4002C72.5 54.0002 73.7 53.6002 74.8 53.1002Z" fill="white"/>
<path fill-rule="evenodd" clip-rule="evenodd" d="M87.3 53.4C87 56 83.6 56.1 80.3 56.4C79.5 56.4 78.3 57 78.3 55.9C79.9 55.6 82.9 54.9 84.4 54.5C82.8 54.3 78.9 55.6 77.5 55.2C80.2 54.6 85.4 51.3 87.3 53.4Z" fill="white"/>
<path fill-rule="evenodd" clip-rule="evenodd" d="M77 57.1002C76.5 59.1002 73.8 58.5002 72.1 58.2002C72.4 57.5002 75.3 57.5002 76 57.1002C75.4 56.6002 72.2 57.8002 72 56.8002C73.7 56.4002 76.3 55.2002 77 57.1002Z" fill="white"/>
<path fill-rule="evenodd" clip-rule="evenodd" d="M87.2 59.2001C84.2 61.4001 80.4 59 77.4 58.8C77.8 57.9 79.2 58.3001 80.2 58.4001C81.2 58.5001 83.4 58.7001 84.4 58.7001C82.4 58.3001 80.4 58 78.4 57.8C78.4 57.6 78.5 57.5001 78.7 57.4001C81.8 57.1001 86.2 56.3001 87.2 59.2001Z" fill="white"/>
<path fill-rule="evenodd" clip-rule="evenodd" d="M75.9 61.3002C74.3 62.4002 73.4 61.6002 72.1 60.8002C71.4 60.4002 70.5 60.1002 70.4 59.6002C71.4 59.8002 73.8 60.4002 74.8 60.6002C74.7 60.2002 72.1 59.4002 71.6 59.2002C71.6 59.0002 71.7 59.0002 71.6 58.9002C73.3 58.7002 75.8 58.7002 75.9 61.3002Z" fill="white"/>
<path fill-rule="evenodd" clip-rule="evenodd" d="M81.1 66.6C79.8 65.1 77.1 63.9 75.6 62.6C76.9 62.1 78.6 63.3 80 64.1C81.4 64.9 83.6 65.6 83.2 67.8C81.5 69.4 80.1 67.6 78.6 66.6C77.4 65.8 75.6 65.1 75.8 63.8C77.5 64.2 79.7 65.8 81.1 66.6Z" fill="white"/>
<path fill-rule="evenodd" clip-rule="evenodd" d="M62.4 65.8001C62.7 65.8001 62.9 65.8001 63.2 65.9001C63.6 66.6001 64.2 69.1001 64.6 69.8001C64.9 69.0001 63.6 66.1001 64.2 65.6001C65.1 67.0001 66.8 69.7001 64.9 70.8001C63 70.6001 62.7 68.2001 62.4 65.8001Z" fill="white"/>
<path fill-rule="evenodd" clip-rule="evenodd" d="M59.6 66.1001C59.9 66.1001 60.1 66.2001 60.4 66.3001C60.7 67.0001 60.8 69.5001 61.1 70.3001C61.5 69.6001 60.7 66.5001 61.4 66.1001C62 67.6001 63.2 70.6001 61.2 71.3001C59.4 70.8001 59.5 68.4001 59.6 66.1001Z" fill="white"/>
<path fill-rule="evenodd" clip-rule="evenodd" d="M78.1 69.7001C77.6 68.4001 75.3 66.7001 74.5 65.4001C74.7 65.3001 74.9 65.3001 75 65.1001C76.2 66.5001 80.9 68.0001 79.7 71.0001C79.4 71.1001 79 71.2001 78.6 71.3001C77.7 71.6001 77.1 70.9001 76.5 70.3001C75.9 69.7001 75.3 68.9001 74.7 68.2001C74.4 67.8001 74 67.4001 73.6 67.1001C73.8 66.8001 73.6 65.9001 74 66.1001C75.2 67.4001 76.6 68.6001 78.1 69.7001Z" fill="white"/>
<path fill-rule="evenodd" clip-rule="evenodd" d="M71.8 65.2998C72.2 65.5998 71.9 66.2998 71.9 66.5998C71.5 66.2998 71.9 65.6998 71.8 65.2998Z" fill="white"/>
<path fill-rule="evenodd" clip-rule="evenodd" d="M71.1 68.1C71.7 69.3 72.5 70.5 73.5 71.4C73.2 70.1 72.2 69 71.9 67.7L73.1 67.5C73.8 69.1 76.1 70.9 74.5 72.6C74.3 72.9 73.7 72.8 73.4 72.8C73 72.8 72.6 72.5 72.4 72.1C71.8 71.1 71.3 70 70.7 68.9C70.8 68.5 70.9 68.1 71.2 67.9" fill="white"/>
<path fill-rule="evenodd" clip-rule="evenodd" d="M75.7 28.2002C80.1 32.1002 74.7 38.7002 72.6 41.5002C72.3 40.3002 73.5 39.0002 73.9 38.0002C74.3 37.0002 75.5 33.7002 75.9 32.6002C74.4 34.6002 72.6 40.3002 70.1 41.8002C70.9 40.0002 71.7 38.1002 72.6 36.1002C73 35.2002 75.2 30.1002 75.7 28.2002Z" fill="white"/>
<path fill-rule="evenodd" clip-rule="evenodd" d="M73.4 47.2999C72.1 48.1999 70.8 49.0999 69.6 50.1999C69.7 48.5999 71.6 46.9999 72.3 46.4999C72.3 46.4999 73.9 45.3999 74.6 45.9999C75.1 49.5999 71.6 50.1999 69.7 51.9999C69.4 50.3999 72.7 48.5999 73.4 47.2999Z" fill="white"/>
<path fill-rule="evenodd" clip-rule="evenodd" d="M73.4 63.8002C71.6 65.1002 70.4 63.1002 69.4 62.2002C70.4 61.5002 71.7 62.9002 72.5 63.2002C72.5 62.3002 70 62.0002 70.3 60.7002C71.4 61.3002 73.8 62.0002 73.4 63.8002Z" fill="white"/>
<path fill-rule="evenodd" clip-rule="evenodd" d="M65.6 66.4C65.4 65.5 64.7 65.2 65.2 64.5C66.2 64.8 67 67.5 68 68C67.5 66.9 67 65.8 66.4 64.7C66.8 64.8 67 64.9 67.3 64.6C67.7 66.1 69.9 67.5 68.6 69C68.3 68.5 66.5 69.6 65.6 66.4Z" fill="white"/>
<path fill-rule="evenodd" clip-rule="evenodd" d="M86.1 63.7002C85.2 59.6002 80 61.2002 77.1 59.7002C77.6 60.7002 79 60.8002 80 61.3002C81 61.8002 83.4 62.4002 84.2 62.9002C82.4 62.5002 79.1 61.4002 77.3 61.0002C77.3 61.4002 77.6 61.4002 77.5 61.8002C79.9 62.0002 82.6 65.0002 84.9 64.3002H85C85.4 64.2002 85.6 63.8002 86 63.7002" fill="white"/>
<path fill-rule="evenodd" clip-rule="evenodd" d="M70.1 63.8999C69.9 63.6999 69.7 63.5999 69.5 63.3999C69 62.9999 68.6 62.2999 68.1 62.7999C68.7 63.4999 70.6 65.3999 71.2 66.1999C70.4 65.7999 68.6 63.7999 67.7 63.3999C67.7 64.6999 69.9 67.4999 71.4 66.9999L71.8 66.7999L71.9 66.5999C72 66.1999 72 65.8999 72 65.4999C72 65.1999 70.1 63.8999 70.1 63.8999Z" fill="white"/>
<path fill-rule="evenodd" clip-rule="evenodd" d="M71.6 42.5999C71.6 42.4999 71.5 42.3999 71.4 42.3999C69.3 44.1999 67.8 46.5999 67.2 49.2999L67.9 49.1999C68.8 47.4999 69.8 45.8999 70.9 44.2999C70.2 45.9999 69.4 47.5999 68.5 49.0999H69.2C70.3 47.1999 72.7 45.7999 71.6 42.5999Z" fill="white"/>
<path fill-rule="evenodd" clip-rule="evenodd" d="M69.5 56.6001C68.7 56.5001 67.8 57.3001 67.5 56.7001C68.7 56.0001 70.4 55.7001 69.8 53.7001C68.2 52.9001 67.2 54.8001 66.1 54.9001C66.8 53.5001 68.9 52.7001 68.1 50.4001C65.3 50.4001 65.4 53.0001 64.5 53.3001C64.7 53.3001 64.8 51.9001 64.9 51.7001C65.2 50.8001 66 50.1001 66.1 49.2001C66.1 48.5001 66 47.8001 65.8 47.2001C65.7 46.4001 65.2 45.6001 64.5 45.1001C64.2 47.9001 62 50.3001 62.1 53.4001C62.2 56.2001 65.6 54.7001 65.9 57.5001C65.8 59.1001 64.8 60.5001 63.3 61.1001C61.8 61.4001 60.4 61.6001 58.9 61.7001C58.8 62.5001 58.7 64.2001 59.7 64.8001C60.1 65.1001 60.6 65.0001 61 64.6001C61.3 64.2001 61.4 63.8001 61.3 63.3001C61.3 63.1001 61.3 62.9001 61.3 62.7001C61.4 62.5001 61.5 62.4001 61.6 62.2001C62 63.1001 61.8 64.2001 62.7 64.7001C62.9 64.9001 63.2 64.9001 63.5 64.9001C63.9 64.4001 64.3 64.4001 64.4 63.7001C64.5 63.1001 63.4 62.1001 64.1 61.5001C65 63.9001 66.1 63.3001 66.4 63.7001C67.6 62.6001 66 61.4001 65.8 60.6001C66.9 61.1001 67.6 62.8001 69.1 61.4001C69.1 60.9001 69.1 60.5001 69 60.0001C68.6 59.3001 67.5 59.6001 67.2 58.8001C67.9 58.3001 68.8 59.5001 69.6 59.3001C70.3 59.1001 70.8 58.3001 70.5 57.6001C70.2 57.2001 69.9 56.8001 69.5 56.6001Z" fill="white"/>
<path fill-rule="evenodd" clip-rule="evenodd" d="M53.7 80.2998C53.3 80.2998 53.1 80.7998 52.8 80.8998C52.7 82.6998 52.7 86.4998 52.4 88.1998C52.1 86.3998 52.1 82.6998 52 80.8998C51.6 80.7998 51.5 80.1998 51.1 80.2998C51.3 83.9998 50 88.1998 52.1 92.2998L52.5 92.9998L52.9 92.2998C54.8 88.1998 53.6 83.8998 53.7 80.2998Z" fill="white"/>
<path fill-rule="evenodd" clip-rule="evenodd" d="M57.2 53.5998C58 53.5998 58.6 53.3998 58.8 53.8998C57.4 53.5998 55.9 54.7998 55.7 53.8998C55.7 54.6998 54.8 54.7998 54.6 55.4998C54.2 56.6998 54.8 58.0998 56 58.4998C56 58.4998 56 58.4998 56.1 58.4998C56.4 58.5998 56.7 58.5998 57 58.5998C56.8 59.1998 56.2 59.9998 55.4 59.4998C55.7 59.7998 56.1 60.0998 56.4 60.4998L52.4 61.7998L48.2 60.3998C48.3 60.0998 48.3 59.6998 48.3 59.3998C48.3 58.2998 48.7 57.1998 49.3 56.1998C48.8 56.3998 47.5 56.3998 47.4 55.8998C49.4 54.8998 49.4 51.5998 51.4 50.5998C50.6 50.5998 50.3 49.7998 50.1 49.2998C51.8 50.2998 57.8 48.1998 58.2 50.3998C58.3 51.0998 57.6 51.2998 57.7 51.6998C58.1 51.3998 58.5 51.0998 58.8 50.6998C59.9 50.8998 60.6 51.9998 60.4 53.0998C60.3 53.3998 60.2 53.6998 60 53.8998C59.4 52.9998 58.1 52.8998 57.2 53.5998ZM54.8 50.6998C54 50.6998 55.1 51.7998 55.6 51.6998C56.1 51.5998 56.5 50.7998 57.2 51.1998C57.2 50.5998 55.9 50.5998 54.8 50.6998Z" fill="white"/>
<path fill-rule="evenodd" clip-rule="evenodd" d="M58.8 70.9001C58.2 69.2001 58 67.4001 58.3 65.7001C57.8 64.4001 57.6 63.0001 57.7 61.6001C56 62.4001 54.2 62.9001 52.4 63.3001C50.6 62.9001 48.8 62.3001 47.1 61.6001C47.2 63.0001 47 64.4001 46.5 65.7001C46.8 67.5001 46.6 69.3001 46 70.9001C46 70.9001 45 76.3001 49.5 77.9001C54 79.5001 50.8 79.5001 55.3 77.9001C59.8 76.3001 58.7 70.9001 58.8 70.9001ZM55.7 63.7001C55.9 64.3001 56.1 65.5001 56.4 66.0001C56.3 65.3001 56.1 64.3001 56 63.6001C56.2 63.6001 56.2 63.2001 56.3 63.3001C56.5 64.7001 57.6 66.3001 56.6 67.3001C55.5 66.3001 55.7 64.7001 55.4 63.6001C55.4 63.6001 55.5 63.7001 55.7 63.7001ZM48.3 63.3001C48.4 63.1001 48.4 63.5001 48.6 63.6001C48.5 64.3001 48.3 65.3001 48.2 66.0001C48.5 65.2001 48.7 64.5001 48.9 63.7001C49.1 63.7001 49.2 63.6001 49.3 63.6001C49 64.8001 49.2 66.3001 48.1 67.3001C47.1 66.3001 48.1 64.7001 48.3 63.3001ZM47.3 73.7001C46.3 72.7001 47.3 71.1001 47.6 69.7001C47.7 69.6001 47.7 69.9001 47.9 70.0001C47.8 70.7001 47.6 71.8001 47.5 72.4001C47.8 71.6001 48 70.9001 48.1 70.1001C48.3 70.1001 48.3 70.0001 48.5 70.0001C48.2 71.2001 48.4 72.7001 47.3 73.7001ZM49.1 76.7001C48.1 75.7001 49.1 74.1001 49.4 72.7001C49.5 72.6001 49.5 72.9001 49.7 73.0001C49.6 73.7001 49.4 74.8001 49.3 75.4001C49.6 74.6001 49.8 73.9001 50 73.1001C50.2 73.1001 50.2 72.9001 50.4 73.0001C50 74.1001 50.2 75.7001 49.1 76.7001ZM49.8 70.8001C48.8 69.8001 49.8 68.2001 50.1 66.8001C50.2 66.6001 50.2 67.0001 50.4 67.1001C50.3 67.8001 50.1 68.9001 50 69.5001C50.3 68.7001 50.5 68.0001 50.6 67.2001C50.8 67.2001 50.9 67.1001 51 67.2001C50.7 68.3001 50.9 69.9001 49.8 70.8001ZM52.5 77.5001L52.4 77.8001L52.2 77.5001C51.7 76.2001 51.6 74.8001 51.8 73.5001C52 73.5001 52 73.7001 52.1 73.7001C52.1 74.5001 52.1 75.3001 52.3 76.1001C52.4 75.3001 52.4 74.5001 52.5 73.7001C52.6 73.7001 52.7 73.5001 52.9 73.5001C53.1 74.8001 52.9 76.2001 52.5 77.5001ZM52.4 71.6001L52.3 71.8001L52.1 71.6001C51.3 70.5001 51.8 69.4001 51.7 68.5001C51.9 68.5001 51.9 68.6001 52 68.7001C52 69.3001 52.1 70.0001 52.1 70.6001C52.2 70.0001 52.2 69.3001 52.3 68.7001C52.4 68.7001 52.5 68.5001 52.7 68.5001C52.8 69.5001 53.2 70.5001 52.4 71.6001ZM52.4 66.2001L52.2 66.3001L52.1 66.2001C51.3 65.5001 51.8 64.8001 51.7 64.2001C51.9 64.2001 51.9 64.3001 52.1 64.3001C52.1 64.7001 52.2 65.2001 52.3 65.6001C52.4 65.2001 52.4 64.8001 52.5 64.4001C52.6 64.4001 52.7 64.3001 52.8 64.3001C52.8 64.9001 53.2 65.6001 52.4 66.2001ZM53.9 67.3001C54.1 68.1001 54.3 68.8001 54.6 69.6001C54.5 69.0001 54.3 67.9001 54.2 67.2001C54.4 67.2001 54.4 66.8001 54.5 66.9001C54.7 68.3001 55.8 69.9001 54.8 70.9001C53.7 69.9001 53.9 68.3001 53.6 67.2001H54L53.9 67.3001ZM55.4 76.7001C54.3 75.7001 54.5 74.1001 54.2 73.0001C54.4 73.0001 54.5 73.1001 54.6 73.1001C54.8 73.9001 55 74.6001 55.2 75.4001C55.1 74.8001 54.9 73.7001 54.8 73.0001C55 73.0001 54.9 72.6001 55.1 72.7001C55.3 74.1001 56.4 75.7001 55.4 76.7001ZM57.1 73.7001C56 72.7001 56.2 71.1001 55.9 70.0001C56.1 70.0001 56.2 70.1001 56.3 70.1001C56.5 70.9001 56.7 71.7001 57 72.4001C56.9 71.8001 56.7 70.7001 56.6 70.0001C56.8 70.0001 56.8 69.6001 56.9 69.7001C57.1 71.1001 58.2 72.7001 57.1 73.7001Z" fill="white"/>
<path fill-rule="evenodd" clip-rule="evenodd" d="M66.1 83.3C66.9 82.3 65.7 81.6 64.7 81.7C64.9 81.2 65.5 81 66 81.2C66 81.2 66 81.2 66.1 81.2C66.2 81.2 66.3 81.3 66.3 81.4C66.3 79.2 64.1 79.9 63.4 81.6C62.2 80.4 61.2 79.1 59.9 78C60.2 77.5 60.6 77.2 60.8 76.7C59.8 76.1 59 75.1 58.6 74L58.3 74.8L56.1 74L55.8 74.3C57.2 75.6 57 77.8 58.1 79.1C58.6 79.1 58.7 78.4 59.2 78.4C60.2 79.4 61.3 80.3 62.3 81.3C62.3 81.7 62 82 61.6 82C61.4 82 61.3 81.9 61.1 81.8C60.5 82.1 59.2 83.1 60.5 83.7C60.4 83.5 60.5 83.3 60.6 83.2C61.9 83 63.7 81.8 64.2 83.8C64.1 84 64 84.2 63.7 84.3C64.7 84.7 65.1 83.1 64.6 82.5C65.3 82.6 65.7 82.9 66.1 83.3Z" fill="white"/>
<path fill-rule="evenodd" clip-rule="evenodd" d="M46.5 75.0998L46.1 73.7998C45.7 74.9998 44.9 76.0998 43.8 76.7998C44.1 77.2998 44.4 77.5998 44.7 78.0998C43.4 79.0998 42.4 80.3998 41.1 81.5998C40.4 79.8998 38.3 79.0998 38.2 81.2998C38.6 80.8998 39.2 80.8998 39.6 81.2998C39.7 81.3998 39.7 81.3998 39.8 81.4998C38.7 81.3998 37.6 82.0998 38.3 83.0998C38.6 82.8998 39.1 82.3998 39.6 82.4998C39.1 83.1998 39.5 84.7998 40.5 84.2998C40.3 84.2998 40.2 84.0998 40 83.7998C40.5 81.7998 42.3 82.9998 43.6 83.1998C43.8 83.2998 43.8 83.4998 43.7 83.6998C45 83.1998 43.8 82.0998 43.2 81.7998C42.8 82.1998 42.1 81.7998 42 81.1998C43 80.1998 44.1 79.2998 45.1 78.3998C45.6 78.3998 45.7 78.9998 46.2 79.0998C47.4 77.6998 47.2 75.3998 48.7 74.2998L48.6 74.1998L46.5 75.0998Z" fill="white"/>
</g>
<defs>
<linearGradient id="paint0_linear" x1="7.06941" y1="-71.6392" x2="68.6851" y2="99.5049" gradientUnits="userSpaceOnUse">
<stop stop-color="#2b354f"/>
<stop offset="1" stop-color="#263563"/>
</linearGradient>
<linearGradient id="paint1_linear" x1="14.7516" y1="-50.4085" x2="67.0549" y2="94.8694" gradientUnits="userSpaceOnUse">
<stop stop-color="#2b354f"/>
<stop offset="1" stop-color="#263563"/>
</linearGradient>
<clipPath id="clip0">
<rect width="104.7" height="108.1" fill="white"/>
</clipPath>
</defs>
</svg>
