<svg width="416" height="525" viewBox="0 0 416 525" fill="none" xmlns="http://www.w3.org/2000/svg">
<g clip-path="url(#clip0)">
<path fill-rule="evenodd" clip-rule="evenodd" d="M123.854 47.3068C124.069 48.9451 124.785 53.6463 125.287 55.3558C125.573 55.1421 125.788 54.8572 126.003 54.5723C125.287 51.4381 125 48.304 125 45.0986C120.487 46.9506 123.567 54.3586 124.785 57.2078C125 56.8516 125 56.4955 124.928 56.1393C124.427 54.2161 123.066 49.23 123.782 47.3068" fill="#333"/>
<path fill-rule="evenodd" clip-rule="evenodd" d="M121.347 60.1982C120.702 58.8448 118.768 56.138 117.98 54.8559C119.198 55.9243 121.132 58.9873 122.564 60.5543C122.636 59.2009 121.92 58.3462 121.132 57.2065C120.201 55.497 118.911 54.0724 117.335 53.0039H117.192C116.404 55.7819 118.338 57.7051 119.914 59.2009C120.344 59.6996 120.702 60.4119 121.347 60.1982Z" fill="#333"/>
<path fill-rule="evenodd" clip-rule="evenodd" d="M126.863 55.7832C124.714 57.1366 125.931 60.6981 126.719 62.2652C127.292 60.983 126.433 59.0598 126.361 57.8489C126.719 58.2763 126.934 59.9146 127.436 60.3419C127.436 60.1283 127.579 59.9858 127.722 59.8433C127.149 58.5612 126.863 57.2078 126.863 55.7832Z" fill="#333"/>
<path fill-rule="evenodd" clip-rule="evenodd" d="M116.332 57.7779C117.478 58.7039 119.413 60.4847 120.487 61.4819C120.702 61.4107 120.559 60.9833 120.702 60.6984C118.553 59.345 117.98 56.852 115.115 56.1396C115.186 59.6299 118.266 60.9833 120.272 62.9778C120.559 62.9065 120.845 62.9065 121.132 62.9778C119.914 61.4107 117.622 59.345 116.332 57.7779Z" fill="#333"/>
<path fill-rule="evenodd" clip-rule="evenodd" d="M113.682 59.5576C113.825 62.9054 117.264 63.689 119.914 65.1136C119.198 63.6177 116.117 62.1931 114.971 60.9822C116.046 61.5521 118.195 63.0479 119.198 63.6177C119.413 63.6177 119.413 63.3328 119.699 63.1191C117.765 61.9794 116.619 59.7713 113.682 59.5576Z" fill="#333"/>
<path fill-rule="evenodd" clip-rule="evenodd" d="M120.415 64.5445C120.415 66.2541 122.421 66.539 123.854 67.3225C123.997 66.2541 121.705 65.8267 121.347 65.1144C122.278 65.3281 123.997 66.6814 124.928 66.3253C123.711 65.6842 122.206 63.6898 120.415 64.5445Z" fill="#333"/>
<path fill-rule="evenodd" clip-rule="evenodd" d="M112.536 63.5463C112.966 66.1106 116.619 66.3243 118.983 67.464C119.341 67.464 118.768 67.0366 118.84 66.7517C117.693 66.2531 115.759 65.3983 114.685 64.8285C116.117 65.1846 117.55 65.6832 118.983 66.2531C119.126 66.0394 119.484 66.0394 119.556 65.6832C117.407 64.8997 115.258 62.9765 112.536 63.5463Z" fill="#333"/>
<path fill-rule="evenodd" clip-rule="evenodd" d="M121.347 66.8229C120.774 66.538 120.057 66.7517 119.771 67.3215C119.986 68.7461 122.779 68.6037 123.854 69.1735C123.854 69.1023 123.926 68.9598 124.069 68.9598C122.994 68.4612 121.92 67.9626 120.774 67.6065C121.848 67.7489 122.851 67.9626 123.926 68.39C124.14 68.2475 123.926 67.8914 123.854 67.7489C122.994 67.464 122.206 67.1791 121.347 66.8229Z" fill="#333"/>
<path fill-rule="evenodd" clip-rule="evenodd" d="M112.393 67.0371C112.607 68.8891 115.043 68.9603 117.407 69.174C117.98 69.174 118.84 69.6014 118.84 68.8179C117.693 68.6042 115.544 68.1056 114.47 67.8207C115.616 67.6782 118.41 68.6042 119.413 68.3193C117.55 67.8919 113.825 65.5413 112.393 67.0371Z" fill="#333"/>
<path fill-rule="evenodd" clip-rule="evenodd" d="M119.842 69.6723C120.201 71.0969 122.135 70.6695 123.352 70.4558C123.138 69.9572 121.06 69.9572 120.559 69.6723C120.989 69.3162 123.281 70.1709 123.496 69.4586C122.206 69.1737 120.344 68.3189 119.842 69.6723Z" fill="#333"/>
<path fill-rule="evenodd" clip-rule="evenodd" d="M112.536 71.1678C114.685 72.7349 117.407 71.0254 119.628 70.8829C119.341 70.2418 118.338 70.5268 117.622 70.598C116.905 70.6692 115.33 70.8117 114.613 70.8117C116.046 70.5268 117.479 70.3131 118.911 70.1706C118.911 70.0281 118.84 69.9569 118.696 69.8857C116.404 69.672 113.252 69.1021 112.536 71.1678Z" fill="#333"/>
<path fill-rule="evenodd" clip-rule="evenodd" d="M120.63 72.6651C121.777 73.4486 122.421 72.8787 123.352 72.3089C123.854 72.024 124.499 71.8103 124.57 71.4541C123.854 71.5966 122.135 72.024 121.418 72.1664C121.49 71.8815 123.352 71.3117 123.711 71.1692C123.711 71.0268 123.639 71.0268 123.711 70.9555C122.493 70.8131 120.702 70.8131 120.63 72.6651Z" fill="#333"/>
<path fill-rule="evenodd" clip-rule="evenodd" d="M116.834 76.4402C117.765 75.3717 119.699 74.5169 120.774 73.591C119.842 73.2348 118.625 74.0896 117.622 74.6594C116.619 75.2292 115.043 75.7279 115.33 77.3662C116.547 78.5058 117.55 77.2237 118.625 76.5114C119.484 75.9416 120.774 75.4429 120.63 74.5169C119.484 74.8019 117.908 75.9416 116.834 76.4402Z" fill="#333"/>
<path fill-rule="evenodd" clip-rule="evenodd" d="M130.301 75.87C130.086 75.87 129.943 75.87 129.728 75.9412C129.37 76.4398 129.011 78.2206 128.725 78.7192C128.51 78.1494 129.441 76.0837 129.011 75.7275C128.367 76.7248 127.149 78.648 128.51 79.4315C129.871 79.2891 130.086 77.5795 130.301 75.87Z" fill="#333"/>
<path fill-rule="evenodd" clip-rule="evenodd" d="M132.235 76.084C132.02 76.084 131.877 76.1552 131.662 76.2264C131.447 76.7251 131.375 78.5058 131.16 79.0757C130.874 78.5771 131.447 76.3689 130.946 76.084C130.516 77.1524 129.656 79.2894 131.089 79.788C132.45 79.4318 132.378 77.7223 132.235 76.084Z" fill="#333"/>
<path fill-rule="evenodd" clip-rule="evenodd" d="M119.126 78.6477C119.484 77.7217 121.132 76.5108 121.705 75.5848C121.562 75.5136 121.418 75.5136 121.347 75.3711C120.487 76.3683 117.12 77.4368 117.98 79.5737C118.195 79.6449 118.481 79.7161 118.768 79.7874C119.413 80.0011 119.842 79.5025 120.272 79.0751C120.702 78.6477 121.132 78.0778 121.562 77.5792C121.777 77.2943 122.063 77.0094 122.35 76.7957C122.206 76.582 122.35 75.9409 122.063 76.0834C121.132 77.0094 120.129 77.8642 119.126 78.6477Z" fill="#333"/>
<path fill-rule="evenodd" clip-rule="evenodd" d="M123.496 75.5137C123.209 75.7274 123.424 76.226 123.424 76.4397C123.711 76.226 123.496 75.7986 123.496 75.5137Z" fill="#333"/>
<path fill-rule="evenodd" clip-rule="evenodd" d="M123.997 77.5084C123.567 78.3632 122.994 79.218 122.278 79.859C122.493 78.933 123.209 78.1495 123.424 77.2235L122.564 77.0811C122.063 78.2207 120.415 79.5029 121.562 80.7138C121.705 80.9275 122.135 80.8563 122.35 80.8563C122.636 80.8563 122.923 80.6426 123.066 80.3577C123.496 79.6453 123.854 78.8618 124.284 78.0783C124.212 77.7934 124.14 77.5084 123.925 77.366" fill="#333"/>
<path fill-rule="evenodd" clip-rule="evenodd" d="M120.774 49.0869C117.622 51.8649 121.49 56.5661 122.994 58.5606C123.209 57.7058 122.35 56.7798 122.063 56.0675C121.776 55.3552 120.917 53.0046 120.63 52.221C121.705 53.6457 122.994 57.7058 124.785 58.7742C124.212 57.4921 123.639 56.1387 122.994 54.7141C122.708 54.073 121.132 50.4403 120.774 49.0869Z" fill="#333"/>
<path fill-rule="evenodd" clip-rule="evenodd" d="M122.421 62.6913C123.352 63.3323 124.284 63.9734 125.143 64.7569C125.072 63.6172 123.711 62.4776 123.209 62.1214C123.209 62.1214 122.063 61.3379 121.633 61.7653C121.275 64.3295 123.782 64.7569 125.072 66.0391C125.143 64.8994 122.851 63.6172 122.421 62.6913Z" fill="#333"/>
<path fill-rule="evenodd" clip-rule="evenodd" d="M122.421 74.4454C123.711 75.3714 124.57 73.9468 125.287 73.3058C124.57 72.8071 123.639 73.8044 123.066 74.0181C123.066 73.377 124.857 73.1633 124.642 72.2373C123.854 72.6647 122.063 73.1633 122.421 74.4454Z" fill="#333"/>
<path fill-rule="evenodd" clip-rule="evenodd" d="M128.009 76.2977C128.152 75.6566 128.653 75.4429 128.295 74.9443C127.579 75.158 127.006 77.0812 126.289 77.4374C126.648 76.6539 127.006 75.7991 127.436 75.0868C127.149 75.158 127.006 75.2293 126.791 75.0156C126.504 76.084 124.928 77.0812 125.86 78.1497C126.075 77.7935 127.292 78.5771 128.009 76.2977Z" fill="#333"/>
<path fill-rule="evenodd" clip-rule="evenodd" d="M113.324 74.3736C113.968 71.4532 117.693 72.5929 119.842 71.5244C119.484 72.2367 118.481 72.3079 117.693 72.6641C116.905 73.0203 115.258 73.4476 114.685 73.8038C115.974 73.5189 118.266 72.7353 119.556 72.5216C119.556 72.8066 119.341 72.8066 119.413 73.0915C117.693 73.2339 115.759 75.3709 114.112 74.8722H114.04C113.682 74.801 113.61 74.5161 113.324 74.4449" fill="#333"/>
<path fill-rule="evenodd" clip-rule="evenodd" d="M124.857 74.5155L125.287 74.1593C125.645 73.8744 125.931 73.3758 126.289 73.732C125.86 74.2306 124.499 75.584 124.069 76.1538C124.642 75.8689 125.931 74.4443 126.576 74.1593C126.576 75.0853 125 77.0798 123.926 76.7236L123.639 76.5812L123.567 76.4387C123.496 76.1538 123.496 75.9401 123.496 75.6552C123.496 75.4415 124.857 74.5155 124.857 74.5155Z" fill="#333"/>
<path fill-rule="evenodd" clip-rule="evenodd" d="M123.639 59.3436C123.639 59.2724 123.782 59.2012 123.782 59.2012C125.287 60.4833 126.361 62.1928 126.791 64.1161L126.289 64.0448C125.645 62.8339 124.928 61.6942 124.14 60.5545C124.642 61.6942 125.215 62.8339 125.86 63.9736H125.358C124.642 62.549 122.851 61.623 123.639 59.3436Z" fill="#333"/>
<path fill-rule="evenodd" clip-rule="evenodd" d="M125.287 69.3165C125.86 69.2453 126.504 69.8151 126.719 69.3877C125.86 68.8891 124.642 68.6754 125 67.2508C126.146 66.681 126.934 68.0343 127.65 68.1056C127.149 67.1084 125.645 66.5385 126.146 64.9002C128.152 64.9002 128.152 66.7522 128.725 66.9659C128.582 66.9659 128.51 65.9687 128.438 65.8262C128.223 65.1851 127.65 64.6865 127.579 64.0454C127.579 63.5468 127.65 63.0482 127.794 62.6208C127.865 62.051 128.223 61.4812 128.725 61.125C128.94 63.1194 130.516 64.829 130.444 67.0371C130.372 69.0316 127.937 67.9631 127.722 69.9576C127.794 71.0972 128.51 72.0945 129.585 72.5219C130.659 72.7355 131.662 72.878 132.736 72.9492C132.808 73.5191 132.88 74.73 132.163 75.1574C131.877 75.3711 131.519 75.2998 131.232 75.0149C131.017 74.73 130.946 74.4451 131.017 74.0889C131.017 73.9465 131.017 73.804 131.017 73.6615C130.946 73.5191 130.874 73.4479 130.802 73.3054C130.516 73.9465 130.659 74.73 130.014 75.0861C129.871 75.2286 129.656 75.2286 129.441 75.2286C129.155 74.8725 128.868 74.8725 128.797 74.3738C128.797 73.9465 129.513 73.2342 129.011 72.8068C128.367 74.5163 127.579 74.0889 127.364 74.3738C126.504 73.5903 127.65 72.7355 127.794 72.1657C127.006 72.5219 126.504 73.7328 125.501 72.7355C125.501 72.3794 125.501 72.0945 125.573 71.7383C125.86 71.2397 126.648 71.4534 126.862 70.8836C126.361 70.5274 125.716 71.3822 125.143 71.2397C124.642 71.0972 124.284 70.5274 124.499 70.0288C124.713 69.7439 125 69.4589 125.287 69.3165Z" fill="#333"/>
<path fill-rule="evenodd" clip-rule="evenodd" d="M151.146 47.3068C150.931 48.9451 150.215 53.6463 149.714 55.3558C149.427 55.1421 149.212 54.8572 148.997 54.5723C149.714 51.4381 150 48.304 150 45.0986C154.513 46.9506 151.433 54.3586 150.215 57.2078C150.072 56.8516 150 56.4955 150.072 56.1393C150.573 54.2161 151.934 49.23 151.218 47.3068" fill="#333"/>
<path fill-rule="evenodd" clip-rule="evenodd" d="M153.582 60.1982C154.226 58.8448 156.232 56.138 156.948 54.8559C155.731 55.9243 153.797 58.9873 152.364 60.5543C152.292 59.2009 153.009 58.3462 153.797 57.2065C154.728 55.497 156.017 54.0724 157.593 53.0039H157.736C158.524 55.7819 156.59 57.7051 155.014 59.2009C154.656 59.6283 154.298 60.4119 153.582 60.1982Z" fill="#333"/>
<path fill-rule="evenodd" clip-rule="evenodd" d="M148.209 55.7832C150.358 57.1366 149.069 60.6981 148.281 62.2652C147.708 60.983 148.567 59.0598 148.639 57.8489C148.281 58.2763 148.066 59.9146 147.636 60.3419C147.636 60.1283 147.493 59.9858 147.35 59.8433C147.779 58.5612 148.138 57.2078 148.209 55.7832Z" fill="#333"/>
<path fill-rule="evenodd" clip-rule="evenodd" d="M158.596 57.7779C157.45 58.7039 155.516 60.4847 154.441 61.4819C154.226 61.4107 154.37 60.9833 154.226 60.6984C156.375 59.345 156.948 56.852 159.814 56.1396C159.742 59.6299 156.662 60.9833 154.656 62.9778C154.37 62.9065 154.083 62.9065 153.797 62.9778C155.086 61.4107 157.378 59.345 158.596 57.7779Z" fill="#333"/>
<path fill-rule="evenodd" clip-rule="evenodd" d="M161.318 59.5576C161.175 62.9054 157.736 63.689 155.086 65.1136C155.802 63.6177 158.883 62.1931 159.957 60.9822C158.883 61.5521 156.734 63.0479 155.659 63.5465C155.516 63.5465 155.444 63.2616 155.229 63.0479C157.235 61.9794 158.309 59.7713 161.318 59.5576Z" fill="#333"/>
<path fill-rule="evenodd" clip-rule="evenodd" d="M154.585 64.5445C154.585 66.2541 152.579 66.539 151.146 67.3225C151.003 66.2541 153.367 65.8267 153.653 65.1144C152.722 65.3281 151.003 66.6814 150.072 66.3253C151.289 65.6842 152.794 63.6898 154.585 64.5445Z" fill="#333"/>
<path fill-rule="evenodd" clip-rule="evenodd" d="M162.536 63.5463C162.106 66.1106 158.453 66.3243 156.089 67.464C155.731 67.464 156.304 67.0366 156.232 66.7517C157.378 66.2531 159.312 65.3983 160.387 64.8285C158.954 65.1846 157.521 65.6832 156.089 66.2531C155.946 66.0394 155.587 66.0394 155.516 65.6832C157.665 64.8997 159.814 62.9765 162.536 63.5463Z" fill="#333"/>
<path fill-rule="evenodd" clip-rule="evenodd" d="M133.453 87.4085C132.808 86.625 133.668 85.5565 133.954 84.5593C134.026 84.4881 134.026 84.773 134.169 84.773C133.954 85.2716 133.811 85.9839 133.668 86.4825C133.883 85.9839 134.097 85.414 134.312 84.9154C134.456 84.9154 134.527 84.8442 134.599 84.9154C134.312 85.699 134.312 86.7674 133.453 87.4085Z" fill="#333"/>
<path fill-rule="evenodd" clip-rule="evenodd" d="M134.384 91.6833C135.817 91.2559 135.673 87.9793 136.103 85.7711C136.103 85.4862 135.888 85.9848 135.745 85.9136C135.53 86.9821 135.172 88.6916 134.957 89.6888C134.957 88.7628 135.315 86.7684 135.458 85.8424C135.315 85.6999 135.315 85.415 135.1 85.3438C134.742 87.267 133.811 89.2614 134.384 91.6833Z" fill="#333"/>
<path fill-rule="evenodd" clip-rule="evenodd" d="M141.547 87.4085C142.192 86.625 141.332 85.5565 141.046 84.5593C140.974 84.4881 140.974 84.773 140.831 84.773C140.974 85.2004 141.189 85.9839 141.332 86.4113C141.118 85.9127 140.903 85.3428 140.688 84.8442C140.544 84.8442 140.473 84.773 140.401 84.8442C140.688 85.699 140.688 86.7674 141.547 87.4085Z" fill="#333"/>
<path fill-rule="evenodd" clip-rule="evenodd" d="M140.688 91.6833C139.255 91.2559 139.398 87.9793 138.969 85.7711C138.969 85.4862 139.183 85.9848 139.327 85.9136C139.542 86.9821 139.9 88.6916 140.115 89.6888C140.115 88.7628 139.756 86.7684 139.613 85.8424C139.756 85.6999 139.756 85.415 139.971 85.3438C140.258 87.267 141.189 89.2614 140.688 91.6833Z" fill="#333"/>
<path fill-rule="evenodd" clip-rule="evenodd" d="M153.582 66.8229C154.155 66.538 154.871 66.7517 155.158 67.3215C154.943 68.7461 152.149 68.6037 151.075 69.1735C151.075 69.1023 151.003 68.9598 150.86 68.9598C151.934 68.4612 153.009 67.9626 154.155 67.6065C153.08 67.7489 152.006 67.9626 151.003 68.39C150.788 68.2475 151.003 67.8914 151.075 67.7489C151.934 67.464 152.794 67.1791 153.582 66.8229Z" fill="#333"/>
<path fill-rule="evenodd" clip-rule="evenodd" d="M162.536 67.0371C162.321 68.8891 159.885 68.9603 157.521 69.174C156.948 69.174 156.089 69.6014 156.089 68.8179C157.235 68.6042 159.384 68.1056 160.458 67.8207C159.312 67.6782 156.519 68.6042 155.516 68.3193C157.45 67.8919 161.175 65.5413 162.536 67.0371Z" fill="#333"/>
<path fill-rule="evenodd" clip-rule="evenodd" d="M155.158 69.6723C154.799 71.0969 152.865 70.6695 151.648 70.4558C151.862 69.9572 153.94 69.9572 154.441 69.6723C154.011 69.3162 151.719 70.1709 151.576 69.4586C152.794 69.1737 154.656 68.3189 155.158 69.6723Z" fill="#333"/>
<path fill-rule="evenodd" clip-rule="evenodd" d="M162.464 71.1678C160.315 72.7349 157.593 71.0254 155.444 70.8829C155.731 70.2418 156.733 70.5268 157.45 70.598C158.166 70.6692 159.742 70.8117 160.458 70.8117C159.026 70.5268 157.593 70.3131 156.16 70.1706C156.16 70.0281 156.232 69.9569 156.375 69.8857C158.596 69.672 161.748 69.1021 162.464 71.1678Z" fill="#333"/>
<path fill-rule="evenodd" clip-rule="evenodd" d="M154.37 72.6651C153.224 73.4486 152.579 72.8787 151.648 72.3089C151.146 72.024 150.501 71.8103 150.43 71.4541C151.146 71.5966 152.865 72.024 153.582 72.1664C153.51 71.8815 151.648 71.3117 151.289 71.1692C151.289 71.0268 151.361 71.0268 151.289 70.9555C152.507 70.8131 154.298 70.8131 154.37 72.6651Z" fill="#333"/>
<path fill-rule="evenodd" clip-rule="evenodd" d="M158.095 76.4402C157.163 75.3717 155.229 74.5169 154.155 73.591C155.086 73.2348 156.304 74.0896 157.307 74.6594C158.309 75.2293 159.885 75.7279 159.599 77.2949C158.381 78.4346 157.378 77.1525 156.304 76.4402C155.444 75.8703 154.155 75.3717 154.298 74.4457C155.516 74.7306 157.092 75.8703 158.095 76.4402Z" fill="#333"/>
<path fill-rule="evenodd" clip-rule="evenodd" d="M144.699 75.87C144.914 75.87 145.057 75.87 145.272 75.9412C145.559 76.4398 145.989 78.2206 146.275 78.7192C146.49 78.1494 145.559 76.0837 145.989 75.7275C146.633 76.7248 147.851 78.648 146.49 79.4315C145.129 79.2891 144.914 77.5795 144.699 75.87Z" fill="#333"/>
<path fill-rule="evenodd" clip-rule="evenodd" d="M142.693 76.084C142.908 76.084 143.052 76.1552 143.267 76.2264C143.481 76.7251 143.553 78.5058 143.768 79.0757C144.054 78.5771 143.481 76.3689 143.983 76.084C144.413 77.1524 145.272 79.2894 143.84 79.788C142.55 79.4318 142.622 77.7223 142.693 76.084Z" fill="#333"/>
<path fill-rule="evenodd" clip-rule="evenodd" d="M155.946 78.6477C155.587 77.7217 153.94 76.5108 153.367 75.5848C153.51 75.5136 153.653 75.5136 153.725 75.3711C154.585 76.3683 157.951 77.4368 157.092 79.5737C156.877 79.6449 156.59 79.7161 156.304 79.7874C155.659 80.0011 155.229 79.5025 154.799 79.0751C154.37 78.6477 153.94 78.0778 153.51 77.5792C153.295 77.2943 153.009 77.0094 152.722 76.7957C152.865 76.582 152.722 75.9409 153.009 76.0834C153.868 77.0094 154.871 77.8642 155.946 78.6477Z" fill="#333"/>
<path fill-rule="evenodd" clip-rule="evenodd" d="M151.433 75.5137C151.719 75.7274 151.504 76.226 151.504 76.4397C151.218 76.226 151.504 75.7986 151.433 75.5137Z" fill="#333"/>
<path fill-rule="evenodd" clip-rule="evenodd" d="M150.931 77.5084C151.361 78.3632 151.934 79.218 152.65 79.859C152.435 78.933 151.719 78.1495 151.504 77.2235L152.364 77.0811C152.865 78.2207 154.513 79.5029 153.367 80.7138C153.223 80.9275 152.794 80.8563 152.579 80.8563C152.292 80.8563 152.006 80.6426 151.862 80.3577C151.433 79.6453 151.074 78.8618 150.645 78.0783C150.716 77.7934 150.788 77.5084 151.003 77.366" fill="#333"/>
<path fill-rule="evenodd" clip-rule="evenodd" d="M154.226 49.0869C157.378 51.8649 153.51 56.5661 152.006 58.5606C151.791 57.7058 152.65 56.7798 152.937 56.0675C153.224 55.3552 154.083 53.0046 154.37 52.221C153.295 53.6457 152.006 57.7058 150.215 58.7742C150.788 57.4921 151.361 56.1387 152.006 54.7141C152.292 54.073 153.868 50.4403 154.226 49.0869Z" fill="#333"/>
<path fill-rule="evenodd" clip-rule="evenodd" d="M152.579 62.6913C151.648 63.3323 150.716 63.9734 149.857 64.7569C149.928 63.6172 151.289 62.4776 151.791 62.1214C151.791 62.1214 152.937 61.3379 153.438 61.7653C153.797 64.3295 151.289 64.7569 149.928 66.0391C149.713 64.8994 152.077 63.6172 152.579 62.6913Z" fill="#333"/>
<path fill-rule="evenodd" clip-rule="evenodd" d="M152.579 74.4454C151.289 75.3714 150.43 73.9468 149.714 73.3058C150.43 72.8071 151.361 73.8044 151.934 74.0181C151.934 73.377 150.143 73.1633 150.358 72.2373C151.146 72.6647 152.865 73.1633 152.579 74.4454Z" fill="#333"/>
<path fill-rule="evenodd" clip-rule="evenodd" d="M146.991 76.2977C146.848 75.6566 146.347 75.4429 146.705 74.9443C147.421 75.158 147.994 77.0812 148.711 77.4374C148.352 76.6539 147.994 75.8703 147.564 75.0868C147.851 75.158 147.994 75.2293 148.209 75.0156C148.496 76.084 150.072 77.0812 149.14 78.1497C148.926 77.7935 147.636 78.5771 146.991 76.2977Z" fill="#333"/>
<path fill-rule="evenodd" clip-rule="evenodd" d="M161.676 74.3736C161.031 71.4532 157.307 72.5929 155.229 71.5244C155.587 72.2367 156.59 72.3079 157.307 72.6641C158.023 73.0202 159.742 73.4476 160.315 73.8038C159.026 73.5189 156.662 72.7353 155.372 72.4504C155.372 72.7353 155.587 72.7353 155.516 73.0202C157.235 73.1627 159.169 75.2996 160.817 74.801H160.888C161.175 74.7298 161.318 74.4448 161.605 74.3736" fill="#333"/>
<path fill-rule="evenodd" clip-rule="evenodd" d="M150.215 74.5155C150.072 74.373 149.928 74.3018 149.785 74.1593C149.427 73.8744 149.14 73.3758 148.782 73.732C149.212 74.2306 150.573 75.584 151.003 76.1538C150.43 75.8689 149.14 74.4443 148.496 74.1593C148.496 75.0853 150.072 77.0798 151.146 76.7236L151.433 76.5812L151.504 76.4387C151.576 76.1538 151.576 75.9401 151.576 75.6552C151.576 75.4415 150.215 74.5155 150.215 74.5155Z" fill="#333"/>
<path fill-rule="evenodd" clip-rule="evenodd" d="M151.289 59.3436C151.289 59.2724 151.218 59.2012 151.146 59.2012C149.642 60.4833 148.567 62.1928 148.138 64.1161L148.639 64.0448C149.284 62.8339 150 61.6942 150.788 60.5545C150.287 61.7655 149.713 62.9051 149.069 63.9736H149.57C150.358 62.6202 152.077 61.623 151.289 59.3436Z" fill="#333"/>
<path fill-rule="evenodd" clip-rule="evenodd" d="M149.785 69.3165C149.212 69.2453 148.567 69.8151 148.352 69.3877C149.212 68.8891 150.43 68.6754 150 67.2508C148.854 66.681 148.138 68.0343 147.35 68.1056C147.851 67.1084 149.355 66.5385 148.782 64.9002C146.777 64.9002 146.848 66.7522 146.203 66.9659C146.347 66.9659 146.418 65.9687 146.49 65.8262C146.705 65.1851 147.278 64.6865 147.35 64.0454C147.35 63.5468 147.278 63.0482 147.135 62.6208C147.063 62.051 146.705 61.4812 146.203 61.125C145.989 63.1194 144.413 64.829 144.484 67.0371C144.556 69.0316 146.991 67.9631 147.206 69.9576C147.135 71.0972 146.418 72.0945 145.344 72.5219C144.269 72.7355 143.266 72.878 142.192 72.9492C142.12 73.5191 142.049 74.73 142.765 75.1574C143.052 75.3711 143.41 75.2998 143.696 75.0149C143.911 74.73 143.983 74.4451 143.911 74.0889C143.911 73.9465 143.911 73.804 143.911 73.6615C143.983 73.5191 144.054 73.4479 144.126 73.3054C144.413 73.9465 144.269 74.73 144.914 75.0861C145.057 75.2286 145.272 75.2286 145.487 75.2286C145.774 74.8725 146.06 74.8725 146.132 74.3738C146.203 73.9465 145.415 73.2342 145.917 72.8068C146.562 74.5163 147.35 74.0889 147.564 74.3738C148.424 73.5903 147.278 72.7355 147.135 72.1657C147.923 72.5219 148.424 73.7328 149.499 72.7355C149.499 72.3794 149.499 72.0945 149.427 71.7383C149.14 71.2397 148.352 71.4534 148.138 70.8836C148.639 70.5274 149.284 71.3822 149.857 71.2397C150.358 71.0972 150.716 70.5274 150.501 70.0288C150.287 69.7439 150.072 69.4589 149.785 69.3165Z" fill="#333"/>
<path fill-rule="evenodd" clip-rule="evenodd" d="M138.467 86.1974C138.18 86.1974 138.037 86.5536 137.822 86.6248C137.751 87.907 137.751 90.6137 137.536 91.8246C137.321 90.5425 137.321 87.907 137.249 86.6248C136.963 86.5536 136.891 86.1262 136.605 86.1974C136.748 88.833 135.817 91.8246 137.321 94.7451L137.607 95.2437L137.894 94.7451C139.255 91.8246 138.395 88.7617 138.467 86.1974Z" fill="#333"/>
<path fill-rule="evenodd" clip-rule="evenodd" d="M140.974 67.1791C141.547 67.1791 141.977 67.0367 142.12 67.3928C141.117 67.1791 140.043 68.0339 139.9 67.3928C139.9 67.9627 139.255 68.0339 139.112 68.5325C138.825 69.3873 139.255 70.3845 140.115 70.6694C140.115 70.6694 140.115 70.6694 140.186 70.6694C140.401 70.7406 140.616 70.7406 140.831 70.7406C140.688 71.168 140.258 71.7379 139.685 71.3817C139.9 71.5954 140.186 71.8091 140.401 72.094L137.536 73.02L134.527 72.0228C134.599 71.8091 134.599 71.5242 134.599 71.3105C134.599 70.5269 134.885 69.7434 135.315 69.0311C134.957 69.1736 134.026 69.1736 133.954 68.8174C135.387 68.1051 135.387 65.7545 136.819 65.0422C136.246 65.0422 136.032 64.4724 135.888 64.1162C137.106 64.8285 141.404 63.3327 141.691 64.8997C141.762 65.3984 141.261 65.5408 141.332 65.8257C141.619 65.612 141.905 65.3984 142.12 65.1134C142.908 65.2559 143.41 66.0394 143.266 66.823C143.195 67.0367 143.123 67.2503 142.98 67.3928C142.55 66.7517 141.619 66.6805 140.974 67.1791ZM139.255 65.1134C138.682 65.1134 139.47 65.897 139.828 65.8257C140.186 65.7545 140.473 65.1847 140.974 65.4696C140.974 65.0422 140.043 65.0422 139.255 65.1134Z" fill="#333"/>
<path fill-rule="evenodd" clip-rule="evenodd" d="M142.12 79.5033C141.691 78.2924 141.547 77.0103 141.762 75.7994C141.404 74.8734 141.261 73.8761 141.332 72.8789C140.115 73.4487 138.825 73.8049 137.536 74.0898C136.246 73.8049 134.957 73.3775 133.739 72.8789C133.811 73.8761 133.668 74.8734 133.309 75.7994C133.524 77.0815 133.381 78.3636 132.951 79.5033C132.951 79.5033 132.235 83.3498 135.458 84.4895C138.682 85.6291 136.39 85.6291 139.613 84.4895C142.837 83.3498 142.049 79.5033 142.12 79.5033ZM139.9 74.3747C140.043 74.8021 140.186 75.6569 140.401 76.013C140.33 75.5144 140.186 74.8021 140.115 74.3035C140.258 74.3035 140.258 74.0186 140.33 74.0898C140.473 75.087 141.261 76.2267 140.544 76.939C139.756 76.2267 139.9 75.087 139.685 74.3035C139.685 74.3035 139.756 74.3747 139.9 74.3747ZM134.599 74.0898C134.67 73.9474 134.67 74.2323 134.814 74.3035C134.742 74.8021 134.599 75.5144 134.527 76.013C134.742 75.4432 134.885 74.9446 135.029 74.3747C135.172 74.3747 135.244 74.3035 135.315 74.3035C135.1 75.1583 135.244 76.2267 134.456 76.939C133.739 76.2267 134.456 75.087 134.599 74.0898ZM133.883 81.4978C133.166 80.7855 133.883 79.6458 134.097 78.6486C134.169 78.5773 134.169 78.791 134.312 78.8623C134.241 79.3609 134.097 80.1444 134.026 80.5718C134.241 80.0019 134.384 79.5033 134.456 78.9335C134.599 78.9335 134.599 78.8623 134.742 78.8623C134.527 79.717 134.67 80.7855 133.883 81.4978ZM135.172 83.6347C134.456 82.9224 135.172 81.7827 135.387 80.7855C135.458 80.7142 135.458 80.9279 135.602 80.9992C135.53 81.4978 135.387 82.2813 135.315 82.7087C135.53 82.1389 135.673 81.6402 135.817 81.0704C135.96 81.0704 135.96 80.9279 136.103 80.9992C135.817 81.7827 135.96 82.9224 135.172 83.6347ZM135.673 79.4321C134.957 78.7198 135.673 77.5801 135.888 76.5829C135.96 76.4404 135.96 76.7253 136.103 76.7966C136.032 77.2952 135.888 78.0787 135.817 78.5061C136.032 77.9363 136.175 77.4376 136.246 76.8678C136.39 76.8678 136.461 76.7966 136.533 76.8678C136.318 77.6513 136.461 78.791 135.673 79.4321ZM137.607 84.2045L137.536 84.4182L137.393 84.2045C137.034 83.2785 136.963 82.2813 137.106 81.3553C137.249 81.3553 137.249 81.4978 137.321 81.4978C137.321 82.0676 137.321 82.6375 137.464 83.2073C137.536 82.6375 137.536 82.0676 137.607 81.4978C137.679 81.4978 137.751 81.3553 137.894 81.3553C138.037 82.2813 137.894 83.2785 137.607 84.2045ZM137.536 80.0019L137.464 80.1444L137.321 80.0019C136.748 79.2184 137.106 78.4349 137.034 77.7938C137.178 77.7938 137.178 77.865 137.249 77.9363C137.249 78.3636 137.321 78.8623 137.321 79.2896C137.393 78.8623 137.393 78.3636 137.464 77.9363C137.536 77.9363 137.607 77.7938 137.751 77.7938C137.822 78.5061 138.109 79.2184 137.536 80.0019ZM137.536 76.1555L137.393 76.2267L137.321 76.1555C136.748 75.6569 137.106 75.1583 137.034 74.7309C137.178 74.7309 137.178 74.8021 137.321 74.8021C137.321 75.0871 137.393 75.4432 137.464 75.7281C137.536 75.4432 137.536 75.1583 137.607 74.8734C137.679 74.8734 137.751 74.8021 137.822 74.8021C137.822 75.2295 138.109 75.7281 137.536 76.1555ZM138.61 76.939C138.754 77.5089 138.897 78.0075 139.112 78.5773C139.04 78.15 138.897 77.3664 138.825 76.8678C138.968 76.8678 138.968 76.5829 139.04 76.6541C139.183 77.6513 139.971 78.791 139.255 79.5033C138.467 78.791 138.61 77.6513 138.395 76.8678H138.682L138.61 76.939ZM139.685 83.6347C138.897 82.9224 139.04 81.7827 138.825 80.9992C138.968 80.9992 139.04 81.0704 139.112 81.0704C139.255 81.6402 139.398 82.1389 139.542 82.7087C139.47 82.2813 139.327 81.4978 139.255 80.9992C139.398 80.9992 139.327 80.7142 139.47 80.7855C139.613 81.7827 140.401 82.9224 139.685 83.6347ZM140.903 81.4978C140.115 80.7855 140.258 79.6458 140.043 78.8623C140.186 78.8623 140.258 78.9335 140.33 78.9335C140.473 79.5033 140.616 80.0732 140.831 80.5718C140.759 80.1444 140.616 79.3609 140.544 78.8623C140.688 78.8623 140.688 78.5773 140.759 78.6486C140.903 79.6458 141.691 80.7855 140.903 81.4978Z" fill="#333"/>
<path fill-rule="evenodd" clip-rule="evenodd" d="M147.35 88.3344C147.923 87.6221 147.063 87.1235 146.347 87.1947C146.49 86.8385 146.92 86.6961 147.278 86.8385C147.278 86.8385 147.278 86.8385 147.35 86.8385C147.421 86.8385 147.493 86.9098 147.493 86.981C147.493 85.4139 145.917 85.9125 145.415 87.1235C144.556 86.2687 143.84 85.3427 142.908 84.5592C143.123 84.203 143.41 83.9893 143.553 83.6332C142.837 83.2058 142.264 82.4935 141.977 81.71L141.762 82.2798L140.186 81.71L139.971 81.9237C140.974 82.8496 140.831 84.4167 141.619 85.3427C141.977 85.3427 142.049 84.8441 142.407 84.8441C143.123 85.5564 143.911 86.1975 144.628 86.9098C144.628 87.1947 144.413 87.4084 144.126 87.4084C143.983 87.4084 143.911 87.3372 143.768 87.2659C143.338 87.4796 142.407 88.1919 143.338 88.6193C143.267 88.4768 143.338 88.3344 143.41 88.2631C144.341 88.1207 145.63 87.2659 145.989 88.6905C145.917 88.833 145.845 88.9755 145.63 89.0467C146.347 89.3316 146.633 88.1919 146.275 87.7645C146.777 87.8358 147.063 88.0495 147.35 88.3344Z" fill="#333"/>
<path fill-rule="evenodd" clip-rule="evenodd" d="M133.309 82.4944L133.023 81.5684C132.736 82.4231 132.163 83.2067 131.375 83.7053C131.59 84.0614 131.805 84.2751 132.02 84.6313C131.089 85.3436 130.373 86.2696 129.441 87.1243C128.94 85.9134 127.436 85.3436 127.364 86.9106C127.65 86.6257 128.08 86.6257 128.367 86.9106C128.438 86.9819 128.438 86.9819 128.51 87.0531C127.722 86.9819 126.934 87.4805 127.436 88.1928C127.65 88.0503 128.009 87.6942 128.367 87.7654C128.009 88.264 128.295 89.4037 129.011 89.0476C128.868 89.0476 128.797 88.9051 128.653 88.6914C129.011 87.2668 130.301 88.1216 131.232 88.264C131.375 88.3352 131.375 88.4777 131.304 88.6202C132.235 88.264 131.375 87.4805 130.946 87.2668C130.659 87.5517 130.158 87.2668 130.086 86.8394C130.802 86.1271 131.59 85.486 132.307 84.845C132.665 84.845 132.736 85.2723 133.095 85.3436C133.954 84.3463 133.811 82.708 134.885 81.9245L134.814 81.8533L133.309 82.4944Z" fill="#333"/>
</g>
<path d="M240.646 85.6774C240.491 85.9581 240.336 86.2484 240.162 86.5291C240.085 86.6742 239.988 86.8194 239.92 86.9549C239.872 87.0806 239.823 87.2258 239.785 87.3613C239.611 87.9323 239.456 88.5517 239.311 89.1517L238.42 92.8002C238.14 94.0196 237.869 95.239 237.617 96.4584C237.462 97.2714 237.307 98.0746 237.21 98.9262L267.134 69.8156C264.458 64.0767 262.698 57.9538 261.918 51.6699C257.272 53.8764 251.33 56.6152 243.307 59.9444C229.981 65.4704 226.4 94.0777 226.4 94.0777C226.4 94.0777 232.546 95.4325 236.01 94.4261C236.067 93.7237 236.167 93.0256 236.31 92.3357C236.573 91.023 236.982 89.744 237.53 88.5227C237.807 87.897 238.141 87.2977 238.527 86.7323C238.623 86.5872 238.74 86.442 238.865 86.2872L239.127 85.8903C239.311 85.629 239.475 85.3581 239.64 85.0871C240.995 82.9096 242.282 80.6547 243.549 78.4095L247.372 71.6448C246.327 74.0158 245.253 76.3739 244.149 78.7192C243.027 81.0515 241.904 83.3838 240.646 85.6774ZM228.326 93.8067C227.95 93.7933 227.594 93.6345 227.333 93.3637C227.071 93.0929 226.925 92.7313 226.925 92.355C226.925 91.9787 227.071 91.6171 227.333 91.3463C227.594 91.0756 227.95 90.9167 228.326 90.9034C228.702 90.9167 229.059 91.0756 229.32 91.3463C229.581 91.6171 229.727 91.9787 229.727 92.355C229.727 92.7313 229.581 93.0929 229.32 93.3637C229.059 93.6345 228.702 93.7933 228.326 93.8067V93.8067ZM233.088 93.8067C232.712 93.7933 232.356 93.6345 232.094 93.3637C231.833 93.0929 231.687 92.7313 231.687 92.355C231.687 91.9787 231.833 91.6171 232.094 91.3463C232.356 91.0756 232.712 90.9167 233.088 90.9034C233.464 90.9167 233.82 91.0756 234.081 91.3463C234.343 91.6171 234.489 91.9787 234.489 92.355C234.489 92.7313 234.343 93.0929 234.081 93.3637C233.82 93.6345 233.464 93.7933 233.088 93.8067V93.8067Z" fill="#333"/>
<path d="M237.13 100.25C238.742 100.954 240.454 101.402 242.204 101.578C243.042 101.65 243.887 101.618 244.718 101.484C245.579 101.379 246.417 101.111 247.368 100.9C246.739 101.646 245.932 102.222 245.022 102.575C244.096 102.958 243.091 103.112 242.092 103.025C241.1 102.95 240.137 102.661 239.267 102.179C238.405 101.724 237.671 101.061 237.13 100.25V100.25Z" fill="#333"/>
<path d="M151.582 146.521C151.428 145.195 151.35 143.86 151.35 142.524L151.582 146.521Z" fill="#333"/>
<path d="M151.65 147.702L151.582 146.521C151.826 149.168 152.617 151.735 153.905 154.06C151.456 150.47 151.65 147.702 151.65 147.702Z" fill="#333"/>
<path d="M153.992 154.196C154.302 154.651 154.66 155.116 155.056 155.59C154.656 155.162 154.3 154.695 153.992 154.196Z" fill="#333"/>
<path d="M358.076 171.916L0 169.487V163.632C29.7977 164.106 59.5954 164.464 89.3931 164.706C119.191 165.035 148.988 165.142 178.786 165.316C208.584 165.529 238.391 165.538 268.189 165.596L312.89 165.645L357.243 165.548L358.076 171.916Z" fill="#333"/>
<path d="M415.116 130.476V136.486L358.075 171.916L357.969 165.423L372.234 156.751L386.537 148.012L415.116 130.476Z" fill="#333"/>
<path d="M223.915 146.702L225.85 146.737" stroke="#273665" stroke-width="1.93554" stroke-miterlimit="10"/>
<path d="M229.831 146.809L275.616 147.634" stroke="#273665" stroke-width="1.93554" stroke-miterlimit="10" stroke-dasharray="3.98 3.98"/>
<path d="M277.607 147.67L279.542 147.705" stroke="#273665" stroke-width="1.93554" stroke-miterlimit="10"/>
<path d="M226.032 143.239L227.967 143.274" stroke="#273665" stroke-width="1.93554" stroke-miterlimit="10"/>
<path d="M231.948 143.346L277.733 144.171" stroke="#273665" stroke-width="1.93554" stroke-miterlimit="10" stroke-dasharray="3.98 3.98"/>
<path d="M279.724 144.207L281.659 144.242" stroke="#273665" stroke-width="1.93554" stroke-miterlimit="10"/>
<path d="M228.587 139.819L230.522 139.854" stroke="#273665" stroke-width="1.93554" stroke-miterlimit="10"/>
<path d="M234.503 139.926L280.289 140.751" stroke="#273665" stroke-width="1.93554" stroke-miterlimit="10" stroke-dasharray="3.98 3.98"/>
<path d="M282.279 140.787L284.214 140.822" stroke="#273665" stroke-width="1.93554" stroke-miterlimit="10"/>
<path d="M63.7202 136.036C64.2177 150.074 64.5468 164.112 64.9663 178.15L65.9011 220.264C66.072 227.283 66.2692 234.302 66.4929 241.321C66.6914 248.34 66.7018 255.359 66.5241 262.378L66.1581 272.906C65.9731 276.416 65.8493 279.925 65.6 283.435C65.1667 290.454 64.613 297.473 63.7201 304.492C63.7105 304.568 63.6736 304.637 63.6162 304.688C63.5589 304.738 63.4851 304.766 63.4086 304.766C63.3322 304.766 63.2584 304.738 63.2011 304.688C63.1437 304.637 63.1068 304.568 63.0971 304.492C62.2043 297.473 61.6506 290.454 61.2175 283.435C60.968 279.925 60.8442 276.416 60.6591 272.906L60.2932 262.378C60.1127 255.359 60.1231 248.34 60.3244 241.321C60.5554 234.302 60.7526 227.283 60.9162 220.264L61.851 178.15C62.2705 164.112 62.5995 150.074 63.0971 136.036C63.1001 135.955 63.1342 135.879 63.1923 135.823C63.2504 135.767 63.3279 135.735 63.4086 135.735C63.4893 135.735 63.5668 135.767 63.6249 135.823C63.683 135.879 63.7171 135.955 63.7201 136.036H63.7202Z" fill="#333"/>
<path d="M7.97655 171.808C8.47411 185.846 8.80322 199.884 9.22266 213.922L10.1575 256.036C10.3284 263.055 10.5256 270.074 10.7493 277.093C10.948 284.112 10.9584 291.131 10.7805 298.15L10.4145 308.678C10.2294 312.188 10.1057 315.697 9.8564 319.207C9.42305 326.226 8.86959 333.245 7.97652 340.264C7.96693 340.34 7.93 340.409 7.87265 340.46C7.81529 340.51 7.74146 340.538 7.66499 340.538C7.58853 340.538 7.51469 340.51 7.45734 340.46C7.39998 340.409 7.36305 340.34 7.35347 340.264C6.46065 333.245 5.90695 326.226 5.47385 319.207C5.22433 315.697 5.10055 312.188 4.9155 308.678L4.5495 298.15C4.36908 291.131 4.3795 284.112 4.58075 277.093C4.81171 270.074 5.00897 263.055 5.17255 256.036L6.10734 213.922C6.52677 199.884 6.85589 185.845 7.35344 171.808C7.35629 171.727 7.39038 171.65 7.44849 171.594C7.5066 171.538 7.5842 171.507 7.66496 171.507C7.74573 171.507 7.82334 171.538 7.88145 171.594C7.93956 171.65 7.97363 171.727 7.97649 171.808H7.97655Z" fill="#333"/>
<path d="M407.86 136.036C408.357 150.074 408.686 164.112 409.106 178.15L410.04 220.264C410.212 227.283 410.409 234.302 410.633 241.321C410.831 248.34 410.841 255.359 410.664 262.378L410.298 272.906C410.113 276.416 409.989 279.925 409.739 283.435C409.306 290.454 408.753 297.473 407.86 304.492C407.85 304.568 407.813 304.637 407.756 304.688C407.699 304.738 407.625 304.766 407.548 304.766C407.472 304.766 407.398 304.738 407.341 304.688C407.283 304.637 407.246 304.568 407.237 304.492C406.344 297.473 405.79 290.454 405.357 283.435C405.107 279.925 404.984 276.416 404.799 272.906L404.433 262.378C404.252 255.359 404.263 248.34 404.464 241.321C404.695 234.302 404.892 227.283 405.056 220.264L405.99 178.15C406.41 164.112 406.739 150.074 407.237 136.036C407.24 135.955 407.274 135.879 407.332 135.823C407.39 135.767 407.468 135.735 407.548 135.735C407.629 135.735 407.706 135.767 407.765 135.823C407.823 135.879 407.857 135.955 407.86 136.036H407.86Z" fill="#333"/>
<path d="M352.116 171.808C352.614 185.846 352.943 199.884 353.362 213.922L354.297 256.036C354.468 263.055 354.665 270.074 354.889 277.093C355.087 284.112 355.098 291.131 354.92 298.15L354.554 308.678C354.369 312.188 354.245 315.697 353.996 319.207C353.563 326.226 353.009 333.245 352.116 340.264C352.106 340.34 352.069 340.409 352.012 340.46C351.955 340.511 351.881 340.538 351.805 340.538C351.728 340.538 351.654 340.511 351.597 340.46C351.54 340.409 351.503 340.34 351.493 340.264C350.6 333.245 350.047 326.226 349.613 319.207C349.364 315.697 349.24 312.188 349.055 308.678L348.689 298.15C348.509 291.131 348.519 284.112 348.72 277.093C348.951 270.074 349.149 263.055 349.312 256.036L350.247 213.922C350.666 199.884 350.995 185.846 351.493 171.808C351.496 171.727 351.53 171.651 351.588 171.595C351.646 171.539 351.724 171.508 351.805 171.508C351.885 171.508 351.963 171.539 352.021 171.595C352.079 171.651 352.113 171.727 352.116 171.808H352.116Z" fill="#333"/>
<path d="M273.853 44.1289C272.22 44.0764 270.663 43.4324 269.47 42.3167C268.257 41.2738 267.186 40.0762 266.284 38.7544C265.375 37.4605 264.558 36.104 263.839 34.6953C263.108 33.292 262.458 31.8477 261.894 30.3694L263.439 30.7796C263.174 31.0059 262.865 31.1745 262.531 31.2748C262.198 31.3751 261.847 31.4047 261.501 31.3619C260.922 31.2726 260.374 31.0409 259.907 30.6876C259.094 30.0855 258.453 29.2821 258.045 28.3565C257.619 27.4602 257.425 26.4715 257.48 25.4807C257.537 24.4801 257.883 23.5175 258.477 22.71C259.052 21.9534 259.789 21.3351 260.635 20.9004C261.074 20.6649 261.553 20.5141 262.048 20.4558C262.587 20.3942 263.131 20.5256 263.583 20.8268C264.309 21.4445 264.811 22.2849 265.009 23.2172C265.235 24.0625 265.374 24.929 265.422 25.8027L265.156 25.4863C266.258 25.714 267.404 25.5552 268.402 25.0369C269.422 24.5105 270.341 23.8097 271.119 22.9661C272.678 21.2318 274.005 19.3029 275.067 17.2276C276.168 15.1648 277.165 13.0415 278.091 10.8861C279.016 8.73809 279.871 6.52451 280.594 4.33057C280.668 4.10713 280.81 3.91253 281.001 3.77433C281.191 3.63613 281.42 3.56134 281.655 3.56055C281.891 3.55976 282.12 3.63301 282.312 3.76993C282.503 3.90684 282.646 4.10049 282.721 4.32343L282.737 4.36969C283.753 7.44177 284.875 10.5269 286.106 13.5183C286.748 15.0023 287.42 16.4677 288.175 17.8656C288.841 19.208 289.771 20.4022 290.91 21.3767L291.014 21.4517C291.103 21.5163 291.177 21.5991 291.231 21.6946C291.285 21.7902 291.319 21.8962 291.329 22.0056C291.517 24.0959 291.567 26.1675 291.552 28.2544C291.541 29.2999 291.473 30.344 291.348 31.3821C291.262 32.4367 291.001 33.4697 290.577 34.4389C290.565 34.4634 290.544 34.4826 290.519 34.4926C290.494 34.5027 290.465 34.5029 290.44 34.4933C290.414 34.4837 290.393 34.4649 290.381 34.4407C290.368 34.4164 290.365 34.3884 290.373 34.362L290.375 34.3533C290.605 33.3681 290.695 32.3556 290.644 31.3453C290.618 30.328 290.531 29.3122 290.447 28.2961C290.263 26.2671 289.955 24.2311 289.623 22.2351L290.042 22.8637C288.543 21.8444 287.3 20.4924 286.41 18.9134C285.523 17.4705 284.73 15.9722 284.034 14.4278C282.653 11.3784 281.499 8.23099 280.582 5.01126L282.724 5.05037C281.877 7.33997 280.937 9.52988 279.905 11.7096C278.88 13.8925 277.698 15.9984 276.368 18.0106C275.054 20.0531 273.499 21.9307 271.737 23.6034C270.834 24.4428 269.809 25.1399 268.696 25.6707C267.55 26.221 266.258 26.3886 265.009 26.1488C264.939 26.1343 264.875 26.0973 264.827 26.0435C264.78 25.9896 264.751 25.9218 264.745 25.8502L264.744 25.8322C264.691 25.0188 264.536 24.2154 264.282 23.441C264.098 22.7151 263.671 22.0739 263.073 21.6235C261.989 21.0711 260.393 22.3845 259.692 23.5236C259.357 24.14 259.186 24.8323 259.195 25.534C259.205 26.2356 259.395 26.923 259.748 27.5298C260.057 28.1413 260.501 28.6751 261.045 29.0914C261.253 29.2504 261.496 29.3581 261.754 29.4057C261.827 29.4203 261.903 29.4189 261.976 29.4018C262.049 29.3847 262.117 29.3522 262.176 29.3064L262.261 29.247C262.471 29.1008 262.73 29.0439 262.982 29.0888C263.233 29.1336 263.457 29.2766 263.603 29.4862C263.652 29.5576 263.692 29.6351 263.721 29.7167C264.215 31.1166 264.827 32.5329 265.441 33.9151C266.073 35.2955 266.76 36.65 267.518 37.9558C268.262 39.2609 269.14 40.4845 270.138 41.6066C271.086 42.7712 272.399 43.5825 273.864 43.9098C273.879 43.9121 273.892 43.9171 273.905 43.9247C273.917 43.9323 273.928 43.9422 273.936 43.9539C273.945 43.9656 273.951 43.9789 273.954 43.993C273.958 44.0071 273.958 44.0217 273.956 44.036C273.952 44.0609 273.939 44.0836 273.921 44.1005C273.902 44.1173 273.878 44.1273 273.853 44.1289V44.1289Z" fill="#333"/>
<path d="M268.443 40.3519C268.537 41.123 268.617 41.8942 268.688 42.6653C268.783 43.4672 268.777 44.2779 268.67 45.0783C268.422 46.7365 267.713 48.2914 266.623 49.5654C266.071 50.2092 265.431 50.7724 264.723 51.2386C264.373 51.4697 264.01 51.6803 263.635 51.8697L262.598 52.3871C261.21 53.0659 259.826 53.7561 258.412 54.3809C255.596 55.6559 252.672 56.6902 249.774 57.7705C248.318 58.2956 246.874 58.8438 245.445 59.4273C244.006 59.9275 242.631 60.5944 241.347 61.4144C238.935 63.2345 236.969 65.5798 235.599 68.2726C234.142 70.9217 232.906 73.686 231.901 76.5375C229.957 82.3069 228.407 88.2021 227.264 94.1821L226.591 93.2284C228.274 93.6616 229.983 93.9871 231.707 94.2028C232.569 94.313 233.437 94.3679 234.306 94.3671C235.172 94.3798 236.035 94.2481 236.859 93.9772C236.872 93.9719 236.887 93.9692 236.901 93.9694C236.916 93.9696 236.93 93.9727 236.943 93.9784C236.956 93.9841 236.969 93.9924 236.979 94.0028C236.989 94.0132 236.997 94.0254 237.002 94.0389C237.011 94.0626 237.011 94.0887 237.004 94.1128C236.996 94.137 236.98 94.1579 236.959 94.1721C236.165 94.6387 235.288 94.9452 234.376 95.0743C233.477 95.2374 232.567 95.3222 231.654 95.3279C230.746 95.347 229.838 95.3185 228.933 95.2426C228.025 95.1698 227.137 95.0794 226.217 94.921C226.014 94.886 225.831 94.7759 225.705 94.6125C225.579 94.4491 225.519 94.2443 225.537 94.0388L225.544 93.967C225.838 90.854 226.344 87.7647 227.06 84.7208C227.758 81.6679 228.697 78.6753 229.869 75.7711C230.997 72.8269 232.454 70.019 234.211 67.4005C235.988 64.7677 238.277 62.52 240.942 60.7915C242.301 60.0184 243.715 59.3483 245.174 58.7867C246.588 58.1741 247.976 57.5008 249.349 56.7948C252.105 55.4082 254.809 53.9157 257.594 52.6069C258.982 51.9401 260.393 51.3254 261.793 50.6854L262.846 50.2112C263.17 50.0734 263.486 49.9167 263.791 49.742C264.394 49.3925 264.95 48.968 265.446 48.4785C266.466 47.4741 267.211 46.2261 267.613 44.8527C267.818 44.1398 267.94 43.406 267.978 42.6653C268.049 41.8942 268.129 41.1231 268.223 40.352C268.227 40.3252 268.24 40.3005 268.26 40.2826C268.28 40.2648 268.306 40.2549 268.333 40.2549C268.36 40.2549 268.386 40.2648 268.406 40.2826C268.426 40.3005 268.439 40.3252 268.443 40.352L268.443 40.3519Z" fill="#333"/>
<path d="M237.13 100.25C237.748 102.408 238.078 104.638 238.11 106.882C238.228 109.12 238.245 111.36 238.162 113.602C238.095 115.843 237.949 118.083 237.688 120.32C237.47 122.595 237.05 124.846 236.432 127.046L235.464 125.765L249.177 125L262.895 124.351L276.615 123.761C281.188 123.543 285.763 123.417 290.333 123.015C288.095 123.523 285.821 123.888 283.549 124.21C281.276 124.555 278.998 124.833 276.717 125.084C272.155 125.588 267.586 125.992 263.013 126.329C258.442 126.69 253.864 126.928 249.288 127.186C244.708 127.393 240.132 127.607 235.546 127.716L235.531 127.716C235.403 127.719 235.275 127.697 235.155 127.651C235.035 127.604 234.925 127.535 234.832 127.446C234.739 127.357 234.665 127.251 234.613 127.134C234.561 127.016 234.533 126.89 234.53 126.761C234.527 126.65 234.543 126.54 234.578 126.434C235.209 124.356 235.69 122.236 236.018 120.09C236.374 117.916 236.634 115.717 236.87 113.516C237.081 111.312 237.276 109.101 237.38 106.885C237.538 104.671 237.454 102.446 237.13 100.25V100.25Z" fill="#333"/>
<path d="M292.694 127.188C288.784 127.852 271.442 127.495 262.471 127.26C262.471 127.26 281.659 111.194 281.72 105.167C281.72 105.167 288.408 122.38 290.333 123.015L292.694 127.188Z" fill="#333"/>
<path d="M227.402 94.2676C227.202 95.9839 226.902 97.6713 226.569 99.349C226.243 101.029 225.862 102.692 225.46 104.35C225.057 106.008 224.622 107.656 224.156 109.294C223.719 110.942 223.184 112.561 222.699 114.195L222.689 114.227C222.667 114.303 222.634 114.375 222.591 114.442C221.435 116.241 220.256 118.027 219.02 119.778C217.771 121.521 216.497 123.25 215.092 124.9C215.886 122.883 216.811 120.946 217.762 119.023C218.726 117.108 219.747 115.228 220.79 113.361L220.682 113.608C221.15 111.969 221.566 110.316 222.082 108.691C222.564 107.057 223.081 105.433 223.632 103.818C224.183 102.204 224.753 100.596 225.379 99.003C225.998 97.4084 226.65 95.8235 227.402 94.2676Z" fill="#333"/>
<path d="M236.325 121.798C236.624 122.402 236.791 123.063 236.815 123.737C236.839 124.411 236.72 125.082 236.464 125.706C236.386 125.936 236.26 126.147 236.095 126.326C235.929 126.504 235.728 126.645 235.505 126.74C235.596 126.335 235.638 125.921 235.632 125.505C235.638 125.102 235.668 124.7 235.702 124.293C235.765 123.432 235.976 122.588 236.325 121.798V121.798Z" fill="#333"/>
<path d="M258.264 127.188C260.764 126.194 263.142 124.918 265.353 123.386C267.53 121.882 269.579 120.2 271.478 118.356C272.416 117.423 273.364 116.497 274.217 115.476C275.154 114.527 275.929 113.441 276.803 112.424C277.253 111.924 277.617 111.361 278.027 110.827L279.253 109.214C280.045 108.116 280.793 106.983 281.659 105.895C281.229 107.199 280.727 108.487 280.182 109.759C279.541 110.976 278.966 112.248 278.204 113.407C276.737 115.782 274.991 117.972 273.003 119.931C270.983 121.879 268.702 123.535 266.224 124.851C263.775 126.205 261.057 127.003 258.264 127.188V127.188Z" fill="#333"/>
<path d="M247.262 57.6838C248.313 51.531 249.599 45.4454 250.908 39.3749L252.879 30.2892C253.215 28.7805 253.56 27.2761 253.807 25.7756C253.921 25.0353 253.969 24.3376 254.062 23.477C254.169 22.6842 254.32 21.898 254.514 21.122C255.284 18.0716 256.329 15.0977 257.638 12.2369C258.295 10.8049 259.051 9.42045 259.9 8.09361C260.74 6.73866 261.724 5.47806 262.834 4.33361C265.093 1.88789 268.175 0.360874 271.49 0.0445394C272.322 -0.0187268 273.158 -0.0145851 273.989 0.0569143C274.811 0.151035 275.625 0.303551 276.425 0.513305C278.005 0.93199 279.537 1.51734 280.993 2.25951L280.239 2.15951C281.957 1.80899 283.726 1.78136 285.454 2.07803C287.218 2.36884 288.882 3.0891 290.302 4.1753C291.008 4.72676 291.648 5.3575 292.21 6.05513C292.463 6.41737 292.69 6.79724 292.928 7.16887C293.18 7.52736 293.388 7.91434 293.549 8.32176C293.922 9.0982 294.21 9.91234 294.409 10.7502C294.636 11.5631 294.793 12.3939 294.88 13.2335C294.942 14.0642 295.08 14.8939 295.071 15.7203L295.002 18.1918C294.922 19.8101 294.749 21.3476 294.714 22.9387C294.658 24.5137 294.684 26.0906 294.792 27.6628C294.783 29.2206 295.214 30.7493 296.034 32.0738L296.044 32.0876C296.06 32.1089 296.068 32.1355 296.066 32.1622C296.064 32.189 296.053 32.2141 296.033 32.2327C296.014 32.2513 295.988 32.2621 295.962 32.263C295.935 32.264 295.908 32.255 295.888 32.2378C295.284 31.66 294.831 30.9423 294.57 30.1481C294.306 29.3748 294.093 28.5847 293.934 27.7831C293.636 26.189 293.449 24.5763 293.372 22.9565C293.266 21.3543 293.268 19.7002 293.259 18.1285L293.171 15.8107C293.122 15.0427 292.967 14.2935 292.874 13.5368C292.763 12.7922 292.588 12.0588 292.349 11.3449C292.145 10.6384 291.875 9.95226 291.545 9.29528C291.408 8.96163 291.228 8.64757 291.009 8.36128C290.807 8.0672 290.62 7.76169 290.413 7.47437C289.956 6.94378 289.441 6.46492 288.88 6.04637C287.756 5.177 286.434 4.60133 285.032 4.37138C283.611 4.09516 282.153 4.06971 280.724 4.29616L280.656 4.30772C280.421 4.34804 280.179 4.30876 279.969 4.19612C277.431 2.7046 274.543 1.91363 271.599 1.90405C268.64 2.02025 265.817 3.18143 263.633 5.18141C261.36 7.23963 259.529 9.73871 258.252 12.5267C256.914 15.3068 255.997 18.2707 255.532 21.3209C255.415 22.0692 255.34 22.8235 255.307 23.5803C255.294 24.2703 255.308 25.1308 255.254 25.9363C255.121 27.5237 254.942 29.0878 254.684 30.6325C254.195 33.729 253.482 36.7687 252.746 39.7977C251.253 45.8518 249.544 51.8455 247.474 57.7392C247.465 57.7652 247.447 57.7869 247.422 57.7999C247.398 57.8128 247.37 57.8162 247.343 57.8092C247.316 57.8022 247.293 57.7854 247.278 57.7622C247.263 57.7389 247.257 57.711 247.262 57.6837L247.262 57.6838Z" fill="#333"/>
<path d="M208.284 128.753C208.6 128.036 209.031 127.374 209.559 126.796C210.099 126.197 210.724 125.682 211.414 125.266C212.825 124.444 214.411 123.969 216.041 123.881L215.96 123.887C217.076 123.766 218.202 123.782 219.313 123.935C220.412 124.084 221.488 124.37 222.517 124.785C223.546 125.204 224.502 125.785 225.348 126.505C226.183 127.208 226.864 128.075 227.349 129.053C226.511 128.462 225.623 127.945 224.695 127.507C223.808 127.098 222.88 126.78 221.928 126.559C220.056 126.112 218.131 125.928 216.208 126.013L216.127 126.019C214.751 126.019 213.383 126.234 212.074 126.657C211.405 126.881 210.758 127.168 210.143 127.513C209.496 127.885 208.875 128.299 208.284 128.753Z" fill="#333"/>
<path d="M227.402 136.485C220.843 152.242 210.681 146.026 210.681 146.026C210.681 146.026 215.243 143.277 216.027 130.092C216.027 130.092 218.008 127.193 220.565 130.092C222.701 132.371 224.985 134.506 227.402 136.485V136.485Z" fill="#333"/>
<path d="M227.496 136.461C227.27 137.271 226.989 138.208 226.648 139.171C226.27 140.072 225.84 140.879 225.404 141.732C225.16 142.138 224.878 142.525 224.605 142.917C224.346 143.322 224.054 143.705 223.733 144.063L222.726 145.115C222.363 145.446 221.982 145.755 221.583 146.041C219.971 147.218 218.014 147.825 216.02 147.767C214.098 147.703 212.218 147.194 210.527 146.279C210.484 146.256 210.448 146.224 210.422 146.184C210.396 146.144 210.38 146.098 210.376 146.051C210.373 146.003 210.381 145.956 210.401 145.912C210.42 145.869 210.45 145.831 210.488 145.802L210.528 145.773C211.571 144.869 212.359 143.708 212.813 142.404C213.324 141.102 213.711 139.755 213.97 138.381C214.135 137.704 214.226 137.004 214.369 136.322C214.468 135.627 214.577 134.935 214.66 134.239C214.723 133.538 214.802 132.841 214.851 132.139C214.878 131.434 214.943 130.733 214.995 130.031L214.999 129.971C215.011 129.804 215.072 129.643 215.174 129.51C215.645 128.828 216.313 128.306 217.088 128.013C217.503 127.858 217.946 127.791 218.388 127.817C218.83 127.842 219.262 127.959 219.656 128.16C220.309 128.519 220.88 129.01 221.332 129.602C221.712 130.06 222.099 130.52 222.497 130.977C223.298 131.885 224.124 132.786 224.958 133.686L226.208 135.045C226.64 135.522 227.018 135.895 227.496 136.461ZM227.308 136.509C226.777 136.221 226.265 135.9 225.776 135.545C225.26 135.199 224.752 134.841 224.257 134.466C223.261 133.723 222.291 132.943 221.36 132.104C220.889 131.69 220.433 131.255 219.991 130.797C219.663 130.434 219.268 130.137 218.828 129.923C218.671 129.847 218.499 129.806 218.325 129.805C218.15 129.803 217.978 129.84 217.819 129.913C217.452 130.092 217.13 130.353 216.88 130.676L217.058 130.154C216.995 130.882 216.945 131.612 216.857 132.337C216.763 133.063 216.638 133.787 216.531 134.51C216.402 135.233 216.245 135.952 216.099 136.67C215.904 137.382 215.747 138.099 215.499 138.797C215.037 140.204 214.428 141.558 213.681 142.837C212.967 144.16 211.999 145.329 210.834 146.28L210.835 145.774C211.613 146.198 212.456 146.491 213.329 146.641C213.766 146.712 214.208 146.743 214.65 146.734C215.087 146.743 215.523 146.709 215.952 146.632C217.626 146.323 219.208 145.637 220.576 144.624C221.978 143.591 223.224 142.361 224.276 140.973C224.764 140.24 225.335 139.503 225.816 138.785L227.308 136.509Z" fill="#333"/>
<path d="M221.691 113.902C222.234 113.573 222.831 113.344 223.454 113.224C224.063 113.094 224.685 113.029 225.308 113.03C226.567 113.013 227.81 113.313 228.923 113.902C228.315 114.01 227.7 114.074 227.082 114.092C226.484 114.12 225.893 114.124 225.303 114.126C224.095 114.131 222.889 114.056 221.691 113.902Z" fill="#333"/>
<path d="M173.271 170.699C172.304 170.942 171.394 171.37 170.591 171.96C169.772 172.533 169.005 173.175 168.297 173.881C166.874 175.297 165.563 176.821 164.376 178.441C162.012 181.702 159.825 185.088 157.825 188.585C153.769 195.557 150.232 202.824 146.742 210.104C143.279 217.399 140.008 224.789 136.858 232.23C133.699 239.665 130.559 247.12 127.617 254.635L127.449 253.721C130.176 256.806 133.074 259.795 136.057 262.664C139.032 265.544 142.163 268.257 145.437 270.792C148.643 273.383 152.22 275.478 156.048 277.005C157.921 277.755 159.962 277.988 161.956 277.678C162.924 277.468 163.831 277.04 164.61 276.427C165.388 275.813 166.016 275.031 166.446 274.139L166.449 274.132C166.474 274.085 166.508 274.044 166.551 274.014C166.594 273.983 166.643 273.963 166.696 273.955C168.598 273.7 170.527 273.725 172.422 274.028C174.321 274.31 176.157 274.916 177.851 275.821C178.699 276.274 179.503 276.805 180.254 277.406C180.992 278.024 181.669 278.71 182.278 279.455C182.897 280.19 183.448 280.98 183.923 281.815C184.415 282.638 184.751 283.54 185.171 284.401L184.87 284.152C188.982 284.531 193.128 284.132 197.092 282.977C201.073 281.864 204.891 280.234 208.449 278.13L211.065 276.473C211.946 275.936 212.731 275.254 213.569 274.652C215.221 273.415 216.806 272.089 218.314 270.679C219.113 270.024 219.798 269.244 220.527 268.513L222.689 266.294C224.043 264.732 225.349 263.127 226.681 261.548L226.491 262.233L222.128 229.591L219.981 213.265L217.92 196.929C217.899 196.758 217.917 196.585 217.972 196.422C218.028 196.26 218.119 196.112 218.24 195.99C218.361 195.868 218.508 195.775 218.671 195.719C218.833 195.662 219.006 195.643 219.176 195.663L219.191 195.665C226.976 196.574 234.804 197.06 242.642 197.119C250.48 197.249 258.317 196.778 266.083 195.709C273.797 194.554 281.529 192.778 288.459 189.18C291.941 187.428 295.076 185.059 297.712 182.187C300.324 179.258 302.16 175.72 303.05 171.897C303.057 171.869 303.074 171.845 303.098 171.83C303.122 171.814 303.152 171.809 303.18 171.815C303.208 171.821 303.233 171.838 303.248 171.862C303.264 171.885 303.27 171.915 303.265 171.943C302.509 175.871 300.78 179.547 298.236 182.633C295.657 185.703 292.518 188.255 288.986 190.153C285.484 192.065 281.788 193.6 277.962 194.733C274.155 195.886 270.273 196.777 266.344 197.4C258.501 198.615 250.575 199.225 242.638 199.227C238.675 199.263 234.712 199.15 230.757 198.924C226.795 198.697 222.863 198.389 218.892 197.905L220.162 196.642L222.282 212.971L224.315 229.311L228.313 262L228.319 262.047C228.332 262.161 228.322 262.277 228.288 262.387C228.255 262.497 228.198 262.599 228.123 262.686C226.734 264.281 225.372 265.898 223.962 267.471L221.711 269.708C220.981 270.473 220.212 271.2 219.406 271.886C217.823 273.291 216.166 274.61 214.44 275.837C213.566 276.433 212.746 277.107 211.828 277.638L209.103 279.27C205.403 281.335 201.453 282.916 197.35 283.972C193.237 285.058 188.96 285.384 184.73 284.936C184.671 284.929 184.615 284.907 184.566 284.873C184.518 284.839 184.479 284.793 184.453 284.739L184.428 284.687C184.029 283.861 183.714 282.987 183.249 282.198C182.803 281.397 182.283 280.639 181.698 279.934C181.125 279.221 180.486 278.563 179.79 277.969C179.079 277.392 178.317 276.881 177.514 276.443C175.896 275.563 174.138 274.967 172.319 274.683C170.499 274.4 168.647 274.391 166.825 274.655L167.074 274.472L166.205 275.843C165.826 276.235 165.481 276.666 165.066 277.021C164.213 277.724 163.203 278.21 162.122 278.439C159.988 278.802 157.795 278.583 155.775 277.805C151.834 276.302 148.126 274.248 144.762 271.703C141.381 269.229 138.141 266.569 135.056 263.735C131.964 260.909 128.983 257.993 126.113 254.911C126.003 254.793 125.928 254.646 125.897 254.488C125.867 254.33 125.881 254.166 125.938 254.015L125.945 253.997C128.845 246.419 131.862 238.906 135.074 231.465C138.309 224.036 141.665 216.658 145.217 209.369C148.764 202.08 152.599 194.921 156.827 187.987C158.928 184.505 161.251 181.161 163.78 177.976C165.05 176.379 166.442 174.883 167.944 173.502C168.698 172.806 169.516 172.184 170.387 171.644C171.251 171.077 172.216 170.683 173.231 170.484C173.259 170.479 173.288 170.486 173.311 170.502C173.335 170.519 173.351 170.544 173.356 170.572C173.361 170.6 173.355 170.629 173.34 170.653C173.324 170.677 173.299 170.693 173.271 170.699L173.271 170.699Z" fill="#333"/>
<path d="M326.899 63.1958C328.508 62.659 330.195 62.3948 331.89 62.4141C333.624 62.4072 335.342 62.7291 336.956 63.3626C338.59 64.0534 340.046 65.1059 341.215 66.4409C342.365 67.7841 343.266 69.3212 343.877 70.9804C345.026 74.2507 345.576 77.7016 345.499 81.167C345.43 84.5558 345.151 87.9371 344.665 91.2914C343.791 97.9458 342.738 104.583 341.316 111.15C339.99 117.74 338.107 124.205 335.689 130.478C336.538 127.234 337.263 123.97 337.866 120.686C338.51 117.409 339.079 114.12 339.635 110.83C340.705 104.242 341.657 97.6366 342.49 91.0131C342.991 87.7457 343.305 84.4523 343.428 81.149C343.582 77.9091 343.191 74.6664 342.272 71.5556C341.84 70.029 341.107 68.6039 340.117 67.3638C339.128 66.1236 337.901 65.0934 336.508 64.3333C333.513 62.9228 330.141 62.5235 326.899 63.1958V63.1958Z" fill="#333"/>
<path d="M219.946 203.504C226.912 204.927 233.867 206.243 240.843 207.398L251.318 209.036C254.809 209.597 258.318 210.061 261.843 210.427C265.37 210.746 268.914 210.846 272.455 210.727C275.986 210.583 279.504 210.201 282.984 209.583C286.438 208.983 289.842 208.125 293.168 207.015C296.465 205.953 299.617 204.484 302.552 202.644L302.593 202.621L302.735 202.552C304.083 201.856 305.346 201.009 306.501 200.026C307.707 199.012 308.852 197.928 309.93 196.779C312.078 194.416 313.992 191.851 315.644 189.118C317.332 186.367 318.849 183.516 320.188 180.579L322.084 176.091C322.653 174.567 323.208 173.035 323.807 171.51L323.809 171.505C323.819 171.479 323.839 171.458 323.864 171.446C323.889 171.434 323.917 171.432 323.944 171.44C323.97 171.448 323.993 171.466 324.006 171.49C324.02 171.514 324.025 171.542 324.019 171.569C323.659 173.166 323.256 174.755 322.865 176.353C322.404 177.928 321.895 179.493 321.374 181.056C320.276 184.179 318.927 187.207 317.338 190.111C315.752 193.055 313.838 195.81 311.633 198.324C311.058 198.938 310.487 199.559 309.89 200.155C309.255 200.716 308.663 201.319 307.984 201.837C306.655 202.981 305.173 203.933 303.58 204.666L303.763 204.573C297.451 208.181 290.417 210.342 283.168 210.901C276.057 211.464 268.918 211.61 261.79 211.34C258.227 211.271 254.664 211.09 251.103 210.798C247.547 210.475 244.016 209.936 240.513 209.271C233.494 207.995 226.593 206.137 219.883 203.714C219.856 203.704 219.834 203.683 219.822 203.657C219.809 203.63 219.808 203.6 219.818 203.573C219.828 203.548 219.846 203.527 219.87 203.515C219.893 203.502 219.92 203.498 219.946 203.504V203.504Z" fill="#333"/>
<path d="M225.307 127.189C230.965 126.735 236.623 126.498 242.282 126.336C247.94 126.161 253.598 126.115 259.257 126.093C264.915 126.112 270.573 126.159 276.232 126.333C281.89 126.494 287.549 126.732 293.207 127.189C287.549 127.645 281.89 127.884 276.232 128.045C270.573 128.219 264.915 128.266 259.257 128.285C253.598 128.263 247.94 128.216 242.282 128.041C236.623 127.88 230.965 127.643 225.307 127.189Z" fill="#333"/>
<path d="M317.023 130.476L314.177 130.427C311.949 132.354 309.189 133.559 306.261 133.882C304.343 134.047 302.412 133.798 300.599 133.151C298.786 132.505 297.133 131.477 295.751 130.137L227.349 129.053C228.925 131.032 229.869 133.44 230.059 135.963C230.059 135.963 228.926 140.395 220.149 129.585C220.149 129.585 216.655 128.202 215.92 130.311C215.194 132.431 215.842 149.163 205.11 146.976C205.11 146.976 203.31 135.053 208.284 128.753L199.426 128.612V129.941C199.426 130.741 199.268 131.534 198.962 132.273C198.656 133.013 198.207 133.684 197.641 134.25C197.075 134.816 196.403 135.265 195.664 135.571C194.924 135.878 194.132 136.035 193.332 136.035H150.978L151.35 142.525C151.35 142.099 151.369 141.857 151.369 141.857H168.712L155.056 155.589H133.804C131.933 155.588 130.138 154.85 128.807 153.535C127.476 152.22 126.716 150.434 126.691 148.563L126.536 136.035H84.6083C83.808 136.035 83.0155 135.878 82.2761 135.572C81.5367 135.265 80.8648 134.816 80.2989 134.25C79.733 133.685 79.2841 133.013 78.9778 132.273C78.6715 131.534 78.5139 130.741 78.5139 129.941V126.74H61.9181L0.00012207 163.632C29.7979 163.37 59.5955 163.228 89.3931 163.206C119.2 163.099 148.998 163.206 178.796 163.245C208.594 163.254 238.391 163.457 268.199 163.612L312.89 163.893L357.427 164.309L371.711 155.88L386.17 147.402L415.116 130.476L317.023 130.476ZM283.935 151.283L214.971 150.789L219.045 146.512L227.117 137.144H294.822L283.935 151.283Z" fill="#333"/>
<path d="M150.982 135.886C155.254 135.738 159.526 135.637 163.798 135.538C168.07 135.437 172.342 135.32 176.614 135.27L189.43 135.073L192.634 135.024C192.893 135.017 193.185 135.02 193.417 135.006C193.64 134.999 193.862 134.975 194.081 134.937C194.518 134.866 194.943 134.737 195.346 134.555C196.146 134.187 196.836 133.618 197.349 132.904C197.863 132.189 198.181 131.353 198.274 130.478L198.143 104.967C198.103 96.423 198.128 87.8791 198.22 79.3352L198.621 53.7036L198.832 40.8878C198.885 40.1547 198.792 39.4185 198.558 38.7217C198.324 38.0249 197.955 37.3815 197.47 36.8286C196.986 36.2757 196.397 35.8244 195.737 35.5009C195.077 35.1773 194.36 34.988 193.626 34.9437C192.61 34.9013 191.505 34.9129 190.448 34.9051C173.361 34.82 156.273 34.98 139.185 35.2292C122.097 35.5081 105.009 35.6983 87.9216 35.7998L84.7177 35.8183C83.8817 35.812 83.0585 36.0232 82.3288 36.4311C81.6137 36.8383 81.0182 37.4264 80.602 38.1363C80.1858 38.8462 79.9635 39.6531 79.9575 40.476L80.0283 53.2777L80.0637 78.9094L79.9142 104.541L79.6611 130.13C79.6859 131.009 79.9409 131.866 80.4006 132.616C80.8603 133.365 81.5087 133.981 82.2809 134.402C83.08 134.832 83.9772 135.048 84.8847 135.028L88.0886 135.082L100.904 135.297C109.448 135.449 117.992 135.645 126.536 135.886C126.574 135.887 126.61 135.903 126.636 135.93C126.663 135.957 126.677 135.993 126.677 136.031C126.677 136.069 126.663 136.105 126.636 136.132C126.61 136.159 126.574 136.175 126.536 136.176C117.992 136.417 109.448 136.614 100.904 136.765L88.0886 136.981L84.8847 137.034C83.6462 137.088 82.4142 136.827 81.3036 136.276C80.1724 135.704 79.2138 134.841 78.5265 133.776C77.8391 132.71 77.4477 131.481 77.3925 130.214L77.1164 104.541L76.967 78.9093L77.0024 53.2777L77.0793 40.4479C77.1022 39.1242 77.4732 37.8298 78.1548 36.6947C78.8364 35.5597 79.8046 34.6241 80.9623 33.9818C82.1135 33.3543 83.4068 33.0335 84.7177 33.0504L87.9216 33.0689C105.009 33.1536 122.097 33.3439 139.185 33.6396C156.273 33.8887 173.361 34.0487 190.448 33.9636C191.528 33.9702 192.559 33.9352 193.677 33.9573C194.84 34.0036 195.97 34.359 196.95 34.9871C197.934 35.618 198.735 36.4971 199.271 37.5357C199.539 38.0554 199.739 38.6074 199.866 39.178C199.973 39.7416 200.027 40.314 200.025 40.8877L200.237 53.7035L200.637 79.3352C200.724 87.879 200.749 96.4229 200.714 104.967L200.662 117.783L200.61 124.191L200.582 127.395L200.568 128.997L200.561 129.798C200.559 130.06 200.535 130.414 200.511 130.717C200.365 131.975 199.888 133.173 199.129 134.187C198.37 135.202 197.356 135.997 196.189 136.492C195.611 136.734 195.004 136.897 194.382 136.979C194.074 137.022 193.763 137.045 193.451 137.046C193.151 137.052 192.908 137.04 192.634 137.039L189.43 136.989L176.614 136.793C172.342 136.743 168.07 136.626 163.798 136.525C159.526 136.425 155.254 136.324 150.982 136.176C150.945 136.175 150.909 136.159 150.883 136.132C150.856 136.105 150.842 136.069 150.842 136.031C150.842 135.994 150.856 135.957 150.883 135.93C150.909 135.903 150.945 135.887 150.982 135.886V135.886Z" fill="#333"/>
<path d="M190.651 127.185C187.3 127.571 183.95 127.766 180.6 127.894C177.25 128.034 173.9 128.06 170.551 128.065C167.202 128.034 163.853 127.978 160.504 127.81C157.155 127.653 153.807 127.428 150.459 127.011C153.81 126.623 157.161 126.427 160.511 126.299C163.861 126.16 167.21 126.133 170.56 126.131C173.909 126.165 177.258 126.22 180.606 126.389C183.955 126.546 187.303 126.77 190.651 127.185Z" fill="#333"/>
<path d="M126.42 126.905C123.158 127.292 119.896 127.487 116.635 127.616C113.374 127.757 110.113 127.784 106.852 127.79C103.592 127.759 100.331 127.704 97.0715 127.537C93.8115 127.381 90.5519 127.157 87.2929 126.74C90.5554 126.351 93.8168 126.154 97.0778 126.026C100.339 125.886 103.6 125.859 106.861 125.855C110.121 125.888 113.382 125.943 116.641 126.111C119.901 126.268 123.161 126.491 126.42 126.905Z" fill="#333"/>
<path d="M166.76 274.305C167.999 268.747 169.496 263.263 171.097 257.811C172.689 252.356 174.439 246.95 176.276 241.571C178.155 236.207 180.105 230.863 182.33 225.618C183.432 222.992 184.603 220.392 185.882 217.839C186.545 216.572 187.204 215.304 187.96 214.085C188.644 212.82 189.556 211.693 190.65 210.759C190.163 211.27 189.754 211.849 189.434 212.479C189.092 213.094 188.781 213.725 188.496 214.372C187.912 215.654 187.377 216.963 186.865 218.279C185.83 220.908 184.883 223.576 183.926 226.238L181.124 234.256L178.347 242.287C176.476 247.636 174.64 253 172.718 258.339C170.813 263.683 168.866 269.016 166.76 274.305Z" fill="#333"/>
<path d="M184.8 284.543C184.151 279.822 183.718 275.093 183.362 270.36C182.992 265.627 182.75 260.89 182.532 256.151C182.356 251.411 182.208 246.669 182.186 241.923C182.152 237.177 182.195 232.427 182.456 227.669C183.107 232.39 183.541 237.119 183.897 241.852C184.266 246.585 184.508 251.322 184.723 256.061C184.896 260.801 185.045 265.543 185.065 270.29C185.1 275.036 185.058 279.785 184.8 284.543Z" fill="#333"/>
<path d="M277.119 26.959C277.546 26.9444 277.95 26.7648 278.246 26.4578C278.543 26.1509 278.709 25.7408 278.709 25.314C278.709 24.8872 278.543 24.477 278.246 24.1701C277.95 23.8632 277.546 23.6835 277.119 23.6689C276.692 23.6835 276.288 23.8632 275.992 24.1701C275.695 24.477 275.529 24.8872 275.529 25.314C275.529 25.7408 275.695 26.1509 275.992 26.4578C276.288 26.7648 276.692 26.9444 277.119 26.959V26.959Z" fill="#333"/>
<path d="M286.891 26.959C287.317 26.9444 287.721 26.7648 288.018 26.4578C288.315 26.1509 288.48 25.7408 288.48 25.314C288.48 24.8872 288.315 24.477 288.018 24.1701C287.721 23.8632 287.317 23.6835 286.891 23.6689C286.464 23.6835 286.06 23.8632 285.763 24.1701C285.467 24.477 285.301 24.8872 285.301 25.314C285.301 25.7408 285.467 26.1509 285.763 26.4578C286.06 26.7648 286.464 26.9444 286.891 26.959V26.959Z" fill="#333"/>
<path d="M289.753 21.563C289.247 21.6442 288.738 21.6985 288.226 21.7255C287.763 21.7641 287.33 21.7648 286.895 21.7744C286.462 21.7803 286.029 21.7654 285.565 21.7408C285.049 21.7237 284.535 21.6643 284.028 21.563C284.335 21.0869 284.775 20.7122 285.295 20.486C285.794 20.2535 286.339 20.132 286.89 20.1299C287.441 20.1278 287.986 20.2451 288.488 20.4738C289.015 20.6922 289.459 21.074 289.753 21.563Z" fill="#333"/>
<path d="M278.402 21.5639C277.975 21.6917 277.537 21.7815 277.094 21.8324C276.725 21.8818 276.353 21.9067 275.981 21.9067C275.611 21.9061 275.242 21.8816 274.876 21.8333C274.432 21.7859 273.993 21.6957 273.566 21.5639C273.803 21.128 274.175 20.7807 274.626 20.5743C275.047 20.3611 275.514 20.2539 275.987 20.2622C276.456 20.2587 276.92 20.3668 277.34 20.5774C277.793 20.7805 278.166 21.1272 278.402 21.5639V21.5639Z" fill="#333"/>
<path d="M285.311 28.8672C285.311 29.1291 285.257 29.3882 285.153 29.6282C285.048 29.8682 284.895 30.084 284.703 30.2621C284.321 30.6347 283.842 30.8924 283.321 31.0058C282.821 31.1117 282.303 31.1079 281.805 30.9948C281.318 30.8837 280.863 30.6623 280.475 30.3478C280.931 30.2488 281.394 30.1796 281.86 30.1408C282.287 30.0639 282.7 30.0442 283.08 29.9365C283.903 29.7754 284.671 29.4074 285.311 28.8672V28.8672Z" fill="#333"/>
<path d="M279.048 35.5326C279.15 35.2916 279.301 35.0743 279.491 34.8944C279.682 34.7144 279.907 34.5757 280.153 34.4869C280.65 34.2933 281.192 34.2434 281.716 34.3428C282.218 34.4411 282.692 34.6468 283.107 34.9459C283.512 35.2386 283.844 35.6203 284.078 36.0615C283.619 35.9741 283.166 35.8568 282.722 35.7104C282.299 35.6141 281.911 35.4706 281.519 35.4211C280.699 35.2477 279.849 35.2861 279.048 35.5326V35.5326Z" fill="#333"/>
<path d="M281.563 20.8301C281.989 20.8155 282.393 20.6358 282.69 20.3289C282.987 20.022 283.152 19.6119 283.152 19.1851C283.152 18.7583 282.987 18.3482 282.69 18.0413C282.393 17.7344 281.989 17.5547 281.563 17.54C281.136 17.5547 280.732 17.7344 280.435 18.0413C280.139 18.3482 279.973 18.7583 279.973 19.1851C279.973 19.6119 280.139 20.022 280.435 20.3289C280.732 20.6358 281.136 20.8155 281.563 20.8301V20.8301Z" fill="#B21919"/>
<path d="M254.896 210.33V289.998C254.896 289.998 271.477 296.563 281.659 289.998V210.33" fill="#333"/>
<path d="M306.176 290.402C306.137 290.81 306.015 291.206 305.817 291.565C305.62 291.924 305.351 292.239 305.028 292.49C304.402 293.018 303.713 293.467 302.977 293.826C301.508 294.546 299.975 295.13 298.399 295.57C295.253 296.47 292.05 297.157 288.812 297.629C282.334 298.606 275.797 299.146 269.246 299.245C262.677 299.394 256.106 299.084 249.581 298.318C246.294 297.92 243.039 297.288 239.842 296.428C238.208 295.984 236.618 295.391 235.093 294.655C234.283 294.266 233.524 293.777 232.835 293.201C232.377 292.891 232.002 292.474 231.743 291.986C231.484 291.498 231.349 290.954 231.349 290.402C231.348 289.849 231.484 289.305 231.743 288.817C232.002 288.329 232.376 287.912 232.834 287.602C233.523 287.026 234.282 286.537 235.092 286.148C236.617 285.412 238.207 284.819 239.841 284.375C243.038 283.512 246.293 282.879 249.58 282.483C256.106 281.714 262.677 281.404 269.245 281.555C275.797 281.654 282.334 282.196 288.812 283.175C292.051 283.646 295.253 284.334 298.4 285.234C299.976 285.675 301.508 286.258 302.977 286.979C303.713 287.338 304.402 287.787 305.028 288.314C305.351 288.566 305.62 288.881 305.817 289.24C306.015 289.599 306.137 289.994 306.176 290.402ZM306.176 290.402C306.134 289.996 306.009 289.602 305.81 289.246C305.61 288.889 305.34 288.577 305.016 288.328C304.387 287.807 303.697 287.364 302.961 287.012C301.489 286.304 299.955 285.733 298.379 285.305C295.226 284.457 292.016 283.835 288.774 283.444C282.294 282.684 275.769 282.377 269.246 282.527C262.74 282.627 256.248 283.165 249.815 284.136C246.622 284.601 243.465 285.279 240.362 286.165C238.844 286.588 237.368 287.15 235.953 287.842C235.29 288.165 234.67 288.567 234.105 289.04C233.857 289.171 233.649 289.367 233.504 289.607C233.359 289.847 233.282 290.122 233.282 290.403C233.282 290.683 233.358 290.958 233.503 291.199C233.648 291.439 233.856 291.635 234.104 291.766C234.669 292.239 235.289 292.641 235.952 292.964C237.368 293.657 238.844 294.218 240.362 294.642C243.463 295.53 246.621 296.209 249.814 296.673C256.248 297.646 262.74 298.184 269.246 298.282C275.769 298.432 282.294 298.124 288.775 297.363C292.016 296.971 295.226 296.349 298.379 295.5C299.955 295.072 301.489 294.501 302.961 293.793C303.697 293.441 304.387 292.998 305.016 292.477C305.34 292.228 305.611 291.916 305.81 291.559C306.009 291.203 306.134 290.809 306.176 290.402V290.402Z" fill="#333"/>
<path d="M316.442 50.5189L303.154 47.7607V53.848C303.157 61.7044 301.846 69.5059 299.274 76.9293L296.199 85.7972L306.497 104.614C306.497 104.614 327.978 106.262 329.923 106.098C329.923 106.098 333.823 52.9577 316.442 50.5189ZM304.209 92.9556C304.074 91.4266 303.967 89.8975 303.958 88.3587C303.914 86.8197 304.021 85.2801 304.277 83.7618C304.374 85.2909 304.567 86.8006 304.713 88.32L305.177 92.8589C305.448 95.8977 305.719 98.9365 305.758 102.014C305.002 99.0405 304.484 96.0114 304.209 92.9556V92.9556ZM309 101.869C308.623 101.856 308.266 101.698 308.004 101.427C307.742 101.156 307.595 100.794 307.595 100.417C307.595 100.04 307.742 99.6781 308.004 99.4073C308.266 99.1364 308.623 98.978 309 98.9655C309.377 98.9778 309.734 99.1362 309.996 99.4071C310.258 99.678 310.405 100.04 310.405 100.417C310.405 100.794 310.258 101.156 309.996 101.427C309.734 101.698 309.377 101.857 309 101.869V101.869ZM315.029 102.672C314.653 102.659 314.297 102.5 314.035 102.229C313.774 101.958 313.628 101.597 313.628 101.22C313.628 100.844 313.774 100.482 314.035 100.212C314.297 99.9409 314.653 99.7821 315.029 99.7688C315.405 99.7821 315.761 99.9409 316.023 100.212C316.284 100.482 316.43 100.844 316.43 101.22C316.43 101.597 316.284 101.958 316.023 102.229C315.761 102.5 315.405 102.659 315.029 102.672V102.672ZM320.681 102.982C320.304 102.969 319.947 102.811 319.685 102.54C319.423 102.269 319.276 101.907 319.276 101.53C319.276 101.153 319.423 100.791 319.685 100.52C319.947 100.249 320.304 100.091 320.681 100.078C321.058 100.091 321.415 100.249 321.677 100.52C321.939 100.791 322.085 101.153 322.085 101.53C322.085 101.907 321.939 102.269 321.677 102.54C321.415 102.811 321.058 102.969 320.681 102.982V102.982ZM326.352 103.466C325.975 103.453 325.618 103.295 325.356 103.024C325.094 102.753 324.948 102.391 324.948 102.014C324.948 101.637 325.094 101.275 325.356 101.004C325.618 100.733 325.975 100.575 326.352 100.562C326.729 100.575 327.086 100.733 327.348 101.004C327.61 101.275 327.756 101.637 327.756 102.014C327.756 102.391 327.61 102.753 327.348 103.024C327.086 103.295 326.729 103.453 326.352 103.466V103.466Z" fill="#333"/>
<path d="M294.467 44.416C295.978 44.7965 297.46 45.2893 298.898 45.8902C300.33 46.4733 301.725 47.0606 303.158 47.7643C301.568 47.7496 299.998 47.4177 298.539 46.788C297.065 46.2165 295.691 45.4159 294.467 44.416V44.416Z" fill="#333"/>
<path d="M267.135 69.8121C268.245 67.83 269.512 65.9403 270.925 64.1611C272.303 62.3551 273.825 60.664 275.477 59.1045C274.369 61.0878 273.102 62.9776 271.688 64.7555C270.308 66.5603 268.786 68.2513 267.135 69.8121Z" fill="#333"/>
<path d="M131.299 254.705C131.675 254.692 132.032 254.533 132.293 254.263C132.555 253.992 132.701 253.63 132.701 253.253C132.701 252.877 132.555 252.515 132.293 252.244C132.032 251.973 131.675 251.815 131.299 251.802C130.922 251.815 130.566 251.973 130.304 252.244C130.043 252.515 129.896 252.877 129.896 253.253C129.896 253.63 130.043 253.992 130.304 254.263C130.566 254.533 130.922 254.692 131.299 254.705V254.705Z" fill="#333"/>
<path d="M136.002 259.757C136.378 259.744 136.735 259.585 136.997 259.314C137.258 259.044 137.405 258.682 137.405 258.305C137.405 257.929 137.258 257.567 136.997 257.296C136.735 257.025 136.378 256.867 136.002 256.854C135.626 256.867 135.269 257.025 135.008 257.296C134.746 257.567 134.6 257.929 134.6 258.305C134.6 258.682 134.746 259.044 135.008 259.314C135.269 259.585 135.626 259.744 136.002 259.757V259.757Z" fill="#333"/>
<path d="M141.402 264.809C141.779 264.796 142.135 264.637 142.397 264.366C142.658 264.095 142.805 263.733 142.805 263.357C142.805 262.98 142.658 262.619 142.397 262.348C142.135 262.077 141.779 261.918 141.402 261.905C141.026 261.918 140.669 262.077 140.408 262.348C140.146 262.619 140 262.98 140 263.357C140 263.733 140.146 264.095 140.408 264.366C140.669 264.637 141.026 264.796 141.402 264.809Z" fill="#333"/>
<path d="M147.325 269.687C147.701 269.673 148.058 269.515 148.319 269.244C148.581 268.973 148.727 268.611 148.727 268.235C148.727 267.858 148.581 267.497 148.319 267.226C148.058 266.955 147.701 266.796 147.325 266.783C146.949 266.796 146.592 266.955 146.331 267.226C146.069 267.497 145.923 267.858 145.923 268.235C145.923 268.611 146.069 268.973 146.331 269.244C146.592 269.515 146.949 269.673 147.325 269.687V269.687Z" fill="#333"/>
<path d="M154.119 274.041C154.495 274.028 154.852 273.869 155.113 273.599C155.375 273.328 155.521 272.966 155.521 272.589C155.521 272.213 155.375 271.851 155.113 271.58C154.852 271.309 154.495 271.151 154.119 271.138C153.742 271.151 153.386 271.309 153.124 271.58C152.863 271.851 152.716 272.213 152.716 272.589C152.716 272.966 152.863 273.328 153.124 273.599C153.386 273.869 153.742 274.028 154.119 274.041V274.041Z" fill="#333"/>
<path d="M161.609 275.261C161.986 275.248 162.342 275.089 162.604 274.818C162.866 274.547 163.012 274.186 163.012 273.809C163.012 273.433 162.866 273.071 162.604 272.8C162.342 272.529 161.986 272.37 161.609 272.357C161.233 272.37 160.876 272.529 160.615 272.8C160.353 273.071 160.207 273.433 160.207 273.809C160.207 274.186 160.353 274.547 160.615 274.818C160.876 275.089 161.233 275.248 161.609 275.261V275.261Z" fill="#333"/>
<path d="M169.274 271.951C169.65 271.938 170.007 271.78 170.269 271.509C170.53 271.238 170.677 270.876 170.677 270.5C170.677 270.123 170.53 269.761 170.269 269.49C170.007 269.219 169.65 269.061 169.274 269.048C168.898 269.061 168.541 269.219 168.28 269.49C168.018 269.761 167.872 270.123 167.872 270.5C167.872 270.876 168.018 271.238 168.28 271.509C168.541 271.78 168.898 271.938 169.274 271.951V271.951Z" fill="#333"/>
<path d="M175.894 273.519C176.27 273.506 176.627 273.347 176.888 273.076C177.15 272.805 177.296 272.443 177.296 272.067C177.296 271.69 177.15 271.328 176.888 271.058C176.627 270.787 176.27 270.628 175.894 270.615C175.517 270.628 175.161 270.787 174.899 271.058C174.638 271.328 174.491 271.69 174.491 272.067C174.491 272.443 174.638 272.805 174.899 273.076C175.161 273.347 175.517 273.506 175.894 273.519V273.519Z" fill="#333"/>
<path d="M181.816 276.828C182.193 276.815 182.549 276.656 182.811 276.386C183.073 276.115 183.219 275.753 183.219 275.376C183.219 275 183.073 274.638 182.811 274.367C182.549 274.096 182.193 273.938 181.816 273.925C181.44 273.938 181.083 274.096 180.822 274.367C180.56 274.638 180.414 275 180.414 275.376C180.414 275.753 180.56 276.115 180.822 276.386C181.083 276.656 181.44 276.815 181.816 276.828V276.828Z" fill="#333"/>
<path d="M187.391 282.926C187.767 282.913 188.124 282.754 188.385 282.483C188.647 282.212 188.793 281.851 188.793 281.474C188.793 281.098 188.647 280.736 188.385 280.465C188.124 280.194 187.767 280.035 187.391 280.022C187.014 280.035 186.658 280.194 186.396 280.465C186.135 280.736 185.988 281.098 185.988 281.474C185.988 281.851 186.135 282.212 186.396 282.483C186.658 282.754 187.014 282.913 187.391 282.926V282.926Z" fill="#333"/>
<path d="M194.533 281.88C194.909 281.867 195.266 281.708 195.527 281.437C195.789 281.167 195.935 280.805 195.935 280.428C195.935 280.052 195.789 279.69 195.527 279.419C195.266 279.148 194.909 278.99 194.533 278.977C194.157 278.99 193.8 279.148 193.538 279.419C193.277 279.69 193.131 280.052 193.131 280.428C193.131 280.805 193.277 281.167 193.538 281.437C193.8 281.708 194.157 281.867 194.533 281.88V281.88Z" fill="#333"/>
<path d="M201.675 279.964C202.051 279.951 202.408 279.792 202.67 279.521C202.931 279.251 203.078 278.889 203.078 278.512C203.078 278.136 202.931 277.774 202.67 277.503C202.408 277.232 202.051 277.074 201.675 277.061C201.299 277.074 200.942 277.232 200.681 277.503C200.419 277.774 200.273 278.136 200.273 278.512C200.273 278.889 200.419 279.251 200.681 279.521C200.942 279.792 201.299 279.951 201.675 279.964V279.964Z" fill="#333"/>
<path d="M207.424 277.351C207.8 277.338 208.157 277.179 208.418 276.908C208.68 276.637 208.826 276.275 208.826 275.899C208.826 275.522 208.68 275.161 208.418 274.89C208.157 274.619 207.8 274.46 207.424 274.447C207.047 274.46 206.691 274.619 206.429 274.89C206.168 275.161 206.021 275.522 206.021 275.899C206.021 276.275 206.168 276.637 206.429 276.908C206.691 277.179 207.047 277.338 207.424 277.351V277.351Z" fill="#333"/>
<path d="M213.695 272.996C214.071 272.983 214.428 272.824 214.689 272.554C214.951 272.283 215.097 271.921 215.097 271.544C215.097 271.168 214.951 270.806 214.689 270.535C214.428 270.264 214.071 270.106 213.695 270.093C213.319 270.106 212.962 270.264 212.7 270.535C212.439 270.806 212.293 271.168 212.293 271.544C212.293 271.921 212.439 272.283 212.7 272.554C212.962 272.824 213.319 272.983 213.695 272.996V272.996Z" fill="#333"/>
<path d="M219.095 267.77C219.471 267.757 219.828 267.599 220.09 267.328C220.351 267.057 220.497 266.695 220.497 266.319C220.497 265.942 220.351 265.58 220.09 265.31C219.828 265.039 219.471 264.88 219.095 264.867C218.719 264.88 218.362 265.039 218.1 265.31C217.839 265.58 217.693 265.942 217.693 266.319C217.693 266.695 217.839 267.057 218.1 267.328C218.362 267.599 218.719 267.757 219.095 267.77V267.77Z" fill="#333"/>
<path d="M223.45 262.544C223.826 262.531 224.183 262.372 224.444 262.102C224.706 261.831 224.852 261.469 224.852 261.092C224.852 260.716 224.706 260.354 224.444 260.083C224.183 259.812 223.826 259.654 223.45 259.641C223.074 259.654 222.717 259.812 222.455 260.083C222.194 260.354 222.048 260.716 222.048 261.092C222.048 261.469 222.194 261.831 222.455 262.102C222.717 262.372 223.074 262.531 223.45 262.544V262.544Z" fill="#333"/>
<path d="M326.787 105.921C326.226 108.602 325.53 111.253 324.703 113.864C323.893 116.497 322.877 119.063 321.666 121.537C320.461 124.052 318.951 126.409 317.172 128.556C315.36 130.777 313.055 132.545 310.439 133.717C307.739 134.892 304.734 135.171 301.865 134.512C299.01 133.833 296.42 132.321 294.423 130.17L293.674 129.374L293.032 128.55C292.609 127.998 292.164 127.46 291.777 126.885L290.583 125.18L289.467 123.43C288.021 121.079 286.707 118.649 285.533 116.151C283.18 111.183 281.222 106.038 279.676 100.763C278.116 95.5095 276.892 90.1623 276.013 84.7536C275.148 79.3432 274.645 73.8813 274.505 68.404C274.418 65.6537 274.501 62.9006 274.752 60.1605C274.908 58.788 275.069 57.4123 275.36 56.0471C275.615 54.6313 276.041 53.2517 276.628 51.9386L276.569 52.0693C276.903 51.1304 277.317 50.2217 277.805 49.3527C278.286 48.484 278.843 47.6591 279.468 46.8875C280.102 46.1024 280.818 45.3882 281.606 44.7576C282.412 44.1191 283.297 43.5868 284.239 43.1736L284.006 43.3127C284.797 42.6142 285.529 41.8517 286.195 41.0332C286.849 40.2426 287.399 39.3713 287.831 38.4407C288.025 38.0121 288.163 37.56 288.241 37.0958C288.284 36.5108 288.358 35.9285 288.463 35.3513L288.636 34.8161C288.723 34.6177 288.827 34.4273 288.946 34.247C289.104 34.0169 289.307 33.8217 289.543 33.6735C289.779 33.5252 290.044 33.4272 290.319 33.3853C290.84 33.3229 291.366 33.4468 291.804 33.735C292.012 33.8656 292.198 34.0272 292.356 34.2142C292.611 34.4994 292.759 34.8646 292.773 35.2469L290.698 35.1889C290.726 34.7753 290.807 34.3671 290.939 33.974C291.081 33.5226 291.32 33.1076 291.639 32.758C292.044 32.3335 292.596 32.079 293.182 32.046C293.667 32.0272 294.15 32.1184 294.595 32.3128L293.126 33.0973C293.184 32.7932 293.269 32.4948 293.379 32.2053C293.506 31.8549 293.694 31.5297 293.935 31.2452C294.125 31.0237 294.366 30.852 294.638 30.7451C294.967 30.6159 295.331 30.5997 295.67 30.6989C296.101 30.8366 296.485 31.0927 296.777 31.438L295.358 31.2574C295.717 31.0187 296.116 30.8463 296.536 30.7483C296.815 30.686 297.103 30.6778 297.385 30.724C297.748 30.7839 298.084 30.9535 298.348 31.21C298.724 31.6099 298.951 32.1271 298.99 32.6744C299.008 32.8708 299.016 33.0681 299.014 33.2653L298.996 33.7242C298.935 34.9283 298.809 36.1282 298.619 37.3188C298.33 39.8296 297.45 42.2361 296.052 44.3411C295.606 44.9283 295.256 45.2731 294.862 45.7342L293.706 47.0406L291.396 49.6533L286.747 54.8536L287.014 53.8995C288.57 63.2342 291.214 72.3546 294.891 81.0742C296.737 85.4273 298.858 89.691 301.048 93.9152L304.362 100.244L307.774 106.591C307.785 106.612 307.788 106.636 307.782 106.659C307.776 106.681 307.761 106.701 307.741 106.713C307.721 106.725 307.697 106.729 307.674 106.724C307.651 106.719 307.631 106.705 307.618 106.686L307.555 106.591C306.289 104.7 305.009 102.592 303.777 100.578C302.541 98.5376 301.301 96.4974 300.118 94.4234C297.747 90.2795 295.429 86.0964 293.38 81.7467C291.371 77.3789 289.647 72.8859 288.217 68.2959C287.501 66.0014 286.85 63.6872 286.266 61.3534C285.705 59.0153 285.205 56.6641 284.765 54.2996C284.734 54.1337 284.741 53.9628 284.785 53.7998C284.829 53.6368 284.909 53.4859 285.02 53.3585L285.032 53.3452L289.642 48.0922L291.962 45.4783L293.122 44.1713C293.485 43.7505 293.953 43.2625 294.202 42.9142C295.356 41.1072 296.098 39.0686 296.376 36.9428C296.568 35.837 296.702 34.7218 296.775 33.6018L296.798 33.1889C296.806 33.0756 296.788 33.0035 296.79 32.9082C296.781 32.7549 296.709 32.6503 296.809 32.7803C296.864 32.8318 296.932 32.8675 297.005 32.884C297.058 32.884 297.028 32.8844 296.989 32.8877C296.842 32.9257 296.701 32.9846 296.57 33.0625L296.537 33.0838C296.319 33.2209 296.061 33.2759 295.807 33.2388C295.553 33.2018 295.32 33.0752 295.151 32.8819C295.074 32.7933 294.943 32.7131 295.09 32.7832C295.198 32.8038 295.309 32.7956 295.413 32.7594C295.459 32.742 295.501 32.7165 295.537 32.6841C295.469 32.7753 295.415 32.8759 295.376 32.9827C295.312 33.1466 295.26 33.3153 295.222 33.4872C295.189 33.6388 295.123 33.7816 295.03 33.9061C294.937 34.0306 294.819 34.1339 294.683 34.2092C294.547 34.2845 294.397 34.3301 294.242 34.343C294.087 34.3558 293.932 34.3356 293.785 34.2837L293.753 34.2718C293.613 34.207 293.462 34.1693 293.308 34.1608C293.226 34.1681 293.23 34.1563 293.155 34.2178C293.047 34.3446 292.966 34.4924 292.917 34.6519C292.844 34.8635 292.795 35.0828 292.772 35.3054L290.696 35.2474C290.707 35.5513 290.792 35.544 290.764 35.5384C290.742 35.5128 290.716 35.4905 290.688 35.4725C290.613 35.4201 290.551 35.4218 290.591 35.4203C290.634 35.4225 290.668 35.3601 290.606 35.4353C290.581 35.4696 290.551 35.5396 290.516 35.5961L290.429 35.8538C290.322 36.2751 290.329 36.6717 290.22 37.4183C290.107 38.0517 289.911 38.6677 289.639 39.2506C289.115 40.3337 288.448 41.3421 287.658 42.2489C286.896 43.1403 286.06 43.9662 285.16 44.7176C285.099 44.7687 285.031 44.8109 284.958 44.8431L284.926 44.857C284.125 45.187 283.369 45.6173 282.676 46.1376C281.972 46.6741 281.327 47.2853 280.754 47.9606C280.173 48.6487 279.645 49.3801 279.176 50.1486C278.707 50.914 278.302 51.7168 277.965 52.5486C277.948 52.5923 277.926 52.6389 277.905 52.6796C277.349 53.847 276.927 55.0738 276.648 56.3363C276.335 57.6424 276.09 58.9638 275.913 60.2951C275.576 62.9826 275.405 65.6883 275.401 68.3968C275.414 73.8382 275.838 79.2709 276.669 84.6485C277.553 90.0177 278.889 95.3027 280.662 100.447C282.403 105.587 284.54 110.583 287.053 115.392C288.3 117.793 289.648 120.13 291.097 122.404L292.2 124.093L293.362 125.736C293.739 126.292 294.168 126.804 294.577 127.333L295.196 128.122L295.852 128.813C297.571 130.712 299.816 132.057 302.301 132.677C304.79 133.273 307.403 133.075 309.774 132.11C312.174 131.073 314.317 129.52 316.049 127.562C317.833 125.566 319.366 123.36 320.614 120.992C321.884 118.602 323.006 116.136 323.974 113.608C324.949 111.073 325.784 108.479 326.575 105.868C326.579 105.854 326.586 105.841 326.595 105.83C326.604 105.819 326.615 105.809 326.628 105.802C326.64 105.795 326.654 105.791 326.668 105.79C326.683 105.788 326.697 105.789 326.711 105.794C326.737 105.802 326.76 105.819 326.774 105.843C326.788 105.866 326.793 105.894 326.787 105.921V105.921Z" fill="#333"/>
<path d="M135.207 262.79C133.962 267.826 131.648 272.534 128.422 276.596C126.762 278.657 124.742 280.401 122.462 281.744C121.305 282.445 120.222 282.941 119.116 283.601L115.828 285.508C111.464 288.101 107.068 290.682 102.718 293.342C98.3491 295.972 94.082 298.77 89.9094 301.696L90.0364 301.502C89.8251 302.933 90.0252 304.393 90.6133 305.714C91.221 306.996 92.2589 308.025 93.5466 308.621C93.8609 308.784 94.1884 308.92 94.5256 309.027L95.5598 309.305C96.2692 309.43 96.985 309.516 97.7038 309.563C98.4345 309.545 99.1586 309.582 99.8874 309.522L102.073 309.29L101.834 309.363C106.175 307.074 110.553 304.863 114.968 302.729C119.383 300.585 123.808 298.47 128.404 296.645C129.549 296.184 130.724 295.763 131.915 295.362L132.846 295.095C133.172 294.987 133.508 294.911 133.848 294.867L134.409 294.792L134.687 294.759L134.886 294.751C135.158 294.753 135.429 294.736 135.699 294.7C138.005 294.367 140.218 293.562 142.201 292.338C144.233 291.123 146.043 289.571 147.552 287.748C149.048 285.878 150.199 283.757 150.951 281.484L150.963 281.45L150.972 281.427C151.415 280.579 151.841 279.713 152.242 278.841C152.662 277.983 153.004 277.089 153.263 276.169L153.265 276.161C153.27 276.137 153.285 276.116 153.305 276.102C153.326 276.089 153.351 276.084 153.376 276.088C153.4 276.092 153.422 276.106 153.436 276.126C153.451 276.146 153.458 276.17 153.455 276.195C153.3 277.162 153.045 278.11 152.691 279.023C152.364 279.939 152.014 280.842 151.64 281.743L151.661 281.687C150.446 286.652 147.363 290.957 143.053 293.706C141.986 294.407 140.856 295.006 139.677 295.495C138.483 296.011 137.229 296.377 135.944 296.583C135.608 296.64 135.268 296.674 134.928 296.685L134.669 296.699L134.492 296.734L134.145 296.796C133.879 296.835 133.618 296.901 133.365 296.993L132.534 297.247C131.413 297.649 130.288 298.073 129.169 298.547C126.93 299.472 124.688 300.437 122.465 301.442C120.236 302.436 118.003 303.429 115.784 304.455L102.495 310.679L102.437 310.706C102.38 310.733 102.318 310.748 102.255 310.752L99.9413 310.877C99.1689 310.895 98.3864 310.813 97.6134 310.784C96.8355 310.689 96.0635 310.55 95.3014 310.367L94.1735 309.997C93.8007 309.856 93.4401 309.685 93.0954 309.485C91.6678 308.732 90.5478 307.504 89.9284 306.013C89.3363 304.545 89.1645 302.942 89.4323 301.383C89.4382 301.345 89.4518 301.308 89.4724 301.276C89.493 301.244 89.5201 301.216 89.5519 301.194L89.5592 301.189C93.7951 298.34 97.9956 295.441 102.161 292.491C106.354 289.576 110.538 286.636 114.945 284.02C117.103 282.678 119.466 281.494 121.656 280.302C123.808 279.099 125.74 277.539 127.368 275.688C129.034 273.812 130.499 271.767 131.739 269.586C133.02 267.397 134.118 265.106 135.021 262.737L135.023 262.731C135.032 262.708 135.05 262.689 135.072 262.678C135.094 262.668 135.12 262.666 135.143 262.674C135.167 262.681 135.187 262.697 135.198 262.719C135.21 262.741 135.213 262.766 135.207 262.79L135.207 262.79Z" fill="#333"/>
<path d="M89.7342 301.443C89.7342 301.443 82.3365 312.994 97.9503 317.891C97.9503 317.891 107.142 320.328 121.933 305.504C121.933 305.504 128.688 299.054 130.504 299.29L128.298 305.279L136.237 308.014L145.87 303.569L150.673 283.456C149.227 286.664 147.009 289.464 144.217 291.606C141.425 293.748 138.145 295.165 134.672 295.73C122.423 297.974 112.868 305.434 102.165 310.021C102.165 310.021 88.344 312.448 89.7342 301.443Z" fill="#333"/>
<path d="M99.5693 294.806C99.5693 294.806 108.886 295.486 110.449 305.948L119.337 301.738C119.337 301.738 117.698 288.912 106.339 290.385C106.339 290.385 102.545 289.735 99.5693 294.806Z" fill="#333"/>
<path d="M195.918 274.887C197.306 279.885 197.606 285.122 196.799 290.245C196.363 292.855 195.461 295.364 194.136 297.654C193.441 298.814 192.773 299.798 192.13 300.914L190.211 304.195C187.685 308.599 185.124 313.008 182.644 317.462C180.138 321.903 177.777 326.428 175.612 331.043L175.628 330.799C176.144 332.148 177.027 333.327 178.179 334.199C179.336 335.028 180.75 335.417 182.168 335.299C183.599 335.166 184.989 334.744 186.252 334.058C187.545 333.373 188.773 332.573 189.922 331.667L189.749 331.849C193.296 326.331 196.982 320.916 200.761 315.548C202.665 312.873 204.605 310.224 206.68 307.651C207.722 306.331 208.841 305.073 210.031 303.885C210.383 303.541 210.772 303.237 211.191 302.979C211.505 302.805 211.807 302.611 212.095 302.396C212.699 301.931 213.261 301.413 213.774 300.849C215.872 298.486 217.395 295.669 218.224 292.62C219.093 289.529 219.278 286.285 218.766 283.115C217.755 276.628 216.954 270.136 216.158 263.634C216.155 263.609 216.162 263.583 216.177 263.563C216.193 263.543 216.216 263.53 216.241 263.526C216.266 263.523 216.292 263.529 216.312 263.545C216.333 263.56 216.346 263.583 216.35 263.608C217.366 270.073 218.311 276.562 219.485 282.985C220.256 286.261 220.283 289.669 219.566 292.957C218.826 296.293 217.302 299.405 215.12 302.035C214.557 302.706 213.935 303.325 213.261 303.884C212.904 304.174 212.527 304.438 212.131 304.672C211.863 304.858 211.613 305.069 211.383 305.302C210.28 306.45 209.243 307.661 208.28 308.929C206.275 311.477 204.338 314.106 202.399 316.731C198.518 321.984 194.756 327.339 190.974 332.672L190.953 332.701C190.911 332.76 190.86 332.812 190.801 332.854C189.538 333.755 188.191 334.531 186.777 335.17C185.341 335.838 183.786 336.214 182.203 336.277C180.583 336.328 178.998 335.804 177.727 334.798C176.491 333.806 175.551 332.493 175.011 331.003C174.997 330.963 174.992 330.921 174.995 330.879C174.997 330.837 175.009 330.796 175.028 330.759C177.346 326.21 179.565 321.618 181.743 316.996C183.962 312.397 186.16 307.779 188.711 303.334C189.934 301.107 191.402 298.909 192.766 296.821C194.036 294.706 194.94 292.391 195.441 289.975C195.985 287.524 196.254 285.021 196.245 282.51C196.283 279.975 196.111 277.44 195.73 274.933L195.729 274.927C195.726 274.902 195.732 274.877 195.746 274.857C195.76 274.837 195.781 274.823 195.805 274.818C195.829 274.813 195.855 274.817 195.876 274.83C195.897 274.843 195.912 274.863 195.918 274.887L195.918 274.887Z" fill="#333"/>
<path d="M175.32 330.9C175.32 330.9 174.556 344.596 190.56 341.185C190.56 341.185 199.762 338.788 205.355 318.608C205.355 318.608 208.067 309.671 209.766 308.984L210.788 315.284L219.046 313.763L225.25 305.156L219.545 285.28C219.863 288.785 219.308 292.314 217.929 295.551C216.551 298.789 214.391 301.635 211.645 303.835C202.081 311.81 197.427 323.003 190.361 332.26C190.361 332.26 179.519 341.167 175.32 330.9Z" fill="#333"/>
<path d="M180.622 320.286C180.622 320.286 189.069 316.298 195.574 324.64L201.244 316.605C201.244 316.605 193.512 306.241 184.344 313.108C184.344 313.108 180.721 314.407 180.622 320.286Z" fill="#333"/>
<path d="M154.007 154.02C154.032 154.048 154.056 154.079 154.077 154.111L154.083 154.118L154.092 154.128L155.242 155.434C155.272 155.468 155.291 155.509 155.299 155.553C155.306 155.597 155.301 155.643 155.283 155.684C155.266 155.725 155.238 155.761 155.201 155.787C155.165 155.813 155.122 155.828 155.077 155.831L155.056 155.832C149.598 156.155 144.14 156.352 138.683 156.456L134.589 156.526C133.851 156.559 133.112 156.521 132.381 156.413C131.23 156.218 130.136 155.772 129.176 155.106C128.217 154.441 127.416 153.572 126.83 152.562C126.062 151.227 125.694 149.7 125.768 148.162C125.848 142.702 126.052 137.241 126.104 131.782C126.128 126.324 126.013 120.867 125.757 115.412C125.7 114.698 125.713 113.981 125.795 113.27C125.889 112.533 126.091 111.814 126.394 111.136C127.001 109.752 127.995 108.571 129.256 107.738C130.535 106.892 132.03 106.431 133.563 106.408L137.656 106.332L141.75 106.279C144.105 106.251 146.379 107.139 148.093 108.755C149.807 110.371 150.827 112.589 150.938 114.942C151.577 125.839 151.974 136.75 152.129 147.675L152.13 147.711L152.129 147.736C152.097 148.265 152.126 148.796 152.216 149.319C152.305 149.865 152.434 150.404 152.601 150.932C152.955 152.001 153.423 153.029 153.995 153.999C154.003 154.011 154.008 154.025 154.01 154.039C154.012 154.053 154.012 154.068 154.008 154.082C154.005 154.096 153.999 154.109 153.99 154.121C153.982 154.133 153.971 154.142 153.959 154.15C153.936 154.164 153.908 154.169 153.881 154.164C153.855 154.158 153.831 154.144 153.814 154.123C153.462 153.665 153.133 153.189 152.83 152.698C152.53 152.198 152.262 151.681 152.028 151.147C151.794 150.607 151.6 150.05 151.447 149.481C151.282 148.89 151.189 148.282 151.171 147.669L151.171 147.73C150.068 136.86 149.212 125.975 148.604 115.076C148.55 113.898 148.212 112.751 147.617 111.734C147.013 110.719 146.159 109.877 145.136 109.287C144.105 108.693 142.939 108.373 141.75 108.356L137.656 108.303L133.563 108.226C132.339 108.183 131.128 108.487 130.069 109.102C129.01 109.717 128.146 110.618 127.577 111.703C127.282 112.253 127.072 112.845 126.956 113.459C126.845 114.099 126.796 114.749 126.812 115.399C126.684 120.859 126.701 126.317 126.862 131.773C127.049 137.229 127.389 142.683 127.604 148.139C127.589 149.345 127.904 150.532 128.514 151.573C129.123 152.588 130.002 153.414 131.054 153.958C131.577 154.231 132.137 154.424 132.717 154.532C133.336 154.633 133.963 154.674 134.589 154.653L138.682 154.724C144.14 154.828 149.598 155.025 155.056 155.348L154.87 155.745L153.892 154.264L153.906 154.282C153.868 154.223 153.834 154.161 153.803 154.101C153.791 154.079 153.788 154.053 153.794 154.028C153.801 154.003 153.815 153.982 153.836 153.967C153.857 153.953 153.883 153.947 153.908 153.95C153.933 153.953 153.957 153.965 153.974 153.984L154.007 154.02Z" fill="#333"/>
<path d="M180.585 180.37C181.026 181.074 181.364 181.837 181.589 182.636C181.81 183.396 181.963 184.174 182.046 184.96C182.133 185.747 182.147 186.539 182.091 187.329C182.04 188.158 181.869 188.975 181.584 189.755C181.14 189.053 180.801 188.29 180.577 187.49C180.356 186.73 180.204 185.952 180.122 185.165C180.038 184.378 180.024 183.586 180.08 182.797C180.132 181.968 180.302 181.151 180.585 180.37V180.37Z" fill="#333"/>
<line y1="524.5" x2="36" y2="524.5" stroke="white"/>
<defs>
<clipPath id="clip0">
<rect width="75" height="77" fill="white" transform="translate(100 29)"/>
</clipPath>
</defs>
</svg>
