<svg width="483" height="530" viewBox="0 0 483 530" fill="none" xmlns="http://www.w3.org/2000/svg">
<path d="M191.876 177.594H178.697C178.67 177.594 178.643 177.589 178.619 177.579C178.594 177.568 178.571 177.553 178.552 177.534C178.533 177.515 178.518 177.492 178.508 177.468C178.497 177.443 178.492 177.416 178.492 177.389V171.426C177.732 171.211 176.924 171.235 176.178 171.495L176.097 171.547C175.15 172.019 174.101 172.25 173.043 172.22C170.795 172.22 169.033 171.361 169.033 170.264C169.033 169.166 170.795 168.307 173.043 168.307C174.104 168.28 175.156 168.513 176.107 168.985L176.201 169.047C176.941 169.299 177.74 169.319 178.492 169.107V167.581C178.492 167.553 178.497 167.527 178.507 167.502C178.517 167.477 178.532 167.454 178.552 167.435C178.571 167.415 178.593 167.4 178.618 167.39C178.643 167.379 178.67 167.374 178.697 167.374C178.724 167.374 178.751 167.379 178.776 167.39C178.801 167.4 178.823 167.415 178.843 167.435C178.862 167.454 178.877 167.477 178.887 167.502C178.897 167.527 178.902 167.553 178.902 167.581V169.234C178.902 169.271 178.892 169.307 178.874 169.338C178.855 169.37 178.828 169.396 178.796 169.414C177.909 169.736 176.938 169.742 176.047 169.428C176.03 169.422 176.014 169.415 175.998 169.405L175.893 169.334C175.007 168.901 174.029 168.69 173.043 168.717C170.89 168.717 169.444 169.517 169.444 170.264C169.444 171.011 170.89 171.81 173.043 171.81C174.029 171.84 175.007 171.628 175.892 171.192L176.008 171.124C176.908 170.789 177.897 170.788 178.797 171.121C178.829 171.139 178.856 171.165 178.874 171.197C178.892 171.228 178.902 171.264 178.902 171.3V177.184H191.876C191.931 177.184 191.983 177.206 192.021 177.244C192.06 177.283 192.081 177.335 192.081 177.389C192.081 177.444 192.06 177.496 192.021 177.534C191.983 177.573 191.931 177.594 191.876 177.594L191.876 177.594Z" fill="#16336E"/>
<path d="M209.693 177.594H196.122C196.067 177.594 196.015 177.572 195.977 177.534C195.938 177.495 195.917 177.443 195.917 177.389C195.917 177.334 195.938 177.282 195.977 177.244C196.015 177.205 196.067 177.184 196.122 177.184H209.488V163.343H200.683C200.628 163.343 200.576 163.321 200.538 163.283C200.499 163.244 200.478 163.192 200.478 163.138C200.478 163.083 200.499 163.031 200.538 162.993C200.576 162.954 200.628 162.933 200.683 162.933H209.693C209.72 162.933 209.747 162.938 209.772 162.948C209.796 162.959 209.819 162.974 209.838 162.993C209.857 163.012 209.872 163.034 209.883 163.059C209.893 163.084 209.898 163.111 209.898 163.138V177.389C209.898 177.416 209.893 177.442 209.883 177.467C209.872 177.492 209.857 177.515 209.838 177.534C209.819 177.553 209.796 177.568 209.772 177.578C209.747 177.588 209.72 177.594 209.693 177.594Z" fill="#16336E"/>
<path d="M231.258 170.263C231.258 171.233 232.968 172.013 235.068 172.013C236.089 172.042 237.102 171.823 238.018 171.373L238.138 171.303C238.963 171.015 239.859 171.008 240.688 171.283V177.393H209.688V171.303C208.854 171.005 207.943 171.005 207.108 171.303L206.988 171.373C206.072 171.823 205.059 172.042 204.038 172.013C201.938 172.013 200.228 171.233 200.228 170.263C200.228 169.303 201.938 168.513 204.038 168.513C205.063 168.486 206.079 168.709 206.998 169.163L207.108 169.233C207.944 169.526 208.853 169.526 209.688 169.233V163.143H222.948C224.118 162.693 222.948 161.953 222.948 161.953L222.788 161.893C221.928 161.573 221.388 161.083 221.388 160.543C221.388 159.573 223.088 158.793 225.188 158.793C227.288 158.793 228.998 159.573 228.998 160.543C228.998 161.093 228.448 161.583 227.578 161.903L227.438 161.953C227.438 161.953 226.258 162.693 227.438 163.143H240.688V169.243C239.861 169.525 238.963 169.521 238.138 169.233L238.028 169.163C237.109 168.71 236.093 168.487 235.068 168.513C232.968 168.513 231.258 169.293 231.258 170.263Z" fill="#16336E"/>
<path d="M209.688 177.493V191.743H196.378C195.298 191.292 196.438 190.582 196.438 190.582L196.588 190.533C197.448 190.213 197.998 189.723 197.998 189.173C197.998 188.203 196.298 187.423 194.198 187.423C192.098 187.423 190.388 188.203 190.388 189.173C190.388 189.723 190.938 190.203 191.788 190.533L191.948 190.582C191.948 190.582 193.078 191.292 192.018 191.743H178.698V185.653C177.86 185.36 176.947 185.36 176.108 185.653L175.998 185.723C175.081 186.172 174.069 186.392 173.048 186.363C170.938 186.363 169.238 185.583 169.238 184.613C169.238 183.653 170.938 182.863 173.048 182.863C174.074 182.834 175.091 183.061 176.008 183.522L176.108 183.582C176.947 183.876 177.86 183.876 178.698 183.582V177.493H191.948L192.048 177.453C192.998 177.903 191.908 178.583 191.908 178.583L191.768 178.633C190.908 178.953 190.358 179.443 190.358 179.993C190.358 180.963 192.058 181.743 194.158 181.743C196.258 181.743 197.968 180.963 197.968 179.993C197.968 179.443 197.418 178.953 196.568 178.633L196.408 178.583C196.408 178.583 195.298 177.883 196.308 177.433L196.438 177.493H209.688Z" fill="#16336E"/>
<path d="M258.335 177.434C257.32 177.884 258.431 178.581 258.431 178.581L258.588 178.637C259.446 178.956 259.99 179.445 259.99 179.992C259.99 180.959 258.286 181.742 256.184 181.742C254.081 181.742 252.378 180.959 252.378 179.992C252.378 179.442 252.927 178.95 253.791 178.631L253.936 178.581C253.936 178.581 255.024 177.903 254.069 177.45L253.974 177.492H240.723V183.586C239.886 183.88 238.973 183.88 238.136 183.586L238.03 183.518C237.111 183.061 236.094 182.837 235.068 182.868C232.966 182.868 231.262 183.651 231.262 184.618C231.262 185.585 232.966 186.368 235.068 186.368C236.09 186.398 237.103 186.176 238.019 185.723L238.136 185.651C238.973 185.357 239.886 185.357 240.723 185.651V191.744H271.717V177.492H258.465L258.335 177.434Z" fill="#16336E"/>
<path d="M209.688 206.228H178.698C178.672 206.228 178.645 206.222 178.62 206.212C178.595 206.202 178.573 206.187 178.553 206.168C178.534 206.149 178.519 206.126 178.509 206.101C178.499 206.076 178.493 206.049 178.493 206.023V200.06C177.731 199.845 176.922 199.869 176.174 200.127L176.108 200.176C175.158 200.645 174.108 200.876 173.049 200.848C170.797 200.848 169.033 199.988 169.033 198.893C169.033 197.797 170.797 196.938 173.049 196.938C174.108 196.911 175.158 197.143 176.108 197.614L176.199 197.676C176.94 197.928 177.74 197.948 178.493 197.735V191.773C178.493 191.746 178.499 191.719 178.509 191.694C178.519 191.669 178.534 191.647 178.553 191.628C178.573 191.608 178.595 191.593 178.62 191.583C178.645 191.573 178.672 191.567 178.698 191.567H191.908C191.959 191.547 192.016 191.545 192.068 191.564C192.119 191.583 192.162 191.62 192.188 191.668C192.2 191.69 192.208 191.715 192.21 191.74C192.213 191.765 192.21 191.791 192.203 191.815C192.195 191.839 192.183 191.861 192.167 191.881C192.151 191.9 192.131 191.916 192.108 191.928L192.058 191.948C192.023 191.963 191.986 191.973 191.949 191.978H178.904V197.862C178.903 197.899 178.893 197.935 178.875 197.967C178.856 197.998 178.829 198.024 178.797 198.042C177.909 198.366 176.936 198.371 176.044 198.057C176.025 198.051 176.008 198.042 175.992 198.03L175.892 197.961C175.007 197.531 174.032 197.321 173.049 197.348C170.892 197.348 169.444 198.147 169.444 198.893C169.444 199.639 170.892 200.438 173.049 200.438C174.034 200.466 175.012 200.256 175.899 199.824L175.999 199.76C176.901 199.426 177.893 199.423 178.797 199.753C178.829 199.771 178.856 199.797 178.875 199.828C178.893 199.86 178.903 199.896 178.904 199.933V205.817H209.483V191.978H196.438C196.407 191.977 196.377 191.97 196.348 191.957L196.287 191.927C196.238 191.902 196.201 191.86 196.184 191.808C196.167 191.757 196.171 191.7 196.195 191.652C196.22 191.603 196.262 191.566 196.314 191.549C196.365 191.531 196.422 191.535 196.47 191.56L196.486 191.567H209.688C209.715 191.567 209.742 191.573 209.767 191.583C209.792 191.593 209.814 191.608 209.833 191.628C209.852 191.647 209.867 191.669 209.878 191.694C209.888 191.719 209.893 191.746 209.893 191.773V206.023C209.893 206.049 209.888 206.076 209.878 206.101C209.867 206.126 209.852 206.149 209.833 206.168C209.814 206.187 209.792 206.202 209.767 206.212C209.742 206.222 209.715 206.228 209.688 206.228Z" fill="#16336E"/>
<path d="M231.258 198.923C231.258 199.893 232.968 200.683 235.068 200.683C236.09 200.709 237.102 200.486 238.018 200.033L238.138 199.963C238.963 199.675 239.861 199.672 240.688 199.953V206.023H209.688V199.933C208.853 199.64 207.943 199.64 207.108 199.933L206.988 200.003C206.072 200.452 205.059 200.672 204.038 200.643C201.938 200.643 200.228 199.863 200.228 198.893C200.228 197.933 201.938 197.143 204.038 197.143C205.063 197.116 206.079 197.339 206.998 197.793L207.108 197.863C207.943 198.155 208.853 198.155 209.688 197.863V191.773H222.948C224.118 191.323 222.948 190.583 222.948 190.583L222.788 190.533C221.928 190.203 221.388 189.723 221.388 189.173C221.388 188.203 223.088 187.423 225.188 187.423C227.288 187.423 228.998 188.203 228.998 189.173C228.998 189.723 228.448 190.213 227.578 190.533L227.438 190.583C227.438 190.583 226.258 191.323 227.438 191.773H240.688V197.903C239.861 198.184 238.963 198.18 238.138 197.893L238.028 197.833C237.112 197.37 236.095 197.143 235.068 197.173C232.968 197.173 231.258 197.963 231.258 198.923Z" fill="#16336E"/>
<path d="M271.719 206.258H240.719C240.692 206.258 240.665 206.253 240.64 206.242C240.615 206.232 240.593 206.217 240.573 206.198C240.554 206.179 240.539 206.156 240.529 206.131C240.519 206.106 240.513 206.08 240.513 206.053V200.058C240.494 200.026 240.484 199.989 240.485 199.952C240.485 199.898 240.506 199.846 240.544 199.808C240.582 199.77 240.634 199.748 240.688 199.748C240.751 199.751 240.811 199.775 240.86 199.814C240.88 199.834 240.896 199.857 240.907 199.882C240.918 199.908 240.923 199.935 240.924 199.963V205.848H271.513V192.008H240.924V197.893C240.923 197.92 240.918 197.948 240.907 197.973C240.896 197.999 240.88 198.022 240.86 198.041C240.811 198.081 240.751 198.104 240.688 198.107C240.652 198.107 240.616 198.098 240.584 198.079C240.553 198.061 240.527 198.034 240.509 198.002C240.491 197.971 240.482 197.935 240.483 197.898C240.484 197.862 240.494 197.826 240.513 197.795V191.803C240.513 191.776 240.519 191.749 240.529 191.724C240.539 191.699 240.554 191.677 240.573 191.658C240.593 191.639 240.615 191.624 240.64 191.613C240.665 191.603 240.692 191.598 240.718 191.598H271.718C271.745 191.598 271.772 191.603 271.797 191.613C271.822 191.624 271.844 191.639 271.864 191.658C271.883 191.677 271.898 191.699 271.908 191.724C271.918 191.749 271.924 191.776 271.924 191.803V206.053C271.924 206.08 271.918 206.106 271.908 206.131C271.898 206.156 271.883 206.179 271.864 206.198C271.844 206.217 271.822 206.232 271.797 206.242C271.772 206.252 271.745 206.258 271.719 206.258Z" fill="#16336E"/>
<path d="M253.898 177.598H240.728C240.701 177.598 240.675 177.592 240.65 177.582C240.625 177.572 240.602 177.557 240.583 177.538C240.564 177.518 240.549 177.496 240.539 177.471C240.529 177.446 240.523 177.419 240.523 177.392V171.432C239.761 171.222 238.953 171.244 238.204 171.497L238.122 171.55C237.173 172.016 236.126 172.246 235.069 172.218C232.817 172.218 231.054 171.358 231.054 170.263C231.054 169.167 232.817 168.308 235.069 168.308C236.128 168.281 237.179 168.513 238.128 168.984L238.247 169.059C238.985 169.297 239.778 169.31 240.523 169.097V163.143C240.523 163.116 240.529 163.089 240.539 163.064C240.549 163.039 240.564 163.017 240.583 162.998C240.602 162.978 240.625 162.963 240.65 162.953C240.675 162.943 240.701 162.937 240.728 162.938H250.158C250.185 162.937 250.212 162.942 250.237 162.953C250.262 162.963 250.285 162.978 250.304 162.997C250.323 163.016 250.338 163.039 250.349 163.064C250.359 163.089 250.365 163.116 250.365 163.143C250.365 163.17 250.359 163.196 250.349 163.221C250.338 163.246 250.323 163.269 250.304 163.288C250.285 163.307 250.262 163.322 250.237 163.332C250.212 163.343 250.185 163.348 250.158 163.348H240.933V169.232C240.933 169.27 240.923 169.306 240.904 169.338C240.885 169.369 240.858 169.396 240.825 169.413C240.805 169.423 240.784 169.43 240.763 169.436C239.891 169.736 238.943 169.733 238.073 169.427L237.919 169.336C237.033 168.903 236.055 168.691 235.069 168.718C233.115 168.718 231.464 169.425 231.464 170.263C231.464 171.101 233.114 171.808 235.069 171.808C236.054 171.836 237.032 171.626 237.919 171.194L238.035 171.126C238.92 170.803 239.888 170.793 240.78 171.099C240.793 171.104 240.806 171.111 240.819 171.119C240.853 171.136 240.882 171.162 240.902 171.194C240.923 171.227 240.933 171.264 240.933 171.303V177.188H253.898C253.925 177.187 253.952 177.192 253.977 177.203C254.002 177.213 254.025 177.228 254.044 177.247C254.063 177.266 254.079 177.289 254.089 177.314C254.099 177.339 254.105 177.366 254.105 177.393C254.105 177.42 254.099 177.446 254.089 177.471C254.079 177.496 254.063 177.519 254.044 177.538C254.025 177.557 254.002 177.572 253.977 177.582C253.952 177.593 253.925 177.598 253.898 177.598V177.598Z" fill="#16336E"/>
<path d="M270.942 177.594H258.141C258.087 177.594 258.035 177.572 257.996 177.534C257.958 177.495 257.936 177.443 257.936 177.389C257.936 177.334 257.958 177.282 257.996 177.244C258.035 177.205 258.087 177.184 258.141 177.184H270.942C270.996 177.184 271.049 177.205 271.087 177.244C271.126 177.282 271.147 177.334 271.147 177.389C271.147 177.443 271.126 177.495 271.087 177.534C271.049 177.572 270.996 177.594 270.942 177.594H270.942Z" fill="#16336E"/>
<path d="M206.131 148.286C211.335 148.128 216.538 148.06 221.741 147.944L237.35 147.749C247.757 147.634 258.163 147.645 268.569 147.586C278.976 147.641 289.382 147.635 299.788 147.747L315.398 147.942C320.601 148.059 325.804 148.127 331.008 148.286C325.804 148.445 320.601 148.513 315.398 148.629L299.788 148.825C289.382 148.936 278.976 148.931 268.569 148.986C258.163 148.927 247.757 148.938 237.35 148.822L221.741 148.627C216.538 148.512 211.335 148.444 206.131 148.286Z" fill="#16336E"/>
<path d="M117.713 62.3804C115.43 62.3665 113.15 62.1978 110.89 61.8755C110.826 61.8667 110.764 61.8454 110.707 61.813C109.618 61.1832 104.152 57.9664 103.448 56.5591C102.544 55.477 101.321 54.7083 99.9539 54.3629C97.3137 53.5005 92.8904 53.1343 86.805 56.275C86.7245 56.3166 86.6343 56.3355 86.5439 56.3299C86.4535 56.3242 86.3664 56.2941 86.2918 56.2427C86.2172 56.1914 86.158 56.1208 86.1204 56.0384C86.0828 55.956 86.0683 55.8649 86.0784 55.775C86.1282 55.3345 87.3904 44.981 95.7029 42.9029C95.7947 42.8882 98.6633 42.4507 100.218 36.6988C101.889 30.5162 105.075 28.4781 107.403 26.9908L107.66 26.8248C109.788 25.4576 112.316 19.5826 112.816 15.9117C113.366 11.8785 119.712 1.37653 131.435 0.514232C141.437 -0.219168 154.794 6.92731 156.576 11.3385C156.794 11.7718 156.861 12.2653 156.767 12.741C156.673 13.2167 156.423 13.6475 156.057 13.9654C149.911 22.0139 142.518 29.0279 134.158 34.7418V49.9459C134.266 51.4596 134.045 52.9788 133.511 54.3992C132.976 55.8195 132.141 57.1074 131.062 58.1744C128.229 60.9742 123.754 62.3804 117.713 62.3804ZM111.123 60.898C120.32 62.1451 126.792 60.9888 130.359 57.4634C131.329 56.4915 132.081 55.3238 132.564 54.0382C133.048 52.7527 133.251 51.3789 133.162 50.0084L133.158 34.4761C133.158 34.3944 133.178 34.3138 133.216 34.2416C133.255 34.1694 133.31 34.1078 133.378 34.0621C141.75 28.3822 149.145 21.3829 155.277 13.3365C155.302 13.3006 155.332 13.2684 155.366 13.2408C155.591 13.064 155.744 12.8114 155.796 12.5301C155.848 12.2487 155.796 11.9581 155.649 11.7125C154.006 7.64508 140.963 0.819874 131.509 1.51226C120.512 2.32085 114.309 12.3648 113.807 16.0464C113.33 19.5444 110.851 25.9625 108.201 27.6666L107.941 27.8326C105.63 29.3111 102.753 31.1509 101.183 36.9605C99.4323 43.438 96.0207 43.8706 95.8762 43.8853C89.695 45.4351 87.7449 52.396 87.2322 54.9478C93.1736 52.1255 97.5745 52.5357 100.264 53.4117C101.889 53.8269 103.326 54.7783 104.343 56.1119C104.779 56.9839 108.695 59.4869 111.123 60.898H111.123Z" fill="#16336E"/>
<path d="M148.348 147.651L148.335 147.661C148.215 147.87 148.105 148.076 147.982 148.286L148.348 147.651Z" fill="#16336E"/>
<path d="M180.148 105.013C178.888 103.253 178.138 90.3828 178.138 90.3828C176.368 59.8628 154.518 54.9028 154.518 54.9028C154.195 55.2952 153.826 55.6477 153.418 55.9528C148.998 59.2328 140.298 57.7228 140.298 57.7228C140.298 57.7228 136.268 58.9828 134.878 64.5329C133.488 70.0827 135.888 86.2228 132.608 85.3427C129.328 84.4628 121.998 84.5727 121.438 61.8727C121.438 61.8727 121.448 61.7926 121.478 61.6527C117.975 62.0091 114.439 61.9184 110.958 61.3827C110.958 61.3827 104.568 57.6827 103.898 56.3327C103.218 54.9928 96.9984 50.4528 86.5784 55.8327C86.5784 55.8327 75.9885 56.8029 64.7585 69.0329C53.5285 81.2629 41.6785 104.763 39.1584 149.823L47.8784 152.393C47.9184 147.693 48.1684 143.003 48.5484 138.323C49.0571 131.957 49.9723 125.631 51.2885 119.383C52.6785 113.183 54.3884 106.903 57.6584 101.403C56.297 104.27 55.2121 107.26 54.4184 110.333C53.5684 113.383 52.8984 116.483 52.3384 119.593C51.2384 125.833 50.4684 132.133 49.9384 138.443C49.3884 144.763 49.0884 151.103 48.9784 157.443C48.9284 160.613 48.9584 163.783 49.1284 166.953C49.1984 168.533 49.2884 170.113 49.4884 171.683C49.5812 172.469 49.7147 173.25 49.8884 174.023C49.9713 174.408 50.085 174.786 50.2284 175.153C50.3124 175.357 50.4127 175.555 50.5284 175.743L50.5784 175.793C50.683 175.897 50.8007 175.988 50.9285 176.063C50.9285 176.063 81.4684 163.903 103.388 153.193C103.338 150.683 103.368 148.183 103.358 145.693L103.248 138.203C103.058 133.213 102.918 128.233 102.468 123.273C102.108 118.313 101.508 113.363 100.688 108.453C100.288 106.003 99.7918 103.566 99.1984 101.143C98.6492 98.7098 97.9137 96.3227 96.9984 94.0026C99.2136 98.5181 100.811 103.311 101.748 108.253C102.308 110.703 102.678 113.193 103.068 115.673C103.368 118.163 103.688 120.663 103.868 123.163C104.088 125.663 104.178 128.173 104.278 130.673C104.358 133.183 104.348 135.693 104.328 138.193L104.038 145.703C103.818 148.203 103.648 150.703 103.388 153.193C103.388 153.193 105.708 156.933 130.178 152.313C130.178 152.313 147.848 148.253 148.338 147.663C159.298 128.483 154.518 114.603 154.518 114.603C154.056 112.195 153.723 109.765 153.518 107.323C153.278 104.883 153.168 102.443 153.108 99.9928C153.068 97.5426 153.108 95.0927 153.298 92.6427C153.429 90.181 153.838 87.7421 154.518 85.3727C154.358 87.8227 154.378 90.2428 154.388 92.6727C154.418 95.1026 154.448 97.5328 154.508 99.9627C154.578 104.833 154.698 109.693 154.518 114.603C161.168 115.863 180.148 105.013 180.148 105.013ZM91.4984 81.3227C91.1462 80.8873 90.7509 80.4887 90.3185 80.1328L89.0685 79.0427C88.6285 78.7029 88.1484 78.4228 87.6884 78.1128C85.8259 76.9246 83.7455 76.119 81.5685 75.7429C79.3889 75.3393 77.1622 75.2551 74.9585 75.4929C72.7355 75.7069 70.5425 76.1629 68.4184 76.8528C70.4733 75.9044 72.6568 75.2643 74.8985 74.9529C77.1568 74.636 79.4504 74.6698 81.6984 75.053C83.9568 75.4715 86.1007 76.3645 87.9884 77.6728C89.848 78.9745 91.426 80.6376 92.6284 82.5627L91.4984 81.3227Z" fill="#16336E"/>
<path d="M121.481 61.6536L123.787 61.197C124.533 60.9595 125.29 60.758 126.016 60.4807C127.462 59.9254 128.804 59.1309 129.987 58.1304C131.125 57.108 132.011 55.8364 132.576 54.415C133.133 53.0137 133.355 51.5015 133.225 49.999C133.223 49.9829 133.222 49.9612 133.222 49.9453C133.106 44.7886 133.075 39.6321 132.998 34.4756C132.996 34.3724 133.019 34.2704 133.066 34.1781C133.112 34.0859 133.18 34.0062 133.263 33.9458L133.289 33.928C135.34 32.4653 137.37 30.9719 139.298 29.3494C141.25 27.7581 143.105 26.0523 144.928 24.3174C146.757 22.5886 148.505 20.7737 150.187 18.905C151.87 17.0518 153.456 15.1137 154.94 13.0984C154.96 13.0715 154.981 13.046 155.004 13.0222L155.102 12.9236C155.18 12.8589 155.244 12.7789 155.29 12.6886C155.336 12.5983 155.364 12.4994 155.37 12.3982C155.35 12.1001 155.258 11.8113 155.102 11.5566C154.662 10.8614 154.12 10.2362 153.495 9.70162C152.142 8.54595 150.67 7.53675 149.104 6.69088C145.939 4.95169 142.56 3.63286 139.054 2.76778C137.321 2.33356 135.552 2.0618 133.768 1.95601C132.89 1.90675 132.009 1.9284 131.135 2.02071C130.259 2.09661 129.391 2.24133 128.538 2.45357C127.682 2.65406 126.841 2.91272 126.02 3.22774C125.206 3.56356 124.414 3.95133 123.649 4.38863C122.102 5.25703 120.68 6.33091 119.421 7.58101C118.144 8.8195 117.016 10.2043 116.063 11.7067C115.086 13.147 114.415 14.772 114.091 16.4816C113.738 18.3643 113.167 20.1993 112.388 21.9492C111.66 23.7442 110.654 25.4133 109.406 26.8952C109.236 27.082 109.036 27.2566 108.85 27.4352C108.642 27.5929 108.4 27.7824 108.206 27.9018L107.05 28.6344C106.305 29.1122 105.608 29.6593 104.966 30.2684C103.703 31.5111 102.708 32.9998 102.044 34.6424C101.697 35.4767 101.399 36.3304 101.152 37.1993C100.885 38.1162 100.54 39.0088 100.123 39.8678C99.6905 40.7397 99.1322 41.5432 98.4659 42.2525C97.7803 43.0203 96.8702 43.5525 95.8649 43.7735L95.9181 43.764C94.63 44.0801 93.413 44.6364 92.331 45.4037C91.2581 46.2107 90.3218 47.1849 89.5582 48.2892C88.8067 49.4196 88.1793 50.6277 87.687 51.8927C87.1834 53.164 86.811 54.4834 86.5757 55.8304C86.7352 54.4646 87.0338 53.1187 87.4669 51.8136C87.8952 50.4966 88.477 49.2347 89.2005 48.0538C89.9484 46.8687 90.8824 45.8118 91.9666 44.9239C93.0888 44.054 94.3657 43.4048 95.7297 43.0106L95.7834 43.0011C96.5791 42.7572 97.2852 42.2841 97.8134 41.641C98.3839 40.9738 98.8564 40.2287 99.2166 39.4281C99.5859 38.6137 99.8861 37.7697 100.114 36.9051C100.35 35.9895 100.638 35.0884 100.979 34.2064C101.662 32.3933 102.709 30.7395 104.056 29.3472C104.739 28.6644 105.484 28.0473 106.282 27.5042L107.447 26.7218C107.643 26.5929 107.756 26.484 107.917 26.3648C108.057 26.2164 108.206 26.0848 108.342 25.9271C109.436 24.5399 110.309 22.9919 110.929 21.338C111.603 19.6852 112.101 17.9657 112.413 16.2083C112.484 15.7153 112.588 15.2275 112.724 14.7483C112.863 14.2723 113.034 13.8062 113.235 13.3533C113.619 12.4646 114.068 11.6055 114.579 10.7833C115.593 9.1527 116.797 7.64758 118.164 6.29914C119.521 4.93006 121.057 3.75017 122.73 2.79133C123.565 2.30425 124.431 1.87171 125.322 1.4964C126.224 1.14036 127.149 0.846462 128.09 0.616766C129.03 0.37547 129.986 0.207727 130.952 0.115057C131.915 0.00656704 132.885 -0.0252679 133.853 0.019842C135.763 0.115378 137.66 0.389193 139.519 0.837713C143.202 1.74378 146.743 3.1498 150.044 5.01659C151.725 5.94458 153.303 7.04904 154.75 8.31127C155.525 8.98809 156.189 9.78135 156.72 10.6626C157.037 11.2065 157.205 11.8242 157.207 12.4536C157.189 12.8134 157.096 13.1656 156.935 13.4879C156.774 13.8101 156.548 14.0955 156.271 14.3259L156.432 14.1513C154.889 16.2136 153.24 18.1947 151.493 20.0869C149.762 21.9763 147.969 23.8071 146.093 25.55C144.217 27.2924 142.269 28.9526 140.25 30.5305C138.25 32.1277 136.148 33.5927 134.028 35.0227L134.319 34.4756C134.241 39.632 134.21 44.7886 134.095 49.9453L134.091 49.8918C134.176 51.5339 133.87 53.1727 133.199 54.6736C132.539 56.1533 131.546 57.4604 130.297 58.4924C129.041 59.4766 127.622 60.2341 126.106 60.7309C125.353 60.9709 124.577 61.1313 123.816 61.3269L121.481 61.6536Z" fill="#16336E"/>
<path d="M155.688 13.6948C155.685 13.7969 155.555 13.9253 155.474 14.0603L155.2 14.4509L154.641 15.2249C154.27 15.7427 153.871 16.238 153.484 16.7429C152.692 17.7393 151.886 18.7256 151.053 19.689C149.397 21.6245 147.632 23.4675 145.806 25.2466C143.973 27.0178 142.106 28.7634 140.111 30.3584C138.147 31.9907 136.078 33.4934 133.988 34.9636L134.247 34.4756C134.256 37.0538 134.302 39.6321 134.28 42.2105L134.237 49.9454L134.233 49.8745C134.333 51.5427 134.031 53.2105 133.352 54.7375C132.688 56.245 131.683 57.5781 130.417 58.6323C129.144 59.6334 127.71 60.4086 126.175 60.9241C125.417 61.1751 124.634 61.3457 123.866 61.5513L121.513 61.9214L121.745 61.7065L121.7 61.9272L121.705 61.8706L121.846 65.554C121.923 66.7793 122.048 68.0012 122.146 69.2256C122.42 71.6614 122.918 74.0666 123.635 76.4104C124.277 78.7501 125.508 80.8864 127.21 82.6155C128.092 83.4092 129.137 84.0005 130.272 84.3479C130.849 84.5249 131.435 84.6709 132.028 84.7851L132.489 84.8889L132.718 84.9399C132.76 84.9386 132.803 84.9416 132.845 84.9489C132.987 84.9435 133.1 84.8593 133.236 84.6718C133.667 83.5999 133.881 82.4534 133.866 81.2982C133.918 80.0866 133.918 78.8627 133.906 77.6366C133.876 75.1825 133.777 72.7192 133.772 70.2377C133.774 68.9963 133.804 67.7504 133.913 66.4899C134.004 65.1965 134.29 63.9244 134.76 62.7162C135.207 61.4527 135.911 60.2955 136.827 59.3177C137.744 58.3399 138.853 57.5627 140.085 57.0351C140.169 57.0012 140.261 56.9901 140.351 57.0026L140.423 57.0129C142.662 57.3342 144.93 57.4063 147.184 57.228C149.372 57.1436 151.487 56.4139 153.262 55.1308C154.063 54.4246 154.704 53.5542 155.139 52.5785C155.625 51.5746 156.003 50.5224 156.269 49.4394C156.828 47.2381 157.149 44.9828 157.225 42.7128C157.229 42.5767 157.276 42.4453 157.357 42.3364C157.439 42.2275 157.553 42.1463 157.682 42.1039L157.696 42.0995C158.022 42.0387 158.317 41.8653 158.528 41.6097C158.74 41.3541 158.855 41.0324 158.853 40.7006C158.895 39.8932 158.753 39.087 158.438 38.3425L158.425 38.31C158.393 38.2271 158.381 38.1377 158.391 38.0495L159.131 31.7218C159.473 29.6534 159.629 27.5586 159.598 25.4623C159.483 23.3709 159.086 21.3045 158.419 19.319C158.078 18.3231 157.677 17.3483 157.221 16.3998C156.984 15.9286 156.742 15.4598 156.478 15.0028L156.07 14.3244L155.855 13.9919L155.744 13.8288L155.688 13.7477C155.68 13.7378 155.689 13.7241 155.688 13.6948ZM155.684 13.5547C158.335 16.9829 159.955 21.0955 160.353 25.4109C160.463 27.5556 160.383 29.706 160.112 31.8364L159.539 38.1684L159.492 37.8759C159.687 38.3308 159.838 38.8034 159.943 39.2871C160.058 39.7861 160.098 40.2996 160.062 40.8105C160.05 41.3963 159.843 41.9614 159.475 42.4173C159.107 42.8732 158.598 43.1942 158.028 43.33L158.499 42.717C158.485 45.1003 158.194 47.4739 157.632 49.79C157.348 50.9677 156.941 52.1123 156.418 53.205C155.902 54.3594 155.145 55.3898 154.197 56.2268C152.204 57.7174 149.81 58.5772 147.324 58.6955C144.94 58.9067 142.539 58.8181 140.177 58.4319L140.515 58.4096C139.485 58.8281 138.564 59.4745 137.821 60.3003C137.045 61.1524 136.433 62.1395 136.014 63.2126C135.098 65.353 135.104 67.8046 135.025 70.2497C134.976 72.697 135.021 75.1611 134.997 77.6357C134.985 78.8735 134.956 80.115 134.856 81.363C134.799 81.9883 134.738 82.6137 134.62 83.2449C134.522 83.9184 134.297 84.5672 133.958 85.157C133.837 85.3457 133.672 85.5019 133.476 85.6119C133.281 85.7219 133.062 85.7824 132.838 85.7881C132.727 85.7776 132.615 85.7627 132.506 85.7439L132.285 85.6872L131.848 85.5737C131.235 85.433 130.63 85.2614 130.035 85.0595C128.816 84.647 127.703 83.9739 126.771 83.0871C125.058 81.2354 123.822 78.9948 123.168 76.5586C122.475 74.1776 121.99 71.7411 121.718 69.2764C121.601 68.0464 121.458 66.8173 121.363 65.5852L121.169 61.8838C121.168 61.8673 121.169 61.8507 121.172 61.8345L121.173 61.8266L121.216 61.6008C121.226 61.5482 121.252 61.4998 121.29 61.462C121.328 61.4242 121.376 61.3988 121.429 61.3891L121.449 61.3857L123.738 60.9726C124.475 60.7451 125.227 60.5539 125.946 60.2873C127.374 59.7507 128.7 58.9739 129.867 57.9905C130.982 56.9993 131.852 55.7637 132.41 54.3804C132.968 52.9971 133.198 51.5035 133.083 50.0163L133.08 49.9858L133.079 49.9453L133.036 42.2104C133.014 39.632 133.06 37.0537 133.069 34.4756C133.07 34.3793 133.094 34.2847 133.139 34.1997C133.184 34.1147 133.249 34.0417 133.329 33.987C135.41 32.5644 137.473 31.1089 139.437 29.5215C141.414 27.9531 143.349 26.3269 145.214 24.6206C147.094 22.928 148.87 21.1255 150.627 19.303C151.503 18.3896 152.355 17.4519 153.193 16.5022C154.044 15.5298 154.795 14.6125 155.684 13.5547Z" fill="#16336E"/>
<path d="M141.923 28.17C143.878 27.8552 145.867 27.8139 147.834 28.0472C149.812 28.2307 151.743 28.7559 153.542 29.5992C151.596 29.2442 149.692 28.9488 147.757 28.743C145.825 28.5226 143.889 28.3754 141.923 28.17Z" fill="#16336E"/>
<path d="M148.624 34.8119C148.896 34.8024 149.154 34.6876 149.344 34.4915C149.533 34.2954 149.639 34.0335 149.639 33.7609C149.639 33.4883 149.533 33.2264 149.344 33.0303C149.154 32.8342 148.896 32.7194 148.624 32.71C148.351 32.7194 148.093 32.8342 147.904 33.0303C147.714 33.2264 147.608 33.4883 147.608 33.7609C147.608 34.0335 147.714 34.2954 147.904 34.4915C148.093 34.6876 148.351 34.8024 148.624 34.8119Z" fill="#16336E"/>
<path d="M161.613 29.5989C160.825 29.5848 160.037 29.6112 159.252 29.678L156.902 29.8521L157.167 29.6743C156.896 30.3845 156.73 31.1301 156.674 31.888C156.608 32.6494 156.653 33.4163 156.806 34.1651C156.986 34.9214 157.242 35.6574 157.571 36.3616C157.729 36.7194 157.909 37.0673 158.11 37.4031C158.323 37.7036 158.556 38.1031 158.965 38.1092C158.535 38.2124 158.19 37.8211 157.921 37.5493C157.647 37.2441 157.404 36.912 157.197 36.5579C156.758 35.8604 156.42 35.1045 156.192 34.3125C155.981 33.5031 155.908 32.6637 155.977 31.8299C156.043 30.9913 156.255 30.1707 156.601 29.4043L156.604 29.3989C156.627 29.3488 156.664 29.3061 156.711 29.2757C156.757 29.2452 156.811 29.2283 156.866 29.2266C157.663 29.2031 158.456 29.2149 159.25 29.2613C160.048 29.2917 160.84 29.4049 161.613 29.5989Z" fill="#16336E"/>
<path d="M158.397 35.0013C158.67 34.9919 158.928 34.877 159.117 34.681C159.307 34.4849 159.413 34.223 159.413 33.9504C159.413 33.6778 159.307 33.4158 159.117 33.2198C158.928 33.0237 158.67 32.9088 158.397 32.8994C158.125 32.9088 157.867 33.0237 157.677 33.2198C157.488 33.4158 157.382 33.6778 157.382 33.9504C157.382 34.223 157.488 34.4849 157.677 34.681C157.867 34.877 158.125 34.9919 158.397 35.0013Z" fill="#16336E"/>
<path d="M149.128 46.2463L151.337 47.438C152.052 47.8231 152.799 48.1441 153.571 48.397C153.895 48.5521 154.255 48.6181 154.613 48.5883C154.971 48.5584 155.315 48.4337 155.61 48.2271C156.059 47.5691 156.299 46.7908 156.298 45.9941C156.438 46.4201 156.486 46.8707 156.439 47.3165C156.392 47.7623 156.252 48.1932 156.026 48.5808C155.868 48.7759 155.671 48.9355 155.447 49.0494C155.224 49.1633 154.978 49.2289 154.728 49.2419C154.268 49.2645 153.808 49.2055 153.37 49.0676C152.546 48.7965 151.767 48.4049 151.058 47.9055C150.353 47.4283 149.705 46.8716 149.128 46.2463Z" fill="#16336E"/>
<path d="M151.461 39.2471C151.426 39.7934 151.43 40.3416 151.472 40.8875C151.547 41.4166 151.714 41.9285 151.966 42.3999C151.648 42.3216 151.366 42.1406 151.162 41.885C150.947 41.624 150.813 41.306 150.777 40.97C150.736 40.6484 150.777 40.3216 150.897 40.0203C151.017 39.719 151.211 39.4529 151.461 39.2471Z" fill="#16336E"/>
<path d="M133.658 49.9453C134.295 50.5523 134.879 51.2119 135.404 51.9172L136.183 52.936C136.443 53.2865 136.722 53.6213 137.021 53.939C136.566 53.8405 136.144 53.6276 135.795 53.3206C135.443 53.0337 135.126 52.7067 134.851 52.3464C134.289 51.6389 133.882 50.8207 133.658 49.9453Z" fill="#16336E"/>
<path d="M158.954 42.0664C159.421 44.8469 159.695 47.6123 160.045 50.363C160.219 51.7358 160.391 53.1106 160.639 54.4629C160.757 55.1384 160.909 55.8075 161.095 56.4675C161.253 57.1396 161.535 57.7761 161.929 58.3435C160.9 57.3364 160.188 56.0505 159.88 54.6441C159.496 53.2821 159.22 51.8921 159.053 50.4868C158.699 47.693 158.665 44.8678 158.954 42.0664Z" fill="#16336E"/>
<path d="M42.2158 150.728C42.2339 152.671 42.1199 154.613 41.8748 156.541C41.661 158.472 41.3148 160.387 40.8385 162.271C40.8188 160.328 40.9328 158.385 41.1795 156.458C41.3948 154.526 41.741 152.612 42.2158 150.728Z" fill="#16336E"/>
<path d="M48.5858 163.618C45.4264 163.285 42.2722 162.914 39.1234 162.506L39.365 162.385C38.0623 165.059 36.9014 167.799 35.8871 170.594C34.8793 173.395 33.9513 176.225 33.1305 179.088C32.3453 181.959 31.6012 184.846 30.9981 187.765C30.3698 190.68 29.8804 193.622 29.4041 196.574C29.6635 193.598 30.0024 190.621 30.5484 187.678C31.0292 184.722 31.7378 181.808 32.5063 178.914C33.2824 176.019 34.2067 173.166 35.2754 170.366C36.3093 167.548 37.5366 164.805 38.9486 162.156C38.9719 162.114 39.0076 162.08 39.0508 162.058C39.094 162.037 39.1427 162.029 39.1906 162.036C42.3271 162.53 45.4588 163.058 48.5858 163.618Z" fill="#16336E"/>
<path d="M52.7986 175.83C53.2802 178.517 53.9684 181.163 54.8572 183.744C55.6851 186.335 56.8103 188.821 58.2102 191.152C59.6148 193.465 61.3441 195.565 63.3454 197.386C65.3536 199.189 67.5942 200.715 70.0074 201.922C74.8759 204.274 80.3084 205.207 85.6825 204.614C86.3452 204.514 87.0208 204.494 87.6726 204.329L89.6383 203.902L93.5814 202.82C96.2015 202.06 98.8106 201.264 101.401 200.41C106.577 198.691 111.695 196.805 116.753 194.752C121.807 192.693 126.774 190.424 131.707 188.084C136.64 185.741 141.494 183.23 146.295 180.62C151.107 178.029 155.838 175.286 160.526 172.472L160.503 172.487C163.481 170.527 166.793 169.129 170.275 168.364C173.731 167.563 177.282 167.252 180.824 167.44C184.365 167.614 187.868 168.242 191.249 169.31C192.072 169.587 192.912 169.807 193.765 169.97C194.596 170.105 195.446 170.059 196.258 169.835C196.641 169.72 196.993 169.521 197.289 169.252C197.584 168.983 197.816 168.651 197.966 168.28C198.241 167.494 198.336 166.656 198.245 165.828L198.245 165.818C198.244 165.771 198.252 165.725 198.27 165.682C198.287 165.639 198.313 165.6 198.346 165.568C198.913 165 199.428 164.385 199.887 163.727C200.354 163.081 200.74 162.38 201.036 161.64C201.335 160.926 201.486 160.158 201.477 159.383C201.431 158.632 201.185 157.906 200.766 157.281C200.708 157.192 200.688 157.083 200.71 156.979C200.732 156.875 200.794 156.783 200.883 156.725L200.921 156.704C201.939 156.187 202.882 155.534 203.724 154.762C204.565 154.039 205.195 153.103 205.548 152.051C205.616 151.797 205.662 151.536 205.687 151.274C205.675 151.002 205.701 150.772 205.663 150.458C205.607 149.864 205.572 149.268 205.543 148.67C205.471 147.452 205.513 146.23 205.67 145.019C205.681 144.942 205.716 144.87 205.768 144.812L205.8 144.777C207.846 142.595 209.346 139.96 210.176 137.087C210.564 135.684 210.609 134.209 210.308 132.785C210.258 132.43 210.16 132.083 210.017 131.754C209.899 131.417 209.762 131.086 209.608 130.764C209.292 130.143 208.893 129.568 208.421 129.055C207.942 128.609 207.348 128.304 206.706 128.176C206.064 128.047 205.399 128.099 204.785 128.326C204.176 128.559 203.644 128.959 203.251 129.479C202.823 130.078 202.434 130.702 202.085 131.35C201.361 132.681 200.705 134.048 200.12 135.446C199.475 137.035 198.26 138.326 196.713 139.067C195.173 139.724 193.479 139.929 191.828 139.659C190.203 139.456 188.639 138.918 187.235 138.077C184.42 136.363 182.381 133.621 181.55 130.431C181.446 130.038 181.383 129.634 181.299 129.236L181.164 128.021L181.005 125.744C180.879 124.229 180.714 122.719 180.47 121.232C180.257 119.766 179.893 118.325 179.383 116.934C179.169 116.317 178.821 115.754 178.364 115.288C178.19 115.125 177.963 115.03 177.726 115.019C177.488 115.008 177.254 115.082 177.066 115.228L176.85 115.31C176.722 115.357 176.598 115.416 176.481 115.486C176.328 115.575 176.181 115.674 176.041 115.783C175.75 116.024 175.48 116.29 175.234 116.578C174.732 117.195 174.299 117.866 173.945 118.579C173.23 120.067 172.694 121.635 172.35 123.25C171.979 124.885 171.703 126.54 171.523 128.207C171.357 129.078 171.245 129.964 171.026 130.822L170.621 132.09C170.503 132.518 170.344 132.933 170.148 133.33C168.678 136.536 166.493 139.362 163.76 141.59C161.091 143.829 158.096 145.648 154.878 146.983C154.861 146.989 154.845 146.995 154.828 147C146.355 149.261 137.828 151.267 129.212 152.881C124.904 153.675 120.57 154.371 116.197 154.743C114.01 154.945 111.813 155.015 109.617 154.952C109.068 154.936 108.519 154.903 107.972 154.835C107.423 154.785 106.878 154.703 106.339 154.589C105.234 154.425 104.196 153.958 103.341 153.239C103.328 153.226 103.32 153.209 103.32 153.19C103.32 153.171 103.328 153.154 103.341 153.14C103.354 153.128 103.372 153.121 103.391 153.121C103.41 153.121 103.427 153.128 103.441 153.141C104.29 153.812 105.308 154.236 106.383 154.366C106.917 154.465 107.456 154.531 107.998 154.566C108.538 154.619 109.082 154.638 109.627 154.639C111.806 154.643 113.985 154.516 116.149 154.259C120.483 153.753 124.787 152.998 129.072 152.153C137.634 150.424 146.125 148.299 154.526 145.929L154.477 145.945C157.551 144.614 160.405 142.823 162.942 140.636C165.489 138.504 167.513 135.816 168.859 132.78C169.041 132.413 169.187 132.029 169.293 131.634L169.665 130.465C169.864 129.673 169.961 128.858 170.117 128.057C170.299 126.331 170.581 124.618 170.962 122.926C171.327 121.2 171.897 119.525 172.659 117.935C173.063 117.118 173.557 116.35 174.133 115.644C174.439 115.282 174.778 114.948 175.144 114.646C175.561 114.302 176.043 114.045 176.56 113.889L176.344 113.97C176.793 113.703 177.306 113.565 177.828 113.57C178.377 113.6 178.899 113.815 179.309 114.181C179.95 114.794 180.438 115.549 180.737 116.384C181.292 117.874 181.69 119.418 181.922 120.991C182.179 122.533 182.351 124.076 182.483 125.62C182.549 126.391 182.604 127.163 182.649 127.935L182.762 129.008C182.837 129.36 182.888 129.718 182.978 130.066C183.697 132.892 185.485 135.329 187.965 136.864C189.199 137.612 190.575 138.096 192.006 138.283C193.401 138.528 194.836 138.372 196.145 137.833C197.4 137.238 198.386 136.192 198.906 134.903C199.515 133.473 200.198 132.075 200.949 130.714C201.333 130.013 201.762 129.337 202.233 128.691C202.637 128.163 203.149 127.725 203.734 127.408C204.32 127.091 204.966 126.902 205.63 126.852C206.293 126.803 206.96 126.894 207.586 127.12C208.212 127.347 208.783 127.703 209.262 128.166C210.344 129.405 211.093 130.899 211.439 132.508C211.786 134.116 211.717 135.786 211.24 137.361C210.326 140.401 208.699 143.178 206.493 145.461L206.623 145.218C206.469 146.351 206.417 147.495 206.469 148.637C206.488 149.219 206.515 149.802 206.562 150.385C206.582 150.702 206.586 151.021 206.574 151.338C206.541 151.663 206.48 151.984 206.391 152.297C205.98 153.495 205.252 154.558 204.285 155.374C203.373 156.189 202.352 156.875 201.253 157.411L201.408 156.834C201.903 157.587 202.185 158.459 202.224 159.359C202.225 160.236 202.045 161.103 201.696 161.907C201.369 162.693 200.946 163.436 200.439 164.119C199.945 164.805 199.391 165.447 198.784 166.035L198.884 165.776C198.971 166.705 198.847 167.643 198.52 168.517C198.33 168.962 198.044 169.36 197.683 169.68C197.321 170.001 196.893 170.238 196.428 170.373C195.534 170.611 194.599 170.651 193.688 170.491C192.812 170.318 191.948 170.087 191.103 169.8C187.765 168.725 184.302 168.085 180.8 167.894C177.301 167.676 173.789 167.981 170.38 168.8C166.971 169.575 163.731 170.966 160.821 172.904L160.805 172.915L160.799 172.919C151.461 178.629 141.993 184.158 132.169 189.028C122.373 193.976 112.212 198.166 101.776 201.562C99.1649 202.403 96.5355 203.186 93.8959 203.932L89.9188 204.994L87.8723 205.425C87.1938 205.59 86.4912 205.609 85.8019 205.708C83.0283 206.019 80.2238 205.913 77.4813 205.396C74.7474 204.868 72.0979 203.971 69.6052 202.73C64.6346 200.195 60.4989 196.283 57.6927 191.46C56.3401 189.058 55.2702 186.507 54.5043 183.859C53.6843 181.241 53.0676 178.563 52.6599 175.849C52.6573 175.831 52.662 175.812 52.6731 175.797C52.6843 175.782 52.7008 175.773 52.7192 175.77C52.7377 175.768 52.7561 175.773 52.7709 175.784C52.7856 175.796 52.7955 175.812 52.7986 175.83Z" fill="#16336E"/>
<path d="M199.069 148.903C200.363 148.507 201.616 147.987 202.809 147.348C203.991 146.757 205.035 145.923 205.873 144.901L205.88 144.892C205.907 144.855 205.942 144.824 205.982 144.801C206.021 144.777 206.065 144.762 206.111 144.755C206.157 144.749 206.203 144.752 206.248 144.763C206.292 144.775 206.334 144.795 206.371 144.822C206.408 144.85 206.439 144.885 206.462 144.925C206.486 144.964 206.501 145.008 206.507 145.054C206.514 145.099 206.511 145.146 206.5 145.19C206.488 145.235 206.468 145.277 206.44 145.314L206.421 145.338C205.446 146.349 204.268 147.142 202.963 147.663C201.708 148.202 200.404 148.617 199.069 148.903Z" fill="#16336E"/>
<path d="M154.205 132.267C154.564 133.298 154.975 134.296 155.398 135.281C155.826 136.26 156.305 137.215 156.834 138.142C157.37 139.059 157.977 139.932 158.649 140.753C159.351 141.565 160.134 142.304 160.986 142.957C159.969 142.521 159.04 141.9 158.249 141.125C157.469 140.336 156.79 139.452 156.229 138.494C155.126 136.583 154.436 134.461 154.205 132.267Z" fill="#16336E"/>
<path d="M178.758 105.783C179.438 107.033 180.078 108.293 180.748 109.543L180.338 109.703C179.788 108.403 179.258 107.103 178.758 105.783Z" fill="#16336E"/>
<path d="M196.398 138.473C195.728 138.059 195.146 137.515 194.688 136.873C194.198 136.273 193.738 135.633 193.288 134.993C192.768 134.223 192.278 133.443 191.798 132.653L192.408 132.403C192.828 133.183 193.258 133.963 193.708 134.733C194.088 135.403 194.478 136.073 194.898 136.723C195.295 137.388 195.802 137.98 196.398 138.473Z" fill="#16336E"/>
<path d="M334.488 84.2157C333.935 81.3585 332.876 78.6231 331.361 76.138C330.721 74.9147 329.65 73.9722 328.355 73.4928C327.008 73.1566 325.601 73.1364 324.244 73.4339C322.831 73.6663 321.413 74.0484 319.942 74.325C319.191 74.48 318.429 74.5735 317.663 74.6048C316.822 74.6569 315.983 74.4854 315.23 74.108C314.469 73.7027 313.847 73.0782 313.444 72.3153C313.077 71.6047 312.826 70.8405 312.7 70.0511C312.631 69.6839 312.583 69.2803 312.52 68.9945C312.44 68.6998 312.315 68.419 312.151 68.1615C311.789 67.5777 311.36 67.0386 310.873 66.555L311.226 65.6517C311.223 65.649 311.22 65.647 311.216 65.6457C311.213 65.6444 311.209 65.6439 311.205 65.6442C311.201 65.6445 311.198 65.6455 311.194 65.6473C311.191 65.6491 311.188 65.6516 311.186 65.6546C311.192 65.6546 311.229 65.6295 311.251 65.6199C311.317 65.5841 311.38 65.542 311.438 65.4945C311.583 65.3808 311.722 65.2589 311.853 65.1295C312.129 64.8633 312.398 64.5714 312.661 64.2718C313.186 63.6739 313.693 63.0421 314.178 62.408L314.746 62.9622C314.656 63.013 314.562 63.0548 314.465 63.087L314.268 63.1243C314.135 63.149 314.028 63.1488 313.907 63.1615C313.678 63.1729 313.454 63.1776 313.233 63.1744C312.789 63.1702 312.352 63.1517 311.916 63.1253C311.044 63.0757 310.18 62.9952 309.312 62.9144C309.261 62.9097 309.212 62.8908 309.171 62.86C309.129 62.8291 309.097 62.7874 309.078 62.7396C308.947 62.3872 308.795 62.0425 308.624 61.7073C308.454 61.3914 308.251 61.0228 308.024 60.9337C307.348 60.6751 306.563 60.5057 305.824 60.2989C305.054 60.1118 304.295 59.8802 303.552 59.6053C303.44 59.547 303.342 59.4647 303.265 59.3642C303.189 59.2637 303.136 59.1475 303.109 59.024C303.065 58.8056 303.064 58.5804 303.107 58.3616C303.183 57.962 303.31 57.5736 303.483 57.2054C304.176 55.8015 304.987 54.4587 305.906 53.1912C306.342 52.584 306.685 51.9144 306.921 51.2049C307.156 50.536 307.215 49.818 307.093 49.1197L307.104 49.1529C306.627 47.8925 306.291 46.5828 306.104 45.2481C305.901 43.9314 305.775 42.604 305.726 41.2725C305.62 38.6181 305.684 35.9596 305.917 33.3133C305.93 33.1689 305.991 33.0331 306.091 32.9278C306.19 32.8225 306.322 32.7539 306.466 32.7332C306.609 32.7124 306.756 32.7407 306.881 32.8135C307.006 32.8863 307.103 32.9992 307.156 33.1341L307.168 33.1627C307.944 35.1216 308.866 37.02 309.925 38.8421C310.968 40.6593 312.186 42.3698 313.563 43.9488C314.88 45.5099 316.514 46.7736 318.356 47.6566C320.173 48.4741 322.231 48.5825 324.125 47.9606L323.673 48.5021C323.834 47.6079 324.093 46.7341 324.446 45.8966C324.792 44.9972 325.358 44.199 326.093 43.5751C326.309 43.4246 326.536 43.2907 326.772 43.1744C327.026 43.086 327.288 43.0179 327.553 42.9706C327.817 42.9616 328.081 42.972 328.343 43.0018C328.59 43.0458 328.832 43.1168 329.063 43.2135C329.294 43.2826 329.513 43.3885 329.711 43.5272L330.31 43.8973C330.661 44.1852 330.997 44.4869 331.334 44.7855C331.384 44.8296 331.423 44.8846 331.448 44.9462C331.893 46.0622 332.261 47.2075 332.549 48.3741C332.852 49.5429 333.019 50.7432 333.045 51.9506C333.089 52.574 333.005 53.1999 332.799 53.7897C332.592 54.3796 332.267 54.9209 331.844 55.3805C331.353 55.7482 330.786 56.0009 330.184 56.12C329.583 56.2392 328.962 56.2216 328.369 56.0687C328.359 56.0672 328.351 56.064 328.343 56.0591C328.335 56.0543 328.328 56.0479 328.323 56.0404C328.318 56.0329 328.314 56.0245 328.312 56.0155C328.31 56.0066 328.309 55.9972 328.311 55.9882C328.314 55.9708 328.323 55.9552 328.337 55.9445C328.351 55.9337 328.369 55.9285 328.386 55.9298C328.945 56.0245 329.517 55.9977 330.064 55.8512C330.611 55.7046 331.12 55.4418 331.556 55.0807C331.897 54.644 332.146 54.1433 332.29 53.6083C332.433 53.0733 332.467 52.5149 332.39 51.9664C332.305 50.8208 332.088 49.6888 331.742 48.5934C331.409 47.4893 331 46.4093 330.52 45.361L330.633 45.5214L329.69 44.7694L329.188 44.4838C329.035 44.3773 328.864 44.3002 328.683 44.2565C328.382 44.1162 328.047 44.0656 327.718 44.1108C327.39 44.1559 327.081 44.2948 326.829 44.5109C326.279 45.026 325.865 45.6679 325.621 46.3805C325.335 47.1291 325.13 47.9064 325.01 48.6989C324.992 48.8201 324.941 48.9342 324.863 49.0289C324.785 49.1237 324.683 49.1957 324.567 49.2374L324.558 49.2406C322.35 50.0294 319.924 49.9462 317.775 49.0079C315.718 48.0669 313.897 46.677 312.448 44.9403C311.01 43.2791 309.754 41.4679 308.703 39.538C307.639 37.6313 306.719 35.6474 305.952 33.6032L307.202 33.4525C306.921 36.0401 306.787 38.6415 306.8 41.2443C306.803 42.5418 306.87 43.8384 307.001 45.1293C307.117 46.408 307.379 47.6693 307.781 48.8886L307.791 48.9147L307.793 48.9222C307.875 49.7438 307.789 50.5736 307.54 51.3609C307.292 52.1483 306.885 52.8768 306.346 53.5021C305.418 54.7246 304.601 56.0268 303.903 57.3937C303.741 57.7245 303.62 58.0742 303.544 58.4347C303.472 58.7853 303.514 59.1165 303.761 59.2342C304.472 59.4899 305.198 59.703 305.935 59.8724C306.69 60.0721 307.425 60.2293 308.208 60.4933C308.593 60.7161 308.897 61.0562 309.075 61.464C309.267 61.8134 309.439 62.1735 309.59 62.5426L309.356 62.368C310.215 62.419 311.08 62.4452 311.939 62.454C312.368 62.4583 312.797 62.4547 313.22 62.4373C313.432 62.4298 313.64 62.4144 313.842 62.3944C313.936 62.3792 314.047 62.3721 314.126 62.3511L314.247 62.3233C314.26 62.3131 314.252 62.3131 314.264 62.3201L314.78 62.6326C314.818 62.656 314.846 62.6938 314.856 62.7376C314.867 62.7814 314.86 62.8277 314.837 62.8663L314.831 62.8746C314.363 63.555 313.885 64.2152 313.369 64.8638C313.111 65.1883 312.845 65.5076 312.551 65.8199C312.401 65.983 312.241 66.1373 312.073 66.282C311.977 66.3665 311.874 66.4423 311.765 66.5086C311.606 66.6182 311.419 66.682 311.226 66.6929L311.579 65.7898C312.163 66.3129 312.681 66.904 313.123 67.5506C313.365 67.9064 313.548 68.2982 313.666 68.7115C313.768 69.1405 313.81 69.4673 313.886 69.8196C313.947 70.4594 314.152 71.0771 314.486 71.6264C314.819 72.1758 315.272 72.6425 315.812 72.9918C317.069 73.4595 318.442 73.5175 319.734 73.1575C321.154 72.9197 322.583 72.5628 324.073 72.3455C325.601 72.0329 327.183 72.1108 328.673 72.5721C329.051 72.7107 329.414 72.8871 329.756 73.0987C330.086 73.3255 330.392 73.586 330.669 73.8761C330.941 74.1546 331.186 74.4578 331.402 74.7818C331.629 75.0862 331.819 75.4129 332.014 75.7349C332.763 77.0298 333.347 78.4134 333.752 79.8533C334.179 81.2708 334.472 82.7253 334.626 84.1976C334.627 84.2067 334.627 84.216 334.624 84.2248C334.621 84.2336 334.617 84.2418 334.611 84.2489C334.605 84.256 334.598 84.2618 334.59 84.2661C334.582 84.2705 334.573 84.2731 334.564 84.274C334.546 84.275 334.529 84.2696 334.515 84.2589C334.501 84.2482 334.491 84.2329 334.488 84.2157Z" fill="#16336E"/>
<path d="M362.428 51.4127C361.288 48.1327 353.218 39.1827 350.828 38.1127C350.828 38.1127 350.578 28.0827 346.918 25.5627C346.918 25.5627 355.748 18.1228 345.658 11.8127C345.658 11.8127 336.948 7.78293 336.698 18.7527C336.698 18.7527 316.018 16.4829 306.558 33.3828C306.558 33.3828 312.568 52.0828 324.338 48.6028C324.338 48.6028 325.518 40.2329 330.988 45.1528C330.988 45.1528 335.858 55.0727 329.468 56.6728C328.332 58.7803 328.004 61.2307 328.548 63.5627C329.468 67.4328 327.948 72.8627 327.948 72.8627C327.948 72.8627 324.088 86.6027 335.438 84.2028C346.788 81.8126 364.698 75.6327 367.848 63.1427C367.848 63.1427 363.558 54.6927 362.428 51.4127ZM342.368 20.6427C342.93 20.9876 343.445 21.4045 343.898 21.8827C344.403 22.3486 344.714 22.9878 344.768 23.6727C344.383 23.1944 343.916 22.7882 343.388 22.4727C342.878 22.1426 342.378 21.8126 341.848 21.5025C340.757 20.8689 339.712 20.1606 338.718 19.3826C340.013 19.5299 341.259 19.9601 342.368 20.6427V20.6427ZM349.108 42.8627C348.093 44.5081 346.832 45.9885 345.368 47.2526C343.91 48.4973 342.317 49.5742 340.618 50.4628C338.94 51.3643 337.161 52.0658 335.318 52.5529C337.018 51.7228 338.638 50.7726 340.228 49.7926C341.805 48.8089 343.305 47.7092 344.718 46.5026C346.109 45.2927 347.36 43.931 348.448 42.4428C349.487 40.8952 350.276 39.1946 350.788 37.4028C350.644 39.3256 350.07 41.1914 349.108 42.8626L349.108 42.8627Z" fill="#16336E"/>
<path d="M308.073 48.6419C308.612 47.8262 309.364 47.1731 310.246 46.753C310.692 46.5368 311.168 46.391 311.657 46.3206C312.151 46.2515 312.655 46.3126 313.118 46.4978C312.225 46.6693 311.361 46.9675 310.552 47.3833C309.738 47.7715 308.956 48.2293 308.073 48.6419Z" fill="#16336E"/>
<path d="M311.226 52.3412C311.499 52.3317 311.757 52.2169 311.946 52.0208C312.135 51.8247 312.241 51.5628 312.241 51.2902C312.241 51.0176 312.135 50.7557 311.946 50.5596C311.757 50.3635 311.499 50.2487 311.226 50.2393C310.954 50.2487 310.696 50.3635 310.506 50.5596C310.317 50.7557 310.211 51.0176 310.211 51.2902C310.211 51.5628 310.317 51.8247 310.506 52.0208C310.696 52.2169 310.954 52.3317 311.226 52.3412Z" fill="#16336E"/>
<path d="M367.852 63.1104C372.678 63.4246 377.421 64.5181 381.898 66.3483C386.399 68.1202 390.671 70.4262 394.622 73.2168C402.447 78.9233 409.067 86.1197 414.102 94.3925L415.972 97.4851L417.71 100.653C418.317 101.695 418.825 102.787 419.362 103.865C419.878 104.954 420.467 106.009 420.922 107.124C421.888 109.331 422.872 111.532 423.693 113.799C424.599 116.034 425.345 118.326 426.107 120.613C426.508 121.75 426.841 122.908 427.169 124.068L428.17 127.543C428.776 129.878 429.317 132.233 429.872 134.581L432.151 148.845C432.166 148.937 432.145 149.031 432.092 149.108C432.04 149.185 431.96 149.239 431.869 149.259L421.588 151.515L411.291 153.701L400.995 155.887L390.685 158.017C390.676 158.019 390.667 158.017 390.659 158.012C390.652 158.007 390.646 157.999 390.644 157.99C390.642 157.981 390.644 157.972 390.649 157.964C390.654 157.956 390.661 157.951 390.67 157.948L400.917 155.538L411.177 153.184L421.437 150.831L431.712 148.546L431.43 148.959L429.206 134.705C428.673 132.368 428.145 130.029 427.571 127.7L426.628 124.224C426.32 123.063 426.006 121.904 425.624 120.765C422.918 111.529 418.961 102.707 413.862 94.5449C411.261 90.5079 408.315 86.7033 405.059 83.1735C401.791 79.664 398.179 76.4914 394.277 73.7036C390.393 70.8866 386.186 68.5463 381.744 66.7328C379.522 65.8306 377.245 65.0698 374.926 64.455C372.613 63.8106 370.244 63.3839 367.85 63.1803C367.841 63.1804 367.832 63.1767 367.826 63.1702C367.819 63.1636 367.815 63.1547 367.815 63.1454C367.816 63.136 367.82 63.1271 367.827 63.1206C367.833 63.1141 367.842 63.1105 367.852 63.1104Z" fill="#16336E"/>
<path d="M428.024 149.734C428.638 151.25 429.129 152.813 429.491 154.408C429.885 155.996 430.147 157.613 430.277 159.244C429.662 157.728 429.171 156.165 428.81 154.57C428.418 152.982 428.156 151.365 428.024 149.734Z" fill="#16336E"/>
<path d="M364.951 91.899C365.824 89.9178 366.911 88.0378 368.193 86.2925C369.47 84.5291 370.942 82.9158 372.582 81.4835C374.243 80.0519 376.141 78.9206 378.19 78.1402C379.225 77.7851 380.294 77.5402 381.38 77.4097C382.462 77.3171 383.551 77.3549 384.624 77.522C382.488 77.4474 380.36 77.8296 378.383 78.6431C376.431 79.4736 374.625 80.6125 373.035 82.0164C371.414 83.3994 369.934 84.9409 368.619 86.618C367.278 88.293 366.052 90.0575 364.951 91.899Z" fill="#16336E"/>
<path d="M402.532 87.3594C403.737 88.2597 404.824 89.3064 405.77 90.4754C406.732 91.6405 407.563 92.9077 408.248 94.2541C408.944 95.5997 409.459 97.0316 409.779 98.5124C410.11 99.983 410.218 101.495 410.099 102.998C409.961 102.256 409.961 101.513 409.769 100.793L409.56 99.7077L409.257 98.6462C408.843 97.239 408.296 95.8744 407.623 94.571C406.956 93.2612 406.194 92.0015 405.344 90.802C404.483 89.5945 403.544 88.4445 402.532 87.3594Z" fill="#16336E"/>
<path d="M362.996 99.4959C361.96 102.032 360.904 104.559 359.806 107.066C358.699 109.569 357.64 112.095 356.49 114.578L353.096 122.053C351.948 124.537 350.777 127.01 349.559 129.462L349.379 128.78L358.11 135.321C361.027 137.492 364 139.583 366.984 141.659C369.96 143.748 372.986 145.765 375.996 147.805C379.017 149.829 382.004 151.901 384.996 153.966L384.152 154.055C386.796 150.997 389.276 147.8 391.582 144.478C393.899 141.164 396.111 137.773 398.097 134.253C400.093 130.739 401.832 127.086 403.301 123.321C404.726 119.528 405.714 115.585 406.246 111.569C406.247 111.56 406.249 111.551 406.254 111.543C406.258 111.534 406.264 111.527 406.271 111.521C406.278 111.515 406.286 111.511 406.295 111.508C406.304 111.505 406.313 111.504 406.322 111.505C406.34 111.507 406.356 111.516 406.368 111.529C406.379 111.543 406.386 111.56 406.386 111.577C406.2 115.676 405.461 119.731 404.189 123.632C402.867 127.519 401.234 131.293 399.307 134.918C397.358 138.525 395.184 142.007 392.798 145.341C390.413 148.677 387.842 151.876 385.097 154.924C384.992 155.039 384.847 155.112 384.692 155.129C384.536 155.145 384.38 155.104 384.252 155.013C381.317 152.868 378.377 150.73 375.471 148.544C372.553 146.374 369.652 144.181 366.7 142.059C363.757 139.926 360.803 137.807 357.793 135.768L348.742 129.678C348.638 129.608 348.562 129.504 348.527 129.385C348.492 129.265 348.5 129.136 348.55 129.022L348.561 128.996C349.656 126.488 350.797 124.001 351.961 121.524L355.503 114.117C356.666 111.64 357.918 109.205 359.123 106.748C360.337 104.294 361.594 101.861 362.869 99.4369C362.878 99.4209 362.892 99.4089 362.909 99.4031C362.926 99.3973 362.945 99.3983 362.961 99.4059C362.977 99.4135 362.99 99.4271 362.997 99.4439C363.003 99.4606 363.003 99.4793 362.996 99.4959V99.4959Z" fill="#16336E"/>
<path d="M320.858 73.5574C319.891 79.0576 318.86 84.546 317.767 90.0225C316.665 95.4966 315.547 100.968 314.274 106.409C313.631 109.125 312.948 111.846 312.101 114.512L309.538 122.488C308.67 125.136 307.979 127.84 307.47 130.581C307.22 131.947 307.092 133.332 307.088 134.721C307.104 136.096 307.369 137.456 307.87 138.737L307.518 138.741C308.83 135.957 310.671 133.455 312.938 131.374C315.186 129.266 317.805 127.593 320.662 126.439C321.372 126.146 322.117 125.945 322.843 125.694C323.21 125.583 323.569 125.437 323.944 125.354L325.073 125.122C325.828 124.985 326.574 124.776 327.337 124.698L329.631 124.497C330.395 124.421 331.163 124.408 331.929 124.456L334.227 124.52C335.75 124.666 337.264 124.906 338.782 125.095L338.37 125.521C337.313 120.521 336.487 115.484 335.761 110.43C334.972 105.384 334.558 100.286 334.522 95.1787C334.522 95.1741 334.523 95.1696 334.525 95.1653C334.527 95.1611 334.529 95.1573 334.533 95.154C334.536 95.1508 334.54 95.1483 334.544 95.1466C334.548 95.1449 334.553 95.144 334.557 95.1441C334.567 95.1443 334.575 95.148 334.582 95.1544C334.588 95.1609 334.592 95.1696 334.592 95.1787C334.647 97.7273 334.902 100.264 335.188 102.793C335.465 105.324 335.838 107.844 336.235 110.359C336.634 112.875 337.085 115.382 337.562 117.884C338.048 120.383 338.543 122.883 339.067 125.371C339.077 125.417 339.078 125.464 339.069 125.51C339.06 125.556 339.043 125.6 339.017 125.639C338.991 125.679 338.958 125.713 338.92 125.739C338.881 125.766 338.837 125.784 338.791 125.794C338.754 125.802 338.715 125.804 338.676 125.799L338.655 125.797C337.162 125.617 335.672 125.385 334.176 125.246L331.923 125.192C331.173 125.146 330.421 125.161 329.675 125.238L327.432 125.421C326.686 125.491 325.959 125.689 325.221 125.817L324.117 126.033C323.751 126.11 323.401 126.25 323.042 126.355C322.333 126.594 321.604 126.783 320.911 127.063C318.119 128.174 315.546 129.771 313.311 131.779C311.056 133.775 309.209 136.189 307.872 138.887L307.864 138.903C307.848 138.936 307.823 138.964 307.792 138.982C307.761 139.001 307.725 139.011 307.688 139.009C307.651 139.008 307.616 138.996 307.586 138.975C307.556 138.954 307.533 138.925 307.519 138.891C307.024 137.558 306.776 136.145 306.787 134.723C306.823 133.319 306.97 131.92 307.227 130.539C307.773 127.796 308.467 125.084 309.306 122.416C310.119 119.744 310.967 117.083 311.727 114.401C312.509 111.724 313.113 109.008 313.708 106.28L320.789 73.5439C320.791 73.5348 320.797 73.5268 320.804 73.5216C320.812 73.5164 320.821 73.5145 320.831 73.5163C320.84 73.5181 320.848 73.5234 320.853 73.5311C320.858 73.5388 320.86 73.5482 320.858 73.5574H320.858Z" fill="#16336E"/>
<path d="M308.72 136.89C308.97 137.976 309.272 139.037 309.589 140.086C309.901 141.129 310.289 142.148 310.748 143.135C311.181 144.12 311.749 145.039 312.436 145.867C313.14 146.697 314.019 147.36 315.01 147.81C313.884 147.598 312.848 147.052 312.038 146.241C311.229 145.431 310.577 144.478 310.114 143.431C309.64 142.406 309.287 141.329 309.062 140.223C308.822 139.128 308.707 138.01 308.72 136.89Z" fill="#16336E"/>
<path d="M338.719 125.445C340.214 126.158 341.651 126.989 343.014 127.93C344.395 128.845 345.7 129.87 346.916 130.994C345.42 130.283 343.984 129.452 342.621 128.51C341.241 127.593 339.936 126.569 338.719 125.445Z" fill="#16336E"/>
<path d="M259.099 168.997C259.584 168.491 260.145 168.063 260.76 167.728C261.391 167.352 262.138 167.221 262.859 167.36C263.582 167.586 264.187 168.088 264.544 168.757C264.714 169.077 264.867 169.41 265.006 169.744L265.327 170.774C265.355 170.863 265.346 170.959 265.303 171.041C265.26 171.124 265.186 171.186 265.097 171.213C265.008 171.241 264.912 171.232 264.829 171.189C264.747 171.146 264.685 171.072 264.657 170.983L264.65 170.955L264.642 170.918L264.424 169.936C264.322 169.622 264.209 169.309 264.081 169.006C263.83 168.414 263.356 167.943 262.761 167.696C262.118 167.523 261.433 167.59 260.836 167.886C260.203 168.165 259.617 168.539 259.099 168.997Z" fill="#16336E"/>
<path d="M251.084 169.964C252.179 168.579 253.197 167.134 254.134 165.638C254.605 164.89 255.034 164.117 255.42 163.322C255.832 162.538 256.11 161.689 256.241 160.812C256.166 161.703 255.943 162.575 255.581 163.392C255.244 164.219 254.863 165.027 254.438 165.812C253.591 167.386 252.658 168.912 251.645 170.384C251.619 170.422 251.585 170.455 251.547 170.48C251.508 170.505 251.465 170.522 251.42 170.531C251.374 170.539 251.328 170.539 251.283 170.529C251.238 170.52 251.195 170.501 251.157 170.475C251.119 170.449 251.087 170.416 251.062 170.378C251.036 170.339 251.019 170.296 251.011 170.251C251.002 170.205 251.003 170.159 251.012 170.114C251.022 170.069 251.04 170.026 251.066 169.988L251.079 169.97L251.084 169.964Z" fill="#16336E"/>
<path d="M249.558 167.261L256.241 156.043L250.169 167.604C250.126 167.686 250.052 167.747 249.963 167.775C249.875 167.802 249.779 167.793 249.697 167.75C249.614 167.707 249.553 167.633 249.525 167.545C249.497 167.456 249.506 167.36 249.549 167.278L249.558 167.261Z" fill="#16336E"/>
<path d="M252.83 157.791L257.249 151.677L253.417 158.174C253.393 158.214 253.362 158.249 253.326 158.277C253.289 158.305 253.247 158.325 253.202 158.337C253.158 158.348 253.111 158.351 253.065 158.345C253.02 158.338 252.976 158.323 252.936 158.299C252.896 158.276 252.861 158.245 252.834 158.208C252.806 158.171 252.786 158.129 252.774 158.084C252.763 158.039 252.76 157.993 252.767 157.947C252.773 157.902 252.789 157.858 252.813 157.818L252.83 157.791Z" fill="#16336E"/>
<path d="M54.9833 184.643C46.1422 189.253 37.2412 193.74 28.369 198.286L15.0175 205.016L1.65636 211.727L1.15352 209.553L16.1083 209.367L31.0632 209.251L60.973 209.09C80.9129 209.005 100.853 209.028 120.793 209.311L150.704 209.649L165.659 209.822L180.614 209.921C200.554 210.013 220.494 209.882 240.434 209.742L300.253 209.039L330.162 208.777L360.072 208.614C399.952 208.326 439.832 208.32 479.712 208.595L478.906 211.573L455.243 197.46C447.345 192.773 439.495 188.004 431.627 183.267L408.046 169.013L384.536 154.64C384.497 154.616 384.468 154.578 384.457 154.533C384.446 154.489 384.453 154.442 384.476 154.402C384.499 154.362 384.537 154.334 384.581 154.322C384.626 154.31 384.673 154.315 384.713 154.338L408.747 167.817L432.711 181.416C440.691 185.962 448.69 190.477 456.64 195.075L480.522 208.814C480.825 208.989 481.062 209.258 481.198 209.581C481.333 209.903 481.358 210.262 481.27 210.6C481.181 210.938 480.984 211.238 480.708 211.454C480.433 211.669 480.094 211.788 479.744 211.792H479.716C439.836 212.17 399.956 212.248 360.076 212.026L330.166 211.925L300.256 211.727L240.435 211.15C220.495 211.052 200.555 210.963 180.615 211.096L165.66 211.228L150.705 211.431L120.796 211.833C100.856 212.158 80.9163 212.222 60.9763 212.18L31.0662 212.082L16.1111 211.998L1.15598 211.843L1.1295 211.842C0.871306 211.84 0.621644 211.75 0.421301 211.587C0.220957 211.424 0.0817748 211.198 0.0264794 210.946C-0.028816 210.693 0.00304517 210.43 0.116865 210.198C0.230685 209.966 0.419732 209.78 0.653127 209.669L14.1679 203.274L27.6924 196.898C36.7374 192.707 45.7537 188.456 54.8298 184.328C54.8714 184.309 54.9187 184.308 54.9617 184.323C55.0047 184.338 55.04 184.37 55.06 184.411C55.08 184.452 55.0832 184.499 55.0689 184.543C55.0546 184.586 55.0239 184.622 54.9834 184.643L54.9833 184.643Z" fill="#16336E"/>
<path d="M1.1543 221.544L60.9743 221.033L120.794 220.739L240.434 220.495L360.074 220.736L419.894 221.03L479.714 221.544L419.894 222.058L360.074 222.353L240.434 222.594L120.794 222.349L60.9743 222.055L1.1543 221.544Z" fill="#16336E"/>
<path d="M349.673 129.664C346.109 135.247 341.739 140.274 336.705 144.58C331.713 149.025 325.91 152.465 319.615 154.711C316.446 155.795 313.167 156.529 309.838 156.899C308.174 157.075 306.501 157.164 304.828 157.165L302.339 157.087L299.87 157.095L280.121 157.172C280.023 157.172 279.927 157.152 279.837 157.113C274.506 154.784 269.169 152.458 263.817 150.191C262.492 149.639 261.109 149.04 259.83 148.569L259.615 148.494C259.582 148.498 259.599 148.515 259.588 148.5C259.484 148.522 259.383 148.557 259.288 148.605C259.01 148.74 258.75 148.908 258.512 149.104C257.981 149.528 257.497 150.007 257.067 150.533C255.266 152.663 254.137 155.279 253.821 158.051C253.809 158.162 253.771 158.27 253.711 158.365C253.106 159.308 252.509 160.255 251.951 161.217C251.394 162.155 250.913 163.136 250.511 164.15C250.332 164.618 250.209 165.107 250.146 165.605C250.116 166.053 250.197 166.502 250.383 166.912C250.977 167.884 251.521 168.886 252.014 169.913C252.069 170.056 252.078 170.212 252.039 170.36L252.038 170.366C251.881 171.002 251.812 171.656 251.835 172.311C251.846 172.938 251.992 173.556 252.262 174.122C252.522 174.656 252.952 175.088 253.483 175.352C254.048 175.638 254.664 175.812 255.295 175.866L255.156 175.867C256.088 175.74 257.01 175.541 257.911 175.272C258.816 175.012 259.694 174.669 260.536 174.249C261.357 173.84 262.121 173.323 262.808 172.714C263.451 172.108 263.97 171.383 264.337 170.578C264.396 170.447 264.493 170.337 264.617 170.263C264.74 170.188 264.883 170.153 265.026 170.162C265.17 170.171 265.307 170.223 265.42 170.312C265.533 170.401 265.617 170.522 265.659 170.66L265.664 170.676C266.093 172.056 266.822 173.324 267.797 174.39C268.777 175.458 269.992 176.283 271.346 176.799C272.738 177.266 274.202 177.48 275.669 177.432C276.409 177.415 277.152 177.286 277.894 177.221L280.099 176.729L280.125 176.723C280.248 176.696 280.376 176.7 280.497 176.736C284.919 178.01 289.411 179.026 293.951 179.778C298.495 180.556 303.076 181.103 307.675 181.419C316.868 182.098 326.109 181.644 335.191 180.067C339.707 179.22 344.149 178.013 348.473 176.459L351.68 175.212L354.812 173.789C355.88 173.365 356.871 172.784 357.9 172.275C358.933 171.775 359.94 171.221 360.916 170.617C364.899 168.301 368.609 165.546 371.977 162.403L374.471 160.001C375.254 159.155 376.01 158.281 376.782 157.42L377.934 156.123L378.983 154.741L381.085 151.975L379.095 154.825L378.099 156.253L376.997 157.599C376.258 158.494 375.533 159.403 374.779 160.287L372.366 162.806C369.084 166.125 365.44 169.066 361.503 171.572C357.583 174.134 353.37 176.217 348.954 177.775C344.556 179.356 340.039 180.584 335.445 181.445C326.248 183.043 316.889 183.504 307.58 182.817C302.933 182.498 298.306 181.945 293.716 181.16C289.113 180.397 284.558 179.366 280.076 178.072L280.473 178.079L278.125 178.603C277.32 178.678 276.522 178.813 275.71 178.832C274.063 178.886 272.419 178.642 270.858 178.113C269.295 177.518 267.892 176.566 266.761 175.333C265.627 174.098 264.787 172.622 264.305 171.016L265.632 171.114C265.188 172.105 264.552 172.998 263.761 173.741C262.978 174.44 262.106 175.031 261.168 175.5C260.251 175.958 259.293 176.332 258.308 176.615C257.327 176.909 256.323 177.124 255.307 177.26L255.293 177.262C255.251 177.267 255.209 177.267 255.168 177.261C254.346 177.191 253.546 176.961 252.812 176.582C252.034 176.183 251.405 175.545 251.016 174.762C250.652 174.014 250.453 173.196 250.435 172.364C250.405 171.562 250.491 170.759 250.69 169.981L250.714 170.434C250.34 169.442 249.693 168.668 249.105 167.487C248.824 166.863 248.702 166.178 248.749 165.495C248.821 164.87 248.971 164.257 249.195 163.669C249.624 162.579 250.139 161.526 250.736 160.519C251.313 159.525 251.921 158.56 252.536 157.601L252.426 157.914C252.769 154.86 254.011 151.977 255.995 149.63C256.487 149.029 257.042 148.483 257.65 147.999C257.975 147.734 258.331 147.509 258.71 147.329C258.942 147.217 259.189 147.142 259.444 147.106C259.616 147.098 259.789 147.108 259.96 147.136L260.262 147.236C261.714 147.769 263 148.335 264.362 148.9C269.729 151.173 275.063 153.498 280.399 155.829L280.115 155.771L299.906 155.694L302.38 155.686L304.831 155.763C306.453 155.762 308.073 155.676 309.686 155.507C312.913 155.152 316.089 154.437 319.157 153.375C325.329 151.229 331.084 148.035 336.17 143.933C338.738 141.889 341.158 139.667 343.412 137.282C345.69 134.906 347.783 132.359 349.673 129.664Z" fill="#16336E"/>
<path d="M180.351 109.736C179.658 110.089 178.96 110.431 178.252 110.747L178.362 110.49C178.812 111.457 179.225 112.439 179.633 113.422C180.054 114.401 180.437 115.394 180.781 116.403C181.133 117.409 181.456 118.426 181.825 119.425C182.196 120.424 182.608 121.406 183.031 122.383C184.788 126.268 186.46 130.186 187.876 134.206L187.502 134.045C188.917 133.536 190.343 133.058 191.785 132.62C191.794 132.618 191.803 132.618 191.811 132.622C191.819 132.626 191.825 132.633 191.828 132.641C191.832 132.649 191.832 132.658 191.828 132.667C191.825 132.675 191.819 132.682 191.811 132.685C190.46 133.354 189.095 133.986 187.715 134.581C187.647 134.61 187.571 134.612 187.502 134.585C187.434 134.558 187.379 134.505 187.349 134.438L187.34 134.419C185.614 130.522 184.142 126.524 182.756 122.492C182.393 121.491 182.019 120.494 181.604 119.513C181.187 118.533 180.725 117.571 180.29 116.598C179.847 115.628 179.444 114.643 179.081 113.641C178.703 112.646 178.33 111.648 177.995 110.636L177.988 110.618C177.973 110.571 177.976 110.519 177.998 110.475C178.02 110.43 178.058 110.396 178.105 110.379C178.837 110.121 179.579 109.891 180.325 109.67C180.334 109.668 180.343 109.669 180.351 109.672C180.359 109.676 180.365 109.683 180.368 109.691C180.371 109.699 180.371 109.708 180.368 109.717C180.365 109.725 180.359 109.732 180.351 109.736V109.736Z" fill="#16336E"/>
<path d="M192.396 132.37C194.378 131.53 196.349 130.661 198.341 129.844L204.312 127.383C208.3 125.76 212.293 124.15 216.319 122.623L216.168 122.972L213.909 116.998L211.604 111.042C210.032 107.086 208.402 103.152 206.777 99.2168L207.072 99.344C202.989 101.034 198.898 102.703 194.799 104.35L194.784 104.356C194.722 104.381 194.653 104.384 194.589 104.366C194.331 104.31 194.091 104.192 193.888 104.022C193.683 103.839 193.535 103.601 193.461 103.336C193.399 103.096 193.38 102.847 193.403 102.601C193.422 102.365 193.469 102.132 193.544 101.907C193.555 101.875 193.57 101.845 193.591 101.818L193.598 101.809C193.992 101.308 194.211 100.692 194.22 100.054C194.218 99.7461 194.152 99.4414 194.027 99.1595C193.901 98.8776 193.72 98.6244 193.492 98.4158C192.987 98.0067 192.379 97.7451 191.735 97.6598C191.091 97.5744 190.435 97.6687 189.841 97.9322C189.225 98.1488 188.679 98.5286 188.262 99.0312C187.845 99.5338 187.572 100.14 187.473 100.786C187.446 101.101 187.483 101.419 187.583 101.72C187.683 102.02 187.843 102.297 188.054 102.534C188.503 103.015 189.101 103.332 189.752 103.432L189.765 103.434C189.787 103.438 189.808 103.446 189.827 103.457C190.238 103.672 190.58 103.999 190.812 104.4C190.929 104.625 190.978 104.878 190.953 105.13C190.921 105.372 190.831 105.603 190.69 105.802C190.668 105.84 190.633 105.869 190.592 105.885L190.584 105.888C187.321 107.145 184.047 108.374 180.761 109.575C180.753 109.578 180.744 109.577 180.736 109.574C180.727 109.57 180.721 109.563 180.718 109.555C180.715 109.547 180.715 109.537 180.718 109.529C180.721 109.521 180.727 109.514 180.736 109.51C183.948 108.126 187.174 106.776 190.413 105.458L190.307 105.543C190.404 105.413 190.462 105.259 190.474 105.097C190.486 104.936 190.451 104.775 190.374 104.632C190.181 104.331 189.91 104.088 189.59 103.929L189.665 103.953C188.889 103.851 188.17 103.49 187.623 102.93C187.35 102.638 187.139 102.294 187.003 101.918C186.867 101.542 186.809 101.143 186.832 100.744C186.917 99.9654 187.22 99.2266 187.706 98.6125C188.192 97.9984 188.841 97.5338 189.579 97.2722C190.298 96.9546 191.092 96.8434 191.871 96.951C192.649 97.0587 193.383 97.381 193.989 97.8818C194.29 98.1572 194.531 98.4914 194.698 98.8636C194.865 99.2358 194.954 99.6383 194.959 100.046C194.959 100.85 194.684 101.63 194.179 102.256L194.233 102.159C194.119 102.475 194.092 102.816 194.155 103.145C194.192 103.282 194.268 103.405 194.373 103.5C194.478 103.594 194.608 103.657 194.748 103.679L194.539 103.695C198.651 102.079 202.773 100.488 206.905 98.9214L206.911 98.9192C206.966 98.898 207.028 98.8998 207.082 98.9241C207.136 98.9484 207.179 98.9933 207.2 99.0488C208.718 103.027 210.231 107.007 211.803 110.963L214.213 116.877L216.669 122.773C216.696 122.838 216.696 122.911 216.669 122.976C216.642 123.041 216.591 123.093 216.526 123.12L216.526 123.12L216.518 123.123C212.54 124.772 208.53 126.339 204.514 127.892L198.481 130.196C196.471 130.967 194.441 131.687 192.421 132.435C192.413 132.438 192.403 132.438 192.395 132.434C192.387 132.431 192.38 132.424 192.377 132.415C192.373 132.407 192.373 132.397 192.377 132.389C192.38 132.38 192.387 132.374 192.396 132.37L192.396 132.37Z" fill="#16336E"/>
<path d="M439.862 187.241L399.821 163.279L433.556 157.982C433.556 157.982 441.88 168.072 439.862 187.241Z" fill="#16336E"/>
<line x1="447" y1="529.5" x2="483" y2="529.5" stroke="white"/>
</svg>
