<svg width="367" height="565" viewBox="0 0 367 565" fill="none" xmlns="http://www.w3.org/2000/svg">
<path d="M193.671 172.535L219.731 183.435C218.381 183.805 217.051 184.225 215.711 184.615L211.741 185.895C209.091 186.745 206.461 187.675 203.841 188.605C201.221 189.555 198.601 190.505 196.011 191.535C193.461 192.535 190.901 193.555 188.391 194.665C186.991 185.685 184.891 176.095 182.141 173.865L193.671 172.535Z" fill="#333"/>
<path d="M219.731 183.436V201.956C214.911 204.196 204.111 207.736 190.481 211.796C190.481 211.796 189.771 203.536 188.391 194.686C191.041 193.946 193.671 193.116 196.271 192.256C198.921 191.406 201.551 190.476 204.171 189.546C206.791 188.596 209.411 187.646 212.001 186.616L215.881 185.076C217.161 184.526 218.461 184.016 219.731 183.436Z" fill="#333"/>
<path d="M32.7211 193.225C33.7108 192.925 34.6811 192.595 35.641 192.205L34.3109 197.485C33.0173 196.21 31.6446 195.018 30.201 193.915C31.0409 193.705 31.891 193.485 32.7211 193.225Z" fill="#333"/>
<path d="M121.231 213.445C107.321 211.205 69.2708 198.825 62.4208 193.615C57.3808 189.775 51.6107 183.485 50.8607 168.485C49.7611 175.315 48.6312 182.145 47.4711 188.975L47.431 189.215C48.2819 188.735 49.1981 188.382 50.1508 188.165C51.2214 187.892 52.3308 187.804 53.431 187.905C52.4931 188.489 51.4611 188.905 50.3808 189.135C49.4075 189.38 48.4026 189.475 47.4008 189.415L44.6708 205.265C47.161 206.955 49.6308 208.655 52.0707 210.405L55.911 213.145L59.7211 215.935C62.2611 217.795 64.8109 219.635 67.3109 221.555C69.8109 223.465 72.3407 225.325 74.8207 227.275L74.8309 227.285C74.886 227.336 74.9243 227.402 74.9408 227.475C76.8607 226.925 78.8011 226.415 80.7308 225.885L86.9007 224.305C91.0208 223.265 95.1507 222.305 99.2708 221.305C103.421 220.375 107.551 219.405 111.701 218.525C115.851 217.635 120.001 216.765 124.181 216.005C120.101 217.165 115.981 218.225 111.871 219.265C107.761 220.315 103.621 221.265 99.5008 222.275C95.3607 223.195 91.2308 224.165 87.0809 225.055L80.8509 226.365C78.8807 226.745 76.9207 227.145 74.951 227.505C74.951 227.515 74.971 227.525 74.971 227.535C75.3309 231.565 75.6707 235.595 75.9109 239.635C75.2806 235.695 74.7508 231.745 74.241 227.785C71.7107 225.995 69.241 224.135 66.741 222.315C64.1907 220.475 61.6907 218.555 59.181 216.665L55.411 213.815L51.6908 210.915C49.3206 209.085 46.9808 207.205 44.661 205.305L43.8607 209.965C43.8405 210.078 43.7766 210.178 43.6829 210.244C43.5892 210.309 43.4734 210.335 43.3607 210.315C43.3363 210.313 43.3126 210.307 43.2908 210.295L32.451 206.525C32.3417 206.484 32.2511 206.405 32.1959 206.302C32.1407 206.199 32.1247 206.079 32.1507 205.965L34.2708 197.625C32.4188 196.613 30.6411 195.47 28.951 194.205C27.6209 195.165 26.3109 196.135 24.971 197.085C23.511 198.095 22.0706 199.135 20.5906 200.135C21.951 198.985 23.3309 197.865 24.7108 196.735C25.991 195.685 27.2908 194.665 28.5906 193.635C28.6004 193.562 28.6243 193.49 28.6609 193.425C27.8909 190.465 27.2108 187.485 26.5008 184.505C25.7508 181.425 25.0608 178.325 24.3909 175.225C23.6907 172.125 23.0208 169.025 22.4007 165.906C21.7508 162.795 21.1507 159.686 20.5906 156.556C21.451 159.616 22.2708 162.686 23.0306 165.766C23.8309 168.836 24.5706 171.926 25.2908 175.016C26.0306 178.105 26.7508 181.196 27.4109 184.296C28.0608 187.236 28.721 190.176 29.3206 193.126C30.3909 192.876 31.4607 192.646 32.5408 192.456C33.5808 192.276 34.6209 192.135 35.681 192.046L36.8509 187.456L41.6106 168.946L41.6209 168.916V168.906C42.2184 167.288 42.6897 165.626 43.0306 163.936C43.4212 162.291 43.411 160.576 43.0008 158.936C42.7498 158.156 42.294 157.458 41.681 156.916C41.3588 156.645 41.0179 156.398 40.661 156.176L40.1009 155.806L39.8109 155.566C39.7709 155.556 39.7411 155.526 39.6307 155.486C37.9528 155.103 36.2476 154.853 34.5306 154.736C27.5706 154.106 20.5809 153.736 13.6009 153.356C17.0907 153.406 20.5907 153.506 24.0907 153.636C27.5907 153.766 31.0809 153.906 34.5809 154.176C35.451 154.246 36.3309 154.326 37.201 154.426C38.1 154.495 38.9905 154.649 39.8607 154.886C40.0054 154.932 40.141 155.003 40.2611 155.096L40.4808 155.276L41.0208 155.616C41.41 155.847 41.7811 156.108 42.1307 156.396C42.8478 157.008 43.3867 157.803 43.6908 158.696C44.1693 160.451 44.2207 162.296 43.8407 164.076C43.5166 165.812 43.0484 167.517 42.4408 169.176L37.7806 187.686L33.161 205.786L43.1009 209.306L46.911 188.876C48.201 182.056 49.5176 175.239 50.8607 168.426C50.6387 161.862 51.1014 155.293 52.241 148.826L33.931 146.906C32.0862 146.736 30.3392 145.999 28.931 144.796C27.4324 144.576 25.9468 144.276 24.4808 143.896C24.1009 143.806 23.721 143.706 23.3407 143.586C23.1507 143.526 22.9608 143.466 22.7611 143.396C22.7387 143.386 22.715 143.379 22.6908 143.376H22.661C22.5932 143.383 22.5262 143.396 22.4608 143.416C21.7549 143.636 21.0718 143.924 20.4208 144.276C19.0409 144.946 17.681 145.686 16.3011 146.386C14.931 147.116 13.5306 147.806 12.1107 148.466C14.5493 146.499 17.187 144.793 19.9808 143.376C20.7102 143.005 21.4739 142.707 22.2611 142.486C22.3895 142.46 22.5199 142.447 22.6508 142.446C22.8084 142.455 22.9636 142.488 23.1108 142.546C23.2709 142.626 23.4511 142.686 23.621 142.756L24.7109 143.156C26.101 143.646 27.4911 144.165 28.871 144.735C27.4208 143.355 26.3808 141.125 26.9911 137.485L27.9208 112.795L24.1708 112.025C24.1708 112.025 21.4111 112.645 26.8608 96.9055L35.5708 71.8555C35.5708 71.8555 1.36076 76.0755 0.12105 77.3155C-1.11918 78.5555 7.31099 162.115 18.9711 202.035C18.9711 202.035 72.0307 239.975 75.2509 241.216C76.8207 241.806 106.231 234.756 138.361 226.285C138.361 226.285 135.131 215.685 121.231 213.445ZM9.09068 96.0754C8.28062 91.1554 7.50086 86.2354 6.8207 81.2954C7.90078 86.1654 8.88074 91.0554 9.84068 95.9454C10.8011 100.835 11.681 105.745 12.6009 110.645C13.4408 115.555 14.3309 120.465 15.1307 125.385L16.3207 132.765C16.681 135.235 17.0707 137.695 17.4007 140.165C16.8509 137.735 16.3607 135.295 15.8309 132.855L14.3709 125.515C13.4109 120.625 12.5408 115.715 11.6209 110.815C10.7806 105.905 9.89097 101.005 9.09068 96.0754Z" fill="#333"/>
<path d="M101.541 38.1354C99.7211 38.1354 97.4008 39.1254 95.0907 39.6254C92.7807 40.1254 87.4911 39.1254 86.9911 37.6454C86.4911 36.1554 83.371 23.8754 82.8607 24.4554C82.3607 25.0354 81.371 26.0654 81.371 26.0654C81.371 26.0654 81.2011 41.0254 81.5307 42.6354C81.871 44.2554 87.9809 52.3554 97.0707 51.5254C106.161 50.6954 107.491 39.9554 107.491 39.9554C107.491 39.9554 103.351 38.1354 101.541 38.1354ZM103.041 42.5754C102.373 42.9866 101.593 43.1757 100.811 43.1154C100.051 43.0574 99.3157 42.8247 98.661 42.4354C98.0242 42.0665 97.4803 41.5569 97.0707 40.9454C98.2579 41.5601 99.5445 41.9596 100.871 42.1254C101.492 42.172 102.115 42.0868 102.701 41.8754C103.335 41.6294 103.942 41.3177 104.511 40.9454C104.193 41.622 103.681 42.1891 103.041 42.5754Z" fill="#333"/>
<path d="M81.3703 26.0698C81.3703 26.0698 89.6354 18.3006 88.9742 8.7131C88.9742 8.7131 91.1231 6.72947 94.5945 10.0355C94.5945 10.0355 97.5699 10.862 101.041 7.22538C104.513 3.58873 106.331 8.87838 106.331 8.87838C106.331 8.87838 108.149 14.4987 108.645 13.0109C109.141 11.5232 109.968 4.41522 102.529 2.10099C96.7445 0.377881 90.6979 -0.293959 84.6763 0.117369C82.6927 0.447969 78.5601 3.75401 78.5601 8.38247C78.5601 13.0109 76.5765 18.7965 76.7418 20.6148C76.9071 22.4332 81.3703 26.0698 81.3703 26.0698Z" fill="#333"/>
<path d="M88.809 24.0858C90.4121 23.4732 92.1332 23.232 93.843 23.3804C94.7031 23.4543 95.5501 23.639 96.3629 23.93C97.171 24.2272 97.9167 24.6725 98.5617 25.2429C97.7993 24.9129 97.0113 24.6457 96.2055 24.4438C95.4084 24.261 94.5994 24.1349 93.7846 24.0663C92.1277 23.9531 90.4649 23.9596 88.809 24.0858Z" fill="#333"/>
<path d="M102.859 24.4564C103.522 23.7301 104.339 23.1605 105.249 22.7891C106.152 22.3618 107.169 22.237 108.149 22.4333C107.255 22.7183 106.376 23.0489 105.516 23.4238C104.654 23.7778 103.805 24.163 102.859 24.4564Z" fill="#333"/>
<path d="M95.0904 27.5985C95.3582 27.5893 95.612 27.4764 95.7982 27.2836C95.9844 27.0909 96.0885 26.8334 96.0885 26.5654C96.0885 26.2974 95.9844 26.0398 95.7982 25.8471C95.612 25.6544 95.3582 25.5415 95.0904 25.5322C94.8226 25.5415 94.5688 25.6544 94.3826 25.8471C94.1964 26.0398 94.0923 26.2974 94.0923 26.5654C94.0923 26.8334 94.1964 27.0909 94.3826 27.2836C94.5688 27.4764 94.8226 27.5893 95.0904 27.5985Z" fill="#333"/>
<path d="M105.67 26.9374C105.938 26.9281 106.191 26.8152 106.378 26.6225C106.564 26.4297 106.668 26.1722 106.668 25.9042C106.668 25.6362 106.564 25.3787 106.378 25.186C106.191 24.9932 105.938 24.8803 105.67 24.8711C105.402 24.8803 105.148 24.9932 104.962 25.186C104.776 25.3787 104.672 25.6362 104.672 25.9042C104.672 26.1722 104.776 26.4297 104.962 26.6225C105.148 26.8152 105.402 26.9281 105.67 26.9374Z" fill="#333"/>
<path d="M76.7418 20.6143C76.3804 20.7644 76.0574 20.9938 75.7966 21.2856C75.5359 21.5774 75.344 21.9241 75.2352 22.3C75.0267 23.0428 75.028 23.8288 75.2392 24.5708C75.7203 26.0887 76.2876 27.5779 76.9384 29.0312C77.5198 30.5507 77.9785 32.1144 78.31 33.7071C78.4439 34.4548 78.8136 35.14 79.3651 35.6623C79.6601 35.9187 80.006 36.1097 80.3801 36.2227C80.7542 36.3357 81.148 36.3682 81.5355 36.3179C81.1343 36.4351 80.7119 36.4606 80.2994 36.3926C79.887 36.3246 79.4951 36.1647 79.1527 35.9249C78.4783 35.3866 77.9992 34.6418 77.7892 33.8048C77.3854 32.2648 76.8862 30.7514 76.2943 29.2734C76.0189 28.5222 75.7377 27.7724 75.4376 27.0291C75.1076 26.2733 74.8671 25.4814 74.7211 24.6696C74.5542 23.8383 74.6233 22.9769 74.9205 22.1829C75.0789 21.7963 75.3265 21.4526 75.643 21.18C75.9595 20.9074 76.3361 20.7135 76.7418 20.6143Z" fill="#333"/>
<path d="M103.686 31.8555C104.081 32.9013 104.069 34.0571 103.652 35.0944C103.423 35.6496 102.996 36.1004 102.455 36.3601C101.922 36.573 101.329 36.5781 100.793 36.3744C101.29 36.3108 101.769 36.145 102.199 35.8874C102.566 35.6125 102.851 35.242 103.022 34.8163C103.367 33.8611 103.59 32.8664 103.686 31.8555Z" fill="#333"/>
<path d="M108.645 13.0107C108.505 15.2806 108.5 17.5568 108.632 19.8271C108.7 20.953 108.83 22.0743 109.02 23.1861C109.221 24.2769 109.539 25.3943 109.73 26.5338C110.119 28.8222 110.094 31.1617 109.656 33.4413C109.181 35.6872 108.454 37.8723 107.488 39.955C108.199 37.7977 108.75 35.5904 109.134 33.3516C109.481 31.1277 109.453 28.8616 109.051 26.647C108.886 25.5333 108.596 24.4468 108.403 23.2917C108.215 22.1538 108.116 21.003 108.105 19.8497C108.061 17.5578 108.242 15.2673 108.645 13.0107Z" fill="#333"/>
<path d="M81.5356 42.6367C81.3986 43.9593 80.9057 45.22 80.1093 46.2847C79.7035 46.8256 79.2059 47.2912 78.6393 47.6601C78.0655 48.0151 77.4066 48.2086 76.7321 48.2203C77.3045 47.961 77.8398 47.6263 78.3236 47.2252C78.779 46.8153 79.193 46.3616 79.5594 45.8706C79.9329 45.3716 80.2768 44.8511 80.5894 44.3119C80.9035 43.766 81.2272 43.2148 81.5356 42.6367Z" fill="#333"/>
<path d="M80.8871 44.4034C75.8635 45.4237 70.9476 46.9164 66.205 48.8617C63.7464 49.7543 61.1756 50.3007 58.5665 50.4853C56.0312 50.6333 53.5061 50.9234 51.0033 51.3544C50.4387 51.4775 49.8969 51.6884 49.3976 51.9793C48.8239 52.3348 48.219 52.6374 47.5905 52.8833C46.4471 53.3079 45.3938 53.9437 44.4855 54.7576C42.7516 56.5615 41.3263 58.6383 40.2667 60.9049C39.6659 62.0229 39.1864 63.2078 38.6585 64.3685C38.1812 65.5525 37.7016 66.7383 37.2538 67.9369C36.8314 69.1453 36.3834 70.346 35.9811 71.5629L34.8336 75.2345L34.8309 75.2434L34.826 75.2574C32.4352 81.2392 30.2626 87.3041 28.3082 93.452C27.3402 96.523 26.4257 99.6119 25.6446 102.725C25.2594 104.282 24.8961 105.844 24.6241 107.408C24.4858 108.18 24.3908 108.959 24.3395 109.742C24.3171 110.112 24.323 110.484 24.357 110.854C24.3651 111.113 24.4429 111.365 24.5824 111.583L24.2982 111.438C29.9781 112.554 35.6622 113.668 41.3539 114.719L49.8846 116.31L54.1536 117.031C55.5393 117.271 56.9361 117.442 58.3389 117.543L58.7537 117.548C58.7547 117.525 58.7437 117.55 58.7689 117.534C58.797 117.506 58.8287 117.481 58.8631 117.46C59.0527 117.24 59.2108 116.995 59.3328 116.731C59.6237 116.111 59.8642 115.468 60.0521 114.81C60.4358 113.439 60.7429 112.047 60.972 110.642C61.4537 107.815 61.7103 104.942 61.9095 102.068C62.0904 99.1906 62.1492 96.3067 62.0858 93.4158C62.0438 90.5278 61.8721 87.6389 61.5484 84.7619C61.5467 84.7442 61.5519 84.7266 61.5629 84.7127C61.5738 84.6987 61.5898 84.6895 61.6073 84.687C61.6249 84.6845 61.6428 84.6889 61.6572 84.6992C61.6716 84.7095 61.6816 84.725 61.6849 84.7424C62.1693 87.6019 62.5035 90.4899 62.7076 93.3894C62.8856 96.2903 62.9382 99.1972 62.8656 102.11C62.7941 105.027 62.5548 107.937 62.1488 110.827C61.946 112.286 61.6617 113.733 61.2972 115.16C61.1049 115.9 60.8524 116.622 60.5421 117.32C60.3667 117.717 60.1325 118.086 59.8473 118.414C59.7455 118.508 59.6346 118.6 59.5233 118.686C59.374 118.776 59.2134 118.847 59.0458 118.895C58.8111 118.918 58.6007 118.917 58.3761 118.924C56.8891 118.837 55.408 118.668 53.9396 118.418L49.6378 117.714C46.7804 117.208 43.9249 116.702 41.0809 116.141C35.3951 115.006 29.7192 113.831 24.0533 112.616L24.0059 112.606C23.9148 112.586 23.832 112.539 23.7689 112.47C23.4041 112.055 23.198 111.524 23.1871 110.971C23.156 110.537 23.1583 110.102 23.1939 109.668C23.2666 108.843 23.3854 108.023 23.5499 107.212C23.8644 105.605 24.2714 104.033 24.7223 102.477C25.6215 99.3648 26.6481 96.3019 27.706 93.252C28.7819 90.2084 29.8646 87.1698 30.979 84.1426L34.3535 75.072L34.3459 75.0946C35.6337 70.0941 37.3069 65.2009 39.3503 60.4588C40.3764 58.0196 41.8444 55.7911 43.6804 53.8855C44.6803 52.9682 45.8418 52.2445 47.1059 51.7511C47.6717 51.5232 48.2199 51.2538 48.746 50.9452C49.3599 50.5914 50.0262 50.3378 50.7199 50.1939C53.2844 49.7823 55.8705 49.5193 58.4653 49.4061C59.7346 49.2946 60.9985 49.1592 62.2399 48.9317C63.4836 48.7402 64.7075 48.4368 65.8967 48.0253C70.725 46.2009 75.7479 44.9399 80.8654 44.2673C80.8835 44.2647 80.9018 44.2694 80.9165 44.2804C80.9311 44.2914 80.9407 44.3077 80.9433 44.3258C80.9452 44.3434 80.9405 44.361 80.9301 44.3753C80.9197 44.3897 80.9044 44.3997 80.8871 44.4034Z" fill="#333"/>
<path d="M97.1041 58.7334C96.9912 59.3349 96.9626 59.9493 97.0191 60.5587C97.0558 61.1755 97.0958 61.7914 97.1544 62.407L97.5318 66.097C97.8031 68.5557 98.1261 71.009 98.4266 73.4648L98.9049 77.1451C99.2065 78.4395 99.0087 79.7999 98.3509 80.9547C98.1344 81.2292 97.8659 81.4582 97.5608 81.6287C97.2556 81.7992 96.9198 81.9078 96.5727 81.9483C96.2255 81.9888 95.8737 81.9603 95.5375 81.8646C95.2013 81.7689 94.8874 81.6077 94.6136 81.3904C94.3393 81.1758 94.1118 80.9072 93.9453 80.6012C93.7788 80.2953 93.6768 79.9584 93.6456 79.6115L93.4461 77.767C93.1695 75.309 92.8753 72.852 92.5003 70.4086C92.3213 69.1883 92.0779 67.9783 91.7711 66.7838C91.6959 66.4928 91.5924 66.2099 91.462 65.9391C91.436 65.8789 91.3965 65.8256 91.3465 65.7832C91.2964 65.7409 91.2373 65.7107 91.1736 65.6951L90.7488 65.5112C90.1815 65.2664 89.6072 65.0364 89.0303 64.8132C86.7254 63.9151 84.4039 63.0563 82.0608 62.2692C80.899 61.9015 79.6922 61.3762 78.5757 61.7441C78.0569 61.9934 77.626 62.3945 77.3402 62.8941C77.0544 63.3938 76.9272 63.9685 76.9754 64.5422C76.9743 64.6071 76.9476 64.669 76.9009 64.7142C76.8543 64.7594 76.7916 64.7842 76.7266 64.7832C76.6841 64.7822 76.6425 64.7702 76.606 64.7486C76.5694 64.7269 76.5389 64.6962 76.5176 64.6594C75.8684 63.5306 75.1382 62.4504 74.3328 61.4272C73.5539 60.4008 72.6425 59.4821 71.6223 58.695C71.1235 58.3197 70.5661 58.0292 69.9727 57.8353C69.3212 57.6295 68.6947 57.3516 68.1048 57.007C66.9018 56.3193 65.8851 55.3481 65.1431 54.1779C65.1331 54.1617 65.1252 54.1443 65.1197 54.1261L65.1133 54.1047C64.9278 53.4165 65.0177 52.683 65.3638 52.0599C65.683 51.4847 66.1013 50.9703 66.5994 50.5405C67.5557 49.7226 68.6095 49.0263 69.7369 48.4673C71.9468 47.3465 74.2606 46.4435 76.6455 45.771C76.7061 45.7535 76.7706 45.7548 76.8304 45.7747C76.8903 45.7946 76.9427 45.8321 76.9808 45.8824C77.0189 45.9326 77.0409 45.9933 77.0438 46.0562C77.0468 46.1192 77.0306 46.1816 76.9973 46.2352L76.9883 46.2499C76.6064 46.8941 76.3591 47.609 76.2613 48.3515C76.2051 48.7294 76.1744 49.1107 76.1693 49.4928C76.2025 49.8743 76.1996 50.2612 76.2675 50.6405C76.5249 52.1802 77.1013 53.6492 77.9598 54.953C78.3794 55.6168 78.8335 56.2581 79.3204 56.8742C79.8527 57.4542 80.3519 58.0666 80.9073 58.6275C81.4811 59.1695 82.026 59.7461 82.6256 60.2625L84.4491 61.7887C84.4527 61.7914 84.4558 61.7948 84.4582 61.7986C84.4605 61.8025 84.4621 61.8068 84.4627 61.8113C84.4634 61.8158 84.4632 61.8203 84.4621 61.8247C84.461 61.8291 84.4591 61.8332 84.4564 61.8369C84.4507 61.8439 84.4425 61.8486 84.4335 61.8499C84.4245 61.8512 84.4153 61.849 84.4078 61.8439L82.5143 60.3941C81.8895 59.9016 81.3165 59.3462 80.7135 58.8239C80.1237 58.2872 79.6078 57.6729 79.0536 57.0971C78.5417 56.4802 78.063 55.8366 77.6193 55.169C76.6963 53.8323 76.063 52.3174 75.7599 50.7215C75.6793 50.3219 75.6705 49.909 75.6278 49.5022C75.6231 49.0907 75.6465 48.6794 75.6976 48.2712C75.7882 47.4328 76.0533 46.6226 76.4757 45.8928L76.8182 46.3716C74.4953 47.0897 72.2362 48.0003 70.0646 49.0938C68.9934 49.6293 67.9924 50.2947 67.0841 51.0751C66.6324 51.385 66.2744 51.8129 66.0492 52.3122C65.8239 52.8115 65.74 53.363 65.8065 53.9067L65.7767 53.8339C66.4484 54.8977 67.3653 55.7849 68.4506 56.4212C68.9944 56.7465 69.5729 57.0101 70.1752 57.2072C70.8327 57.4292 71.4493 57.7575 72.0006 58.1791C73.0629 59.007 74.0015 59.9825 74.788 61.0758C75.5877 62.1394 76.309 63.2597 76.9462 64.428L76.4886 64.5453C76.5057 63.8867 76.6692 63.24 76.9672 62.6524C77.1143 62.3481 77.3215 62.0767 77.5763 61.8546C77.8311 61.6325 78.1283 61.4642 78.4498 61.36C79.7867 60.9737 81.0267 61.5797 82.1708 61.9495C84.5089 62.7759 86.819 63.6718 89.1129 64.6072L90.8329 65.3111L91.2624 65.4911C91.3478 65.5175 91.4271 65.5608 91.4954 65.6185C91.5638 65.6762 91.6199 65.747 91.6603 65.8268C91.8031 66.1116 91.917 66.41 92.0004 66.7175C92.3444 67.9192 92.559 69.1409 92.7887 70.3595C93.2375 72.7987 93.6046 75.2499 93.9506 77.7036L94.203 79.5449C94.2296 79.8161 94.3114 80.0791 94.4434 80.3175C94.5755 80.556 94.755 80.7648 94.9709 80.9312C95.3991 81.267 95.9428 81.4196 96.4832 81.3557C97.0236 81.2918 97.5167 81.0166 97.8548 80.5902C98.1544 80.1077 98.3372 79.5619 98.3888 78.9963C98.4505 78.4039 98.4293 77.8059 98.3258 77.2194L97.8883 73.5296C97.597 71.0696 97.3643 68.6026 97.1554 66.1334C97.0489 64.899 96.9622 63.6622 96.9139 62.4227C96.8839 61.8035 96.8724 61.1827 96.8641 60.5625C96.834 59.9364 96.8945 59.3092 97.0438 58.7005C97.0465 58.6921 97.0525 58.6851 97.0603 58.6811C97.0682 58.677 97.0773 58.6762 97.0858 58.6788C97.0942 58.6814 97.1012 58.6873 97.1054 58.6951C97.1096 58.7029 97.1105 58.712 97.108 58.7205L97.1041 58.7334Z" fill="#333"/>
<path d="M100.203 50.7548C100.687 51.4403 101.115 52.1645 101.481 52.92C101.664 53.2998 101.797 53.7045 101.957 54.0985C102.089 54.507 102.186 54.9258 102.247 55.3505C102.4 56.2211 102.328 57.1163 102.038 57.9513C101.713 58.8067 101.095 59.5187 100.293 59.9605C100.262 59.9773 100.228 59.9877 100.193 59.9913C100.157 59.9948 100.122 59.9914 100.088 59.9812C100.054 59.971 100.022 59.9542 99.9949 59.9318C99.9674 59.9094 99.9447 59.8818 99.9279 59.8505C99.9115 59.8203 99.9012 59.7873 99.8974 59.7531L99.8964 59.7437C99.785 58.5437 99.5295 57.3615 99.1354 56.2226C98.938 55.6603 98.6267 55.1448 98.2211 54.7083C98.023 54.5106 97.768 54.3799 97.4918 54.3346C97.3567 54.3515 97.2262 54.3953 97.1083 54.4634C96.9903 54.5314 96.8871 54.6225 96.8048 54.731C96.12 55.7186 95.6246 56.8248 95.3439 57.9934C94.9953 59.1509 94.703 60.3347 94.4484 61.5116L94.4533 61.3991L94.765 63.5462C94.7784 63.6385 94.7554 63.7324 94.7009 63.8081C94.6463 63.8837 94.5645 63.9352 94.4727 63.9517C94.3809 63.9681 94.2863 63.9483 94.2089 63.8963C94.1314 63.8443 94.0773 63.7642 94.0577 63.673L94.0563 63.665C93.8661 62.6546 93.7561 61.6307 93.7272 60.6029C93.6725 59.5838 93.6979 58.5669 93.7445 57.5535C93.8306 55.529 94.0409 53.5116 94.3742 51.5128C94.3757 51.5037 94.3807 51.4957 94.3882 51.4903C94.3956 51.485 94.4049 51.4828 94.4139 51.4843C94.4222 51.4858 94.4297 51.4903 94.435 51.4968C94.4403 51.5034 94.443 51.5116 94.4428 51.52C94.3766 53.5398 94.3438 55.5547 94.3444 57.5648C94.3174 59.5582 94.4567 61.5504 94.7609 63.5206L94.0519 63.6394L93.8019 61.4841L93.8007 61.473C93.7968 61.439 93.7988 61.4046 93.8068 61.3713C94.0934 60.1726 94.4508 58.992 94.8771 57.8356C95.268 56.6525 95.8585 55.545 96.6229 54.5611C96.7299 54.4299 96.8626 54.3221 97.0128 54.2442C97.1631 54.1662 97.3277 54.1199 97.4965 54.1079C97.8256 54.1612 98.1292 54.3177 98.3637 54.5548C98.8083 54.9999 99.1557 55.5323 99.3842 56.1185C99.878 57.2572 100.236 58.4502 100.45 59.6727L100.054 59.456C100.699 59.0488 101.195 58.4439 101.469 57.7316C101.748 56.9938 101.834 56.197 101.719 55.4166C101.699 55.0177 101.574 54.6272 101.514 54.2271C101.389 53.8407 101.292 53.4422 101.143 53.0604C100.978 52.6851 100.851 52.2912 100.676 51.9164L100.144 50.7906C100.142 50.7866 100.14 50.7822 100.14 50.7777C100.14 50.7732 100.14 50.7686 100.141 50.7643C100.143 50.7599 100.145 50.7559 100.148 50.7524C100.151 50.7489 100.154 50.746 100.158 50.7438C100.166 50.7402 100.174 50.7393 100.182 50.7413C100.191 50.7433 100.198 50.7481 100.203 50.7548Z" fill="#333"/>
<path d="M95.2143 67.1884C95.4821 67.1791 95.7359 67.0662 95.9221 66.8734C96.1082 66.6807 96.2123 66.4232 96.2123 66.1552C96.2123 65.8872 96.1082 65.6297 95.9221 65.437C95.7359 65.2443 95.4821 65.1313 95.2143 65.1221C94.9465 65.1313 94.6928 65.2443 94.5066 65.437C94.3204 65.6297 94.2164 65.8872 94.2164 66.1552C94.2164 66.4232 94.3204 66.6807 94.5066 66.8734C94.6928 67.0662 94.9465 67.1791 95.2143 67.1884Z" fill="#333"/>
<path d="M95.9582 72.8915C96.226 72.8822 96.4798 72.7693 96.666 72.5765C96.8521 72.3838 96.9562 72.1263 96.9562 71.8583C96.9562 71.5904 96.8521 71.3329 96.666 71.1401C96.4798 70.9474 96.226 70.8345 95.9582 70.8252C95.6904 70.8345 95.4367 70.9474 95.2505 71.1401C95.0643 71.3329 94.9603 71.5904 94.9603 71.8583C94.9603 72.1263 95.0643 72.3838 95.2505 72.5765C95.4367 72.7693 95.6904 72.8822 95.9582 72.8915Z" fill="#333"/>
<path d="M96.5781 78.3465C96.8459 78.3373 97.0997 78.2244 97.2859 78.0317C97.4721 77.8389 97.5762 77.5814 97.5762 77.3134C97.5762 77.0454 97.4721 76.7879 97.2859 76.5952C97.0997 76.4024 96.8459 76.2895 96.5781 76.2803C96.3103 76.2895 96.0565 76.4024 95.8703 76.5952C95.6841 76.7879 95.58 77.0454 95.58 77.3134C95.58 77.5814 95.6841 77.8389 95.8703 78.0317C96.0565 78.2244 96.3103 78.3373 96.5781 78.3465Z" fill="#333"/>
<path d="M103.166 48.8164C107.297 48.9192 111.421 49.1932 115.535 49.6162C117.594 49.8156 119.644 50.1041 121.688 50.452C123.768 50.7419 125.802 51.2956 127.742 52.0999C127.996 52.226 128.235 52.3818 128.452 52.5641C128.652 52.7453 128.842 52.9381 129.02 53.1415C129.361 53.5109 129.733 53.8642 130.102 54.2283C130.866 54.9527 131.556 55.7519 132.16 56.6138C133.317 58.3674 134.175 60.2999 134.702 62.3333C135.74 66.345 136.383 70.4485 136.622 74.5853C136.122 70.4961 135.31 66.451 134.194 62.4853C133.63 60.529 132.771 58.6701 131.646 56.9729C131.056 56.1499 130.385 55.3882 129.643 54.6995C129.274 54.3428 128.893 53.9885 128.53 53.6042C128.229 53.2302 127.852 52.925 127.423 52.7092C125.551 51.9201 123.587 51.3687 121.577 51.0677C119.557 50.6928 117.515 50.4206 115.474 50.14C111.386 49.6091 107.278 49.2026 103.166 48.8164Z" fill="#333"/>
<path d="M46.4916 57.5551C48.3952 57.1522 50.3782 57.3814 52.1396 58.2079C53.9057 59.0557 55.4142 60.3586 56.5099 61.9825C57.0573 62.7812 57.5342 63.6259 57.9352 64.5072C58.315 65.3904 58.6471 66.2932 58.9304 67.2118C59.1376 68.1485 59.3937 69.0719 59.5574 70.0111C59.6653 70.9615 59.7957 71.9049 59.8811 72.8503C59.6409 71.9262 59.4453 71.0002 59.2273 70.0811C58.9985 69.1655 58.6887 68.2726 58.4255 67.3718C58.0732 66.5031 57.762 65.6168 57.3674 64.7725C56.9632 63.9354 56.488 63.1344 55.9473 62.3783C54.9328 60.8264 53.5437 59.5551 51.9082 58.6817C50.2435 57.8073 48.367 57.417 46.4916 57.5551Z" fill="#333"/>
<path d="M70.9562 101.117C71.4311 102.381 71.9313 103.632 72.5131 104.846C73.0634 106.074 73.6674 107.275 74.3076 108.455C75.5742 110.818 77.022 113.08 78.6379 115.219C80.2307 117.372 82.0424 119.353 84.0439 121.132L85.5724 122.436C86.0959 122.853 86.6613 123.215 87.2031 123.61L88.0187 124.204C88.3012 124.385 88.5966 124.545 88.8854 124.717L90.6271 125.747C88.1281 124.682 85.7951 123.263 83.6996 121.534C81.6112 119.787 79.7289 117.808 78.0891 115.634C76.4718 113.451 75.0495 111.129 73.8388 108.697C72.6257 106.274 71.6599 103.734 70.9562 101.117Z" fill="#333"/>
<path d="M27.9223 112.795C27.8923 116.914 27.8014 121.031 27.7342 125.149C27.6786 129.268 27.5392 133.383 27.4452 137.5L27.4425 137.535L27.4366 137.573C27.1851 139.218 27.3951 140.901 28.0433 142.434C28.7313 143.915 29.9661 145.073 31.4887 145.664C31.88 145.791 32.2631 145.938 32.6586 146.053L33.8856 146.29C34.735 146.415 35.6117 146.507 36.4782 146.602C38.2167 146.787 39.9587 146.952 41.7042 147.096C48.683 147.682 55.6842 147.983 62.6818 148.14C69.6764 148.301 76.6745 148.07 83.6432 147.447C90.5675 146.778 97.601 145.717 103.892 142.704C103.953 142.675 104.024 142.67 104.089 142.689C104.154 142.708 104.211 142.75 104.247 142.807C104.742 143.58 105.429 144.211 106.241 144.64C107.069 145.077 107.983 145.325 108.918 145.367C109.866 145.403 110.815 145.303 111.735 145.07C112.191 144.936 112.649 144.796 113.103 144.646L114.431 144.095L113.132 144.72C112.685 144.896 112.232 145.062 111.777 145.224C110.849 145.514 109.881 145.661 108.908 145.659C107.909 145.672 106.921 145.444 106.029 144.993C105.137 144.541 104.368 143.881 103.787 143.068L104.141 143.171C100.997 144.81 97.6513 146.026 94.1896 146.789C90.7496 147.579 87.2672 148.171 83.7594 148.562C76.7513 149.278 69.707 149.579 62.6634 149.464C55.6251 149.419 48.5997 148.972 41.5943 148.347C39.8426 148.189 38.0924 148.009 36.3436 147.807C35.4669 147.704 34.5982 147.606 33.7135 147.469L32.3587 147.194C31.9141 147.062 31.4761 146.893 31.0362 146.742C29.2611 146.013 27.8416 144.619 27.0811 142.858C26.389 141.124 26.1997 139.23 26.535 137.393L26.5264 137.465C26.7444 133.353 26.9173 129.239 27.1739 125.128C27.4186 121.017 27.64 116.905 27.9223 112.795Z" fill="#333"/>
<path d="M53.4367 117.632C53.5512 119.896 53.6159 122.16 53.6945 124.425L53.5392 124.188C61.5054 127.044 69.8684 128.64 78.3266 128.917C82.5312 129.045 86.7373 128.716 90.8708 127.935L93.9487 127.269C94.9653 127.011 95.9511 126.646 96.9552 126.34L98.4596 125.869C98.9499 125.683 99.4259 125.461 99.9106 125.259L102.811 124.016L102.565 124.388C102.679 123.7 102.949 123.048 103.354 122.481C103.731 121.931 104.2 121.451 104.741 121.063C105.798 120.314 107.012 119.817 108.291 119.612C108.913 119.504 109.54 119.428 110.169 119.384C110.797 119.385 111.423 119.33 112.046 119.376C112.669 119.428 113.294 119.427 113.91 119.522L115.753 119.796L113.897 119.692C113.279 119.661 112.661 119.69 112.046 119.685C111.429 119.681 110.819 119.777 110.209 119.818C109.605 119.901 109.007 120.016 108.415 120.161C107.254 120.437 106.162 120.951 105.209 121.67C104.303 122.35 103.687 123.346 103.484 124.461L103.48 124.492C103.47 124.564 103.443 124.633 103.401 124.692C103.359 124.751 103.303 124.8 103.238 124.833C99.4277 126.857 95.351 128.335 91.1283 129.221C86.9044 130.076 82.5938 130.427 78.2873 130.265C73.9958 130.108 69.7282 129.553 65.5395 128.607C63.4533 128.118 61.3837 127.567 59.3464 126.913C57.2975 126.288 55.2896 125.536 53.3344 124.661L53.3224 124.656C53.2783 124.636 53.2411 124.603 53.2155 124.562C53.19 124.521 53.1772 124.473 53.1788 124.424C53.2577 122.16 53.3222 119.896 53.4367 117.632Z" fill="#333"/>
<path d="M33.4328 129.641C34.5123 128.154 35.889 126.907 37.4758 125.98C39.0638 125.039 40.7829 124.34 42.5766 123.906C43.4789 123.723 44.3915 123.596 45.3093 123.525C46.2232 123.435 47.1428 123.42 48.0591 123.48C48.9753 123.501 49.8781 123.685 50.7829 123.783C51.6755 123.975 52.5615 124.192 53.4367 124.425C52.5278 124.344 51.6369 124.195 50.739 124.118C49.8374 124.09 48.9431 123.965 48.0456 124.01C46.2582 124.002 44.4754 124.192 42.7299 124.577C40.9907 124.973 39.3119 125.598 37.7378 126.437C36.1412 127.269 34.6878 128.35 33.4328 129.641Z" fill="#333"/>
<path d="M103.025 124.425C103.299 125.024 103.625 125.6 103.997 126.144C104.348 126.677 104.8 127.136 105.327 127.496C105.457 127.574 105.594 127.64 105.735 127.695C105.927 127.767 106.101 127.881 106.244 128.029C106.371 128.194 106.455 128.389 106.488 128.595C106.522 128.801 106.503 129.012 106.435 129.209C106.209 129.882 105.843 130.5 105.361 131.021L105.357 131.025L105.337 131.044C104.823 131.529 104.435 132.133 104.209 132.802C104.104 133.118 104.071 133.453 104.113 133.783C104.155 134.113 104.27 134.43 104.449 134.71C104.783 135.253 105.517 135.782 105.798 136.616C105.884 136.832 105.923 137.063 105.912 137.295C105.9 137.527 105.837 137.753 105.729 137.959C105.493 138.338 105.137 138.629 104.719 138.786L104.811 138.723C104.269 139.295 103.854 139.977 103.595 140.721C103.468 141.093 103.43 141.489 103.482 141.878C103.568 142.271 103.752 142.635 104.017 142.939C103.693 142.67 103.452 142.315 103.32 141.916C103.216 141.499 103.209 141.065 103.3 140.645C103.388 140.229 103.539 139.828 103.747 139.456C103.946 139.08 104.181 138.724 104.449 138.394C104.465 138.374 104.486 138.358 104.509 138.347L104.542 138.33C104.833 138.195 105.074 137.97 105.229 137.689C105.291 137.553 105.323 137.406 105.323 137.256C105.323 137.107 105.292 136.959 105.231 136.823C105.007 136.179 104.402 135.78 103.898 135.064C103.655 134.706 103.497 134.298 103.434 133.87C103.385 133.442 103.431 133.008 103.569 132.6C103.846 131.824 104.313 131.129 104.928 130.58L104.905 130.602C105.331 130.153 105.667 129.627 105.898 129.053C105.952 128.941 105.977 128.817 105.971 128.694C105.966 128.57 105.93 128.449 105.866 128.342C105.782 128.248 105.678 128.171 105.563 128.118C105.4 128.043 105.244 127.953 105.096 127.851C104.544 127.434 104.095 126.895 103.784 126.276C103.463 125.689 103.208 125.068 103.025 124.425Z" fill="#333"/>
<path d="M115.34 125.12C115.319 125.54 115.299 125.953 115.278 126.367C114.445 126.36 113.604 126.325 112.771 126.236C111.79 126.156 110.817 125.993 109.864 125.747C110.817 125.501 111.79 125.337 112.771 125.258C113.625 125.168 114.486 125.134 115.34 125.12Z" fill="#333"/>
<path d="M115.12 129.755C115.092 130.175 115.078 130.588 115.057 130.995C114.293 130.981 113.535 130.946 112.771 130.864C111.79 130.784 110.817 130.621 109.864 130.375C110.817 130.129 111.79 129.965 112.771 129.886C113.556 129.803 114.334 129.769 115.12 129.755Z" fill="#333"/>
<path d="M114.913 134.219C114.899 134.639 114.878 135.052 114.865 135.459C114.169 135.438 113.467 135.403 112.771 135.328C111.79 135.248 110.817 135.084 109.864 134.839C110.817 134.593 111.79 134.429 112.771 134.35C113.487 134.274 114.203 134.239 114.913 134.219Z" fill="#333"/>
<path d="M112.771 139.681C113.418 139.612 114.066 139.577 114.706 139.557C114.686 139.977 114.672 140.383 114.658 140.776C114.031 140.762 113.398 140.728 112.771 140.659C111.79 140.579 110.817 140.416 109.864 140.17C110.817 139.924 111.79 139.76 112.771 139.681Z" fill="#333"/>
<path d="M91.5405 149.932C91.5405 149.932 79.1313 137.668 74.4985 145.621C69.8656 153.575 73.0504 159.409 76.4926 163.346C80.6861 168.142 80.8969 169.578 82.1411 170.999C83.3854 172.419 97.4311 189.591 114.937 188.626C125.15 188.063 124.976 182.621 123.058 178.184C121.664 175.041 119.424 172.348 116.588 170.404C110.996 166.495 98.4985 157.444 91.5405 149.932Z" fill="#333"/>
<path d="M87.308 146.428C89.9765 146.554 92.6379 146.733 95.2995 146.907L103.28 147.448C105.937 147.659 108.597 147.813 111.256 147.954C112.586 148.037 113.916 148.085 115.246 148.107C115.909 148.106 116.579 148.154 117.24 148.105L118.236 148.058L119.222 147.903C116.597 148.436 113.914 148.631 111.239 148.484C108.565 148.452 105.898 148.292 103.233 148.135C100.57 147.926 97.9089 147.717 95.2544 147.432C92.5998 147.149 89.9482 146.836 87.308 146.428Z" fill="#333"/>
<path d="M113.865 168.821C113.789 168.82 113.716 168.796 113.656 168.75C113.596 168.704 113.553 168.64 113.533 168.567C113.513 168.494 113.517 168.416 113.545 168.346C113.574 168.276 113.624 168.218 113.689 168.179C114.228 167.862 126.946 160.394 131.706 161.947C131.792 161.975 131.864 162.037 131.904 162.119C131.945 162.2 131.952 162.294 131.924 162.381C131.895 162.467 131.834 162.539 131.753 162.58C131.672 162.621 131.577 162.629 131.491 162.601C127.029 161.139 114.169 168.696 114.04 168.773C113.987 168.804 113.926 168.82 113.865 168.821Z" fill="#333"/>
<path d="M189.905 118.184L189.912 118.184L189.936 118.188L219.937 129.306L219.963 129.318C222.946 130.712 225.783 132.397 228.434 134.349C231.112 136.304 233.471 138.662 235.427 141.339C236.434 142.689 237.224 144.187 237.771 145.78C238.298 147.349 238.711 148.954 239.006 150.583C239.675 153.894 239.444 157.324 238.337 160.515C237.716 162.103 236.804 163.562 235.648 164.815C234.483 166.049 233.122 167.083 231.621 167.874C230.13 168.661 228.541 169.245 226.895 169.61C226.076 169.783 225.248 169.906 224.414 169.978L221.98 170.244C215.488 170.938 208.998 171.644 202.5 172.276C189.505 173.548 176.507 174.794 163.48 175.752C160.224 175.995 156.966 176.223 153.703 176.409C150.434 176.573 147.191 176.801 143.868 176.654C142.162 176.514 140.539 175.854 139.22 174.763C137.924 173.717 136.784 172.491 135.835 171.122C133.962 168.411 132.453 165.464 131.349 162.358C131.334 162.317 131.33 162.273 131.336 162.23C131.343 162.187 131.36 162.146 131.386 162.111C131.413 162.076 131.447 162.049 131.487 162.031C131.527 162.013 131.571 162.006 131.614 162.01L131.623 162.011C133.018 162.19 134.431 162.186 135.824 161.998C136.479 161.872 137.174 161.609 137.363 161.053C137.481 160.409 137.354 159.744 137.007 159.189C136.322 157.953 135.521 156.784 134.614 155.7C133.727 154.585 132.808 153.49 131.898 152.386C130.986 151.284 130.081 150.173 129.205 149.039C128.374 147.899 127.37 146.896 126.229 146.067C125.695 145.641 125.067 145.348 124.397 145.211C123.727 145.074 123.034 145.097 122.375 145.279C121.094 145.796 120.048 146.768 119.438 148.008L119.431 148.022C119.409 148.063 119.375 148.096 119.333 148.118C119.292 148.14 119.245 148.15 119.198 148.145C119.152 148.141 119.108 148.122 119.071 148.093C119.035 148.063 119.008 148.024 118.994 147.979C118.544 146.592 118.309 145.144 118.296 143.686C118.293 142.942 118.41 142.203 118.644 141.497C118.887 140.764 119.347 140.121 119.964 139.656L119.929 139.687C120.493 139.193 121.141 138.803 121.842 138.536C122.509 138.258 123.19 138.015 123.882 137.808C125.257 137.387 126.649 137.046 128.045 136.736C130.84 136.123 133.655 135.633 136.475 135.185C142.117 134.3 147.782 133.6 153.452 132.963C164.794 131.692 176.158 130.681 187.542 129.843L187.048 130.313C187.765 125.78 188.695 121.404 189.574 116.961L192.31 103.695L197.808 77.1682L198.062 77.8618C197.447 77.5202 196.781 77.28 196.09 77.1505C195.338 76.9785 194.566 76.8364 193.784 76.7225C192.224 76.486 190.64 76.3248 189.054 76.1834C185.88 75.9044 182.688 75.7397 179.495 75.595C173.107 75.3115 166.706 75.1799 160.304 75.1044C147.501 74.9561 134.687 75.0684 121.883 75.2457L122.346 75.0424C121.919 75.5774 121.589 76.1831 121.371 76.8321C121.109 77.5218 120.889 78.2429 120.691 78.973C120.298 80.4356 119.99 81.9355 119.712 83.441C119.164 86.456 118.747 89.5053 118.379 92.5601C117.651 98.6727 117.122 104.816 116.665 110.963C116.214 117.113 115.836 123.269 115.531 129.43C115.19 135.582 114.965 141.752 114.734 147.911L114.734 147.918C114.731 147.997 114.697 148.071 114.639 148.125C114.581 148.18 114.505 148.209 114.425 148.207L88.174 147.525C88.1559 147.524 88.1387 147.517 88.1262 147.504C88.1137 147.49 88.1068 147.473 88.1071 147.455C88.1074 147.437 88.1149 147.419 88.1279 147.407C88.1409 147.394 88.1583 147.387 88.1764 147.387L114.436 147.6L114.128 147.896C114.284 141.722 114.462 135.559 114.741 129.387C114.989 123.227 115.309 117.063 115.7 110.897C116.098 104.735 116.569 98.5764 117.242 92.4292C117.582 89.3559 117.972 86.2854 118.498 83.2246C118.766 81.6946 119.064 80.1668 119.457 78.6461C119.655 77.8858 119.878 77.1274 120.156 76.3722C120.425 75.5537 120.844 74.7927 121.392 74.1282C121.447 74.0665 121.514 74.0166 121.589 73.9818C121.663 73.9469 121.744 73.9277 121.827 73.9254L121.856 73.9247C128.267 73.759 134.675 73.7002 141.086 73.6529C147.497 73.6123 153.908 73.6193 160.319 73.6742C166.732 73.7394 173.145 73.8607 179.559 74.1349C182.767 74.2786 185.974 74.4683 189.182 74.7605C190.787 74.9105 192.391 75.08 193.997 75.3304C194.801 75.4512 195.605 75.6016 196.413 75.7902C197.299 75.9586 198.145 76.2885 198.911 76.7634C199.015 76.833 199.095 76.932 199.142 77.0478C199.19 77.1635 199.201 77.2907 199.175 77.4129L199.166 77.4574L193.557 103.954L190.74 117.2C189.825 121.605 188.842 126.059 188.106 130.436L188.102 130.464C188.082 130.582 188.022 130.69 187.934 130.771C187.845 130.851 187.731 130.899 187.612 130.907C176.24 131.639 164.87 132.545 153.533 133.712C147.866 134.311 142.205 134.974 136.573 135.821C133.759 136.249 130.95 136.72 128.17 137.311C126.782 137.61 125.4 137.939 124.045 138.344C123.37 138.542 122.706 138.774 122.055 139.04C121.419 139.277 120.83 139.621 120.311 140.059L120.302 140.068L120.276 140.089C119.743 140.488 119.345 141.041 119.134 141.672C118.915 142.323 118.804 143.006 118.804 143.693C118.809 145.095 119.027 146.488 119.45 147.825L119.006 147.796C119.677 146.446 120.828 145.394 122.233 144.847C122.958 144.648 123.719 144.623 124.455 144.774C125.192 144.925 125.882 145.247 126.47 145.715C127.638 146.58 128.673 147.612 129.54 148.779C130.417 149.904 131.324 151.006 132.24 152.103C133.154 153.2 134.079 154.291 134.977 155.41C135.911 156.516 136.736 157.709 137.442 158.973C137.858 159.644 137.997 160.45 137.83 161.222C137.677 161.615 137.384 161.938 137.007 162.128C136.665 162.302 136.3 162.425 135.923 162.494C134.481 162.7 133.019 162.714 131.573 162.535L131.848 162.188C132.941 165.238 134.449 168.124 136.329 170.764C137.257 172.071 138.368 173.239 139.627 174.232C140.85 175.226 142.35 175.818 143.922 175.928C147.124 176.031 150.406 175.768 153.65 175.564C156.902 175.34 160.153 175.075 163.403 174.794C176.4 173.642 189.392 172.396 202.378 171.058L221.856 169.081C223.468 168.885 225.138 168.81 226.65 168.49C228.197 168.154 229.692 167.613 231.095 166.881C233.926 165.462 236.143 163.059 237.331 160.123C238.382 157.115 238.608 153.881 237.986 150.756C237.711 149.17 237.324 147.606 236.831 146.074C236.331 144.57 235.6 143.152 234.665 141.872C232.791 139.249 230.522 136.931 227.939 135.002C225.351 133.052 222.578 131.363 219.659 129.958L219.684 129.969L189.887 118.317L189.912 118.322L189.905 118.322C189.887 118.322 189.869 118.314 189.856 118.301C189.843 118.288 189.836 118.271 189.836 118.253C189.836 118.234 189.843 118.217 189.856 118.204C189.869 118.191 189.887 118.184 189.905 118.184L189.905 118.184Z" fill="#333"/>
<path d="M121.869 74.5858C116.828 80.2887 114.431 147.904 114.431 147.904H119.224C119.224 147.904 117.22 141.967 120.12 139.873C125.389 134.446 187.577 130.375 187.577 130.375C187.715 129.184 188.645 124.445 189.912 118.253C193.121 102.487 198.487 77.3134 198.487 77.3134C193.032 73.0981 121.869 74.5858 121.869 74.5858Z" fill="#333"/>
<path d="M52.3778 148.475C51.5794 153.223 51.1612 158.028 51.1271 162.844C51.052 167.644 51.5114 172.438 52.497 177.136C53.5507 181.772 55.3781 186.352 58.591 189.824C60.2306 191.526 62.1323 192.954 64.2238 194.054L65.7856 194.923C66.3095 195.207 66.8598 195.449 67.3957 195.713C68.4707 196.238 69.5492 196.756 70.6608 197.21C75.0617 199.117 79.5851 200.764 84.1506 202.279C88.7126 203.807 93.3186 205.208 97.9396 206.561C107.177 209.3 116.503 211.686 125.855 214.072C128.249 214.709 130.492 215.819 132.451 217.336C134.411 218.852 136.047 220.746 137.263 222.904C137.864 223.979 138.361 225.109 138.749 226.278C139.103 227.449 139.37 228.644 139.548 229.854L140.734 236.989C142.367 246.493 143.946 256.006 145.643 265.499L155.834 322.453L155.356 322.041C162.471 322.144 169.603 322.049 176.704 321.669C180.254 321.48 183.8 321.213 187.309 320.751C189.055 320.528 190.787 320.214 192.501 319.812C193.34 319.614 194.165 319.363 194.973 319.059C195.718 318.8 196.405 318.396 196.992 317.869L196.818 318.348C196.311 306.152 195.704 293.953 195.072 281.76C194.432 269.566 193.641 257.382 192.842 245.199C192.006 233.019 191.048 220.845 189.731 208.71C189.071 202.644 188.296 196.59 187.325 190.569C186.83 187.561 186.282 184.559 185.545 181.603C185.19 180.124 184.745 178.667 184.214 177.241C183.95 176.532 183.624 175.846 183.242 175.192C183.081 174.858 182.856 174.558 182.58 174.311C182.303 174.063 181.981 173.873 181.631 173.75L181.625 173.749C181.607 173.745 181.592 173.735 181.582 173.72C181.571 173.705 181.568 173.686 181.571 173.668C181.575 173.651 181.585 173.635 181.6 173.625C181.615 173.614 181.634 173.611 181.652 173.614C182.027 173.732 182.375 173.923 182.676 174.176C182.976 174.43 183.223 174.741 183.402 175.092C183.806 175.747 184.153 176.437 184.438 177.152C185.005 178.576 185.486 180.033 185.878 181.516C186.686 184.47 187.303 187.469 187.867 190.474C188.981 196.489 189.781 202.553 190.53 208.618C191.996 220.754 193.102 232.927 194.085 245.107C195.089 257.286 195.809 269.484 196.5 281.682C197.191 293.882 197.748 306.087 198.172 318.299L198.173 318.321C198.176 318.405 198.162 318.489 198.132 318.568C198.101 318.646 198.056 318.718 197.997 318.779C197.269 319.463 196.404 319.984 195.459 320.309C194.596 320.63 193.712 320.894 192.814 321.101C191.053 321.505 189.272 321.818 187.478 322.039C183.912 322.489 180.339 322.738 176.766 322.909C169.618 323.214 162.477 323.222 155.33 323.037C155.215 323.034 155.104 322.992 155.017 322.916C154.93 322.841 154.872 322.738 154.852 322.624L145.193 265.577C143.582 256.07 141.853 246.582 140.177 237.086L138.882 229.97C138.692 228.797 138.415 227.64 138.054 226.508C137.665 225.393 137.172 224.317 136.58 223.295C135.393 221.258 133.81 219.478 131.925 218.061C130.04 216.644 127.891 215.617 125.604 215.043C116.225 212.842 106.867 210.424 97.5954 207.739C92.9543 206.409 88.3522 204.938 83.7755 203.389C79.1991 201.841 74.6605 200.159 70.224 198.206C69.1058 197.741 68.014 197.21 66.9254 196.671C66.3824 196.398 65.8285 196.151 65.2946 195.858L63.7016 194.96C61.5254 193.797 59.5573 192.281 57.8771 190.474C54.5529 186.77 52.7624 182.027 51.755 177.3C50.8093 172.54 50.4357 167.684 50.6422 162.835C50.7922 158.004 51.3274 153.193 52.2428 148.447C52.2463 148.429 52.2568 148.414 52.272 148.403C52.2871 148.393 52.3057 148.389 52.3236 148.393C52.3414 148.397 52.3569 148.408 52.367 148.423C52.3771 148.438 52.3809 148.457 52.3778 148.475Z" fill="#333"/>
<path d="M166.501 331.341C166.501 331.341 160.55 330.721 160.55 333.573C160.55 336.424 161.046 357.252 163.525 357.872C166.005 358.492 238.655 383.535 257.996 363.203C257.996 363.203 271.385 355.765 246.094 347.086C220.803 338.408 204.934 329.729 204.934 329.729C204.934 329.729 180.882 330.473 180.386 332.953C179.89 335.432 183.61 344.359 183.61 344.359C183.61 344.359 167.741 348.078 166.501 331.341Z" fill="#333"/>
<path d="M166.501 331.686C166.472 331.686 166.444 331.682 166.416 331.675C166.327 331.652 166.251 331.595 166.205 331.517C166.158 331.438 166.145 331.344 166.168 331.255C166.495 329.823 166.536 328.339 166.29 326.89C166.043 325.441 165.514 324.055 164.731 322.811C164.705 322.774 164.687 322.732 164.677 322.688C164.667 322.644 164.666 322.598 164.674 322.554C164.682 322.509 164.699 322.467 164.723 322.429C164.747 322.391 164.779 322.358 164.816 322.332C164.853 322.306 164.895 322.287 164.939 322.278C164.983 322.268 165.029 322.267 165.073 322.275C165.118 322.283 165.16 322.299 165.199 322.324C165.237 322.348 165.27 322.38 165.296 322.417C166.145 323.738 166.719 325.217 166.983 326.765C167.248 328.313 167.197 329.899 166.835 331.427C166.816 331.501 166.773 331.567 166.712 331.614C166.652 331.661 166.578 331.686 166.501 331.686Z" fill="#333"/>
<path d="M201.958 330.074L201.946 330.073C194.451 329.823 187.123 322.004 186.815 321.672C186.784 321.638 186.76 321.6 186.744 321.557C186.728 321.515 186.721 321.47 186.723 321.424C186.724 321.379 186.735 321.335 186.754 321.294C186.773 321.253 186.8 321.216 186.833 321.185C186.866 321.154 186.905 321.13 186.947 321.114C186.99 321.099 187.035 321.091 187.08 321.093C187.125 321.095 187.169 321.105 187.211 321.124C187.252 321.143 187.289 321.17 187.319 321.203C187.393 321.283 194.763 329.144 201.97 329.385C202.06 329.389 202.146 329.427 202.208 329.492C202.27 329.558 202.304 329.645 202.302 329.735C202.301 329.826 202.264 329.912 202.2 329.975C202.135 330.038 202.048 330.074 201.958 330.074V330.074Z" fill="#333"/>
<path d="M29.0809 144.815C29.0306 144.805 28.9808 144.805 28.931 144.795L28.871 144.735C28.9426 144.758 29.0127 144.784 29.0809 144.815Z" fill="white"/>
<path d="M50.8607 168.425V168.485C50.891 168.305 50.9208 168.135 50.951 167.955C50.9208 168.115 50.891 168.265 50.8607 168.425Z" fill="white"/>
<path d="M188.391 194.665V194.685C188.351 194.695 188.321 194.705 188.281 194.715C188.321 194.695 188.351 194.685 188.391 194.665Z" fill="white"/>
<path d="M19.0719 202.03L20.2494 222.739L21.3236 243.453C21.6901 250.357 22.1752 257.257 22.2948 264.17C22.3478 267.627 22.4005 271.084 22.3641 274.544L22.3068 279.734C22.2465 281.466 22.2248 283.196 22.13 284.929C22.1286 284.955 22.1176 284.979 22.0991 284.997C22.0806 285.015 22.0561 285.026 22.0302 285.027C22.0044 285.028 21.9791 285.019 21.9593 285.002C21.9396 284.986 21.9268 284.962 21.9235 284.937C21.7013 283.215 21.5524 281.491 21.3646 279.769L20.9249 274.597C20.6337 271.149 20.4318 267.698 20.2299 264.246C19.8397 257.343 19.8151 250.426 19.6718 243.514L19.2169 222.778L18.8654 202.038C18.865 202.011 18.8751 201.984 18.8937 201.965C18.9124 201.945 18.9379 201.934 18.9649 201.933C18.9919 201.932 19.0182 201.941 19.0382 201.959C19.0582 201.978 19.0703 202.003 19.0719 202.03V202.03Z" fill="#333"/>
<path d="M75.3573 241.21L75.9359 262.3L76.4113 283.391C76.578 290.421 76.8634 297.45 76.7831 304.482C76.7362 307.998 76.6891 311.514 76.5529 315.031L76.3454 320.307C76.235 322.065 76.1635 323.824 76.0187 325.583C76.0166 325.609 76.0048 325.633 75.9858 325.65C75.9668 325.668 75.942 325.678 75.9161 325.678C75.8902 325.678 75.8651 325.669 75.8458 325.651C75.8266 325.634 75.8145 325.61 75.8119 325.584C75.6398 323.828 75.5404 322.071 75.4025 320.314L75.1125 315.043C74.9211 311.528 74.819 308.013 74.717 304.498C74.5265 297.468 74.7018 290.435 74.7582 283.404L74.903 262.308L75.1508 241.211C75.1511 241.184 75.1621 241.159 75.1812 241.139C75.2004 241.12 75.2263 241.11 75.2533 241.109C75.2803 241.109 75.3063 241.12 75.3258 241.138C75.3453 241.157 75.3566 241.183 75.3573 241.21L75.3573 241.21Z" fill="#333"/>
<path d="M22.0268 285.05C26.8654 285.05 30.7878 284.31 30.7878 283.397C30.7878 282.484 26.8654 281.744 22.0268 281.744C17.1882 281.744 13.2658 282.484 13.2658 283.397C13.2658 284.31 17.1882 285.05 22.0268 285.05Z" fill="#333"/>
<path d="M75.5847 325.92C80.4233 325.92 84.3457 325.18 84.3457 324.267C84.3457 323.354 80.4233 322.614 75.5847 322.614C70.7461 322.614 66.8237 323.354 66.8237 324.267C66.8237 325.18 70.7461 325.92 75.5847 325.92Z" fill="#333"/>
<path d="M133.849 227.569L134.62 237.244L135.287 246.924C135.496 250.151 135.883 253.371 135.851 256.607C135.875 259.858 135.684 263.107 135.279 266.332C135.276 266.357 135.264 266.379 135.246 266.396C135.228 266.412 135.204 266.422 135.179 266.423C135.155 266.424 135.13 266.416 135.111 266.401C135.092 266.385 135.078 266.364 135.073 266.34C134.432 263.153 134.002 259.927 133.786 256.683C133.516 253.459 133.665 250.218 133.635 246.985L133.588 237.283L133.643 227.576C133.643 227.55 133.654 227.524 133.672 227.505C133.691 227.486 133.716 227.475 133.743 227.474C133.769 227.473 133.795 227.482 133.815 227.5C133.835 227.517 133.847 227.542 133.849 227.569Z" fill="#333"/>
<path d="M210.824 205.411L211.401 226.255L211.874 247.1C212.04 254.048 212.325 260.995 212.244 267.945C212.197 271.42 212.149 274.896 212.013 278.371L211.805 283.585C211.694 285.323 211.622 287.061 211.477 288.8C211.475 288.826 211.464 288.85 211.445 288.867C211.426 288.885 211.401 288.895 211.375 288.895C211.349 288.895 211.324 288.886 211.305 288.868C211.286 288.851 211.273 288.827 211.271 288.801C211.099 287.065 211 285.329 210.862 283.592L210.572 278.383C210.381 274.909 210.279 271.435 210.178 267.962C209.988 261.014 210.164 254.063 210.221 247.113L210.368 226.263L210.617 205.413C210.618 205.386 210.629 205.36 210.648 205.341C210.667 205.322 210.693 205.311 210.72 205.311C210.747 205.31 210.773 205.321 210.792 205.34C210.812 205.358 210.823 205.384 210.824 205.411V205.411Z" fill="#333"/>
<path d="M135.176 266.453C140.015 266.453 143.937 265.713 143.937 264.8C143.937 263.888 140.015 263.147 135.176 263.147C130.338 263.147 126.415 263.888 126.415 264.8C126.415 265.713 130.338 266.453 135.176 266.453Z" fill="#333"/>
<path d="M211.044 289.138C215.882 289.138 219.805 288.398 219.805 287.485C219.805 286.572 215.882 285.832 211.044 285.832C206.205 285.832 202.283 286.572 202.283 287.485C202.283 288.398 206.205 289.138 211.044 289.138Z" fill="#333"/>
<path d="M119.222 148.247H114.431C114.34 148.247 114.253 148.21 114.188 148.145C114.124 148.081 114.088 147.993 114.088 147.902C114.088 147.811 114.124 147.724 114.188 147.659C114.253 147.595 114.34 147.558 114.431 147.558H119.222C119.313 147.558 119.401 147.595 119.465 147.659C119.529 147.724 119.565 147.811 119.565 147.902C119.565 147.993 119.529 148.081 119.465 148.145C119.401 148.21 119.313 148.247 119.222 148.247Z" fill="#333"/>
<line x1="331" y1="564.5" x2="367" y2="564.5" stroke="white"/>
<g clip-path="url(#clip0)">
<path fill-rule="evenodd" clip-rule="evenodd" d="M149.722 94.748C149.837 95.6204 150.219 98.1236 150.486 99.0339C150.639 98.9201 150.754 98.7684 150.868 98.6167C150.486 96.9478 150.333 95.279 150.333 93.5723C147.926 94.5584 149.569 98.5029 150.219 100.02C150.333 99.8304 150.333 99.6407 150.295 99.4511C150.028 98.427 149.302 95.7721 149.684 94.748" fill="white"/>
<path fill-rule="evenodd" clip-rule="evenodd" d="M148.385 101.612C148.041 100.891 147.01 99.4501 146.589 98.7674C147.239 99.3363 148.27 100.967 149.034 101.802C149.073 101.081 148.691 100.626 148.27 100.019C147.774 99.1087 147.086 98.3502 146.245 97.7812H146.169C145.749 99.2604 146.78 100.284 147.621 101.081C147.85 101.346 148.041 101.726 148.385 101.612Z" fill="white"/>
<path fill-rule="evenodd" clip-rule="evenodd" d="M151.327 99.2607C150.181 99.9814 150.83 101.878 151.25 102.712C151.556 102.029 151.097 101.005 151.059 100.361C151.25 100.588 151.365 101.461 151.632 101.688C151.632 101.574 151.709 101.498 151.785 101.423C151.479 100.74 151.327 100.019 151.327 99.2607Z" fill="white"/>
<path fill-rule="evenodd" clip-rule="evenodd" d="M145.711 100.324C146.322 100.817 147.353 101.765 147.926 102.296C148.041 102.258 147.965 102.03 148.041 101.879C146.895 101.158 146.589 99.8305 145.061 99.4512C145.099 101.31 146.742 102.03 147.812 103.092C147.965 103.054 148.117 103.054 148.27 103.092C147.621 102.258 146.398 101.158 145.711 100.324Z" fill="white"/>
<path fill-rule="evenodd" clip-rule="evenodd" d="M144.297 101.271C144.373 103.053 146.207 103.47 147.621 104.229C147.239 103.432 145.596 102.674 144.985 102.029C145.558 102.332 146.704 103.129 147.239 103.432C147.353 103.432 147.353 103.281 147.506 103.167C146.475 102.56 145.863 101.384 144.297 101.271Z" fill="white"/>
<path fill-rule="evenodd" clip-rule="evenodd" d="M147.888 103.926C147.888 104.836 148.958 104.988 149.722 105.405C149.798 104.836 148.576 104.609 148.385 104.229C148.882 104.343 149.798 105.064 150.295 104.874C149.646 104.533 148.843 103.471 147.888 103.926Z" fill="white"/>
<path fill-rule="evenodd" clip-rule="evenodd" d="M143.686 103.395C143.915 104.761 145.863 104.874 147.124 105.481C147.315 105.481 147.01 105.254 147.048 105.102C146.436 104.836 145.405 104.381 144.832 104.078C145.596 104.268 146.36 104.533 147.124 104.836C147.201 104.723 147.392 104.723 147.43 104.533C146.284 104.116 145.138 103.092 143.686 103.395Z" fill="white"/>
<path fill-rule="evenodd" clip-rule="evenodd" d="M148.385 105.139C148.079 104.987 147.697 105.101 147.544 105.405C147.659 106.163 149.149 106.087 149.722 106.391C149.722 106.353 149.76 106.277 149.837 106.277C149.264 106.012 148.691 105.746 148.079 105.556C148.652 105.632 149.187 105.746 149.76 105.974C149.875 105.898 149.76 105.708 149.722 105.632C149.264 105.481 148.843 105.329 148.385 105.139Z" fill="white"/>
<path fill-rule="evenodd" clip-rule="evenodd" d="M143.609 105.253C143.724 106.239 145.023 106.277 146.284 106.391C146.589 106.391 147.048 106.619 147.048 106.201C146.436 106.088 145.29 105.822 144.717 105.67C145.329 105.595 146.819 106.088 147.353 105.936C146.36 105.708 144.373 104.457 143.609 105.253Z" fill="white"/>
<path fill-rule="evenodd" clip-rule="evenodd" d="M147.583 106.657C147.774 107.416 148.805 107.188 149.455 107.074C149.34 106.809 148.232 106.809 147.965 106.657C148.194 106.467 149.416 106.923 149.531 106.543C148.843 106.392 147.85 105.937 147.583 106.657Z" fill="white"/>
<path fill-rule="evenodd" clip-rule="evenodd" d="M143.686 107.453C144.832 108.287 146.284 107.377 147.468 107.301C147.315 106.96 146.78 107.112 146.398 107.15C146.016 107.188 145.176 107.263 144.794 107.263C145.558 107.112 146.322 106.998 147.086 106.922C147.086 106.846 147.048 106.808 146.971 106.77C145.749 106.657 144.068 106.353 143.686 107.453Z" fill="white"/>
<path fill-rule="evenodd" clip-rule="evenodd" d="M148.003 108.25C148.614 108.667 148.958 108.364 149.455 108.061C149.722 107.909 150.066 107.795 150.104 107.605C149.722 107.681 148.805 107.909 148.423 107.985C148.461 107.833 149.455 107.53 149.646 107.454C149.646 107.378 149.607 107.378 149.646 107.34C148.996 107.264 148.041 107.264 148.003 108.25Z" fill="white"/>
<path fill-rule="evenodd" clip-rule="evenodd" d="M145.978 110.26C146.475 109.691 147.506 109.236 148.079 108.743C147.583 108.553 146.933 109.009 146.398 109.312C145.863 109.615 145.023 109.881 145.176 110.753C145.825 111.36 146.36 110.677 146.933 110.298C147.392 109.995 148.079 109.729 148.003 109.236C147.392 109.388 146.551 109.995 145.978 110.26Z" fill="white"/>
<path fill-rule="evenodd" clip-rule="evenodd" d="M153.16 109.957C153.046 109.957 152.969 109.957 152.855 109.995C152.664 110.26 152.473 111.208 152.32 111.474C152.205 111.17 152.702 110.07 152.473 109.881C152.129 110.412 151.479 111.436 152.205 111.853C152.931 111.777 153.046 110.867 153.16 109.957Z" fill="white"/>
<path fill-rule="evenodd" clip-rule="evenodd" d="M154.192 110.07C154.077 110.07 154.001 110.108 153.886 110.146C153.772 110.412 153.734 111.36 153.619 111.663C153.466 111.398 153.772 110.222 153.504 110.07C153.275 110.639 152.817 111.777 153.581 112.043C154.307 111.853 154.268 110.943 154.192 110.07Z" fill="white"/>
<path fill-rule="evenodd" clip-rule="evenodd" d="M147.201 111.436C147.392 110.943 148.27 110.298 148.576 109.805C148.5 109.767 148.423 109.767 148.385 109.691C147.926 110.222 146.131 110.791 146.589 111.929C146.704 111.967 146.857 112.005 147.01 112.043C147.353 112.157 147.583 111.891 147.812 111.664C148.041 111.436 148.27 111.133 148.5 110.867C148.614 110.715 148.767 110.564 148.92 110.45C148.843 110.336 148.92 109.995 148.767 110.071C148.27 110.564 147.735 111.019 147.201 111.436Z" fill="white"/>
<path fill-rule="evenodd" clip-rule="evenodd" d="M149.531 109.767C149.378 109.88 149.493 110.146 149.493 110.26C149.646 110.146 149.531 109.918 149.531 109.767Z" fill="white"/>
<path fill-rule="evenodd" clip-rule="evenodd" d="M149.798 110.829C149.569 111.284 149.264 111.739 148.882 112.081C148.996 111.588 149.378 111.17 149.493 110.677L149.034 110.602C148.767 111.208 147.888 111.891 148.5 112.536C148.576 112.65 148.805 112.612 148.92 112.612C149.073 112.612 149.225 112.498 149.302 112.346C149.531 111.967 149.722 111.55 149.951 111.133C149.913 110.981 149.875 110.829 149.76 110.753" fill="white"/>
<path fill-rule="evenodd" clip-rule="evenodd" d="M148.079 95.6953C146.398 97.1745 148.461 99.6777 149.264 100.74C149.378 100.285 148.92 99.7915 148.767 99.4122C148.614 99.033 148.156 97.7813 148.003 97.3641C148.576 98.1227 149.264 100.285 150.219 100.853C149.913 100.171 149.607 99.4502 149.264 98.6916C149.111 98.3503 148.27 96.4159 148.079 95.6953Z" fill="white"/>
<path fill-rule="evenodd" clip-rule="evenodd" d="M148.958 102.94C149.455 103.281 149.951 103.623 150.41 104.04C150.372 103.433 149.646 102.826 149.378 102.636C149.378 102.636 148.767 102.219 148.538 102.447C148.347 103.812 149.684 104.04 150.372 104.722C150.41 104.116 149.187 103.433 148.958 102.94Z" fill="white"/>
<path fill-rule="evenodd" clip-rule="evenodd" d="M148.958 109.198C149.646 109.691 150.104 108.933 150.486 108.591C150.104 108.326 149.607 108.857 149.302 108.971C149.302 108.629 150.257 108.516 150.142 108.022C149.722 108.25 148.767 108.516 148.958 109.198Z" fill="white"/>
<path fill-rule="evenodd" clip-rule="evenodd" d="M151.938 110.184C152.014 109.843 152.282 109.729 152.091 109.464C151.709 109.578 151.403 110.602 151.021 110.791C151.212 110.374 151.403 109.919 151.632 109.54C151.479 109.578 151.403 109.616 151.288 109.502C151.136 110.071 150.295 110.602 150.792 111.171C150.906 110.981 151.556 111.398 151.938 110.184Z" fill="white"/>
<path fill-rule="evenodd" clip-rule="evenodd" d="M144.106 109.16C144.45 107.605 146.436 108.211 147.583 107.643C147.392 108.022 146.857 108.06 146.436 108.249C146.016 108.439 145.138 108.667 144.832 108.856C145.52 108.705 146.742 108.287 147.43 108.174C147.43 108.325 147.315 108.325 147.353 108.477C146.436 108.553 145.405 109.691 144.526 109.425H144.488C144.297 109.387 144.259 109.236 144.106 109.198" fill="white"/>
<path fill-rule="evenodd" clip-rule="evenodd" d="M150.257 109.236L150.486 109.046C150.677 108.895 150.83 108.629 151.021 108.819C150.792 109.084 150.066 109.805 149.837 110.108C150.142 109.957 150.83 109.198 151.174 109.046C151.174 109.539 150.333 110.601 149.76 110.412L149.607 110.336L149.569 110.26C149.531 110.108 149.531 109.994 149.531 109.843C149.531 109.729 150.257 109.236 150.257 109.236Z" fill="white"/>
<path fill-rule="evenodd" clip-rule="evenodd" d="M149.607 101.157C149.607 101.119 149.684 101.081 149.684 101.081C150.486 101.764 151.059 102.674 151.288 103.698L151.021 103.66C150.677 103.015 150.295 102.409 149.875 101.802C150.142 102.409 150.448 103.015 150.792 103.622H150.524C150.142 102.864 149.187 102.371 149.607 101.157Z" fill="white"/>
<path fill-rule="evenodd" clip-rule="evenodd" d="M150.486 106.467C150.792 106.429 151.136 106.733 151.25 106.505C150.792 106.24 150.142 106.126 150.333 105.367C150.945 105.064 151.365 105.784 151.747 105.822C151.479 105.291 150.677 104.988 150.945 104.116C152.014 104.116 152.014 105.102 152.32 105.216C152.244 105.216 152.205 104.685 152.167 104.609C152.053 104.267 151.747 104.002 151.709 103.661C151.709 103.395 151.747 103.13 151.823 102.902C151.862 102.599 152.053 102.295 152.32 102.105C152.435 103.167 153.275 104.078 153.237 105.253C153.199 106.315 151.9 105.747 151.785 106.809C151.823 107.415 152.205 107.946 152.778 108.174C153.351 108.288 153.886 108.364 154.459 108.401C154.498 108.705 154.536 109.35 154.154 109.577C154.001 109.691 153.81 109.653 153.657 109.501C153.543 109.35 153.504 109.198 153.543 109.008C153.543 108.932 153.543 108.857 153.543 108.781C153.504 108.705 153.466 108.667 153.428 108.591C153.275 108.932 153.351 109.35 153.008 109.539C152.931 109.615 152.817 109.615 152.702 109.615C152.549 109.426 152.396 109.426 152.358 109.16C152.358 108.932 152.74 108.553 152.473 108.326C152.129 109.236 151.709 109.008 151.594 109.16C151.136 108.743 151.747 108.288 151.823 107.984C151.403 108.174 151.136 108.819 150.601 108.288C150.601 108.098 150.601 107.946 150.639 107.757C150.792 107.491 151.212 107.605 151.327 107.302C151.059 107.112 150.715 107.567 150.41 107.491C150.142 107.415 149.951 107.112 150.066 106.846C150.181 106.695 150.333 106.543 150.486 106.467Z" fill="white"/>
<path fill-rule="evenodd" clip-rule="evenodd" d="M164.278 94.748C164.163 95.6204 163.781 98.1236 163.514 99.0339C163.361 98.9201 163.246 98.7684 163.132 98.6167C163.514 96.9478 163.667 95.279 163.667 93.5723C166.074 94.5584 164.431 98.5029 163.781 100.02C163.705 99.8304 163.667 99.6407 163.705 99.4511C163.972 98.427 164.698 95.7721 164.316 94.748" fill="white"/>
<path fill-rule="evenodd" clip-rule="evenodd" d="M165.577 101.612C165.921 100.891 166.99 99.4501 167.372 98.7674C166.723 99.3363 165.692 100.967 164.927 101.802C164.889 101.081 165.271 100.626 165.692 100.019C166.188 99.1087 166.876 98.3502 167.716 97.7812H167.793C168.213 99.2604 167.181 100.284 166.341 101.081C166.15 101.309 165.959 101.726 165.577 101.612Z" fill="white"/>
<path fill-rule="evenodd" clip-rule="evenodd" d="M162.712 99.2607C163.858 99.9814 163.17 101.878 162.75 102.712C162.444 102.029 162.903 101.005 162.941 100.361C162.75 100.588 162.635 101.461 162.406 101.688C162.406 101.574 162.33 101.498 162.253 101.423C162.482 100.74 162.673 100.019 162.712 99.2607Z" fill="white"/>
<path fill-rule="evenodd" clip-rule="evenodd" d="M168.251 100.324C167.64 100.817 166.608 101.765 166.035 102.296C165.921 102.258 165.997 102.03 165.921 101.879C167.067 101.158 167.372 99.8305 168.901 99.4512C168.862 101.31 167.22 102.03 166.15 103.092C165.997 103.054 165.844 103.054 165.691 103.092C166.379 102.258 167.602 101.158 168.251 100.324Z" fill="white"/>
<path fill-rule="evenodd" clip-rule="evenodd" d="M169.703 101.271C169.627 103.053 167.793 103.47 166.379 104.229C166.761 103.432 168.404 102.674 168.977 102.029C168.404 102.332 167.258 103.129 166.685 103.394C166.608 103.394 166.57 103.243 166.456 103.129C167.525 102.56 168.098 101.384 169.703 101.271Z" fill="white"/>
<path fill-rule="evenodd" clip-rule="evenodd" d="M166.112 103.926C166.112 104.836 165.042 104.988 164.278 105.405C164.202 104.836 165.462 104.609 165.615 104.229C165.118 104.343 164.202 105.064 163.705 104.874C164.354 104.533 165.157 103.471 166.112 103.926Z" fill="white"/>
<path fill-rule="evenodd" clip-rule="evenodd" d="M170.352 103.395C170.123 104.761 168.175 104.874 166.914 105.481C166.723 105.481 167.029 105.254 166.99 105.102C167.602 104.836 168.633 104.381 169.206 104.078C168.442 104.268 167.678 104.533 166.914 104.836C166.838 104.723 166.647 104.723 166.608 104.533C167.755 104.116 168.901 103.092 170.352 103.395Z" fill="white"/>
<path fill-rule="evenodd" clip-rule="evenodd" d="M154.841 116.1C154.498 115.683 154.956 115.114 155.109 114.583C155.147 114.545 155.147 114.697 155.224 114.697C155.109 114.963 155.032 115.342 154.956 115.607C155.071 115.342 155.185 115.038 155.3 114.773C155.376 114.773 155.415 114.735 155.453 114.773C155.3 115.19 155.3 115.759 154.841 116.1Z" fill="white"/>
<path fill-rule="evenodd" clip-rule="evenodd" d="M155.338 118.377C156.102 118.149 156.026 116.404 156.255 115.229C156.255 115.077 156.14 115.342 156.064 115.304C155.949 115.873 155.758 116.784 155.644 117.315C155.644 116.822 155.835 115.76 155.911 115.266C155.835 115.191 155.835 115.039 155.72 115.001C155.529 116.025 155.032 117.087 155.338 118.377Z" fill="white"/>
<path fill-rule="evenodd" clip-rule="evenodd" d="M159.159 116.1C159.502 115.683 159.044 115.114 158.891 114.583C158.853 114.545 158.853 114.697 158.776 114.697C158.853 114.925 158.968 115.342 159.044 115.569C158.929 115.304 158.815 115 158.7 114.735C158.624 114.735 158.585 114.697 158.547 114.735C158.7 115.19 158.7 115.759 159.159 116.1Z" fill="white"/>
<path fill-rule="evenodd" clip-rule="evenodd" d="M158.7 118.377C157.936 118.149 158.012 116.404 157.783 115.229C157.783 115.077 157.898 115.342 157.974 115.304C158.089 115.873 158.28 116.784 158.394 117.315C158.394 116.822 158.203 115.76 158.127 115.266C158.203 115.191 158.203 115.039 158.318 115.001C158.471 116.025 158.968 117.087 158.7 118.377Z" fill="white"/>
<path fill-rule="evenodd" clip-rule="evenodd" d="M165.577 105.139C165.883 104.987 166.265 105.101 166.417 105.405C166.303 106.163 164.813 106.087 164.24 106.391C164.24 106.353 164.202 106.277 164.125 106.277C164.698 106.012 165.271 105.746 165.883 105.556C165.309 105.632 164.736 105.746 164.202 105.974C164.087 105.898 164.202 105.708 164.24 105.632C164.698 105.481 165.157 105.329 165.577 105.139Z" fill="white"/>
<path fill-rule="evenodd" clip-rule="evenodd" d="M170.352 105.253C170.238 106.239 168.939 106.277 167.678 106.391C167.372 106.391 166.914 106.619 166.914 106.201C167.525 106.088 168.671 105.822 169.245 105.67C168.633 105.595 167.143 106.088 166.608 105.936C167.64 105.708 169.627 104.457 170.352 105.253Z" fill="white"/>
<path fill-rule="evenodd" clip-rule="evenodd" d="M166.417 106.657C166.226 107.416 165.195 107.188 164.545 107.074C164.66 106.809 165.768 106.809 166.035 106.657C165.806 106.467 164.584 106.923 164.507 106.543C165.157 106.392 166.15 105.937 166.417 106.657Z" fill="white"/>
<path fill-rule="evenodd" clip-rule="evenodd" d="M170.314 107.453C169.168 108.287 167.716 107.377 166.57 107.301C166.723 106.96 167.258 107.112 167.64 107.15C168.022 107.188 168.862 107.263 169.244 107.263C168.48 107.112 167.716 106.998 166.952 106.922C166.952 106.846 166.99 106.808 167.067 106.77C168.251 106.657 169.932 106.353 170.314 107.453Z" fill="white"/>
<path fill-rule="evenodd" clip-rule="evenodd" d="M165.997 108.25C165.386 108.667 165.042 108.364 164.545 108.061C164.278 107.909 163.934 107.795 163.896 107.605C164.278 107.681 165.195 107.909 165.577 107.985C165.539 107.833 164.545 107.53 164.354 107.454C164.354 107.378 164.393 107.378 164.354 107.34C165.004 107.264 165.959 107.264 165.997 108.25Z" fill="white"/>
<path fill-rule="evenodd" clip-rule="evenodd" d="M167.984 110.26C167.487 109.691 166.456 109.236 165.883 108.743C166.379 108.553 167.029 109.009 167.563 109.312C168.098 109.615 168.939 109.881 168.786 110.715C168.137 111.322 167.602 110.639 167.029 110.26C166.57 109.957 165.883 109.691 165.959 109.198C166.608 109.35 167.449 109.957 167.984 110.26Z" fill="white"/>
<path fill-rule="evenodd" clip-rule="evenodd" d="M160.84 109.957C160.954 109.957 161.031 109.957 161.145 109.995C161.298 110.26 161.527 111.208 161.68 111.474C161.795 111.17 161.298 110.07 161.527 109.881C161.871 110.412 162.521 111.436 161.795 111.853C161.069 111.777 160.954 110.867 160.84 109.957Z" fill="white"/>
<path fill-rule="evenodd" clip-rule="evenodd" d="M159.77 110.07C159.884 110.07 159.961 110.108 160.075 110.146C160.19 110.412 160.228 111.36 160.343 111.663C160.496 111.398 160.19 110.222 160.457 110.07C160.687 110.639 161.145 111.777 160.381 112.043C159.693 111.853 159.732 110.943 159.77 110.07Z" fill="white"/>
<path fill-rule="evenodd" clip-rule="evenodd" d="M166.838 111.436C166.647 110.943 165.768 110.298 165.462 109.805C165.539 109.767 165.615 109.767 165.653 109.691C166.112 110.222 167.907 110.791 167.449 111.929C167.334 111.967 167.181 112.005 167.029 112.043C166.685 112.157 166.456 111.891 166.226 111.664C165.997 111.436 165.768 111.133 165.539 110.867C165.424 110.715 165.271 110.564 165.118 110.45C165.195 110.336 165.118 109.995 165.271 110.071C165.73 110.564 166.265 111.019 166.838 111.436Z" fill="white"/>
<path fill-rule="evenodd" clip-rule="evenodd" d="M164.431 109.767C164.584 109.88 164.469 110.146 164.469 110.26C164.316 110.146 164.469 109.918 164.431 109.767Z" fill="white"/>
<path fill-rule="evenodd" clip-rule="evenodd" d="M164.163 110.829C164.393 111.284 164.698 111.739 165.08 112.081C164.966 111.588 164.584 111.17 164.469 110.677L164.927 110.602C165.195 111.208 166.074 111.891 165.462 112.536C165.386 112.65 165.157 112.612 165.042 112.612C164.889 112.612 164.736 112.498 164.66 112.346C164.431 111.967 164.24 111.55 164.01 111.133C164.049 110.981 164.087 110.829 164.202 110.753" fill="white"/>
<path fill-rule="evenodd" clip-rule="evenodd" d="M165.921 95.6953C167.602 97.1745 165.539 99.6777 164.736 100.74C164.622 100.285 165.08 99.7915 165.233 99.4122C165.386 99.033 165.844 97.7813 165.997 97.3641C165.424 98.1227 164.736 100.285 163.781 100.853C164.087 100.171 164.393 99.4502 164.736 98.6916C164.889 98.3503 165.73 96.4159 165.921 95.6953Z" fill="white"/>
<path fill-rule="evenodd" clip-rule="evenodd" d="M165.042 102.94C164.545 103.281 164.049 103.623 163.59 104.04C163.628 103.433 164.354 102.826 164.622 102.636C164.622 102.636 165.233 102.219 165.5 102.447C165.691 103.812 164.354 104.04 163.628 104.722C163.514 104.116 164.775 103.433 165.042 102.94Z" fill="white"/>
<path fill-rule="evenodd" clip-rule="evenodd" d="M165.042 109.198C164.354 109.691 163.896 108.933 163.514 108.591C163.896 108.326 164.393 108.857 164.698 108.971C164.698 108.629 163.743 108.516 163.858 108.022C164.278 108.25 165.195 108.516 165.042 109.198Z" fill="white"/>
<path fill-rule="evenodd" clip-rule="evenodd" d="M162.062 110.184C161.986 109.843 161.718 109.729 161.909 109.464C162.291 109.578 162.597 110.602 162.979 110.791C162.788 110.374 162.597 109.957 162.368 109.54C162.521 109.578 162.597 109.616 162.712 109.502C162.864 110.071 163.705 110.602 163.208 111.171C163.094 110.981 162.406 111.398 162.062 110.184Z" fill="white"/>
<path fill-rule="evenodd" clip-rule="evenodd" d="M169.894 109.16C169.55 107.605 167.563 108.211 166.456 107.643C166.647 108.022 167.181 108.06 167.563 108.249C167.946 108.439 168.862 108.667 169.168 108.856C168.48 108.705 167.22 108.287 166.532 108.136C166.532 108.287 166.647 108.287 166.608 108.439C167.525 108.515 168.557 109.653 169.436 109.387H169.474C169.627 109.349 169.703 109.198 169.856 109.16" fill="white"/>
<path fill-rule="evenodd" clip-rule="evenodd" d="M163.781 109.236C163.705 109.16 163.628 109.122 163.552 109.046C163.361 108.895 163.208 108.629 163.017 108.819C163.246 109.084 163.972 109.805 164.202 110.108C163.896 109.957 163.208 109.198 162.864 109.046C162.864 109.539 163.705 110.601 164.278 110.412L164.431 110.336L164.469 110.26C164.507 110.108 164.507 109.994 164.507 109.843C164.507 109.729 163.781 109.236 163.781 109.236Z" fill="white"/>
<path fill-rule="evenodd" clip-rule="evenodd" d="M164.354 101.157C164.354 101.119 164.316 101.081 164.278 101.081C163.476 101.764 162.903 102.674 162.673 103.698L162.941 103.66C163.285 103.015 163.667 102.409 164.087 101.802C163.819 102.446 163.514 103.053 163.17 103.622H163.437C163.858 102.902 164.775 102.371 164.354 101.157Z" fill="white"/>
<path fill-rule="evenodd" clip-rule="evenodd" d="M163.552 106.467C163.246 106.429 162.903 106.733 162.788 106.505C163.246 106.24 163.896 106.126 163.667 105.367C163.055 105.064 162.673 105.784 162.253 105.822C162.521 105.291 163.323 104.988 163.017 104.116C161.947 104.116 161.986 105.102 161.642 105.216C161.718 105.216 161.756 104.685 161.795 104.609C161.909 104.267 162.215 104.002 162.253 103.661C162.253 103.395 162.215 103.13 162.139 102.902C162.1 102.599 161.909 102.295 161.642 102.105C161.527 103.167 160.687 104.078 160.725 105.253C160.763 106.315 162.062 105.747 162.177 106.809C162.139 107.415 161.756 107.946 161.183 108.174C160.61 108.288 160.075 108.364 159.502 108.401C159.464 108.705 159.426 109.35 159.808 109.577C159.961 109.691 160.152 109.653 160.305 109.501C160.419 109.35 160.458 109.198 160.419 109.008C160.419 108.932 160.419 108.857 160.419 108.781C160.458 108.705 160.496 108.667 160.534 108.591C160.687 108.932 160.61 109.35 160.954 109.539C161.031 109.615 161.145 109.615 161.26 109.615C161.413 109.426 161.565 109.426 161.604 109.16C161.642 108.932 161.222 108.553 161.489 108.326C161.833 109.236 162.253 109.008 162.368 109.16C162.826 108.743 162.215 108.288 162.139 107.984C162.559 108.174 162.826 108.819 163.399 108.288C163.399 108.098 163.399 107.946 163.361 107.757C163.208 107.491 162.788 107.605 162.673 107.302C162.941 107.112 163.285 107.567 163.59 107.491C163.858 107.415 164.049 107.112 163.934 106.846C163.82 106.695 163.705 106.543 163.552 106.467Z" fill="white"/>
<path fill-rule="evenodd" clip-rule="evenodd" d="M157.516 115.455C157.363 115.455 157.287 115.645 157.172 115.683C157.134 116.366 157.134 117.807 157.019 118.452C156.904 117.769 156.904 116.366 156.866 115.683C156.713 115.645 156.675 115.417 156.522 115.455C156.599 116.859 156.102 118.452 156.904 120.007L157.057 120.272L157.21 120.007C157.936 118.452 157.478 116.821 157.516 115.455Z" fill="white"/>
<path fill-rule="evenodd" clip-rule="evenodd" d="M158.853 105.329C159.159 105.329 159.388 105.253 159.464 105.443C158.929 105.329 158.356 105.784 158.28 105.443C158.28 105.746 157.936 105.784 157.86 106.05C157.707 106.505 157.936 107.036 158.394 107.188C158.394 107.188 158.394 107.188 158.433 107.188C158.547 107.226 158.662 107.226 158.777 107.226C158.7 107.453 158.471 107.757 158.165 107.567C158.28 107.681 158.433 107.794 158.547 107.946L157.019 108.439L155.415 107.908C155.453 107.794 155.453 107.643 155.453 107.529C155.453 107.112 155.606 106.695 155.835 106.315C155.644 106.391 155.147 106.391 155.109 106.201C155.873 105.822 155.873 104.571 156.637 104.191C156.331 104.191 156.217 103.888 156.14 103.698C156.79 104.078 159.082 103.281 159.235 104.115C159.273 104.381 159.006 104.457 159.044 104.609C159.197 104.495 159.35 104.381 159.464 104.229C159.884 104.305 160.152 104.722 160.075 105.14C160.037 105.253 159.999 105.367 159.923 105.443C159.693 105.102 159.197 105.064 158.853 105.329ZM157.936 104.229C157.63 104.229 158.051 104.646 158.242 104.609C158.433 104.571 158.585 104.267 158.853 104.419C158.853 104.191 158.356 104.191 157.936 104.229Z" fill="white"/>
<path fill-rule="evenodd" clip-rule="evenodd" d="M159.464 111.892C159.235 111.247 159.159 110.564 159.273 109.919C159.082 109.426 159.006 108.895 159.044 108.364C158.394 108.668 157.707 108.857 157.019 109.009C156.331 108.857 155.644 108.63 154.994 108.364C155.032 108.895 154.956 109.426 154.765 109.919C154.88 110.602 154.803 111.285 154.574 111.892C154.574 111.892 154.192 113.94 155.911 114.547C157.63 115.153 156.408 115.153 158.127 114.547C159.846 113.94 159.426 111.892 159.464 111.892ZM158.28 109.161C158.356 109.388 158.433 109.843 158.547 110.033C158.509 109.768 158.433 109.388 158.394 109.123C158.471 109.123 158.471 108.971 158.509 109.009C158.585 109.54 159.006 110.147 158.624 110.526C158.203 110.147 158.28 109.54 158.165 109.123C158.165 109.123 158.203 109.161 158.28 109.161ZM155.453 109.009C155.491 108.933 155.491 109.085 155.567 109.123C155.529 109.388 155.453 109.768 155.415 110.033C155.529 109.73 155.606 109.464 155.682 109.161C155.758 109.161 155.797 109.123 155.835 109.123C155.72 109.578 155.797 110.147 155.376 110.526C154.994 110.147 155.376 109.54 155.453 109.009ZM155.071 112.954C154.689 112.574 155.071 111.967 155.185 111.436C155.223 111.398 155.223 111.512 155.3 111.55C155.262 111.816 155.185 112.233 155.147 112.46C155.262 112.157 155.338 111.892 155.376 111.588C155.453 111.588 155.453 111.55 155.529 111.55C155.415 112.005 155.491 112.574 155.071 112.954ZM155.758 114.091C155.376 113.712 155.758 113.105 155.873 112.574C155.911 112.536 155.911 112.65 155.988 112.688C155.949 112.954 155.873 113.371 155.835 113.598C155.949 113.295 156.026 113.029 156.102 112.726C156.179 112.726 156.179 112.65 156.255 112.688C156.102 113.105 156.179 113.712 155.758 114.091ZM156.026 111.854C155.644 111.474 156.026 110.867 156.14 110.337C156.179 110.261 156.179 110.412 156.255 110.45C156.217 110.716 156.14 111.133 156.102 111.361C156.217 111.057 156.293 110.792 156.331 110.488C156.408 110.488 156.446 110.45 156.484 110.488C156.37 110.905 156.446 111.512 156.026 111.854ZM157.057 114.395L157.019 114.509L156.943 114.395C156.752 113.902 156.713 113.371 156.79 112.878C156.866 112.878 156.866 112.954 156.904 112.954C156.904 113.257 156.904 113.56 156.981 113.864C157.019 113.56 157.019 113.257 157.057 112.954C157.096 112.954 157.134 112.878 157.21 112.878C157.287 113.371 157.21 113.902 157.057 114.395ZM157.019 112.157L156.981 112.233L156.904 112.157C156.599 111.74 156.79 111.323 156.752 110.981C156.828 110.981 156.828 111.019 156.866 111.057C156.866 111.285 156.904 111.55 156.904 111.778C156.943 111.55 156.943 111.285 156.981 111.057C157.019 111.057 157.057 110.981 157.134 110.981C157.172 111.361 157.325 111.74 157.019 112.157ZM157.019 110.109L156.943 110.147L156.904 110.109C156.599 109.843 156.79 109.578 156.752 109.35C156.828 109.35 156.828 109.388 156.904 109.388C156.904 109.54 156.943 109.73 156.981 109.881C157.019 109.73 157.019 109.578 157.057 109.426C157.096 109.426 157.134 109.388 157.172 109.388C157.172 109.616 157.325 109.881 157.019 110.109ZM157.592 110.526C157.669 110.83 157.745 111.095 157.86 111.398C157.821 111.171 157.745 110.754 157.707 110.488C157.783 110.488 157.783 110.337 157.821 110.374C157.898 110.905 158.318 111.512 157.936 111.892C157.516 111.512 157.592 110.905 157.478 110.488H157.63L157.592 110.526ZM158.165 114.091C157.745 113.712 157.821 113.105 157.707 112.688C157.783 112.688 157.821 112.726 157.86 112.726C157.936 113.029 158.012 113.295 158.089 113.598C158.051 113.371 157.974 112.954 157.936 112.688C158.012 112.688 157.974 112.536 158.051 112.574C158.127 113.105 158.547 113.712 158.165 114.091ZM158.815 112.954C158.394 112.574 158.471 111.967 158.356 111.55C158.433 111.55 158.471 111.588 158.509 111.588C158.585 111.892 158.662 112.195 158.776 112.46C158.738 112.233 158.662 111.816 158.624 111.55C158.7 111.55 158.7 111.398 158.738 111.436C158.815 111.967 159.235 112.574 158.815 112.954Z" fill="white"/>
<path fill-rule="evenodd" clip-rule="evenodd" d="M162.253 116.594C162.559 116.214 162.1 115.949 161.718 115.987C161.795 115.797 162.024 115.721 162.215 115.797C162.215 115.797 162.215 115.797 162.253 115.797C162.291 115.797 162.33 115.835 162.33 115.873C162.33 115.039 161.489 115.304 161.222 115.949C160.763 115.494 160.381 115.001 159.884 114.584C159.999 114.394 160.152 114.28 160.228 114.09C159.846 113.863 159.541 113.484 159.388 113.066L159.273 113.37L158.433 113.066L158.318 113.18C158.853 113.673 158.777 114.508 159.197 115.001C159.388 115.001 159.426 114.735 159.617 114.735C159.999 115.115 160.419 115.456 160.801 115.835C160.801 115.987 160.687 116.101 160.534 116.101C160.457 116.101 160.419 116.063 160.343 116.025C160.114 116.139 159.617 116.518 160.114 116.745C160.075 116.67 160.114 116.594 160.152 116.556C160.649 116.48 161.336 116.025 161.527 116.783C161.489 116.859 161.451 116.935 161.336 116.973C161.718 117.125 161.871 116.518 161.68 116.29C161.947 116.328 162.1 116.442 162.253 116.594Z" fill="white"/>
<path fill-rule="evenodd" clip-rule="evenodd" d="M154.765 113.484L154.612 112.991C154.459 113.446 154.154 113.864 153.734 114.129C153.848 114.319 153.963 114.432 154.077 114.622C153.581 115.001 153.199 115.494 152.702 115.95C152.435 115.305 151.632 115.001 151.594 115.836C151.747 115.684 151.976 115.684 152.129 115.836C152.167 115.874 152.167 115.874 152.205 115.912C151.785 115.874 151.365 116.139 151.632 116.519C151.747 116.443 151.938 116.253 152.129 116.291C151.938 116.556 152.091 117.163 152.473 116.974C152.396 116.974 152.358 116.898 152.282 116.784C152.473 116.025 153.16 116.481 153.657 116.556C153.734 116.594 153.734 116.67 153.695 116.746C154.192 116.556 153.734 116.139 153.504 116.025C153.351 116.177 153.084 116.025 153.046 115.798C153.428 115.419 153.848 115.077 154.23 114.736C154.421 114.736 154.459 114.963 154.65 115.001C155.109 114.47 155.032 113.598 155.606 113.181L155.567 113.143L154.765 113.484Z" fill="white"/>
</g>
<defs>
<clipPath id="clip0">
<rect width="40" height="41" fill="white" transform="translate(137 85)"/>
</clipPath>
</defs>
</svg>
