<svg width="175" height="159" viewBox="0 0 175 159" fill="none" xmlns="http://www.w3.org/2000/svg">
<path d="M91.41 109.382C94.28 109.332 97.16 109.292 100.02 109.022C101.45 108.892 102.89 108.702 104.26 108.292C105.34 107.972 106.47 107.432 106.97 106.422C107.04 106.282 107.1 106.122 107.07 105.962C107.05 105.802 106.95 105.672 106.83 105.562C106.25 104.992 105.35 104.972 104.54 104.982C96.61 105.092 88.68 105.242 80.77 105.882C79.35 106.002 77.74 106.232 76.92 107.402C75.13 109.952 81.29 109.392 82.4 109.422C85.41 109.482 88.41 109.432 91.41 109.382Z" fill="url(#paint0_linear)"/>
<path d="M91.41 109.382C94.28 109.332 97.16 109.292 100.02 109.022C101.45 108.892 102.89 108.702 104.26 108.292C105.34 107.972 106.47 107.432 106.97 106.422C107.04 106.282 107.1 106.122 107.07 105.962C107.05 105.802 106.95 105.672 106.83 105.562C106.25 104.992 105.35 104.972 104.54 104.982C96.61 105.092 88.68 105.242 80.77 105.882C79.35 106.002 77.74 106.232 76.92 107.402C75.13 109.952 81.29 109.392 82.4 109.422C85.41 109.482 88.41 109.432 91.41 109.382Z" fill="url(#paint1_linear)"/>
<path d="M71.21 71.762C73.35 82.282 79.44 91.682 81.57 102.212C81.71 102.902 81.84 103.612 82.22 104.192C82.61 104.772 83.33 105.202 84 105.022C85.22 104.692 85.21 102.992 85.04 101.742C84.54 98.012 84.97 94.222 85.41 90.482C86.09 84.652 86.77 78.822 87.45 72.982C87.96 72.452 88.88 72.572 89.44 73.052C90 73.522 90.27 74.242 90.49 74.942C91.48 78.052 91.89 81.302 92.31 84.532C93.14 91.002 93.96 97.482 94.06 104.002C94.65 104.042 95.24 104.082 95.83 104.112C98.25 97.652 100.07 90.992 101.78 84.322C102.65 80.942 103.49 77.552 104.04 74.102C104.76 69.572 104.95 64.972 105.1 60.392C105.13 59.462 105.14 58.472 104.61 57.702C104.14 57.022 103.33 56.672 102.55 56.372C95.86 53.802 88.67 52.852 81.53 52.292C79.52 52.132 77.49 52.012 75.51 52.372C73.95 52.652 72.25 53.272 71.08 54.392C69.76 55.662 70.19 57.672 70.18 59.422C70.16 63.552 70.38 67.702 71.21 71.762Z" fill="#666666"/>
<path d="M66.98 48.4124C66.32 50.4124 65.8 52.7824 67.02 54.5024C67.6 55.3124 68.48 55.8424 69.37 56.2924C74.37 58.8124 80.0899 59.4024 85.6599 59.9424C90.6799 60.4324 95.72 60.9224 100.76 60.6524C103.16 60.5224 105.69 60.1724 107.56 58.6624C109.34 57.2324 110.27 54.9424 110.52 52.6724C110.77 50.4024 110.43 48.1124 110.08 45.8524C109.7 43.3724 109.32 40.8924 108.67 38.4724C107.54 34.2624 105.57 30.2824 102.93 26.8224C100.93 24.2124 98.5 21.8524 95.52 20.4524C92.7 19.1224 88.42 18.5124 85.49 19.9424C82.56 21.3624 79.8699 25.4524 77.9099 27.9724C73.1399 34.1024 69.41 41.0424 66.98 48.4124Z" fill="#283766"/>
<path d="M94.91 13.1721C94.88 13.7021 94.85 14.2421 94.7 14.7621C94.33 15.9921 93.21 17.1021 91.69 17.6921C90.17 18.2821 88.28 18.3521 86.72 17.8321C85.17 17.3221 84.03 16.3221 83.12 15.2721C81.22 13.0721 80.11 10.4521 80.37 7.85213C80.41 7.46213 80.49 7.06213 80.82 6.75213C81.29 6.31213 82.12 6.21212 82.87 6.15212C85.34 5.93212 92.19 4.37212 94.22 5.56212C96.23 6.74212 95.01 11.5221 94.91 13.1721Z" fill="#F2D6C9"/>
<path d="M74.95 5.70241C75.31 7.23241 77.26 8.3924 79.35 8.6624C81.44 8.9224 83.59 8.42239 85.41 7.62239C87.35 6.76239 89.17 5.5124 91.43 5.4424C91.85 5.4324 92.28 5.4624 92.64 5.6024C93.04 5.7624 93.33 6.05239 93.56 6.34239C94.85 7.94239 95.04 9.88241 95.2 11.7324C95.89 10.1224 96.44 8.4824 96.83 6.8124C97.26 4.99239 97.38 2.86239 95.58 1.59239C94.21 0.622394 92.1 0.452393 90.2 0.622393C87.53 0.862393 84.96 1.6824 82.89 2.9424C82.07 3.4424 81.32 4.01241 80.42 4.45241C79.53 4.88241 78.45 5.18241 77.39 5.04241C76.23 4.88241 76 4.17239 75.19 3.77239C74.86 4.33239 74.81 5.08241 74.95 5.70241Z" fill="#333"/>
<path d="M99.04 31.7724C98.3 30.4124 97.21 29.3025 96.29 28.0625C95.37 26.8225 94.6 25.3625 94.68 23.8225C94.76 22.2825 95.97 20.7225 97.51 20.7325C98.15 20.7325 98.75 20.9925 99.32 21.2825C101.17 22.2125 102.86 23.4824 104.25 25.0224C104.79 25.6224 105.29 26.2624 105.64 26.9924C106.15 28.0624 106.29 29.2725 106.42 30.4525C106.64 32.5325 106.82 34.6425 106.37 36.6825C105.72 39.5925 103.64 42.1925 100.89 43.3625C100.3 43.6125 99.4 44.0425 98.84 43.7225C98.24 43.3825 98.13 42.6024 98.26 42.0124C98.6 40.3924 99.71 39.0524 99.96 37.3324C100.21 35.4424 99.96 33.4624 99.04 31.7724Z" fill="#F2D6C9"/>
<path d="M95.83 43.1528C95.71 43.2328 95.59 43.3228 95.5 43.4328C95.28 43.7128 95.27 44.0928 95.27 44.4528C95.27 45.0228 95.33 45.6928 95.82 45.9828C96.04 46.1128 96.31 46.1328 96.57 46.1428C96.84 46.1528 97.11 46.1728 97.38 46.1828C97.67 46.2028 97.98 46.2128 98.22 46.0528C98.47 45.8928 98.58 45.5928 98.68 45.3128C98.92 44.6228 99.16 43.9428 99.4 43.2528C99.44 43.1328 99.48 43.0028 99.43 42.8928C99.4 42.8228 99.33 42.7728 99.27 42.7328C98.7 42.2928 98.43 42.0728 97.7 42.2328C97.09 42.3628 96.27 42.7128 95.83 43.1528Z" fill="#F2D6C9"/>
<path d="M101.22 104.583C100.86 104.253 100.33 104.203 99.85 104.173C99.13 104.123 98.41 104.063 97.69 104.013C97.38 103.993 97.05 103.963 96.8 103.783C96.7 103.713 96.62 103.613 96.55 103.513C96.32 103.513 96.1 103.503 95.87 103.503C95.04 103.483 94.21 103.793 93.4 104.043C93.57 104.753 93.73 105.453 93.9 106.163C93.93 106.303 93.97 106.453 94.08 106.543C94.19 106.633 94.35 106.643 94.5 106.643C96.9 106.703 99.31 106.613 101.7 106.383C101.72 105.733 101.7 105.003 101.22 104.583Z" fill="black"/>
<path d="M84.66 103.943C84.7 104.893 84.73 105.893 84.29 106.743C83.98 107.343 83.46 107.793 82.95 108.243C82.68 108.473 82.42 108.703 82.15 108.943C82.08 109.003 82 109.073 81.91 109.103C81.81 109.133 81.7 109.133 81.6 109.123C81.14 109.103 80.69 109.143 80.23 109.113C79.78 109.073 79.31 108.943 78.99 108.613C78.67 108.283 78.57 107.723 78.85 107.363C79.03 107.133 79.33 107.023 79.59 106.893C80.38 106.533 81.06 105.943 81.52 105.213C81.81 104.753 82.08 104.273 82.61 104.083C82.81 104.013 84.66 103.803 84.66 103.943Z" fill="black"/>
<path d="M100.81 41.1625C100.7 40.9325 100.58 40.7025 100.39 40.5425C100.14 40.3425 99.8 40.3324 99.49 40.3224C93.92 40.1424 88.34 39.9525 82.77 39.7725C82.32 39.7525 81.91 40.0425 81.72 40.4825C80.82 42.6025 79.75 44.3825 79.07 46.5925C78.98 46.8925 79.19 47.1925 79.49 47.2025C87.01 47.3025 94.92 48.1125 102.43 47.4825C102.94 47.4425 103.25 46.8625 103.03 46.3725C102.28 44.6725 101.55 42.6825 100.81 41.1625Z" fill="#7F7F7F"/>
<path d="M100.66 40.6722C100.55 40.4422 100.44 40.2122 100.24 40.0522C99.99 39.8522 99.66 39.8422 99.36 39.8322C93.89 39.6522 88.42 39.4622 82.96 39.2822C82.52 39.2622 82.11 39.5522 81.93 39.9922C81.04 42.1122 79.99 43.8922 79.33 46.1022C79.24 46.4022 79.45 46.7022 79.74 46.7122C87.12 46.8122 94.88 47.6222 102.25 46.9922C102.75 46.9522 103.05 46.3722 102.84 45.8822C102.11 44.1822 101.39 42.1922 100.66 40.6722Z" fill="#666666"/>
<path d="M99.79 41.1224C99.69 40.9624 99.59 40.7924 99.41 40.6824C99.19 40.5424 98.89 40.5324 98.61 40.5224C93.68 40.3924 88.75 40.2524 83.82 40.1224C83.42 40.1124 83.06 40.3124 82.89 40.6324C82.09 42.1524 81.14 43.4324 80.55 45.0224C80.47 45.2324 80.66 45.4524 80.92 45.4624C87.58 45.5324 94.58 46.1224 101.22 45.6624C101.67 45.6324 101.95 45.2124 101.75 44.8624C101.1 43.6424 100.45 42.2124 99.79 41.1224Z" fill="#F0F0F0"/>
<path d="M93.3 41.5619C93.27 41.6019 93.28 41.6518 93.29 41.7018C93.49 42.8518 93.69 44.0218 94.13 45.1018C95.45 45.1018 96.77 45.1018 98.09 45.1118C98.51 45.1118 98.93 45.1118 99.33 45.0318C98.89 43.8918 98.44 42.7518 98 41.6118C96.49 41.6518 94.98 41.6218 93.48 41.5218C93.41 41.5118 93.34 41.5119 93.3 41.5619Z" fill="#283766"/>
<path d="M91.64 41.4426C89.21 41.5726 86.8 41.5326 84.37 41.4426C84.18 41.4326 84.18 41.7227 84.37 41.7427C86.79 41.9227 89.22 41.8927 91.64 41.7727C91.85 41.7627 91.86 41.4326 91.64 41.4426Z" fill="#CACACA"/>
<path d="M91.89 42.372C89.51 42.362 87.13 42.432 84.76 42.562C84.58 42.572 84.58 42.852 84.76 42.842C87.14 42.732 89.51 42.702 91.89 42.712C92.11 42.712 92.11 42.372 91.89 42.372Z" fill="#CACACA"/>
<path d="M91.89 43.5422C89.39 43.4322 86.88 43.4122 84.38 43.4222C84.19 43.4222 84.19 43.7122 84.38 43.7122C86.89 43.7522 89.39 43.8322 91.89 43.8922C92.11 43.8922 92.11 43.5522 91.89 43.5422Z" fill="#CACACA"/>
<path d="M91.22 44.4322C89 44.4122 86.77 44.4522 84.54 44.4722C84.35 44.4722 84.35 44.7622 84.54 44.7622C86.76 44.7822 88.99 44.8222 91.22 44.8022C91.46 44.8022 91.46 44.4422 91.22 44.4322Z" fill="#CACACA"/>
<path d="M82.02 43.2025C82.43 43.2425 82.85 43.2825 83.26 43.2025C83.6 43.1425 83.93 43.0026 84.21 42.8026C84.65 42.4926 84.98 41.9925 85.01 41.4525C85.03 40.9125 84.69 40.3525 84.17 40.2025C83.93 40.1325 83.68 40.1525 83.43 40.2025C82.33 40.3925 81.3299 41.0226 80.2199 41.1026C79.8099 41.1326 79.35 41.1025 79.06 41.3825C78.9 41.5425 78.8199 41.7626 78.7799 41.9926C78.7399 42.2326 78.73 42.5025 78.85 42.7125C79.08 43.1225 79.7499 42.9925 80.1499 43.0225C80.7699 43.0825 81.39 43.1425 82.02 43.2025Z" fill="#F2D6C9"/>
<path d="M74.72 24.0024C72.88 25.3824 71.38 27.1724 69.95 28.9724C68.63 30.6424 67.32 32.3924 66.67 34.4224C66.02 36.4524 66.13 38.8424 67.45 40.5124C68.79 42.2024 71.03 42.8224 73.15 43.2324C73.99 43.3924 74.85 43.5424 75.71 43.4824C76.66 43.4224 78.19 43.6024 79.1 43.3024C79.59 43.1424 79.59 42.6725 79.96 42.3125C80.33 41.9525 80.41 41.1724 80.15 40.7324C78.61 40.6324 77.07 40.4725 75.54 40.2525C74.27 40.0725 72.89 39.7824 72.07 38.8024C71.18 37.7424 71.24 36.1124 71.9 34.8924C72.56 33.6724 73.71 32.8024 74.9 32.0924C76.09 31.3824 77.36 30.7924 78.46 29.9524C80.34 28.5124 88.26 22.7924 86.01 20.3724C84.21 18.4724 76.27 22.8324 74.72 24.0024Z" fill="#F2D6C9"/>
<path d="M106.69 27.8927C106.78 27.3227 106.39 26.7927 106.03 26.3427C105.24 25.3627 104.45 24.3727 103.65 23.3927C103.27 22.9227 102.89 22.4427 102.42 22.0527C101.49 21.2727 100.29 20.9027 99.13 20.5627C97.8 20.1727 96.25 19.8427 95.13 20.6527C94.36 21.2127 94.01 22.2027 94.01 23.1527C94.01 24.1027 94.32 25.0127 94.66 25.9027C95.16 27.2227 95.7 28.5927 96.41 29.8127C97 30.8427 97.66 30.7627 98.66 30.3127C101.27 29.1427 103.85 28.2327 106.69 27.8927Z" fill="#283766"/>
<path d="M76.0999 26.7227C76.9599 28.0927 78.02 29.3228 79.08 30.5428C79.16 30.6428 79.26 30.7427 79.39 30.7427C79.49 30.7427 79.5799 30.6827 79.6499 30.6227C80.4799 29.9827 81.04 29.0727 81.76 28.3127C83.19 26.8127 85.25 25.9328 86.38 24.2028C87.02 23.2128 87.2999 21.9928 87.1599 20.8228C87.1099 20.4128 87 19.9927 86.74 19.6827C86.37 19.2327 85.76 19.0527 85.18 19.0527C84.35 19.0527 83.5499 19.3428 82.7799 19.6428C80.5899 20.4928 78.43 21.4328 76.31 22.4528C75.79 22.7028 75.26 22.9627 74.74 23.2227C74.06 23.5727 73.89 23.5628 74.33 24.1628C74.96 24.9928 75.5399 25.8227 76.0999 26.7227Z" fill="#283766"/>
<path d="M141.98 111.152C143.9 111.152 145.86 111.132 147.69 110.542C147.83 110.112 147.57 109.622 147.19 109.362C146.81 109.102 146.35 109.022 145.89 108.962C144.35 108.762 142.79 108.712 141.23 108.662C135.18 108.482 129.12 108.302 123.06 108.262C122.3 108.252 119.13 108.462 120.03 110.002C120.63 111.032 123.44 110.672 124.42 110.722C128.15 110.902 131.88 111.022 135.62 111.092C137.74 111.132 139.86 111.152 141.98 111.152Z" fill="url(#paint2_linear)"/>
<path d="M141.98 111.152C143.9 111.152 145.86 111.132 147.69 110.542C147.83 110.112 147.57 109.622 147.19 109.362C146.81 109.102 146.35 109.022 145.89 108.962C144.35 108.762 142.79 108.712 141.23 108.662C135.18 108.482 129.12 108.302 123.06 108.262C122.3 108.252 119.13 108.462 120.03 110.002C120.63 111.032 123.44 110.672 124.42 110.722C128.15 110.902 131.88 111.022 135.62 111.092C137.74 111.132 139.86 111.152 141.98 111.152Z" fill="url(#paint3_linear)"/>
<path d="M146.91 49.9016C146.91 49.9016 147.25 44.5416 137.54 44.9216C137.35 44.9316 137.17 44.9316 136.99 44.9416C136.92 44.9816 136.86 45.0116 136.79 45.0516C136.65 45.4116 136.53 45.7716 136.44 46.1416C136.41 46.2416 136.39 46.4016 136.36 46.5516C136.29 47.1316 136.31 46.8716 136.36 46.5516C136.37 46.4316 136.39 46.2816 136.41 46.0916C136.38 46.3316 136.33 46.5716 136.3 46.8016C136 48.9416 136.07 51.1016 135.88 53.2416C135.72 55.0716 135.35 56.9016 134.95 58.7116C135.33 58.6916 135.76 58.7016 136 58.7916C136.49 58.9716 136.72 103.372 135.88 106.132L139.74 106.172C139.75 106.182 147.23 60.5816 146.91 49.9016Z" fill="#97A8B2"/>
<path d="M136.31 24.9723C135.18 24.8123 133.98 25.4023 133.43 26.4023C133.08 27.0423 132.99 27.7923 132.9 28.5223C132.58 31.1123 132.17 33.6923 131.68 36.2623C131.35 38.0023 131.31 41.4623 128.85 41.6323C127.93 41.7023 126.98 41.0023 126.07 40.8623C124.58 40.6223 123.18 40.5423 121.74 40.0223C120.58 39.6023 119.81 38.9823 118.94 38.1423C118.42 37.6323 117.69 36.6223 116.99 36.4323C116.49 36.2923 115.86 36.8723 116.17 37.2823C115.55 36.9123 114.66 37.5023 114.63 38.2323C114.57 39.6223 117.31 40.4123 118.28 41.0123C119.78 41.9523 121.26 42.9423 122.89 43.6423C125.46 44.7423 128.24 45.3623 131.03 45.4123C131.52 45.4223 132.04 45.4023 132.46 45.1523C133.36 44.6023 133.84 43.3123 134.53 42.5123C135.16 41.7723 135.5 41.2823 135.79 40.3223C136.59 37.6823 137.28 34.9723 137.8 32.2623C138.29 29.9823 139.98 25.5123 136.31 24.9723Z" fill="#EADDD0"/>
<path d="M124.99 65.8418C125.05 67.5518 125.17 69.2618 125.28 70.9718C125.45 73.5318 125.62 76.0918 125.78 78.6518C125.83 79.4718 125.91 80.3418 126.41 80.9918C126.46 81.0618 126.52 81.1218 126.6 81.1518C126.87 81.2518 127.08 80.9118 127.17 80.6418C128.24 77.4218 129.82 74.3818 131.85 71.6618C132.37 70.9718 132.93 70.2818 133.68 69.8518C134.24 69.5318 134.88 69.3618 135.52 69.2018C136.78 68.8818 138.05 68.5618 139.31 68.2418C140.05 68.0518 140.82 67.8518 141.4 67.3618C141.86 66.9718 142.16 66.4318 142.45 65.9018C143.93 63.2318 145.42 60.5318 146.17 57.5718C146.72 55.4118 146.86 53.1718 146.82 50.9518C146.82 50.7318 146.81 50.5018 146.73 50.3018C146.62 50.0218 146.38 49.8018 146.13 49.6318C145.18 49.0018 143.97 48.9218 142.83 48.8718C138.5 48.6818 134.07 48.5918 129.83 49.6018C128.52 49.9118 126.3 50.2318 125.66 51.6218C124.88 53.3218 125.12 55.9618 125.03 57.8018C124.9 60.4718 124.88 63.1618 124.99 65.8418Z" fill="#97A8B2"/>
<path d="M133.84 62.8718C131.42 62.5418 128.99 62.2217 126.57 61.8917C126.45 61.5817 127.05 61.9018 127.01 62.2218C125.74 72.3518 126.23 82.6418 127.24 92.8317C127.68 97.2217 127.71 101.632 127.25 106.012C128.25 106.122 129.97 106.272 130.96 106.382C132.8 92.7317 133.91 79.0417 135.75 65.3917C135.84 64.7017 135.9 63.9018 135.37 63.4018C134.98 63.0318 134.39 62.9418 133.84 62.8718Z" fill="#97A8B2"/>
<path d="M130.69 18.1718C132.14 18.1218 133.62 17.1418 135.18 16.8218C134.77 15.5618 135.26 14.2018 135.39 12.8818C135.57 11.0918 135.07 9.31182 134.55 7.60182C134.13 6.22182 133.66 4.79183 132.67 3.73183C132.47 3.52183 132.24 3.32182 131.97 3.25182C131.73 3.19182 131.48 3.23183 131.24 3.26183C129.53 3.52183 124.78 3.72183 124.33 5.64183C123.71 8.27183 125.52 11.7618 126.54 14.0918C127.02 15.1918 127.51 16.3118 128.35 17.1618C129.11 17.9518 129.9 18.2018 130.69 18.1718Z" fill="#EADDD0"/>
<path d="M147.27 55.8119L147.3 55.7819C147.32 55.7619 147.33 55.7419 147.35 55.7319C147.39 55.6719 147.43 55.6219 147.47 55.5619C147.98 54.7819 148.42 53.9619 148.87 53.1519C149.71 43.6919 148.64 34.1419 145.67 24.8419C144.74 21.9219 143.82 18.7019 140.33 16.7019C140.15 16.6019 139.96 16.5019 139.74 16.4619C139.45 16.4119 139.15 16.4919 138.87 16.5619C136.99 17.0419 135.11 17.5219 133.22 18.0119C132.85 18.1119 132.47 18.2019 132.09 18.2919C131.69 18.3819 131.29 18.4619 130.88 18.5219C130.18 18.6219 127.43 19.2819 127.33 19.9419C127.09 21.6319 126.87 23.3219 126.68 25.0219C126.2 29.2119 125.84 33.3919 125.85 37.5919C125.86 41.7819 125.48 45.9619 124.79 50.1119C124.74 50.4319 124.49 52.1219 124.19 53.8519C124.21 53.8819 124.22 53.9119 124.24 53.9419C124.48 54.4019 124.74 54.8419 125.03 55.2719C125.06 55.3119 125.11 55.3819 125.16 55.4619C125.19 55.4919 125.21 55.5219 125.23 55.5419C125.55 55.9119 125.91 56.2619 126.28 56.5919C126.31 56.6219 126.36 56.6619 126.42 56.7219C125.91 56.2419 126.45 56.7319 126.6 56.8319C126.99 57.0919 127.39 57.3319 127.8 57.5419C127.9 57.5919 128.32 57.7719 128.36 57.7919C128.4 57.8119 128.45 57.8219 128.49 57.8419C134.39 57.5919 140.28 57.1819 146.13 56.5919C146.49 56.3019 146.88 56.0119 147.27 55.8119Z" fill="#E8E8E8"/>
<path d="M127.51 105.632C127.45 105.632 127.39 105.632 127.33 105.642C127.25 105.662 127.2 105.712 127.15 105.752C126.94 105.962 126.78 106.192 126.69 106.442C126.61 106.672 126.59 106.922 126.42 107.122C126.23 107.352 125.88 107.492 125.53 107.602C124.64 107.892 123.68 108.092 122.71 108.182C122.49 108.202 122.27 108.222 122.07 108.282C121.51 108.472 121.37 108.962 121.3 109.392C121.28 109.512 121.27 109.662 121.42 109.732C121.5 109.772 121.6 109.772 121.7 109.772C124.5 109.762 125.69 109.762 128.48 109.762C129.16 109.762 129.87 109.742 130.53 109.622C130.62 109.602 130.71 109.592 130.78 109.542C130.85 109.492 130.88 109.422 130.91 109.352C131.28 108.392 131.32 107.342 131.24 106.352C131.21 106.042 131.16 105.792 130.67 105.722C129.97 105.622 130.74 105.702 130.03 105.682C129.2 105.672 128.35 105.652 127.51 105.632Z" fill="#97A8B2"/>
<path d="M139.6 8.29192C139.61 7.43192 139.11 6.65191 138.69 5.90191C137.99 4.65191 137.43 3.30191 136.57 2.15191C135.71 1.00191 134.44 0.0419159 133 0.0019159C132.4 -0.0180841 131.81 0.121926 131.23 0.261926C128.75 0.861926 126.25 1.47191 123.99 2.65191C123.71 2.80191 123.42 2.96193 123.24 3.23193C123.08 3.46193 123.03 3.75191 122.98 4.03191C122.91 4.42191 122.84 4.82191 122.77 5.21191C122.73 5.46191 122.68 5.71193 122.73 5.95193C122.88 6.70193 123.76 7.0319 124.53 7.0819C125.29 7.1219 126.04 7.02192 126.79 6.91192C127.51 6.81192 129.21 6.21193 129.79 6.86193C130.08 7.18193 129.99 7.72192 130.19 8.10192C130.43 8.57192 130.88 8.8519 131.18 9.2719C131.49 9.66191 131.71 10.2019 131.48 10.6419C131.9 10.3919 132.42 10.3119 132.9 10.4319C133.07 10.4719 133.24 10.5419 133.35 10.6719C133.56 10.9319 133.47 11.3319 133.24 11.5719C133.01 11.8119 132.68 11.9219 132.36 12.0219C133.72 13.3319 134.22 15.4619 133.59 17.2519C134.63 17.1419 135.5 16.4219 136.22 15.6619C136.87 14.9719 137.47 14.2219 137.88 13.3719C138.07 12.9719 138.22 12.5619 138.37 12.1519C138.66 11.3319 138.96 10.5019 139.25 9.68191C139.43 9.22191 139.59 8.76192 139.6 8.29192Z" fill="#333"/>
<path d="M136.2 105.722C136.14 105.722 136.08 105.722 136.02 105.732C135.94 105.752 135.89 105.802 135.84 105.842C135.63 106.052 135.47 106.282 135.38 106.532C135.3 106.762 135.28 107.012 135.11 107.212C134.92 107.442 134.57 107.582 134.22 107.692C133.33 107.982 132.37 108.182 131.4 108.272C131.18 108.292 130.96 108.312 130.76 108.372C130.2 108.562 130.06 109.052 129.99 109.482C129.97 109.602 129.96 109.752 130.11 109.822C130.19 109.862 130.29 109.862 130.39 109.862C133.19 109.852 134.38 109.852 137.17 109.852C137.85 109.852 138.56 109.832 139.22 109.712C139.31 109.692 139.4 109.682 139.47 109.632C139.54 109.582 139.57 109.512 139.6 109.442C139.97 108.482 140.01 107.432 139.93 106.442C139.9 106.132 139.85 105.882 139.36 105.812C138.66 105.712 139.43 105.792 138.72 105.772C137.88 105.762 137.04 105.742 136.2 105.722Z" fill="#97A8B2"/>
<path d="M116.73 39.0418C116.44 39.6218 116.11 40.1918 115.75 40.7318C115.7 40.8118 115.64 40.8918 115.55 40.9118C115.46 40.9418 115.36 40.8918 115.28 40.8518C114.31 40.3718 113.35 39.8918 112.38 39.4218C112.61 37.1418 112.48 34.3818 113.14 32.2118C113.23 31.9018 117.99 32.7318 118.31 33.6018C118.62 34.4618 117.74 36.5318 117.45 37.3618C117.25 37.9318 117.01 38.4918 116.73 39.0418Z" fill="#C7B299"/>
<path d="M112.83 32.4518C112.97 32.4818 113.11 32.4918 113.25 32.5018C113.55 32.5318 113.84 32.5918 114.13 32.6518C115.56 32.9818 116.95 33.4618 118.32 33.9818C118.41 34.0118 118.5 34.0518 118.6 34.0418C118.75 34.0218 118.86 33.8818 118.9 33.7418C118.94 33.5918 118.92 33.4418 118.9 33.2918C118.9 33.2618 118.89 33.2318 118.87 33.2118C118.85 33.1918 118.83 33.1818 118.8 33.1718C118.73 33.1418 118.66 33.1118 118.59 33.0918C118.27 32.9718 117.94 32.8718 117.61 32.7818C116.18 32.3818 114.74 32.0118 113.3 31.6718C113.23 31.6518 113.14 31.6418 113.08 31.6818C112.97 31.7618 112.91 31.9618 112.88 32.0818C112.83 32.1818 112.67 32.4218 112.83 32.4518Z" fill="#534741"/>
<path d="M112.76 36.532L117.04 38.392L117.9 36.132L112.76 34.042V36.532Z" fill="#5B8C87"/>
<path d="M128.82 10.9022C128.8 10.8122 128.69 10.7222 128.58 10.7322C127.51 10.8422 126.46 11.0822 125.43 11.3422C125.07 11.4322 125.23 11.9622 125.58 11.8622C126.51 11.6222 127.46 11.4422 128.39 11.2322C128.51 11.7122 128.61 12.2022 128.67 12.7022C128.7 12.9222 128.71 13.1422 128.71 13.3622C128.72 13.7622 128.12 13.7922 127.86 13.8422C127.54 13.9022 127.22 13.9222 126.9 13.9322C126.43 13.9522 126.4 13.7422 126.22 13.4322C125.95 12.9622 125.74 12.4722 125.55 11.9722C125.49 11.8122 125.24 11.8822 125.28 12.0422C125.49 12.7622 125.76 13.4922 126.16 14.1422C126.45 14.6122 127.53 14.3222 127.97 14.2622C128.46 14.1922 129.09 14.0822 129.15 13.5222C129.26 12.6722 129.04 11.7322 128.82 10.9022Z" fill="#333"/>
<path d="M131.38 9.96183C130.46 10.3118 129.58 10.8418 128.7 11.2818C128.53 11.3618 128.65 11.6418 128.83 11.5818C129.76 11.2718 130.76 11.0118 131.65 10.6018C132.01 10.4418 131.75 9.82183 131.38 9.96183Z" fill="#333"/>
<path d="M139.34 25.0421C138.98 23.6621 137.48 20.7821 135.9 22.8521C135.42 23.4821 135.3 24.3221 135.21 25.1121C134.44 31.4821 133.66 37.8421 132.89 44.2121C132.49 47.5321 132.05 50.9621 130.33 53.8221C130.05 54.2821 129.74 54.7321 129.61 55.2521C129.47 55.7721 129.55 56.3821 129.96 56.7321C129.4 57.4321 129.86 58.9521 130.89 58.8721C131.11 58.8521 131.31 58.7621 131.49 58.6321C132.52 57.9221 132.26 56.6021 132.5 55.5021C132.82 54.0021 133.28 52.5421 133.74 51.0921C135.5 45.4821 137.71 40.0121 138.89 34.2821C139.51 31.2221 140.13 28.0521 139.34 25.0421Z" fill="#EADDD0"/>
<path d="M135.34 21.6023C134.94 21.6923 134.53 21.7923 134.23 22.0623C133.84 22.4123 133.71 22.9623 133.6 23.4723C132.4 29.2323 131.49 35.0523 130.87 40.9123C132.85 41.4123 134.84 41.9123 136.82 42.4123C139.34 36.9323 140.47 30.8223 140.07 24.8123C140 23.7423 139.82 22.5523 138.99 21.8723C137.99 21.0823 136.57 21.3223 135.34 21.6023Z" fill="#6087A2"/>
<path d="M53.4 110.302C55.41 110.242 57.42 110.172 59.42 110.022C60.39 109.952 61.39 109.852 62.27 109.432C62.75 109.202 63.24 108.692 63.02 108.212C62.84 107.812 62.3 107.752 61.85 107.752C54.6 107.742 47.34 107.732 40.1 108.212C38.79 108.302 37.3 108.502 36.55 109.582C35.63 110.922 38.38 110.542 38.95 110.552C40.54 110.572 42.13 110.572 43.71 110.552C46.95 110.512 50.17 110.412 53.4 110.302Z" fill="url(#paint4_linear)"/>
<path d="M53.4 110.302C55.41 110.242 57.42 110.172 59.42 110.022C60.39 109.952 61.39 109.852 62.27 109.432C62.75 109.202 63.24 108.692 63.02 108.212C62.84 107.812 62.3 107.752 61.85 107.752C54.6 107.742 47.34 107.732 40.1 108.212C38.79 108.302 37.3 108.502 36.55 109.582C35.63 110.922 38.38 110.542 38.95 110.552C40.54 110.572 42.13 110.572 43.71 110.552C46.95 110.512 50.17 110.412 53.4 110.302Z" fill="url(#paint5_linear)"/>
<path d="M68.08 38.2324C68.27 38.4024 68.46 38.5623 68.7 38.6323C69.03 38.7223 69.38 38.6124 69.7 38.5024C69.92 38.4324 70.1299 38.3523 70.3499 38.2823C70.4299 38.2523 70.52 38.2223 70.57 38.1423C70.62 38.0623 70.6099 37.9724 70.5999 37.8724C70.3899 35.8524 70.01 33.8523 69.45 31.9023C68.56 32.3123 67.6799 32.7224 66.7899 33.1324C66.3099 33.3524 64.7 33.7923 64.67 34.3723C64.64 34.9623 65.7799 35.9223 66.1499 36.3223C66.7599 36.9923 67.4 37.6324 68.08 38.2324Z" fill="white"/>
<path d="M68.49 31.5321C68.75 31.4221 69.03 31.3121 69.32 31.3521C69.6 31.3921 69.88 31.6422 69.84 31.9222C69.81 32.1222 68.75 32.6021 68.56 32.7121C68.1 32.9821 67.63 33.2321 67.15 33.4721C66.67 33.7121 66.18 33.9322 65.69 34.1422C65.42 34.2622 64.83 34.6321 64.51 34.5221C63.34 34.1121 65.38 32.9921 65.73 32.7921C66.62 32.3121 67.55 31.9221 68.49 31.5321Z" fill="#333"/>
<path d="M58.17 106.852C57.74 106.882 57.3 106.912 56.88 106.802C56.46 106.692 56.06 106.402 55.93 105.992C55.82 105.642 55.87 105.182 55.57 104.982C55.5 104.932 55.42 104.912 55.33 104.902C55.29 97.5715 55.47 93.3416 55.42 85.8616C55.79 83.3716 55.57 81.0615 55.51 78.6515C55.33 71.0415 55.16 63.4315 54.98 55.8215C54.96 54.8115 54.92 53.7615 54.42 52.8215C53.61 51.3015 51.81 50.4415 50.12 49.7815C45.1 47.8215 39.42 45.0215 38.04 51.3215C37.67 52.9915 37.37 54.6716 37.12 56.3716C36.94 57.5816 36.8 58.8415 37.24 60.0415C37.99 62.0815 39.38 67.0915 41.14 68.5715C45.73 72.4315 47.73 76.7915 49.24 81.9115C48.77 83.6215 49.32 86.0416 49.53 87.3616C50.51 93.6916 52.53 99.5815 53.52 105.912C53.1 106.692 52.92 107.602 53.04 108.482C53.06 108.662 53.1 108.842 53.22 108.972C53.39 109.162 53.67 109.202 53.92 109.222C54.63 109.272 55.34 109.292 56.05 109.282C56.6 109.272 57.19 109.222 57.61 108.862C58.16 108.402 58.19 107.582 58.17 106.852Z" fill="#998675"/>
<path d="M52.19 63.5619C50.78 60.4519 45.62 58.3619 40.75 61.9119C37.84 64.0319 40.05 66.3919 40.69 68.4919C41.47 71.0419 41.99 73.6719 42.23 76.3419C42.7 81.4919 42.17 86.8319 40.63 92.1819C39.61 95.7419 39.59 99.6419 38.88 103.192C38.49 105.182 37.25 107.822 37.54 109.802C38.64 109.812 39.74 109.822 40.83 109.832C41.8 109.842 42.83 109.832 43.64 109.302C44.45 108.772 44.85 107.512 44.17 106.822C43.5 107.042 42.79 107.262 42.1 107.102C39.07 106.382 43.03 99.5319 43.61 98.0219C46.08 91.5819 48.55 85.1419 50.34 78.7019C51.66 73.9919 54.13 67.8119 52.19 63.5619Z" fill="#998675"/>
<path d="M53.12 29.2324C54.32 32.1824 55.52 35.1223 56.72 38.0723C57.05 38.8823 57.38 39.7423 57.22 40.5923C56.94 42.1023 55.29 42.9124 53.8 43.2524C50.85 39.0624 47.74 34.9823 44.49 31.0223C42.64 28.7723 39.76 23.5723 44.01 22.0023C48.83 20.2323 51.69 25.7124 53.12 29.2324Z" fill="#ACB18F"/>
<path d="M63.93 24.7521C64.32 24.1721 64.88 24.4321 65.37 24.9321C64 29.8921 62.78 34.8921 61.71 39.9221C61.38 41.4821 60.96 43.2021 59.63 44.1021C59.07 44.4821 58.39 44.6721 57.72 44.7821C56.51 44.9921 55.05 44.8821 54.37 43.8621C53.4 42.4021 54.6 40.9821 55.56 39.9621C56.69 38.7721 57.17 38.0021 57.87 36.3821C59.48 32.6421 61.66 28.1521 63.93 24.7521Z" fill="#ACB18F"/>
<path d="M66.2199 24.5215C66.3299 24.3815 66.39 24.2116 66.46 24.0416C66.63 23.6116 66.7999 23.1715 66.9699 22.7415C67.0499 22.5415 67.13 22.3416 67.14 22.1316C67.15 21.9216 67.09 21.6915 66.93 21.5515C66.78 21.4215 66.57 21.3915 66.37 21.4315C66.17 21.4715 66.01 21.5816 65.85 21.7016C65.5 21.9716 65.21 22.3215 65.01 22.7215C64.85 23.0415 64.75 23.3916 64.5 23.6416C64.39 23.7516 64.2599 23.8415 64.1599 23.9715C64.0099 24.1615 63.98 24.4315 64.07 24.6515C64.4 25.3815 65.8399 25.0215 66.2199 24.5215Z" fill="#F2D6C9"/>
<path d="M58.41 64.6021C57.91 53.9021 56.8 43.2321 55.35 32.6021C54.82 28.7021 54.18 24.0621 50.1 22.2421C46.32 20.5521 41.66 20.1221 39.2 23.9221C37.82 26.0521 37.51 28.6321 37.22 31.1321C35.48 46.4221 33.74 61.7121 32 77.0021C33.91 77.1121 56.77 80.5021 56.87 79.0721C56.87 79.0521 56.87 79.0321 56.87 79.0221C57.02 79.0121 57.16 78.9821 57.29 78.9221C57.8 78.6921 57.95 78.0821 58.04 77.5521C58.71 73.2721 58.61 68.9221 58.41 64.6021Z" fill="#EBEFEB"/>
<path d="M65.45 36.5613C65.5 36.4513 65.54 36.3312 65.61 36.2312C65.76 36.0212 66.02 35.9412 66.28 35.9112C66.53 35.8812 66.79 35.9012 67.04 35.8612C67.82 35.7212 68.46 34.9512 69.24 35.0712C69.48 35.1112 69.7 35.2312 69.9 35.3712C70.16 35.5612 70.4 35.8113 70.47 36.1213C70.57 36.6113 70.22 37.0812 69.9 37.4612C69.72 37.6712 69.53 37.8912 69.29 38.0212C69.09 38.1312 68.86 38.1712 68.63 38.2212C68.08 38.3512 67.53 38.5513 67.09 38.9313C66.73 39.2413 66.43 39.6712 65.98 39.7812C65.16 39.9812 64.39 39.0812 64.3 38.3412C64.19 37.5812 65.17 37.1913 65.45 36.5613Z" fill="#F2D6C9"/>
<path d="M66 39.1917C65.64 38.4717 65.28 37.7517 64.93 37.0317C63.8 37.2217 62.95 38.1217 62.14 38.9217C61.02 40.0317 59.81 41.0517 58.52 41.9717C57.76 42.5117 56.89 43.0317 55.97 42.8917C54.85 42.7217 54.13 41.6317 53.55 40.6517C51.39 36.9617 49.23 33.2617 47.07 29.5717C45.36 26.6517 43.45 27.7217 42.22 30.3417C41.11 32.7317 42.54 35.4217 43.64 37.5817C45.06 40.3717 46.63 43.0817 48.35 45.7117C49.36 47.2517 50.57 48.8717 52.37 49.2817C53.23 49.4817 54.15 49.3717 55 49.1217C57.75 48.3417 59.93 46.2917 61.96 44.2717C63.27 42.9617 64.57 41.6217 65.84 40.2717C65.98 40.1217 66.13 39.9617 66.16 39.7517C66.18 39.5717 66.09 39.3717 66 39.1917Z" fill="#ACB18F"/>
<path d="M53.75 7.52249C53.3 6.18249 52.59 4.5325 51.14 4.1825C49.57 3.8125 47.35 4.8425 46.21 5.8425C44.8 7.0725 43.92 8.81252 43.43 10.6125C42.89 12.5725 42.8 14.7525 43.68 16.5925C44.56 18.4325 46.57 19.8125 48.58 19.5125C49.93 19.3125 51.08 18.4225 51.96 17.3825C54.22 14.7125 54.86 10.8225 53.75 7.52249Z" fill="#F2D6C9"/>
<path d="M47 12.552C46.55 11.762 45.1899 11.802 44.79 12.612C44.49 13.212 45.57 15.652 45.73 16.402C46.15 18.392 44.01 31.972 44.56 33.942C41.35 34.012 38.11 33.662 35.05 32.682C34.74 32.582 34.41 32.462 34.19 32.212C33.91 31.882 33.9 31.402 33.92 30.972C34.16 24.532 40.0999 2.61201 48.0899 2.80201C49.0699 2.82201 50.04 3.04201 51 3.27201C51.63 3.42201 52.26 3.59202 52.83 3.91202C53.99 4.58202 54.71 5.85202 55 7.16202C55.3 8.47202 55.2199 9.83202 55.1499 11.162C55.1299 11.572 50.34 11.152 49.88 11.082C49.36 11.002 48.39 10.592 47.87 10.812C47.27 11.062 47.2 12.012 47 12.552Z" fill="#534741"/>
<path opacity="0.19" d="M40.02 54.692C38.64 54.422 37.38 53.752 36.15 53.082C36.35 52.482 36.55 51.882 36.74 51.282C42.38 53.312 48.79 53.132 54.31 50.792C54.4 51.742 54.48 52.692 54.57 53.642C53.07 53.962 51.54 54.082 50.02 54.212C47.94 54.382 45.87 54.552 43.79 54.732C42.54 54.832 41.26 54.932 40.02 54.692Z" fill="white"/>
<path d="M7.56464 140.924C9.75464 141.004 11.9446 140.974 14.1346 140.954C20.2446 140.884 26.3546 140.824 32.4646 140.754C33.4146 140.744 34.6446 140.564 34.7046 139.924C34.7646 139.344 33.7946 138.974 32.9746 138.794C30.0446 138.154 26.9646 138.024 23.9246 137.904C19.4546 137.724 14.9746 137.574 10.5046 137.454C7.71464 137.374 4.84464 137.314 2.24464 137.944C0.824637 138.284 -1.26536 139.764 1.00464 140.504C1.63464 140.704 2.89464 140.624 3.57464 140.684C4.90464 140.774 6.23464 140.874 7.56464 140.924Z" fill="url(#paint6_linear)"/>
<path opacity="0.22" d="M7.56464 140.924C9.75464 141.004 11.9446 140.974 14.1346 140.954C20.2446 140.884 26.3546 140.824 32.4646 140.754C33.4146 140.744 34.6446 140.564 34.7046 139.924C34.7646 139.344 33.7946 138.974 32.9746 138.794C30.0446 138.154 26.9646 138.024 23.9246 137.904C19.4546 137.724 14.9746 137.574 10.5046 137.454C7.71464 137.374 4.84464 137.314 2.24464 137.944C0.824637 138.284 -1.26536 139.764 1.00464 140.504C1.63464 140.704 2.89464 140.624 3.57464 140.684C4.90464 140.774 6.23464 140.874 7.56464 140.924Z" fill="url(#paint7_linear)"/>
<path d="M26.8846 100.644C27.5346 101.184 28.7946 101.344 29.6046 101.564C30.7046 101.864 31.8146 102.114 32.9346 102.344C35.0846 102.774 37.3546 103.294 39.5546 103.414C39.6046 103.414 39.6546 103.414 39.7046 103.414C39.7646 103.424 39.8246 103.424 39.8846 103.414C41.0646 103.394 43.0146 102.984 43.4346 101.964C43.7846 101.124 43.7546 99.9038 43.8546 99.0138C43.9946 97.8138 44.1046 96.6239 44.1846 95.4239C44.3546 93.0239 44.4746 90.6138 44.5046 88.2038C44.5046 88.0838 44.3846 87.9538 44.2446 87.9638C44.1746 87.9638 44.1046 87.9738 44.0346 87.9738C44.0246 87.9338 43.9946 87.9038 43.9346 87.8838C41.9646 87.3638 39.9746 86.8839 37.9946 86.4239C38.0446 86.2739 38.0246 86.0939 37.9546 85.9339C37.9446 85.9139 37.9346 85.9038 37.9146 85.8938C37.7946 85.0838 37.1546 84.2238 36.3846 83.9138C35.1246 83.3938 34.4446 83.9539 33.5746 84.7339C33.4846 84.8239 32.9746 85.2438 33.0346 85.3238C32.4146 85.1938 31.7946 85.0539 31.1846 84.9239C30.2746 84.7339 29.0946 84.2638 28.1646 84.3438C26.5546 84.4838 27.0246 87.3238 26.9846 88.2838C26.8846 90.7038 26.7646 93.1239 26.6746 95.5539C26.6246 96.7639 26.5746 97.9739 26.5346 99.1839C26.5146 99.7339 26.4246 100.264 26.8846 100.644ZM36.9146 86.1939C36.3946 86.0739 35.8746 85.9638 35.3646 85.8438C35.0246 85.7638 34.2746 85.5639 33.9346 85.4939C34.2846 84.9139 35.3846 84.4938 35.9746 84.6538C36.3646 84.7538 36.7046 85.7339 36.9146 86.1939Z" fill="#494949"/>
<path d="M5.52464 111.584C6.04464 104.134 4.95464 96.5339 5.05464 89.0339C4.71464 86.4339 5.26464 83.7839 6.66464 81.3439C6.75464 81.1939 6.84464 81.0339 7.01464 80.9239C7.55464 80.5639 8.47464 80.7539 9.18464 80.9439C16.0146 82.7839 24.0846 82.3439 30.3146 79.7539C31.5446 80.9739 31.8946 82.4739 32.2046 83.9239C32.6946 86.2639 33.2346 88.6039 33.3646 90.9539V90.9639C33.3946 91.4739 33.4046 91.9739 33.3946 92.4839C33.3046 95.4139 32.4446 98.3039 31.7646 101.194C31.3246 103.084 30.9346 104.974 30.8946 106.894C30.8646 108.454 31.2046 109.884 30.6646 111.414C29.3446 115.184 29.3446 119.294 28.7846 123.144C28.1846 127.264 27.5946 131.394 27.1046 135.524C27.0846 135.684 27.0646 135.854 27.0446 136.014C26.7246 136.074 21.8546 136.804 21.8546 135.974C21.4646 127.954 21.0746 119.934 20.6846 111.914C20.5246 108.544 20.8946 97.1439 19.5846 93.9239C19.0446 93.9639 18.5046 93.9939 17.9646 94.0339C14.9946 104.644 11.4746 123.234 8.50464 133.844C8.24464 134.774 7.92464 135.784 6.98464 136.384C6.04464 136.984 4.27464 136.814 3.99464 135.884C4.86464 127.794 4.96464 119.694 5.52464 111.584Z" fill="#333"/>
<path d="M33.0446 88.1838C33.0446 88.1838 30.2646 88.1238 29.2446 86.7538C28.2246 85.3838 25.8446 81.1738 25.8446 81.1738L25.4646 81.2638C25.4646 81.2638 27.1146 84.3438 27.3346 84.6838C27.5546 85.0238 28.5546 88.7138 33.0446 88.4838V88.1838Z" fill="#636363"/>
<path d="M12.0646 81.5644C12.0646 81.5644 10.6946 88.8644 5.05464 89.4644V89.1544C5.05464 89.1544 10.0346 89.3644 11.6146 81.4844L12.0646 81.5644Z" fill="#636363"/>
<path d="M22.7946 136.094C24.2346 135.984 25.6946 136.044 27.1246 136.264C28.2246 137.044 29.4346 137.684 30.7046 138.164C31.0746 138.304 31.4646 138.444 31.7346 138.714C32.0046 138.984 32.1146 139.454 31.8646 139.744C31.6446 139.994 31.2446 140.024 30.9046 140.024C28.2346 140.054 25.5746 139.834 22.9446 139.384C22.7846 139.354 22.6246 139.324 22.5046 139.214C22.4146 139.124 22.3746 139.004 22.3346 138.894C22.0646 137.954 22.2346 136.914 22.7946 136.094Z" fill="#7A4135"/>
<path d="M4.34464 135.234C5.63464 135.374 6.91464 135.664 8.13464 136.104C8.96464 136.974 9.90464 137.734 10.9446 138.374C11.2446 138.564 11.5646 138.744 11.7546 139.034C11.9446 139.324 11.9546 139.744 11.6746 139.964C11.4346 140.154 11.0746 140.114 10.7746 140.054C8.41464 139.634 6.10464 139.004 3.87464 138.174C3.74464 138.124 3.59464 138.064 3.51464 137.954C3.45464 137.864 3.43464 137.754 3.42464 137.644C3.35464 136.764 3.70464 135.864 4.34464 135.234Z" fill="#7A4135"/>
<path d="M12.8646 46.6043C12.6546 46.2043 12.3346 45.8343 12.0946 45.4343C11.9146 45.1343 11.0946 44.0143 10.6646 44.6343C10.4746 44.9043 10.6146 45.3843 10.7146 45.6643C10.8346 45.9943 11.0346 46.2643 11.3046 46.4843C11.3146 46.5043 11.3146 46.5143 11.3246 46.5343C11.5846 46.8843 12.2546 47.9643 12.8346 47.3543C13.0546 47.1543 12.9946 46.8343 12.8646 46.6043Z" fill="#A89288"/>
<path d="M14.1546 45.8735C13.3246 44.5935 12.8146 43.0935 11.9346 41.8735C11.8746 41.7835 11.7846 41.7535 11.6846 41.7735C11.1246 41.8735 10.4246 41.8035 10.2446 42.4335C10.1346 42.8335 10.4046 43.4435 10.6746 43.9435C10.7846 44.2235 10.8746 44.3235 10.9446 44.4435C11.4246 45.2635 13.3246 49.8535 14.8546 47.8435C15.3446 47.1935 14.5046 46.4135 14.1546 45.8735Z" fill="#191919"/>
<path d="M11.9546 42.2539C11.9546 42.2539 11.1646 42.1138 11.1546 42.3338C11.1046 43.1038 13.6046 47.4538 13.6046 47.4538C13.6046 47.4538 13.5946 47.5239 13.7946 47.4939C13.9946 47.4639 14.6246 47.1739 14.6246 47.1739C14.6246 47.1739 13.7246 45.4439 13.6446 45.2339C13.5646 45.0239 12.0946 42.3238 12.0946 42.3238C12.0946 42.3238 12.0746 42.2739 11.9546 42.2539Z" fill="white"/>
<path d="M14.2746 47.5036C14.2446 47.5336 14.2246 47.5535 14.1946 47.5835C14.1246 47.6535 14.1446 47.7536 14.2146 47.8036C14.2746 47.8736 14.4146 47.8735 14.4546 47.7835C14.6946 47.7135 14.4846 47.2936 14.2746 47.5036Z" fill="white"/>
<path d="M16.7346 48.3036C17.5746 48.6536 18.3946 48.8736 18.9846 48.8836C19.6746 48.8936 20.3246 48.5536 20.9346 48.2136C22.1846 47.5236 23.5146 46.7636 24.1546 45.4836C24.5246 44.7336 24.6246 43.8836 24.6946 43.0536C24.8846 40.9536 24.9646 38.8436 24.9446 36.7436C24.9346 35.6636 24.8846 34.5136 24.2846 33.6136C23.2846 32.0936 21.1946 31.8336 19.3746 31.7236C17.5746 31.6136 15.6746 31.5236 14.0846 32.3736C12.4246 33.2636 12.8046 34.5636 12.6846 36.2036C12.5246 38.2436 12.4246 40.2836 12.4046 42.3336C12.3946 43.4936 12.4346 44.7236 13.0346 45.7136C13.6146 46.6436 15.2146 47.6736 16.7346 48.3036Z" fill="#A89288"/>
<path d="M20.6446 46.9838C20.3746 47.0938 20.0746 47.2138 19.7946 47.1238C19.5246 47.0338 19.3446 46.7738 19.1346 46.5838C18.9146 46.3938 18.5446 46.2938 18.3646 46.5138C18.5246 46.7138 18.3946 47.0338 18.1846 47.1738C17.9646 47.3138 17.6946 47.3138 17.4346 47.2938C16.9546 47.2738 16.3446 47.0638 16.3646 46.5938C16.2346 46.5938 16.1046 46.6038 15.9746 46.6038C15.8046 47.0038 15.9246 47.4838 16.1946 47.8238C16.4646 48.1638 16.8646 48.3738 17.2746 48.5038C18.5946 48.9438 20.1246 48.6438 21.1846 47.7438C21.5346 47.4438 21.8546 46.9638 21.6346 46.5538C21.3146 46.7038 20.9846 46.8438 20.6446 46.9838Z" fill="#D7C68E"/>
<path d="M11.0846 35.364C10.9346 37.184 10.5446 40.414 12.1046 41.744C13.6546 39.564 12.4446 36.074 14.4846 34.064C15.8146 32.754 18.1946 32.934 19.5546 34.214C20.1246 34.744 20.6046 35.464 21.3646 35.614C21.6146 35.664 21.8846 35.644 22.1346 35.674C24.6346 35.984 24.2846 40.304 24.5746 42.044C24.6346 42.394 24.8146 42.834 25.1746 42.814C25.4946 42.804 25.6546 42.424 25.7246 42.114C26.2646 39.844 26.2746 37.324 26.0346 35.014C25.9646 34.374 25.8546 33.724 25.5846 33.144C24.3146 30.454 19.7546 29.694 17.1046 30.104C14.3346 30.534 11.3346 32.304 11.0846 35.364Z" fill="#D7C68E"/>
<path d="M14.0346 51.654C12.8646 52.804 12.0846 54.294 11.2746 55.674C10.3646 57.224 9.41463 58.814 8.79463 60.484C8.53463 61.194 8.24464 62.484 9.27464 62.844C10.2746 63.194 11.0146 61.854 11.4446 61.274C13.6646 58.254 15.2846 55.584 17.2046 52.394C17.2446 52.324 17.4046 52.094 17.5346 51.824C17.6546 51.224 17.2946 50.6741 16.6046 50.5041C15.6246 50.2641 14.6446 51.054 14.0346 51.654Z" fill="#333"/>
<path d="M35.0446 86.4943C35.0546 86.4743 35.0646 86.4543 35.0546 86.4343C33.7546 79.7943 34.6246 72.9843 33.8546 66.2943C33.4746 62.9843 32.6346 59.8543 31.1446 56.8743C30.0346 54.6543 29.1046 51.6243 26.6446 50.5743C23.5746 49.2643 19.8846 49.3343 16.6346 49.6343C12.1246 50.0443 9.72464 54.9243 8.00464 58.6043C6.79464 61.1843 6.38464 64.2343 5.75464 66.9943C4.94464 70.5443 4.16464 74.4843 4.32464 78.1443C4.36464 79.0643 3.06464 87.2843 3.22464 87.2843C5.46464 87.2843 7.70464 87.4243 9.98464 87.4943C12.0546 87.5643 14.1546 87.5543 16.2246 87.5143C23.6046 87.3743 27.8946 88.1343 34.8046 86.7443C35.0146 86.7043 35.0846 86.5843 35.0446 86.4943Z" fill="#F3F3F5"/>
<path d="M34.2546 65.8935C33.8446 63.2735 33.3946 60.6635 32.3746 58.1835C31.3946 55.8335 30.0346 53.6535 28.6646 51.4935C28.6746 51.4035 28.0446 51.2835 27.9246 51.2635C25.9846 50.9535 25.4546 52.7635 25.6546 54.4035C25.9946 57.2835 28.3746 59.9035 29.6546 62.4535C31.1946 65.5035 31.9046 68.9735 32.7946 72.2335C33.7046 75.5735 34.5546 78.9435 35.1246 82.3435C35.1346 82.4335 35.2446 82.4935 35.3346 82.4935C35.6646 82.4935 35.9846 82.4935 36.3146 82.4935C36.4246 82.4935 36.5446 82.4035 36.5346 82.2835C35.8246 76.8235 35.1146 71.3535 34.2546 65.8935Z" fill="#EBEBED"/>
<path d="M19.1946 56.8438C19.1846 56.8438 19.1646 56.8538 19.1546 56.8538C19.1646 56.8538 19.1746 56.8537 19.1946 56.8438Z" fill="white"/>
<path d="M19.2746 56.8242C19.2646 56.8242 19.2646 56.8342 19.2546 56.8342C19.2646 56.8242 19.2746 56.8242 19.2746 56.8242Z" fill="white"/>
<path d="M19.2446 56.8342C19.2546 56.8342 19.2546 56.8242 19.2546 56.8242C19.2346 56.8342 19.2146 56.8342 19.1946 56.8442C19.2046 56.8442 19.2246 56.8442 19.2446 56.8342Z" fill="#1D4360"/>
<path d="M37.5246 83.9643C37.2846 83.7343 37.0346 83.5343 36.7546 83.3543C36.6646 83.2943 36.5746 83.2443 36.5246 83.1643C36.3446 82.9043 36.2646 81.6043 35.6746 82.1743C35.2046 82.6343 35.3446 83.5743 35.1646 84.1443C35.1046 84.3443 35.0346 84.5943 35.1946 84.7443C35.3546 84.8943 35.6346 84.8143 35.8146 84.6743C35.9846 84.5343 36.1146 84.3443 36.3246 84.2443C36.5846 84.1243 36.9246 84.2043 37.0946 84.4343C37.2046 84.5843 37.2646 84.7943 37.4446 84.8543C37.6546 84.9143 37.8646 84.6943 37.8446 84.4843C37.8246 84.2843 37.6746 84.1143 37.5246 83.9643Z" fill="#A89288"/>
<path d="M18.4646 51.1544C18.4346 51.0544 18.4046 50.9544 18.4346 50.8544C18.4846 50.6944 18.6746 50.6344 18.8346 50.5944C19.3846 50.4444 19.9946 50.3044 20.5146 50.5444C21.0346 50.7844 21.2846 51.5944 20.8246 51.9344C20.6046 52.0944 20.2746 52.1244 20.1746 52.3644C20.1246 52.4844 20.1446 52.6244 20.1746 52.7544C20.5446 54.6244 20.9146 56.4844 21.2846 58.3544C22.1146 62.5244 22.9446 66.7144 23.2946 70.9444C23.3346 71.4144 23.3646 71.8944 23.2546 72.3444C23.0146 73.3344 22.1446 74.0344 21.2646 74.5344C21.1646 74.5944 21.0646 74.6444 20.9546 74.6344C20.7946 74.6244 20.6846 74.4944 20.5846 74.3744C19.9146 73.5944 19.2446 72.8144 18.5846 72.0344C18.3346 71.7344 18.0746 71.4344 17.9346 71.0644C17.7546 70.5744 17.8146 70.0244 17.8746 69.5044C18.1246 67.3544 18.3846 65.2044 18.6346 63.0444C18.8846 60.9144 19.1346 58.7944 19.2046 56.6444C19.2446 55.5744 19.2246 54.5144 19.1546 53.4444C19.0946 52.5144 18.7446 52.0344 18.4646 51.1544Z" fill="#7A4135"/>
<path d="M15.1846 49.9641C15.3446 50.0941 15.3446 50.3341 15.3346 50.5341C15.3146 51.0341 15.2846 51.5441 15.3046 52.0441C15.4246 54.9941 17.2146 57.8241 19.8346 59.2041C20.0846 59.3341 20.3646 59.4641 20.6446 59.4641C21.4646 59.4641 21.9346 58.5541 22.2146 57.7841C22.9746 55.6941 23.7546 53.5541 23.8546 51.3341C23.8846 50.7541 23.8746 50.1241 24.1946 49.6441C24.5146 49.1641 25.3346 48.9642 25.6646 49.4442C25.8646 49.7342 25.8046 50.1241 25.7646 50.4741C25.4746 52.5741 25.9446 54.7741 27.0546 56.5841C28.0846 58.2541 29.6246 59.5542 30.8146 61.1242C33.5146 64.6842 34.2146 69.3242 34.8346 73.7542C35.4046 77.8042 35.9646 81.8841 35.6646 85.9641C35.6346 86.3541 35.5846 86.7641 35.3246 87.0441C35.0746 87.3141 34.6946 87.3941 34.3446 87.4741C31.2546 88.1141 28.1446 88.6341 25.0146 89.0341C22.0546 89.4141 19.0546 89.6842 16.0846 89.4442C14.1946 89.2942 12.3346 88.9242 10.4746 88.5642C7.58464 88.0042 4.69464 87.4441 1.80464 86.8841C2.30464 81.3441 2.79464 75.8041 3.29464 70.2741C3.55464 67.4241 3.82464 64.4941 5.14464 61.9641C5.80464 60.6841 6.70464 59.5542 7.44464 58.3142C8.54464 56.4642 9.27464 54.4041 10.4446 52.5841C11.1346 51.4741 13.4746 48.5141 15.1846 49.9641Z" fill="#97A8B2"/>
<path d="M11.8446 47.2435C11.5646 46.5635 11.3746 46.3135 10.7346 46.6635C10.5246 46.7835 10.0946 47.1935 9.75464 47.9135C7.44464 51.5635 5.78464 54.4835 3.91464 58.3835C3.25464 59.7735 3.02464 61.5635 4.03464 62.8635C4.76464 63.8035 6.30464 64.1635 7.26464 63.3535C8.12464 62.6335 8.65464 61.0235 8.97464 60.0035C9.54464 58.1635 9.80464 56.2435 10.3246 54.3935C10.8346 52.5735 11.1346 50.7335 11.6746 48.9135C11.8346 48.4035 12.0646 47.7735 11.8446 47.2435Z" fill="#EBEBED"/>
<path d="M64.3193 158.732C66.5793 158.762 69.1593 158.661 70.5993 157.001C70.9393 156.611 71.1893 156.131 71.1393 155.631C71.0193 154.551 69.6593 154.091 68.5393 153.911C61.9993 152.871 55.3093 153.271 48.6993 153.691C44.5693 153.951 40.3893 154.212 36.4493 155.422C34.3993 156.052 32.7593 157.691 35.3593 158.411C37.8693 159.111 41.7193 158.441 44.3493 158.471C50.9893 158.551 57.6593 158.642 64.3193 158.732Z" fill="url(#paint8_linear)"/>
<path d="M64.3193 158.732C66.5793 158.762 69.1593 158.661 70.5993 157.001C70.9393 156.611 71.1893 156.131 71.1393 155.631C71.0193 154.551 69.6593 154.091 68.5393 153.911C61.9993 152.871 55.3093 153.271 48.6993 153.691C44.5693 153.951 40.3893 154.212 36.4493 155.422C34.3993 156.052 32.7593 157.691 35.3593 158.411C37.8693 159.111 41.7193 158.441 44.3493 158.471C50.9893 158.551 57.6593 158.642 64.3193 158.732Z" fill="url(#paint9_linear)"/>
<path d="M54.9892 152.012C54.9892 152.062 54.9893 152.112 55.0193 152.152C55.0593 152.212 55.1393 152.222 55.2093 152.232C55.9393 152.292 56.6893 152.222 57.3993 152.022C57.4493 152.012 57.5093 151.992 57.5393 151.952C57.5793 151.912 57.5993 151.852 57.6093 151.792C57.7293 151.242 57.7393 150.662 57.6393 150.112C57.6293 150.062 57.6193 150.012 57.5793 149.972C57.5393 149.932 57.4793 149.932 57.4193 149.932C56.8493 149.912 55.6493 149.752 55.1493 150.052C54.7193 150.302 54.9792 151.552 54.9892 152.012Z" fill="#F9E9DE"/>
<path d="M43.5393 152.071C43.5493 152.121 43.5493 152.171 43.5893 152.211C43.6293 152.261 43.6993 152.261 43.7693 152.261C44.4993 152.281 45.2293 152.281 45.9593 152.271C46.0193 152.271 46.0893 152.271 46.1393 152.231C46.1993 152.181 46.2193 152.101 46.2293 152.031C46.3093 151.471 46.3393 150.911 46.3293 150.341C45.6393 150.351 44.9493 150.371 44.2493 150.381C43.7793 150.391 43.6293 150.341 43.5293 150.771C43.4293 151.161 43.4993 151.671 43.5393 152.071Z" fill="#F9E9DE"/>
<path d="M53.2593 144.361C53.4493 146.161 53.6492 147.981 54.1192 149.721C54.1992 150.031 54.3093 150.361 54.5493 150.541C54.7593 150.691 55.0193 150.691 55.2693 150.691C55.8993 150.681 56.5293 150.671 57.1593 150.671C57.3893 150.671 57.6292 150.661 57.8192 150.531C58.1992 150.281 58.2792 149.711 58.3092 149.211C59.2192 137.021 60.7293 124.841 63.7693 113.111C64.3493 110.861 64.9993 108.601 65.1593 106.261C65.3193 103.921 64.9593 101.441 63.6993 99.581C61.9493 96.991 58.8693 96.121 56.0093 95.941C54.5593 95.851 53.0793 95.891 51.6593 96.261C49.9893 96.691 50.2093 97.421 50.2593 99.241C50.3593 102.881 50.4993 106.521 50.6693 110.161C51.0093 117.431 51.4793 124.701 52.0893 131.951C52.4393 136.091 52.8293 140.231 53.2593 144.361Z" fill="#97A8B2"/>
<path d="M46.9093 149.691C46.8593 149.951 46.8093 150.232 46.6493 150.422C46.4993 150.592 46.2793 150.661 46.0693 150.711C45.0893 150.951 44.0893 151.021 43.0893 150.911C42.1493 138.921 40.7393 126.981 38.8793 115.131C38.4193 112.201 37.9293 109.261 37.9293 106.281C37.9293 103.301 38.4593 100.261 39.8793 97.7615C41.0093 95.7815 42.6893 94.2215 44.5793 93.2415C46.4993 92.2515 51.4393 91.3115 51.7693 94.7315C52.1893 99.0515 52.2393 103.471 52.1393 107.821C51.9393 116.861 50.8493 125.831 49.4593 134.721C48.6693 139.731 47.7893 144.711 46.9093 149.691Z" fill="#97A8B2"/>
<path d="M58.9493 64.8114C59.3493 64.9314 59.6593 65.2215 59.9593 65.5015C60.4493 65.9515 60.9293 66.4114 61.4193 66.8614C62.5893 67.9514 63.7693 69.0615 64.6593 70.3915C65.2593 71.2915 65.7193 72.2815 66.2993 73.1915C67.4493 75.0115 69.0693 76.5014 70.2093 78.3314C70.7193 79.1514 71.1193 80.0315 71.4893 80.9215C72.0993 82.4215 72.5993 84.0715 72.1793 85.6315C71.9793 86.3915 71.4893 87.1414 70.7293 87.3414C70.1993 87.4814 69.6293 87.3114 69.1393 87.0814C67.7893 86.4514 66.7293 85.3315 65.8093 84.1615C61.9193 79.2315 59.9093 73.1914 57.1793 67.6114C56.8793 67.0014 56.3793 66.3914 56.7993 65.7414C57.2093 65.0914 58.1893 64.5914 58.9493 64.8114Z" fill="#5E5E5E"/>
<path d="M43.5493 65.4415C43.1493 65.2615 42.6993 65.2315 42.2693 65.2715C40.7293 65.4215 39.3893 66.4515 38.4293 67.6615C37.4593 68.8715 36.7893 70.2915 35.9693 71.6015C34.4293 74.0615 32.3693 76.1615 30.8593 78.6315C30.4093 79.3615 29.9993 80.1615 29.9693 81.0115C29.9493 81.5915 30.0993 82.1615 30.2893 82.7115C30.4693 83.2015 30.7093 83.7215 31.1693 83.9715C31.6893 84.2615 32.3693 84.1115 32.8593 83.7715C33.3493 83.4315 33.6893 82.9215 34.0193 82.4215C35.0093 80.9215 35.9993 79.4315 36.9893 77.9315C38.2593 76.0015 39.5393 74.0715 41.0493 72.3215C41.8193 71.4315 42.6593 70.5815 43.2993 69.5915C43.9593 68.5615 45.1593 66.1815 43.5493 65.4415Z" fill="#5E5E5E"/>
<path d="M55.3092 65.1712C55.6992 64.9712 56.1793 64.7411 56.5393 64.9911C56.7093 65.1111 56.7792 65.3212 56.8792 65.5112C62.7192 76.9412 60.1493 75.4311 63.2593 82.9311C63.9193 84.5111 65.0493 92.1711 65.4593 93.8311C66.2193 96.9411 66.0593 98.7512 65.8893 101.951C65.8593 102.471 65.8293 103.001 65.5993 103.471C65.3393 103.971 64.8693 104.331 64.3993 104.641C61.6893 106.411 61.2793 107.121 58.0393 107.191C54.7993 107.261 51.5893 108.171 48.3993 107.631C46.7193 107.351 45.0393 107.071 43.3593 106.791C40.9993 106.401 38.4192 105.881 36.9392 103.991C36.2592 103.121 35.8892 102.041 35.6292 100.971C34.1692 94.9612 35.5992 88.6512 37.3092 82.7012C38.8692 77.2412 40.4893 71.6411 42.7093 66.4011C43.9193 63.5411 45.6892 65.6711 48.0592 66.1511C50.4892 66.6511 53.1092 66.3312 55.3092 65.1712Z" fill="#C4C4C4"/>
<path d="M45.8193 71.3315C46.1593 72.1115 46.4993 72.9015 46.6793 73.7315C46.8593 74.5815 46.8693 75.4515 46.8593 76.3215C46.8093 80.3515 46.4393 84.3815 45.7393 88.3515C45.4693 89.8815 45.4893 91.4015 45.4293 92.9515C45.3993 93.9015 45.1293 94.8615 44.9593 95.8015C44.7693 96.8515 45.0693 98.6215 44.7493 99.6415C43.8793 102.431 44.0993 105.001 43.2893 107.801C42.3393 107.231 41.5793 107.061 40.8793 107.021C40.1893 106.981 39.4793 106.651 38.7893 106.641C37.1093 106.611 35.4793 105.621 34.6793 104.151C33.9093 102.741 33.8993 101.041 33.9493 99.4315C34.0593 95.5015 34.3993 91.5715 35.3093 87.7415C35.7293 85.9715 36.2693 84.2215 36.8093 82.4815C38.0893 78.3515 39.3693 74.2215 40.6593 70.1015C40.9293 69.2315 41.8393 65.2915 43.2993 65.8415C43.8793 66.0615 44.3293 67.8915 44.5693 68.4415C44.9693 69.4015 45.3993 70.3615 45.8193 71.3315Z" fill="#666666"/>
<path d="M44.1093 53.2108C43.1893 55.1508 43.1793 57.3908 43.3793 59.5308C43.4393 60.2108 43.5293 60.8908 43.7693 61.5208C44.6093 63.6808 47.1093 64.7108 49.4193 64.8908C50.5193 64.9708 51.6393 64.9208 52.6793 64.5508C54.1493 64.0308 55.3593 62.9008 56.1593 61.5608C56.9593 60.2208 57.3893 58.6908 57.5993 57.1408C57.7593 55.9808 57.7993 54.7608 57.4293 53.6508C56.8693 51.9608 55.3893 50.6708 53.7193 50.0508C50.2693 48.7708 45.7993 49.6308 44.1093 53.2108Z" fill="#F9E9DE"/>
<path d="M48.2093 54.1211C46.9293 54.4011 45.6093 54.4411 44.3093 54.4711C43.5593 54.4911 42.8093 54.5111 42.0893 54.3311C41.3693 54.1511 40.6693 53.7311 40.3193 53.0711C40.7293 53.3211 41.2893 53.0911 41.5893 52.7211C41.8993 52.3511 42.0393 51.8711 42.2593 51.4511C42.4893 51.0111 42.8193 50.6211 43.1593 50.2611C45.8493 47.4711 50.1293 46.3211 53.8593 47.4011C55.4693 47.8711 56.9893 48.7411 57.9993 50.0711C59.0093 51.4011 59.4593 53.2111 58.9293 54.8011C58.7993 55.1911 58.5993 55.5811 58.2793 55.8411C57.8693 56.1711 57.2993 56.2511 56.7693 56.1911C55.4193 56.0411 54.3093 55.0811 53.3093 54.1611C52.6293 53.5411 51.9793 52.5411 51.0093 52.9511C50.0593 53.3511 49.2393 53.8211 48.2093 54.1211Z" fill="#736357"/>
<path d="M46.1893 70.4715C46.5393 71.1915 46.8893 71.9215 47.0893 72.7015C47.3093 73.5715 47.3393 74.4715 47.3593 75.3715C47.5193 85.1615 45.4893 98.3915 44.0293 108.072C43.6493 107.792 43.2993 108.001 42.7393 107.521C42.6293 105.961 43.8893 100.951 44.2893 99.4315C45.7693 93.8715 44.6893 87.8915 45.9993 82.2915C46.1693 81.5415 46.3893 80.8015 46.3893 80.0315C46.3893 79.2415 46.1593 78.4715 46.1693 77.6815C46.1793 76.6315 46.5993 75.5915 46.4993 74.5515C46.3993 73.5115 45.7893 72.6015 45.3193 71.6615C44.7593 70.5415 43.5193 67.7015 44.2393 66.5215C45.0493 67.6715 45.5693 69.1915 46.1893 70.4715Z" fill="#67302D"/>
<path d="M41.6993 70.6114C42.4893 70.8214 43.2793 71.0314 44.0693 71.2314C44.0093 72.4514 43.7093 73.6514 43.1993 74.7514C43.1593 74.8514 43.1093 74.9514 43.1193 75.0514C43.1293 75.1514 43.1993 75.2314 43.2593 75.3014C44.2793 76.5214 45.2893 77.7314 46.3093 78.9514C46.5393 76.7114 46.7493 74.3814 46.0593 72.2414C45.7593 71.3214 45.3093 70.4814 44.8793 69.6214C44.5693 69.0014 44.2893 67.6214 43.8193 67.1814C42.2193 65.6514 42.3693 70.7914 41.6993 70.6114Z" fill="#4D4D4D"/>
<path d="M57.1993 64.7207C58.0193 68.3007 61.0293 71.2107 61.3193 74.8707C61.3693 75.5307 61.7693 76.3207 61.9293 76.9607C62.1193 77.7107 62.1293 78.2407 62.4993 78.9207C63.6793 81.1507 63.9093 83.7507 64.5393 86.1907C64.8893 87.5507 65.3693 88.8807 65.7093 90.2507C66.3693 92.9207 66.4893 95.6907 66.5493 98.4307C66.5793 99.8807 66.5993 101.321 66.6093 102.771C66.6093 103.191 66.6093 103.621 66.4493 104.011C66.2993 104.391 66.0093 104.701 65.7193 104.981C62.9593 107.641 58.9993 109.001 55.1893 108.591C55.1693 107.881 55.1093 107.161 54.9493 106.461C54.8093 105.871 54.5993 105.301 54.4593 104.711C54.2593 103.851 54.2193 102.961 54.1793 102.081C54.0593 99.2107 53.9393 96.3507 53.8193 93.4807C53.6793 90.1107 53.5393 86.7407 53.0593 83.4107C52.9193 82.4707 52.7593 81.5307 52.7893 80.5707C52.8093 79.8007 52.9493 79.0407 53.0193 78.2707C53.1493 76.8007 52.9993 75.3207 53.2393 73.8607C53.5393 71.9807 54.4793 70.2607 54.7793 68.3807C55.0393 66.6507 55.3993 65.5607 57.1993 64.7207Z" fill="#666666"/>
<path d="M52.6093 70.8014C51.9493 72.9214 51.2893 75.0814 51.3393 77.2914C51.3593 78.3914 51.5693 79.4814 51.7193 80.5714C52.1293 83.3614 52.2593 86.1714 52.3993 88.9814C52.6393 93.9514 52.8793 98.9114 53.1293 103.881C53.1593 104.541 53.7293 107.481 54.0793 108.051C54.4293 108.621 54.8392 108.431 55.4292 108.121C54.7692 102.951 54.2293 96.0614 53.8793 90.8614C53.5793 86.4614 53.2892 82.0614 52.9892 77.6514C52.9392 76.9614 52.8992 76.2614 52.9892 75.5714C53.1092 74.6914 53.4393 73.8514 53.7293 73.0114C54.5293 70.6914 55.2592 68.0914 55.4892 65.6514C53.4292 66.6314 53.2193 68.8314 52.6093 70.8014Z" fill="#67302D"/>
<path d="M57.3193 71.2315C56.4593 72.1715 55.5293 73.0315 54.5393 73.8215C55.0893 74.1515 55.6693 74.4415 56.2593 74.7015C55.4893 75.4815 54.7693 76.3115 54.0993 77.1715C53.4693 77.9915 52.8693 78.9315 52.9493 79.9615C53.0593 78.8515 52.4193 77.8115 52.2293 76.7115C51.8793 74.6215 53.1893 72.6615 53.8693 70.6515C54.1193 69.9115 54.3793 66.3615 55.4493 66.6915C55.8093 66.8015 57.4593 71.0715 57.3193 71.2315Z" fill="#4D4D4D"/>
<path d="M41.8993 96.331C42.0893 96.461 42.2793 96.601 42.3493 96.821C42.4193 97.031 42.2793 97.331 42.0593 97.321C40.2393 96.441 38.6093 95.211 36.9993 93.991C36.6293 93.711 35.2293 93.021 35.6993 92.461C36.0893 92.001 37.1493 93.051 37.4693 93.271C38.9393 94.291 40.4193 95.311 41.8993 96.331Z" fill="#4D4D4D"/>
<path d="M61.4892 92.9414C61.8892 92.6414 62.2893 92.3414 62.6393 91.9814C63.0493 91.5714 63.4393 91.0614 64.0193 90.9814C63.9393 91.2314 64.1593 91.4914 64.1593 91.7514C64.1593 92.0314 63.9093 92.2414 63.6893 92.4114C61.8593 93.8214 60.0193 95.2414 58.1893 96.6514C57.8893 96.8814 57.6093 97.0614 57.2293 97.0414C56.5893 95.7614 60.5592 93.6414 61.4892 92.9414Z" fill="#4D4D4D"/>
<path d="M31.6493 83.3815C31.7693 84.0115 31.8893 84.6615 32.2593 85.1615C32.7193 85.7915 33.4993 86.0814 34.2393 86.0914C34.9793 86.1014 35.4193 85.8815 36.1293 85.6615C38.2993 84.9915 40.6793 84.6614 42.8493 83.9914C43.2293 83.8714 43.6293 83.7415 43.8893 83.4115C44.3693 82.7815 43.9593 81.8915 43.7593 81.1015C42.6793 76.8715 42.1693 72.7114 40.8793 68.7114C40.7693 68.3514 40.7593 68.1914 40.5093 67.8614C40.3993 67.7114 40.1493 67.6315 39.9693 67.6415C37.9493 67.8115 36.0093 68.2015 34.1293 68.9215C32.9193 69.3815 30.4593 69.7314 29.3693 70.6914C28.3293 71.6014 29.7893 74.9414 30.0493 76.3614C30.4893 78.6914 31.2193 81.0315 31.6493 83.3815Z" fill="#EFEFEF"/>
<path d="M37.4892 75.8813C37.1392 75.3613 36.7592 74.8513 36.3692 74.3613C36.2492 74.2113 36.0093 74.3113 35.9593 74.4613C35.6293 75.4613 35.2992 76.5413 35.2392 77.6013C35.1792 77.7113 35.1693 77.8413 35.2193 77.9513C35.2193 77.9813 35.2093 78.0213 35.2093 78.0513C35.2093 78.1313 35.3093 78.1413 35.3493 78.0813C35.3993 78.1013 35.4493 78.1213 35.5193 78.1113C36.1893 78.0313 36.8793 77.9613 37.5293 77.7913C37.8193 77.7113 38.2293 77.6213 38.2593 77.2613C38.2893 76.8313 37.7192 76.2113 37.4892 75.8813ZM37.0893 77.2413C36.5893 77.3113 36.0893 77.3613 35.5893 77.4113C35.8393 76.6313 36.0393 75.8313 36.2893 75.0513C36.6793 75.5713 37.0593 76.1113 37.3993 76.6713C37.6393 77.0813 37.5593 77.1813 37.0893 77.2413Z" fill="white"/>
<path d="M31.1393 80.841C31.2393 80.601 31.3593 80.331 31.5993 80.221C31.8393 80.111 32.1993 80.301 32.1293 80.561C32.7893 80.531 33.0893 79.561 33.7493 79.521C34.0093 79.511 34.2493 79.651 34.4393 79.821C34.7393 80.091 34.9693 80.431 35.0993 80.821C35.1793 81.051 35.2193 81.291 35.1593 81.521C35.0493 81.951 34.6493 82.221 34.2693 82.441C33.4093 82.961 32.5393 83.471 31.6593 83.961C31.5293 84.031 31.3893 84.111 31.2393 84.131C30.9893 84.161 30.7393 84.021 30.5893 83.821C29.8893 82.931 30.7793 81.721 31.1393 80.841Z" fill="#F9E9DE"/>
<path d="M72.0393 84.4006C71.6793 83.8206 70.9693 83.5606 70.2993 83.4406C68.6193 83.1406 66.8793 83.4906 65.2993 84.1406C63.7193 84.7906 62.2893 85.7306 60.8593 86.6606C59.3693 87.6406 57.8793 88.6106 56.3893 89.5906L55.4293 90.2206C55.0793 90.2906 54.8493 90.6606 54.8293 91.0206C54.8093 91.3806 54.9493 91.7306 55.0893 92.0606C55.4593 92.9506 55.8193 93.8406 56.1893 94.7306C58.1793 94.2306 60.1893 93.7406 62.0993 92.9806C64.2493 92.1406 66.2593 90.9806 68.2293 89.7706C69.4493 89.0206 70.6693 88.2206 71.5493 87.1006C72.1393 86.3206 72.5493 85.2306 72.0393 84.4006Z" fill="#5E5E5E"/>
<path d="M48.9892 95.4416C49.0392 95.6816 49.0793 95.9216 49.2093 96.1316C49.4293 96.5216 49.8693 96.7416 50.3193 96.8116C50.7593 96.8816 51.2093 96.8116 51.6593 96.7416C51.9293 96.7016 52.1993 96.6616 52.4593 96.6216C52.6293 96.5916 52.7993 96.5716 52.9593 96.4916C53.3893 96.2916 53.5893 95.7816 53.6893 95.3116C54.1293 93.2516 53.4493 91.1216 53.3793 89.0116C53.3793 88.9116 53.3693 88.8116 53.3293 88.7216C53.2293 88.5316 52.9693 88.5116 52.7593 88.5216C51.9693 88.5416 51.1893 88.6416 50.4193 88.7916C49.7493 88.9316 48.9792 89.0816 48.3692 89.4016C47.9392 89.6316 47.7793 89.9816 47.8893 90.4516C48.0593 91.2216 48.3093 91.9716 48.4793 92.7416C48.6593 93.6516 48.8192 94.5516 48.9892 95.4416Z" fill="#F5F5F5"/>
<path d="M53.3593 88.1515C53.2293 88.1315 53.0893 88.1515 52.9493 88.1715C52.8793 88.1815 52.8193 88.1915 52.7493 88.2015C52.7293 88.0815 52.6793 87.9615 52.6093 87.8715C52.5893 87.8415 52.5593 87.8214 52.5293 87.8014C52.4893 87.7914 52.4493 87.7914 52.4193 87.8014C52.1393 87.8514 51.8693 87.9114 51.5893 87.9914C51.5393 88.0014 51.4893 88.0215 51.4593 88.0615C51.4193 88.1115 51.3993 88.3215 51.4193 88.4215C50.8993 88.5115 50.3793 88.5915 49.8693 88.6815C49.3493 88.7715 48.8393 88.8614 48.3193 88.9614C48.0193 89.0214 47.5893 89.0515 47.4693 89.2615C47.3793 89.4315 47.3993 89.8615 47.7793 89.8715C47.8393 89.8715 47.8993 89.8615 47.9593 89.8515C49.6093 89.5815 51.2693 89.3115 52.9193 89.0415C53.0593 89.0215 53.1993 88.9915 53.3193 88.9415C53.5393 88.8415 53.6293 88.6714 53.6493 88.5214C53.6793 88.3714 53.6093 88.1915 53.3593 88.1515Z" fill="#454545"/>
<path d="M52.3093 91.4907C51.9993 91.5307 51.6693 91.5807 51.4293 91.7807C51.1893 91.9707 51.0693 92.3707 51.2693 92.6007C50.7293 92.8907 50.0493 92.9207 49.5793 93.3107C49.2193 93.6207 49.0493 94.1307 49.0893 94.6007C49.1293 95.0807 49.3593 95.5207 49.6793 95.8907C49.9393 96.1807 50.2693 96.4407 50.6493 96.5007C51.0593 96.5707 51.4693 96.4107 51.8493 96.2607C52.8393 95.8707 53.8293 95.4706 54.8293 95.0806C55.4293 94.8406 56.1293 94.4807 56.1793 93.8407C56.1993 93.5707 56.0993 93.3006 55.9993 93.0506C55.7993 92.5306 55.5893 91.3507 55.0193 91.1407C54.3293 90.8807 53.0693 91.4907 52.3093 91.4907Z" fill="#F9E9DE"/>
<path d="M38.9193 153.881C39.6893 153.591 40.5392 153.681 41.3692 153.691C41.8592 153.701 42.4093 153.641 42.7193 153.271C42.9793 152.961 42.9993 152.511 42.9693 152.101C42.9593 151.991 42.9593 151.871 43.0193 151.791C43.0893 151.701 43.2193 151.681 43.3393 151.671C44.3293 151.591 45.3193 151.501 46.3193 151.421C46.4193 151.411 46.5193 151.411 46.5993 151.461C46.6993 151.531 46.7093 151.681 46.7093 151.801C46.7193 152.971 46.7193 154.141 46.7293 155.301C46.7293 155.441 46.7293 155.581 46.6693 155.701C46.5393 155.961 46.2092 156.031 45.9292 156.061C43.6992 156.351 41.4593 156.591 39.2093 156.771C38.3993 156.831 37.0993 156.941 37.3393 155.811C37.5293 154.951 38.0993 154.201 38.9193 153.881Z" fill="#4A4E31"/>
<path d="M57.3693 151.271C57.5993 151.261 57.8693 151.281 58.0093 151.461C58.0893 151.571 58.1093 151.711 58.1193 151.841C58.1593 152.221 58.2093 152.611 58.2493 152.991C58.2793 153.221 58.3093 153.461 58.4493 153.651C58.5893 153.831 58.8093 153.931 59.0293 153.991C59.6493 154.171 60.2993 154.131 60.9393 154.171C61.5793 154.221 62.2593 154.381 62.6893 154.851C62.9993 155.191 63.1393 155.661 63.1593 156.121C63.1593 156.211 63.1593 156.301 63.1193 156.381C63.0393 156.531 62.8493 156.581 62.6793 156.601C62.1693 156.661 61.6493 156.651 61.1393 156.631C60.0893 156.601 59.0293 156.571 57.9793 156.541C56.9493 156.511 55.9093 156.481 54.8893 156.271C54.7793 156.251 54.6593 156.221 54.5993 156.131C54.5493 156.071 54.5393 155.981 54.5293 155.911C54.4393 155.141 54.3493 154.361 54.2593 153.591C54.1993 153.081 53.9793 152.361 54.2693 151.891C54.7693 151.051 56.5793 151.271 57.3693 151.271Z" fill="#4A4E31"/>
<path d="M78.2625 155.182C78.4625 155.292 78.7525 155.352 78.9925 155.382C79.8725 155.472 80.7525 155.532 81.6425 155.592C83.4525 155.702 85.2725 155.772 87.0925 155.812C90.7325 155.892 94.3825 155.882 98.0225 156.012C98.6225 156.032 99.2125 156.102 99.8025 156.092C107.423 155.872 111.832 155.872 117.562 155.692C124.822 155.462 132.523 154.072 116.363 153.062C112.913 152.842 109.263 152.832 105.803 152.642C102.743 152.472 99.6725 152.402 96.6025 152.402C93.9325 152.402 91.2625 152.442 88.5925 152.472C85.8025 152.512 82.5725 151.962 80.0025 153.402C79.7725 153.532 79.5525 153.672 79.3225 153.782C79.0025 153.932 78.6625 154.022 78.3825 154.262C77.8325 154.712 77.9525 155.012 78.2625 155.182Z" fill="url(#paint10_linear)"/>
<path opacity="0.56" d="M78.2625 155.182C78.4625 155.292 78.7525 155.352 78.9925 155.382C79.8725 155.472 80.7525 155.532 81.6425 155.592C83.4525 155.702 85.2725 155.772 87.0925 155.812C90.7325 155.892 94.3825 155.882 98.0225 156.012C98.6225 156.032 99.2125 156.102 99.8025 156.092C107.423 155.872 111.832 155.872 117.562 155.692C124.822 155.462 132.523 154.072 116.363 153.062C112.913 152.842 109.263 152.832 105.803 152.642C102.743 152.472 99.6725 152.402 96.6025 152.402C93.9325 152.402 91.2625 152.442 88.5925 152.472C85.8025 152.512 82.5725 151.962 80.0025 153.402C79.7725 153.532 79.5525 153.672 79.3225 153.782C79.0025 153.932 78.6625 154.022 78.3825 154.262C77.8325 154.712 77.9525 155.012 78.2625 155.182Z" fill="url(#paint11_linear)"/>
<path d="M86.9325 127.872C87.2925 120.742 86.5325 113.472 86.6025 106.292C86.3625 103.802 86.7525 101.272 87.7325 98.9321C87.7925 98.7821 87.8625 98.6421 87.9825 98.5321C88.3625 98.1821 89.0025 98.3721 89.5025 98.5521C94.3125 100.312 99.9825 99.8921 104.363 97.4121C105.233 98.5821 105.473 100.012 105.693 101.402C106.043 103.642 106.413 105.882 106.513 108.132V108.142C106.533 108.622 106.543 109.112 106.533 109.592C106.473 112.402 105.863 115.162 105.383 117.932C105.073 119.732 104.803 121.552 104.773 123.382C104.753 124.882 104.993 126.242 104.613 127.712C103.683 131.322 103.683 135.252 103.293 138.932C102.873 142.882 102.453 146.822 102.113 150.782C102.103 150.942 102.083 151.092 102.073 151.252C101.853 151.302 98.4225 152.002 98.4225 151.222C98.1525 143.552 97.8725 135.882 97.6025 128.202C97.4825 124.972 97.7525 114.062 96.8325 110.992C96.4525 111.022 96.0725 111.062 95.6925 111.092C93.6025 121.242 91.1325 139.032 89.0425 149.182C88.8625 150.072 88.6325 151.042 87.9725 151.612C87.3125 152.192 86.0725 152.022 85.8725 151.132C86.4625 143.392 86.5325 135.642 86.9325 127.872Z" fill="#516277"/>
<path d="M91.4725 57.3325C91.4725 54.4025 94.0325 52.0225 97.1825 52.0225C100.333 52.0225 102.893 54.4025 102.893 57.3325C102.893 57.8225 102.813 58.2924 102.683 58.7424C102.683 58.8624 102.673 58.9724 102.673 59.1024C102.693 60.1624 102.643 61.2225 102.433 62.2725C102.033 64.3025 100.983 66.1924 98.9925 67.3524C98.3325 67.7324 97.5725 68.0325 96.7725 68.0225C95.7025 68.0125 94.7325 67.4625 93.9925 66.7924C91.5525 64.5424 91.3325 61.1724 91.5125 57.9924C91.4925 57.7624 91.4725 57.5525 91.4725 57.3325Z" fill="#D1AC9D"/>
<path d="M99.7725 67.2626C99.5025 67.6226 99.2325 67.9826 98.8325 68.2226C98.3625 68.5126 97.7625 68.5925 97.1825 68.6025C96.4825 68.6125 95.7525 68.5226 95.1825 68.1626C94.7825 67.9026 93.7925 67.1026 93.5425 66.7226C92.6925 65.4326 92.1525 64.5426 91.7025 63.1126C91.5625 62.6726 91.4425 62.2226 91.4625 61.7726C91.6325 61.7026 91.8325 61.8125 91.9125 61.9625C91.9925 62.1125 91.9825 62.2826 91.9925 62.4526C92.0225 63.3326 92.4725 64.1626 92.9225 64.9426C93.3225 65.6326 94.3425 66.2426 94.9625 66.7826C95.5825 67.3326 96.4425 67.7126 97.3125 67.6626C97.4225 67.6526 97.5425 67.6426 97.6425 67.5926C97.8525 67.4826 97.9425 67.2526 98.0025 67.0426C98.0625 66.8326 98.1425 66.6026 98.3425 66.4826C98.5425 66.3626 98.9125 66.4726 98.8825 66.6926C98.8625 66.8326 98.7025 66.9325 98.7025 67.0725C98.7025 67.2325 98.9325 67.3326 99.1025 67.2826C99.2725 67.2426 99.4025 67.1026 99.5125 66.9826C99.7825 66.6826 100.063 66.3726 100.333 66.0725C100.453 65.9425 100.583 65.8426 100.743 65.9126C100.543 66.3726 100.103 66.8326 99.7725 67.2626Z" fill="#333"/>
<path d="M98.3125 151.332C99.7825 151.222 101.273 151.282 102.723 151.502C103.843 152.242 105.073 152.862 106.373 153.322C106.753 153.462 107.143 153.592 107.423 153.852C107.703 154.112 107.813 154.562 107.553 154.832C107.323 155.072 106.923 155.102 106.573 155.102C103.853 155.132 101.133 154.922 98.4525 154.492C98.2925 154.462 98.1225 154.432 98.0025 154.332C97.9125 154.252 97.8625 154.132 97.8325 154.022C97.5625 153.112 97.7425 152.112 98.3125 151.332Z" fill="#3D322B"/>
<path d="M85.7425 150.513C87.0625 150.653 88.3625 150.923 89.6025 151.343C90.4425 152.173 91.4125 152.903 92.4625 153.513C92.7725 153.693 93.0925 153.863 93.2825 154.143C93.4725 154.423 93.4925 154.823 93.2025 155.033C92.9525 155.213 92.5925 155.173 92.2825 155.123C89.8725 154.723 87.5125 154.123 85.2425 153.323C85.1025 153.273 84.9625 153.223 84.8825 153.113C84.8125 153.023 84.8025 152.923 84.7925 152.813C84.7325 151.973 85.0825 151.113 85.7425 150.513Z" fill="#3D322B"/>
<path d="M102.273 106.962C102.443 106.582 102.672 106.232 102.932 105.892C103.292 105.412 103.703 104.972 104.013 104.472C104.223 104.132 104.393 103.762 104.733 103.512C104.873 103.402 105.062 103.322 105.252 103.352C105.422 103.382 105.552 103.502 105.632 103.642C105.702 103.782 105.733 103.932 105.743 104.082L105.752 104.472C105.442 105.742 105.143 107.012 104.833 108.272C104.773 108.522 104.692 108.802 104.442 108.942C104.222 109.062 103.942 109.032 103.692 108.992C103.172 108.912 102.613 108.812 102.293 108.432C101.943 108.022 102.053 107.442 102.273 106.962Z" fill="#D1AC9D"/>
<path d="M104.833 102.722C104.693 103.432 104.642 104.372 105.192 104.602C105.762 104.832 106.342 104.062 106.692 103.402C107.462 101.952 108.233 100.502 109.013 99.0621C110.513 96.2421 112.043 93.3521 112.733 90.2021C113.013 88.9221 113.102 87.4321 112.382 86.5721C111.932 86.0321 111.252 85.8521 110.592 85.7321C107.322 85.1421 107.523 88.8721 106.963 91.7721C106.253 95.4221 105.543 99.0721 104.833 102.722Z" fill="#97A8B2"/>
<path d="M100.333 103.423C100.643 104.413 101.033 105.383 101.513 106.273C102.403 107.893 104.443 108.523 106.363 108.263C106.383 108.403 106.333 108.633 106.333 108.723C106.293 109.203 106.203 109.683 106.063 110.153C105.963 110.473 105.833 110.803 105.533 110.993C105.193 111.213 104.733 111.203 104.313 111.163C103.583 111.103 102.843 110.993 102.163 110.763C101.233 110.443 100.413 109.903 99.6825 109.303C99.1325 108.853 98.6225 108.353 98.2725 107.763C97.9325 107.183 97.7725 106.533 97.6625 105.883C97.5225 105.073 97.4725 104.243 97.6025 103.433C98.4525 103.443 99.3925 103.443 100.333 103.423Z" fill="#516277"/>
<path d="M105.823 108.212C105.443 108.272 105.053 108.272 104.673 108.222C103.923 108.132 103.193 107.842 102.633 107.382C102.153 106.992 101.803 106.492 101.493 105.972C101.013 105.162 100.652 104.302 100.402 103.412C100.482 103.412 100.572 103.412 100.652 103.402C100.782 103.842 100.923 104.272 101.073 104.702C101.453 105.742 102.143 106.992 103.243 107.612C104.163 108.142 105.283 108.042 106.363 108.002C106.513 107.992 106.562 108.222 106.402 108.242C106.392 108.242 106.382 108.242 106.372 108.242C106.362 108.202 106.353 108.162 106.333 108.142C106.223 108.082 105.943 108.192 105.823 108.212Z" fill="#4B5B6B"/>
<path d="M101.513 106.273C101.023 105.383 100.633 104.423 100.333 103.423C100.353 103.423 100.372 103.423 100.402 103.423C100.652 104.313 101.013 105.173 101.493 105.983C101.793 106.493 102.153 106.993 102.633 107.393C103.193 107.853 103.923 108.143 104.673 108.233C105.053 108.283 105.443 108.273 105.823 108.223C105.943 108.203 106.223 108.093 106.323 108.173C106.343 108.193 106.363 108.233 106.363 108.273C104.453 108.513 102.403 107.893 101.513 106.273Z" fill="#516277"/>
<path d="M85.4625 98.7023C85.4825 94.4423 85.4925 90.1923 85.5125 85.9323C85.5225 82.3423 86.4325 78.5423 87.0125 75.0023C87.3325 73.0523 87.7125 72.3723 88.6925 70.6423C88.8325 70.3923 88.8525 70.2323 90.1525 69.8523C90.4325 69.7723 91.1025 69.4223 91.4425 69.4823C93.1325 69.7423 94.8525 69.1623 96.5425 69.4223C98.3325 69.6923 101.333 68.8723 102.723 69.9823C104.603 71.4723 104.733 75.0323 105.033 77.3523C105.433 80.4823 106.393 83.6623 106.563 86.8223C106.713 89.5923 106.793 92.3623 106.853 95.1323C106.883 96.5723 107.463 101.602 106.033 102.562C105.193 103.122 102.953 103.362 100.643 103.422C100.563 103.422 100.473 103.432 100.393 103.432C100.373 103.432 100.353 103.432 100.323 103.432C99.3825 103.452 98.4425 103.452 97.5925 103.432C96.3325 103.412 95.2725 103.352 94.6925 103.302C92.0025 103.082 89.3425 102.582 86.7025 102.032C86.2325 101.932 85.7125 101.802 85.4625 101.412C85.2825 101.132 85.4625 99.0323 85.4625 98.7023Z" fill="#97A8B2"/>
<path d="M104.763 71.6724C104.073 70.8924 103.293 70.1424 102.383 69.8824C101.473 69.6224 100.422 69.9924 100.062 70.9724C99.7425 71.8724 100.073 72.9524 100.443 73.8824C101.393 76.2624 102.593 78.5024 103.793 80.7324C105.063 83.0824 106.322 85.4324 107.592 87.7824C107.972 88.4924 108.393 89.2424 109.013 89.6324C110.103 90.3224 112.603 89.4524 112.793 87.9524C112.963 86.6024 111.162 83.2824 110.652 81.9924C109.162 78.2424 107.333 74.5824 104.763 71.6724Z" fill="#97A8B2"/>
<path d="M97.2325 70.1027C97.1425 69.9927 97.0525 69.8527 97.1025 69.7227C97.1425 69.6227 97.2625 69.5727 97.3625 69.5327C97.8425 69.3327 98.3325 69.1527 98.8325 68.9927C98.9925 68.9427 99.1825 68.8927 99.3325 68.9727C99.4125 69.0127 99.4625 69.0827 99.5125 69.1427C99.8225 69.5527 100.133 69.9527 100.443 70.3627C100.493 70.4227 100.543 70.4927 100.543 70.5727C100.543 70.6627 100.463 70.7427 100.393 70.8027C100.063 71.1227 99.7425 71.4627 99.4525 71.8127C99.2425 72.0627 98.9925 72.6627 98.5825 72.4027C98.2625 72.2027 98.1525 71.5927 97.9925 71.2827C97.7825 70.8827 97.5225 70.4827 97.2325 70.1027Z" fill="#ABBCC4"/>
<path d="M95.5525 71.6526C95.4925 71.9126 95.4625 72.1726 95.3625 72.4226C95.3525 72.4526 95.3325 72.4926 95.3025 72.5126C95.2025 72.5826 95.0725 72.4726 95.0125 72.3826C94.4525 71.6026 93.7925 70.8726 93.0425 70.2226C92.8925 70.0926 92.7425 69.9626 92.6525 69.8026C92.5625 69.6326 92.5625 69.4226 92.7025 69.2826C92.7925 69.1926 92.9325 69.1526 93.0625 69.1126C93.3425 69.0326 93.6325 68.9526 93.9125 68.8726C94.0825 68.8226 94.2625 68.7726 94.4425 68.7926C94.6025 68.8126 94.7525 68.8926 94.8925 68.9726C95.2325 69.1726 96.1925 69.5826 96.2225 69.9826C96.2425 70.2126 95.9425 70.5526 95.8525 70.7726C95.7125 71.0526 95.6225 71.3526 95.5525 71.6526Z" fill="#ABBCC4"/>
<path d="M97.8825 71.4928C97.8925 71.4528 97.9025 71.4228 97.8825 71.3828C97.8725 71.3528 97.8425 71.3328 97.8025 71.3128C97.3925 71.0528 96.8625 70.9428 96.3725 71.0128C96.3125 71.0228 96.2525 71.0328 96.2025 71.0628C96.1425 71.1028 96.1125 71.1528 96.0925 71.2128C95.9825 71.4628 96.0025 71.7528 96.0925 72.0128C96.1825 72.2728 96.3425 72.5028 96.5025 72.7328C96.5225 72.7628 96.5425 72.7928 96.5825 72.8128C96.6125 72.8328 96.6525 72.8328 96.6925 72.8328C97.3725 72.7928 97.7425 71.9828 97.8825 71.4928Z" fill="#333"/>
<path d="M98.1925 79.9428C98.8625 83.7328 99.5325 87.5428 99.8025 91.3728C99.8225 91.6328 99.8325 91.8928 99.7425 92.1328C99.6625 92.3428 99.5125 92.5128 99.3625 92.6828C98.7925 93.3328 98.2225 93.9828 97.6525 94.6328C97.5525 93.2928 95.6825 92.5828 95.2325 91.2928C95.0825 90.8528 95.1025 90.3828 95.1325 89.9228C95.3325 86.5228 95.5325 83.1228 95.7325 79.7228C95.8425 77.8728 95.5325 74.6728 96.6625 73.0928C97.4325 73.3028 97.4225 75.5228 97.5425 76.1828C97.7525 77.4428 97.9725 78.6928 98.1925 79.9428Z" fill="#333"/>
<path d="M81.3425 87.0129C80.0825 90.8329 79.1325 94.7329 78.5025 98.6729C78.4425 99.0429 78.3925 99.4529 78.5925 99.7829C78.8525 100.193 79.4125 100.353 79.9225 100.483C82.9525 101.233 85.9825 101.983 89.0225 102.733C90.1125 103.003 91.2225 103.273 92.3525 103.323C92.5525 103.333 92.7725 103.333 92.9525 103.233C93.1525 103.123 93.2525 102.923 93.3325 102.733C94.3025 100.623 95.1625 98.4729 95.8925 96.2929C96.3025 95.0729 96.6725 93.8428 97.0225 92.6028C97.4125 91.1928 97.0925 90.4929 95.5725 90.2029C93.9925 89.8929 92.4425 89.3729 90.8825 88.9829C90.0825 88.7829 81.4325 86.7429 81.3425 87.0129Z" fill="#E2E2E2"/>
<path d="M86.5825 93.9126C86.5625 93.8926 86.5425 93.8725 86.5225 93.8525C86.5625 93.8625 86.5825 93.8826 86.5825 93.9126Z" fill="white"/>
<path d="M86.1125 95.6132C86.8325 95.7232 87.5225 95.9032 88.2125 96.1432C88.3425 96.1932 88.5225 96.0632 88.5025 95.9232C88.4025 94.9232 88.3025 93.9331 88.2025 92.9331C88.1925 92.8431 88.1425 92.7831 88.0725 92.7431C87.9725 92.5731 87.6925 92.5432 87.6525 92.7832C87.5825 93.2132 87.0725 93.6732 86.8225 94.0232C86.5325 94.4332 86.2525 94.8632 85.9625 95.2832C85.9025 95.3832 85.9725 95.5932 86.1125 95.6132ZM87.8025 93.5232C87.8725 94.2132 87.9425 94.9031 88.0125 95.5931C87.5325 95.4431 87.0525 95.3231 86.5625 95.2331C86.8225 94.8431 87.0925 94.4531 87.3625 94.0731C87.4925 93.8931 87.6625 93.7132 87.8025 93.5232Z" fill="white"/>
<path d="M83.2625 101.182C83.3125 100.762 83.4925 100.372 83.6225 99.9722C83.6725 99.8122 83.7225 99.6422 83.8425 99.5022C84.0125 99.3122 84.3125 99.2123 84.5825 99.2723C84.8525 99.3323 85.0725 99.5323 85.1225 99.7723L85.1825 100.172C85.0625 100.482 85.1125 100.822 85.2625 101.122C85.4125 101.422 85.6625 101.672 85.9425 101.872C86.1025 101.992 86.2925 102.142 86.2325 102.312C86.1925 102.442 86.0325 102.512 85.8925 102.552C85.5725 102.642 85.2425 102.702 84.9125 102.702C84.4525 102.712 83.9525 102.622 83.6325 102.332C83.3025 102.052 83.2125 101.602 83.2625 101.182Z" fill="#D1AC9D"/>
<path d="M86.8925 92.2625C88.4225 86.1425 90.1125 80.0525 91.9325 74.0025C92.1425 73.2925 92.3625 72.5725 92.2925 71.8425C92.2225 71.1125 91.8125 70.3725 91.0625 70.0525C90.1825 69.6825 89.0825 70.0325 88.4125 70.6625C87.7425 71.2925 87.4025 72.1325 87.1025 72.9625C84.3425 80.4925 83.2225 88.4925 83.8225 96.3925C83.8825 97.2025 83.9625 98.0425 83.6925 98.8225C83.5525 99.2325 83.3325 99.7325 83.6725 100.042C84.0725 100.412 85.0025 100.392 85.3125 100.022C85.7125 99.5325 85.6125 98.0125 85.7325 97.3925C86.0525 95.6825 86.4725 93.9725 86.8925 92.2625Z" fill="#97A8B2"/>
<path d="M101.652 58.6422C100.732 58.0322 99.2725 58.0122 98.4525 58.8022C98.4325 58.8122 98.4225 58.8322 98.4225 58.8522C97.9125 58.8422 97.3825 58.8522 96.8725 58.7922C96.5425 57.9822 95.6325 57.4322 94.7825 57.5922C93.5725 57.5322 92.3325 58.0922 91.8025 59.2722C91.1525 60.7222 93.1625 61.7622 94.3625 61.8122C95.7525 61.8722 97.2025 60.6822 96.9825 59.1922C96.9825 59.1722 96.9725 59.1622 96.9725 59.1422C97.4825 59.1222 98.0025 59.1622 98.5125 59.1822C98.4925 60.8122 101.162 62.5022 102.252 60.9622C102.822 60.1722 102.392 59.1322 101.652 58.6422ZM94.0125 61.3722C92.7925 61.1422 91.4825 60.0822 92.5325 58.8722C92.9525 58.3922 93.5325 58.0822 94.1525 57.9722C94.1625 58.0922 94.2725 58.2022 94.4225 58.1322C95.5025 57.6522 96.8425 58.5822 96.5725 59.8122C96.3125 60.9722 95.1125 61.5822 94.0125 61.3722ZM101.963 60.6622C101.163 61.9822 98.2525 60.2722 98.9125 58.9622V58.9522C99.5125 58.6822 100.102 58.5222 100.782 58.6922C101.612 58.9122 102.503 59.7622 101.963 60.6622Z" fill="#414141"/>
<path d="M143.403 59.4723C143.623 60.1923 143.843 60.9123 143.983 61.6623C144.043 61.9723 144.473 61.8723 144.453 61.5723C144.393 60.8223 144.353 60.0623 144.233 59.3223C144.143 58.7823 143.243 58.9723 143.403 59.4723Z" fill="#666666"/>
<path d="M139.983 61.7423C140.283 62.0323 140.633 62.2423 140.983 62.4623C141.293 62.6523 141.593 62.8723 141.953 62.9423C142.123 62.9723 142.253 62.7523 142.173 62.6123C142.023 62.3323 141.763 62.1323 141.523 61.9323C141.203 61.6623 140.883 61.3523 140.503 61.1523C140.143 60.9623 139.643 61.4023 139.983 61.7423Z" fill="#666666"/>
<path d="M128.942 153.692C129.142 153.802 129.412 153.852 129.632 153.872C130.472 153.942 131.313 153.982 132.153 154.022C133.883 154.092 135.613 154.112 137.343 154.112C140.803 154.112 144.272 154.012 147.732 154.062C148.302 154.072 148.862 154.132 149.432 154.092C156.682 153.702 160.872 153.592 166.312 153.282C173.222 152.882 180.512 151.312 165.132 150.682C161.842 150.542 158.383 150.612 155.083 150.502C152.163 150.402 149.242 150.402 146.322 150.472C143.782 150.532 141.242 150.632 138.702 150.732C136.052 150.832 132.962 150.362 130.552 151.862C130.342 151.992 130.133 152.142 129.913 152.262C129.613 152.422 129.283 152.522 129.023 152.762C128.523 153.232 128.642 153.532 128.942 153.692Z" fill="url(#paint12_linear)"/>
<path opacity="0.56" d="M128.942 153.692C129.142 153.802 129.412 153.852 129.632 153.872C130.472 153.942 131.313 153.982 132.153 154.022C133.883 154.092 135.613 154.112 137.343 154.112C140.803 154.112 144.272 154.012 147.732 154.062C148.302 154.072 148.862 154.132 149.432 154.092C156.682 153.702 160.872 153.592 166.312 153.282C173.222 152.882 180.512 151.312 165.132 150.682C161.842 150.542 158.383 150.612 155.083 150.502C152.163 150.402 149.242 150.402 146.322 150.472C143.782 150.532 141.242 150.632 138.702 150.732C136.052 150.832 132.962 150.362 130.552 151.862C130.342 151.992 130.133 152.142 129.913 152.262C129.613 152.422 129.283 152.522 129.023 152.762C128.523 153.232 128.642 153.532 128.942 153.692Z" fill="url(#paint13_linear)"/>
<path d="M134.653 66.9619C134.653 66.9619 130.243 67.9219 124.513 86.2519C124.513 86.2519 123.573 92.7019 131.003 102.032V96.8019C131.003 94.8319 129.843 92.4319 129.473 90.4719C128.843 87.1319 130.082 85.4619 131.542 82.5819C132.592 80.5119 133.643 78.4319 134.653 76.3419C134.653 76.3519 136.813 70.3419 134.653 66.9619Z" fill="#736357"/>
<path d="M114.183 66.5823C113.483 66.8923 113.413 67.7523 114.043 68.2123C118.223 71.2723 121.783 74.0423 124.813 76.5723C125.183 76.8823 125.623 77.2023 126.123 77.0623C126.443 76.9723 126.713 76.7123 126.953 76.4623L130.123 73.2523C130.423 72.9423 130.453 72.4423 130.183 72.1523C127.593 69.4523 124.433 66.6623 120.583 63.7723C120.243 63.5223 119.793 63.4923 119.463 63.7123C117.883 64.7623 116.113 65.7223 114.183 66.5823Z" fill="#666666"/>
<path d="M116.723 67.3323C116.263 67.5523 116.213 68.1323 116.623 68.4423C119.413 70.5723 121.883 72.5722 124.073 74.4622C124.343 74.7022 124.672 74.9522 125.042 74.8622C125.282 74.8022 125.483 74.6223 125.663 74.4423L128.053 72.1323C128.283 71.9123 128.303 71.5322 128.093 71.3222C126.113 69.3222 123.783 67.3223 121.053 65.3323C120.823 65.1623 120.513 65.1522 120.283 65.3122C119.193 66.0522 118.003 66.7323 116.723 67.3323Z" fill="white"/>
<path d="M120.573 66.1324C120.493 66.0824 120.402 66.0224 120.302 66.0324C120.212 66.0324 120.133 66.0824 120.062 66.1324C119.903 66.2324 119.743 66.3423 119.593 66.4623C119.443 66.5923 119.303 66.7323 119.143 66.8523C119.023 66.9523 118.893 67.0324 118.763 67.1124C118.473 67.3024 118.183 67.4824 117.883 67.6724C117.703 67.7824 117.563 67.8423 117.443 67.9823C117.403 68.0323 117.363 68.0924 117.323 68.1724C117.523 68.3824 117.743 68.5724 117.973 68.7524C118.103 68.8524 118.273 69.0924 118.453 69.0524C118.563 69.0324 118.673 68.8924 118.753 68.8124C118.773 68.7924 118.793 68.7823 118.812 68.7623C118.852 68.9323 118.892 69.1023 118.932 69.2623C118.992 69.0523 119.023 68.8324 119.043 68.6124C119.043 68.5924 119.043 68.5623 119.053 68.5423C119.083 68.5123 119.122 68.4824 119.152 68.4524C119.532 68.1224 119.913 67.7824 120.283 67.4524C120.433 67.3224 120.562 67.2124 120.732 67.1124C120.792 67.0824 121.222 66.6523 121.232 66.6523C121.022 66.4823 120.813 66.2824 120.573 66.1324Z" fill="#CCCCCC"/>
<path d="M124.533 68.9928C124.423 68.9828 124.313 68.9528 124.213 68.9228C124.333 68.7828 124.463 68.6528 124.583 68.5028C124.413 68.3928 124.233 68.2728 124.062 68.1628C124.043 68.1428 124.012 68.1328 123.982 68.1328C123.922 68.1328 123.873 68.1828 123.833 68.2328C123.523 68.5828 123.083 68.8728 122.773 69.2228C122.523 69.5128 122.453 69.5928 122.093 70.0228C122.233 70.1228 122.573 70.4428 122.713 70.5428C122.753 70.4128 122.863 70.3128 122.963 70.2228C123.323 69.9028 123.662 69.5528 123.992 69.1928C124.072 69.1928 124.152 69.1828 124.232 69.1628C124.342 69.1228 124.443 69.0728 124.533 68.9928Z" fill="#B8CDD8"/>
<path d="M121.393 68.3427C121.283 68.2527 121.172 68.1727 121.062 68.0827C121.043 68.0727 121.033 68.0527 121.013 68.0527C120.983 68.0527 120.952 68.0727 120.932 68.0927C120.362 68.5427 119.773 69.0827 119.213 69.5627C119.303 69.6427 119.623 69.8927 119.713 69.9627C119.733 69.9827 119.762 70.0027 119.792 70.0027C119.842 70.0027 119.883 69.9627 119.913 69.9227C119.933 69.8927 119.952 69.8727 119.982 69.8527C120.022 70.0027 120.053 70.1527 120.093 70.3027C120.153 70.0927 120.183 69.8827 120.203 69.6627C120.203 69.6427 120.203 69.6227 120.213 69.5927C120.593 69.1527 120.983 68.7327 121.393 68.3427Z" fill="#CCCCCC"/>
<path d="M123.992 71.2919C123.862 71.1819 123.733 71.0719 123.603 70.9519C123.583 70.9419 123.562 70.9219 123.542 70.9219C123.522 70.9219 123.502 70.9419 123.492 70.9519C123.222 71.1819 122.952 71.4119 122.682 71.6519C122.482 71.8219 122.283 72.0019 122.153 72.2419C122.293 72.3819 122.433 72.5019 122.583 72.6119C122.603 72.6319 122.623 72.6419 122.653 72.6419C122.683 72.6419 122.712 72.6319 122.732 72.6119C122.802 72.5719 122.862 72.5119 122.922 72.4519C122.972 72.5219 123.012 72.5819 123.062 72.6519C123.072 72.6719 123.092 72.6919 123.112 72.6819C123.122 72.5319 123.133 72.3819 123.143 72.2319C123.443 71.9419 123.732 71.6319 123.992 71.2919Z" fill="#CCCCCC"/>
<path d="M126.753 71.0619C126.873 70.9019 126.993 70.7319 127.103 70.5719C126.903 70.4419 126.692 70.3219 126.492 70.1919C126.472 70.1819 126.452 70.1719 126.432 70.1719C126.412 70.1719 126.382 70.1919 126.362 70.2119C125.672 70.8019 125.202 71.6819 124.552 72.3419C124.532 72.3619 124.513 72.3819 124.513 72.4119C124.513 72.4319 124.523 72.4519 124.533 72.4619C124.693 72.7119 124.873 72.9419 125.062 73.1519C125.433 72.7619 125.793 72.3619 126.143 71.9519C126.273 71.8019 126.413 71.6319 126.473 71.4319C126.623 71.4519 126.763 71.4519 126.913 71.4219C126.933 71.3519 126.872 71.3019 126.812 71.2719C126.753 71.2419 126.693 71.2019 126.713 71.1219C126.723 71.1019 126.733 71.0819 126.753 71.0619Z" fill="#B8CDD8"/>
<path d="M152.433 125.842C152.033 118.582 152.872 111.172 152.792 103.872C153.052 101.342 152.633 98.762 151.553 96.382C151.483 96.232 151.413 96.082 151.283 95.972C150.873 95.622 150.163 95.812 149.613 95.992C144.353 97.782 138.153 97.362 133.363 94.832C132.413 96.022 132.143 97.482 131.913 98.902C131.533 101.182 131.123 103.462 131.023 105.752V105.762C131.003 106.252 130.993 106.752 131.003 107.242C131.073 110.102 131.733 112.912 132.263 115.732C132.603 117.572 132.903 119.422 132.933 121.282C132.953 122.802 132.693 124.202 133.113 125.692C134.133 129.362 134.133 133.372 134.563 137.122C135.023 141.142 135.473 145.162 135.853 149.192C135.863 149.352 135.883 149.512 135.893 149.672C136.143 149.722 139.883 150.442 139.883 149.642C140.183 141.832 140.483 134.012 140.783 126.202C140.913 122.912 140.623 111.802 141.633 108.672C142.053 108.702 142.463 108.742 142.883 108.772C145.163 119.112 147.873 137.222 150.163 147.562C150.363 148.472 150.613 149.452 151.333 150.042C152.063 150.632 153.413 150.462 153.633 149.552C152.943 141.642 152.863 133.742 152.433 125.842Z" fill="#4D4D4D"/>
<path d="M145.753 55.1425C145.753 52.4525 143.413 50.2725 140.523 50.2725C137.633 50.2725 135.292 52.4525 135.292 55.1425C135.292 55.5925 135.362 56.0224 135.482 56.4324C135.482 56.5424 135.492 56.6425 135.492 56.7625C135.472 57.7325 135.523 58.7125 135.713 59.6625C136.083 61.5225 137.042 63.2525 138.862 64.3125C139.472 64.6625 140.163 64.9324 140.893 64.9324C141.873 64.9224 142.763 64.4225 143.443 63.8025C145.683 61.7425 145.873 58.6524 145.713 55.7424C145.733 55.5424 145.753 55.3525 145.753 55.1425Z" fill="#C8AE9A"/>
<path d="M140.143 149.673C139.063 149.593 137.963 149.633 136.893 149.793C136.063 150.343 135.163 150.793 134.203 151.133C133.923 151.233 133.632 151.333 133.422 151.523C133.212 151.713 133.133 152.043 133.323 152.243C133.493 152.423 133.782 152.443 134.052 152.443C136.062 152.463 138.062 152.313 140.042 151.993C140.162 151.973 140.282 151.953 140.372 151.873C140.442 151.813 140.472 151.733 140.502 151.643C140.692 150.993 140.563 150.253 140.143 149.673Z" fill="#3D322B"/>
<path d="M153.042 150.202C152.072 150.302 151.113 150.512 150.193 150.812C149.573 151.422 148.863 151.962 148.083 152.412C147.853 152.542 147.623 152.672 147.473 152.872C147.333 153.072 147.323 153.372 147.533 153.522C147.713 153.652 147.983 153.622 148.213 153.582C149.983 153.292 151.723 152.842 153.403 152.252C153.503 152.212 153.612 152.172 153.672 152.102C153.722 152.042 153.732 151.962 153.742 151.882C153.792 151.282 153.532 150.652 153.042 150.202Z" fill="#3D322B"/>
<path d="M153.013 100.723C152.993 95.7228 152.973 90.7227 152.963 85.7227C152.943 81.5127 151.993 77.0427 151.363 72.8727C151.023 70.5827 150.613 69.7827 149.573 67.7427C149.423 67.4527 149.403 67.2527 148.023 66.8127C147.723 66.7127 147.013 66.3127 146.643 66.3727C144.843 66.6727 143.013 65.9928 141.223 66.3028C139.323 66.6228 136.133 65.6627 134.653 66.9627C132.653 68.7227 132.513 72.8927 132.193 75.6227C131.763 79.3027 130.743 83.0427 130.563 86.7427C130.403 89.9927 130.323 93.2527 130.263 96.5027C130.233 98.2027 129.613 104.103 131.133 105.233C132.023 105.893 134.413 106.163 136.863 106.253C136.953 106.253 137.043 106.263 137.133 106.263C137.153 106.263 137.183 106.263 137.203 106.263C138.203 106.293 139.203 106.283 140.113 106.263C141.453 106.233 142.583 106.173 143.193 106.113C146.053 105.853 148.883 105.273 151.693 104.623C152.193 104.513 152.743 104.353 153.013 103.903C153.203 103.583 153.013 101.113 153.013 100.723Z" fill="#736357"/>
<path d="M143.353 70.8421C143.463 70.0621 143.973 69.4421 144.643 69.0421C144.793 68.2821 144.933 67.5221 145.083 66.7621C145.103 66.7321 145.123 66.7121 145.133 66.6821C145.183 66.5921 145.202 66.4921 145.192 66.3921C145.012 66.3521 144.833 66.3221 144.663 66.2921C142.413 66.7421 140.102 66.7521 137.812 66.1621C137.842 66.3421 137.853 66.5321 137.833 66.7221C136.613 79.8521 136.113 93.0321 136.603 106.212C136.933 106.102 137.293 106.052 137.703 106.052C138.953 106.072 140.252 106.232 141.552 106.342C138.472 94.7521 141.713 82.5921 143.353 70.8421ZM144.372 67.5021C144.432 67.5021 144.482 67.4921 144.542 67.4921C144.452 67.7221 144.363 67.9521 144.283 68.1821C144.303 67.9621 144.342 67.7321 144.372 67.5021Z" fill="#E8E8E8"/>
<path d="M147.353 52.8824C146.923 51.0724 145.623 49.6624 143.973 48.8424C141.393 47.5624 137.033 47.4624 135.713 50.5324C133.133 51.4324 134.463 55.5024 137.033 54.5724C137.063 54.5624 137.092 54.5524 137.122 54.5424C138.452 55.1924 140.312 55.4124 141.952 55.4324C142.562 56.9324 143.812 58.2124 145.622 57.4824C147.362 56.7724 147.743 54.5224 147.353 52.8824Z" fill="#382717"/>
<path d="M123.952 74.5122C123.572 74.3122 123.162 74.1822 122.732 74.1122C122.322 74.0422 121.802 74.1022 121.622 74.4922C121.452 74.8822 121.752 75.2922 122.052 75.5722C123.452 76.8622 125.282 77.5322 127.072 78.1822C126.862 78.5322 127.162 78.4022 127.542 76.7122C126.772 76.5322 126.322 75.7522 125.732 75.2322C125.102 74.6822 124.543 73.9222 123.713 73.7822C123.683 73.8922 123.642 73.9922 123.612 74.1022C123.732 74.2322 123.842 74.3722 123.952 74.5122Z" fill="#C8AE9A"/>
<path d="M127.792 76.7722C127.082 76.4222 126.122 76.1022 125.742 76.5822C125.352 77.0822 126.012 77.8722 126.612 78.4122C127.922 79.6022 129.242 80.7822 130.552 81.9722C133.112 84.2822 135.733 86.6422 138.843 88.2322C140.113 88.8822 141.633 89.4122 142.713 88.9422C143.383 88.6522 143.743 88.0322 144.033 87.4122C145.483 84.3522 141.533 83.4622 138.663 82.0622C135.043 80.3022 131.412 78.5322 127.792 76.7722Z" fill="#736357"/>
<path d="M150.293 70.402C150.303 69.442 150.233 68.432 149.763 67.622C148.093 64.762 144.183 69.332 143.323 71.012C141.573 74.432 140.193 81.822 139.253 85.312C139.063 86.012 138.873 86.752 139.063 87.432C139.393 88.632 141.723 89.942 142.833 89.192C143.823 88.522 147.333 81.852 147.803 80.732C149.163 77.452 150.233 73.972 150.293 70.402Z" fill="#736357"/>
<path d="M139.652 62.9522C139.792 62.9522 139.942 62.9522 140.062 62.8722C140.182 62.8022 140.262 62.6322 140.182 62.5122C139.752 62.5022 139.332 62.5022 138.902 62.4922C138.772 62.4922 138.622 62.4922 138.512 62.5722C137.872 63.0122 139.522 62.9522 139.652 62.9522Z" fill="#382717"/>
<defs>
<linearGradient id="paint0_linear" x1="76.6148" y1="107.22" x2="107.09" y2="107.22" gradientUnits="userSpaceOnUse">
<stop stop-color="#4D4D4D"/>
<stop offset="1"/>
</linearGradient>
<linearGradient id="paint1_linear" x1="76.6148" y1="107.22" x2="107.09" y2="107.22" gradientUnits="userSpaceOnUse">
<stop/>
<stop offset="1"/>
</linearGradient>
<linearGradient id="paint2_linear" x1="119.887" y1="109.709" x2="147.733" y2="109.709" gradientUnits="userSpaceOnUse">
<stop stop-color="#4D4D4D"/>
<stop offset="1"/>
</linearGradient>
<linearGradient id="paint3_linear" x1="119.887" y1="109.709" x2="147.733" y2="109.709" gradientUnits="userSpaceOnUse">
<stop/>
<stop offset="1"/>
</linearGradient>
<linearGradient id="paint4_linear" x1="36.3699" y1="109.176" x2="63.0704" y2="109.176" gradientUnits="userSpaceOnUse">
<stop stop-color="#4D4D4D"/>
<stop offset="1"/>
</linearGradient>
<linearGradient id="paint5_linear" x1="36.3699" y1="109.176" x2="63.0704" y2="109.176" gradientUnits="userSpaceOnUse">
<stop/>
<stop offset="1"/>
</linearGradient>
<linearGradient id="paint6_linear" x1="0.0585571" y1="138.629" x2="34.6877" y2="140.334" gradientUnits="userSpaceOnUse">
<stop stop-color="white"/>
<stop offset="1"/>
</linearGradient>
<linearGradient id="paint7_linear" x1="0.0585571" y1="138.629" x2="34.6877" y2="140.334" gradientUnits="userSpaceOnUse">
<stop/>
<stop offset="1"/>
</linearGradient>
<linearGradient id="paint8_linear" x1="34.0035" y1="155.991" x2="71.1436" y2="155.991" gradientUnits="userSpaceOnUse">
<stop stop-color="#4D4D4D"/>
<stop offset="1"/>
</linearGradient>
<linearGradient id="paint9_linear" x1="34.0035" y1="155.991" x2="71.1436" y2="155.991" gradientUnits="userSpaceOnUse">
<stop/>
<stop offset="1"/>
</linearGradient>
<linearGradient id="paint10_linear" x1="78.2075" y1="152.461" x2="125.708" y2="156.681" gradientUnits="userSpaceOnUse">
<stop stop-color="#4D4D4D"/>
<stop offset="1"/>
</linearGradient>
<linearGradient id="paint11_linear" x1="78.2075" y1="152.461" x2="125.708" y2="156.681" gradientUnits="userSpaceOnUse">
<stop/>
<stop offset="1"/>
</linearGradient>
<linearGradient id="paint12_linear" x1="128.849" y1="150.973" x2="174.092" y2="154.098" gradientUnits="userSpaceOnUse">
<stop stop-color="#4D4D4D"/>
<stop offset="1"/>
</linearGradient>
<linearGradient id="paint13_linear" x1="128.849" y1="150.973" x2="174.092" y2="154.098" gradientUnits="userSpaceOnUse">
<stop/>
<stop offset="1"/>
</linearGradient>
</defs>
</svg>
