<?xml version="1.0" encoding="utf-8"?>
<svg version="1.1" id="Logo" xmlns="http://www.w3.org/2000/svg" xmlns:xlink="http://www.w3.org/1999/xlink" x="0px" y="0px"
	 viewBox="0 0 104.7 108.1" style="enable-background:new 0 0 104.7 108.1;" xml:space="preserve">
<style type="text/css">
	.st0{clip-path:url(#SVGID_2_);}
	.st1{fill:url(#SVGID_3_);}
	.st2{fill:#FFFFFF;}
	.st3{clip-path:url(#SVGID_5_);}
	.st4{fill:url(#SVGID_6_);}
	.st5{clip-path:url(#SVGID_8_);}
	.st6{fill:url(#SVGID_9_);}
	.st7{fill-rule:evenodd;clip-rule:evenodd;fill:#FFFFFF;}
</style>
<title>Logo</title>
<g>
	<defs>
		<path id="SVGID_1_" d="M50.4,1.1c-5.4,3.2-11,6.1-16.7,8.7c-5.3,2.2-10.8,4-16.3,5.5l-2.2,0.6L14.7,18c-1.5,5.8-3.3,11.4-5.4,17
			C6.9,40.9,4.1,46.7,1,52.2L0,54l0.9,1.8c0,0.1,3.8,7.5,7,15.8s6.8,18.8,6.9,18.9l0.7,2l2,0.4c5.4,1.3,10.7,3,15.9,5.1
			c5.9,2.6,11.6,5.6,17,8.9l2,1.2l2-1.2c5-3.1,10.2-5.9,15.6-8.3c5.6-2.3,11.4-4.2,17.3-5.8l2.1-0.6l0.6-2.1
			c1.5-5.9,3.4-11.8,5.6-17.6c2.4-5.7,5.1-11.3,8.2-16.7l1-1.8l-1-1.8c-3.3-5.9-6.2-11.9-8.8-18.2c-2-5.2-3.6-10.5-4.8-15.9
			l-0.4-2.2l-2.2-0.6c-5.8-1.6-11.4-3.5-17-5.8c-5.5-2.4-10.9-5.2-16.1-8.4L52.4,0L50.4,1.1z"/>
	</defs>
	<clipPath id="SVGID_2_">
		<use xlink:href="#SVGID_1_"  style="overflow:visible;"/>
	</clipPath>
	<g class="st0">
		
			<linearGradient id="SVGID_3_" gradientUnits="userSpaceOnUse" x1="-802.0172" y1="2628.5413" x2="-800.4072" y2="2628.5413" gradientTransform="matrix(38.2706 106.3007 106.3007 -38.2706 -248715.0313 185779.2031)">
			<stop  offset="0" style="stop-color:#516DB2"/>
			<stop  offset="1" style="stop-color:#263563"/>
		</linearGradient>
		<polygon class="st1" points="-34.4,12.4 92.7,-33.4 139.1,95.7 12,141.4 		"/>
	</g>
</g>
<path class="st2" d="M92.4,35.2c-1.9-4.9-3.5-9.9-4.6-15l-0.4-2.1l-2-0.6c-5.5-1.5-10.8-3.3-16.1-5.4C64,9.8,59,7.1,54.1,4.2
	l-1.8-1.1l-1.8,1.1c-5.1,3-10.3,5.8-15.7,8.1c-5,2.1-10.1,3.8-15.4,5.2l-2,0.5l-0.5,2c-1.4,5.4-3.1,10.8-5.1,16
	C9.5,41.6,6.9,47,3.9,52.3L3,53.9l0.8,1.7c0,0,3.5,7,6.6,14.9s6.4,17.7,6.4,17.8l0.6,1.8l1.9,0.4c5.1,1.2,10.1,2.9,14.9,4.8
	c5.5,2.4,10.9,5.2,16.1,8.4l1.8,1.2l1.8-1.2c4.7-2.9,9.7-5.5,14.8-7.8c5.3-2.2,10.8-4,16.4-5.4l2-0.5l0.5-2
	c1.5-5.6,3.2-11.1,5.3-16.5c2.7-6.6,7.6-15.7,7.7-15.8l0.9-1.7l-1-1.7C97.6,46.7,94.8,41,92.4,35.2"/>
<g>
	<defs>
		<path id="SVGID_4_" d="M50.5,4.2c-5.1,3-10.3,5.8-15.7,8.1c-5,2.1-10.1,3.8-15.4,5.2l-2,0.5l-0.5,2c-1.4,5.4-3.1,10.8-5.1,16
			C9.5,41.6,6.9,47,4,52.3L3,53.9l0.9,1.7c0,0,3.5,7,6.6,14.9s6.4,17.7,6.4,17.8l0.6,1.8l1.9,0.4c5.1,1.2,10.1,2.8,14.9,4.8
			c5.6,2.4,10.9,5.2,16.1,8.4l1.9,1.2h0.1V3.1l0,0L50.5,4.2z"/>
	</defs>
	<clipPath id="SVGID_5_">
		<use xlink:href="#SVGID_4_"  style="overflow:visible;"/>
	</clipPath>
	<g class="st3">
		
			<linearGradient id="SVGID_6_" gradientUnits="userSpaceOnUse" x1="-795.5396" y1="2535.8755" x2="-793.9296" y2="2535.8755" gradientTransform="matrix(30.7 0 0 -30.7 24427.5137 77905.4141)">
			<stop  offset="0" style="stop-color:#F3F3F3"/>
			<stop  offset="1" style="stop-color:#ACACAB"/>
		</linearGradient>
		<rect x="3.1" y="3.1" class="st4" width="49.3" height="101.9"/>
	</g>
</g>
<g>
	<defs>
		<path id="SVGID_7_" d="M50.7,8.9c-4.6,2.7-9.4,5.2-14.3,7.4c-4.5,1.9-9.2,3.4-13.9,4.7l-1.9,0.5l-0.5,1.9
			c-1.3,4.9-2.8,9.7-4.6,14.5c-2.1,5-4.4,10-7.1,14.7l-0.9,1.5l0.8,1.5c0,0,3.2,6.3,6,13.5c2.8,7.1,5.8,16.1,5.9,16.1l0.6,1.6
			l1.7,0.4c4.6,1.1,9.1,2.6,13.5,4.4c5,2.2,9.8,4.7,14.5,7.6l1.7,1.1L54,99c4.3-2.7,8.8-5,13.4-7.1c4.8-1.9,9.8-3.6,14.8-4.9
			l1.8-0.5l0.5-1.8c1.3-5.1,2.9-10.1,4.8-15c2.4-6,6.9-14.2,7-14.3l0.9-1.6l-0.9-1.6c-2.8-5-5.3-10.2-7.5-15.5
			c-1.7-4.4-3.1-9-4.2-13.6l-0.4-1.9l-1.9-0.5c-4.9-1.4-9.7-3-14.5-4.9c-4.7-2-9.4-4.3-13.8-6.9l-1.6-1L50.7,8.9z"/>
	</defs>
	<clipPath id="SVGID_8_">
		<use xlink:href="#SVGID_7_"  style="overflow:visible;"/>
	</clipPath>
	<g class="st5">
		
			<linearGradient id="SVGID_9_" gradientUnits="userSpaceOnUse" x1="-797.4164" y1="2628.6418" x2="-795.8165" y2="2628.6418" gradientTransform="matrix(32.6916 90.8044 90.8044 -32.6916 -212608.6719 158293.0156)">
			<stop  offset="0" style="stop-color:#516DB2"/>
			<stop  offset="1" style="stop-color:#263563"/>
		</linearGradient>
		<polygon class="st6" points="-21.8,18.4 86.8,-20.6 126.5,89.6 17.9,128.7 		"/>
	</g>
</g>
<path class="st7" d="M33.3,25.7c0.3,2.3,1.3,8.9,2,11.3c0.4-0.3,0.7-0.7,1-1.1c-1-4.4-1.4-8.8-1.4-13.3c-6.3,2.6-2,13-0.3,17
	c0.3-0.5,0.3-1,0.2-1.5c-0.7-2.7-2.6-9.7-1.6-12.4"/>
<path class="st7" d="M29.8,43.8c-0.9-1.9-3.6-5.7-4.7-7.5c1.7,1.5,4.4,5.8,6.4,8c0.1-1.9-0.9-3.1-2-4.7c-1.3-2.4-3.1-4.4-5.3-5.9H24
	c-1.1,3.9,1.6,6.6,3.8,8.7C28.4,43.1,28.9,44.1,29.8,43.8"/>
<path class="st7" d="M37.5,37.6c-3,1.9-1.3,6.9-0.2,9.1c0.8-1.8-0.4-4.5-0.5-6.2c0.5,0.6,0.8,2.9,1.5,3.5c0-0.3,0.2-0.5,0.4-0.7
	C37.9,41.5,37.5,39.6,37.5,37.6"/>
<path class="st7" d="M22.8,40.4c1.6,1.3,4.3,3.8,5.8,5.2c0.3-0.1,0.1-0.7,0.3-1.1c-3-1.9-3.8-5.4-7.8-6.4c0.1,4.9,4.4,6.8,7.2,9.6
	c0.4-0.1,0.8-0.1,1.2,0C27.8,45.5,24.6,42.6,22.8,40.4"/>
<path class="st7" d="M19.1,42.9c0.2,4.7,5,5.8,8.7,7.8c-1-2.1-5.3-4.1-6.9-5.8c1.5,0.8,4.5,2.9,5.9,3.7c0.3,0,0.3-0.4,0.7-0.7
	C24.8,46.3,23.2,43.2,19.1,42.9"/>
<path class="st7" d="M28.5,49.9c0,2.4,2.8,2.8,4.8,3.9c0.2-1.5-3-2.1-3.5-3.1c1.3,0.3,3.7,2.2,5,1.7C33.1,51.5,31,48.7,28.5,49.9"/>
<path class="st7" d="M17.5,48.5c0.6,3.6,5.7,3.9,9,5.5c0.5,0-0.3-0.6-0.2-1c-1.6-0.7-4.3-1.9-5.8-2.7c2,0.5,4,1.2,6,2
	c0.2-0.3,0.7-0.3,0.8-0.8C24.3,50.4,21.3,47.7,17.5,48.5"/>
<path class="st7" d="M29.8,53.1c-0.8-0.4-1.8-0.1-2.2,0.7l0,0c0.3,2,4.2,1.8,5.7,2.6c0-0.1,0.1-0.3,0.3-0.3c-1.5-0.7-3-1.4-4.6-1.9
	c1.5,0.2,2.9,0.5,4.4,1.1c0.3-0.2,0-0.7-0.1-0.9C32.1,54,31,53.6,29.8,53.1"/>
<path class="st7" d="M17.3,53.4c0.3,2.6,3.7,2.7,7,3c0.8,0,2,0.6,2-0.5c-1.6-0.3-4.6-1-6.1-1.4c1.6-0.2,5.5,1.1,6.9,0.7
	C24.5,54.6,19.3,51.3,17.3,53.4"/>
<path class="st7" d="M27.7,57.1c0.5,2,3.2,1.4,4.9,1.1c-0.3-0.7-3.2-0.7-3.9-1.1c0.6-0.5,3.8,0.7,4.1-0.3
	C31,56.4,28.4,55.2,27.7,57.1"/>
<path class="st7" d="M17.5,59.2c3,2.2,6.8-0.2,9.9-0.4c-0.4-0.9-1.8-0.5-2.8-0.4s-3.2,0.3-4.2,0.3c2-0.4,4-0.7,6-0.9
	c0-0.2-0.1-0.3-0.3-0.4C22.9,57.1,18.5,56.3,17.5,59.2"/>
<path class="st7" d="M28.8,61.3c1.6,1.1,2.5,0.3,3.8-0.5c0.7-0.4,1.6-0.7,1.7-1.2c-1,0.2-3.4,0.8-4.4,1c0.1-0.4,2.7-1.2,3.2-1.4
	c0-0.2-0.1-0.2,0-0.3C31.4,58.7,28.9,58.7,28.8,61.3"/>
<path class="st7" d="M23.5,66.6c1.3-1.5,4-2.7,5.5-4c-1.3-0.5-3,0.7-4.4,1.5c-1.4,0.8-3.6,1.5-3.2,3.8c1.7,1.6,3.1-0.2,4.6-1.2
	c1.2-0.8,3-1.5,2.8-2.8C27.2,64.3,25,65.9,23.5,66.6"/>
<path class="st7" d="M42.3,65.8c-0.3,0-0.5,0-0.8,0.1c-0.5,0.7-1,3.2-1.4,3.9c-0.3-0.8,1-3.7,0.4-4.2c-0.9,1.4-2.6,4.1-0.7,5.2
	C41.7,70.6,42,68.2,42.3,65.8"/>
<path class="st7" d="M45,66.1c-0.3,0-0.5,0.1-0.8,0.2c-0.3,0.7-0.4,3.2-0.7,4c-0.4-0.7,0.4-3.8-0.3-4.2c-0.6,1.5-1.8,4.5,0.2,5.2
	C45.3,70.8,45.2,68.4,45,66.1"/>
<path class="st7" d="M26.7,69.7c0.5-1.3,2.8-3,3.6-4.3c-0.2-0.1-0.4-0.1-0.5-0.3c-1.2,1.4-5.9,2.9-4.7,5.9c0.3,0.1,0.7,0.2,1.1,0.3
	c0.9,0.3,1.5-0.4,2.1-1s1.2-1.4,1.8-2.1c0.3-0.4,0.7-0.8,1.1-1.1c-0.2-0.3,0-1.2-0.4-1C29.5,67.4,28.1,68.6,26.7,69.7"/>
<path class="st7" d="M32.8,65.3c-0.4,0.3-0.1,1-0.1,1.3C33.1,66.3,32.8,65.7,32.8,65.3"/>
<path class="st7" d="M33.5,68.1c-0.6,1.2-1.4,2.4-2.4,3.3c0.3-1.3,1.3-2.4,1.6-3.7l-1.2-0.2c-0.7,1.6-3,3.4-1.4,5.1
	c0.2,0.3,0.8,0.2,1.1,0.2c0.4,0,0.8-0.3,1-0.7c0.6-1,1.1-2.1,1.7-3.2c-0.1-0.4-0.2-0.8-0.5-1"/>
<path class="st7" d="M29,28.2c-4.4,3.9,1,10.5,3.1,13.3c0.3-1.2-0.9-2.5-1.3-3.5s-1.6-4.3-2-5.4c1.5,2,3.3,7.7,5.8,9.2
	c-0.8-1.8-1.6-3.7-2.5-5.7C31.7,35.2,29.5,30.1,29,28.2"/>
<path class="st7" d="M31.3,47.3c1.3,0.9,2.6,1.8,3.8,2.9c-0.1-1.6-2-3.2-2.7-3.7c0,0-1.6-1.1-2.2-0.5c-0.5,3.6,3,4.2,4.8,6
	C35.1,50.4,31.9,48.6,31.3,47.3"/>
<path class="st7" d="M31.3,63.8c1.8,1.3,3-0.7,4-1.6c-1-0.7-2.3,0.7-3.1,1c0-0.9,2.5-1.2,2.2-2.5C33.3,61.3,30.8,62,31.3,63.8"/>
<path class="st7" d="M39.1,66.4c0.2-0.9,0.9-1.2,0.4-1.9c-1,0.3-1.8,3-2.8,3.5c0.5-1.1,1-2.3,1.6-3.3c-0.4,0.1-0.6,0.2-0.9-0.1
	c-0.4,1.5-2.6,2.9-1.3,4.4C36.4,68.5,38.1,69.6,39.1,66.4"/>
<path class="st7" d="M18.6,63.7c0.9-4.1,6.1-2.5,9.1-4c-0.5,1-1.9,1.1-3,1.6s-3.4,1.1-4.2,1.6c1.8-0.4,5-1.5,6.8-1.8
	c0,0.4-0.3,0.4-0.2,0.8c-2.4,0.2-5.1,3.2-7.4,2.5h-0.1c-0.5-0.1-0.6-0.5-1-0.6"/>
<path class="st7" d="M34.7,63.9l0.6-0.5c0.5-0.4,0.9-1.1,1.4-0.6c-0.6,0.7-2.5,2.6-3.1,3.4c0.8-0.4,2.6-2.4,3.5-2.8
	c0,1.3-2.2,4.1-3.7,3.6l0,0L33,66.8l-0.1-0.2c-0.1-0.4-0.1-0.7-0.1-1.1C32.8,65.2,34.7,63.9,34.7,63.9"/>
<path class="st7" d="M33,42.6c0-0.1,0.2-0.2,0.2-0.2c2.1,1.8,3.6,4.2,4.2,6.9l-0.7-0.1c-0.9-1.7-1.9-3.3-3-4.9
	c0.7,1.6,1.5,3.2,2.4,4.8h-0.7C34.4,47.1,31.9,45.8,33,42.6"/>
<path class="st7" d="M35.3,56.6c0.8-0.1,1.7,0.7,2,0.1c-1.2-0.7-2.9-1-2.4-3c1.6-0.8,2.7,1.1,3.7,1.2c-0.7-1.4-2.8-2.2-2.1-4.5
	c2.8,0,2.8,2.6,3.6,2.9c-0.2,0-0.3-1.4-0.4-1.6c-0.3-0.9-1.1-1.6-1.2-2.5c0-0.7,0.1-1.4,0.3-2c0.1-0.8,0.6-1.6,1.3-2.1
	c0.3,2.8,2.5,5.2,2.4,8.3c-0.1,2.8-3.5,1.3-3.8,4.1c0.1,1.6,1.1,3,2.6,3.6c1.5,0.3,2.9,0.5,4.4,0.6c0.1,0.8,0.2,2.5-0.8,3.1
	c-0.4,0.3-0.9,0.2-1.3-0.2c-0.3-0.4-0.4-0.8-0.3-1.3c0-0.2,0-0.4,0-0.6c-0.1-0.2-0.2-0.3-0.3-0.5c-0.4,0.9-0.2,2-1.1,2.5
	c-0.2,0.2-0.5,0.2-0.8,0.2c-0.4-0.5-0.8-0.5-0.9-1.2c0-0.6,1-1.6,0.3-2.2c-0.9,2.4-2,1.8-2.3,2.2c-1.2-1.1,0.4-2.3,0.6-3.1
	c-1.1,0.5-1.8,2.2-3.2,0.8c0-0.5,0-0.9,0.1-1.4c0.4-0.7,1.5-0.4,1.8-1.2c-0.7-0.5-1.6,0.7-2.4,0.5c-0.7-0.2-1.2-1-0.9-1.7
	C34.5,57.2,34.9,56.8,35.3,56.6"/>
<path class="st7" d="M71.4,25.7c-0.3,2.3-1.3,8.9-2,11.3c-0.4-0.3-0.7-0.7-1-1.1c1-4.4,1.4-8.8,1.4-13.3c6.3,2.6,2,13,0.3,17
	c-0.2-0.5-0.3-1-0.2-1.5c0.7-2.7,2.6-9.7,1.6-12.4"/>
<path class="st7" d="M74.8,43.8c0.9-1.9,3.7-5.7,4.7-7.5c-1.7,1.5-4.4,5.8-6.4,8c-0.1-1.9,0.9-3.1,2-4.7c1.3-2.4,3.1-4.4,5.3-5.9
	h0.2c1.1,3.9-1.6,6.6-3.8,8.7C76.3,43,75.8,44.1,74.8,43.8"/>
<path class="st7" d="M67.3,37.6c3,1.9,1.2,6.9,0.1,9.1c-0.8-1.8,0.4-4.5,0.5-6.2c-0.5,0.6-0.8,2.9-1.4,3.5c0-0.3-0.2-0.5-0.4-0.7
	C66.7,41.5,67.2,39.6,67.3,37.6"/>
<path class="st7" d="M81.8,40.4c-1.6,1.3-4.3,3.8-5.8,5.2c-0.3-0.1-0.1-0.7-0.3-1.1c3-1.9,3.8-5.4,7.8-6.4c-0.1,4.9-4.4,6.8-7.2,9.6
	c-0.4-0.1-0.8-0.1-1.2,0C76.9,45.5,80.1,42.6,81.8,40.4"/>
<path class="st7" d="M85.6,42.9c-0.2,4.7-5,5.8-8.7,7.8c1-2.1,5.3-4.1,6.8-5.8c-1.5,0.8-4.5,2.9-6,3.6c-0.2,0-0.3-0.4-0.6-0.7
	C79.9,46.3,81.4,43.2,85.6,42.9"/>
<path class="st7" d="M76.2,49.9c0,2.4-2.8,2.8-4.8,3.9c-0.2-1.5,3.1-2.1,3.5-3.1c-1.3,0.3-3.7,2.2-5,1.7
	C71.6,51.5,73.7,48.7,76.2,49.9"/>
<path class="st7" d="M87.3,48.5c-0.6,3.6-5.7,3.9-9,5.5c-0.5,0,0.3-0.6,0.2-1c1.6-0.7,4.3-1.9,5.8-2.7c-2,0.5-4,1.2-6,2
	c-0.2-0.3-0.7-0.3-0.8-0.8C80.5,50.4,83.5,47.7,87.3,48.5"/>
<path class="st7" d="M46.7,82c-0.9-1.1,0.3-2.6,0.7-4c0.1-0.1,0.1,0.3,0.3,0.3C47.4,79,47.2,80,47,80.7c0.3-0.7,0.6-1.5,0.9-2.2
	c0.2,0,0.3-0.1,0.4,0C47.9,79.6,47.9,81.1,46.7,82"/>
<path class="st7" d="M48,88c2-0.6,1.8-5.2,2.4-8.3c0-0.4-0.3,0.3-0.5,0.2c-0.3,1.5-0.8,3.9-1.1,5.3c0-1.3,0.5-4.1,0.7-5.4
	c-0.2-0.2-0.2-0.6-0.5-0.7C48.5,81.8,47.2,84.6,48,88"/>
<path class="st7" d="M58,82c0.9-1.1-0.3-2.6-0.7-4c-0.1-0.1-0.1,0.3-0.3,0.3c0.2,0.6,0.5,1.7,0.7,2.3c-0.3-0.7-0.6-1.5-0.9-2.2
	c-0.2,0-0.3-0.1-0.4,0C56.8,79.6,56.8,81.1,58,82"/>
<path class="st7" d="M56.8,88c-2-0.6-1.8-5.2-2.4-8.3c0-0.4,0.3,0.3,0.5,0.2c0.3,1.5,0.8,3.9,1.1,5.3c0-1.3-0.5-4.1-0.7-5.4
	c0.2-0.2,0.2-0.6,0.5-0.7C56.2,81.8,57.5,84.6,56.8,88"/>
<path class="st7" d="M74.8,53.1c0.8-0.4,1.8-0.1,2.2,0.7l0,0c-0.3,2-4.2,1.8-5.7,2.6c0-0.1-0.1-0.3-0.3-0.3c1.5-0.7,3-1.4,4.6-1.9
	c-1.5,0.2-3,0.5-4.4,1.1c-0.3-0.2,0-0.7,0.1-0.9C72.5,54,73.7,53.6,74.8,53.1"/>
<path class="st7" d="M87.3,53.4c-0.3,2.6-3.7,2.7-7,3c-0.8,0-2,0.6-2-0.5c1.6-0.3,4.6-1,6.1-1.4c-1.6-0.2-5.5,1.1-6.9,0.7
	C80.2,54.6,85.4,51.3,87.3,53.4"/>
<path class="st7" d="M77,57.1c-0.5,2-3.2,1.4-4.9,1.1c0.3-0.7,3.2-0.7,3.9-1.1c-0.6-0.5-3.8,0.7-4-0.3C73.7,56.4,76.3,55.2,77,57.1"
	/>
<path class="st7" d="M87.2,59.2c-3,2.2-6.8-0.2-9.8-0.4c0.4-0.9,1.8-0.5,2.8-0.4s3.2,0.3,4.2,0.3c-2-0.4-4-0.7-6-0.9
	c0-0.2,0.1-0.3,0.3-0.4C81.8,57.1,86.2,56.3,87.2,59.2"/>
<path class="st7" d="M75.9,61.3c-1.6,1.1-2.5,0.3-3.8-0.5c-0.7-0.4-1.6-0.7-1.7-1.2c1,0.2,3.4,0.8,4.4,1c-0.1-0.4-2.7-1.2-3.2-1.4
	c0-0.2,0.1-0.2,0-0.3C73.3,58.7,75.8,58.7,75.9,61.3"/>
<path class="st7" d="M81.1,66.6c-1.3-1.5-4-2.7-5.5-4c1.3-0.5,3,0.7,4.4,1.5c1.4,0.8,3.6,1.5,3.2,3.7c-1.7,1.6-3.1-0.2-4.6-1.2
	c-1.2-0.8-3-1.5-2.8-2.8C77.5,64.2,79.7,65.8,81.1,66.6"/>
<path class="st7" d="M62.4,65.8c0.3,0,0.5,0,0.8,0.1c0.4,0.7,1,3.2,1.4,3.9c0.3-0.8-1-3.7-0.4-4.2c0.9,1.4,2.6,4.1,0.7,5.2
	C63,70.6,62.7,68.2,62.4,65.8"/>
<path class="st7" d="M59.6,66.1c0.3,0,0.5,0.1,0.8,0.2c0.3,0.7,0.4,3.2,0.7,4c0.4-0.7-0.4-3.8,0.3-4.2c0.6,1.5,1.8,4.5-0.2,5.2
	C59.4,70.8,59.5,68.4,59.6,66.1"/>
<path class="st7" d="M78.1,69.7c-0.5-1.3-2.8-3-3.6-4.3c0.2-0.1,0.4-0.1,0.5-0.3c1.2,1.4,5.9,2.9,4.7,5.9c-0.3,0.1-0.7,0.2-1.1,0.3
	c-0.9,0.3-1.5-0.4-2.1-1s-1.2-1.4-1.8-2.1c-0.3-0.4-0.7-0.8-1.1-1.1c0.2-0.3,0-1.2,0.4-1C75.2,67.4,76.6,68.6,78.1,69.7"/>
<path class="st7" d="M71.8,65.3c0.4,0.3,0.1,1,0.1,1.3C71.5,66.3,71.9,65.7,71.8,65.3"/>
<path class="st7" d="M71.1,68.1c0.6,1.2,1.4,2.4,2.4,3.3c-0.3-1.3-1.3-2.4-1.6-3.7l1.2-0.2c0.7,1.6,3,3.4,1.4,5.1
	c-0.2,0.3-0.8,0.2-1.1,0.2c-0.4,0-0.8-0.3-1-0.7c-0.6-1-1.1-2.1-1.7-3.2c0.1-0.4,0.2-0.8,0.5-1"/>
<path class="st7" d="M75.7,28.2c4.4,3.9-1,10.5-3.1,13.3c-0.3-1.2,0.9-2.5,1.3-3.5s1.6-4.3,2-5.4c-1.5,2-3.3,7.7-5.8,9.2
	c0.8-1.8,1.6-3.7,2.5-5.7C73,35.2,75.2,30.1,75.7,28.2"/>
<path class="st7" d="M73.4,47.3c-1.3,0.9-2.6,1.8-3.8,2.9c0.1-1.6,2-3.2,2.7-3.7c0,0,1.6-1.1,2.3-0.5c0.5,3.6-3,4.2-4.9,6
	C69.4,50.4,72.7,48.6,73.4,47.3"/>
<path class="st7" d="M73.4,63.8c-1.8,1.3-3-0.7-4-1.6c1-0.7,2.3,0.7,3.1,1c0-0.9-2.5-1.2-2.2-2.5C71.4,61.3,73.8,62,73.4,63.8"/>
<path class="st7" d="M65.6,66.4c-0.2-0.9-0.9-1.2-0.4-1.9c1,0.3,1.8,3,2.8,3.5c-0.5-1.1-1-2.2-1.6-3.3c0.4,0.1,0.6,0.2,0.9-0.1
	c0.4,1.5,2.6,2.9,1.3,4.4C68.3,68.5,66.5,69.6,65.6,66.4"/>
<path class="st7" d="M86.1,63.7c-0.9-4.1-6.1-2.5-9-4c0.5,1,1.9,1.1,2.9,1.6s3.4,1.1,4.2,1.6c-1.8-0.4-5.1-1.5-6.9-1.9
	c0,0.4,0.3,0.4,0.2,0.8c2.4,0.2,5.1,3.2,7.4,2.5h0.1c0.4-0.1,0.6-0.5,1-0.6"/>
<path class="st7" d="M70.1,63.9c-0.2-0.2-0.4-0.3-0.6-0.5c-0.5-0.4-0.9-1.1-1.4-0.6c0.6,0.7,2.5,2.6,3.1,3.4
	c-0.8-0.4-2.6-2.4-3.5-2.8c0,1.3,2.2,4.1,3.7,3.6l0,0l0.4-0.2l0.1-0.2c0.1-0.4,0.1-0.7,0.1-1.1C72,65.2,70.1,63.9,70.1,63.9"/>
<path class="st7" d="M71.6,42.6c0-0.1-0.1-0.2-0.2-0.2c-2.1,1.8-3.6,4.2-4.2,6.9l0.7-0.1c0.9-1.7,1.9-3.3,3-4.9
	c-0.7,1.7-1.5,3.3-2.4,4.8h0.7C70.3,47.2,72.7,45.8,71.6,42.6"/>
<path class="st7" d="M69.5,56.6c-0.8-0.1-1.7,0.7-2,0.1c1.2-0.7,2.9-1,2.3-3c-1.6-0.8-2.6,1.1-3.7,1.2c0.7-1.4,2.8-2.2,2-4.5
	c-2.8,0-2.7,2.6-3.6,2.9c0.2,0,0.3-1.4,0.4-1.6c0.3-0.9,1.1-1.6,1.2-2.5c0-0.7-0.1-1.4-0.3-2c-0.1-0.8-0.6-1.6-1.3-2.1
	c-0.3,2.8-2.5,5.2-2.4,8.3c0.1,2.8,3.5,1.3,3.8,4.1c-0.1,1.6-1.1,3-2.6,3.6c-1.5,0.3-2.9,0.5-4.4,0.6c-0.1,0.8-0.2,2.5,0.8,3.1
	c0.4,0.3,0.9,0.2,1.3-0.2c0.3-0.4,0.4-0.8,0.3-1.3c0-0.2,0-0.4,0-0.6c0.1-0.2,0.2-0.3,0.3-0.5c0.4,0.9,0.2,2,1.1,2.5
	c0.2,0.2,0.5,0.2,0.8,0.2c0.4-0.5,0.8-0.5,0.9-1.2c0.1-0.6-1-1.6-0.3-2.2c0.9,2.4,2,1.8,2.3,2.2c1.2-1.1-0.4-2.3-0.6-3.1
	c1.1,0.5,1.8,2.2,3.3,0.8c0-0.5,0-0.9-0.1-1.4c-0.4-0.7-1.5-0.4-1.8-1.2c0.7-0.5,1.6,0.7,2.4,0.5c0.7-0.2,1.2-1,0.9-1.7
	C70.2,57.2,69.9,56.8,69.5,56.6"/>
<path class="st7" d="M53.7,80.3c-0.4,0-0.6,0.5-0.9,0.6c-0.1,1.8-0.1,5.6-0.4,7.3l0,0c-0.3-1.8-0.3-5.5-0.4-7.3
	c-0.4-0.1-0.5-0.7-0.9-0.6c0.2,3.7-1.1,7.9,1,12l0.4,0.7l0,0l0.4-0.7l0,0C54.8,88.2,53.6,83.9,53.7,80.3"/>
<path class="st7" d="M57.2,53.6c0.8,0,1.4-0.2,1.6,0.3c-1.4-0.3-2.9,0.9-3.1,0c0,0.8-0.9,0.9-1.1,1.6c-0.4,1.2,0.2,2.6,1.4,3
	c0,0,0,0,0.1,0c0.3,0.1,0.6,0.1,0.9,0.1c-0.2,0.6-0.8,1.4-1.6,0.9c0.3,0.3,0.7,0.6,1,1l-4,1.3l-4.2-1.4c0.1-0.3,0.1-0.7,0.1-1
	c0-1.1,0.4-2.2,1-3.2c-0.5,0.2-1.8,0.2-1.9-0.3c2-1,2-4.3,4-5.3c-0.8,0-1.1-0.8-1.3-1.3c1.7,1,7.7-1.1,8.1,1.1
	c0.1,0.7-0.6,0.9-0.5,1.3c0.4-0.3,0.8-0.6,1.1-1c1.1,0.2,1.8,1.3,1.6,2.4c-0.1,0.3-0.2,0.6-0.4,0.8C59.4,53,58.1,52.9,57.2,53.6
	 M54.8,50.7c-0.8,0,0.3,1.1,0.8,1s0.9-0.9,1.6-0.5C57.2,50.6,55.9,50.6,54.8,50.7"/>
<path class="st7" d="M58.8,70.9c-0.6-1.7-0.8-3.5-0.5-5.2c-0.5-1.3-0.7-2.7-0.6-4.1c-1.7,0.8-3.5,1.3-5.3,1.7
	c-1.8-0.4-3.6-1-5.3-1.7c0.1,1.4-0.1,2.8-0.6,4.1c0.3,1.8,0.1,3.6-0.5,5.2c0,0-1,5.4,3.5,7s1.3,1.6,5.8,0S58.7,70.9,58.8,70.9
	 M55.7,63.7c0.2,0.6,0.4,1.8,0.7,2.3c-0.1-0.7-0.3-1.7-0.4-2.4c0.2,0,0.2-0.4,0.3-0.3c0.2,1.4,1.3,3,0.3,4c-1.1-1-0.9-2.6-1.2-3.7
	C55.4,63.6,55.5,63.7,55.7,63.7 M48.3,63.3c0.1-0.2,0.1,0.2,0.3,0.3c-0.1,0.7-0.3,1.7-0.4,2.4c0.3-0.8,0.5-1.5,0.7-2.3
	c0.2,0,0.3-0.1,0.4-0.1c-0.3,1.2-0.1,2.7-1.2,3.7C47.1,66.3,48.1,64.7,48.3,63.3 M47.3,73.7c-1-1,0-2.6,0.3-4
	c0.1-0.1,0.1,0.2,0.3,0.3c-0.1,0.7-0.3,1.8-0.4,2.4c0.3-0.8,0.5-1.5,0.6-2.3c0.2,0,0.2-0.1,0.4-0.1C48.2,71.2,48.4,72.7,47.3,73.7
	 M49.1,76.7c-1-1,0-2.6,0.3-4c0.1-0.1,0.1,0.2,0.3,0.3c-0.1,0.7-0.3,1.8-0.4,2.4c0.3-0.8,0.5-1.5,0.7-2.3c0.2,0,0.2-0.2,0.4-0.1
	C50,74.1,50.2,75.7,49.1,76.7 M49.8,70.8c-1-1,0-2.6,0.3-4c0.1-0.2,0.1,0.2,0.3,0.3c-0.1,0.7-0.3,1.8-0.4,2.4
	c0.3-0.8,0.5-1.5,0.6-2.3c0.2,0,0.3-0.1,0.4,0C50.7,68.3,50.9,69.9,49.8,70.8 M52.5,77.5L52.5,77.5l-0.1,0.3l0,0l-0.2-0.3
	c-0.5-1.3-0.6-2.7-0.4-4c0.2,0,0.2,0.2,0.3,0.2c0,0.8,0,1.6,0.2,2.4l0,0c0.1-0.8,0.1-1.6,0.2-2.4c0.1,0,0.2-0.2,0.4-0.2
	C53.1,74.8,52.9,76.2,52.5,77.5 M52.4,71.6L52.4,71.6l-0.1,0.2l0,0l-0.2-0.2c-0.8-1.1-0.3-2.2-0.4-3.1c0.2,0,0.2,0.1,0.3,0.2
	c0,0.6,0.1,1.3,0.1,1.9l0,0c0.1-0.6,0.1-1.3,0.2-1.9c0.1,0,0.2-0.2,0.4-0.2C52.8,69.5,53.2,70.5,52.4,71.6 M52.4,66.2L52.4,66.2
	l-0.2,0.1l0,0l-0.1-0.1c-0.8-0.7-0.3-1.4-0.4-2c0.2,0,0.2,0.1,0.4,0.1c0,0.4,0.1,0.9,0.2,1.3l0,0c0.1-0.4,0.1-0.8,0.2-1.2
	c0.1,0,0.2-0.1,0.3-0.1C52.8,64.9,53.2,65.6,52.4,66.2 M53.9,67.3c0.2,0.8,0.4,1.5,0.7,2.3c-0.1-0.6-0.3-1.7-0.4-2.4
	c0.2,0,0.2-0.4,0.3-0.3c0.2,1.4,1.3,3,0.3,4c-1.1-1-0.9-2.6-1.2-3.7h0.4 M55.4,76.7c-1.1-1-0.9-2.6-1.2-3.7c0.2,0,0.3,0.1,0.4,0.1
	c0.2,0.8,0.4,1.5,0.6,2.3c-0.1-0.6-0.3-1.7-0.4-2.4c0.2,0,0.1-0.4,0.3-0.3C55.3,74.1,56.4,75.7,55.4,76.7 M57.1,73.7
	c-1.1-1-0.9-2.6-1.2-3.7c0.2,0,0.3,0.1,0.4,0.1c0.2,0.8,0.4,1.6,0.7,2.3c-0.1-0.6-0.3-1.7-0.4-2.4c0.2,0,0.2-0.4,0.3-0.3
	C57.1,71.1,58.2,72.7,57.1,73.7"/>
<path class="st7" d="M66.1,83.3c0.8-1-0.4-1.7-1.4-1.6c0.2-0.5,0.8-0.7,1.3-0.5c0,0,0,0,0.1,0c0.1,0,0.2,0.1,0.2,0.2
	c0-2.2-2.2-1.5-2.9,0.2c-1.2-1.2-2.2-2.5-3.5-3.6c0.3-0.5,0.7-0.8,0.9-1.3c-1-0.6-1.8-1.6-2.2-2.7l-0.3,0.8L56.1,74l-0.3,0.3
	c1.4,1.3,1.2,3.5,2.3,4.8c0.5,0,0.6-0.7,1.1-0.7c1,1,2.1,1.9,3.1,2.9c0,0.4-0.3,0.7-0.7,0.7c-0.2,0-0.3-0.1-0.5-0.2
	c-0.6,0.3-1.9,1.3-0.6,1.9c-0.1-0.2,0-0.4,0.1-0.5c1.3-0.2,3.1-1.4,3.6,0.6c-0.1,0.2-0.2,0.4-0.5,0.5c1,0.4,1.4-1.2,0.9-1.8
	C65.3,82.6,65.7,82.9,66.1,83.3"/>
<path class="st7" d="M46.5,75.1l-0.4-1.3c-0.4,1.2-1.2,2.3-2.3,3c0.3,0.5,0.6,0.8,0.9,1.3c-1.3,1-2.3,2.3-3.6,3.5
	c-0.7-1.7-2.8-2.5-2.9-0.3c0.4-0.4,1-0.4,1.4,0c0,0,0,0,0,0c0.1,0.1,0.1,0.1,0.2,0.2c-1.1-0.1-2.2,0.6-1.5,1.6
	c0.3-0.2,0.8-0.7,1.3-0.6c-0.5,0.7-0.1,2.3,0.9,1.8c-0.2,0-0.3-0.2-0.5-0.5c0.5-2,2.3-0.8,3.6-0.6c0.2,0.1,0.2,0.3,0.1,0.5
	c1.3-0.5,0.1-1.6-0.5-1.9c-0.4,0.4-1.1,0-1.2-0.6c1-1,2.1-1.9,3.1-2.8c0.5,0,0.6,0.6,1.1,0.7c1.2-1.4,1-3.7,2.5-4.8l-0.1-0.1
	L46.5,75.1z"/>
</svg>