<svg width="67" height="70" viewBox="0 0 67 70" fill="none" xmlns="http://www.w3.org/2000/svg">
<path fill-rule="evenodd" clip-rule="evenodd" d="M21.3095 16.4467C21.5014 17.9185 22.1414 22.142 22.5893 23.6778C22.8453 23.4858 23.0372 23.2298 23.2292 22.9739C22.5893 20.1582 22.3333 17.3425 22.3333 14.4629C18.3018 16.1267 21.0535 22.7819 22.1414 25.3416C22.3333 25.0216 22.3333 24.7017 22.2693 24.3817C21.8214 22.6539 20.6055 18.1744 21.2455 16.4467" fill="white"/>
<path fill-rule="evenodd" clip-rule="evenodd" d="M19.0697 28.0287C18.4938 26.8128 16.766 24.3811 16.0621 23.2292C17.15 24.1891 18.8777 26.9408 20.1576 28.3486C20.2216 27.1328 19.5817 26.3649 18.8777 25.341C18.0458 23.8052 16.894 22.5253 15.4862 21.5654H15.3582C14.6543 24.0611 16.382 25.7889 17.7899 27.1328C18.1738 27.5807 18.4938 28.2206 19.0697 28.0287Z" fill="white"/>
<path fill-rule="evenodd" clip-rule="evenodd" d="M23.9971 24.0615C22.0774 25.2774 23.1652 28.477 23.8691 29.8848C24.3811 28.733 23.6132 27.0052 23.5492 25.9173C23.8691 26.3013 24.0611 27.7731 24.5091 28.157C24.5091 27.9651 24.6371 27.8371 24.765 27.7091C24.2531 26.5572 23.9971 25.3414 23.9971 24.0615Z" fill="white"/>
<path fill-rule="evenodd" clip-rule="evenodd" d="M14.5903 25.8527C15.6141 26.6846 17.3419 28.2844 18.3018 29.1803C18.4938 29.1163 18.3658 28.7323 18.4938 28.4764C16.574 27.2605 16.0621 25.0208 13.5024 24.3809C13.5664 27.5165 16.3181 28.7323 18.1098 30.5241C18.3658 30.4601 18.6218 30.4601 18.8777 30.5241C17.7899 29.1163 15.7421 27.2605 14.5903 25.8527Z" fill="white"/>
<path fill-rule="evenodd" clip-rule="evenodd" d="M12.2225 27.4521C12.3505 30.4598 15.4222 31.1637 17.7899 32.4436C17.15 31.0997 14.3983 29.8199 13.3744 28.732C14.3343 29.2439 16.2541 30.5878 17.15 31.0997C17.3419 31.0997 17.3419 30.8437 17.5979 30.6518C15.8701 29.6279 14.8462 27.6441 12.2225 27.4521Z" fill="white"/>
<path fill-rule="evenodd" clip-rule="evenodd" d="M18.2378 31.9324C18.2378 33.4682 20.0296 33.7242 21.3095 34.4281C21.4374 33.4682 19.3897 33.0843 19.0697 32.4444C19.9016 32.6363 21.4374 33.8522 22.2693 33.5322C21.1815 32.9563 19.8376 31.1645 18.2378 31.9324Z" fill="white"/>
<path fill-rule="evenodd" clip-rule="evenodd" d="M11.1987 31.0358C11.5826 33.3395 14.8462 33.5315 16.958 34.5553C17.2779 34.5553 16.766 34.1714 16.83 33.9154C15.8061 33.4675 14.0783 32.6996 13.1184 32.1876C14.3983 32.5076 15.6781 32.9555 16.958 33.4675C17.086 33.2755 17.4059 33.2755 17.4699 32.9555C15.5501 32.2516 13.6304 30.5238 11.1987 31.0358Z" fill="white"/>
<path fill-rule="evenodd" clip-rule="evenodd" d="M19.0697 33.9801C18.5578 33.7241 17.9179 33.9161 17.6619 34.428C17.8539 35.7079 20.3496 35.5799 21.3095 36.0918C21.3095 36.0278 21.3734 35.8998 21.5014 35.8998C20.5415 35.4519 19.5817 35.004 18.5578 34.684C19.5177 34.812 20.4136 35.0039 21.3734 35.3879C21.5654 35.2599 21.3734 34.94 21.3095 34.812C20.5415 34.556 19.8376 34.3 19.0697 33.9801Z" fill="white"/>
<path fill-rule="evenodd" clip-rule="evenodd" d="M11.0707 34.1717C11.2627 35.8355 13.4384 35.8995 15.5501 36.0914C16.0621 36.0914 16.83 36.4754 16.83 35.7715C15.8061 35.5795 13.8863 35.1316 12.9265 34.8756C13.9503 34.7476 16.446 35.5795 17.3419 35.3235C15.6781 34.9396 12.3505 32.8278 11.0707 34.1717Z" fill="white"/>
<path fill-rule="evenodd" clip-rule="evenodd" d="M17.7259 36.5392C18.0458 37.8191 19.7736 37.4351 20.8615 37.2431C20.6695 36.7952 18.8138 36.7952 18.3658 36.5392C18.7498 36.2193 20.7975 36.9872 20.9895 36.3473C19.8376 36.0913 18.1738 35.3234 17.7259 36.5392Z" fill="white"/>
<path fill-rule="evenodd" clip-rule="evenodd" d="M11.1987 37.8837C13.1184 39.2915 15.5501 37.7557 17.5339 37.6277C17.2779 37.0517 16.382 37.3077 15.7421 37.3717C15.1022 37.4357 13.6944 37.5637 13.0544 37.5637C14.3343 37.3077 15.6141 37.1157 16.894 36.9878C16.894 36.8598 16.83 36.7958 16.702 36.7318C14.6542 36.5398 11.8386 36.0279 11.1987 37.8837Z" fill="white"/>
<path fill-rule="evenodd" clip-rule="evenodd" d="M18.4298 39.227C19.4537 39.9309 20.0296 39.4189 20.8615 38.907C21.3095 38.651 21.8854 38.4591 21.9494 38.1391C21.3095 38.2671 19.7736 38.651 19.1337 38.779C19.1977 38.523 20.8615 38.0111 21.1815 37.8831C21.1815 37.7551 21.1175 37.7551 21.1815 37.6911C20.0936 37.5632 18.4938 37.5632 18.4298 39.227Z" fill="white"/>
<path fill-rule="evenodd" clip-rule="evenodd" d="M15.0382 42.6187C15.8701 41.6588 17.5979 40.8909 18.5578 40.059C17.7259 39.739 16.638 40.5069 15.7421 41.0189C14.8462 41.5308 13.4384 41.9787 13.6944 43.4506C14.7822 44.4744 15.6781 43.3226 16.638 42.6827C17.4059 42.1707 18.5578 41.7228 18.4298 40.8909C17.4059 41.1468 15.9981 42.1707 15.0382 42.6187Z" fill="white"/>
<path fill-rule="evenodd" clip-rule="evenodd" d="M27.0688 42.1075C26.8768 42.1075 26.7488 42.1075 26.5568 42.1715C26.2369 42.6194 25.9169 44.2192 25.6609 44.6672C25.469 44.1552 26.3009 42.2995 25.9169 41.9795C25.341 42.8754 24.2531 44.6032 25.469 45.3071C26.6848 45.1791 26.8768 43.6433 27.0688 42.1075Z" fill="white"/>
<path fill-rule="evenodd" clip-rule="evenodd" d="M28.7966 42.2988C28.6046 42.2988 28.4766 42.3628 28.2846 42.4268C28.0926 42.8748 28.0287 44.4746 27.8367 44.9865C27.5807 44.5386 28.0926 42.5548 27.6447 42.2988C27.2607 43.2587 26.4928 45.1785 27.7727 45.6264C28.9885 45.3065 28.9245 43.7707 28.7966 42.2988Z" fill="white"/>
<path fill-rule="evenodd" clip-rule="evenodd" d="M17.086 44.6028C17.4059 43.7709 18.8777 42.6831 19.3897 41.8512C19.2617 41.7872 19.1337 41.7872 19.0697 41.6592C18.3018 42.5551 15.2942 43.515 16.0621 45.4347C16.2541 45.4987 16.51 45.5627 16.766 45.6267C17.3419 45.8187 17.7259 45.3707 18.1098 44.9868C18.4938 44.6028 18.8777 44.0909 19.2617 43.6429C19.4537 43.387 19.7096 43.131 19.9656 42.939C19.8376 42.747 19.9656 42.1711 19.7096 42.2991C18.8777 43.131 17.9819 43.8989 17.086 44.6028Z" fill="white"/>
<path fill-rule="evenodd" clip-rule="evenodd" d="M20.9895 41.7871C20.7335 41.9791 20.9255 42.427 20.9255 42.619C21.1815 42.427 20.9895 42.0431 20.9895 41.7871Z" fill="white"/>
<path fill-rule="evenodd" clip-rule="evenodd" d="M21.4374 43.5793C21.0535 44.3472 20.5415 45.1151 19.9016 45.691C20.0936 44.8591 20.7335 44.1552 20.9255 43.3233L20.1576 43.1953C19.7096 44.2192 18.2378 45.3711 19.2617 46.4589C19.3897 46.6509 19.7736 46.5869 19.9656 46.5869C20.2216 46.5869 20.4776 46.3949 20.6055 46.139C20.9895 45.499 21.3095 44.7951 21.6934 44.0912C21.6294 43.8352 21.5654 43.5793 21.3734 43.4513" fill="white"/>
<path fill-rule="evenodd" clip-rule="evenodd" d="M18.5578 18.0459C15.7421 20.5416 19.1977 24.7651 20.5415 26.5569C20.7335 25.789 19.9656 24.9571 19.7096 24.3172C19.4537 23.6772 18.6858 21.5655 18.4298 20.8616C19.3897 22.1414 20.5415 25.789 22.1414 26.7489C21.6294 25.597 21.1175 24.3811 20.5415 23.1013C20.2856 22.5254 18.8777 19.2618 18.5578 18.0459Z" fill="white"/>
<path fill-rule="evenodd" clip-rule="evenodd" d="M20.0296 30.2678C20.8615 30.8437 21.6934 31.4197 22.4613 32.1236C22.3973 31.0997 21.1815 30.0758 20.7335 29.7558C20.7335 29.7558 19.7096 29.0519 19.3257 29.4359C19.0057 31.7396 21.2455 32.1236 22.3973 33.2754C22.4613 32.2516 20.4136 31.0997 20.0296 30.2678Z" fill="white"/>
<path fill-rule="evenodd" clip-rule="evenodd" d="M20.0296 40.8275C21.1815 41.6594 21.9494 40.3796 22.5893 39.8036C21.9494 39.3557 21.1175 40.2516 20.6055 40.4436C20.6055 39.8676 22.2053 39.6756 22.0134 38.8438C21.3095 39.2277 19.7096 39.6756 20.0296 40.8275Z" fill="white"/>
<path fill-rule="evenodd" clip-rule="evenodd" d="M25.021 42.4912C25.149 41.9153 25.5969 41.7233 25.277 41.2754C24.6371 41.4674 24.1251 43.1952 23.4852 43.5151C23.8052 42.8112 24.1251 42.0433 24.5091 41.4034C24.2531 41.4674 24.1251 41.5314 23.9331 41.3394C23.6772 42.2993 22.2693 43.1952 23.1012 44.155C23.2932 43.8351 24.3811 44.539 25.021 42.4912Z" fill="white"/>
<path fill-rule="evenodd" clip-rule="evenodd" d="M11.9026 40.7628C12.4785 38.1391 15.8061 39.163 17.7259 38.2031C17.4059 38.843 16.51 38.907 15.8061 39.227C15.1022 39.547 13.6304 39.9309 13.1184 40.2509C14.2703 39.9949 16.3181 39.291 17.4699 39.099C17.4699 39.355 17.2779 39.355 17.3419 39.611C15.8061 39.7389 14.0783 41.6587 12.6065 41.2108H12.5425C12.2225 41.1468 12.1585 40.8908 11.9026 40.8268" fill="white"/>
<path fill-rule="evenodd" clip-rule="evenodd" d="M22.2054 40.8911L22.5893 40.5711C22.9093 40.3152 23.1652 39.8672 23.4852 40.1872C23.1012 40.6351 21.8854 41.851 21.5014 42.3629C22.0134 42.107 23.1652 40.8271 23.7412 40.5711C23.7412 41.403 22.3333 43.1948 21.3734 42.8749L21.1175 42.7469L21.0535 42.6189C20.9895 42.3629 20.9895 42.1709 20.9895 41.915C20.9895 41.723 22.2054 40.8911 22.2054 40.8911Z" fill="white"/>
<path fill-rule="evenodd" clip-rule="evenodd" d="M21.1175 27.2608C21.1175 27.1968 21.2455 27.1328 21.2455 27.1328C22.5893 28.2847 23.5492 29.8205 23.9331 31.5483L23.4852 31.4843C22.9093 30.3964 22.2693 29.3725 21.5654 28.3487C22.0134 29.3725 22.5253 30.3964 23.1012 31.4203H22.6533C22.0134 30.1405 20.4136 29.3086 21.1175 27.2608Z" fill="white"/>
<path fill-rule="evenodd" clip-rule="evenodd" d="M22.5893 36.2195C23.1012 36.1555 23.6772 36.6674 23.8692 36.2835C23.1012 35.8355 22.0134 35.6435 22.3333 34.3637C23.3572 33.8518 24.0611 35.0676 24.7011 35.1316C24.2531 34.2357 22.9093 33.7238 23.3572 32.2519C25.149 32.2519 25.149 33.9157 25.6609 34.1077C25.533 34.1077 25.469 33.2118 25.405 33.0838C25.213 32.5079 24.7011 32.06 24.6371 31.484C24.6371 31.0361 24.7011 30.5881 24.829 30.2042C24.893 29.6923 25.213 29.1803 25.6609 28.8604C25.8529 30.6521 27.2607 32.188 27.1968 34.1717C27.1328 35.9635 24.957 35.0036 24.765 36.7954C24.829 37.8193 25.469 38.7152 26.4288 39.0991C27.3887 39.2911 28.2846 39.4191 29.2445 39.4831C29.3085 39.995 29.3725 41.0829 28.7326 41.4669C28.4766 41.6588 28.1566 41.5948 27.9007 41.3389C27.7087 41.0829 27.6447 40.8269 27.7087 40.507C27.7087 40.379 27.7087 40.251 27.7087 40.123C27.6447 39.995 27.5807 39.931 27.5167 39.803C27.2607 40.379 27.3887 41.0829 26.8128 41.4029C26.6848 41.5308 26.4928 41.5308 26.3009 41.5308C26.0449 41.2109 25.7889 41.2109 25.7249 40.7629C25.7249 40.379 26.3649 39.7391 25.9169 39.3551C25.341 40.8909 24.6371 40.507 24.4451 40.7629C23.6772 40.059 24.7011 39.2911 24.829 38.7792C24.1251 39.0991 23.6772 40.187 22.7813 39.2911C22.7813 38.9711 22.7813 38.7152 22.8453 38.3952C23.1012 37.9473 23.8052 38.1392 23.9971 37.6273C23.5492 37.3073 22.9733 38.0753 22.4613 37.9473C22.0134 37.8193 21.6934 37.3073 21.8854 36.8594C22.0774 36.6034 22.3333 36.3475 22.5893 36.2195Z" fill="white"/>
<path fill-rule="evenodd" clip-rule="evenodd" d="M45.6905 16.4467C45.4986 17.9185 44.8586 22.142 44.4107 23.6778C44.1547 23.4858 43.9628 23.2298 43.7708 22.9739C44.4107 20.1582 44.6667 17.3425 44.6667 14.4629C48.6982 16.1267 45.9465 22.7819 44.8586 25.3416C44.7307 25.0216 44.6667 24.7017 44.7307 24.3817C45.1786 22.6539 46.3945 18.1744 45.7545 16.4467" fill="white"/>
<path fill-rule="evenodd" clip-rule="evenodd" d="M47.8663 28.0287C48.4422 26.8128 50.234 24.3811 50.8739 23.2292C49.7861 24.1891 48.0583 26.9408 46.7784 28.3486C46.7144 27.1328 47.3543 26.3649 48.0583 25.341C48.8902 23.8052 50.042 22.5253 51.4499 21.5654H51.5778C52.2818 24.0611 50.554 25.7889 49.1461 27.1328C48.8262 27.5167 48.5062 28.2206 47.8663 28.0287Z" fill="white"/>
<path fill-rule="evenodd" clip-rule="evenodd" d="M43.0669 24.0615C44.9866 25.2774 43.8348 28.477 43.1309 29.8848C42.6189 28.733 43.3868 27.0052 43.4508 25.9173C43.1309 26.3013 42.9389 27.7731 42.5549 28.157C42.5549 27.9651 42.4269 27.8371 42.299 27.7091C42.6829 26.5572 43.0029 25.3414 43.0669 24.0615Z" fill="white"/>
<path fill-rule="evenodd" clip-rule="evenodd" d="M52.3458 25.8527C51.3219 26.6846 49.5941 28.2844 48.6342 29.1803C48.4422 29.1163 48.5702 28.7323 48.4422 28.4764C50.362 27.2605 50.8739 25.0208 53.4336 24.3809C53.3696 27.5165 50.618 28.7323 48.8262 30.5241C48.5702 30.4601 48.3142 30.4601 48.0583 30.5241C49.2101 29.1163 51.2579 27.2605 52.3458 25.8527Z" fill="white"/>
<path fill-rule="evenodd" clip-rule="evenodd" d="M54.7775 27.4521C54.6495 30.4598 51.5778 31.1637 49.2101 32.4436C49.85 31.0997 52.6017 29.8199 53.5616 28.732C52.6017 29.2439 50.6819 30.5878 49.7221 31.0357C49.5941 31.0357 49.5301 30.7797 49.3381 30.5878C51.1299 29.6279 52.0898 27.6441 54.7775 27.4521Z" fill="white"/>
<path fill-rule="evenodd" clip-rule="evenodd" d="M48.7622 31.9324C48.7622 33.4682 46.9704 33.7242 45.6905 34.4281C45.5626 33.4682 47.6743 33.0843 47.9303 32.4444C47.0984 32.6363 45.5626 33.8522 44.7307 33.5322C45.8185 32.9563 47.1624 31.1645 48.7622 31.9324Z" fill="white"/>
<path fill-rule="evenodd" clip-rule="evenodd" d="M55.8653 31.0358C55.4814 33.3395 52.2178 33.5315 50.106 34.5553C49.7861 34.5553 50.298 34.1714 50.234 33.9154C51.2579 33.4675 52.9857 32.6996 53.9456 32.1876C52.6657 32.5076 51.3859 32.9555 50.106 33.4675C49.978 33.2755 49.6581 33.2755 49.5941 32.9555C51.5139 32.2516 53.4336 30.5238 55.8653 31.0358Z" fill="white"/>
<path fill-rule="evenodd" clip-rule="evenodd" d="M29.8844 52.4733C29.3085 51.7694 30.0764 50.8095 30.3324 49.9136C30.3964 49.8496 30.3964 50.1056 30.5244 50.1056C30.3324 50.5535 30.2044 51.1934 30.0764 51.6414C30.2684 51.1934 30.4604 50.6815 30.6523 50.2336C30.7803 50.2336 30.8443 50.1696 30.9083 50.2336C30.6523 50.9375 30.6523 51.8974 29.8844 52.4733Z" fill="white"/>
<path fill-rule="evenodd" clip-rule="evenodd" d="M30.7163 56.3135C31.9962 55.9295 31.8682 52.9859 32.2522 51.0021C32.2522 50.7461 32.0602 51.1941 31.9322 51.1301C31.7402 52.09 31.4202 53.6258 31.2283 54.5217C31.2283 53.6898 31.5482 51.898 31.6762 51.0661C31.5482 50.9381 31.5482 50.6822 31.3563 50.6182C31.0363 52.346 30.2044 54.1377 30.7163 56.3135Z" fill="white"/>
<path fill-rule="evenodd" clip-rule="evenodd" d="M37.1156 52.4733C37.6915 51.7694 36.9236 50.8095 36.6676 49.9136C36.6036 49.8496 36.6036 50.1056 36.4756 50.1056C36.6036 50.4895 36.7956 51.1934 36.9236 51.5774C36.7316 51.1294 36.5396 50.6175 36.3477 50.1696C36.2197 50.1696 36.1557 50.1056 36.0917 50.1696C36.3477 50.9375 36.3477 51.8974 37.1156 52.4733Z" fill="white"/>
<path fill-rule="evenodd" clip-rule="evenodd" d="M36.3477 56.3135C35.0678 55.9295 35.1958 52.9859 34.8118 51.0021C34.8118 50.7461 35.0038 51.1941 35.1318 51.1301C35.3238 52.09 35.6437 53.6258 35.8357 54.5217C35.8357 53.6898 35.5158 51.898 35.3878 51.0661C35.5158 50.9381 35.5158 50.6822 35.7077 50.6182C35.9637 52.346 36.7956 54.1377 36.3477 56.3135Z" fill="white"/>
<path fill-rule="evenodd" clip-rule="evenodd" d="M47.8663 33.9801C48.3782 33.7241 49.0181 33.9161 49.2741 34.428C49.0821 35.7079 46.5864 35.5799 45.6266 36.0918C45.6266 36.0278 45.5626 35.8998 45.4346 35.8998C46.3945 35.4519 47.3543 35.004 48.3782 34.684C47.4183 34.812 46.4585 35.0039 45.5626 35.3879C45.3706 35.2599 45.5626 34.94 45.6266 34.812C46.3945 34.556 47.1624 34.3 47.8663 33.9801Z" fill="white"/>
<path fill-rule="evenodd" clip-rule="evenodd" d="M55.8653 34.1717C55.6734 35.8355 53.4976 35.8995 51.3859 36.0914C50.8739 36.0914 50.106 36.4754 50.106 35.7715C51.1299 35.5795 53.0497 35.1316 54.0096 34.8756C52.9857 34.7476 50.49 35.5795 49.5941 35.3235C51.3219 34.9396 54.6495 32.8278 55.8653 34.1717Z" fill="white"/>
<path fill-rule="evenodd" clip-rule="evenodd" d="M49.2741 36.5392C48.9542 37.8191 47.2264 37.4351 46.1385 37.2431C46.3305 36.7952 48.1862 36.7952 48.6342 36.5392C48.2502 36.2193 46.2025 36.9872 46.0745 36.3473C47.1624 36.0913 48.8262 35.3234 49.2741 36.5392Z" fill="white"/>
<path fill-rule="evenodd" clip-rule="evenodd" d="M55.8013 37.8837C53.8816 39.2915 51.4499 37.7557 49.5301 37.6277C49.7861 37.0517 50.6819 37.3077 51.3219 37.3717C51.9618 37.4357 53.3696 37.5637 54.0096 37.5637C52.7297 37.3077 51.4499 37.1157 50.17 36.9878C50.17 36.8598 50.234 36.7958 50.362 36.7318C52.3457 36.5398 55.1614 36.0279 55.8013 37.8837Z" fill="white"/>
<path fill-rule="evenodd" clip-rule="evenodd" d="M48.5702 39.227C47.5463 39.9309 46.9704 39.4189 46.1385 38.907C45.6905 38.651 45.1146 38.4591 45.0506 38.1391C45.6905 38.2671 47.2264 38.651 47.8663 38.779C47.8023 38.523 46.1385 38.0111 45.8185 37.8831C45.8185 37.7551 45.8825 37.7551 45.8185 37.6911C46.9064 37.5632 48.5062 37.5632 48.5702 39.227Z" fill="white"/>
<path fill-rule="evenodd" clip-rule="evenodd" d="M51.8978 42.6187C51.0659 41.6588 49.3381 40.8909 48.3782 40.059C49.2101 39.739 50.298 40.5069 51.1939 41.0189C52.0898 41.5308 53.4976 41.9787 53.2416 43.3866C52.1538 44.4105 51.2579 43.2586 50.298 42.6187C49.5301 42.1067 48.3782 41.6588 48.5062 40.8269C49.5941 41.0828 51.0019 42.1067 51.8978 42.6187Z" fill="white"/>
<path fill-rule="evenodd" clip-rule="evenodd" d="M39.9312 42.1075C40.1232 42.1075 40.2512 42.1075 40.4432 42.1715C40.6991 42.6194 41.0831 44.2192 41.3391 44.6672C41.531 44.1552 40.6991 42.2995 41.0831 41.9795C41.659 42.8754 42.7469 44.6032 41.531 45.3071C40.3152 45.1791 40.1232 43.6433 39.9312 42.1075Z" fill="white"/>
<path fill-rule="evenodd" clip-rule="evenodd" d="M38.1394 42.2988C38.3314 42.2988 38.4594 42.3628 38.6514 42.4268C38.8434 42.8748 38.9074 44.4746 39.0993 44.9865C39.3553 44.5386 38.8434 42.5548 39.2913 42.2988C39.6753 43.2587 40.4432 45.1785 39.1633 45.6264C38.0115 45.3065 38.0755 43.7707 38.1394 42.2988Z" fill="white"/>
<path fill-rule="evenodd" clip-rule="evenodd" d="M49.978 44.6028C49.6581 43.7709 48.1863 42.6831 47.6743 41.8512C47.8023 41.7872 47.9303 41.7872 47.9943 41.6592C48.7622 42.5551 51.7698 43.515 51.0019 45.4347C50.8099 45.4987 50.554 45.5627 50.298 45.6267C49.7221 45.8187 49.3381 45.3707 48.9542 44.9868C48.5702 44.6028 48.1862 44.0909 47.8023 43.6429C47.6103 43.387 47.3543 43.131 47.0984 42.939C47.2264 42.747 47.0984 42.1711 47.3543 42.2991C48.1223 43.131 49.0182 43.8989 49.978 44.6028Z" fill="white"/>
<path fill-rule="evenodd" clip-rule="evenodd" d="M45.9465 41.7871C46.2025 41.9791 46.0105 42.427 46.0105 42.619C45.7545 42.427 46.0105 42.0431 45.9465 41.7871Z" fill="white"/>
<path fill-rule="evenodd" clip-rule="evenodd" d="M45.4986 43.5793C45.8825 44.3472 46.3945 45.1151 47.0344 45.691C46.8424 44.8591 46.2025 44.1552 46.0105 43.3233L46.7784 43.1953C47.2264 44.2192 48.6982 45.3711 47.6743 46.4589C47.5463 46.6509 47.1624 46.5869 46.9704 46.5869C46.7144 46.5869 46.4585 46.3949 46.3305 46.139C45.9465 45.499 45.6266 44.7951 45.2426 44.0912C45.3066 43.8352 45.3706 43.5793 45.5626 43.4513" fill="white"/>
<path fill-rule="evenodd" clip-rule="evenodd" d="M48.4422 18.0459C51.2579 20.5416 47.8023 24.7651 46.4585 26.5569C46.2665 25.789 47.0344 24.9571 47.2904 24.3172C47.5463 23.6772 48.3142 21.5655 48.5702 20.8616C47.6103 22.1414 46.4585 25.789 44.8586 26.7489C45.3706 25.597 45.8825 24.3811 46.4585 23.1013C46.7144 22.5254 48.1223 19.2618 48.4422 18.0459Z" fill="white"/>
<path fill-rule="evenodd" clip-rule="evenodd" d="M46.9704 30.2678C46.1385 30.8437 45.3066 31.4197 44.5387 32.1236C44.6027 31.0997 45.8185 30.0758 46.2665 29.7558C46.2665 29.7558 47.2904 29.0519 47.7383 29.4359C48.0583 31.7396 45.8185 32.1236 44.6027 33.2754C44.4107 32.2516 46.5224 31.0997 46.9704 30.2678Z" fill="white"/>
<path fill-rule="evenodd" clip-rule="evenodd" d="M46.9704 40.8275C45.8185 41.6594 45.0506 40.3796 44.4107 39.8036C45.0506 39.3557 45.8825 40.2516 46.3945 40.4436C46.3945 39.8676 44.7947 39.6756 44.9866 38.8438C45.6906 39.2277 47.2264 39.6756 46.9704 40.8275Z" fill="white"/>
<path fill-rule="evenodd" clip-rule="evenodd" d="M41.979 42.4912C41.851 41.9153 41.4031 41.7233 41.723 41.2754C42.3629 41.4674 42.8749 43.1952 43.5148 43.5151C43.1948 42.8112 42.8749 42.1073 42.4909 41.4034C42.7469 41.4674 42.8749 41.5314 43.0669 41.3394C43.3228 42.2993 44.7307 43.1952 43.8988 44.155C43.7068 43.8351 42.5549 44.539 41.979 42.4912Z" fill="white"/>
<path fill-rule="evenodd" clip-rule="evenodd" d="M55.0974 40.7628C54.5215 38.1391 51.1939 39.163 49.3381 38.2031C49.6581 38.843 50.554 38.907 51.1939 39.227C51.8338 39.547 53.3696 39.9309 53.8816 40.2509C52.7297 39.9949 50.618 39.291 49.4661 39.035C49.4661 39.291 49.6581 39.291 49.5941 39.547C51.1299 39.6749 52.8577 41.5947 54.3295 41.1468H54.3935C54.6495 41.0828 54.7775 40.8268 55.0334 40.7628" fill="white"/>
<path fill-rule="evenodd" clip-rule="evenodd" d="M44.8586 40.8911C44.7307 40.7631 44.6027 40.6991 44.4747 40.5711C44.1547 40.3152 43.8988 39.8672 43.5788 40.1872C43.9628 40.6351 45.1786 41.851 45.5626 42.3629C45.0506 42.107 43.8988 40.8271 43.3228 40.5711C43.3228 41.403 44.7307 43.1948 45.6905 42.8749L45.9465 42.7469L46.0105 42.6189C46.0745 42.3629 46.0745 42.1709 46.0745 41.915C46.0745 41.723 44.8586 40.8911 44.8586 40.8911Z" fill="white"/>
<path fill-rule="evenodd" clip-rule="evenodd" d="M45.8185 27.2608C45.8185 27.1968 45.7545 27.1328 45.6905 27.1328C44.3467 28.2847 43.3868 29.8205 43.0029 31.5483L43.4508 31.4843C44.0267 30.3964 44.6667 29.3725 45.3706 28.3487C44.9226 29.4365 44.4107 30.4604 43.8348 31.4203H44.2827C44.9866 30.2044 46.5224 29.3086 45.8185 27.2608Z" fill="white"/>
<path fill-rule="evenodd" clip-rule="evenodd" d="M44.4747 36.2195C43.9627 36.1555 43.3868 36.6674 43.1948 36.2835C43.9627 35.8355 45.0506 35.6435 44.6667 34.3637C43.6428 33.8518 43.0029 35.0676 42.2989 35.1316C42.7469 34.2357 44.0907 33.7238 43.5788 32.2519C41.787 32.2519 41.851 33.9157 41.2751 34.1077C41.4031 34.1077 41.467 33.2118 41.531 33.0838C41.723 32.5079 42.235 32.06 42.2989 31.484C42.2989 31.0361 42.235 30.5881 42.107 30.2042C42.043 29.6923 41.723 29.1803 41.2751 28.8604C41.0831 30.6521 39.6753 32.188 39.7393 34.1717C39.8032 35.9635 41.979 35.0036 42.171 36.7954C42.107 37.8193 41.467 38.7152 40.5072 39.0991C39.5473 39.2911 38.6514 39.4191 37.6915 39.4831C37.6275 39.995 37.5635 41.0829 38.2034 41.4669C38.4594 41.6588 38.7794 41.5948 39.0353 41.3389C39.2273 41.0829 39.2913 40.8269 39.2273 40.507C39.2273 40.379 39.2273 40.251 39.2273 40.123C39.2913 39.995 39.3553 39.931 39.4193 39.803C39.6753 40.379 39.5473 41.0829 40.1232 41.4029C40.2512 41.5308 40.4432 41.5308 40.6351 41.5308C40.8911 41.2109 41.1471 41.2109 41.2111 40.7629C41.2751 40.379 40.5712 39.7391 41.0191 39.3551C41.595 40.8909 42.2989 40.507 42.4909 40.7629C43.2588 40.059 42.235 39.2911 42.107 38.7792C42.8109 39.0991 43.2588 40.187 44.2187 39.2911C44.2187 38.9711 44.2187 38.7152 44.1547 38.3952C43.8988 37.9473 43.1948 38.1392 43.0029 37.6273C43.4508 37.3073 44.0267 38.0753 44.5387 37.9473C44.9866 37.8193 45.3066 37.3073 45.1146 36.8594C44.9226 36.6034 44.7307 36.3475 44.4747 36.2195Z" fill="white"/>
<path fill-rule="evenodd" clip-rule="evenodd" d="M34.3639 51.3861C34.1079 51.3861 33.9799 51.706 33.788 51.77C33.724 52.9219 33.724 55.3536 33.532 56.4415C33.34 55.2896 33.34 52.9219 33.276 51.77C33.0201 51.706 32.9561 51.3221 32.7001 51.3861C32.8281 53.7538 31.9962 56.4415 33.34 59.0652L33.596 59.5131L33.852 59.0652C35.0678 56.4415 34.2999 53.6898 34.3639 51.3861Z" fill="white"/>
<path fill-rule="evenodd" clip-rule="evenodd" d="M36.6036 34.2995C37.1156 34.2995 37.4995 34.1715 37.6275 34.4915C36.7316 34.2995 35.7717 35.0674 35.6437 34.4915C35.6437 35.0034 35.0678 35.0674 34.9398 35.5154C34.6839 36.2833 35.0678 37.1792 35.8357 37.4352C35.8357 37.4352 35.8357 37.4352 35.8997 37.4352C36.0917 37.4991 36.2837 37.4991 36.4756 37.4991C36.3477 37.8831 35.9637 38.395 35.4518 38.0751C35.6437 38.2671 35.8997 38.459 36.0917 38.715L33.532 39.5469L30.8443 38.651C30.9083 38.459 30.9083 38.2031 30.9083 38.0111C30.9083 37.3072 31.1643 36.6033 31.5482 35.9633C31.2283 36.0913 30.3964 36.0913 30.3324 35.7714C31.6122 35.1314 31.6122 33.0197 32.8921 32.3798C32.3801 32.3798 32.1882 31.8678 32.0602 31.5479C33.148 32.1878 36.9876 30.8439 37.2436 32.2518C37.3075 32.6997 36.8596 32.8277 36.9236 33.0837C37.1796 32.8917 37.4355 32.6997 37.6275 32.4437C38.3314 32.5717 38.7794 33.2756 38.6514 33.9796C38.5874 34.1715 38.5234 34.3635 38.3954 34.4915C38.0115 33.9156 37.1796 33.8516 36.6036 34.2995ZM35.0678 32.4437C34.5559 32.4437 35.2598 33.1477 35.5798 33.0837C35.8997 33.0197 36.1557 32.5077 36.6036 32.7637C36.6036 32.3798 35.7717 32.3798 35.0678 32.4437Z" fill="white"/>
<path fill-rule="evenodd" clip-rule="evenodd" d="M37.6275 45.3712C37.2436 44.2833 37.1156 43.1315 37.3075 42.0436C36.9876 41.2117 36.8596 40.3158 36.9236 39.4199C35.8357 39.9319 34.6839 40.2518 33.532 40.5078C32.3801 40.2518 31.2283 39.8679 30.1404 39.4199C30.2044 40.3158 30.0764 41.2117 29.7564 42.0436C29.9484 43.1955 29.8204 44.3473 29.4365 45.3712C29.4365 45.3712 28.7966 48.8268 31.6762 49.8507C34.5559 50.8746 32.5081 50.8746 35.3878 49.8507C38.2674 48.8268 37.5635 45.3712 37.6275 45.3712ZM35.6437 40.7638C35.7717 41.1477 35.8997 41.9156 36.0917 42.2356C36.0277 41.7876 35.8997 41.1477 35.8357 40.6998C35.9637 40.6998 35.9637 40.4438 36.0277 40.5078C36.1557 41.4037 36.8596 42.4276 36.2197 43.0675C35.5158 42.4276 35.6437 41.4037 35.4518 40.6998C35.4518 40.6998 35.5158 40.7638 35.6437 40.7638ZM30.9083 40.5078C30.9723 40.3798 30.9723 40.6358 31.1003 40.6998C31.0363 41.1477 30.9083 41.7876 30.8443 42.2356C31.0363 41.7236 31.1643 41.2757 31.2923 40.7638C31.4203 40.7638 31.4842 40.6998 31.5482 40.6998C31.3563 41.4677 31.4842 42.4276 30.7803 43.0675C30.1404 42.4276 30.7803 41.4037 30.9083 40.5078ZM30.2684 47.163C29.6285 46.5231 30.2684 45.4992 30.4604 44.6033C30.5244 44.5393 30.5244 44.7313 30.6523 44.7953C30.5884 45.2432 30.4604 45.9471 30.3964 46.3311C30.5883 45.8192 30.7163 45.3712 30.7803 44.8593C30.9083 44.8593 30.9083 44.7953 31.0363 44.7953C30.8443 45.5632 30.9723 46.5231 30.2684 47.163ZM31.4202 49.0828C30.7803 48.4428 31.4203 47.419 31.6122 46.5231C31.6762 46.4591 31.6762 46.6511 31.8042 46.7151C31.7402 47.163 31.6122 47.8669 31.5482 48.2509C31.7402 47.7389 31.8682 47.291 31.9962 46.779C32.1242 46.779 32.1242 46.6511 32.2522 46.7151C31.9962 47.419 32.1242 48.4428 31.4202 49.0828ZM31.8682 45.3072C31.2283 44.6673 31.8682 43.6434 32.0602 42.7475C32.1242 42.6195 32.1242 42.8755 32.2522 42.9395C32.1882 43.3874 32.0602 44.0914 31.9962 44.4753C32.1882 43.9634 32.3161 43.5154 32.3801 43.0035C32.5081 43.0035 32.5721 42.9395 32.6361 43.0035C32.4441 43.7074 32.5721 44.7313 31.8682 45.3072ZM33.596 49.5947L33.532 49.7867L33.404 49.5947C33.0841 48.7628 33.0201 47.8669 33.148 47.035C33.276 47.035 33.276 47.163 33.34 47.163C33.34 47.6749 33.34 48.1869 33.468 48.6988C33.532 48.1869 33.532 47.6749 33.596 47.163C33.66 47.163 33.724 47.035 33.852 47.035C33.9799 47.8669 33.852 48.7628 33.596 49.5947ZM33.532 45.8192L33.468 45.9471L33.34 45.8192C32.8281 45.1152 33.148 44.4113 33.0841 43.8354C33.212 43.8354 33.212 43.8994 33.276 43.9634C33.276 44.3473 33.34 44.7953 33.34 45.1792C33.404 44.7953 33.404 44.3473 33.468 43.9634C33.532 43.9634 33.596 43.8354 33.724 43.8354C33.788 44.4753 34.0439 45.1152 33.532 45.8192ZM33.532 42.3636L33.404 42.4276L33.34 42.3636C32.8281 41.9156 33.148 41.4677 33.0841 41.0837C33.212 41.0837 33.212 41.1477 33.34 41.1477C33.34 41.4037 33.404 41.7236 33.468 41.9796C33.532 41.7236 33.532 41.4677 33.596 41.2117C33.66 41.2117 33.724 41.1477 33.788 41.1477C33.788 41.5317 34.0439 41.9796 33.532 42.3636ZM34.4919 43.0675C34.6199 43.5794 34.7479 44.0274 34.9398 44.5393C34.8758 44.1554 34.7479 43.4514 34.6839 43.0035C34.8118 43.0035 34.8118 42.7475 34.8758 42.8115C35.0038 43.7074 35.7077 44.7313 35.0678 45.3712C34.3639 44.7313 34.4919 43.7074 34.2999 43.0035H34.5559L34.4919 43.0675ZM35.4518 49.0828C34.7479 48.4428 34.8758 47.419 34.6839 46.7151C34.8118 46.7151 34.8758 46.779 34.9398 46.779C35.0678 47.291 35.1958 47.7389 35.3238 48.2509C35.2598 47.8669 35.1318 47.163 35.0678 46.7151C35.1958 46.7151 35.1318 46.4591 35.2598 46.5231C35.3878 47.419 36.0917 48.4428 35.4518 49.0828ZM36.5396 47.163C35.8357 46.5231 35.9637 45.4992 35.7717 44.7953C35.8997 44.7953 35.9637 44.8593 36.0277 44.8593C36.1557 45.3712 36.2837 45.8832 36.4756 46.3311C36.4117 45.9471 36.2837 45.2432 36.2197 44.7953C36.3477 44.7953 36.3477 44.5393 36.4117 44.6033C36.5396 45.4992 37.2436 46.5231 36.5396 47.163Z" fill="white"/>
<path fill-rule="evenodd" clip-rule="evenodd" d="M42.299 53.3058C42.8109 52.6659 42.043 52.2179 41.4031 52.2819C41.531 51.9619 41.915 51.834 42.235 51.9619C42.235 51.9619 42.235 51.9619 42.299 51.9619C42.3629 51.9619 42.4269 52.0259 42.4269 52.0899C42.4269 50.6821 41.0191 51.13 40.5712 52.2179C39.8033 51.45 39.1633 50.6181 38.3314 49.9142C38.5234 49.5942 38.7794 49.4022 38.9074 49.0823C38.2674 48.6983 37.7555 48.0584 37.4995 47.3545L37.3075 47.8664L35.8997 47.3545L35.7077 47.5465C36.6036 48.3784 36.4756 49.7862 37.1796 50.6181C37.4995 50.6181 37.5635 50.1702 37.8835 50.1702C38.5234 50.8101 39.2273 51.386 39.8672 52.0259C39.8672 52.2819 39.6753 52.4739 39.4193 52.4739C39.2913 52.4739 39.2273 52.4099 39.0993 52.3459C38.7154 52.5379 37.8835 53.1778 38.7154 53.5617C38.6514 53.4338 38.7154 53.3058 38.7794 53.2418C39.6113 53.1138 40.7631 52.3459 41.0831 53.6257C41.0191 53.7537 40.9551 53.8817 40.7631 53.9457C41.4031 54.2017 41.659 53.1778 41.3391 52.7938C41.787 52.8578 42.043 53.0498 42.299 53.3058Z" fill="white"/>
<path fill-rule="evenodd" clip-rule="evenodd" d="M29.7565 48.0585L29.5005 47.2266C29.2445 47.9945 28.7326 48.6984 28.0287 49.1463C28.2206 49.4663 28.4126 49.6583 28.6046 49.9782C27.7727 50.6182 27.1328 51.4501 26.3009 52.218C25.8529 51.1301 24.5091 50.6182 24.4451 52.026C24.7011 51.77 25.085 51.77 25.341 52.026C25.405 52.09 25.405 52.09 25.469 52.154C24.765 52.09 24.0611 52.5379 24.5091 53.1778C24.7011 53.0499 25.021 52.7299 25.341 52.7939C25.021 53.2418 25.277 54.2657 25.9169 53.9458C25.7889 53.9458 25.7249 53.8178 25.5969 53.6258C25.9169 52.346 27.0688 53.1139 27.9007 53.2418C28.0287 53.3058 28.0287 53.4338 27.9647 53.5618C28.7966 53.2418 28.0287 52.5379 27.6447 52.346C27.3887 52.6019 26.9408 52.3459 26.8768 51.962C27.5167 51.3221 28.2206 50.7461 28.8606 50.1702C29.1805 50.1702 29.2445 50.5542 29.5645 50.6182C30.3324 49.7223 30.2044 48.2504 31.1643 47.5465L31.1003 47.4825L29.7565 48.0585Z" fill="white"/>
</svg>
