<svg width="366" height="126" viewBox="0 0 366 126" fill="none" xmlns="http://www.w3.org/2000/svg">
<path d="M110.729 39.7308C108.376 33.666 106.394 27.4774 105.031 21.165L104.536 18.5658L102.059 17.8232C95.2467 15.9666 88.6822 13.7387 82.1178 11.1395C75.5533 8.29273 69.3604 4.95088 63.2914 1.36149L61.0619 0L58.8325 1.36149C52.5157 5.07466 46.0751 8.54028 39.3868 11.387C33.1939 13.9862 26.8772 16.0904 20.3127 17.8232L17.8355 18.442L17.2162 20.9175C15.4822 27.6012 13.3766 34.2849 10.8995 40.721C8.05076 47.6523 4.83046 54.336 1.11472 60.8959L0 62.8762L0.990863 64.9804C0.990863 64.9804 5.32589 73.6444 9.16548 83.4224C13.0051 93.2004 17.0924 105.33 17.0924 105.454L17.8355 107.682L20.1888 108.177C26.5056 109.662 32.6985 111.766 38.6437 114.118C45.4558 117.088 52.1442 120.554 58.5848 124.515L60.8142 126L63.0437 124.515C68.865 120.925 75.0579 117.707 81.3746 114.861C87.9391 112.138 94.7513 109.91 101.687 108.177L104.164 107.558L104.784 105.083C106.642 98.1513 108.747 91.3438 111.348 84.6601C114.692 76.4912 120.761 65.2279 120.885 65.1041L122 63L120.761 60.8959C117.17 53.9646 113.702 46.9096 110.729 39.7308Z" fill="#273562"/>
<path d="M107.376 40.5236C105.157 34.7957 103.289 28.9509 102.005 22.9892L101.538 20.5344L99.203 19.833C92.7817 18.0796 86.5939 15.9754 80.4061 13.5206C74.2183 10.832 68.3807 7.67583 62.6599 4.28585L60.5584 3L58.4569 4.28585C52.5025 7.79273 46.4315 11.0658 40.1269 13.7544C34.2893 16.2092 28.335 18.1965 22.1472 19.833L19.8122 20.4175L19.2284 22.7554C17.5939 29.0678 15.6091 35.3802 13.2741 41.4587C10.5888 48.0049 7.5533 54.3173 4.05076 60.5128L3 62.3831L3.93401 64.3703C3.93401 64.3703 8.0203 72.553 11.6396 81.7878C15.2589 91.0226 19.1117 102.478 19.1117 102.595L19.8122 104.699L22.0305 105.167C27.9848 106.57 33.8223 108.557 39.4264 110.778C45.8477 113.583 52.1523 116.857 58.2233 120.597L60.3249 122L62.4264 120.597C67.9137 117.207 73.7513 114.168 79.7056 111.479C85.8934 108.908 92.3147 106.804 98.8528 105.167L101.188 104.583L101.772 102.245C103.523 95.6984 105.508 89.2692 107.959 82.9568C111.112 75.2416 116.832 64.6041 116.949 64.4872L118 62.5L116.832 60.5128C113.447 53.9666 110.178 47.3035 107.376 40.5236Z" fill="url(#paint0_angular)"/>
<path d="M103.299 43.055C101.274 37.8566 99.5685 32.5521 98.3959 27.1415L97.9695 24.9136L95.8376 24.277C89.9746 22.6857 84.3249 20.776 78.6751 18.5481C73.0254 16.1081 67.6954 13.2436 62.4721 10.167L60.5533 9L58.6345 10.167C53.198 13.3497 47.6548 16.3202 41.8985 18.7603C36.5685 20.9882 31.132 22.7917 25.4822 24.277L23.3503 24.8075L22.8173 26.9293C21.3249 32.6582 19.5127 38.387 17.3807 43.9037C14.9289 49.8448 12.1574 55.5737 8.95939 61.1965L8 62.8939L8.85279 64.6974C8.85279 64.6974 12.5838 72.1238 15.8883 80.5049C19.1929 88.886 22.7107 99.2829 22.7107 99.389L23.3503 101.299L25.3756 101.723C30.8122 102.996 36.1421 104.8 41.2589 106.815C47.1218 109.361 52.8782 112.332 58.4213 115.727L60.3401 117L62.2589 115.727C67.269 112.65 72.599 109.892 78.0355 107.452C83.6853 105.118 89.5482 103.208 95.5178 101.723L97.6497 101.193L98.1827 99.0707C99.7817 93.1297 101.594 87.2947 103.832 81.5658C106.711 74.5638 111.934 64.9096 112.041 64.8035L113 63L111.934 61.1965C108.843 55.2554 105.858 49.2083 103.299 43.055Z" fill="#273562"/>
<path fill-rule="evenodd" clip-rule="evenodd" d="M41.3 34.6996C41.6 36.9996 42.6 43.5996 43.3 45.9996C43.7 45.6996 44 45.2996 44.3 44.8996C43.3 40.4996 42.9 36.0996 42.9 31.5996C36.6 34.1996 40.9 44.5996 42.6 48.5996C42.9 48.0996 42.9 47.5996 42.8 47.0996C42.1 44.3996 40.2 37.3996 41.2 34.6996" fill="white"/>
<path fill-rule="evenodd" clip-rule="evenodd" d="M37.8 52.8002C36.9 50.9002 34.2 47.1002 33.1 45.3002C34.8 46.8002 37.5 51.1002 39.5 53.3002C39.6 51.4002 38.6 50.2002 37.5 48.6002C36.2 46.2002 34.4 44.2002 32.2 42.7002H32C30.9 46.6002 33.6 49.3002 35.8 51.4002C36.4 52.1002 36.9 53.1002 37.8 52.8002Z" fill="white"/>
<path fill-rule="evenodd" clip-rule="evenodd" d="M45.5 46.5996C42.5 48.4996 44.2 53.4996 45.3 55.6996C46.1 53.8996 44.9 51.1996 44.8 49.4996C45.3 50.0996 45.6 52.3996 46.3 52.9996C46.3 52.6996 46.5 52.4996 46.7 52.2996C45.9 50.4996 45.5 48.5996 45.5 46.5996Z" fill="white"/>
<path fill-rule="evenodd" clip-rule="evenodd" d="M30.8 49.3996C32.4 50.6996 35.1 53.1996 36.6 54.5996C36.9 54.4996 36.7 53.8996 36.9 53.4996C33.9 51.5996 33.1 48.0996 29.1 47.0996C29.2 51.9996 33.5 53.8996 36.3 56.6996C36.7 56.5996 37.1 56.5996 37.5 56.6996C35.8 54.4996 32.6 51.5996 30.8 49.3996Z" fill="white"/>
<path fill-rule="evenodd" clip-rule="evenodd" d="M27.1 51.9004C27.3 56.6004 32.1 57.7004 35.8 59.7004C34.8 57.6004 30.5 55.6004 28.9 53.9004C30.4 54.7004 33.4 56.8004 34.8 57.6004C35.1 57.6004 35.1 57.2004 35.5 56.9004C32.8 55.3004 31.2 52.2004 27.1 51.9004Z" fill="white"/>
<path fill-rule="evenodd" clip-rule="evenodd" d="M36.5 58.8997C36.5 61.2997 39.3 61.6997 41.3 62.7997C41.5 61.2997 38.3 60.6997 37.8 59.6997C39.1 59.9997 41.5 61.8997 42.8 61.3997C41.1 60.4997 39 57.6997 36.5 58.8997Z" fill="white"/>
<path fill-rule="evenodd" clip-rule="evenodd" d="M25.5 57.5004C26.1 61.1004 31.2 61.4004 34.5 63.0004C35 63.0004 34.2 62.4004 34.3 62.0004C32.7 61.3004 30 60.1004 28.5 59.3004C30.5 59.8004 32.5 60.5004 34.5 61.3004C34.7 61.0004 35.2 61.0004 35.3 60.5004C32.3 59.4004 29.3 56.7004 25.5 57.5004Z" fill="white"/>
<path fill-rule="evenodd" clip-rule="evenodd" d="M37.8 62.1002C37 61.7002 36 62.0002 35.6 62.8002C35.9 64.8002 39.8 64.6002 41.3 65.4002C41.3 65.3002 41.4 65.1002 41.6 65.1002C40.1 64.4002 38.6 63.7002 37 63.2002C38.5 63.4002 39.9 63.7002 41.4 64.3002C41.7 64.1002 41.4 63.6002 41.3 63.4002C40.1 63.0002 39 62.6002 37.8 62.1002Z" fill="white"/>
<path fill-rule="evenodd" clip-rule="evenodd" d="M25.3 62.4C25.6 65 29 65.1 32.3 65.4C33.1 65.4 34.3 66 34.3 64.9C32.7 64.6 29.7 63.9 28.2 63.5C29.8 63.3 33.7 64.6 35.1 64.2C32.5 63.6 27.3 60.3 25.3 62.4Z" fill="white"/>
<path fill-rule="evenodd" clip-rule="evenodd" d="M35.7 66.1002C36.2 68.1002 38.9 67.5002 40.6 67.2002C40.3 66.5002 37.4 66.5002 36.7 66.1002C37.3 65.6002 40.5 66.8002 40.8 65.8002C39 65.4002 36.4 64.2002 35.7 66.1002Z" fill="white"/>
<path fill-rule="evenodd" clip-rule="evenodd" d="M25.5 68.2001C28.5 70.4001 32.3 68 35.4 67.8C35 66.9 33.6 67.3001 32.6 67.4001C31.6 67.5001 29.4 67.7001 28.4 67.7001C30.4 67.3001 32.4 67 34.4 66.8C34.4 66.6 34.3 66.5001 34.1 66.4001C30.9 66.1001 26.5 65.3001 25.5 68.2001Z" fill="white"/>
<path fill-rule="evenodd" clip-rule="evenodd" d="M36.8 70.2997C38.4 71.3997 39.3 70.5997 40.6 69.7997C41.3 69.3997 42.2 69.0997 42.3 68.5997C41.3 68.7997 38.9 69.3997 37.9 69.5997C38 69.1997 40.6 68.3997 41.1 68.1997C41.1 67.9997 41 67.9997 41.1 67.8997C39.4 67.6997 36.9 67.6997 36.8 70.2997Z" fill="white"/>
<path fill-rule="evenodd" clip-rule="evenodd" d="M31.5 75.5995C32.8 74.0995 35.5 72.8995 37 71.5995C35.7 71.0995 34 72.2995 32.6 73.0995C31.2 73.8995 29 74.5995 29.4 76.8995C31.1 78.4995 32.5 76.6995 34 75.6995C35.2 74.8995 37 74.1995 36.8 72.8995C35.2 73.2995 33 74.8995 31.5 75.5995Z" fill="white"/>
<path fill-rule="evenodd" clip-rule="evenodd" d="M50.3 74.7996C50 74.7996 49.8 74.7996 49.5 74.8996C49 75.5996 48.5 78.0996 48.1 78.7996C47.8 77.9996 49.1 75.0996 48.5 74.5996C47.6 75.9996 45.9 78.6996 47.8 79.7996C49.7 79.5996 50 77.1996 50.3 74.7996Z" fill="white"/>
<path fill-rule="evenodd" clip-rule="evenodd" d="M53 75.0996C52.7 75.0996 52.5 75.1996 52.2 75.2996C51.9 75.9996 51.8 78.4996 51.5 79.2996C51.1 78.5996 51.9 75.4996 51.2 75.0996C50.6 76.5996 49.4 79.5996 51.4 80.2996C53.3 79.7996 53.2 77.3996 53 75.0996Z" fill="white"/>
<path fill-rule="evenodd" clip-rule="evenodd" d="M34.7 78.6996C35.2 77.3996 37.5 75.6996 38.3 74.3996C38.1 74.2996 37.9 74.2996 37.8 74.0996C36.6 75.4996 31.9 76.9996 33.1 79.9996C33.4 80.0996 33.8 80.1996 34.2 80.2996C35.1 80.5996 35.7 79.8996 36.3 79.2996C36.9 78.6996 37.5 77.8996 38.1 77.1996C38.4 76.7996 38.8 76.3996 39.2 76.0996C39 75.7996 39.2 74.8996 38.8 75.0996C37.5 76.3996 36.1 77.5996 34.7 78.6996Z" fill="white"/>
<path fill-rule="evenodd" clip-rule="evenodd" d="M40.8 74.2998C40.4 74.5998 40.7 75.2998 40.7 75.5998C41.1 75.2998 40.8 74.6998 40.8 74.2998Z" fill="white"/>
<path fill-rule="evenodd" clip-rule="evenodd" d="M41.5 77.1C40.9 78.3 40.1 79.5 39.1 80.4C39.4 79.1 40.4 78 40.7 76.7L39.5 76.5C38.8 78.1 36.5 79.9 38.1 81.6C38.3 81.9 38.9 81.8 39.2 81.8C39.6 81.8 40 81.5 40.2 81.1C40.8 80.1 41.3 79 41.9 77.9C41.8 77.5 41.7 77.1 41.4 76.9" fill="white"/>
<path fill-rule="evenodd" clip-rule="evenodd" d="M37 37.2002C32.6 41.1002 38 47.7002 40.1 50.5002C40.4 49.3002 39.2 48.0002 38.8 47.0002C38.4 46.0002 37.2 42.7002 36.8 41.6002C38.3 43.6002 40.1 49.3002 42.6 50.8002C41.8 49.0002 41 47.1002 40.1 45.1002C39.7 44.2002 37.5 39.1002 37 37.2002Z" fill="white"/>
<path fill-rule="evenodd" clip-rule="evenodd" d="M39.3 56.3004C40.6 57.2004 41.9 58.1004 43.1 59.2004C43 57.6004 41.1 56.0004 40.4 55.5004C40.4 55.5004 38.8 54.4004 38.2 55.0004C37.7 58.6004 41.2 59.2004 43 61.0004C43.1 59.4004 39.9 57.6004 39.3 56.3004Z" fill="white"/>
<path fill-rule="evenodd" clip-rule="evenodd" d="M39.3 72.8002C41.1 74.1002 42.3 72.1002 43.3 71.2002C42.3 70.5002 41 71.9002 40.2 72.2002C40.2 71.3002 42.7 71.0002 42.4 69.7002C41.3 70.3002 38.8 71.0002 39.3 72.8002Z" fill="white"/>
<path fill-rule="evenodd" clip-rule="evenodd" d="M47.1 75.4C47.3 74.5 48 74.2 47.5 73.5C46.5 73.8 45.7 76.5 44.7 77C45.2 75.9 45.7 74.7 46.3 73.7C45.9 73.8 45.7 73.9 45.4 73.6C45 75.1 42.8 76.5 44.1 78C44.4 77.5 46.1 78.6 47.1 75.4Z" fill="white"/>
<path fill-rule="evenodd" clip-rule="evenodd" d="M26.6 72.7002C27.5 68.6002 32.7 70.2002 35.7 68.7002C35.2 69.7002 33.8 69.8002 32.7 70.3002C31.6 70.8002 29.3 71.4002 28.5 71.9002C30.3 71.5002 33.5 70.4002 35.3 70.1002C35.3 70.5002 35 70.5002 35.1 70.9002C32.7 71.1002 30 74.1002 27.7 73.4002H27.6C27.1 73.3002 27 72.9002 26.6 72.8002" fill="white"/>
<path fill-rule="evenodd" clip-rule="evenodd" d="M42.7 72.9004L43.3 72.4004C43.8 72.0004 44.2 71.3004 44.7 71.8004C44.1 72.5004 42.2 74.4004 41.6 75.2004C42.4 74.8004 44.2 72.8004 45.1 72.4004C45.1 73.7004 42.9 76.5004 41.4 76.0004L41 75.8004L40.9 75.6004C40.8 75.2004 40.8 74.9004 40.8 74.5004C40.8 74.2004 42.7 72.9004 42.7 72.9004Z" fill="white"/>
<path fill-rule="evenodd" clip-rule="evenodd" d="M41 51.6004C41 51.5004 41.2 51.4004 41.2 51.4004C43.3 53.2004 44.8 55.6004 45.4 58.3004L44.7 58.2004C43.8 56.5004 42.8 54.9004 41.7 53.3004C42.4 54.9004 43.2 56.5004 44.1 58.1004H43.4C42.4 56.1004 39.9 54.8004 41 51.6004Z" fill="white"/>
<path fill-rule="evenodd" clip-rule="evenodd" d="M43.3 65.5996C44.1 65.4996 45 66.2996 45.3 65.6996C44.1 64.9996 42.4 64.6996 42.9 62.6996C44.5 61.8996 45.6 63.7996 46.6 63.8996C45.9 62.4996 43.8 61.6996 44.5 59.3996C47.3 59.3996 47.3 61.9996 48.1 62.2996C47.9 62.2996 47.8 60.8996 47.7 60.6996C47.4 59.7996 46.6 59.0996 46.5 58.1996C46.5 57.4996 46.6 56.7996 46.8 56.1996C46.9 55.3996 47.4 54.5996 48.1 54.0996C48.4 56.8996 50.6 59.2996 50.5 62.3996C50.4 65.1996 47 63.6996 46.7 66.4996C46.8 68.0996 47.8 69.4996 49.3 70.0996C50.8 70.3996 52.2 70.5996 53.7 70.6996C53.8 71.4996 53.9 73.1996 52.9 73.7996C52.5 74.0996 52 73.9996 51.6 73.5996C51.3 73.1996 51.2 72.7996 51.3 72.2996C51.3 72.0996 51.3 71.8996 51.3 71.6996C51.2 71.4996 51.1 71.3996 51 71.1996C50.6 72.0996 50.8 73.1996 49.9 73.6996C49.7 73.8996 49.4 73.8996 49.1 73.8996C48.7 73.3996 48.3 73.3996 48.2 72.6996C48.2 72.0996 49.2 71.0996 48.5 70.4996C47.6 72.8996 46.5 72.2996 46.2 72.6996C45 71.5996 46.6 70.3996 46.8 69.5996C45.7 70.0996 45 71.7996 43.6 70.3996C43.6 69.8996 43.6 69.4996 43.7 68.9996C44.1 68.2996 45.2 68.5996 45.5 67.7996C44.8 67.2996 43.9 68.4996 43.1 68.2996C42.4 68.0996 41.9 67.2996 42.2 66.5996C42.5 66.1996 42.9 65.7996 43.3 65.5996Z" fill="white"/>
<path fill-rule="evenodd" clip-rule="evenodd" d="M79.4 34.6996C79.1 36.9996 78.1 43.5996 77.4 45.9996C77 45.6996 76.7 45.2996 76.4 44.8996C77.4 40.4996 77.8 36.0996 77.8 31.5996C84.1 34.1996 79.8 44.5996 78.1 48.5996C77.9 48.0996 77.8 47.5996 77.9 47.0996C78.6 44.3996 80.5 37.3996 79.5 34.6996" fill="white"/>
<path fill-rule="evenodd" clip-rule="evenodd" d="M82.8 52.8002C83.7 50.9002 86.5 47.1002 87.5 45.3002C85.8 46.8002 83.1 51.1002 81.1 53.3002C81 51.4002 82 50.2002 83.1 48.6002C84.4 46.2002 86.2 44.2002 88.4 42.7002H88.6C89.7 46.6002 87 49.3002 84.8 51.4002C84.3 52.0002 83.8 53.1002 82.8 52.8002Z" fill="white"/>
<path fill-rule="evenodd" clip-rule="evenodd" d="M75.3 46.5996C78.3 48.4996 76.5 53.4996 75.4 55.6996C74.6 53.8996 75.8 51.1996 75.9 49.4996C75.4 50.0996 75.1 52.3996 74.5 52.9996C74.5 52.6996 74.3 52.4996 74.1 52.2996C74.7 50.4996 75.2 48.5996 75.3 46.5996Z" fill="white"/>
<path fill-rule="evenodd" clip-rule="evenodd" d="M89.8 49.3996C88.2 50.6996 85.5 53.1996 84 54.5996C83.7 54.4996 83.9 53.8996 83.7 53.4996C86.7 51.5996 87.5 48.0996 91.5 47.0996C91.4 51.9996 87.1 53.8996 84.3 56.6996C83.9 56.5996 83.5 56.5996 83.1 56.6996C84.9 54.4996 88.1 51.5996 89.8 49.3996Z" fill="white"/>
<path fill-rule="evenodd" clip-rule="evenodd" d="M93.6 51.9004C93.4 56.6004 88.6 57.7004 84.9 59.7004C85.9 57.6004 90.2 55.6004 91.7 53.9004C90.2 54.7004 87.2 56.8004 85.7 57.5004C85.5 57.5004 85.4 57.1004 85.1 56.8004C87.9 55.3004 89.4 52.2004 93.6 51.9004Z" fill="white"/>
<path fill-rule="evenodd" clip-rule="evenodd" d="M84.2 58.8997C84.2 61.2997 81.4 61.6997 79.4 62.7997C79.2 61.2997 82.5 60.6997 82.9 59.6997C81.6 59.9997 79.2 61.8997 77.9 61.3997C79.6 60.4997 81.7 57.6997 84.2 58.8997Z" fill="white"/>
<path fill-rule="evenodd" clip-rule="evenodd" d="M95.3 57.5004C94.7 61.1004 89.6 61.4004 86.3 63.0004C85.8 63.0004 86.6 62.4004 86.5 62.0004C88.1 61.3004 90.8 60.1004 92.3 59.3004C90.3 59.8004 88.3 60.5004 86.3 61.3004C86.1 61.0004 85.6 61.0004 85.5 60.5004C88.5 59.4004 91.5 56.7004 95.3 57.5004Z" fill="white"/>
<path fill-rule="evenodd" clip-rule="evenodd" d="M54.7 91.0004C53.8 89.9004 55 88.4004 55.4 87.0004C55.5 86.9004 55.5 87.3004 55.7 87.3004C55.4 88.0004 55.2 89.0004 55 89.7004C55.3 89.0004 55.6 88.2004 55.9 87.5004C56.1 87.5004 56.2 87.4004 56.3 87.5004C55.9 88.6004 55.9 90.1004 54.7 91.0004Z" fill="white"/>
<path fill-rule="evenodd" clip-rule="evenodd" d="M56 96.9996C58 96.3996 57.8 91.7996 58.4 88.6996C58.4 88.2996 58.1 88.9996 57.9 88.8996C57.6 90.3996 57.1 92.7996 56.8 94.1996C56.8 92.8996 57.3 90.0996 57.5 88.7996C57.3 88.5996 57.3 88.1996 57 88.0996C56.5 90.7996 55.2 93.5996 56 96.9996Z" fill="white"/>
<path fill-rule="evenodd" clip-rule="evenodd" d="M66 91.0004C66.9 89.9004 65.7 88.4004 65.3 87.0004C65.2 86.9004 65.2 87.3004 65 87.3004C65.2 87.9004 65.5 89.0004 65.7 89.6004C65.4 88.9004 65.1 88.1004 64.8 87.4004C64.6 87.4004 64.5 87.3004 64.4 87.4004C64.8 88.6004 64.8 90.1004 66 91.0004Z" fill="white"/>
<path fill-rule="evenodd" clip-rule="evenodd" d="M64.8 96.9996C62.8 96.3996 63 91.7996 62.4 88.6996C62.4 88.2996 62.7 88.9996 62.9 88.8996C63.2 90.3996 63.7 92.7996 64 94.1996C64 92.8996 63.5 90.0996 63.3 88.7996C63.5 88.5996 63.5 88.1996 63.8 88.0996C64.2 90.7996 65.5 93.5996 64.8 96.9996Z" fill="white"/>
<path fill-rule="evenodd" clip-rule="evenodd" d="M82.8 62.1002C83.6 61.7002 84.6 62.0002 85 62.8002C84.7 64.8002 80.8 64.6002 79.3 65.4002C79.3 65.3002 79.2 65.1002 79 65.1002C80.5 64.4002 82 63.7002 83.6 63.2002C82.1 63.4002 80.6 63.7002 79.2 64.3002C78.9 64.1002 79.2 63.6002 79.3 63.4002C80.5 63.0002 81.7 62.6002 82.8 62.1002Z" fill="white"/>
<path fill-rule="evenodd" clip-rule="evenodd" d="M95.3 62.4C95 65 91.6 65.1 88.3 65.4C87.5 65.4 86.3 66 86.3 64.9C87.9 64.6 90.9 63.9 92.4 63.5C90.8 63.3 86.9 64.6 85.5 64.2C88.2 63.6 93.4 60.3 95.3 62.4Z" fill="white"/>
<path fill-rule="evenodd" clip-rule="evenodd" d="M85 66.1002C84.5 68.1002 81.8 67.5002 80.1 67.2002C80.4 66.5002 83.3 66.5002 84 66.1002C83.4 65.6002 80.2 66.8002 80 65.8002C81.7 65.4002 84.3 64.2002 85 66.1002Z" fill="white"/>
<path fill-rule="evenodd" clip-rule="evenodd" d="M95.2 68.2001C92.2 70.4001 88.4 68 85.4 67.8C85.8 66.9 87.2 67.3001 88.2 67.4001C89.2 67.5001 91.4 67.7001 92.4 67.7001C90.4 67.3001 88.4 67 86.4 66.8C86.4 66.6 86.5 66.5001 86.7 66.4001C89.8 66.1001 94.2 65.3001 95.2 68.2001Z" fill="white"/>
<path fill-rule="evenodd" clip-rule="evenodd" d="M83.9 70.2997C82.3 71.3997 81.4 70.5997 80.1 69.7997C79.4 69.3997 78.5 69.0997 78.4 68.5997C79.4 68.7997 81.8 69.3997 82.8 69.5997C82.7 69.1997 80.1 68.3997 79.6 68.1997C79.6 67.9997 79.7 67.9997 79.6 67.8997C81.3 67.6997 83.8 67.6997 83.9 70.2997Z" fill="white"/>
<path fill-rule="evenodd" clip-rule="evenodd" d="M89.1 75.5995C87.8 74.0995 85.1 72.8995 83.6 71.5995C84.9 71.0995 86.6 72.2995 88 73.0995C89.4 73.8995 91.6 74.5995 91.2 76.7995C89.5 78.3995 88.1 76.5995 86.6 75.5995C85.4 74.7995 83.6 74.0995 83.8 72.7995C85.5 73.1995 87.7 74.7995 89.1 75.5995Z" fill="white"/>
<path fill-rule="evenodd" clip-rule="evenodd" d="M70.4 74.7996C70.7 74.7996 70.9 74.7996 71.2 74.8996C71.6 75.5996 72.2 78.0996 72.6 78.7996C72.9 77.9996 71.6 75.0996 72.2 74.5996C73.1 75.9996 74.8 78.6996 72.9 79.7996C71 79.5996 70.7 77.1996 70.4 74.7996Z" fill="white"/>
<path fill-rule="evenodd" clip-rule="evenodd" d="M67.6 75.0996C67.9 75.0996 68.1 75.1996 68.4 75.2996C68.7 75.9996 68.8 78.4996 69.1 79.2996C69.5 78.5996 68.7 75.4996 69.4 75.0996C70 76.5996 71.2 79.5996 69.2 80.2996C67.4 79.7996 67.5 77.3996 67.6 75.0996Z" fill="white"/>
<path fill-rule="evenodd" clip-rule="evenodd" d="M86.1 78.6996C85.6 77.3996 83.3 75.6996 82.5 74.3996C82.7 74.2996 82.9 74.2996 83 74.0996C84.2 75.4996 88.9 76.9996 87.7 79.9996C87.4 80.0996 87 80.1996 86.6 80.2996C85.7 80.5996 85.1 79.8996 84.5 79.2996C83.9 78.6996 83.3 77.8996 82.7 77.1996C82.4 76.7996 82 76.3996 81.6 76.0996C81.8 75.7996 81.6 74.8996 82 75.0996C83.2 76.3996 84.6 77.5996 86.1 78.6996Z" fill="white"/>
<path fill-rule="evenodd" clip-rule="evenodd" d="M79.8 74.2998C80.2 74.5998 79.9 75.2998 79.9 75.5998C79.5 75.2998 79.9 74.6998 79.8 74.2998Z" fill="white"/>
<path fill-rule="evenodd" clip-rule="evenodd" d="M79.1 77.1C79.7 78.3 80.5 79.5 81.5 80.4C81.2 79.1 80.2 78 79.9 76.7L81.1 76.5C81.8 78.1 84.1 79.9 82.5 81.6C82.3 81.9 81.7 81.8 81.4 81.8C81 81.8 80.6 81.5 80.4 81.1C79.8 80.1 79.3 79 78.7 77.9C78.8 77.5 78.9 77.1 79.2 76.9" fill="white"/>
<path fill-rule="evenodd" clip-rule="evenodd" d="M83.7 37.2002C88.1 41.1002 82.7 47.7002 80.6 50.5002C80.3 49.3002 81.5 48.0002 81.9 47.0002C82.3 46.0002 83.5 42.7002 83.9 41.6002C82.4 43.6002 80.6 49.3002 78.1 50.8002C78.9 49.0002 79.7 47.1002 80.6 45.1002C81 44.2002 83.2 39.1002 83.7 37.2002Z" fill="white"/>
<path fill-rule="evenodd" clip-rule="evenodd" d="M81.4 56.3004C80.1 57.2004 78.8 58.1004 77.6 59.2004C77.7 57.6004 79.6 56.0004 80.3 55.5004C80.3 55.5004 81.9 54.4004 82.6 55.0004C83.1 58.6004 79.6 59.2004 77.7 61.0004C77.4 59.4004 80.7 57.6004 81.4 56.3004Z" fill="white"/>
<path fill-rule="evenodd" clip-rule="evenodd" d="M81.4 72.8002C79.6 74.1002 78.4 72.1002 77.4 71.2002C78.4 70.5002 79.7 71.9002 80.5 72.2002C80.5 71.3002 78 71.0002 78.3 69.7002C79.4 70.3002 81.8 71.0002 81.4 72.8002Z" fill="white"/>
<path fill-rule="evenodd" clip-rule="evenodd" d="M73.6 75.4C73.4 74.5 72.7 74.2 73.2 73.5C74.2 73.8 75 76.5 76 77C75.5 75.9 75 74.8 74.4 73.7C74.8 73.8 75 73.9 75.3 73.6C75.7 75.1 77.9 76.5 76.6 78C76.3 77.5 74.5 78.6 73.6 75.4Z" fill="white"/>
<path fill-rule="evenodd" clip-rule="evenodd" d="M94.1 72.7002C93.2 68.6002 88 70.2002 85.1 68.7002C85.6 69.7002 87 69.8002 88 70.3002C89 70.8002 91.4 71.4002 92.2 71.9002C90.4 71.5002 87.1 70.4002 85.3 70.0002C85.3 70.4002 85.6 70.4002 85.5 70.8002C87.9 71.0002 90.6 74.0002 92.9 73.3002H93C93.4 73.2002 93.6 72.8002 94 72.7002" fill="white"/>
<path fill-rule="evenodd" clip-rule="evenodd" d="M78.1 72.9004C77.9 72.7004 77.7 72.6004 77.5 72.4004C77 72.0004 76.6 71.3004 76.1 71.8004C76.7 72.5004 78.6 74.4004 79.2 75.2004C78.4 74.8004 76.6 72.8004 75.7 72.4004C75.7 73.7004 77.9 76.5004 79.4 76.0004L79.8 75.8004L79.9 75.6004C80 75.2004 80 74.9004 80 74.5004C80 74.2004 78.1 72.9004 78.1 72.9004Z" fill="white"/>
<path fill-rule="evenodd" clip-rule="evenodd" d="M79.6 51.6004C79.6 51.5004 79.5 51.4004 79.4 51.4004C77.3 53.2004 75.8 55.6004 75.2 58.3004L75.9 58.2004C76.8 56.5004 77.8 54.9004 78.9 53.3004C78.2 55.0004 77.4 56.6004 76.5 58.1004H77.2C78.3 56.2004 80.7 54.8004 79.6 51.6004Z" fill="white"/>
<path fill-rule="evenodd" clip-rule="evenodd" d="M77.5 65.5996C76.7 65.4996 75.8 66.2996 75.5 65.6996C76.7 64.9996 78.4 64.6996 77.8 62.6996C76.2 61.8996 75.2 63.7996 74.1 63.8996C74.8 62.4996 76.9 61.6996 76.1 59.3996C73.3 59.3996 73.4 61.9996 72.5 62.2996C72.7 62.2996 72.8 60.8996 72.9 60.6996C73.2 59.7996 74 59.0996 74.1 58.1996C74.1 57.4996 74 56.7996 73.8 56.1996C73.7 55.3996 73.2 54.5996 72.5 54.0996C72.2 56.8996 70 59.2996 70.1 62.3996C70.2 65.1996 73.6 63.6996 73.9 66.4996C73.8 68.0996 72.8 69.4996 71.3 70.0996C69.8 70.3996 68.4 70.5996 66.9 70.6996C66.8 71.4996 66.7 73.1996 67.7 73.7996C68.1 74.0996 68.6 73.9996 69 73.5996C69.3 73.1996 69.4 72.7996 69.3 72.2996C69.3 72.0996 69.3 71.8996 69.3 71.6996C69.4 71.4996 69.5 71.3996 69.6 71.1996C70 72.0996 69.8 73.1996 70.7 73.6996C70.9 73.8996 71.2 73.8996 71.5 73.8996C71.9 73.3996 72.3 73.3996 72.4 72.6996C72.5 72.0996 71.4 71.0996 72.1 70.4996C73 72.8996 74.1 72.2996 74.4 72.6996C75.6 71.5996 74 70.3996 73.8 69.5996C74.9 70.0996 75.6 71.7996 77.1 70.3996C77.1 69.8996 77.1 69.4996 77 68.9996C76.6 68.2996 75.5 68.5996 75.2 67.7996C75.9 67.2996 76.8 68.4996 77.6 68.2996C78.3 68.0996 78.8 67.2996 78.5 66.5996C78.2 66.1996 77.9 65.7996 77.5 65.5996Z" fill="white"/>
<path fill-rule="evenodd" clip-rule="evenodd" d="M61.7 89.3003C61.3 89.3003 61.1 89.8003 60.8 89.9003C60.7 91.7003 60.7 95.5003 60.4 97.2003C60.1 95.4003 60.1 91.7003 60 89.9003C59.6 89.8003 59.5 89.2003 59.1 89.3003C59.3 93.0003 58 97.2003 60.1 101.3L60.5 102L60.9 101.3C62.8 97.2003 61.6 92.9003 61.7 89.3003Z" fill="white"/>
<path fill-rule="evenodd" clip-rule="evenodd" d="M65.2 62.5998C66 62.5998 66.6 62.3998 66.8 62.8998C65.4 62.5998 63.9 63.7998 63.7 62.8998C63.7 63.6998 62.8 63.7998 62.6 64.4998C62.2 65.6998 62.8 67.0998 64 67.4998C64 67.4998 64 67.4998 64.1 67.4998C64.4 67.5998 64.7 67.5998 65 67.5998C64.8 68.1998 64.2 68.9998 63.4 68.4998C63.7 68.7998 64.1 69.0998 64.4 69.4998L60.4 70.7998L56.2 69.3998C56.3 69.0998 56.3 68.6998 56.3 68.3998C56.3 67.2998 56.7 66.1998 57.3 65.1998C56.8 65.3998 55.5 65.3998 55.4 64.8998C57.4 63.8998 57.4 60.5998 59.4 59.5998C58.6 59.5998 58.3 58.7998 58.1 58.2998C59.8 59.2998 65.8 57.1998 66.2 59.3998C66.3 60.0998 65.6 60.2998 65.7 60.6998C66.1 60.3998 66.5 60.0998 66.8 59.6998C67.9 59.8998 68.6 60.9998 68.4 62.0998C68.3 62.3998 68.2 62.6998 68 62.8998C67.4 61.9998 66.1 61.8998 65.2 62.5998ZM62.8 59.6998C62 59.6998 63.1 60.7998 63.6 60.6998C64.1 60.5998 64.5 59.7998 65.2 60.1998C65.2 59.5998 63.9 59.5998 62.8 59.6998Z" fill="white"/>
<path fill-rule="evenodd" clip-rule="evenodd" d="M66.8 79.8996C66.2 78.1996 66 76.3996 66.3 74.6996C65.8 73.3996 65.6 71.9996 65.7 70.5996C64 71.3996 62.2 71.8996 60.4 72.2996C58.6 71.8996 56.8 71.2996 55.1 70.5996C55.2 71.9996 55 73.3996 54.5 74.6996C54.8 76.4996 54.6 78.2996 54 79.8996C54 79.8996 53 85.2996 57.5 86.8996C62 88.4996 58.8 88.4996 63.3 86.8996C67.8 85.2996 66.7 79.8996 66.8 79.8996ZM63.7 72.6996C63.9 73.2996 64.1 74.4996 64.4 74.9996C64.3 74.2996 64.1 73.2996 64 72.5996C64.2 72.5996 64.2 72.1996 64.3 72.2996C64.5 73.6996 65.6 75.2996 64.6 76.2996C63.5 75.2996 63.7 73.6996 63.4 72.5996C63.4 72.5996 63.5 72.6996 63.7 72.6996ZM56.3 72.2996C56.4 72.0996 56.4 72.4996 56.6 72.5996C56.5 73.2996 56.3 74.2996 56.2 74.9996C56.5 74.1996 56.7 73.4996 56.9 72.6996C57.1 72.6996 57.2 72.5996 57.3 72.5996C57 73.7996 57.2 75.2996 56.1 76.2996C55.1 75.2996 56.1 73.6996 56.3 72.2996ZM55.3 82.6996C54.3 81.6996 55.3 80.0996 55.6 78.6996C55.7 78.5996 55.7 78.8996 55.9 78.9996C55.8 79.6996 55.6 80.7996 55.5 81.3996C55.8 80.5996 56 79.8996 56.1 79.0996C56.3 79.0996 56.3 78.9996 56.5 78.9996C56.2 80.1996 56.4 81.6996 55.3 82.6996ZM57.1 85.6996C56.1 84.6996 57.1 83.0996 57.4 81.6996C57.5 81.5996 57.5 81.8996 57.7 81.9996C57.6 82.6996 57.4 83.7996 57.3 84.3996C57.6 83.5996 57.8 82.8996 58 82.0996C58.2 82.0996 58.2 81.8996 58.4 81.9996C58 83.0996 58.2 84.6996 57.1 85.6996ZM57.8 79.7996C56.8 78.7996 57.8 77.1996 58.1 75.7996C58.2 75.5996 58.2 75.9996 58.4 76.0996C58.3 76.7996 58.1 77.8996 58 78.4996C58.3 77.6996 58.5 76.9996 58.6 76.1996C58.8 76.1996 58.9 76.0996 59 76.1996C58.7 77.2996 58.9 78.8996 57.8 79.7996ZM60.5 86.4996L60.4 86.7996L60.2 86.4996C59.7 85.1996 59.6 83.7996 59.8 82.4996C60 82.4996 60 82.6996 60.1 82.6996C60.1 83.4996 60.1 84.2996 60.3 85.0996C60.4 84.2996 60.4 83.4996 60.5 82.6996C60.6 82.6996 60.7 82.4996 60.9 82.4996C61.1 83.7996 60.9 85.1996 60.5 86.4996ZM60.4 80.5996L60.3 80.7996L60.1 80.5996C59.3 79.4996 59.8 78.3996 59.7 77.4996C59.9 77.4996 59.9 77.5996 60 77.6996C60 78.2996 60.1 78.9996 60.1 79.5996C60.2 78.9996 60.2 78.2996 60.3 77.6996C60.4 77.6996 60.5 77.4996 60.7 77.4996C60.8 78.4996 61.2 79.4996 60.4 80.5996ZM60.4 75.1996L60.2 75.2996L60.1 75.1996C59.3 74.4996 59.8 73.7996 59.7 73.1996C59.9 73.1996 59.9 73.2996 60.1 73.2996C60.1 73.6996 60.2 74.1996 60.3 74.5996C60.4 74.1996 60.4 73.7996 60.5 73.3996C60.6 73.3996 60.7 73.2996 60.8 73.2996C60.8 73.8996 61.2 74.5996 60.4 75.1996ZM61.9 76.2996C62.1 77.0996 62.3 77.7996 62.6 78.5996C62.5 77.9996 62.3 76.8996 62.2 76.1996C62.4 76.1996 62.4 75.7996 62.5 75.8996C62.7 77.2996 63.8 78.8996 62.8 79.8996C61.7 78.8996 61.9 77.2996 61.6 76.1996H62L61.9 76.2996ZM63.4 85.6996C62.3 84.6996 62.5 83.0996 62.2 81.9996C62.4 81.9996 62.5 82.0996 62.6 82.0996C62.8 82.8996 63 83.5996 63.2 84.3996C63.1 83.7996 62.9 82.6996 62.8 81.9996C63 81.9996 62.9 81.5996 63.1 81.6996C63.3 83.0996 64.4 84.6996 63.4 85.6996ZM65.1 82.6996C64 81.6996 64.2 80.0996 63.9 78.9996C64.1 78.9996 64.2 79.0996 64.3 79.0996C64.5 79.8996 64.7 80.6996 65 81.3996C64.9 80.7996 64.7 79.6996 64.6 78.9996C64.8 78.9996 64.8 78.5996 64.9 78.6996C65.1 80.0996 66.2 81.6996 65.1 82.6996Z" fill="white"/>
<path fill-rule="evenodd" clip-rule="evenodd" d="M74.1 92.3C74.9 91.3 73.7 90.6 72.7 90.7C72.9 90.2 73.5 90 74 90.2C74 90.2 74 90.2 74.1 90.2C74.2 90.2 74.3 90.3 74.3 90.4C74.3 88.2 72.1 88.9 71.4 90.6C70.2 89.4 69.2 88.1 67.9 87C68.2 86.5 68.6 86.2 68.8 85.7C67.8 85.1 67 84.1 66.6 83L66.3 83.8L64.1 83L63.8 83.3C65.2 84.6 65 86.8 66.1 88.1C66.6 88.1 66.7 87.4 67.2 87.4C68.2 88.4 69.3 89.3 70.3 90.3C70.3 90.7 70 91 69.6 91C69.4 91 69.3 90.9 69.1 90.8C68.5 91.1 67.2 92.1 68.5 92.7C68.4 92.5 68.5 92.3 68.6 92.2C69.9 92 71.7 90.8 72.2 92.8C72.1 93 72 93.2 71.7 93.3C72.7 93.7 73.1 92.1 72.6 91.5C73.3 91.6 73.7 91.9 74.1 92.3Z" fill="white"/>
<path fill-rule="evenodd" clip-rule="evenodd" d="M54.5 84.0998L54.1 82.7998C53.7 83.9998 52.9 85.0998 51.8 85.7998C52.1 86.2998 52.4 86.5998 52.7 87.0998C51.4 88.0998 50.4 89.3998 49.1 90.5998C48.4 88.8998 46.3 88.0998 46.2 90.2998C46.6 89.8998 47.2 89.8998 47.6 90.2998C47.7 90.3998 47.7 90.3998 47.8 90.4998C46.7 90.3998 45.6 91.0998 46.3 92.0998C46.6 91.8998 47.1 91.3998 47.6 91.4998C47.1 92.1998 47.5 93.7998 48.5 93.2998C48.3 93.2998 48.2 93.0998 48 92.7998C48.5 90.7998 50.3 91.9998 51.6 92.1998C51.8 92.2998 51.8 92.4998 51.7 92.6998C53 92.1998 51.8 91.0998 51.2 90.7998C50.8 91.1998 50.1 90.7998 50 90.1998C51 89.1998 52.1 88.2998 53.1 87.3998C53.6 87.3998 53.7 87.9998 54.2 88.0998C55.4 86.6998 55.2 84.3998 56.7 83.2998L56.6 83.1998L54.5 84.0998Z" fill="white"/>
<path d="M198.328 38V20.864H211.192V38H209.056V22.76H200.488V38H198.328ZM220.067 24.92C221.635 24.92 222.795 25.264 223.547 25.952C224.299 26.64 224.675 27.736 224.675 29.24V38H223.139L222.731 36.176H222.635C222.075 36.88 221.483 37.4 220.859 37.736C220.251 38.072 219.403 38.24 218.315 38.24C217.147 38.24 216.179 37.936 215.411 37.328C214.643 36.704 214.259 35.736 214.259 34.424C214.259 33.144 214.763 32.16 215.771 31.472C216.779 30.768 218.331 30.384 220.427 30.32L222.611 30.248V29.48C222.611 28.408 222.379 27.664 221.915 27.248C221.451 26.832 220.795 26.624 219.947 26.624C219.275 26.624 218.635 26.728 218.027 26.936C217.419 27.128 216.851 27.352 216.323 27.608L215.675 26.024C216.235 25.72 216.899 25.464 217.667 25.256C218.435 25.032 219.235 24.92 220.067 24.92ZM220.691 31.784C219.091 31.848 217.979 32.104 217.355 32.552C216.747 33 216.443 33.632 216.443 34.448C216.443 35.168 216.659 35.696 217.091 36.032C217.539 36.368 218.107 36.536 218.795 36.536C219.883 36.536 220.787 36.24 221.507 35.648C222.227 35.04 222.587 34.112 222.587 32.864V31.712L220.691 31.784ZM238.04 38H235.904V26.888H232.112C231.904 29.592 231.616 31.776 231.248 33.44C230.88 35.088 230.392 36.288 229.784 37.04C229.176 37.792 228.408 38.168 227.48 38.168C227.272 38.168 227.064 38.152 226.856 38.12C226.664 38.104 226.504 38.064 226.376 38V36.416C226.472 36.448 226.576 36.472 226.688 36.488C226.8 36.504 226.912 36.512 227.024 36.512C227.888 36.512 228.576 35.592 229.088 33.752C229.616 31.912 230.016 29.04 230.288 25.136H238.04V38ZM246.595 24.92C248.163 24.92 249.323 25.264 250.075 25.952C250.827 26.64 251.203 27.736 251.203 29.24V38H249.667L249.259 36.176H249.163C248.603 36.88 248.011 37.4 247.387 37.736C246.779 38.072 245.931 38.24 244.843 38.24C243.675 38.24 242.707 37.936 241.939 37.328C241.171 36.704 240.787 35.736 240.787 34.424C240.787 33.144 241.291 32.16 242.299 31.472C243.307 30.768 244.859 30.384 246.955 30.32L249.139 30.248V29.48C249.139 28.408 248.907 27.664 248.443 27.248C247.979 26.832 247.323 26.624 246.475 26.624C245.803 26.624 245.163 26.728 244.555 26.936C243.947 27.128 243.379 27.352 242.851 27.608L242.203 26.024C242.763 25.72 243.427 25.464 244.195 25.256C244.963 25.032 245.763 24.92 246.595 24.92ZM247.219 31.784C245.619 31.848 244.507 32.104 243.883 32.552C243.275 33 242.971 33.632 242.971 34.448C242.971 35.168 243.187 35.696 243.619 36.032C244.067 36.368 244.635 36.536 245.323 36.536C246.411 36.536 247.315 36.24 248.035 35.648C248.755 35.04 249.115 34.112 249.115 32.864V31.712L247.219 31.784ZM263.656 26.912H259.456V38H257.368V26.912H253.216V25.136H263.656V26.912ZM270.662 24.92C272.23 24.92 273.39 25.264 274.142 25.952C274.894 26.64 275.27 27.736 275.27 29.24V38H273.734L273.326 36.176H273.23C272.67 36.88 272.078 37.4 271.454 37.736C270.846 38.072 269.998 38.24 268.91 38.24C267.742 38.24 266.774 37.936 266.006 37.328C265.238 36.704 264.854 35.736 264.854 34.424C264.854 33.144 265.358 32.16 266.366 31.472C267.374 30.768 268.926 30.384 271.022 30.32L273.206 30.248V29.48C273.206 28.408 272.974 27.664 272.51 27.248C272.046 26.832 271.39 26.624 270.542 26.624C269.87 26.624 269.23 26.728 268.622 26.936C268.014 27.128 267.446 27.352 266.918 27.608L266.27 26.024C266.83 25.72 267.494 25.464 268.262 25.256C269.03 25.032 269.83 24.92 270.662 24.92ZM271.286 31.784C269.686 31.848 268.574 32.104 267.95 32.552C267.342 33 267.038 33.632 267.038 34.448C267.038 35.168 267.254 35.696 267.686 36.032C268.134 36.368 268.702 36.536 269.39 36.536C270.478 36.536 271.382 36.24 272.102 35.648C272.822 35.04 273.182 34.112 273.182 32.864V31.712L271.286 31.784ZM211.432 70H209.272V62.008H200.488V70H198.328V52.864H200.488V60.112H209.272V52.864H211.432V70ZM220.301 56.92C221.869 56.92 223.029 57.264 223.781 57.952C224.533 58.64 224.909 59.736 224.909 61.24V70H223.373L222.965 68.176H222.869C222.309 68.88 221.717 69.4 221.093 69.736C220.485 70.072 219.637 70.24 218.549 70.24C217.381 70.24 216.413 69.936 215.645 69.328C214.877 68.704 214.493 67.736 214.493 66.424C214.493 65.144 214.997 64.16 216.005 63.472C217.013 62.768 218.565 62.384 220.661 62.32L222.845 62.248V61.48C222.845 60.408 222.613 59.664 222.149 59.248C221.685 58.832 221.029 58.624 220.181 58.624C219.509 58.624 218.869 58.728 218.261 58.936C217.653 59.128 217.085 59.352 216.557 59.608L215.909 58.024C216.469 57.72 217.133 57.464 217.901 57.256C218.669 57.032 219.469 56.92 220.301 56.92ZM220.925 63.784C219.325 63.848 218.213 64.104 217.589 64.552C216.981 65 216.677 65.632 216.677 66.448C216.677 67.168 216.893 67.696 217.325 68.032C217.773 68.368 218.341 68.536 219.029 68.536C220.117 68.536 221.021 68.24 221.741 67.648C222.461 67.04 222.821 66.112 222.821 64.864V63.712L220.925 63.784ZM238.274 70H236.138V58.888H232.346C232.138 61.592 231.85 63.776 231.482 65.44C231.114 67.088 230.626 68.288 230.018 69.04C229.41 69.792 228.642 70.168 227.714 70.168C227.506 70.168 227.298 70.152 227.09 70.12C226.898 70.104 226.738 70.064 226.61 70V68.416C226.706 68.448 226.81 68.472 226.922 68.488C227.034 68.504 227.146 68.512 227.258 68.512C228.122 68.512 228.81 67.592 229.322 65.752C229.85 63.912 230.25 61.04 230.522 57.136H238.274V70ZM253.141 63.544C253.141 65.672 252.597 67.32 251.509 68.488C250.437 69.656 248.981 70.24 247.141 70.24C246.005 70.24 244.989 69.984 244.093 69.472C243.213 68.944 242.517 68.184 242.005 67.192C241.493 66.184 241.237 64.968 241.237 63.544C241.237 61.416 241.773 59.776 242.845 58.624C243.917 57.472 245.373 56.896 247.213 56.896C248.381 56.896 249.405 57.16 250.285 57.688C251.181 58.2 251.877 58.952 252.373 59.944C252.885 60.92 253.141 62.12 253.141 63.544ZM243.421 63.544C243.421 65.064 243.717 66.272 244.309 67.168C244.917 68.048 245.877 68.488 247.189 68.488C248.485 68.488 249.437 68.048 250.045 67.168C250.653 66.272 250.957 65.064 250.957 63.544C250.957 62.024 250.653 60.832 250.045 59.968C249.437 59.104 248.477 58.672 247.165 58.672C245.853 58.672 244.901 59.104 244.309 59.968C243.717 60.832 243.421 62.024 243.421 63.544ZM263.936 57.136V58.912H258.2V70H256.088V57.136H263.936ZM277.021 63.544C277.021 65.672 276.477 67.32 275.389 68.488C274.317 69.656 272.861 70.24 271.021 70.24C269.885 70.24 268.869 69.984 267.973 69.472C267.093 68.944 266.397 68.184 265.885 67.192C265.373 66.184 265.117 64.968 265.117 63.544C265.117 61.416 265.653 59.776 266.725 58.624C267.797 57.472 269.253 56.896 271.093 56.896C272.261 56.896 273.285 57.16 274.165 57.688C275.061 58.2 275.757 58.952 276.253 59.944C276.765 60.92 277.021 62.12 277.021 63.544ZM267.301 63.544C267.301 65.064 267.597 66.272 268.189 67.168C268.797 68.048 269.757 68.488 271.069 68.488C272.365 68.488 273.317 68.048 273.925 67.168C274.533 66.272 274.837 65.064 274.837 63.544C274.837 62.024 274.533 60.832 273.925 59.968C273.317 59.104 272.357 58.672 271.045 58.672C269.733 58.672 268.781 59.104 268.189 59.968C267.597 60.832 267.301 62.024 267.301 63.544ZM290.312 60.376C290.312 61.176 290.072 61.8 289.592 62.248C289.112 62.696 288.496 63 287.744 63.16V63.256C288.544 63.368 289.24 63.656 289.832 64.12C290.424 64.568 290.72 65.272 290.72 66.232C290.72 67.32 290.312 68.224 289.496 68.944C288.696 69.648 287.368 70 285.512 70H279.968V57.136H285.488C286.4 57.136 287.216 57.24 287.936 57.448C288.672 57.64 289.248 57.976 289.664 58.456C290.096 58.92 290.312 59.56 290.312 60.376ZM288.176 60.64C288.176 60.032 287.952 59.592 287.504 59.32C287.072 59.032 286.36 58.888 285.368 58.888H282.08V62.416H284.984C287.112 62.416 288.176 61.824 288.176 60.64ZM288.536 66.232C288.536 65.496 288.256 64.968 287.696 64.648C287.136 64.328 286.312 64.168 285.224 64.168H282.08V68.296H285.272C286.328 68.296 287.136 68.144 287.696 67.84C288.256 67.52 288.536 66.984 288.536 66.232ZM293.396 70V57.136H295.508V62.416H298.844C300.508 62.416 301.74 62.72 302.54 63.328C303.34 63.936 303.74 64.848 303.74 66.064C303.74 67.264 303.348 68.224 302.564 68.944C301.78 69.648 300.508 70 298.748 70H293.396ZM305.876 70V57.136H307.988V70H305.876ZM298.556 68.296C299.468 68.296 300.212 68.144 300.788 67.84C301.364 67.52 301.652 66.968 301.652 66.184C301.652 65.4 301.388 64.872 300.86 64.6C300.332 64.312 299.572 64.168 298.58 64.168H295.508V68.296H298.556ZM314.724 63.424L310.284 57.136H312.684L315.996 61.984L319.284 57.136H321.66L317.22 63.424L321.9 70H319.5L315.996 64.864L312.444 70H310.068L314.724 63.424ZM210.832 102H208.24L200.488 93.312V102H198.328V84.864H200.488V93.168L208.048 84.864H210.496L203.056 93.192L210.832 102ZM223.66 95.544C223.66 97.672 223.116 99.32 222.028 100.488C220.956 101.656 219.5 102.24 217.66 102.24C216.524 102.24 215.508 101.984 214.612 101.472C213.732 100.944 213.036 100.184 212.524 99.192C212.012 98.184 211.756 96.968 211.756 95.544C211.756 93.416 212.292 91.776 213.364 90.624C214.436 89.472 215.892 88.896 217.732 88.896C218.9 88.896 219.924 89.16 220.804 89.688C221.7 90.2 222.396 90.952 222.892 91.944C223.404 92.92 223.66 94.12 223.66 95.544ZM213.94 95.544C213.94 97.064 214.236 98.272 214.828 99.168C215.436 100.048 216.396 100.488 217.708 100.488C219.004 100.488 219.956 100.048 220.564 99.168C221.172 98.272 221.476 97.064 221.476 95.544C221.476 94.024 221.172 92.832 220.564 91.968C219.956 91.104 218.996 90.672 217.684 90.672C216.372 90.672 215.42 91.104 214.828 91.968C214.236 92.832 213.94 94.024 213.94 95.544ZM228.719 89.136V94.488H235.703V89.136H237.815V102H235.703V96.264H228.719V102H226.607V89.136H228.719ZM246.648 102.24C245.512 102.24 244.496 102.008 243.6 101.544C242.72 101.08 242.024 100.36 241.512 99.384C241.016 98.408 240.768 97.16 240.768 95.64C240.768 94.056 241.032 92.768 241.56 91.776C242.088 90.784 242.8 90.056 243.696 89.592C244.608 89.128 245.64 88.896 246.792 88.896C247.448 88.896 248.08 88.968 248.688 89.112C249.296 89.24 249.792 89.4 250.176 89.592L249.528 91.344C249.144 91.2 248.696 91.064 248.184 90.936C247.672 90.808 247.192 90.744 246.744 90.744C244.216 90.744 242.952 92.368 242.952 95.616C242.952 97.168 243.256 98.36 243.864 99.192C244.488 100.008 245.408 100.416 246.624 100.416C247.328 100.416 247.944 100.344 248.472 100.2C249.016 100.056 249.512 99.88 249.96 99.672V101.544C249.528 101.768 249.048 101.936 248.52 102.048C248.008 102.176 247.384 102.24 246.648 102.24ZM250.604 89.136H252.86L255.644 96.456C255.884 97.096 256.1 97.712 256.292 98.304C256.484 98.88 256.628 99.432 256.724 99.96H256.82C256.916 99.56 257.068 99.04 257.276 98.4C257.484 97.744 257.7 97.088 257.924 96.432L260.54 89.136H262.82L257.276 103.776C256.828 104.992 256.244 105.96 255.524 106.68C254.82 107.4 253.844 107.76 252.596 107.76C252.212 107.76 251.876 107.736 251.588 107.688C251.3 107.656 251.052 107.616 250.844 107.568V105.888C251.02 105.92 251.228 105.952 251.468 105.984C251.724 106.016 251.988 106.032 252.26 106.032C252.996 106.032 253.588 105.824 254.036 105.408C254.5 104.992 254.86 104.44 255.116 103.752L255.788 102.048L250.604 89.136ZM273.777 102H271.641V90.888H267.849C267.641 93.592 267.353 95.776 266.985 97.44C266.617 99.088 266.129 100.288 265.521 101.04C264.913 101.792 264.145 102.168 263.217 102.168C263.009 102.168 262.801 102.152 262.593 102.12C262.401 102.104 262.241 102.064 262.113 102V100.416C262.209 100.448 262.313 100.472 262.425 100.488C262.537 100.504 262.649 100.512 262.761 100.512C263.625 100.512 264.313 99.592 264.825 97.752C265.353 95.912 265.753 93.04 266.025 89.136H273.777V102ZM283.388 94.416C286.732 94.416 288.404 95.632 288.404 98.064C288.404 99.264 287.996 100.224 287.18 100.944C286.364 101.648 285.068 102 283.292 102H277.46V89.136H279.572V94.416H283.388ZM286.292 98.184C286.292 97.4 286.012 96.872 285.452 96.6C284.908 96.312 284.14 96.168 283.148 96.168H279.572V100.296H283.196C284.092 100.296 284.828 100.136 285.404 99.816C285.996 99.496 286.292 98.952 286.292 98.184ZM298.995 90.912H294.795V102H292.707V90.912H288.555V89.136H298.995V90.912ZM306.001 88.92C307.569 88.92 308.729 89.264 309.481 89.952C310.233 90.64 310.609 91.736 310.609 93.24V102H309.073L308.665 100.176H308.569C308.009 100.88 307.417 101.4 306.793 101.736C306.185 102.072 305.337 102.24 304.249 102.24C303.081 102.24 302.113 101.936 301.345 101.328C300.577 100.704 300.193 99.736 300.193 98.424C300.193 97.144 300.697 96.16 301.705 95.472C302.713 94.768 304.265 94.384 306.361 94.32L308.545 94.248V93.48C308.545 92.408 308.313 91.664 307.849 91.248C307.385 90.832 306.729 90.624 305.881 90.624C305.209 90.624 304.569 90.728 303.961 90.936C303.353 91.128 302.785 91.352 302.257 91.608L301.609 90.024C302.169 89.72 302.833 89.464 303.601 89.256C304.369 89.032 305.169 88.92 306.001 88.92ZM306.625 95.784C305.025 95.848 303.913 96.104 303.289 96.552C302.681 97 302.377 97.632 302.377 98.448C302.377 99.168 302.593 99.696 303.025 100.032C303.473 100.368 304.041 100.536 304.729 100.536C305.817 100.536 306.721 100.24 307.441 99.648C308.161 99.04 308.521 98.112 308.521 96.864V95.712L306.625 95.784ZM316.294 89.136V94.488H323.278V89.136H325.39V102H323.278V96.264H316.294V102H314.182V89.136H316.294ZM337.943 90.912H333.743V102H331.655V90.912H327.503V89.136H337.943V90.912ZM351.027 95.544C351.027 97.672 350.483 99.32 349.395 100.488C348.323 101.656 346.867 102.24 345.027 102.24C343.891 102.24 342.875 101.984 341.979 101.472C341.099 100.944 340.403 100.184 339.891 99.192C339.379 98.184 339.123 96.968 339.123 95.544C339.123 93.416 339.659 91.776 340.731 90.624C341.803 89.472 343.259 88.896 345.099 88.896C346.267 88.896 347.291 89.16 348.171 89.688C349.067 90.2 349.763 90.952 350.259 91.944C350.771 92.92 351.027 94.12 351.027 95.544ZM341.307 95.544C341.307 97.064 341.603 98.272 342.195 99.168C342.803 100.048 343.763 100.488 345.075 100.488C346.371 100.488 347.323 100.048 347.931 99.168C348.539 98.272 348.843 97.064 348.843 95.544C348.843 94.024 348.539 92.832 347.931 91.968C347.323 91.104 346.363 90.672 345.051 90.672C343.739 90.672 342.787 91.104 342.195 91.968C341.603 92.832 341.307 94.024 341.307 95.544ZM364.318 92.376C364.318 93.176 364.078 93.8 363.598 94.248C363.118 94.696 362.502 95 361.75 95.16V95.256C362.55 95.368 363.246 95.656 363.838 96.12C364.43 96.568 364.726 97.272 364.726 98.232C364.726 99.32 364.318 100.224 363.502 100.944C362.702 101.648 361.374 102 359.518 102H353.974V89.136H359.494C360.406 89.136 361.222 89.24 361.942 89.448C362.678 89.64 363.254 89.976 363.67 90.456C364.102 90.92 364.318 91.56 364.318 92.376ZM362.182 92.64C362.182 92.032 361.958 91.592 361.51 91.32C361.078 91.032 360.366 90.888 359.374 90.888H356.086V94.416H358.99C361.118 94.416 362.182 93.824 362.182 92.64ZM362.542 98.232C362.542 97.496 362.262 96.968 361.702 96.648C361.142 96.328 360.318 96.168 359.23 96.168H356.086V100.296H359.278C360.334 100.296 361.142 100.144 361.702 99.84C362.262 99.52 362.542 98.984 362.542 98.232Z" fill="#273562"/>
<line x1="159.5" y1="16" x2="159.5" y2="106" stroke="black"/>
<defs>
<radialGradient id="paint0_angular" cx="0" cy="0" r="1" gradientUnits="userSpaceOnUse" gradientTransform="translate(155.5 45.5) rotate(124.439) scale(127.315 355.992)">
<stop stop-color="white"/>
<stop offset="1" stop-color="white" stop-opacity="0"/>
</radialGradient>
</defs>
</svg>
